<?xml version="1.0" encoding="UTF-8"?>
<svg xmlns="http://www.w3.org/2000/svg" width="800" height="800" version="1.1" viewBox="0 0 800 800">
  <!-- Generator: Adobe Illustrator 29.5.0, SVG Export Plug-In . SVG Version: 2.1.0 Build 137)  -->
  <defs>
    <style>
      .st0 {
        fill: #c89614;
      }

      .st1 {
        fill: #85828e;
      }

      .st2 {
        fill: #eb0037;
      }

      .st3 {
        fill: #0b051c;
      }

      .st4 {
        fill: #cecdd2;
      }

      .st5 {
        fill: #f3f3f4;
      }

      .st6 {
        fill: #545060;
      }
    </style>
  </defs>
  <g id="Floor">
    <rect class="st5" x="220" y="170" width="360" height="460" rx="6" ry="6"/>
  </g>
  <g id="Showcase">
    <rect class="st4" x="355" y="310" width="100" height="50.001" rx="1" ry="1"/>
  </g>
  <g id="Desk">
    <rect class="st4" x="345.001" y="555.001" width="210" height="50.001" rx="1" ry="1"/>
  </g>
  <g id="Bar_x5F_Stools">
    <circle class="st4" cx="520" cy="520" r="25"/>
    <circle class="st4" cx="450" cy="520" r="25"/>
  </g>
  <g id="Table_x5F_Chairs">
    <rect class="st4" x="272.459" y="389.958" width="29.996" height="3" rx="1" ry="1" transform="translate(-192.608 317.917) rotate(-45)"/>
    <rect class="st4" x="282.424" y="411.156" width="3" height="20" rx="1" ry="1" transform="translate(-214.643 324.118) rotate(-45)"/>
    <rect class="st4" x="315.656" y="377.924" width="3" height="20" rx="1" ry="1" transform="translate(-181.41 337.883) rotate(-45)"/>
    <rect class="st4" x="280.537" y="389.54" width="40" height="30" rx="5" ry="5" transform="translate(-198.028 331) rotate(-45)"/>
    <rect class="st4" x="285.958" y="473.334" width="3" height="29.996" rx="1" ry="1" transform="translate(-261.108 346.293) rotate(-45)"/>
    <rect class="st4" x="307.157" y="490.365" width="20" height="3" rx="1" ry="1" transform="translate(-254.908 368.326) rotate(-45)"/>
    <rect class="st4" x="273.924" y="457.132" width="20" height="3" rx="1" ry="1" transform="translate(-241.142 335.093) rotate(-45)"/>
    <rect class="st4" x="285.54" y="455.251" width="30" height="40" rx="5" ry="5" transform="translate(-248.028 351.715) rotate(-45)"/>
    <rect class="st4" x="382.832" y="376.46" width="3" height="29.996" rx="1" ry="1" transform="translate(-164.234 386.42) rotate(-45)"/>
    <rect class="st4" x="377.868" y="419.653" width="20" height="3" rx="1" ry="1" transform="translate(-184.197 397.615) rotate(-45)"/>
    <rect class="st4" x="344.635" y="386.421" width="20" height="3" rx="1" ry="1" transform="translate(-170.431 364.383) rotate(-45)"/>
    <rect class="st4" x="356.251" y="384.54" width="30" height="40" rx="5" ry="5" transform="translate(-177.316 381.005) rotate(-45)"/>
    <circle class="st4" cx="335.894" cy="439.895" r="30" transform="translate(-166.763 671.56) rotate(-77.38)"/>
  </g>
  <g id="Doors">
    <rect class="st1" x="489.913" y="197.411" width="5" height="90.001" rx="1" ry="1" transform="translate(-27.19 419.181) rotate(-44.999)"/>
  </g>
  <g id="Construction">
    <rect class="st6" x="244.996" y="210" width="10" height="380.003" rx="1" ry="1"/>
    <rect class="st6" x="444.999" y="210" width="10" height="80.002" rx="1" ry="1"/>
    <rect class="st6" x="260" y="294.998" width="179.998" height="10" rx="1" ry="1"/>
    <rect class="st6" x="259.998" y="195.002" width="280.003" height="10" rx="1" ry="1"/>
    <rect class="st6" x="259.999" y="595.014" width="80.002" height="10" rx="1" ry="1"/>
  </g>
  <g id="BRANDING">
    <path class="st2" d="M554.013,410.013c-1,0-7,0-8,0-1,0-1.013,1-1.013,1-.538,101.377-82.609,183.45-183.987,183.987,0,0-1,.013-1,1.013,0,1,0,7,0,8,0,1,1,.987,1,.987,106.9-.538,193.449-87.087,193.987-193.987,0,0,.013-1-.987-1Z"/>
    <rect class="st0" x="545.001" y="209.999" width="10" height="180.001" rx="1" ry="1"/>
  </g>
  <g id="Pillars">
    <rect class="st3" x="544" y="394" width="12" height="12" rx="1" ry="1"/>
    <rect class="st3" x="443.999" y="294" width="12" height="12" rx="1" ry="1"/>
    <rect class="st3" x="243.999" y="594.001" width="12" height="12" rx="1" ry="1"/>
    <rect class="st3" x="344" y="594.001" width="12" height="12" rx="1" ry="1"/>
    <rect class="st3" x="244" y="194" width="12" height="12" rx="1" ry="1"/>
    <rect class="st3" x="544" y="194" width="12" height="12" rx="1" ry="1"/>
  </g>
</svg>