<?xml version="1.0" encoding="UTF-8"?>
<svg xmlns="http://www.w3.org/2000/svg" width="800" height="800" version="1.1" viewBox="0 0 800 800">
  <!-- Generator: Adobe Illustrator 29.5.0, SVG Export Plug-In . SVG Version: 2.1.0 Build 137)  -->
  <defs>
    <style>
      .st0 {
        fill: #85828e;
      }

      .st1 {
        fill: #eb0037;
      }

      .st2 {
        fill: #0b051c;
      }

      .st3 {
        fill: #cecdd2;
      }

      .st4 {
        fill: #2846be;
      }

      .st5 {
        fill: #f3f3f4;
      }

      .st6 {
        fill: #545060;
      }
    </style>
  </defs>
  <g id="Floor">
    <rect class="st5" x="170" y="220" width="460" height="360" rx="6" ry="6"/>
  </g>
  <g id="Showcase">
    <rect class="st3" x="394.999" y="359.999" width="100" height="50.001" rx="1" ry="1"/>
  </g>
  <g id="Desk">
    <rect class="st3" x="195" y="504.999" width="210" height="50.001" rx="1" ry="1"/>
  </g>
  <g id="Bar_x5F_Stools">
    <circle class="st3" cx="305" cy="468.999" r="25"/>
    <circle class="st3" cx="375" cy="468.999" r="25"/>
  </g>
  <g id="Table_x5F_Chairs">
    <rect class="st3" x="313.999" y="323.002" width="3" height="29.996" rx="1" ry="1"/>
    <rect class="st3" x="286.997" y="359.998" width="20" height="3" rx="1" ry="1"/>
    <rect class="st3" x="286.997" y="313" width="20" height="3" rx="1" ry="1"/>
    <rect class="st3" x="282" y="318.001" width="30" height="40" rx="5" ry="5"/>
    <rect class="st3" x="232" y="404.999" width="29.996" height="3" rx="1" ry="1"/>
    <rect class="st3" x="222" y="377.998" width="3" height="20" rx="1" ry="1"/>
    <rect class="st3" x="268.998" y="377.998" width="3" height="20" rx="1" ry="1"/>
    <rect class="st3" x="226.997" y="373" width="40" height="30" rx="5" ry="5"/>
    <rect class="st3" x="232" y="267.999" width="29.996" height="3" rx="1" ry="1"/>
    <rect class="st3" x="222" y="277.997" width="3" height="20" rx="1" ry="1"/>
    <rect class="st3" x="268.998" y="277.997" width="3" height="20" rx="1" ry="1"/>
    <rect class="st3" x="226.997" y="273" width="40" height="30" rx="5" ry="5"/>
    <circle class="st3" cx="246.999" cy="338.001" r="30"/>
  </g>
  <g id="Doors">
    <rect class="st0" x="312.587" y="289.912" width="90.001" height="5" rx="1" ry="1" transform="translate(-102.032 338.49) rotate(-44.999)"/>
  </g>
  <g id="Construction">
    <rect class="st6" x="394.998" y="260" width="10" height="80.001" rx="1" ry="1"/>
    <rect class="st6" x="410" y="344.999" width="180" height="10" rx="1" ry="1"/>
    <rect class="st6" x="194.997" y="259.996" width="10" height="280.001" rx="1" ry="1"/>
    <rect class="st6" x="210.001" y="244.997" width="380" height="10" rx="1" ry="1"/>
  </g>
  <g id="BRANDING">
    <rect class="st4" x="210.001" y="545.001" width="380" height="10" rx="1" ry="1"/>
    <rect class="st1" x="595" y="259.995" width="10" height="280" rx="1" ry="1"/>
  </g>
  <g id="Pillars">
    <rect class="st2" x="193.999" y="543.999" width="12" height="12" rx="1" ry="1"/>
    <rect class="st2" x="394" y="343.999" width="12" height="12" rx="1" ry="1"/>
    <rect class="st2" x="193.999" y="243.999" width="12" height="12" rx="1" ry="1"/>
    <rect class="st2" x="594" y="244" width="12" height="12" rx="1" ry="1"/>
    <rect class="st2" x="593.999" y="544" width="12" height="12" rx="1" ry="1"/>
  </g>
</svg>