<?xml version="1.0" encoding="UTF-8"?>
<svg xmlns="http://www.w3.org/2000/svg" width="800" height="800" version="1.1" viewBox="0 0 800 800">
  <!-- Generator: Adobe Illustrator 29.5.0, SVG Export Plug-In . SVG Version: 2.1.0 Build 137)  -->
  <defs>
    <style>
      .st0 {
        fill: #85828e;
      }

      .st1 {
        fill: #eb0037;
      }

      .st2 {
        fill: #0b051c;
      }

      .st3 {
        fill: #cecdd2;
      }

      .st4 {
        fill: #f3f3f4;
      }

      .st5 {
        fill: #545060;
      }
    </style>
  </defs>
  <g id="Floor">
    <rect class="st4" x="70" y="170" width="660" height="460" rx="6" ry="6"/>
  </g>
  <g id="Showcase">
    <rect class="st3" x="605" y="410" width="100" height="100" rx="1" ry="1"/>
  </g>
  <g id="Desk">
    <rect class="st3" x="95" y="555" width="410" height="50" rx="1" ry="1"/>
  </g>
  <g id="Bar_x5F_Stools">
    <circle class="st3" cx="230" cy="519" r="25"/>
    <circle class="st3" cx="300" cy="519" r="25"/>
    <circle class="st3" cx="370" cy="519" r="25"/>
  </g>
  <g id="Table_x5F_Chairs">
    <rect class="st3" x="126.168" y="388.325" width="3" height="29.996" rx="1" ry="1" transform="translate(-247.799 208.406) rotate(-45)"/>
    <rect class="st3" x="114.135" y="372.124" width="20" height="3" rx="1" ry="1" transform="translate(-227.834 197.21) rotate(-45)"/>
    <rect class="st3" x="147.368" y="405.357" width="20" height="3" rx="1" ry="1" transform="translate(-241.6 230.443) rotate(-45)"/>
    <rect class="st3" x="125.749" y="370.241" width="30" height="40" rx="5" ry="5" transform="translate(-234.717 213.822) rotate(-45)"/>
    <rect class="st3" x="112.672" y="304.949" width="29.996" height="3" rx="1" ry="1" transform="translate(-179.299 180.033) rotate(-45)"/>
    <rect class="st3" x="155.868" y="292.916" width="3" height="20" rx="1" ry="1" transform="translate(-168.102 199.999) rotate(-45)"/>
    <rect class="st3" x="122.635" y="326.148" width="3" height="20" rx="1" ry="1" transform="translate(-201.335 186.234) rotate(-45)"/>
    <rect class="st3" x="120.751" y="304.529" width="40" height="30" rx="5" ry="5" transform="translate(-184.716 193.113) rotate(-45)"/>
    <rect class="st3" x="209.545" y="401.822" width="29.996" height="3" rx="1" ry="1" transform="translate(-219.425 276.907) rotate(-45)"/>
    <rect class="st3" x="226.579" y="363.627" width="3" height="20" rx="1" ry="1" transform="translate(-197.392 270.711) rotate(-45)"/>
    <rect class="st3" x="193.346" y="396.86" width="3" height="20" rx="1" ry="1" transform="translate(-230.624 256.945) rotate(-45)"/>
    <rect class="st3" x="191.463" y="375.24" width="40" height="30" rx="5" ry="5" transform="translate(-214.005 263.824) rotate(-45)"/>
    <circle class="st3" cx="176.105" cy="354.886" r="30" transform="translate(-216.447 408.362) rotate(-71.366)"/>
    <rect class="st3" x="300.825" y="213.671" width="3" height="29.996" rx="1" ry="1" transform="translate(-73.144 280.752) rotate(-45)"/>
    <rect class="st3" x="295.858" y="256.867" width="20" height="3" rx="1" ry="1" transform="translate(-93.109 291.949) rotate(-45)"/>
    <rect class="st3" x="262.625" y="223.634" width="20" height="3" rx="1" ry="1" transform="translate(-79.344 258.716) rotate(-45)"/>
    <rect class="st3" x="274.245" y="221.751" width="30" height="40" rx="5" ry="5" transform="translate(-86.226 275.333) rotate(-45)"/>
    <rect class="st3" x="287.325" y="324.042" width="29.996" height="3" rx="1" ry="1" transform="translate(-141.645 309.125) rotate(-45)"/>
    <rect class="st3" x="271.125" y="319.076" width="3" height="20" rx="1" ry="1" transform="translate(-152.842 289.161) rotate(-45)"/>
    <rect class="st3" x="304.358" y="285.843" width="3" height="20" rx="1" ry="1" transform="translate(-119.609 302.926) rotate(-45)"/>
    <rect class="st3" x="269.242" y="297.463" width="40" height="30" rx="5" ry="5" transform="translate(-136.227 296.041) rotate(-45)"/>
    <rect class="st3" x="190.452" y="227.169" width="29.996" height="3" rx="1" ry="1" transform="translate(-101.519 212.251) rotate(-45)"/>
    <rect class="st3" x="200.414" y="248.365" width="3" height="20" rx="1" ry="1" transform="translate(-123.552 218.449) rotate(-45)"/>
    <rect class="st3" x="233.646" y="215.132" width="3" height="20" rx="1" ry="1" transform="translate(-90.319 232.215) rotate(-45)"/>
    <rect class="st3" x="198.53" y="226.751" width="40" height="30" rx="5" ry="5" transform="translate(-106.938 225.331) rotate(-45)"/>
    <circle class="st3" cx="253.888" cy="277.106" r="30" transform="translate(-92.15 423.751) rotate(-70.47)"/>
  </g>
  <g id="Doors">
    <rect class="st0" x="539.912" y="197.412" width="5" height="90.001" rx="1" ry="1" transform="translate(-12.539 454.554) rotate(-45.001)"/>
  </g>
  <g id="Construction">
    <rect class="st5" x="95" y="210" width="10" height="180" rx="1" ry="1"/>
    <rect class="st5" x="695" y="210" width="10" height="180" rx="1" ry="1"/>
    <rect class="st5" x="510" y="195.001" width="180" height="10" rx="1" ry="1"/>
    <rect class="st5" x="310" y="195.001" width="180" height="10" rx="1" ry="1"/>
    <rect class="st5" x="110" y="195.001" width="180" height="10" rx="1" ry="1"/>
    <rect class="st5" x="510" y="395" width="180" height="10" rx="1" ry="1"/>
    <rect class="st5" x="495" y="210" width="10" height="80" rx="1" ry="1"/>
    <rect class="st5" x="495" y="310" width="10" height="80" rx="1" ry="1"/>
  </g>
  <g id="BRANDING">
    <path class="st1" d="M504,410h-8c-1,0-1.013,1-1.013,1-.538,101.377-82.609,183.45-183.987,183.987,0,0-1,.013-1,1.013v8c0,1,1,.987,1,.987,106.9-.538,193.449-87.087,193.987-193.987,0,0,.013-1-.987-1Z"/>
    <path class="st1" d="M95.987,410c1,0,7,0,8,0,1,0,1.013,1,1.013,1,.538,101.377,82.609,183.45,183.987,183.987,0,0,1,.013,1,1.013,0,1,0,7,0,8,0,1-1,.987-1,.987-106.9-.538-193.449-87.087-193.987-193.987,0,0-.013-1,.987-1Z"/>
  </g>
  <g id="Pillars">
    <rect class="st2" x="694" y="394" width="12" height="12" rx="1" ry="1"/>
    <rect class="st2" x="494" y="394" width="12" height="12" rx="1" ry="1"/>
    <rect class="st2" x="94" y="394" width="12" height="12" rx="1" ry="1"/>
    <rect class="st2" x="494" y="194" width="12" height="12" rx="1" ry="1"/>
    <rect class="st2" x="294.002" y="594" width="12" height="12" rx="1" ry="1"/>
    <rect class="st2" x="94" y="194" width="12" height="12" rx="1" ry="1"/>
    <rect class="st2" x="294" y="194" width="12" height="12" rx="1" ry="1"/>
    <rect class="st2" x="694" y="194" width="12" height="12" rx="1" ry="1"/>
    <rect class="st2" x="494" y="294" width="12" height="12" rx="1" ry="1"/>
  </g>
</svg>