<?xml version="1.0" encoding="UTF-8"?>
<svg xmlns="http://www.w3.org/2000/svg" width="800" height="800" version="1.1" viewBox="0 0 800 800">
  <!-- Generator: Adobe Illustrator 29.5.0, SVG Export Plug-In . SVG Version: 2.1.0 Build 137)  -->
  <defs>
    <style>
      .st0 {
        fill: #c89614;
      }

      .st1 {
        fill: #85828e;
      }

      .st2 {
        fill: #6e55c8;
      }

      .st3 {
        fill: #0b051c;
      }

      .st4 {
        fill: #cecdd2;
      }

      .st5 {
        fill: #f3f3f4;
      }

      .st6 {
        fill: #545060;
      }
    </style>
  </defs>
  <g id="Floor">
    <rect class="st5" x="20" y="20" width="760" height="760" rx="6" ry="6"/>
  </g>
  <g id="Showcase">
    <rect class="st4" x="640" y="260" width="100" height="100" rx="1" ry="1"/>
    <rect class="st4" x="260" y="60" width="50" height="100" rx="1" ry="1"/>
  </g>
  <g id="Desk">
    <rect class="st4" x="445" y="705" width="310" height="50" rx="1" ry="1"/>
    <rect class="st4" x="45" y="245" width="50" height="310" rx="1" ry="1"/>
    <rect class="st4" x="100.002" y="245.002" width="140.004" height="39.998" rx="1" ry="1"/>
  </g>
  <g id="Bar_x5F_Stools">
    <circle class="st4" cx="480" cy="670" r="25"/>
    <circle class="st4" cx="550" cy="670" r="25"/>
    <circle class="st4" cx="130" cy="320" r="25"/>
    <circle class="st4" cx="130" cy="390" r="25"/>
  </g>
  <g id="Table_x5F_Chairs">
    <rect class="st4" x="472.062" y="413.438" width="3" height="29.996" rx="1" ry="1" transform="translate(-164.247 460.346) rotate(-45)"/>
    <rect class="st4" x="460.029" y="397.237" width="20" height="3" rx="1" ry="1" transform="translate(-144.282 449.151) rotate(-45)"/>
    <rect class="st4" x="493.262" y="430.47" width="20" height="3" rx="1" ry="1" transform="translate(-158.047 482.383) rotate(-45)"/>
    <rect class="st4" x="471.643" y="395.354" width="30" height="40" rx="5" ry="5" transform="translate(-151.166 465.761) rotate(-45)"/>
    <rect class="st4" x="568.936" y="316.564" width="3" height="29.996" rx="1" ry="1" transform="translate(-67.373 500.473) rotate(-45)"/>
    <rect class="st4" x="530.74" y="326.526" width="20" height="3" rx="1" ry="1" transform="translate(-73.57 478.44) rotate(-45)"/>
    <rect class="st4" x="563.973" y="359.759" width="20" height="3" rx="1" ry="1" transform="translate(-87.335 511.673) rotate(-45)"/>
    <rect class="st4" x="542.354" y="324.643" width="30" height="40" rx="5" ry="5" transform="translate(-80.455 495.051) rotate(-45)"/>
    <rect class="st4" x="458.566" y="330.062" width="29.996" height="3" rx="1" ry="1" transform="translate(-95.746 431.973) rotate(-45)"/>
    <rect class="st4" x="501.762" y="318.029" width="3" height="20" rx="1" ry="1" transform="translate(-84.549 451.939) rotate(-45)"/>
    <rect class="st4" x="468.529" y="351.262" width="3" height="20" rx="1" ry="1" transform="translate(-117.782 438.174) rotate(-45)"/>
    <rect class="st4" x="466.645" y="329.642" width="40" height="30" rx="5" ry="5" transform="translate(-101.164 445.052) rotate(-45)"/>
    <rect class="st4" x="555.439" y="426.936" width="29.996" height="3" rx="1" ry="1" transform="translate(-135.872 528.847) rotate(-45)"/>
    <rect class="st4" x="572.473" y="388.74" width="3" height="20" rx="1" ry="1" transform="translate(-113.839 522.651) rotate(-45)"/>
    <rect class="st4" x="539.24" y="421.973" width="3" height="20" rx="1" ry="1" transform="translate(-147.071 508.885) rotate(-45)"/>
    <rect class="st4" x="537.356" y="400.354" width="40" height="30" rx="5" ry="5" transform="translate(-130.454 515.763) rotate(-45)"/>
    <circle class="st4" cx="521.999" cy="379.999" r="30"/>
    <rect class="st4" x="356.566" y="100.062" width="29.996" height="3" rx="1" ry="1" transform="translate(37.014 292.484) rotate(-45)"/>
    <rect class="st4" x="399.762" y="88.029" width="3" height="20" rx="1" ry="1" transform="translate(48.211 312.449) rotate(-45)"/>
    <rect class="st4" x="366.53" y="121.262" width="3" height="20" rx="1" ry="1" transform="translate(14.978 298.684) rotate(-45)"/>
    <rect class="st4" x="364.646" y="99.643" width="40" height="30" rx="5" ry="5" transform="translate(31.596 305.564) rotate(-45)"/>
    <rect class="st4" x="453.44" y="196.936" width="29.996" height="3" rx="1" ry="1" transform="translate(-3.112 389.359) rotate(-45)"/>
    <rect class="st4" x="470.473" y="158.74" width="3" height="20" rx="1" ry="1" transform="translate(18.921 383.16) rotate(-45)"/>
    <rect class="st4" x="437.241" y="191.973" width="3" height="20" rx="1" ry="1" transform="translate(-14.312 369.395) rotate(-45)"/>
    <rect class="st4" x="435.357" y="170.354" width="40" height="30" rx="5" ry="5" transform="translate(2.306 376.275) rotate(-45)"/>
    <rect class="st4" x="466.938" y="86.566" width="3" height="29.996" rx="1" ry="1" transform="translate(65.386 360.984) rotate(-45)"/>
    <rect class="st4" x="461.971" y="129.762" width="20" height="3" rx="1" ry="1" transform="translate(45.422 372.182) rotate(-45)"/>
    <rect class="st4" x="428.738" y="96.529" width="20" height="3" rx="1" ry="1" transform="translate(59.188 338.95) rotate(-45)"/>
    <rect class="st4" x="440.358" y="94.645" width="30" height="40" rx="5" ry="5" transform="translate(52.304 355.564) rotate(-45)"/>
    <rect class="st4" x="370.064" y="183.44" width="3" height="29.996" rx="1" ry="1" transform="translate(-31.488 320.858) rotate(-45)"/>
    <rect class="st4" x="391.26" y="200.473" width="20" height="3" rx="1" ry="1" transform="translate(-25.289 342.893) rotate(-45)"/>
    <rect class="st4" x="358.028" y="167.24" width="20" height="3" rx="1" ry="1" transform="translate(-11.524 309.66) rotate(-45)"/>
    <rect class="st4" x="369.647" y="165.357" width="30" height="40" rx="5" ry="5" transform="translate(-18.407 326.275) rotate(-45)"/>
    <circle class="st4" cx="420.001" cy="149.999" r="30" transform="translate(-21.799 89.06) rotate(-11.8)"/>
  </g>
  <g id="Doors">
    <rect class="st1" x="205.088" y="162.587" width="5" height="90.001" rx="1" ry="1" transform="translate(-85.985 207.593) rotate(-45.001)"/>
  </g>
  <g id="Construction">
    <rect class="st6" x="45" y="60" width="10" height="180" rx="1" ry="1"/>
    <rect class="st6" x="245" y="60" width="10" height="80" rx="1" ry="1"/>
    <rect class="st6" x="245" y="160" width="10" height="80" rx="1" ry="1"/>
    <rect class="st6" x="45" y="260" width="10" height="480" rx="1" ry="1"/>
    <rect class="st6" x="260" y="45.009" width="480" height="10" rx="1" ry="1"/>
    <rect class="st6" x="60" y="45.001" width="180" height="10" rx="1" ry="1"/>
    <rect class="st6" x="60" y="245" width="180" height="10" rx="1" ry="1"/>
  </g>
  <g id="BRANDING">
    <rect class="st0" x="745" y="60" width="10" height="180" rx="1" ry="1"/>
    <rect class="st2" x="245" y="260" width="10" height="480" rx="1" ry="1"/>
    <rect class="st2" x="745" y="260" width="10" height="480" rx="1" ry="1"/>
    <rect class="st2" x="260" y="245" width="480" height="10" rx="1" ry="1"/>
    <rect class="st2" x="260" y="745" width="480" height="10" rx="1" ry="1"/>
    <rect class="st0" x="60" y="745" width="180" height="10" rx="1" ry="1"/>
  </g>
  <g id="Pillars">
    <rect class="st3" x="744" y="244" width="12" height="12" rx="1" ry="1"/>
    <rect class="st3" x="744" y="44" width="12" height="12" rx="1" ry="1"/>
    <rect class="st3" x="744" y="744" width="12" height="12" rx="1" ry="1"/>
    <rect class="st3" x="44" y="244" width="12" height="12" rx="1" ry="1"/>
    <rect class="st3" x="244" y="244" width="12" height="12" rx="1" ry="1"/>
    <rect class="st3" x="44" y="44" width="12" height="12" rx="1" ry="1"/>
    <rect class="st3" x="44" y="744" width="12" height="12" rx="1" ry="1"/>
    <rect class="st3" x="244" y="44" width="12" height="12" rx="1" ry="1"/>
    <rect class="st3" x="244" y="144" width="12" height="12" rx="1" ry="1"/>
    <rect class="st3" x="244" y="744" width="12" height="12" rx="1" ry="1"/>
  </g>
</svg>