<?xml version="1.0" encoding="UTF-8"?>
<svg id="Layer_1" xmlns="http://www.w3.org/2000/svg" width="1000" height="1000" xmlns:xlink="http://www.w3.org/1999/xlink" version="1.1" viewBox="0 0 1000 1000">
  <!-- Generator: Adobe Illustrator 29.5.0, SVG Export Plug-In . SVG Version: 2.1.0 Build 137)  -->
  <defs>
    <style>
      .st0 {
        fill: none;
      }

      .st1 {
        fill: #fff;
      }

      .st2 {
        clip-path: url(#clippath);
      }
    </style>
    <clipPath id="clippath">
      <rect class="st0" width="1000" height="1000"/>
    </clipPath>
  </defs>
  <g class="st2">
    <path class="st1" d="M753.119,651.998h15.3v-126h-12.6v57.06l.72,24.48-13.86-81.54h-16.38v126h12.6l-.18-59.22-.72-30.06,15.12,89.28ZM704.754,542.738v92.52c0,3.6-1.8,5.22-5.4,5.22h-2.88c-3.6,0-5.22-1.62-5.22-5.22v-92.52c0-3.78,1.62-5.4,5.22-5.4h2.88c3.6,0,5.4,1.62,5.4,5.4M718.794,635.798v-93.78c0-11.34-5.58-17.1-17.1-17.1h-7.56c-11.34,0-17.1,5.76-17.1,17.1v93.78c0,11.52,5.76,17.28,17.1,17.28h7.56c11.52,0,17.1-5.76,17.1-17.28M669.638,525.998h-14.04v126h14.04v-126ZM637.257,651.998v-113.22h12.06v-12.78h-38.16v12.78h12.059v113.22h14.041ZM589.54,552.098l6.12,68.22h-12.24l6.12-68.22ZM599.44,525.818h-18.72l-12.96,126.18h12.96l1.62-19.26h14.4l1.8,19.26h13.86l-12.96-126.18ZM547.332,543.818v36.72c0,3.96-1.8,5.76-5.76,5.76h-6.3v-47.7h6.66c3.78,0,5.4,1.62,5.4,5.22M553.452,592.059c5.04-1.98,7.92-6.12,7.92-14.22v-34.74c0-11.52-5.04-17.1-17.1-17.1h-23.04v126h14.04v-53.46h6.3c3.96,0,5.94,1.8,5.94,5.94v47.52h14.04v-47.88c0-6.84-2.52-10.44-8.1-12.06M513.638,525.998h-14.04v126h14.04v-126ZM478.449,543.818v42.12c0,3.6-1.621,5.4-5.221,5.4h-5.94v-52.92h5.94c3.6,0,5.221,1.62,5.221,5.4M467.288,603.758h8.281c11.34,0,17.099-5.76,17.099-17.1v-43.56c0-11.88-5.219-17.1-17.099-17.1h-22.32v126h14.039v-48.24ZM437.248,587.738l-12.96-10.26c-3.42-2.7-4.5-4.86-4.5-10.08v-24.66c0-3.6,1.62-5.4,5.22-5.4h1.8c3.6,0,5.04,1.8,5.04,5.4v31.68h14.04v-32.4c0-11.34-5.58-16.92-17.1-16.92h-5.94c-11.52,0-17.1,5.58-17.1,17.1v26.82c0,9,1.98,13.5,8.46,18.72l13.32,10.62c3.42,2.7,4.5,4.86,4.5,10.08v26.82c0,3.6-1.62,5.22-5.22,5.22h-1.98c-3.6,0-5.22-1.62-5.22-5.22v-33.84h-13.86v34.56c0,11.34,5.58,16.92,16.92,16.92h6.3c11.52,0,17.1-5.58,17.1-17.1v-29.16c0-9-1.8-13.5-8.82-18.9M383.196,651.998h15.3v-126h-12.6v57.06l.72,24.48-13.86-81.54h-16.38v126h12.6l-.18-59.22-.72-30.06,15.12,89.28ZM348.781,525.998h-14.04v126h14.04v-126ZM282.001,525.779v81.62h12.476v-35.446h14.109v-11.31h-14.109v-23.553h14.692v-11.311h-27.168ZM262.984,540.82v51.537c0,3.265-1.516,4.781-4.664,4.781h-2.565c-3.265,0-4.781-1.516-4.781-4.781v-51.537c0-3.265,1.516-4.781,4.781-4.781h2.565c3.148,0,4.664,1.516,4.664,4.781M275.46,592.94v-52.703c0-10.144-5.014-15.158-15.158-15.158h-6.646c-10.144,0-15.158,5.014-15.158,15.158v52.703c0,10.144,5.014,15.158,15.158,15.158h6.646c10.144,0,15.158-5.014,15.158-15.158"/>
    <path class="st1" d="M585.377,427.739l-12.96-10.26c-3.42-2.7-4.5-4.86-4.5-10.08v-24.66c0-3.6,1.62-5.4,5.22-5.4h1.8c3.6,0,5.04,1.8,5.04,5.4v31.68h14.04v-32.4c0-11.34-5.58-16.92-17.1-16.92h-5.94c-11.52,0-17.1,5.58-17.1,17.1v26.82c0,9,1.98,13.5,8.46,18.72l13.32,10.62c3.42,2.7,4.5,4.86,4.5,10.08v26.82c0,3.6-1.62,5.22-5.22,5.22h-1.98c-3.6,0-5.22-1.62-5.22-5.22v-33.84h-13.86v34.56c0,11.34,5.58,16.92,16.92,16.92h6.3c11.52,0,17.1-5.58,17.1-17.1v-29.16c0-9-1.8-13.5-8.82-18.9M546.57,365.999h-14.04v126h14.04v-126ZM516.458,427.739l-12.96-10.26c-3.42-2.7-4.5-4.86-4.5-10.08v-24.66c0-3.6,1.62-5.4,5.22-5.4h1.8c3.6,0,5.04,1.8,5.04,5.4v31.68h14.04v-32.4c0-11.34-5.58-16.92-17.1-16.92h-5.94c-11.52,0-17.1,5.58-17.1,17.1v26.82c0,9,1.98,13.5,8.46,18.72l13.32,10.62c3.42,2.7,4.5,4.86,4.5,10.08v26.82c0,3.6-1.62,5.22-5.22,5.22h-1.98c-3.6,0-5.22-1.62-5.22-5.22v-33.84h-13.86v34.56c0,11.34,5.58,16.92,16.92,16.92h6.3c11.52,0,17.1-5.58,17.1-17.1v-29.16c0-9-1.8-13.5-8.82-18.9M456.573,392.099l6.12,68.22h-12.24l6.12-68.22ZM466.473,365.819h-18.72l-12.96,126.18h12.96l1.62-19.26h14.4l1.8,19.26h13.86l-12.96-126.18ZM415.066,382.739v92.52c0,3.6-1.8,5.22-5.4,5.22h-2.88c-3.6,0-5.22-1.62-5.22-5.22v-92.52c0-3.78,1.62-5.4,5.22-5.4h2.88c3.6,0,5.4,1.62,5.4,5.4M429.106,475.799v-93.78c0-11.34-5.58-17.1-17.1-17.1h-7.56c-11.34,0-17.1,5.76-17.1,17.1v93.78c0,11.52,5.76,17.28,17.1,17.28h7.56c11.52,0,17.1-5.76,17.1-17.28M329.93,365.999v126h31.5v-12.78h-17.46v-44.82h16.56v-12.6h-16.56v-43.02h17.28v-12.78h-31.32ZM294.67,421.619v-55.62h-14.04v126h14.04v-57.42h13.5v57.42h14.22v-126h-14.22v55.62h-13.5ZM262.36,491.999v-113.22h12.06v-12.78h-38.16v12.78h12.06v113.22h14.04Z"/>
    <path class="st1" d="M738.906,723.656h24.156v-5.875h-24.156v5.875ZM750.781,697.906h.375l13.187,38.094h7.438l-16.719-46.563h-8.125l-16.75,46.563h7.469l13.125-38.094ZM721.143,734.875c2.469-1.167,4.416-2.76,5.844-4.781,1.426-2.021,2.14-4.313,2.14-6.875,0-2.938-.849-5.396-2.547-7.375s-4.089-3.208-7.172-3.688v-.343c2.438-.646,4.386-1.87,5.844-3.672s2.188-4.026,2.188-6.672c0-2.271-.594-4.37-1.782-6.297-1.187-1.927-2.87-3.469-5.046-4.625-2.178-1.156-4.756-1.735-7.735-1.735-2.854,0-5.453.537-7.797,1.61-2.343,1.073-4.218,2.562-5.625,4.469-1.406,1.906-2.14,4.12-2.203,6.64h6.781c.042-1.437.474-2.661,1.297-3.672.823-1.01,1.891-1.786,3.203-2.328,1.313-.541,2.729-.812,4.25-.812,1.583,0,2.958.297,4.125.89,1.167.594,2.073,1.428,2.719,2.5.646,1.074.969,2.328.969,3.766,0,1.5-.37,2.802-1.109,3.906-.74,1.105-1.766,1.969-3.079,2.594-1.312.625-2.823.938-4.531.938h-3.969v5.75h3.969c2.146,0,3.979.333,5.5,1,1.521.666,2.677,1.599,3.469,2.796.791,1.199,1.187,2.578,1.187,4.141,0,1.5-.401,2.818-1.203,3.953-.802,1.136-1.911,2.026-3.328,2.672s-3.042.969-4.875.969c-1.687,0-3.214-.276-4.578-.828-1.365-.552-2.464-1.328-3.297-2.329-.833-1-1.302-2.187-1.406-3.562h-7.063c.083,2.521.833,4.74,2.25,6.656,1.417,1.917,3.344,3.412,5.782,4.485,2.437,1.072,5.229,1.609,8.375,1.609,3.166,0,5.984-.583,8.453-1.75M669.096,736h6.75v-46.563h-6.75v46.563ZM656.62,736h6.75v-46.563h-6.75v46.563ZM630.419,730.031c-1.25-.854-1.875-2.125-1.875-3.812,0-1.208.328-2.182.985-2.922.656-.739,1.526-1.302,2.609-1.688,1.083-.385,2.281-.672,3.594-.859.562-.063,1.26-.151,2.094-.266.833-.114,1.687-.244,2.562-.39s1.656-.323,2.344-.531c.687-.209,1.156-.427,1.406-.657v4.531c0,1.355-.354,2.636-1.062,3.844-.709,1.209-1.73,2.183-3.063,2.922-1.333.74-2.948,1.11-4.844,1.11-1.917,0-3.5-.427-4.75-1.282M638.669,735.906c1.375-.562,2.505-1.27,3.391-2.125.885-.854,1.536-1.708,1.953-2.562h.25v4.781h6.656v-23.187c0-2.542-.437-4.615-1.312-6.219s-2.006-2.839-3.391-3.703c-1.386-.865-2.859-1.458-4.422-1.782-1.562-.322-3.042-.484-4.437-.484-2.084,0-4.078.302-5.985.906-1.906.605-3.593,1.558-5.062,2.86-1.469,1.302-2.589,3.015-3.359,5.14l6.406,1.469c.5-1.25,1.411-2.37,2.734-3.359,1.323-.99,3.12-1.485,5.391-1.485,2.187,0,3.838.542,4.953,1.625,1.114,1.084,1.672,2.615,1.672,4.594v.156c0,.813-.297,1.402-.891,1.766-.594.365-1.536.63-2.828.797-1.292.167-2.99.364-5.094.594-1.667.208-3.292.5-4.875.875s-3.021.937-4.312,1.687c-1.292.75-2.318,1.755-3.078,3.016-.761,1.26-1.141,2.88-1.141,4.859,0,2.271.521,4.198,1.563,5.781,1.041,1.584,2.458,2.787,4.25,3.61,1.791.822,3.791,1.234,6,1.234,1.937,0,3.593-.281,4.968-.844M586.953,736v-20.281h23.187v20.281h7.032v-46.563h-7.032v20.251h-23.187v-20.251h-7.031v46.563h7.031Z"/>
    <path class="st1" d="M272.859,340v-6.25h-27.031v-.469l13.047-13.984c3.333-3.568,5.943-6.602,7.832-9.102,1.887-2.5,3.216-4.759,3.984-6.777.768-2.018,1.152-4.095,1.152-6.231,0-3.02-.749-5.748-2.246-8.183-1.498-2.435-3.561-4.375-6.191-5.82-2.631-1.446-5.651-2.168-9.063-2.168-3.385,0-6.439.722-9.16,2.168-2.721,1.445-4.87,3.457-6.445,6.035-1.576,2.578-2.363,5.573-2.363,8.984h6.718c0-2.213.45-4.147,1.348-5.801.898-1.653,2.174-2.935,3.828-3.847,1.654-.912,3.6-1.368,5.84-1.368,2.109,0,3.997.405,5.664,1.211,1.666.808,2.988,1.96,3.965,3.457.976,1.498,1.465,3.276,1.465,5.332,0,1.772-.359,3.464-1.074,5.079-.717,1.615-1.797,3.333-3.243,5.156-1.445,1.823-3.288,3.959-5.527,6.406l-19.219,21.094v5.078h36.719Z"/>
  </g>
</svg>