<?xml version="1.0" encoding="UTF-8"?>
<svg id="Layer_1" xmlns="http://www.w3.org/2000/svg" width="1000" height="1000" xmlns:xlink="http://www.w3.org/1999/xlink" version="1.1" viewBox="0 0 1000 1000">
  <!-- Generator: Adobe Illustrator 29.5.0, SVG Export Plug-In . SVG Version: 2.1.0 Build 137)  -->
  <defs>
    <style>
      .st0 {
        fill: none;
      }

      .st1 {
        fill: #fff;
      }

      .st2 {
        clip-path: url(#clippath);
      }
    </style>
    <clipPath id="clippath">
      <rect class="st0" width="1000" height="1000"/>
    </clipPath>
  </defs>
  <g class="st2">
    <path class="st1" d="M245.887,338.613c2.955-1.445,5.286-3.418,6.992-5.918,1.706-2.5,2.559-5.325,2.559-8.477,0-3.697-1.029-6.803-3.086-9.316-2.058-2.513-4.909-4.069-8.555-4.668v-.469c2.943-.911,5.267-2.512,6.973-4.804,1.705-2.292,2.558-5.091,2.558-8.399,0-2.734-.69-5.286-2.07-7.656-1.381-2.369-3.359-4.277-5.937-5.723-2.579-1.445-5.664-2.168-9.258-2.168-3.36,0-6.439.645-9.238,1.934-2.8,1.289-5.059,3.08-6.778,5.371-1.719,2.292-2.63,4.961-2.734,8.008h6.797c.078-1.927.677-3.568,1.797-4.922,1.119-1.354,2.564-2.396,4.335-3.125,1.771-.729,3.659-1.094,5.665-1.094,2.161,0,4.029.404,5.605,1.211,1.575.808,2.793,1.94,3.652,3.399.86,1.458,1.289,3.177,1.289,5.156,0,2.031-.495,3.802-1.484,5.312-.99,1.511-2.357,2.683-4.102,3.516-1.745.834-3.763,1.25-6.054,1.25h-4.688v6.25h4.688c2.942,0,5.436.463,7.48,1.387,2.044.924,3.6,2.207,4.668,3.847,1.068,1.641,1.602,3.542,1.602,5.703,0,2.032-.554,3.822-1.66,5.372-1.108,1.549-2.631,2.76-4.571,3.632-1.94.873-4.16,1.309-6.66,1.309-2.24,0-4.277-.364-6.113-1.094-1.836-.729-3.32-1.77-4.453-3.125-1.133-1.354-1.778-2.969-1.934-4.844h-7.109c.13,3.047,1.054,5.723,2.773,8.028,1.719,2.304,4.036,4.095,6.953,5.371,2.917,1.276,6.263,1.914,10.039,1.914,3.75,0,7.103-.723,10.059-2.168"/>
    <path class="st1" d="M755.625,695.437h9.625c2.771,0,4.828.652,6.172,1.954s2.016,2.911,2.016,4.828c0,1.479-.37,2.776-1.11,3.89-.739,1.115-1.745,1.974-3.015,2.579-1.271.604-2.688.906-4.25.906h-9.438v-14.157ZM755.625,715.063h10.406c1.875,0,3.5.364,4.875,1.093,1.375.73,2.433,1.703,3.172,2.922.74,1.219,1.11,2.568,1.11,4.047,0,1.958-.73,3.594-2.188,4.906-1.458,1.313-3.875,1.969-7.25,1.969h-10.125v-14.937ZM766.438,736c3.625,0,6.593-.552,8.906-1.656,2.312-1.104,4.026-2.599,5.141-4.485,1.114-1.885,1.671-4.015,1.671-6.39,0-2.417-.484-4.464-1.453-6.141-.968-1.677-2.192-2.974-3.672-3.89-1.479-.917-3-1.417-4.562-1.5v-.438c1.437-.375,2.75-.958,3.937-1.75,1.188-.792,2.141-1.854,2.86-3.187.719-1.334,1.078-2.969,1.078-4.907,0-2.291-.537-4.359-1.609-6.203-1.074-1.844-2.693-3.307-4.86-4.391-2.167-1.083-4.896-1.625-8.187-1.625h-17.094v46.563h17.844ZM743.414,736v-6h-20.938v-.375l9.25-9.687c2.833-2.855,5.047-5.297,6.641-7.329,1.594-2.031,2.708-3.869,3.344-5.515.635-1.646.953-3.333.953-5.063,0-2.5-.625-4.744-1.875-6.734-1.25-1.989-2.99-3.568-5.219-4.735-2.229-1.166-4.812-1.75-7.75-1.75-2.875,0-5.453.589-7.734,1.766s-4.073,2.828-5.375,4.953-1.953,4.605-1.953,7.438h6.687c0-1.667.339-3.12,1.016-4.36.677-1.239,1.63-2.197,2.859-2.875,1.229-.676,2.677-1.015,4.344-1.015,1.583,0,3,.302,4.25.906s2.239,1.469,2.969,2.594c.729,1.125,1.093,2.468,1.093,4.031,0,1.354-.276,2.636-.828,3.844s-1.375,2.484-2.468,3.828c-1.094,1.344-2.475,2.891-4.141,4.641l-15.75,16.375v5.062h30.625ZM685.414,736h6.75v-46.563h-6.75v46.563ZM672.938,736h6.75v-46.563h-6.75v46.563ZM646.738,730.031c-1.25-.854-1.875-2.125-1.875-3.812,0-1.208.328-2.182.985-2.922.656-.739,1.526-1.302,2.609-1.688,1.083-.385,2.281-.672,3.594-.859.562-.063,1.26-.151,2.094-.266.833-.114,1.687-.244,2.562-.39s1.656-.323,2.344-.531c.687-.209,1.156-.427,1.406-.657v4.531c0,1.355-.354,2.636-1.062,3.844-.709,1.209-1.73,2.183-3.063,2.922-1.333.74-2.948,1.11-4.844,1.11-1.917,0-3.5-.427-4.75-1.282M654.988,735.906c1.375-.562,2.505-1.27,3.391-2.125.885-.854,1.536-1.708,1.953-2.562h.25v4.781h6.656v-23.187c0-2.542-.437-4.615-1.312-6.219s-2.006-2.839-3.391-3.703c-1.386-.865-2.859-1.458-4.422-1.782-1.562-.322-3.042-.484-4.437-.484-2.084,0-4.078.302-5.985.906-1.906.605-3.593,1.558-5.062,2.86-1.469,1.302-2.589,3.015-3.359,5.14l6.406,1.469c.5-1.25,1.411-2.37,2.734-3.359,1.323-.99,3.12-1.485,5.391-1.485,2.187,0,3.838.542,4.953,1.625,1.114,1.084,1.672,2.615,1.672,4.594v.156c0,.813-.297,1.402-.891,1.766-.594.365-1.536.63-2.828.797-1.292.167-2.99.364-5.094.594-1.667.208-3.292.5-4.875.875s-3.021.937-4.312,1.687c-1.292.75-2.318,1.755-3.078,3.016-.761,1.26-1.141,2.88-1.141,4.859,0,2.271.521,4.198,1.563,5.781,1.041,1.584,2.458,2.787,4.25,3.61,1.791.822,3.791,1.234,6,1.234,1.937,0,3.593-.281,4.968-.844M603.271,736v-20.281h23.187v20.281h7.032v-46.563h-7.032v20.251h-23.187v-20.251h-7.031v46.563h7.031Z"/>
    <path class="st1" d="M763.782,651.998h15.3v-126h-12.6v57.06l.72,24.48-13.86-81.54h-16.38v126h12.6l-.18-59.22-.72-30.06,15.12,89.28ZM715.417,542.738v92.52c0,3.6-1.8,5.22-5.4,5.22h-2.88c-3.6,0-5.22-1.62-5.22-5.22v-92.52c0-3.78,1.62-5.4,5.22-5.4h2.88c3.6,0,5.4,1.62,5.4,5.4M729.457,635.798v-93.78c0-11.34-5.58-17.1-17.1-17.1h-7.56c-11.34,0-17.1,5.76-17.1,17.1v93.78c0,11.52,5.76,17.28,17.1,17.28h7.56c11.52,0,17.1-5.76,17.1-17.28M680.301,525.998h-14.04v126h14.04v-126ZM647.919,651.998v-113.22h12.06v-12.78h-38.16v12.78h12.06v113.22h14.04ZM600.203,552.098l6.12,68.22h-12.24l6.12-68.22ZM610.103,525.818h-18.72l-12.96,126.18h12.96l1.62-19.26h14.4l1.8,19.26h13.86l-12.96-126.18ZM557.995,543.818v36.72c0,3.96-1.8,5.76-5.76,5.76h-6.3v-47.7h6.66c3.78,0,5.4,1.62,5.4,5.22M564.115,592.059c5.04-1.98,7.92-6.12,7.92-14.22v-34.74c0-11.52-5.04-17.1-17.1-17.1h-23.04v126h14.04v-53.46h6.3c3.96,0,5.94,1.8,5.94,5.94v47.52h14.04v-47.88c0-6.84-2.52-10.44-8.1-12.06M510.35,542.738v92.52c0,3.6-1.8,5.22-5.4,5.22h-2.88c-3.6,0-5.22-1.62-5.22-5.22v-92.52c0-3.78,1.62-5.4,5.22-5.4h2.88c3.6,0,5.4,1.62,5.4,5.4M524.39,635.798v-93.78c0-11.34-5.58-17.1-17.1-17.1h-7.56c-11.34,0-17.1,5.76-17.1,17.1v93.78c0,11.52,5.76,17.28,17.1,17.28h7.56c11.52,0,17.1-5.76,17.1-17.28M447.278,525.998v126h28.98v-12.78h-14.94v-113.22h-14.04ZM426.201,543.818v42.12c0,3.6-1.62,5.4-5.22,5.4h-5.94v-52.92h5.94c3.6,0,5.22,1.62,5.22,5.4M415.041,603.758h8.28c11.34,0,17.1-5.76,17.1-17.1v-43.56c0-11.88-5.22-17.1-17.1-17.1h-22.32v126h14.04v-48.24ZM394.541,525.998h-13.5l-8.1,46.26-7.56-46.26h-14.4l12.78,63.36-13.14,62.64h13.5l8.46-46.44,7.74,46.44h14.4l-13.14-63.36,12.96-62.64ZM313.561,525.998v126h31.5v-12.78h-17.46v-44.82h16.56v-12.6h-16.56v-43.02h17.28v-12.78h-31.32ZM261.001,525.779v81.62h12.476v-35.446h14.109v-11.31h-14.109v-23.553h14.692v-11.311h-27.168ZM241.984,540.82v51.537c0,3.265-1.516,4.781-4.664,4.781h-2.565c-3.265,0-4.781-1.516-4.781-4.781v-51.537c0-3.265,1.516-4.781,4.781-4.781h2.565c3.148,0,4.664,1.516,4.664,4.781M254.46,592.94v-52.703c0-10.144-5.014-15.158-15.158-15.158h-6.646c-10.144,0-15.158,5.014-15.158,15.158v52.703c0,10.144,5.014,15.158,15.158,15.158h6.646c10.144,0,15.158-5.014,15.158-15.158"/>
    <path class="st1" d="M728.459,365.999h-13.5l-8.46,57.42-7.92-57.42h-14.58l15.12,81.18v44.82h14.22v-45.9l15.12-80.1ZM665.137,383.819v36.72c0,3.96-1.8,5.76-5.76,5.76h-6.3v-47.7h6.66c3.78,0,5.4,1.62,5.4,5.22M671.257,432.059c5.04-1.98,7.92-6.12,7.92-14.22v-34.74c0-11.52-5.04-17.1-17.1-17.1h-23.04v126h14.04v-53.46h6.3c3.96,0,5.94,1.8,5.94,5.94v47.52h14.04v-47.88c0-6.84-2.52-10.44-8.1-12.06M631.497,365.999h-14.04v109.08c0,3.6-1.62,5.4-5.4,5.4h-2.16c-3.78,0-5.4-1.8-5.4-5.4v-109.08h-14.04v109.62c0,11.52,5.58,17.28,17.1,17.28h6.84c11.52,0,17.1-5.76,17.1-17.28v-109.62ZM574.547,427.739l-12.96-10.26c-3.42-2.7-4.5-4.86-4.5-10.08v-24.66c0-3.6,1.62-5.4,5.22-5.4h1.8c3.6,0,5.04,1.8,5.04,5.4v31.68h14.04v-32.4c0-11.34-5.58-16.92-17.1-16.92h-5.94c-11.52,0-17.1,5.58-17.1,17.1v26.82c0,9,1.98,13.5,8.46,18.72l13.32,10.62c3.42,2.7,4.5,4.86,4.5,10.08v26.82c0,3.6-1.62,5.22-5.22,5.22h-1.98c-3.6,0-5.22-1.62-5.22-5.22v-33.84h-13.86v34.56c0,11.34,5.58,16.92,16.92,16.92h6.3c11.52,0,17.1-5.58,17.1-17.1v-29.16c0-9-1.8-13.5-8.82-18.9M514.662,392.099l6.12,68.22h-12.24l6.12-68.22ZM524.562,365.819h-18.72l-12.96,126.18h12.96l1.62-19.26h14.4l1.8,19.26h13.86l-12.96-126.18ZM455.75,365.999v126h31.5v-12.78h-17.46v-44.82h16.56v-12.6h-16.56v-43.02h17.28v-12.78h-31.32ZM434.116,383.819v36.72c0,3.96-1.8,5.76-5.76,5.76h-6.3v-47.7h6.66c3.78,0,5.4,1.62,5.4,5.22M440.236,432.059c5.04-1.98,7.92-6.12,7.92-14.22v-34.74c0-11.52-5.04-17.1-17.1-17.1h-23.04v126h14.04v-53.46h6.3c3.96,0,5.94,1.8,5.94,5.94v47.52h14.04v-47.88c0-6.84-2.52-10.44-8.1-12.06M389.746,491.999v-113.22h12.06v-12.78h-38.16v12.78h12.06v113.22h14.04ZM308.93,365.999v126h31.5v-12.78h-17.46v-44.82h16.56v-12.6h-16.56v-43.02h17.28v-12.78h-31.32ZM273.67,421.619v-55.62h-14.04v126h14.04v-57.42h13.5v57.42h14.22v-126h-14.22v55.62h-13.5ZM241.36,491.999v-113.22h12.06v-12.78h-38.16v12.78h12.06v113.22h14.04Z"/>
  </g>
</svg>