<?xml version="1.0" encoding="UTF-8"?>
<svg id="Layer_1" xmlns="http://www.w3.org/2000/svg" width="1000" height="1000" xmlns:xlink="http://www.w3.org/1999/xlink" version="1.1" viewBox="0 0 1000 1000">
  <!-- Generator: Adobe Illustrator 29.5.0, SVG Export Plug-In . SVG Version: 2.1.0 Build 137)  -->
  <defs>
    <style>
      .st0 {
        fill: none;
      }

      .st1 {
        fill: #fff;
      }

      .st2 {
        clip-path: url(#clippath);
      }
    </style>
    <clipPath id="clippath">
      <rect class="st0" width="1000" height="1000"/>
    </clipPath>
  </defs>
  <g class="st2">
    <path class="st1" d="M252.66,332.695c-1.889-1.224-3.379-2.845-4.473-4.864-1.094-2.017-1.641-4.185-1.641-6.503s.567-4.473,1.7-6.465c1.132-1.992,2.669-3.6,4.609-4.824s4.108-1.836,6.504-1.836,4.524.586,6.387,1.757c1.861,1.172,3.333,2.741,4.414,4.707,1.08,1.967,1.621,4.161,1.621,6.582,0,2.449-.56,4.682-1.68,6.7s-2.63,3.62-4.531,4.804c-1.901,1.186-4.05,1.778-6.445,1.778-2.422,0-4.577-.612-6.465-1.836M269.398,338.144c2.916-1.758,5.176-4.114,6.777-7.07,1.602-2.956,2.403-6.231,2.403-9.825,0-3.75-.834-7.076-2.5-9.98-1.667-2.903-3.881-5.182-6.641-6.836-2.761-1.653-5.807-2.48-9.141-2.48-2.005,0-3.893.306-5.664.918-1.771.612-3.385,1.497-4.843,2.656-1.459,1.159-2.722,2.546-3.789,4.16h-.469c0-7.109,1.295-12.623,3.887-16.543,2.59-3.919,6.138-5.879,10.644-5.879,3.073,0,5.54.859,7.402,2.578,1.862,1.719,3.119,3.881,3.77,6.485h6.875c-.469-2.995-1.511-5.645-3.125-7.95-1.615-2.304-3.691-4.107-6.231-5.41-2.539-1.302-5.436-1.953-8.691-1.953-3.281,0-6.224.71-8.828,2.129-2.604,1.42-4.824,3.503-6.66,6.25-1.836,2.748-3.242,6.113-4.219,10.098-.977,3.984-1.465,8.554-1.465,13.711,0,5.365.599,9.831,1.797,13.398,1.198,3.568,2.78,6.387,4.746,8.457s4.147,3.542,6.543,4.414,4.779,1.309,7.149,1.309c3.931,0,7.356-.879,10.273-2.637"/>
    <path class="st1" d="M587.5,689.437l-11.562,7.594v6.75l11.062-7.281h.313v39.5h6.937v-46.563h-6.75ZM550.063,736h6.75v-46.563h-6.75v46.563ZM537.587,736h6.75v-46.563h-6.75v46.563ZM511.387,730.031c-1.25-.854-1.875-2.125-1.875-3.812,0-1.208.328-2.182.985-2.922.656-.739,1.526-1.302,2.609-1.688,1.083-.385,2.281-.672,3.594-.859.562-.063,1.26-.151,2.094-.266.833-.114,1.687-.244,2.562-.39s1.656-.323,2.344-.531c.687-.209,1.156-.427,1.406-.657v4.531c0,1.355-.354,2.636-1.062,3.844-.709,1.209-1.73,2.183-3.063,2.922-1.333.74-2.948,1.11-4.844,1.11-1.917,0-3.5-.427-4.75-1.282M519.637,735.906c1.375-.562,2.505-1.27,3.391-2.125.885-.854,1.536-1.708,1.953-2.562h.25v4.781h6.656v-23.187c0-2.542-.437-4.615-1.312-6.219s-2.006-2.839-3.391-3.703c-1.386-.865-2.859-1.458-4.422-1.782-1.562-.322-3.042-.484-4.437-.484-2.084,0-4.078.302-5.985.906-1.906.605-3.593,1.558-5.062,2.86s-2.589,3.015-3.359,5.14l6.406,1.469c.5-1.25,1.411-2.37,2.734-3.359,1.323-.99,3.12-1.485,5.391-1.485,2.187,0,3.838.542,4.953,1.625,1.114,1.084,1.672,2.615,1.672,4.594v.156c0,.813-.297,1.402-.891,1.766-.594.365-1.536.63-2.828.797s-2.99.364-5.094.594c-1.667.208-3.292.5-4.875.875s-3.021.937-4.312,1.687c-1.292.75-2.318,1.755-3.078,3.016-.761,1.26-1.141,2.88-1.141,4.859,0,2.271.521,4.198,1.563,5.781,1.041,1.584,2.458,2.787,4.25,3.61,1.791.822,3.791,1.234,6,1.234,1.937,0,3.593-.281,4.968-.844M467.92,736v-20.281h23.187v20.281h7.032v-46.563h-7.032v20.251h-23.187v-20.251h-7.031v46.563h7.031Z"/>
    <path class="st1" d="M604.279,525.998h-13.5l-8.46,57.42-7.92-57.42h-14.58l15.12,81.18v44.82h14.22v-45.9l15.12-80.1ZM541.406,598.178v37.08c0,3.6-1.62,5.22-5.22,5.22h-3.24c-3.6,0-5.22-1.62-5.22-5.22v-92.52c0-3.6,1.62-5.22,5.22-5.22h2.88c3.6,0,5.22,1.62,5.22,5.22v30.06h14.04v-30.78c0-11.34-5.58-16.92-16.92-16.92h-7.56c-11.34,0-17.1,5.58-17.1,17.1v93.6c0,11.52,5.76,17.1,17.1,17.1h7.56c11.52,0,17.1-5.58,17.1-17.1v-49.86h-21.06v12.24h7.2ZM492.034,543.818v36.72c0,3.96-1.8,5.76-5.76,5.76h-6.3v-47.7h6.66c3.78,0,5.4,1.62,5.4,5.22M498.154,592.059c5.04-1.98,7.92-6.12,7.92-14.22v-34.74c0-11.52-5.04-17.1-17.1-17.1h-23.04v126h14.04v-53.46h6.3c3.96,0,5.94,1.8,5.94,5.94v47.52h14.04v-47.88c0-6.84-2.52-10.44-8.1-12.06M427.578,525.998v126h31.5v-12.78h-17.46v-44.82h16.56v-12.6h-16.56v-43.02h17.28v-12.78h-31.32ZM404.737,651.998h15.3v-126h-12.6v57.06l.72,24.48-13.86-81.54h-16.38v126h12.6l-.18-59.22-.72-30.06,15.12,89.28ZM339.561,525.998v126h31.5v-12.78h-17.46v-44.82h16.56v-12.6h-16.56v-43.02h17.28v-12.78h-31.32ZM287.001,525.779v81.62h12.476v-35.446h14.109v-11.31h-14.109v-23.553h14.692v-11.311h-27.168ZM267.984,540.82v51.537c0,3.265-1.516,4.781-4.664,4.781h-2.565c-3.265,0-4.781-1.516-4.781-4.781v-51.537c0-3.265,1.516-4.781,4.781-4.781h2.565c3.148,0,4.664,1.516,4.664,4.781M280.46,592.94v-52.703c0-10.144-5.014-15.158-15.158-15.158h-6.646c-10.144,0-15.158,5.014-15.158,15.158v52.703c0,10.144,5.014,15.158,15.158,15.158h6.646c10.144,0,15.158-5.014,15.158-15.158"/>
    <path class="st1" d="M742.741,383.819v36.72c0,3.96-1.8,5.76-5.76,5.76h-6.3v-47.7h6.66c3.78,0,5.4,1.62,5.4,5.22M748.861,432.059c5.04-1.98,7.92-6.12,7.92-14.22v-34.74c0-11.52-5.04-17.1-17.1-17.1h-23.04v126h14.04v-53.46h6.3c3.96,0,5.94,1.8,5.94,5.94v47.52h14.04v-47.88c0-6.84-2.52-10.44-8.1-12.06M678.285,365.999v126h31.5v-12.78h-17.46v-44.82h16.56v-12.6h-16.56v-43.02h17.28v-12.78h-31.32ZM660.016,491.999v-113.22h12.06v-12.78h-38.16v12.78h12.06v113.22h14.04ZM612.497,491.999h15.3v-126h-12.6v57.06l.72,24.48-13.86-81.54h-16.38v126h12.6l-.18-59.22-.72-30.06,15.12,89.28ZM547.321,365.999v126h31.5v-12.78h-17.46v-44.82h16.56v-12.6h-16.56v-43.02h17.28v-12.78h-31.32ZM526.208,438.539v36.72c0,3.78-1.62,5.4-5.22,5.4h-2.7c-3.6,0-5.22-1.62-5.22-5.4v-92.52c0-3.78,1.62-5.4,5.22-5.4h2.34c3.78,0,5.4,1.62,5.4,5.4v34.02h13.68v-34.92c0-11.34-5.4-16.92-16.92-16.92h-6.84c-11.34,0-17.1,5.76-17.1,17.1v93.96c0,11.34,5.76,17.1,17.1,17.1h7.02c11.52,0,17.1-5.76,17.1-17.1v-37.44h-13.86ZM491.452,365.999h-14.04v126h14.04v-126ZM456.263,383.819v42.12c0,3.6-1.62,5.4-5.22,5.4h-5.94v-52.92h5.94c3.6,0,5.22,1.62,5.22,5.4M445.103,443.759h8.28c11.34,0,17.1-5.76,17.1-17.1v-43.56c0-11.88-5.22-17.1-17.1-17.1h-22.32v126h14.04v-48.24ZM392.706,365.999v126h31.5v-12.78h-17.46v-44.82h16.56v-12.6h-16.56v-43.02h17.28v-12.78h-31.32ZM334.93,365.999v126h31.5v-12.78h-17.46v-44.82h16.56v-12.6h-16.56v-43.02h17.28v-12.78h-31.32ZM299.67,421.619v-55.62h-14.04v126h14.04v-57.42h13.5v57.42h14.22v-126h-14.22v55.62h-13.5ZM267.36,491.999v-113.22h12.06v-12.78h-38.16v12.78h12.06v113.22h14.04Z"/>
  </g>
</svg>