<?xml version="1.0" encoding="UTF-8"?>
<svg id="Layer_1" xmlns="http://www.w3.org/2000/svg" width="1000" height="1000" xmlns:xlink="http://www.w3.org/1999/xlink" version="1.1" viewBox="0 0 1000 1000">
  <!-- Generator: Adobe Illustrator 29.5.0, SVG Export Plug-In . SVG Version: 2.1.0 Build 137)  -->
  <defs>
    <style>
      .st0 {
        fill: none;
      }

      .st1 {
        fill: #fff;
      }

      .st2 {
        clip-path: url(#clippath);
      }
    </style>
    <clipPath id="clippath">
      <rect class="st0" width="1000" height="1000"/>
    </clipPath>
  </defs>
  <g class="st2">
    <path class="st1" d="M781.214,587.738l-12.96-10.26c-3.42-2.7-4.5-4.86-4.5-10.08v-24.66c0-3.6,1.62-5.4,5.22-5.4h1.8c3.6,0,5.04,1.8,5.04,5.4v31.68h14.04v-32.4c0-11.34-5.58-16.92-17.1-16.92h-5.94c-11.52,0-17.1,5.58-17.1,17.1v26.82c0,9,1.98,13.5,8.46,18.72l13.32,10.62c3.42,2.7,4.5,4.86,4.5,10.08v26.82c0,3.6-1.62,5.22-5.22,5.22h-1.98c-3.6,0-5.22-1.62-5.22-5.22v-33.84h-13.86v34.56c0,11.34,5.58,16.92,16.92,16.92h6.3c11.52,0,17.1-5.58,17.1-17.1v-29.16c0-9-1.8-13.5-8.82-18.9M727.162,651.998h15.3v-126h-12.6v57.06l.72,24.48-13.86-81.54h-16.38v126h12.6l-.18-59.22-.72-30.06,15.12,89.28ZM678.797,542.738v92.52c0,3.6-1.8,5.22-5.4,5.22h-2.88c-3.6,0-5.22-1.62-5.22-5.22v-92.52c0-3.78,1.62-5.4,5.22-5.4h2.88c3.6,0,5.4,1.62,5.4,5.4M692.837,635.798v-93.78c0-11.34-5.58-17.1-17.1-17.1h-7.56c-11.34,0-17.1,5.76-17.1,17.1v93.78c0,11.52,5.76,17.28,17.1,17.28h7.56c11.52,0,17.1-5.76,17.1-17.28M643.681,525.998h-14.04v126h14.04v-126ZM611.299,651.998v-113.22h12.06v-12.78h-38.16v12.78h12.06v113.22h14.04ZM565.652,598.538v36.72c0,3.78-1.62,5.4-5.22,5.4h-2.7c-3.6,0-5.22-1.62-5.22-5.4v-92.52c0-3.78,1.62-5.4,5.22-5.4h2.34c3.78,0,5.4,1.62,5.4,5.4v34.02h13.68v-34.92c0-11.34-5.4-16.92-16.92-16.92h-6.84c-11.34,0-17.1,5.76-17.1,17.1v93.96c0,11.34,5.76,17.1,17.1,17.1h7.02c11.52,0,17.1-5.76,17.1-17.1v-37.44h-13.86ZM500.098,525.998v126h31.5v-12.78h-17.46v-44.82h16.56v-12.6h-16.56v-43.02h17.28v-12.78h-31.32ZM477.258,651.998h15.3v-126h-12.6v57.06l.72,24.48-13.86-81.54h-16.38v126h12.6l-.18-59.22-.72-30.06,15.12,89.28ZM427.597,651.998h15.3v-126h-12.6v57.06l.72,24.48-13.86-81.54h-16.38v126h12.6l-.18-59.22-.72-30.06,15.12,89.28ZM379.233,542.738v92.52c0,3.6-1.8,5.22-5.4,5.22h-2.88c-3.6,0-5.22-1.62-5.22-5.22v-92.52c0-3.78,1.62-5.4,5.22-5.4h2.88c3.6,0,5.4,1.62,5.4,5.4M393.273,635.798v-93.78c0-11.34-5.58-17.1-17.1-17.1h-7.56c-11.34,0-17.1,5.76-17.1,17.1v93.78c0,11.52,5.76,17.28,17.1,17.28h7.56c11.52,0,17.1-5.76,17.1-17.28M330.561,598.538v36.72c0,3.78-1.62,5.4-5.22,5.4h-2.7c-3.6,0-5.22-1.62-5.22-5.4v-92.52c0-3.78,1.62-5.4,5.22-5.4h2.34c3.78,0,5.4,1.62,5.4,5.4v34.02h13.68v-34.92c0-11.34-5.4-16.92-16.92-16.92h-6.84c-11.34,0-17.1,5.76-17.1,17.1v93.96c0,11.34,5.76,17.1,17.1,17.1h7.02c11.52,0,17.1-5.76,17.1-17.1v-37.44h-13.86ZM251.001,525.779v81.62h12.476v-35.446h14.109v-11.31h-14.109v-23.553h14.692v-11.311h-27.168ZM231.984,540.82v51.537c0,3.265-1.516,4.781-4.664,4.781h-2.565c-3.265,0-4.781-1.516-4.781-4.781v-51.537c0-3.265,1.516-4.781,4.781-4.781h2.565c3.148,0,4.664,1.516,4.664,4.781M244.46,592.94v-52.703c0-10.144-5.014-15.158-15.158-15.158h-6.646c-10.144,0-15.158,5.014-15.158,15.158v52.703c0,10.144,5.014,15.158,15.158,15.158h6.646c10.144,0,15.158-5.014,15.158-15.158"/>
    <path class="st1" d="M523.761,491.999v-113.22h12.06v-12.78h-38.16v12.78h12.06v113.22h14.04ZM477.502,382.739v92.52c0,3.6-1.8,5.22-5.4,5.22h-2.88c-3.6,0-5.22-1.62-5.22-5.22v-92.52c0-3.78,1.62-5.4,5.22-5.4h2.88c3.6,0,5.4,1.62,5.4,5.4M491.542,475.799v-93.78c0-11.34-5.58-17.1-17.1-17.1h-7.56c-11.34,0-17.1,5.76-17.1,17.1v93.78c0,11.52,5.76,17.28,17.1,17.28h7.56c11.52,0,17.1-5.76,17.1-17.28M428.867,383.819v42.12c0,3.6-1.62,5.4-5.22,5.4h-5.94v-52.92h5.94c3.6,0,5.22,1.62,5.22,5.4M417.707,443.759h8.28c11.34,0,17.1-5.76,17.1-17.1v-43.56c0-11.88-5.22-17.1-17.1-17.1h-22.32v126h14.04v-48.24ZM387.666,427.739l-12.96-10.26c-3.42-2.7-4.5-4.86-4.5-10.08v-24.66c0-3.6,1.62-5.4,5.22-5.4h1.8c3.6,0,5.04,1.8,5.04,5.4v31.68h14.04v-32.4c0-11.34-5.58-16.92-17.1-16.92h-5.94c-11.52,0-17.1,5.58-17.1,17.1v26.82c0,9,1.98,13.5,8.46,18.72l13.32,10.62c3.42,2.7,4.5,4.86,4.5,10.08v26.82c0,3.6-1.62,5.22-5.22,5.22h-1.98c-3.6,0-5.22-1.62-5.22-5.22v-33.84h-13.86v34.56c0,11.34,5.58,16.92,16.92,16.92h6.3c11.52,0,17.1-5.58,17.1-17.1v-29.16c0-9-1.8-13.5-8.82-18.9M298.93,365.999v126h31.5v-12.78h-17.46v-44.82h16.56v-12.6h-16.56v-43.02h17.28v-12.78h-31.32ZM263.67,421.619v-55.62h-14.04v126h14.04v-57.42h13.5v57.42h14.22v-126h-14.22v55.62h-13.5ZM231.36,491.999v-113.22h12.06v-12.78h-38.16v12.78h12.06v113.22h14.04Z"/>
    <path class="st1" d="M777.266,734.875c2.469-1.167,4.416-2.76,5.844-4.781,1.426-2.021,2.14-4.313,2.14-6.875,0-2.938-.849-5.396-2.547-7.375s-4.089-3.208-7.172-3.688v-.343c2.438-.646,4.386-1.87,5.844-3.672s2.188-4.026,2.188-6.672c0-2.271-.594-4.37-1.782-6.297-1.187-1.927-2.87-3.469-5.046-4.625-2.178-1.156-4.756-1.735-7.735-1.735-2.854,0-5.453.537-7.797,1.61-2.343,1.073-4.218,2.562-5.625,4.469-1.406,1.906-2.14,4.12-2.203,6.64h6.781c.042-1.437.474-2.661,1.297-3.672.823-1.01,1.891-1.786,3.203-2.328,1.313-.541,2.729-.812,4.25-.812,1.583,0,2.958.297,4.125.89,1.167.594,2.073,1.428,2.719,2.5.646,1.074.969,2.328.969,3.766,0,1.5-.37,2.802-1.109,3.906-.74,1.105-1.766,1.969-3.079,2.594-1.312.625-2.823.938-4.531.938h-3.969v5.75h3.969c2.146,0,3.979.333,5.5,1,1.521.666,2.677,1.599,3.469,2.796.791,1.199,1.187,2.578,1.187,4.141,0,1.5-.401,2.818-1.203,3.953-.802,1.136-1.911,2.026-3.328,2.672s-3.042.969-4.875.969c-1.687,0-3.214-.276-4.578-.828-1.365-.552-2.464-1.328-3.297-2.329-.833-1-1.302-2.187-1.406-3.562h-7.063c.083,2.521.833,4.74,2.25,6.656,1.417,1.917,3.344,3.412,5.782,4.485,2.437,1.072,5.229,1.609,8.375,1.609,3.166,0,5.984-.583,8.453-1.75M725.219,736h6.75v-46.563h-6.75v46.563ZM712.743,736h6.75v-46.563h-6.75v46.563ZM686.543,730.031c-1.25-.854-1.875-2.125-1.875-3.812,0-1.208.328-2.182.985-2.922.656-.739,1.526-1.302,2.609-1.688,1.083-.385,2.281-.672,3.594-.859.562-.063,1.26-.151,2.094-.266.833-.114,1.687-.244,2.562-.39s1.656-.323,2.344-.531c.687-.209,1.156-.427,1.406-.657v4.531c0,1.355-.354,2.636-1.062,3.844-.709,1.209-1.73,2.183-3.063,2.922-1.333.74-2.948,1.11-4.844,1.11-1.917,0-3.5-.427-4.75-1.282M694.793,735.906c1.375-.562,2.505-1.27,3.391-2.125.885-.854,1.536-1.708,1.953-2.562h.25v4.781h6.656v-23.187c0-2.542-.437-4.615-1.312-6.219s-2.006-2.839-3.391-3.703c-1.386-.865-2.859-1.458-4.422-1.782-1.562-.322-3.042-.484-4.437-.484-2.084,0-4.078.302-5.985.906-1.906.605-3.593,1.558-5.062,2.86-1.469,1.302-2.589,3.015-3.359,5.14l6.406,1.469c.5-1.25,1.411-2.37,2.734-3.359,1.323-.99,3.12-1.485,5.391-1.485,2.187,0,3.838.542,4.953,1.625,1.114,1.084,1.672,2.615,1.672,4.594v.156c0,.813-.297,1.402-.891,1.766-.594.365-1.536.63-2.828.797-1.292.167-2.99.364-5.094.594-1.667.208-3.292.5-4.875.875s-3.021.937-4.312,1.687c-1.292.75-2.318,1.755-3.078,3.016-.761,1.26-1.141,2.88-1.141,4.859,0,2.271.521,4.198,1.563,5.781,1.041,1.584,2.458,2.787,4.25,3.61,1.791.822,3.791,1.234,6,1.234,1.937,0,3.593-.281,4.968-.844M643.076,736v-20.281h23.187v20.281h7.032v-46.563h-7.032v20.251h-23.187v-20.251h-7.031v46.563h7.031Z"/>
  </g>
  <polygon class="st1" points="216.406 281.797 201.875 291.485 201.875 298.672 216.015 289.219 216.406 289.219 216.406 340 223.281 340 223.281 281.797 216.406 281.797"/>
</svg>