<?xml version="1.0" encoding="UTF-8"?>
<svg id="Layer_1" xmlns="http://www.w3.org/2000/svg" width="1000" height="1000" xmlns:xlink="http://www.w3.org/1999/xlink" version="1.1" viewBox="0 0 1000 1000">
  <!-- Generator: Adobe Illustrator 29.5.0, SVG Export Plug-In . SVG Version: 2.1.0 Build 137)  -->
  <defs>
    <style>
      .st0 {
        fill: none;
      }

      .st1 {
        fill: #fff;
      }

      .st2 {
        clip-path: url(#clippath);
      }
    </style>
    <clipPath id="clippath">
      <rect class="st0" width="1000" height="1000"/>
    </clipPath>
  </defs>
  <path class="st1" d="M268.875,340v-58.203h-6.719v58.203h6.719ZM276.844,328.047v-6.25h-34.453v-.469l19.297-30.547h2.89v-8.984h-4.218l-25.547,40.469v5.781h42.031Z"/>
  <g class="st2">
    <path class="st1" d="M749.906,735.484c2.167-.76,4.094-1.833,5.782-3.218,1.687-1.386,3.072-3.032,4.156-4.938,1.083-1.906,1.802-4.016,2.156-6.328h-7.062c-.292,1.5-.808,2.818-1.547,3.953-.74,1.136-1.652,2.099-2.735,2.891s-2.281,1.385-3.593,1.781c-1.313.396-2.709.594-4.188.594-2.646,0-5.031-.667-7.156-2s-3.802-3.297-5.031-5.891c-1.23-2.594-1.844-5.786-1.844-9.578,0-3.771.609-6.963,1.828-9.578,1.219-2.614,2.896-4.594,5.031-5.938,2.136-1.343,4.536-2.015,7.203-2.015,1.479,0,2.88.203,4.204.609,1.322.406,2.52,1.011,3.593,1.813s1.979,1.781,2.719,2.937c.739,1.156,1.245,2.495,1.516,4.016h7.062c-.375-2.479-1.12-4.698-2.234-6.657-1.115-1.958-2.527-3.614-4.235-4.968s-3.64-2.386-5.796-3.094c-2.157-.708-4.464-1.063-6.922-1.063-4,0-7.578.959-10.735,2.875-3.156,1.917-5.646,4.662-7.468,8.235-1.824,3.573-2.735,7.849-2.735,12.828,0,4.938.906,9.193,2.719,12.766,1.812,3.573,4.302,6.317,7.469,8.234,3.166,1.917,6.75,2.875,10.75,2.875,2.562,0,4.926-.38,7.093-1.141M718.963,736v-6h-20.937v-.375l9.25-9.687c2.833-2.855,5.046-5.297,6.64-7.329,1.594-2.031,2.708-3.869,3.344-5.515.635-1.646.953-3.333.953-5.063,0-2.5-.625-4.744-1.875-6.734-1.25-1.989-2.99-3.568-5.219-4.735-2.229-1.166-4.812-1.75-7.75-1.75-2.875,0-5.453.589-7.734,1.766s-4.073,2.828-5.375,4.953-1.953,4.605-1.953,7.438h6.687c0-1.667.339-3.12,1.016-4.36.677-1.239,1.63-2.197,2.859-2.875,1.229-.676,2.677-1.015,4.344-1.015,1.583,0,3,.302,4.25.906s2.239,1.469,2.969,2.594c.729,1.125,1.094,2.468,1.094,4.031,0,1.354-.277,2.636-.829,3.844s-1.375,2.484-2.468,3.828c-1.094,1.344-2.474,2.891-4.141,4.641l-15.75,16.375v5.062h30.625ZM655.354,735.516c2.239-.761,4.151-1.933,5.734-3.516.271-.25.531-.495.781-.734.25-.24.511-.485.782-.735.833-.729,1.734-1.739,2.703-3.031.968-1.292,1.791-2.974,2.468-5.047s1.016-4.609,1.016-7.609h-6.125c0,2.437-.401,4.646-1.203,6.625s-1.87,3.672-3.203,5.078c-1.334,1.406-2.823,2.49-4.469,3.25-1.646.761-3.323,1.141-5.031,1.141-1.688,0-3.156-.344-4.406-1.032-1.25-.687-2.219-1.598-2.907-2.734-.687-1.135-1.031-2.38-1.031-3.735,0-.708.349-1.713,1.047-3.015s1.953-2.62,3.766-3.953l9.375-6.906c1.916-1.417,3.426-2.964,4.531-4.641,1.104-1.677,1.656-3.61,1.656-5.797,0-1.833-.469-3.521-1.406-5.063-.938-1.541-2.266-2.781-3.985-3.718-1.718-.938-3.786-1.407-6.203-1.407-2.333,0-4.38.475-6.14,1.422-1.761.949-3.131,2.25-4.11,3.907-.979,1.656-1.468,3.557-1.468,5.703,0,1.875.395,3.614,1.187,5.219.792,1.604,1.833,3.192,3.125,4.765s2.688,3.255,4.188,5.047l17.875,21h7.687l-21.594-25.812c-1.021-1.25-1.995-2.443-2.922-3.579-.927-1.135-1.687-2.25-2.281-3.343-.594-1.094-.89-2.162-.89-3.204,0-.916.234-1.786.703-2.609.468-.823,1.114-1.5,1.937-2.031s1.776-.797,2.86-.797c1.583,0,2.843.505,3.781,1.516.937,1.01,1.406,2.057,1.406,3.14,0,1.396-.359,2.542-1.078,3.438s-1.693,1.781-2.922,2.656l-7.531,5.313c-1.792,1.333-3.396,2.625-4.813,3.875s-2.536,2.599-3.359,4.046c-.823,1.449-1.234,3.12-1.234,5.016,0,2.5.609,4.729,1.828,6.688,1.218,1.958,2.958,3.505,5.218,4.64,2.261,1.135,4.943,1.703,8.047,1.703,2.167,0,4.37-.38,6.61-1.14M584.682,723.656h24.156v-5.875h-24.156v5.875ZM596.557,697.906h.375l13.187,38.094h7.438l-16.719-46.563h-8.125l-16.75,46.563h7.469l13.125-38.094ZM573.041,736v-6h-20.937v-.375l9.25-9.687c2.833-2.855,5.047-5.297,6.641-7.329,1.593-2.031,2.708-3.869,3.343-5.515.636-1.646.953-3.333.953-5.063,0-2.5-.625-4.744-1.875-6.734-1.25-1.989-2.989-3.568-5.218-4.735-2.23-1.166-4.813-1.75-7.75-1.75-2.875,0-5.453.589-7.735,1.766-2.281,1.177-4.073,2.828-5.375,4.953s-1.953,4.605-1.953,7.438h6.688c0-1.667.338-3.12,1.015-4.36.677-1.239,1.63-2.197,2.86-2.875,1.229-.676,2.676-1.015,4.343-1.015,1.583,0,3,.302,4.25.906s2.24,1.469,2.969,2.594,1.094,2.468,1.094,4.031c0,1.354-.276,2.636-.828,3.844s-1.375,2.484-2.469,3.828c-1.094,1.344-2.474,2.891-4.141,4.641l-15.75,16.375v5.062h30.625ZM518.557,703.094c-2.156-1.646-5.13-2.469-8.922-2.469-2.604,0-4.922.433-6.953,1.297-2.031.865-3.625,2.078-4.781,3.641-1.156,1.562-1.735,3.375-1.735,5.437,0,2.458.776,4.495,2.329,6.109,1.551,1.615,3.963,2.797,7.234,3.547l5.906,1.313c3.292.771,4.938,2.26,4.938,4.468,0,1.334-.672,2.469-2.016,3.407-1.344.937-3.12,1.406-5.328,1.406-2.042,0-3.703-.437-4.984-1.312-1.282-.875-2.131-2.167-2.547-3.876l-6.532,1c.563,3.063,2.073,5.438,4.532,7.126,2.458,1.687,5.645,2.531,9.562,2.531,2.813,0,5.292-.464,7.438-1.391,2.145-.927,3.822-2.208,5.031-3.844,1.208-1.635,1.812-3.505,1.812-5.609,0-2.438-.792-4.438-2.375-6s-3.968-2.708-7.156-3.437l-5.594-1.25c-1.896-.438-3.276-1.021-4.14-1.75-.865-.73-1.297-1.677-1.297-2.844,0-1.333.641-2.432,1.922-3.297,1.281-.864,2.88-1.297,4.797-1.297,2.125,0,3.723.49,4.797,1.469,1.072.979,1.807,2.052,2.203,3.219l6.156-1.063c-.709-2.708-2.141-4.885-4.297-6.531M484.567,736h6.75v-46.563h-6.75v46.563ZM472.091,736h6.75v-46.563h-6.75v46.563ZM445.891,730.031c-1.25-.854-1.875-2.125-1.875-3.812,0-1.208.328-2.182.985-2.922.656-.739,1.526-1.302,2.609-1.688,1.083-.385,2.281-.672,3.594-.859.562-.063,1.26-.151,2.094-.266.833-.114,1.687-.244,2.562-.39s1.656-.323,2.344-.531c.687-.209,1.156-.427,1.406-.657v4.531c0,1.355-.354,2.636-1.062,3.844-.709,1.209-1.73,2.183-3.063,2.922-1.333.74-2.948,1.11-4.844,1.11-1.917,0-3.5-.427-4.75-1.282M454.141,735.906c1.375-.562,2.505-1.27,3.391-2.125.885-.854,1.536-1.708,1.953-2.562h.25v4.781h6.656v-23.187c0-2.542-.437-4.615-1.312-6.219s-2.006-2.839-3.391-3.703c-1.386-.865-2.859-1.458-4.422-1.782-1.562-.322-3.042-.484-4.437-.484-2.084,0-4.078.302-5.985.906-1.906.605-3.593,1.558-5.062,2.86s-2.589,3.015-3.359,5.14l6.406,1.469c.5-1.25,1.411-2.37,2.734-3.359,1.323-.99,3.12-1.485,5.391-1.485,2.187,0,3.838.542,4.953,1.625,1.114,1.084,1.672,2.615,1.672,4.594v.156c0,.813-.297,1.402-.891,1.766-.594.365-1.536.63-2.828.797s-2.99.364-5.094.594c-1.667.208-3.292.5-4.875.875-1.583.375-3.021.937-4.312,1.687-1.292.75-2.318,1.755-3.078,3.016-.761,1.26-1.141,2.88-1.141,4.859,0,2.271.521,4.198,1.563,5.781,1.041,1.584,2.458,2.787,4.25,3.61,1.791.822,3.791,1.234,6,1.234,1.937,0,3.593-.281,4.968-.844M402.424,736v-20.281h23.187v20.281h7.032v-46.563h-7.032v20.251h-23.187v-20.251h-7.031v46.563h7.031Z"/>
    <path class="st1" d="M729.804,525.998v126h31.5v-12.78h-17.46v-44.82h16.56v-12.6h-16.56v-43.02h17.28v-12.78h-31.32ZM708.601,598.178v37.08c0,3.6-1.62,5.22-5.219,5.22h-3.241c-3.6,0-5.22-1.62-5.22-5.22v-92.52c0-3.6,1.62-5.22,5.22-5.22h2.88c3.6,0,5.22,1.62,5.22,5.22v30.06h14.04v-30.78c0-11.34-5.58-16.92-16.92-16.92h-7.56c-11.34,0-17.1,5.58-17.1,17.1v93.6c0,11.52,5.76,17.1,17.1,17.1h7.56c11.521,0,17.1-5.58,17.1-17.1v-49.86h-21.06v12.24h7.2ZM646.18,538.418h5.22c5.4,0,7.92,2.7,7.92,8.1v84.96c0,5.4-2.52,8.1-7.92,8.1h-5.22v-101.16ZM632.14,651.998h21.24c13.5,0,19.98-6.48,19.98-20.16v-85.68c0-13.86-6.12-20.16-19.98-20.16h-21.24v126ZM593.784,525.998v126h31.5v-12.78h-17.46v-44.82h16.56v-12.6h-16.56v-43.02h17.28v-12.78h-31.32ZM558.27,525.998v126h28.98v-12.78h-14.94v-113.22h-14.04ZM524.846,525.998h-13.68l-7.2,91.8-6.3-91.8h-14.22l11.16,126h16.74l5.94-74.52,6.3,74.52h16.74l11.16-126h-12.96l-6.66,92.16-7.02-92.16ZM463.197,542.738v92.52c0,3.6-1.8,5.22-5.4,5.22h-2.88c-3.6,0-5.22-1.62-5.22-5.22v-92.52c0-3.78,1.62-5.4,5.22-5.4h2.88c3.6,0,5.4,1.62,5.4,5.4M477.237,635.798v-93.78c0-11.34-5.58-17.1-17.1-17.1h-7.56c-11.34,0-17.1,5.76-17.1,17.1v93.78c0,11.52,5.76,17.28,17.1,17.28h7.56c11.52,0,17.1-5.76,17.1-17.28M412.835,651.998h15.3v-126h-12.6v57.06l.72,24.48-13.86-81.54h-16.38v126h12.6l-.18-59.22-.72-30.06,15.12,89.28ZM379.681,651.998l-14.76-63.72,15.3-62.28h-14.58l-14.04,60.3v-60.3h-14.04v126h14.04v-61.02l13.14,61.02h14.94ZM285.001,525.779v81.62h12.476v-35.446h14.109v-11.31h-14.109v-23.553h14.692v-11.311h-27.168ZM265.984,540.82v51.537c0,3.265-1.516,4.781-4.664,4.781h-2.565c-3.265,0-4.781-1.516-4.781-4.781v-51.537c0-3.265,1.516-4.781,4.781-4.781h2.565c3.148,0,4.664,1.516,4.664,4.781M278.46,592.94v-52.703c0-10.144-5.014-15.158-15.158-15.158h-6.646c-10.144,0-15.158,5.014-15.158,15.158v52.703c0,10.144,5.014,15.158,15.158,15.158h6.646c10.144,0,15.158-5.014,15.158-15.158"/>
    <path class="st1" d="M502.357,434.219h6.48c3.96,0,5.76,1.8,5.76,5.76v34.38c0,3.6-1.62,5.4-5.4,5.4h-6.84v-45.54ZM514.417,383.639v32.76c0,3.78-1.98,5.76-5.76,5.76h-6.3v-43.92h6.66c3.6,0,5.4,1.8,5.4,5.4M520.537,427.739c5.04-1.98,7.92-6.12,7.92-14.04v-30.6c0-11.52-5.4-17.1-17.28-17.1h-22.68v126h23.04c11.34,0,17.1-5.76,17.1-17.1v-33.84c0-7.56-2.7-11.52-8.1-13.32M480.957,365.999h-14.04v109.08c0,3.6-1.62,5.4-5.4,5.4h-2.16c-3.78,0-5.4-1.8-5.4-5.4v-109.08h-14.04v109.62c0,11.52,5.58,17.28,17.1,17.28h6.84c11.52,0,17.1-5.76,17.1-17.28v-109.62ZM404.746,421.619v-55.62h-14.04v126h14.04v-57.42h13.5v57.42h14.22v-126h-14.22v55.62h-13.5ZM332.93,365.999v126h31.5v-12.78h-17.46v-44.82h16.56v-12.6h-16.56v-43.02h17.28v-12.78h-31.32ZM297.67,421.619v-55.62h-14.04v126h14.04v-57.42h13.5v57.42h14.22v-126h-14.22v55.62h-13.5ZM265.36,491.999v-113.22h12.06v-12.78h-38.16v12.78h12.06v113.22h14.04Z"/>
  </g>
</svg>