<?xml version="1.0" encoding="UTF-8"?>
<svg id="Layer_1" xmlns="http://www.w3.org/2000/svg" width="1000" height="1000" xmlns:xlink="http://www.w3.org/1999/xlink" version="1.1" viewBox="0 0 1000 1000">
  <!-- Generator: Adobe Illustrator 29.5.0, SVG Export Plug-In . SVG Version: 2.1.0 Build 137)  -->
  <defs>
    <style>
      .st0 {
        fill: none;
      }

      .st1 {
        fill: #fff;
      }

      .st2 {
        clip-path: url(#clippath);
      }
    </style>
    <clipPath id="clippath">
      <rect class="st0" width="1000" height="1000"/>
    </clipPath>
  </defs>
  <g class="st2">
    <path class="st1" d="M300.227,338.281c2.891-1.666,5.169-3.958,6.836-6.875,1.666-2.916,2.5-6.224,2.5-9.922,0-3.776-.801-7.129-2.402-10.058-1.602-2.93-3.796-5.241-6.582-6.934-2.787-1.693-5.964-2.539-9.532-2.539-1.979,0-3.867.306-5.664.918s-3.294,1.4-4.492,2.363h-.312l2.031-17.187h24.297v-6.25h-30.235l-3.515,28.672,6.64.781c1.198-.86,2.728-1.569,4.59-2.129s3.692-.84,5.488-.84c2.474,0,4.675.58,6.602,1.738,1.927,1.159,3.444,2.741,4.551,4.746,1.106,2.006,1.66,4.272,1.66,6.797,0,2.5-.534,4.727-1.602,6.68-1.068,1.953-2.526,3.49-4.375,4.609-1.849,1.12-3.971,1.68-6.367,1.68-2.995,0-5.553-.859-7.676-2.578-2.122-1.719-3.314-3.88-3.574-6.485h-6.797c.13,2.944,1.003,5.574,2.618,7.891,1.614,2.318,3.756,4.135,6.425,5.449,2.669,1.315,5.67,1.973,9.004,1.973,3.698,0,6.992-.833,9.883-2.5"/>
    <path class="st1" d="M702.906,723.656h24.156v-5.875h-24.156v5.875ZM714.781,697.906h.375l13.187,38.094h7.438l-16.719-46.563h-8.125l-16.75,46.563h7.469l13.125-38.094ZM684.096,689.437l-11.562,7.594v6.75l11.062-7.281h.313v39.5h6.937v-46.563h-6.75ZM646.659,736h6.75v-46.563h-6.75v46.563ZM634.183,736h6.75v-46.563h-6.75v46.563ZM607.983,730.031c-1.25-.854-1.875-2.125-1.875-3.812,0-1.208.328-2.182.985-2.922.656-.739,1.526-1.302,2.609-1.688,1.083-.385,2.281-.672,3.594-.859.562-.063,1.26-.151,2.094-.266.833-.114,1.687-.244,2.562-.39s1.656-.323,2.344-.531c.687-.209,1.156-.427,1.406-.657v4.531c0,1.355-.354,2.636-1.062,3.844-.709,1.209-1.73,2.183-3.063,2.922-1.333.74-2.948,1.11-4.844,1.11-1.917,0-3.5-.427-4.75-1.282M616.233,735.906c1.375-.562,2.505-1.27,3.391-2.125.885-.854,1.536-1.708,1.953-2.562h.25v4.781h6.656v-23.187c0-2.542-.437-4.615-1.312-6.219s-2.006-2.839-3.391-3.703c-1.386-.865-2.859-1.458-4.422-1.782-1.562-.322-3.042-.484-4.437-.484-2.084,0-4.078.302-5.985.906-1.906.605-3.593,1.558-5.062,2.86-1.469,1.302-2.589,3.015-3.359,5.14l6.406,1.469c.5-1.25,1.411-2.37,2.734-3.359,1.323-.99,3.12-1.485,5.391-1.485,2.187,0,3.838.542,4.953,1.625,1.114,1.084,1.672,2.615,1.672,4.594v.156c0,.813-.297,1.402-.891,1.766-.594.365-1.536.63-2.828.797-1.292.167-2.99.364-5.094.594-1.667.208-3.292.5-4.875.875s-3.021.937-4.312,1.687c-1.292.75-2.318,1.755-3.078,3.016-.761,1.26-1.141,2.88-1.141,4.859,0,2.271.521,4.198,1.563,5.781,1.041,1.584,2.458,2.787,4.25,3.61,1.791.822,3.791,1.234,6,1.234,1.937,0,3.593-.281,4.968-.844M564.516,736v-20.281h23.187v20.281h7.032v-46.563h-7.032v20.251h-23.187v-20.251h-7.031v46.563h7.031Z"/>
    <path class="st1" d="M721.596,543.818v36.72c0,3.96-1.8,5.76-5.76,5.76h-6.3v-47.7h6.66c3.78,0,5.4,1.62,5.4,5.22M727.716,592.059c5.04-1.98,7.92-6.12,7.92-14.22v-34.74c0-11.52-5.04-17.1-17.1-17.1h-23.04v126h14.04v-53.46h6.3c3.96,0,5.94,1.8,5.94,5.94v47.52h14.04v-47.88c0-6.84-2.52-10.44-8.1-12.06M657.14,525.998v126h31.5v-12.78h-17.46v-44.82h16.56v-12.6h-16.56v-43.02h17.28v-12.78h-31.32ZM638.871,651.998v-113.22h12.06v-12.78h-38.16v12.78h12.06v113.22h14.04ZM591.352,651.998h15.3v-126h-12.6v57.06l.72,24.48-13.86-81.54h-16.38v126h12.6l-.18-59.22-.72-30.06,15.12,89.28ZM526.176,525.998v126h31.5v-12.78h-17.46v-44.82h16.56v-12.6h-16.56v-43.02h17.28v-12.78h-31.32ZM505.063,598.538v36.72c0,3.78-1.62,5.4-5.22,5.4h-2.7c-3.6,0-5.22-1.62-5.22-5.4v-92.52c0-3.78,1.62-5.4,5.22-5.4h2.34c3.78,0,5.4,1.62,5.4,5.4v34.02h13.68v-34.92c0-11.34-5.4-16.92-16.92-16.92h-6.84c-11.34,0-17.1,5.76-17.1,17.1v93.96c0,11.34,5.76,17.1,17.1,17.1h7.02c11.52,0,17.1-5.76,17.1-17.1v-37.44h-13.86ZM470.307,525.998h-14.04v126h14.04v-126ZM435.117,543.818v42.12c0,3.6-1.62,5.4-5.22,5.4h-5.94v-52.92h5.94c3.6,0,5.22,1.62,5.22,5.4M423.957,603.758h8.28c11.34,0,17.1-5.76,17.1-17.1v-43.56c0-11.88-5.22-17.1-17.1-17.1h-22.32v126h14.04v-48.24ZM371.561,525.998v126h31.5v-12.78h-17.46v-44.82h16.56v-12.6h-16.56v-43.02h17.28v-12.78h-31.32ZM319.001,525.779v81.62h12.476v-35.446h14.109v-11.31h-14.109v-23.553h14.692v-11.311h-27.168ZM299.984,540.82v51.537c0,3.265-1.516,4.781-4.664,4.781h-2.565c-3.265,0-4.781-1.516-4.781-4.781v-51.537c0-3.265,1.516-4.781,4.781-4.781h2.565c3.148,0,4.664,1.516,4.664,4.781M312.46,592.94v-52.703c0-10.144-5.014-15.158-15.158-15.158h-6.646c-10.144,0-15.158,5.014-15.158,15.158v52.703c0,10.144,5.014,15.158,15.158,15.158h6.646c10.144,0,15.158-5.014,15.158-15.158"/>
    <path class="st1" d="M568.308,421.619v-55.62h-14.04v126h14.04v-57.42h13.5v57.42h14.22v-126h-14.22v55.62h-13.5ZM535.998,491.999v-113.22h12.06v-12.78h-38.16v12.78h12.06v113.22h14.04ZM488.282,392.099l6.12,68.22h-12.24l6.12-68.22ZM498.182,365.819h-18.72l-12.96,126.18h12.96l1.62-19.26h14.4l1.8,19.26h13.86l-12.96-126.18ZM449.906,383.819v42.12c0,3.6-1.62,5.4-5.22,5.4h-5.94v-52.92h5.94c3.6,0,5.22,1.62,5.22,5.4M438.746,443.759h8.28c11.34,0,17.1-5.76,17.1-17.1v-43.56c0-11.88-5.22-17.1-17.1-17.1h-22.32v126h14.04v-48.24ZM366.93,365.999v126h31.5v-12.78h-17.46v-44.82h16.56v-12.6h-16.56v-43.02h17.28v-12.78h-31.32ZM331.67,421.619v-55.62h-14.04v126h14.04v-57.42h13.5v57.42h14.22v-126h-14.22v55.62h-13.5ZM299.36,491.999v-113.22h12.06v-12.78h-38.16v12.78h12.06v113.22h14.04Z"/>
  </g>
</svg>