<?xml version="1.0" encoding="UTF-8"?>
<svg id="Layer_1" xmlns="http://www.w3.org/2000/svg" width="1000" height="1000" xmlns:xlink="http://www.w3.org/1999/xlink" version="1.1" viewBox="0 0 1000 1000">
  <!-- Generator: Adobe Illustrator 29.5.0, SVG Export Plug-In . SVG Version: 2.1.0 Build 137)  -->
  <defs>
    <style>
      .st0 {
        fill: none;
      }

      .st1 {
        fill: #fff;
      }

      .st2 {
        clip-path: url(#clippath);
      }
    </style>
    <clipPath id="clippath">
      <rect class="st0" width="1000" height="1000"/>
    </clipPath>
  </defs>
  <g class="st2">
    <path class="st1" d="M221.012,305.703c-1.628-.833-2.904-1.999-3.828-3.496-.925-1.498-1.387-3.249-1.387-5.254,0-1.979.449-3.698,1.348-5.157.898-1.458,2.161-2.59,3.789-3.398,1.627-.807,3.535-1.211,5.723-1.211,2.135,0,4.01.404,5.625,1.211,1.614.808,2.877,1.94,3.789,3.398.911,1.459,1.367,3.178,1.367,5.157,0,2.005-.469,3.756-1.406,5.254-.938,1.497-2.214,2.663-3.829,3.496-1.615.833-3.463,1.25-5.546,1.25-2.136,0-4.018-.417-5.645-1.25M219.782,333.261c-1.928-.846-3.412-2.044-4.454-3.593-1.041-1.55-1.562-3.366-1.562-5.45,0-2.187.553-4.127,1.66-5.82,1.107-1.692,2.63-3.021,4.57-3.984,1.94-.963,4.161-1.446,6.661-1.446,2.447,0,4.635.483,6.562,1.446,1.927.963,3.45,2.292,4.57,3.984,1.12,1.693,1.68,3.633,1.68,5.82,0,2.084-.521,3.9-1.562,5.45-1.042,1.549-2.52,2.747-4.434,3.593-1.914.847-4.186,1.27-6.816,1.27-2.657,0-4.949-.423-6.875-1.27M236.93,338.691c2.969-1.393,5.293-3.314,6.973-5.762,1.679-2.447,2.519-5.247,2.519-8.398,0-2.448-.502-4.72-1.504-6.817-1.003-2.096-2.357-3.847-4.062-5.253-1.706-1.407-3.601-2.305-5.684-2.696v-.312c2.708-.729,4.896-2.305,6.563-4.727,1.666-2.422,2.5-5.169,2.5-8.242,0-2.969-.762-5.618-2.285-7.949-1.524-2.331-3.614-4.167-6.27-5.508s-5.664-2.012-9.023-2.012c-3.412,0-6.452.671-9.122,2.012-2.669,1.341-4.759,3.177-6.269,5.508-1.511,2.331-2.266,4.98-2.266,7.949,0,3.073.827,5.82,2.481,8.242,1.653,2.422,3.873,3.998,6.66,4.727v.312c-2.136.391-4.056,1.289-5.762,2.696-1.706,1.406-3.047,3.157-4.023,5.253-.977,2.097-1.465,4.369-1.465,6.817,0,3.151.833,5.951,2.5,8.398,1.666,2.448,3.984,4.369,6.953,5.762,2.969,1.393,6.406,2.09,10.313,2.09,3.88,0,7.304-.697,10.273-2.09"/>
    <path class="st1" d="M761.625,695.437h9.625c2.77,0,4.828.652,6.172,1.954,1.343,1.302,2.015,2.911,2.015,4.828,0,1.479-.37,2.776-1.109,3.89-.74,1.115-1.745,1.974-3.016,2.579-1.271.604-2.687.906-4.25.906h-9.437v-14.157ZM761.625,715.063h10.406c1.875,0,3.5.364,4.875,1.093,1.375.73,2.432,1.703,3.172,2.922.739,1.219,1.109,2.568,1.109,4.047,0,1.958-.729,3.594-2.187,4.906-1.459,1.313-3.875,1.969-7.25,1.969h-10.125v-14.937ZM772.437,736c3.625,0,6.594-.552,8.906-1.656,2.313-1.104,4.026-2.599,5.141-4.485,1.114-1.885,1.672-4.015,1.672-6.39,0-2.417-.484-4.464-1.453-6.141s-2.193-2.974-3.672-3.89c-1.48-.917-3-1.417-4.563-1.5v-.438c1.438-.375,2.75-.958,3.938-1.75,1.187-.792,2.141-1.854,2.859-3.187.719-1.334,1.078-2.969,1.078-4.907,0-2.291-.536-4.359-1.609-6.203s-2.693-3.307-4.859-4.391c-2.167-1.083-4.896-1.625-8.188-1.625h-17.094v46.563h17.844ZM743.782,736v-46.563h-6.687v33.157l-.063,2.593v10.813h6.75ZM749.939,726.906v-5.969h-27.594v-.375l14.375-22.75h2.875v-8.375h-4.469l-20.094,31.813v5.656h34.907ZM688.595,736h6.75v-46.563h-6.75v46.563ZM676.119,736h6.75v-46.563h-6.75v46.563ZM649.919,730.031c-1.25-.854-1.875-2.125-1.875-3.812,0-1.208.328-2.182.985-2.922.656-.739,1.526-1.302,2.609-1.688,1.083-.385,2.281-.672,3.594-.859.562-.063,1.26-.151,2.094-.266.833-.114,1.687-.244,2.562-.39s1.656-.323,2.344-.531c.687-.209,1.156-.427,1.406-.657v4.531c0,1.355-.354,2.636-1.062,3.844-.709,1.209-1.73,2.183-3.063,2.922-1.333.74-2.948,1.11-4.844,1.11-1.917,0-3.5-.427-4.75-1.282M658.169,735.906c1.375-.562,2.505-1.27,3.391-2.125.885-.854,1.536-1.708,1.953-2.562h.25v4.781h6.656v-23.187c0-2.542-.437-4.615-1.312-6.219s-2.006-2.839-3.391-3.703c-1.386-.865-2.859-1.458-4.422-1.782-1.562-.322-3.042-.484-4.437-.484-2.084,0-4.078.302-5.985.906-1.906.605-3.593,1.558-5.062,2.86-1.469,1.302-2.589,3.015-3.359,5.14l6.406,1.469c.5-1.25,1.411-2.37,2.734-3.359,1.323-.99,3.12-1.485,5.391-1.485,2.187,0,3.838.542,4.953,1.625,1.114,1.084,1.672,2.615,1.672,4.594v.156c0,.813-.297,1.402-.891,1.766-.594.365-1.536.63-2.828.797-1.292.167-2.99.364-5.094.594-1.667.208-3.292.5-4.875.875s-3.021.937-4.312,1.687c-1.292.75-2.318,1.755-3.078,3.016-.761,1.26-1.141,2.88-1.141,4.859,0,2.271.521,4.198,1.563,5.781,1.041,1.584,2.458,2.787,4.25,3.61,1.791.822,3.791,1.234,6,1.234,1.937,0,3.593-.281,4.968-.844M606.452,736v-20.281h23.187v20.281h7.032v-46.563h-7.032v20.251h-23.187v-20.251h-7.031v46.563h7.031Z"/>
    <path class="st1" d="M798.911,525.998h-13.5l-8.46,57.42-7.92-57.42h-14.58l15.12,81.18v44.82h14.22v-45.9l15.12-80.1ZM710.749,651.998h13.68l10.8-101.7-.54,54v47.7h13.86v-126h-21.06l-9,91.8-8.82-91.8h-21.06v126h12.06v-47.52l-.54-53.82,10.62,101.34ZM667.064,542.738v92.52c0,3.6-1.8,5.22-5.4,5.22h-2.88c-3.6,0-5.22-1.62-5.22-5.22v-92.52c0-3.78,1.62-5.4,5.22-5.4h2.88c3.6,0,5.4,1.62,5.4,5.4M681.104,635.798v-93.78c0-11.34-5.58-17.1-17.1-17.1h-7.56c-11.34,0-17.1,5.76-17.1,17.1v93.78c0,11.52,5.76,17.28,17.1,17.28h7.56c11.52,0,17.1-5.76,17.1-17.28M616.702,651.998h15.3v-126h-12.6v57.06l.72,24.48-13.86-81.54h-16.38v126h12.6l-.18-59.22-.72-30.06,15.12,89.28ZM568.337,542.738v92.52c0,3.6-1.8,5.22-5.4,5.22h-2.88c-3.6,0-5.22-1.62-5.22-5.22v-92.52c0-3.78,1.62-5.4,5.22-5.4h2.88c3.6,0,5.4,1.62,5.4,5.4M582.377,635.798v-93.78c0-11.34-5.58-17.1-17.1-17.1h-7.56c-11.34,0-17.1,5.76-17.1,17.1v93.78c0,11.52,5.76,17.28,17.1,17.28h7.56c11.52,0,17.1-5.76,17.1-17.28M519.145,543.818v36.72c0,3.96-1.8,5.76-5.76,5.76h-6.3v-47.7h6.66c3.78,0,5.4,1.62,5.4,5.22M525.265,592.059c5.04-1.98,7.92-6.12,7.92-14.22v-34.74c0-11.52-5.04-17.1-17.1-17.1h-23.04v126h14.04v-53.46h6.3c3.96,0,5.94,1.8,5.94,5.94v47.52h14.04v-47.88c0-6.84-2.52-10.44-8.1-12.06M474.775,651.998v-113.22h12.06v-12.78h-38.16v12.78h12.06v113.22h14.04ZM434.151,587.738l-12.96-10.26c-3.42-2.7-4.5-4.86-4.5-10.08v-24.66c0-3.6,1.62-5.4,5.22-5.4h1.8c3.6,0,5.04,1.8,5.04,5.4v31.68h14.04v-32.4c0-11.34-5.58-16.92-17.1-16.92h-5.94c-11.52,0-17.1,5.58-17.1,17.1v26.82c0,9,1.98,13.5,8.46,18.72l13.32,10.62c3.42,2.7,4.5,4.86,4.5,10.08v26.82c0,3.6-1.62,5.22-5.22,5.22h-1.98c-3.6,0-5.22-1.62-5.22-5.22v-33.84h-13.86v34.56c0,11.34,5.58,16.92,16.92,16.92h6.3c11.52,0,17.1-5.58,17.1-17.1v-29.16c0-9-1.8-13.5-8.82-18.9M374.266,552.098l6.12,68.22h-12.24l6.12-68.22ZM384.166,525.818h-18.72l-12.96,126.18h12.96l1.62-19.26h14.4l1.8,19.26h13.86l-12.96-126.18ZM333.101,598.178v37.08c0,3.6-1.62,5.22-5.22,5.22h-3.24c-3.6,0-5.22-1.62-5.22-5.22v-92.52c0-3.6,1.62-5.22,5.22-5.22h2.88c3.6,0,5.22,1.62,5.22,5.22v30.06h14.04v-30.78c0-11.34-5.58-16.92-16.92-16.92h-7.56c-11.34,0-17.1,5.58-17.1,17.1v93.6c0,11.52,5.76,17.1,17.1,17.1h7.56c11.52,0,17.1-5.58,17.1-17.1v-49.86h-21.06v12.24h7.2ZM253.001,525.779v81.62h12.476v-35.446h14.109v-11.31h-14.109v-23.553h14.692v-11.311h-27.168ZM233.984,540.82v51.537c0,3.265-1.516,4.781-4.664,4.781h-2.565c-3.265,0-4.781-1.516-4.781-4.781v-51.537c0-3.265,1.516-4.781,4.781-4.781h2.565c3.148,0,4.664,1.516,4.664,4.781M246.46,592.94v-52.703c0-10.144-5.014-15.158-15.158-15.158h-6.646c-10.144,0-15.158,5.014-15.158,15.158v52.703c0,10.144,5.014,15.158,15.158,15.158h6.646c10.144,0,15.158-5.014,15.158-15.158"/>
    <path class="st1" d="M496.114,365.999v126h31.5v-12.78h-17.46v-44.82h16.56v-12.6h-16.56v-43.02h17.28v-12.78h-31.32ZM473.273,491.999h15.3v-126h-12.6v57.06l.72,24.48-13.86-81.54h-16.38v126h12.6l-.18-59.22-.72-30.06,15.12,89.28ZM424.909,382.739v92.52c0,3.6-1.8,5.22-5.4,5.22h-2.88c-3.6,0-5.22-1.62-5.22-5.22v-92.52c0-3.78,1.62-5.4,5.22-5.4h2.88c3.6,0,5.4,1.62,5.4,5.4M438.949,475.799v-93.78c0-11.34-5.58-17.1-17.1-17.1h-7.56c-11.34,0-17.1,5.76-17.1,17.1v93.78c0,11.52,5.76,17.28,17.1,17.28h7.56c11.52,0,17.1-5.76,17.1-17.28M376.526,378.779l-19.62,99.36v13.86h33.84v-12.78h-20.16l19.8-99.36v-13.86h-33.12v12.78h19.26ZM300.93,365.999v126h31.5v-12.78h-17.46v-44.82h16.56v-12.6h-16.56v-43.02h17.28v-12.78h-31.32ZM265.67,421.619v-55.62h-14.04v126h14.04v-57.42h13.5v57.42h14.22v-126h-14.22v55.62h-13.5ZM233.36,491.999v-113.22h12.06v-12.78h-38.16v12.78h12.06v113.22h14.04Z"/>
  </g>
</svg>