<?xml version="1.0" encoding="UTF-8"?>
<svg id="Layer_1" xmlns="http://www.w3.org/2000/svg" width="1000" height="1000" xmlns:xlink="http://www.w3.org/1999/xlink" version="1.1" viewBox="0 0 1000 1000">
  <!-- Generator: Adobe Illustrator 29.5.0, SVG Export Plug-In . SVG Version: 2.1.0 Build 137)  -->
  <defs>
    <style>
      .st0 {
        fill: none;
      }

      .st1 {
        fill: #fff;
      }

      .st2 {
        clip-path: url(#clippath);
      }
    </style>
    <clipPath id="clippath">
      <rect class="st0" width="1000" height="1000"/>
    </clipPath>
  </defs>
  <polygon class="st1" points="233.359 340 259.296 288.437 259.296 281.797 221.953 281.797 221.953 288.047 251.953 288.047 251.953 288.516 225.937 340 233.359 340"/>
  <g class="st2">
    <path class="st1" d="M746.906,723.656h24.156v-5.875h-24.156v5.875ZM758.781,697.906h.375l13.187,38.094h7.438l-16.719-46.563h-8.125l-16.75,46.563h7.469l13.125-38.094ZM731.106,736v-46.563h-6.687v33.157l-.063,2.593v10.813h6.75ZM737.263,726.906v-5.969h-27.594v-.375l14.375-22.75h2.875v-8.375h-4.469l-20.094,31.813v5.656h34.907ZM675.919,736h6.75v-46.563h-6.75v46.563ZM663.443,736h6.75v-46.563h-6.75v46.563ZM637.243,730.031c-1.25-.854-1.875-2.125-1.875-3.812,0-1.208.328-2.182.985-2.922.656-.739,1.526-1.302,2.609-1.688,1.083-.385,2.281-.672,3.594-.859.562-.063,1.26-.151,2.094-.266.833-.114,1.687-.244,2.562-.39s1.656-.323,2.344-.531c.687-.209,1.156-.427,1.406-.657v4.531c0,1.355-.354,2.636-1.062,3.844-.709,1.209-1.73,2.183-3.063,2.922-1.333.74-2.948,1.11-4.844,1.11-1.917,0-3.5-.427-4.75-1.282M645.493,735.906c1.375-.562,2.505-1.27,3.391-2.125.885-.854,1.536-1.708,1.953-2.562h.25v4.781h6.656v-23.187c0-2.542-.437-4.615-1.312-6.219s-2.006-2.839-3.391-3.703c-1.386-.865-2.859-1.458-4.422-1.782-1.562-.322-3.042-.484-4.437-.484-2.084,0-4.078.302-5.985.906-1.906.605-3.593,1.558-5.062,2.86-1.469,1.302-2.589,3.015-3.359,5.14l6.406,1.469c.5-1.25,1.411-2.37,2.734-3.359,1.323-.99,3.12-1.485,5.391-1.485,2.187,0,3.838.542,4.953,1.625,1.114,1.084,1.672,2.615,1.672,4.594v.156c0,.813-.297,1.402-.891,1.766-.594.365-1.536.63-2.828.797-1.292.167-2.99.364-5.094.594-1.667.208-3.292.5-4.875.875s-3.021.937-4.312,1.687c-1.292.75-2.318,1.755-3.078,3.016-.761,1.26-1.141,2.88-1.141,4.859,0,2.271.521,4.198,1.563,5.781,1.041,1.584,2.458,2.787,4.25,3.61,1.791.822,3.791,1.234,6,1.234,1.937,0,3.593-.281,4.968-.844M593.776,736v-20.281h23.187v20.281h7.032v-46.563h-7.032v20.251h-23.187v-20.251h-7.031v46.563h7.031Z"/>
    <path class="st1" d="M770.447,587.738l-12.96-10.26c-3.42-2.7-4.5-4.86-4.5-10.08v-24.66c0-3.6,1.62-5.4,5.22-5.4h1.8c3.6,0,5.04,1.8,5.04,5.4v31.68h14.04v-32.4c0-11.34-5.58-16.92-17.1-16.92h-5.94c-11.52,0-17.1,5.58-17.1,17.1v26.82c0,9,1.98,13.5,8.46,18.72l13.32,10.62c3.42,2.7,4.5,4.86,4.5,10.08v26.82c0,3.6-1.62,5.22-5.22,5.22h-1.98c-3.6,0-5.22-1.62-5.22-5.22v-33.84h-13.86v34.56c0,11.34,5.58,16.92,16.92,16.92h6.3c11.52,0,17.1-5.58,17.1-17.1v-29.16c0-9-1.8-13.5-8.82-18.9M716.395,651.998h15.3v-126h-12.6v57.06l.72,24.48-13.86-81.54h-16.38v126h12.6l-.18-59.22-.72-30.06,15.12,89.28ZM668.03,542.738v92.52c0,3.6-1.8,5.22-5.4,5.22h-2.88c-3.6,0-5.22-1.62-5.22-5.22v-92.52c0-3.78,1.62-5.4,5.22-5.4h2.88c3.6,0,5.4,1.62,5.4,5.4M682.07,635.798v-93.78c0-11.34-5.58-17.1-17.1-17.1h-7.56c-11.34,0-17.1,5.76-17.1,17.1v93.78c0,11.52,5.76,17.28,17.1,17.28h7.56c11.52,0,17.1-5.76,17.1-17.28M632.914,525.998h-14.04v126h14.04v-126ZM600.532,651.998v-113.22h12.06v-12.78h-38.16v12.78h12.06v113.22h14.04ZM552.815,552.098l6.12,68.22h-12.24l6.12-68.22ZM562.715,525.818h-18.719l-12.96,126.18h12.96l1.62-19.26h14.4l1.799,19.26h13.861l-12.961-126.18ZM519.121,652.178l13.5-126.18h-13.5l-8.46,94.68-8.28-94.68h-14.4l13.5,126.18h17.64ZM468.218,542.738v92.52c0,3.6-1.8,5.22-5.4,5.22h-2.88c-3.6,0-5.22-1.62-5.22-5.22v-92.52c0-3.78,1.62-5.4,5.22-5.4h2.88c3.6,0,5.4,1.62,5.4,5.4M482.258,635.798v-93.78c0-11.34-5.58-17.1-17.1-17.1h-7.56c-11.34,0-17.1,5.76-17.1,17.1v93.78c0,11.52,5.76,17.28,17.1,17.28h7.56c11.52,0,17.1-5.76,17.1-17.28M417.856,651.998h15.3v-126h-12.6v57.06l.72,24.48-13.86-81.54h-16.38v126h12.6l-.18-59.22-.72-30.06,15.12,89.28ZM368.196,651.998h15.3v-126h-12.6v57.06l.72,24.48-13.86-81.54h-16.38v126h12.6l-.18-59.22-.72-30.06,15.12,89.28ZM333.781,525.998h-14.04v126h14.04v-126ZM267.001,525.779v81.62h12.476v-35.446h14.109v-11.31h-14.109v-23.553h14.692v-11.311h-27.168ZM247.984,540.82v51.537c0,3.265-1.516,4.781-4.664,4.781h-2.565c-3.265,0-4.781-1.516-4.781-4.781v-51.537c0-3.265,1.516-4.781,4.781-4.781h2.565c3.148,0,4.664,1.516,4.664,4.781M260.46,592.94v-52.703c0-10.144-5.014-15.158-15.158-15.158h-6.646c-10.144,0-15.158,5.014-15.158,15.158v52.703c0,10.144,5.014,15.158,15.158,15.158h6.646c10.144,0,15.158-5.014,15.158-15.158"/>
    <path class="st1" d="M510.114,365.999v126h31.5v-12.78h-17.46v-44.82h16.56v-12.6h-16.56v-43.02h17.28v-12.78h-31.32ZM487.273,491.999h15.3v-126h-12.6v57.06l.72,24.48-13.86-81.54h-16.38v126h12.6l-.18-59.22-.72-30.06,15.12,89.28ZM438.909,382.739v92.52c0,3.6-1.8,5.22-5.4,5.22h-2.88c-3.6,0-5.22-1.62-5.22-5.22v-92.52c0-3.78,1.62-5.4,5.22-5.4h2.88c3.6,0,5.4,1.62,5.4,5.4M452.949,475.799v-93.78c0-11.34-5.58-17.1-17.1-17.1h-7.56c-11.34,0-17.1,5.76-17.1,17.1v93.78c0,11.52,5.76,17.28,17.1,17.28h7.56c11.52,0,17.1-5.76,17.1-17.28M390.526,378.779l-19.62,99.36v13.86h33.84v-12.78h-20.16l19.8-99.36v-13.86h-33.12v12.78h19.26ZM314.93,365.999v126h31.5v-12.78h-17.46v-44.82h16.56v-12.6h-16.56v-43.02h17.28v-12.78h-31.32ZM279.67,421.619v-55.62h-14.04v126h14.04v-57.42h13.5v57.42h14.22v-126h-14.22v55.62h-13.5ZM247.36,491.999v-113.22h12.06v-12.78h-38.16v12.78h12.06v113.22h14.04Z"/>
  </g>
</svg>