<?xml version="1.0" encoding="UTF-8"?>
<svg id="Layer_1" xmlns="http://www.w3.org/2000/svg" width="492" height="240" xmlns:xlink="http://www.w3.org/1999/xlink" version="1.1" viewBox="0 0 492 240">
  <!-- Generator: Adobe Illustrator 29.5.0, SVG Export Plug-In . SVG Version: 2.1.0 Build 137)  -->
  <defs>
    <style>
      .st0 {
        fill: none;
      }

      .st1 {
        fill: #fff;
      }

      .st2 {
        clip-path: url(#clippath);
      }
    </style>
    <clipPath id="clippath">
      <rect class="st0" width="492" height="240"/>
    </clipPath>
  </defs>
  <g class="st2">
    <path class="st1" d="M305.668,113.555c0,3.724,1.159,6.66,3.477,8.808,2.317,2.149,5.508,3.223,9.57,3.223,1.12,0,2.24-.085,3.36-.254,1.119-.17,2.226-.423,3.32-.762l-1.758-8.046c-.443.104-.937.195-1.484.273s-1.042.117-1.485.117c-1.64,0-2.838-.41-3.593-1.23-.756-.821-1.133-2.09-1.133-3.809v-40.937h-10.274v42.617ZM299.536,89.297h25.039v-7.969h-25.039v7.969ZM294.157,73.555c1.172-1.094,1.758-2.422,1.758-3.985,0-1.536-.586-2.851-1.758-3.945-1.172-1.094-2.565-1.641-4.18-1.641-1.64,0-3.046.547-4.218,1.641-1.172,1.094-1.758,2.422-1.758,3.985,0,1.536.586,2.851,1.758,3.945,1.172,1.094,2.578,1.64,4.218,1.64,1.615,0,3.008-.546,4.18-1.64M295.095,81.328h-10.273v43.672h10.273v-43.672ZM272.271,84.082c-2.93-2.2-6.96-3.301-12.09-3.301-3.49,0-6.563.547-9.219,1.641s-4.727,2.631-6.211,4.609c-1.484,1.98-2.226,4.323-2.226,7.032,0,3.177,1.002,5.788,3.007,7.832,2.005,2.044,5.104,3.522,9.297,4.433l7.461,1.563c3.906.885,5.86,2.552,5.86,5,0,1.458-.743,2.689-2.227,3.691-1.484,1.003-3.451,1.504-5.898,1.504-2.344,0-4.265-.501-5.762-1.504-1.498-1.002-2.468-2.48-2.91-4.433l-10.039.937c.65,4.011,2.597,7.142,5.839,9.395,3.243,2.252,7.533,3.379,12.872,3.379,3.645,0,6.868-.586,9.668-1.758,2.799-1.172,4.993-2.813,6.582-4.922,1.588-2.11,2.382-4.531,2.382-7.266,0-3.099-1.015-5.625-3.047-7.578-2.031-1.953-5.091-3.359-9.179-4.219l-7.461-1.562c-2.214-.495-3.796-1.153-4.746-1.973-.951-.82-1.426-1.868-1.426-3.144,0-1.459.723-2.657,2.168-3.594,1.445-.938,3.235-1.406,5.371-1.406,2.369,0,4.205.553,5.508,1.66,1.302,1.107,2.148,2.376,2.539,3.808l9.336-.976c-.703-3.698-2.52-6.647-5.449-8.848M234.455,73.555c1.172-1.094,1.758-2.422,1.758-3.985,0-1.536-.586-2.851-1.758-3.945-1.172-1.094-2.565-1.641-4.18-1.641-1.64,0-3.046.547-4.218,1.641-1.172,1.094-1.758,2.422-1.758,3.985,0,1.536.586,2.851,1.758,3.945,1.172,1.094,2.578,1.64,4.218,1.64,1.615,0,3.008-.546,4.18-1.64M235.393,81.328h-10.273v43.672h10.273v-43.672ZM165.981,66.797l20.547,58.203h12.969l20.507-58.203h-11.562l-15.117,45.781h-.625l-15.117-45.781h-11.602Z"/>
    <path class="st1" d="M355.351,197.245v-18.578c0-1.359.307-2.549.921-3.568.613-1.02,1.458-1.822,2.534-2.408,1.077-.585,2.304-.878,3.682-.878.623,0,1.275.038,1.954.114.68.075,1.18.17,1.501.283v-6.854c-.34-.056-.769-.103-1.288-.141-.52-.038-.977-.057-1.374-.057-1.812,0-3.427.496-4.843,1.487-1.416.991-2.407,2.412-2.973,4.262h-.34v-5.324h-7.222v31.662h7.448ZM342.066,159.947c.849-.793,1.274-1.756,1.274-2.889,0-1.113-.425-2.067-1.274-2.86-.85-.793-1.86-1.189-3.031-1.189-1.189,0-2.209.396-3.058,1.189-.85.793-1.275,1.756-1.275,2.889,0,1.114.425,2.067,1.275,2.86.849.793,1.869,1.19,3.058,1.19,1.171,0,2.181-.397,3.031-1.19M342.745,165.583h-7.448v31.662h7.448v-31.662ZM311.667,191.354c-1.001-.698-1.501-1.736-1.501-3.115,0-.963.255-1.746.765-2.35s1.203-1.081,2.081-1.431c.878-.349,1.874-.599,2.988-.75.491-.057,1.071-.132,1.742-.227.67-.094,1.354-.207,2.053-.34.698-.131,1.321-.278,1.869-.438.548-.161.944-.335,1.19-.524v3.71c0,1.17-.303,2.251-.907,3.242-.604.991-1.454,1.784-2.548,2.379-1.096.595-2.398.892-3.909.892-1.548,0-2.822-.349-3.823-1.048M317.912,197.188c1.217-.471,2.237-1.09,3.058-1.855.822-.764,1.459-1.581,1.912-2.449h.226v4.361h7.166v-21.184c0-2.095-.378-3.841-1.133-5.239-.756-1.397-1.766-2.511-3.031-3.342-1.265-.83-2.652-1.42-4.163-1.77-1.51-.349-3.021-.524-4.531-.524-2.209,0-4.224.326-6.046.977-1.823.652-3.366,1.624-4.631,2.917-1.265,1.294-2.171,2.903-2.718,4.829l6.938.991c.378-1.076,1.1-2.01,2.167-2.803,1.066-.793,2.515-1.19,4.347-1.19,1.737,0,3.058.425,3.965,1.275.906.849,1.359,2.039,1.359,3.568v.141c0,.718-.26,1.247-.779,1.586-.519.34-1.355.586-2.506.737-1.152.151-2.662.33-4.531.538-1.53.151-3.012.41-4.447.779-1.435.368-2.723.901-3.865,1.6-1.143.698-2.044,1.633-2.705,2.803-.661,1.171-.991,2.644-.991,4.418,0,2.078.462,3.824,1.387,5.24s2.19,2.487,3.795,3.214c1.605.727,3.417,1.09,5.438,1.09,1.661,0,3.101-.236,4.319-.708M282.704,197.245v-16.822h17.531v-6.316h-17.531v-12.659h19.428v-6.4h-27.074v42.197h7.646ZM250.659,195.956c2.266-1.236,4.04-2.945,5.324-5.126,1.284-2.18,1.926-4.658,1.926-7.434,0-2.718-.576-5.126-1.727-7.221-1.152-2.096-2.724-3.743-4.716-4.942-1.992-1.199-4.272-1.799-6.839-1.799-1.718,0-3.29.298-4.715.893-1.426.594-2.535,1.364-3.328,2.308h-.227l1.218-11.187h18.153v-6.4h-24.497l-2.209,21.75,6.939,1.133c.717-.774,1.68-1.402,2.889-1.884,1.208-.481,2.454-.722,3.738-.722,1.548,0,2.917.354,4.106,1.062,1.19.708,2.124,1.681,2.804,2.917.68,1.237,1.02,2.658,1.02,4.262,0,1.568-.336,2.96-1.006,4.178-.67,1.217-1.581,2.171-2.733,2.86-1.152.689-2.483,1.034-3.993,1.034-1.907,0-3.545-.548-4.913-1.643-1.37-1.095-2.11-2.501-2.224-4.22h-7.42c.076,2.342.751,4.418,2.025,6.231,1.275,1.812,2.993,3.233,5.155,4.262,2.161,1.029,4.62,1.543,7.377,1.543,2.983,0,5.608-.618,7.873-1.855M225.005,197.245v-6.372h-18.351v-.312l7.25-7.391c2.737-2.624,4.866-4.866,6.386-6.726,1.519-1.86,2.581-3.55,3.186-5.07.604-1.519.906-3.072.906-4.658,0-2.36-.595-4.461-1.784-6.302-1.189-1.84-2.851-3.289-4.984-4.347-2.134-1.057-4.626-1.586-7.477-1.586-2.775,0-5.239.548-7.392,1.643-2.152,1.095-3.837,2.629-5.055,4.602-1.217,1.973-1.826,4.29-1.826,6.953h7.25c0-1.435.287-2.672.863-3.71.576-1.038,1.383-1.841,2.422-2.408,1.038-.566,2.256-.849,3.653-.849,1.34,0,2.535.255,3.583.764,1.047.51,1.873,1.247,2.478,2.209.604.963.906,2.106.906,3.427,0,1.171-.236,2.271-.708,3.3-.472,1.029-1.175,2.091-2.11,3.186-.935,1.095-2.091,2.35-3.469,3.766l-14.67,14.387v5.494h28.943ZM171.857,189.627c-1.284-1.19-2.256-2.922-2.917-5.197-.661-2.275-.991-5.027-.991-8.255,0-4.871.741-8.642,2.223-11.314s3.601-4.008,6.358-4.008c1.831,0,3.385.6,4.659,1.799,1.274,1.199,2.247,2.941,2.917,5.225.67,2.284,1.005,5.051,1.005,8.298,0,3.228-.335,5.98-1.005,8.255-.67,2.275-1.643,4.007-2.917,5.197-1.274,1.189-2.828,1.784-4.659,1.784s-3.389-.595-4.673-1.784M185.31,195.248c2.416-1.708,4.266-4.172,5.55-7.391,1.284-3.219,1.926-7.113,1.926-11.682s-.642-8.468-1.926-11.697c-1.284-3.228-3.143-5.701-5.579-7.42-2.435-1.717-5.352-2.577-8.751-2.577-3.417,0-6.339.855-8.765,2.563-2.426,1.709-4.281,4.182-5.565,7.42-1.284,3.238-1.926,7.142-1.926,11.711s.642,8.463,1.926,11.682c1.284,3.219,3.139,5.683,5.565,7.391,2.426,1.709,5.348,2.563,8.765,2.563,3.436,0,6.363-.854,8.78-2.563M157.577,197.245v-6.372h-18.352v-.312l7.25-7.391c2.738-2.624,4.867-4.866,6.387-6.726,1.519-1.86,2.581-3.55,3.186-5.07.604-1.519.906-3.072.906-4.658,0-2.36-.595-4.461-1.784-6.302-1.19-1.84-2.851-3.289-4.985-4.347-2.133-1.057-4.626-1.586-7.476-1.586-2.776,0-5.239.548-7.392,1.643-2.152,1.095-3.837,2.629-5.055,4.602s-1.827,4.29-1.827,6.953h7.25c0-1.435.288-2.672.864-3.71.576-1.038,1.383-1.841,2.422-2.408,1.038-.566,2.255-.849,3.653-.849,1.34,0,2.535.255,3.582.764,1.048.51,1.874,1.247,2.478,2.209.604.963.907,2.106.907,3.427,0,1.171-.237,2.271-.708,3.3-.472,1.029-1.176,2.091-2.11,3.186-.935,1.095-2.091,2.35-3.469,3.766l-14.67,14.387v5.494h28.943Z"/>
  </g>
</svg>