<?xml version="1.0" encoding="UTF-8"?>
<svg id="Layer_1" xmlns="http://www.w3.org/2000/svg" width="492" height="240" xmlns:xlink="http://www.w3.org/1999/xlink" version="1.1" viewBox="0 0 492 240">
  <!-- Generator: Adobe Illustrator 29.5.0, SVG Export Plug-In . SVG Version: 2.1.0 Build 137)  -->
  <defs>
    <style>
      .st0 {
        fill: none;
      }

      .st1 {
        fill: #fff;
      }

      .st2 {
        clip-path: url(#clippath);
      }
    </style>
    <clipPath id="clippath">
      <rect class="st0" width="492" height="240"/>
    </clipPath>
  </defs>
  <g class="st2">
    <path class="st1" d="M337.609,124.316c2.617-1.028,4.766-2.486,6.445-4.375,1.68-1.887,2.832-4.094,3.457-6.621l-9.609-1.132c-.469,1.25-1.139,2.298-2.012,3.144-.872.847-1.914,1.478-3.125,1.895-1.211.416-2.545.625-4.004.625-2.24,0-4.199-.495-5.878-1.485-1.68-.989-2.983-2.428-3.907-4.316s-1.386-4.16-1.386-6.817v-4.804c0-2.162.403-4.121,1.211-5.879.806-1.758,1.992-3.158,3.554-4.199,1.563-1.042,3.451-1.563,5.664-1.563s4.063.521,5.547,1.563c1.485,1.041,2.604,2.48,3.36,4.316.755,1.836,1.132,3.991,1.132,6.465l4.805-2.031h-30.664v6.914h35.781v-3.204c0-3.828-.534-7.128-1.601-9.902-1.068-2.773-2.533-5.058-4.395-6.855-1.862-1.797-3.998-3.125-6.406-3.985-2.409-.859-4.955-1.289-7.637-1.289-4.167,0-7.787.951-10.859,2.852-3.073,1.901-5.456,4.551-7.149,7.949-1.693,3.398-2.539,7.35-2.539,11.855,0,4.558.853,8.516,2.559,11.876,1.705,3.359,4.147,5.957,7.324,7.792,3.177,1.836,6.953,2.754,11.328,2.754,3.385,0,6.387-.514,9.004-1.543M275.024,115.508c-1.523-1.224-2.676-2.904-3.457-5.039-.781-2.135-1.172-4.557-1.172-7.266s.384-5.117,1.152-7.226c.768-2.11,1.921-3.763,3.457-4.961,1.537-1.198,3.438-1.797,5.704-1.797,2.213,0,4.082.573,5.605,1.719,1.524,1.146,2.682,2.767,3.477,4.863.794,2.096,1.191,4.564,1.191,7.402,0,2.813-.404,5.28-1.211,7.402-.807,2.123-1.973,3.777-3.496,4.961-1.523,1.186-3.379,1.778-5.566,1.778-2.266,0-4.161-.612-5.684-1.836M284.106,124.512c1.641-.846,2.955-1.862,3.945-3.047.99-1.185,1.758-2.311,2.305-3.379h.625v6.914h10.039v-58.203h-10.234v21.758h-.43c-.521-1.042-1.269-2.168-2.246-3.379-.977-1.211-2.285-2.246-3.926-3.106-1.64-.859-3.75-1.289-6.328-1.289-3.359,0-6.393.86-9.102,2.578-2.708,1.719-4.863,4.245-6.464,7.579-1.602,3.333-2.403,7.435-2.403,12.304,0,4.792.782,8.867,2.344,12.227,1.563,3.359,3.704,5.918,6.426,7.676,2.721,1.757,5.787,2.636,9.199,2.636,2.526,0,4.609-.423,6.25-1.269M227.849,116.875c-1.381-.963-2.07-2.396-2.07-4.297,0-1.328.351-2.408,1.054-3.242.704-.833,1.661-1.491,2.872-1.973,1.21-.481,2.584-.826,4.121-1.035.677-.078,1.477-.182,2.402-.312.924-.13,1.868-.287,2.832-.469.963-.182,1.823-.384,2.578-.606.755-.221,1.302-.462,1.641-.722v5.117c0,1.615-.417,3.105-1.25,4.473-.834,1.367-2.006,2.461-3.516,3.281-1.51.82-3.307,1.23-5.39,1.23-2.136,0-3.894-.481-5.274-1.445M236.462,124.922c1.68-.651,3.086-1.504,4.219-2.559,1.133-1.054,2.012-2.181,2.637-3.379h.312v6.016h9.883v-29.219c0-2.89-.521-5.299-1.562-7.226-1.042-1.927-2.436-3.463-4.18-4.61-1.745-1.145-3.659-1.959-5.742-2.441-2.084-.482-4.167-.723-6.25-.723-3.047,0-5.827.449-8.34,1.348-2.514.898-4.642,2.24-6.387,4.023-1.745,1.784-2.995,4.004-3.75,6.66l9.571,1.368c.52-1.485,1.516-2.774,2.988-3.867,1.471-1.094,3.47-1.641,5.996-1.641,2.396,0,4.219.586,5.469,1.758,1.25,1.172,1.875,2.812,1.875,4.922v.195c0,.99-.359,1.719-1.075,2.187-.716.469-1.868.808-3.457,1.016-1.588.209-3.671.456-6.25.742-2.109.209-4.154.567-6.132,1.074-1.98.508-3.757,1.244-5.332,2.207-1.576.964-2.82,2.253-3.731,3.868-.912,1.615-1.367,3.646-1.367,6.093,0,2.865.638,5.274,1.914,7.227s3.021,3.431,5.234,4.434c2.213,1.002,4.713,1.503,7.5,1.503,2.292,0,4.278-.325,5.957-.976M199.003,125v-25.625c0-1.875.423-3.516,1.269-4.922.846-1.406,2.012-2.513,3.496-3.32,1.485-.807,3.177-1.211,5.078-1.211.86,0,1.758.052,2.696.156.937.104,1.627.235,2.07.391v-9.453c-.469-.079-1.061-.143-1.777-.196-.717-.052-1.348-.078-1.895-.078-2.5,0-4.726.684-6.68,2.051-1.953,1.367-3.32,3.327-4.101,5.879h-.469v-7.344h-9.961v43.672h10.274ZM161.95,75.625v49.375h10.43v-49.375h17.968v-8.828h-46.406v8.828h18.008Z"/>
    <path class="st1" d="M379.351,197.245v-18.578c0-1.359.307-2.549.921-3.568.613-1.02,1.458-1.822,2.534-2.408,1.077-.585,2.304-.878,3.682-.878.623,0,1.275.038,1.954.114.68.075,1.18.17,1.501.283v-6.854c-.34-.056-.769-.103-1.288-.141-.52-.038-.977-.057-1.374-.057-1.812,0-3.427.496-4.843,1.487-1.416.991-2.407,2.412-2.973,4.262h-.34v-5.324h-7.222v31.662h7.448ZM366.066,159.947c.849-.793,1.274-1.756,1.274-2.889,0-1.113-.425-2.067-1.274-2.86-.85-.793-1.86-1.189-3.031-1.189-1.189,0-2.209.396-3.058,1.189-.85.793-1.275,1.756-1.275,2.889,0,1.114.425,2.067,1.275,2.86.849.793,1.869,1.19,3.058,1.19,1.171,0,2.181-.397,3.031-1.19M366.745,165.583h-7.448v31.662h7.448v-31.662ZM335.667,191.354c-1.001-.698-1.501-1.736-1.501-3.115,0-.963.255-1.746.765-2.35s1.203-1.081,2.081-1.431c.878-.349,1.874-.599,2.988-.75.491-.057,1.071-.132,1.742-.227.67-.094,1.354-.207,2.053-.34.698-.131,1.321-.278,1.869-.438.548-.161.944-.335,1.19-.524v3.71c0,1.17-.303,2.251-.907,3.242-.604.991-1.454,1.784-2.548,2.379-1.096.595-2.398.892-3.909.892-1.548,0-2.822-.349-3.823-1.048M341.912,197.188c1.217-.471,2.237-1.09,3.058-1.855.822-.764,1.459-1.581,1.912-2.449h.226v4.361h7.166v-21.184c0-2.095-.378-3.841-1.133-5.239-.756-1.397-1.766-2.511-3.031-3.342-1.265-.83-2.652-1.42-4.163-1.77-1.51-.349-3.021-.524-4.531-.524-2.209,0-4.224.326-6.046.977-1.823.652-3.366,1.624-4.631,2.917-1.265,1.294-2.171,2.903-2.718,4.829l6.938.991c.378-1.076,1.1-2.01,2.167-2.803,1.066-.793,2.515-1.19,4.347-1.19,1.737,0,3.058.425,3.965,1.275.906.849,1.359,2.039,1.359,3.568v.141c0,.718-.26,1.247-.779,1.586-.519.34-1.355.586-2.506.737-1.152.151-2.662.33-4.531.538-1.53.151-3.012.41-4.447.779-1.435.368-2.723.901-3.865,1.6-1.143.698-2.044,1.633-2.705,2.803-.661,1.171-.991,2.644-.991,4.418,0,2.078.462,3.824,1.387,5.24s2.19,2.487,3.795,3.214c1.605.727,3.417,1.09,5.438,1.09,1.661,0,3.101-.236,4.319-.708M306.704,197.245v-16.822h17.531v-6.316h-17.531v-12.659h19.428v-6.4h-27.074v42.197h7.646ZM274.659,195.956c2.266-1.236,4.04-2.945,5.324-5.126,1.284-2.18,1.926-4.658,1.926-7.434,0-2.718-.576-5.126-1.727-7.221-1.152-2.096-2.724-3.743-4.716-4.942-1.992-1.199-4.272-1.799-6.839-1.799-1.718,0-3.29.298-4.715.893-1.426.594-2.535,1.364-3.328,2.308h-.227l1.218-11.187h18.153v-6.4h-24.497l-2.209,21.75,6.939,1.133c.717-.774,1.68-1.402,2.889-1.884,1.208-.481,2.454-.722,3.738-.722,1.548,0,2.917.354,4.106,1.062,1.19.708,2.124,1.681,2.804,2.917.68,1.237,1.02,2.658,1.02,4.262,0,1.568-.336,2.96-1.006,4.178-.67,1.217-1.581,2.171-2.733,2.86-1.152.689-2.483,1.034-3.993,1.034-1.907,0-3.545-.548-4.913-1.643-1.37-1.095-2.11-2.501-2.224-4.22h-7.42c.076,2.342.751,4.418,2.025,6.231,1.275,1.812,2.993,3.233,5.155,4.262,2.161,1.029,4.62,1.543,7.377,1.543,2.983,0,5.608-.618,7.873-1.855M249.005,197.245v-6.372h-18.351v-.312l7.25-7.391c2.737-2.624,4.866-4.866,6.386-6.726,1.519-1.86,2.581-3.55,3.186-5.07.604-1.519.906-3.072.906-4.658,0-2.36-.595-4.461-1.784-6.302-1.189-1.84-2.851-3.289-4.984-4.347-2.134-1.057-4.626-1.586-7.477-1.586-2.775,0-5.239.548-7.392,1.643-2.152,1.095-3.837,2.629-5.055,4.602-1.217,1.973-1.826,4.29-1.826,6.953h7.25c0-1.435.287-2.672.863-3.71.576-1.038,1.383-1.841,2.422-2.408,1.038-.566,2.256-.849,3.653-.849,1.34,0,2.535.255,3.583.764,1.047.51,1.873,1.247,2.478,2.209.604.963.906,2.106.906,3.427,0,1.171-.236,2.271-.708,3.3-.472,1.029-1.175,2.091-2.11,3.186-.935,1.095-2.091,2.35-3.469,3.766l-14.67,14.387v5.494h28.943ZM195.857,189.627c-1.284-1.19-2.256-2.922-2.917-5.197-.661-2.275-.991-5.027-.991-8.255,0-4.871.741-8.642,2.223-11.314s3.601-4.008,6.358-4.008c1.831,0,3.385.6,4.659,1.799,1.274,1.199,2.247,2.941,2.917,5.225.67,2.284,1.005,5.051,1.005,8.298,0,3.228-.335,5.98-1.005,8.255-.67,2.275-1.643,4.007-2.917,5.197-1.274,1.189-2.828,1.784-4.659,1.784s-3.389-.595-4.673-1.784M209.31,195.248c2.416-1.708,4.266-4.172,5.55-7.391,1.284-3.219,1.926-7.113,1.926-11.682s-.642-8.468-1.926-11.697c-1.284-3.228-3.143-5.701-5.579-7.42-2.435-1.717-5.352-2.577-8.751-2.577-3.417,0-6.339.855-8.765,2.563-2.426,1.709-4.281,4.182-5.565,7.42-1.284,3.238-1.926,7.142-1.926,11.711s.642,8.463,1.926,11.682c1.284,3.219,3.139,5.683,5.565,7.391,2.426,1.709,5.348,2.563,8.765,2.563,3.436,0,6.363-.854,8.78-2.563M181.577,197.245v-6.372h-18.352v-.312l7.25-7.391c2.738-2.624,4.867-4.866,6.387-6.726,1.519-1.86,2.581-3.55,3.186-5.07.604-1.519.906-3.072.906-4.658,0-2.36-.595-4.461-1.784-6.302-1.19-1.84-2.851-3.289-4.985-4.347-2.133-1.057-4.626-1.586-7.476-1.586-2.776,0-5.239.548-7.392,1.643-2.152,1.095-3.837,2.629-5.055,4.602s-1.827,4.29-1.827,6.953h7.25c0-1.435.288-2.672.864-3.71.576-1.038,1.383-1.841,2.422-2.408,1.038-.566,2.255-.849,3.653-.849,1.34,0,2.535.255,3.582.764,1.048.51,1.874,1.247,2.478,2.209.604.963.907,2.106.907,3.427,0,1.171-.237,2.271-.708,3.3-.472,1.029-1.176,2.091-2.11,3.186-.935,1.095-2.091,2.35-3.469,3.766l-14.67,14.387v5.494h28.943Z"/>
    <path class="st1" d="M120.013,182.446c-.883-.709-1.52-1.631-1.91-2.768-.39-1.136-.585-2.351-.585-3.643s.242-2.444.728-3.457c.485-1.012,1.186-1.806,2.101-2.382s2.017-.864,3.307-.864c1.432,0,2.582.234,3.449.701.868.467,1.496,1.195,1.887,2.183.389.989.584,2.262.584,3.819,0,1.635-.191,3.009-.573,4.122-.382,1.113-1.01,1.95-1.886,2.51-.875.561-2.045.841-3.509.841-1.512,0-2.71-.354-3.593-1.062M129.276,197.918c1.472-.218,2.813-.494,4.023-.829,1.209-.335,2.172-.681,2.889-1.039l-1.457-4.321c-.541.202-1.317.444-2.327.724-1.011.28-2.145.521-3.403.724-1.257.202-2.546.304-3.867.304-2.881,0-5.424-.374-7.628-1.121-2.205-.748-4.055-1.849-5.551-3.305-1.496-1.456-2.63-3.246-3.402-5.372-.772-2.125-1.158-4.557-1.158-7.298,0-2.569.37-4.92,1.111-7.053.74-2.133,1.838-3.97,3.294-5.512,1.456-1.541,3.259-2.736,5.408-3.585,2.148-.848,4.639-1.272,7.472-1.272,1.862,0,3.609.202,5.241.607,1.631.405,3.115,1.008,4.452,1.81,1.337.802,2.483,1.798,3.438,2.989.955,1.191,1.695,2.569,2.22,4.134.526,1.565.788,3.313.788,5.243,0,2.335-.127,4.255-.382,5.757-.255,1.503-.665,2.616-1.229,3.34-.566.724-1.318,1.086-2.256,1.086-.749,0-1.33-.265-1.743-.794-.414-.53-.621-1.215-.621-2.056v-16.161h-4.823v1.892h-.262c-.35-.561-1.095-1.11-2.232-1.647-1.139-.537-2.511-.806-4.119-.806-1.989,0-3.804.483-5.443,1.448-1.639.966-2.945,2.34-3.915,4.123-.971,1.783-1.457,3.88-1.457,6.294,0,2.397.414,4.507,1.242,6.329.827,1.821,2.025,3.25,3.593,4.285,1.567,1.036,3.441,1.553,5.622,1.553,1.226,0,2.336-.163,3.331-.49.994-.327,1.826-.759,2.494-1.296.669-.537,1.13-1.125,1.385-1.764h.191c.127.81.45,1.495.967,2.056.517.56,1.182.985,1.994,1.272.811.289,1.702.433,2.673.433,1.99,0,3.641-.393,4.954-1.18,1.313-.786,2.352-1.86,3.116-3.223.764-1.362,1.305-2.915,1.623-4.659.319-1.744.478-3.573.478-5.488,0-2.787-.47-5.384-1.409-7.789-.939-2.406-2.312-4.508-4.118-6.306-1.807-1.798-4.027-3.199-6.661-4.204-2.634-1.004-5.638-1.506-9.012-1.506-3.598,0-6.809.518-9.634,1.553-2.825,1.036-5.216,2.53-7.174,4.484-1.957,1.954-3.446,4.294-4.464,7.018-1.019,2.725-1.528,5.777-1.528,9.155,0,3.457.505,6.536,1.516,9.237,1.01,2.701,2.491,4.986,4.44,6.854,1.95,1.869,4.337,3.285,7.163,4.251,2.825.965,6.06,1.448,9.704,1.448,1.496,0,2.981-.109,4.453-.327"/>
  </g>
</svg>