<?xml version="1.0" encoding="UTF-8"?>
<svg id="Layer_1" xmlns="http://www.w3.org/2000/svg" width="492" height="240" xmlns:xlink="http://www.w3.org/1999/xlink" version="1.1" viewBox="0 0 492 240">
  <!-- Generator: Adobe Illustrator 29.5.0, SVG Export Plug-In . SVG Version: 2.1.0 Build 137)  -->
  <defs>
    <style>
      .st0 {
        fill: none;
      }

      .st1 {
        fill: #fff;
      }

      .st2 {
        clip-path: url(#clippath);
      }
    </style>
    <clipPath id="clippath">
      <rect class="st0" width="492" height="240"/>
    </clipPath>
  </defs>
  <g class="st2">
    <path class="st1" d="M348.517,113.555c0,3.724,1.159,6.66,3.477,8.808,2.317,2.149,5.508,3.223,9.57,3.223,1.119,0,2.239-.085,3.359-.254,1.12-.17,2.227-.423,3.321-.762l-1.758-8.047c-.443.105-.938.196-1.484.274-.547.078-1.042.117-1.485.117-1.64,0-2.839-.41-3.594-1.23-.755-.821-1.132-2.09-1.132-3.809v-40.938h-10.274v42.618ZM342.384,89.297h25.039v-7.969h-25.039v7.969ZM337.006,73.555c1.172-1.094,1.758-2.422,1.758-3.985,0-1.536-.586-2.851-1.758-3.945s-2.565-1.641-4.18-1.641c-1.64,0-3.047.547-4.218,1.641-1.172,1.094-1.758,2.422-1.758,3.984,0,1.537.586,2.852,1.758,3.946,1.171,1.093,2.578,1.64,4.218,1.64,1.615,0,3.008-.547,4.18-1.64M337.944,81.328h-10.273v43.672h10.273v-43.672ZM294.809,115.566c-1.537-1.184-2.702-2.838-3.496-4.961-.795-2.122-1.192-4.589-1.192-7.402,0-2.838.397-5.306,1.192-7.402.794-2.096,1.953-3.717,3.476-4.864,1.524-1.145,3.392-1.718,5.606-1.718,2.291,0,4.192.599,5.703,1.797,1.51,1.198,2.656,2.851,3.437,4.961.782,2.109,1.172,4.518,1.172,7.226s-.39,5.131-1.172,7.266c-.781,2.135-1.933,3.815-3.457,5.039-1.523,1.224-3.418,1.836-5.683,1.836-2.188,0-4.05-.592-5.586-1.778M312.445,123.145c2.721-1.758,4.864-4.317,6.426-7.676,1.563-3.36,2.344-7.435,2.344-12.227,0-4.869-.801-8.971-2.402-12.305-1.602-3.333-3.757-5.859-6.465-7.578-2.709-1.718-5.742-2.578-9.102-2.578-2.578,0-4.694.43-6.347,1.289-1.655.86-2.963,1.895-3.926,3.106-.964,1.211-1.706,2.337-2.227,3.379h-.429v-21.758h-10.274v58.203h10.078v-6.914h.625c.521,1.068,1.283,2.194,2.285,3.379,1.003,1.185,2.331,2.201,3.985,3.047,1.653.846,3.717,1.269,6.191,1.269,3.438,0,6.517-.879,9.238-2.636M270.647,73.555c1.172-1.094,1.758-2.422,1.758-3.985,0-1.536-.586-2.851-1.758-3.945-1.171-1.094-2.565-1.641-4.179-1.641-1.641,0-3.047.547-4.219,1.641-1.172,1.094-1.758,2.422-1.758,3.984,0,1.537.586,2.852,1.758,3.946,1.172,1.093,2.578,1.64,4.219,1.64,1.614,0,3.008-.547,4.179-1.64M271.585,81.328h-10.273v43.672h10.273v-43.672ZM225.976,94.043c.807-1.471,1.92-2.598,3.34-3.379,1.419-.781,3.04-1.172,4.863-1.172,2.708,0,4.818.814,6.328,2.442,1.51,1.627,2.266,3.925,2.266,6.894v26.172h10.312v-27.773c0-3.516-.625-6.498-1.875-8.946-1.25-2.447-3.001-4.309-5.254-5.586-2.252-1.275-4.889-1.914-7.91-1.914-3.359,0-6.107.717-8.242,2.149-2.135,1.432-3.711,3.385-4.726,5.859h-.547v-21.992h-10.039v58.203h10.273v-25.547c0-2.135.404-3.938,1.211-5.41M170.08,81.328l12.93,21.875-13.242,21.797h10.898l9.102-15.703,9.258,15.703h10.82l-13.359-21.797,13.125-21.875h-10.899l-8.945,16.172-8.789-16.172h-10.899ZM164.967,125v-8.828h-27.5v-16.211h25.312v-8.711h-25.312v-15.625h27.344v-8.828h-37.891v58.203h38.047Z"/>
    <path class="st1" d="M379.351,197.245v-18.578c0-1.359.307-2.549.921-3.568.613-1.02,1.458-1.822,2.534-2.408,1.077-.585,2.304-.878,3.682-.878.623,0,1.275.038,1.954.114.68.075,1.18.17,1.501.283v-6.854c-.34-.056-.769-.103-1.288-.141-.52-.038-.977-.057-1.374-.057-1.812,0-3.427.496-4.843,1.487-1.416.991-2.407,2.412-2.973,4.262h-.34v-5.324h-7.222v31.662h7.448ZM366.066,159.947c.849-.793,1.274-1.756,1.274-2.889,0-1.113-.425-2.067-1.274-2.86-.85-.793-1.86-1.189-3.031-1.189-1.189,0-2.209.396-3.058,1.189-.85.793-1.275,1.756-1.275,2.889,0,1.114.425,2.067,1.275,2.86.849.793,1.869,1.19,3.058,1.19,1.171,0,2.181-.397,3.031-1.19M366.745,165.583h-7.448v31.662h7.448v-31.662ZM335.667,191.354c-1.001-.698-1.501-1.736-1.501-3.115,0-.963.255-1.746.765-2.35s1.203-1.081,2.081-1.431c.878-.349,1.874-.599,2.988-.75.491-.057,1.071-.132,1.742-.227.67-.094,1.354-.207,2.053-.34.698-.131,1.321-.278,1.869-.438.548-.161.944-.335,1.19-.524v3.71c0,1.17-.303,2.251-.907,3.242-.604.991-1.454,1.784-2.548,2.379-1.096.595-2.398.892-3.909.892-1.548,0-2.822-.349-3.823-1.048M341.912,197.188c1.217-.471,2.237-1.09,3.058-1.855.822-.764,1.459-1.581,1.912-2.449h.226v4.361h7.166v-21.184c0-2.095-.378-3.841-1.133-5.239-.756-1.397-1.766-2.511-3.031-3.342-1.265-.83-2.652-1.42-4.163-1.77-1.51-.349-3.021-.524-4.531-.524-2.209,0-4.224.326-6.046.977-1.823.652-3.366,1.624-4.631,2.917-1.265,1.294-2.171,2.903-2.718,4.829l6.938.991c.378-1.076,1.1-2.01,2.167-2.803,1.066-.793,2.515-1.19,4.347-1.19,1.737,0,3.058.425,3.965,1.275.906.849,1.359,2.039,1.359,3.568v.141c0,.718-.26,1.247-.779,1.586-.519.34-1.355.586-2.506.737-1.152.151-2.662.33-4.531.538-1.53.151-3.012.41-4.447.779-1.435.368-2.723.901-3.865,1.6-1.143.698-2.044,1.633-2.705,2.803-.661,1.171-.991,2.644-.991,4.418,0,2.078.462,3.824,1.387,5.24s2.19,2.487,3.795,3.214c1.605.727,3.417,1.09,5.438,1.09,1.661,0,3.101-.236,4.319-.708M306.704,197.245v-16.822h17.531v-6.316h-17.531v-12.659h19.428v-6.4h-27.074v42.197h7.646ZM274.659,195.956c2.266-1.236,4.04-2.945,5.324-5.126,1.284-2.18,1.926-4.658,1.926-7.434,0-2.718-.576-5.126-1.727-7.221-1.152-2.096-2.724-3.743-4.716-4.942-1.992-1.199-4.272-1.799-6.839-1.799-1.718,0-3.29.298-4.715.893-1.426.594-2.535,1.364-3.328,2.308h-.227l1.218-11.187h18.153v-6.4h-24.497l-2.209,21.75,6.939,1.133c.717-.774,1.68-1.402,2.889-1.884,1.208-.481,2.454-.722,3.738-.722,1.548,0,2.917.354,4.106,1.062,1.19.708,2.124,1.681,2.804,2.917.68,1.237,1.02,2.658,1.02,4.262,0,1.568-.336,2.96-1.006,4.178-.67,1.217-1.581,2.171-2.733,2.86-1.152.689-2.483,1.034-3.993,1.034-1.907,0-3.545-.548-4.913-1.643-1.37-1.095-2.11-2.501-2.224-4.22h-7.42c.076,2.342.751,4.418,2.025,6.231,1.275,1.812,2.993,3.233,5.155,4.262,2.161,1.029,4.62,1.543,7.377,1.543,2.983,0,5.608-.618,7.873-1.855M249.005,197.245v-6.372h-18.351v-.312l7.25-7.391c2.737-2.624,4.866-4.866,6.386-6.726,1.519-1.86,2.581-3.55,3.186-5.07.604-1.519.906-3.072.906-4.658,0-2.36-.595-4.461-1.784-6.302-1.189-1.84-2.851-3.289-4.984-4.347-2.134-1.057-4.626-1.586-7.477-1.586-2.775,0-5.239.548-7.392,1.643-2.152,1.095-3.837,2.629-5.055,4.602-1.217,1.973-1.826,4.29-1.826,6.953h7.25c0-1.435.287-2.672.863-3.71.576-1.038,1.383-1.841,2.422-2.408,1.038-.566,2.256-.849,3.653-.849,1.34,0,2.535.255,3.583.764,1.047.51,1.873,1.247,2.478,2.209.604.963.906,2.106.906,3.427,0,1.171-.236,2.271-.708,3.3-.472,1.029-1.175,2.091-2.11,3.186-.935,1.095-2.091,2.35-3.469,3.766l-14.67,14.387v5.494h28.943ZM195.857,189.627c-1.284-1.19-2.256-2.922-2.917-5.197-.661-2.275-.991-5.027-.991-8.255,0-4.871.741-8.642,2.223-11.314s3.601-4.008,6.358-4.008c1.831,0,3.385.6,4.659,1.799,1.274,1.199,2.247,2.941,2.917,5.225.67,2.284,1.005,5.051,1.005,8.298,0,3.228-.335,5.98-1.005,8.255-.67,2.275-1.643,4.007-2.917,5.197-1.274,1.189-2.828,1.784-4.659,1.784s-3.389-.595-4.673-1.784M209.31,195.248c2.416-1.708,4.266-4.172,5.55-7.391,1.284-3.219,1.926-7.113,1.926-11.682s-.642-8.468-1.926-11.697c-1.284-3.228-3.143-5.701-5.579-7.42-2.435-1.717-5.352-2.577-8.751-2.577-3.417,0-6.339.855-8.765,2.563-2.426,1.709-4.281,4.182-5.565,7.42-1.284,3.238-1.926,7.142-1.926,11.711s.642,8.463,1.926,11.682c1.284,3.219,3.139,5.683,5.565,7.391,2.426,1.709,5.348,2.563,8.765,2.563,3.436,0,6.363-.854,8.78-2.563M181.577,197.245v-6.372h-18.352v-.312l7.25-7.391c2.738-2.624,4.867-4.866,6.387-6.726,1.519-1.86,2.581-3.55,3.186-5.07.604-1.519.906-3.072.906-4.658,0-2.36-.595-4.461-1.784-6.302-1.19-1.84-2.851-3.289-4.985-4.347-2.133-1.057-4.626-1.586-7.476-1.586-2.776,0-5.239.548-7.392,1.643-2.152,1.095-3.837,2.629-5.055,4.602s-1.827,4.29-1.827,6.953h7.25c0-1.435.288-2.672.864-3.71.576-1.038,1.383-1.841,2.422-2.408,1.038-.566,2.255-.849,3.653-.849,1.34,0,2.535.255,3.582.764,1.048.51,1.874,1.247,2.478,2.209.604.963.907,2.106.907,3.427,0,1.171-.237,2.271-.708,3.3-.472,1.029-1.176,2.091-2.11,3.186-.935,1.095-2.091,2.35-3.469,3.766l-14.67,14.387v5.494h28.943Z"/>
    <path class="st1" d="M120.013,182.446c-.883-.709-1.52-1.631-1.91-2.768-.39-1.136-.585-2.351-.585-3.643s.242-2.444.728-3.457c.485-1.012,1.186-1.806,2.101-2.382s2.017-.864,3.307-.864c1.432,0,2.582.234,3.449.701.868.467,1.496,1.195,1.887,2.183.389.989.584,2.262.584,3.819,0,1.635-.191,3.009-.573,4.122-.382,1.113-1.01,1.95-1.886,2.51-.875.561-2.045.841-3.509.841-1.512,0-2.71-.354-3.593-1.062M129.276,197.918c1.472-.218,2.813-.494,4.023-.829,1.209-.335,2.172-.681,2.889-1.039l-1.457-4.321c-.541.202-1.317.444-2.327.724-1.011.28-2.145.521-3.403.724-1.257.202-2.546.304-3.867.304-2.881,0-5.424-.374-7.628-1.121-2.205-.748-4.055-1.849-5.551-3.305-1.496-1.456-2.63-3.246-3.402-5.372-.772-2.125-1.158-4.557-1.158-7.298,0-2.569.37-4.92,1.111-7.053.74-2.133,1.838-3.97,3.294-5.512,1.456-1.541,3.259-2.736,5.408-3.585,2.148-.848,4.639-1.272,7.472-1.272,1.862,0,3.609.202,5.241.607,1.631.405,3.115,1.008,4.452,1.81,1.337.802,2.483,1.798,3.438,2.989.955,1.191,1.695,2.569,2.22,4.134.526,1.565.788,3.313.788,5.243,0,2.335-.127,4.255-.382,5.757-.255,1.503-.665,2.616-1.229,3.34-.566.724-1.318,1.086-2.256,1.086-.749,0-1.33-.265-1.743-.794-.414-.53-.621-1.215-.621-2.056v-16.161h-4.823v1.892h-.262c-.35-.561-1.095-1.11-2.232-1.647-1.139-.537-2.511-.806-4.119-.806-1.989,0-3.804.483-5.443,1.448-1.639.966-2.945,2.34-3.915,4.123-.971,1.783-1.457,3.88-1.457,6.294,0,2.397.414,4.507,1.242,6.329.827,1.821,2.025,3.25,3.593,4.285,1.567,1.036,3.441,1.553,5.622,1.553,1.226,0,2.336-.163,3.331-.49.994-.327,1.826-.759,2.494-1.296.669-.537,1.13-1.125,1.385-1.764h.191c.127.81.45,1.495.967,2.056.517.56,1.182.985,1.994,1.272.811.289,1.702.433,2.673.433,1.99,0,3.641-.393,4.954-1.18,1.313-.786,2.352-1.86,3.116-3.223.764-1.362,1.305-2.915,1.623-4.659.319-1.744.478-3.573.478-5.488,0-2.787-.47-5.384-1.409-7.789-.939-2.406-2.312-4.508-4.118-6.306-1.807-1.798-4.027-3.199-6.661-4.204-2.634-1.004-5.638-1.506-9.012-1.506-3.598,0-6.809.518-9.634,1.553-2.825,1.036-5.216,2.53-7.174,4.484-1.957,1.954-3.446,4.294-4.464,7.018-1.019,2.725-1.528,5.777-1.528,9.155,0,3.457.505,6.536,1.516,9.237,1.01,2.701,2.491,4.986,4.44,6.854,1.95,1.869,4.337,3.285,7.163,4.251,2.825.965,6.06,1.448,9.704,1.448,1.496,0,2.981-.109,4.453-.327"/>
  </g>
</svg>