<?xml version="1.0" encoding="UTF-8"?>
<svg id="Layer_1" xmlns="http://www.w3.org/2000/svg" width="492" height="189" xmlns:xlink="http://www.w3.org/1999/xlink" version="1.1" viewBox="0 0 492 189">
  <!-- Generator: Adobe Illustrator 29.5.0, SVG Export Plug-In . SVG Version: 2.1.0 Build 137)  -->
  <defs>
    <style>
      .st0 {
        fill: none;
      }

      .st1 {
        fill: #6e0fd7;
      }

      .st2 {
        fill: #fff;
      }

      .st3 {
        clip-path: url(#clippath);
      }
    </style>
    <clipPath id="clippath">
      <rect class="st0" width="492" height="189"/>
    </clipPath>
  </defs>
  <g class="st3">
    <rect class="st1" width="492" height="189" rx="12" ry="12"/>
    <path class="st2" d="M29,46c9.389,0,17-7.611,17-17s-7.611-17-17-17-17,7.611-17,17,7.611,17,17,17"/>
    <path class="st1" d="M34.459,36.688v-2.832h-5.898v-.098l1.738-1.601c1.061-.918,1.878-1.708,2.451-2.368.573-.661.972-1.262,1.196-1.802.225-.54.337-1.087.337-1.641,0-.879-.224-1.649-.674-2.309-.449-.661-1.08-1.175-1.894-1.543-.814-.368-1.771-.552-2.871-.552-1.074,0-2.015.197-2.823.591-.807.394-1.434.949-1.879,1.665-.446.716-.669,1.569-.669,2.558h3.34c0-.442.083-.817.249-1.123s.401-.54.708-.703c.305-.162.66-.244,1.064-.244.397,0,.747.078,1.05.234.303.157.542.378.718.664.175.287.263.629.263,1.026,0,.365-.073.7-.219,1.006-.147.306-.36.609-.64.908-.28.299-.619.631-1.016.996l-5.312,4.648v2.52h10.781Z"/>
    <path class="st2" d="M367.604,132.779c.363-.363.545-.806.545-1.33s-.182-.967-.545-1.33c-.363-.363-.81-.545-1.342-.545s-.978.182-1.341.545c-.364.363-.545.807-.545,1.33s.181.967.545,1.33c.363.364.81.545,1.341.545s.979-.181,1.342-.545M360.154,120.85c-.879-.66-2.088-.991-3.627-.991-1.047,0-1.969.165-2.766.493-.797.328-1.418.789-1.863,1.382-.446.594-.668,1.297-.668,2.11,0,.953.3,1.736.902,2.349.602.614,1.531,1.057,2.789,1.331l2.238.468c1.172.266,1.758.766,1.758,1.5,0,.438-.222.807-.668,1.108-.445.301-1.035.451-1.769.451-.703,0-1.28-.15-1.729-.451s-.74-.744-.873-1.33l-3.012.281c.196,1.203.78,2.143,1.752,2.818.973.676,2.26,1.014,3.862,1.014,1.093,0,2.06-.176,2.9-.527.84-.352,1.498-.844,1.975-1.477.476-.633.715-1.359.715-2.18,0-.929-.305-1.687-.914-2.273-.61-.586-1.528-1.008-2.754-1.266l-2.239-.469c-.664-.148-1.138-.345-1.423-.591-.286-.246-.428-.561-.428-.944,0-.437.217-.797.65-1.078.434-.281.971-.422,1.612-.422.71,0,1.261.166,1.652.498.39.333.644.713.762,1.143l2.8-.293c-.211-1.109-.756-1.994-1.634-2.654M343.882,129.691c0,1.118.348,1.999,1.043,2.643.695.645,1.652.967,2.871.967.336,0,.672-.026,1.008-.076.336-.051.668-.127.996-.229l-.527-2.414c-.133.031-.281.059-.446.082-.164.024-.312.035-.445.035-.492,0-.851-.123-1.078-.369s-.34-.627-.34-1.142v-12.282h-3.082v12.785ZM342.042,122.414h7.512v-2.391h-7.512v2.391ZM332.521,123.838c.239-.441.567-.779.985-1.014.418-.234.896-.351,1.435-.351.797,0,1.422.248,1.875.744.453.496.68,1.182.68,2.057v7.851h3.082v-8.332c0-1.047-.186-1.939-.557-2.678-.371-.738-.892-1.298-1.564-1.681-.672-.383-1.461-.575-2.367-.575-.985,0-1.795.217-2.432.651-.637.433-1.103,1.018-1.4,1.752h-.153v-2.238h-3.023v13.101h3.082v-7.664c0-.64.119-1.182.357-1.623M322.791,129.281c-.274.438-.623.766-1.049.985-.426.219-.865.328-1.318.328-.743.008-1.342-.235-1.799-.727-.457-.492-.686-1.148-.686-1.968v-7.875h-3.082v8.343c0,1.047.186,1.94.557,2.678.371.738.883,1.297,1.535,1.676.652.379,1.408.568,2.268.568.984.008,1.812-.223,2.484-.691.672-.469,1.156-1.071,1.453-1.805h.141v2.332h2.988v-13.101h-3.082v7.605c0,.664-.137,1.215-.41,1.652M304.713,130.33c-.469-.379-.819-.892-1.049-1.541-.23-.648-.346-1.367-.346-2.156,0-.805.116-1.531.346-2.18.23-.648.58-1.162,1.049-1.541.469-.379,1.051-.568,1.746-.568.711,0,1.297.189,1.758.568.461.379.806.893,1.037,1.541.23.649.346,1.375.346,2.18,0,.789-.116,1.508-.346,2.156-.231.649-.576,1.162-1.037,1.541s-1.047.569-1.758.569c-.695,0-1.277-.19-1.746-.569M309.787,132.539c.938-.562,1.664-1.351,2.18-2.367.516-1.016.773-2.195.773-3.539,0-1.352-.257-2.537-.773-3.557-.516-1.019-1.242-1.81-2.18-2.373-.937-.562-2.047-.844-3.328-.844s-2.391.282-3.328.844c-.938.563-1.662,1.354-2.174,2.373-.512,1.02-.767,2.205-.767,3.557,0,1.344.255,2.523.767,3.539.512,1.016,1.236,1.805,2.174,2.367.937.563,2.047.844,3.328.844s2.391-.281,3.328-.844M295.964,132.779c.813-.402,1.457-.959,1.934-1.67.476-.71.75-1.531.82-2.46h-2.953c-.133.703-.435,1.253-.908,1.652-.473.398-1.049.598-1.728.598-.641,0-1.2-.174-1.676-.522-.477-.348-.844-.844-1.102-1.488-.258-.645-.387-1.412-.387-2.303,0-.883.133-1.641.399-2.273.265-.633.635-1.12,1.107-1.459.473-.34,1.026-.51,1.659-.51.499,0,.931.098,1.294.293.364.195.659.461.885.797.227.336.379.715.457,1.136h2.953c-.07-.945-.349-1.771-.838-2.478-.488-.707-1.142-1.256-1.962-1.647-.821-.39-1.766-.586-2.836-.586-1.274,0-2.379.288-3.317.862-.937.574-1.66,1.369-2.168,2.385-.508,1.015-.761,2.191-.761,3.527,0,1.32.249,2.488.75,3.504.499,1.015,1.218,1.81,2.156,2.385.937.574,2.058.861,3.363.861,1.094,0,2.047-.201,2.859-.604M282.61,132.779c.813-.402,1.457-.959,1.934-1.67.477-.71.75-1.531.82-2.46h-2.953c-.133.703-.435,1.253-.908,1.652-.473.398-1.049.598-1.728.598-.641,0-1.2-.174-1.676-.522-.477-.348-.844-.844-1.102-1.488-.258-.645-.387-1.412-.387-2.303,0-.883.133-1.641.399-2.273.265-.633.635-1.12,1.107-1.459.473-.34,1.026-.51,1.659-.51.499,0,.931.098,1.294.293.364.195.659.461.885.797.227.336.379.715.457,1.136h2.953c-.07-.945-.349-1.771-.838-2.478-.488-.707-1.142-1.256-1.962-1.647-.821-.39-1.766-.586-2.836-.586-1.274,0-2.379.288-3.317.862-.937.574-1.66,1.369-2.168,2.385-.508,1.015-.761,2.191-.761,3.527,0,1.32.249,2.488.75,3.504.499,1.015,1.218,1.81,2.156,2.385.937.574,2.058.861,3.363.861,1.094,0,2.047-.201,2.859-.604M263.64,130.688c-.414-.289-.621-.719-.621-1.289,0-.399.105-.723.316-.973s.498-.447.861-.592c.364-.144.776-.248,1.237-.31.203-.024.443-.055.72-.094.278-.039.561-.086.85-.141.289-.054.547-.115.773-.181.227-.067.391-.139.493-.217v1.535c0,.484-.125.931-.375,1.342-.251.41-.602.738-1.055.984-.453.246-.992.369-1.617.369-.641,0-1.168-.144-1.582-.433M266.224,133.102c.504-.196.925-.452,1.265-.768.34-.316.604-.654.791-1.014h.094v1.805h2.965v-8.766c0-.867-.156-1.589-.469-2.168-.312-.578-.73-1.038-1.254-1.382-.523-.344-1.097-.588-1.722-.733-.626-.144-1.25-.217-1.875-.217-.914,0-1.748.135-2.502.405-.754.269-1.393.672-1.916,1.207-.524.535-.899,1.201-1.125,1.998l2.871.41c.156-.445.455-.832.896-1.16.442-.328,1.041-.492,1.799-.492.719,0,1.266.175,1.641.527s.562.844.562,1.477v.058c0,.297-.107.516-.322.656-.215.141-.561.243-1.037.305-.477.063-1.102.137-1.875.223-.633.062-1.246.17-1.84.322s-1.127.373-1.6.662c-.472.289-.845.676-1.119,1.16-.273.485-.41,1.094-.41,1.828,0,.86.191,1.582.574,2.168.383.586.906,1.03,1.571,1.33.664.301,1.414.452,2.25.452.687,0,1.283-.098,1.787-.293M249.098,133.125v-7.687c0-.563.127-1.055.381-1.477.253-.422.603-.754,1.048-.996.446-.242.953-.363,1.524-.363.258,0,.527.015.808.047.282.031.489.07.621.117v-2.836c-.14-.024-.318-.043-.533-.059-.215-.015-.404-.023-.568-.023-.75,0-1.418.205-2.004.615-.586.41-.996.998-1.23,1.764h-.141v-2.203h-2.988v13.101h3.082ZM235.79,130.33c-.469-.379-.819-.892-1.049-1.541-.23-.648-.346-1.367-.346-2.156,0-.805.116-1.531.346-2.18.23-.648.58-1.162,1.049-1.541.469-.379,1.051-.568,1.746-.568.711,0,1.297.189,1.758.568.461.379.806.893,1.037,1.541.23.649.346,1.375.346,2.18,0,.789-.116,1.508-.346,2.156-.231.649-.576,1.162-1.037,1.541s-1.047.569-1.758.569c-.695,0-1.277-.19-1.746-.569M240.864,132.539c.938-.562,1.664-1.351,2.18-2.367.515-1.016.773-2.195.773-3.539,0-1.352-.258-2.537-.773-3.557-.516-1.019-1.242-1.81-2.18-2.373-.937-.562-2.047-.844-3.328-.844s-2.391.282-3.328.844c-.938.563-1.662,1.354-2.174,2.373-.512,1.02-.768,2.205-.768,3.557,0,1.344.256,2.523.768,3.539.512,1.016,1.236,1.805,2.174,2.367.937.563,2.047.844,3.328.844s2.391-.281,3.328-.844M224.515,129.691c0,1.118.348,1.999,1.043,2.643.696.645,1.653.967,2.871.967.336,0,.672-.026,1.008-.076.336-.051.668-.127.996-.229l-.527-2.414c-.133.031-.281.059-.445.082-.164.024-.313.035-.446.035-.492,0-.851-.123-1.078-.369-.226-.246-.34-.627-.34-1.142v-12.282h-3.082v12.785ZM222.676,122.414h7.512v-2.391h-7.512v2.391ZM220.779,117.691c.351-.328.527-.726.527-1.195,0-.461-.176-.855-.527-1.183-.352-.329-.77-.493-1.254-.493-.492,0-.914.164-1.266.493-.351.328-.527.726-.527,1.195,0,.461.176.855.527,1.183.352.329.774.493,1.266.493.484,0,.902-.164,1.254-.493M221.06,120.024h-3.082v13.102h3.082v-13.102ZM207.846,130.295c-.461-.355-.811-.851-1.049-1.488-.238-.637-.357-1.377-.357-2.221,0-.851.119-1.592.357-2.221.238-.628.586-1.115,1.043-1.459.457-.343,1.018-.515,1.682-.515.687,0,1.258.18,1.711.539s.797.855,1.031,1.488c.234.633.352,1.356.352,2.168s-.118,1.539-.352,2.18c-.234.64-.58,1.144-1.037,1.511-.457.368-1.025.551-1.705.551-.656,0-1.215-.177-1.676-.533M213.137,132.568c.816-.527,1.459-1.294,1.928-2.302.469-1.008.703-2.231.703-3.668,0-1.461-.24-2.692-.721-3.692-.48-1-1.127-1.757-1.939-2.273-.813-.516-1.723-.774-2.731-.774-.773,0-1.408.129-1.904.387-.496.258-.889.569-1.178.932-.289.363-.511.701-.668,1.013h-.129v-6.527h-3.082v17.461h3.024v-2.074h.187c.157.32.385.658.686,1.014.301.355.699.66,1.195.914.496.253,1.115.38,1.858.38,1.031,0,1.955-.263,2.771-.791M200.329,117.691c.351-.328.527-.726.527-1.195,0-.461-.176-.855-.527-1.183-.352-.329-.77-.493-1.254-.493-.492,0-.914.164-1.266.493-.351.328-.527.726-.527,1.195,0,.461.176.855.527,1.183.352.329.774.493,1.266.493.484,0,.902-.164,1.254-.493M200.61,120.024h-3.082v13.102h3.082v-13.102ZM186.656,123.838c.242-.441.576-.779,1.002-1.014.426-.234.912-.351,1.459-.351.813,0,1.445.244,1.899.732.453.488.679,1.178.679,2.069v7.851h3.094v-8.332c0-1.055-.187-1.949-.562-2.684-.375-.734-.901-1.292-1.577-1.675-.675-.383-1.466-.575-2.373-.575-1.007,0-1.832.215-2.472.645-.641.43-1.114,1.016-1.418,1.758h-.164v-6.598h-3.012v17.461h3.082v-7.664c0-.64.121-1.182.363-1.623M169.597,120.024l3.879,6.562-3.973,6.539h3.27l2.73-4.711,2.778,4.711h3.246l-4.008-6.539,3.938-6.562h-3.27l-2.684,4.851-2.636-4.851h-3.27ZM165.639,132.92c.785-.309,1.43-.746,1.934-1.312.504-.567.849-1.229,1.037-1.987l-2.883-.34c-.141.375-.342.69-.604.944-.261.254-.574.443-.937.568-.363.125-.764.188-1.201.188-.672,0-1.26-.149-1.764-.446-.504-.297-.895-.728-1.172-1.295-.277-.566-.416-1.248-.416-2.045v-1.441c0-.648.121-1.236.363-1.764.242-.527.598-.947,1.067-1.259.469-.313,1.035-.469,1.699-.469s1.219.156,1.664.469c.445.312.781.744,1.008,1.294.226.551.34,1.198.34,1.94l1.441-.609h-9.199v2.074h10.734v-.961c0-1.149-.16-2.139-.48-2.971-.321-.832-.76-1.517-1.319-2.057-.558-.539-1.199-.937-1.921-1.195-.723-.258-1.487-.387-2.291-.387-1.25,0-2.336.286-3.258.856-.922.57-1.637,1.365-2.145,2.385-.508,1.019-.761,2.205-.761,3.556,0,1.368.255,2.555.767,3.563.512,1.008,1.244,1.787,2.197,2.338.953.55,2.086.826,3.399.826,1.015,0,1.916-.154,2.701-.463"/>
    <path class="st2" d="M382.594,103.125v-7.687c0-.563.127-1.055.381-1.477.253-.422.603-.754,1.049-.996.445-.242.953-.363,1.523-.363.258,0,.527.015.809.047.281.031.488.07.621.117v-2.836c-.141-.024-.319-.043-.534-.059-.215-.015-.404-.023-.568-.023-.75,0-1.418.205-2.004.615-.586.41-.996.998-1.23,1.764h-.141v-2.203h-2.988v13.101h3.082ZM376.424,87.692c.352-.329.528-.727.528-1.196,0-.461-.176-.855-.528-1.183-.351-.328-.769-.493-1.254-.493-.492,0-.914.165-1.265.493-.352.328-.528.726-.528,1.195,0,.461.176.855.528,1.184.351.328.773.492,1.265.492.485,0,.903-.164,1.254-.492M376.706,90.024h-3.082v13.102h3.082v-13.102ZM368.33,102.92c.785-.308,1.429-.746,1.933-1.312.504-.567.85-1.229,1.037-1.987l-2.882-.34c-.141.375-.342.69-.604.944-.262.254-.574.443-.937.568-.364.125-.764.188-1.202.188-.672,0-1.259-.149-1.763-.446-.504-.297-.895-.728-1.172-1.295-.277-.566-.416-1.248-.416-2.045v-1.441c0-.648.121-1.236.363-1.764.242-.527.598-.947,1.067-1.259.468-.313,1.035-.469,1.699-.469s1.219.156,1.664.469c.445.312.781.744,1.008,1.295.226.55.34,1.197.34,1.939l1.441-.609h-9.199v2.074h10.734v-.961c0-1.149-.16-2.139-.48-2.971-.321-.832-.76-1.517-1.319-2.056-.558-.54-1.199-.938-1.922-1.196-.722-.258-1.486-.386-2.291-.386-1.25,0-2.336.285-3.257.855-.922.57-1.637,1.365-2.145,2.385-.508,1.019-.762,2.205-.762,3.556,0,1.368.256,2.555.768,3.563.512,1.008,1.244,1.787,2.197,2.338.953.551,2.086.826,3.399.826,1.015,0,1.916-.154,2.701-.463M349.002,93.838c.242-.441.576-.779,1.002-1.014.425-.234.912-.351,1.459-.351.812,0,1.445.244,1.898.732.453.489.68,1.178.68,2.069v7.851h3.093v-8.332c0-1.055-.187-1.949-.562-2.683-.375-.735-.901-1.293-1.576-1.676-.676-.383-1.467-.574-2.373-.574-1.008,0-1.832.214-2.473.644-.641.43-1.113,1.016-1.418,1.758h-.164v-6.598h-3.012v17.461h3.082v-7.664c0-.64.121-1.181.364-1.623M337.89,99.692c0,1.117.347,1.998,1.043,2.642.695.645,1.652.967,2.871.967.336,0,.672-.026,1.008-.076.336-.051.668-.127.996-.229l-.527-2.414c-.133.031-.282.059-.446.082-.164.024-.312.035-.445.035-.492,0-.852-.123-1.078-.369-.227-.246-.34-.627-.34-1.142v-12.282h-3.082v12.786ZM336.05,92.414h7.512v-2.391h-7.512v2.391ZM320.916,100.014c-.465-.332-.814-.799-1.049-1.401-.234-.601-.351-1.3-.351-2.097,0-.789.115-1.494.346-2.115.23-.622.576-1.112,1.037-1.471.461-.359,1.035-.539,1.722-.539.664,0,1.227.172,1.688.515.461.344.808.825,1.043,1.442.234.617.351,1.34.351,2.168,0,1.25-.267,2.228-.802,2.935-.536.707-1.295,1.061-2.28,1.061-.672,0-1.24-.166-1.705-.498M325.756,107.76c.926-.363,1.654-.912,2.186-1.647.531-.734.797-1.66.797-2.777v-13.312h-3.012v2.168h-.164c-.164-.313-.395-.651-.692-1.014-.297-.363-.695-.674-1.195-.932-.5-.258-1.133-.386-1.898-.386-1.008,0-1.922.257-2.743.773-.82.516-1.47,1.27-1.951,2.262-.48.992-.72,2.207-.72,3.644,0,1.422.24,2.606.72,3.551.481.945,1.129,1.656,1.946,2.133.816.476,1.724.715,2.724.715.758,0,1.385-.116,1.881-.346.496-.23.897-.512,1.201-.844.305-.332.531-.654.68-.967h.176v2.473c0,.961-.287,1.654-.862,2.08-.574.426-1.299.639-2.173.639-.618,0-1.129-.084-1.536-.252-.406-.168-.73-.379-.972-.633-.243-.254-.426-.51-.551-.768l-2.766.68c.274.914.887,1.694,1.84,2.338.953.645,2.262.967,3.926.967,1.18,0,2.232-.182,3.158-.545M306.171,93.838c.238-.441.567-.779.985-1.014.417-.234.896-.351,1.435-.351.797,0,1.422.248,1.875.744s.68,1.182.68,2.057v7.851h3.082v-8.332c0-1.047-.186-1.939-.557-2.678-.371-.738-.892-1.298-1.564-1.681-.672-.383-1.461-.574-2.367-.574-.985,0-1.795.216-2.432.65-.637.434-1.104,1.018-1.4,1.752h-.153v-2.238h-3.023v13.101h3.082v-7.664c0-.64.119-1.181.357-1.623M299.644,87.692c.352-.329.528-.727.528-1.196,0-.461-.176-.855-.528-1.183-.351-.328-.769-.493-1.254-.493-.492,0-.914.165-1.265.493-.352.328-.528.726-.528,1.195,0,.461.176.855.528,1.184.351.328.773.492,1.265.492.485,0,.903-.164,1.254-.492M299.925,90.024h-3.082v13.102h3.082v-13.102ZM290.912,103.125v-7.687c0-.563.127-1.055.381-1.477.253-.422.603-.754,1.048-.996.446-.242.953-.363,1.524-.363.258,0,.527.015.808.047.282.031.489.07.622.117v-2.836c-.141-.024-.319-.043-.534-.059-.215-.015-.404-.023-.568-.023-.75,0-1.418.205-2.004.615-.586.41-.996.998-1.23,1.764h-.141v-2.203h-2.988v13.101h3.082ZM282.493,102.92c.785-.308,1.429-.746,1.933-1.312.504-.567.85-1.229,1.037-1.987l-2.882-.34c-.141.375-.342.69-.604.944-.262.254-.574.443-.937.568-.364.125-.764.188-1.202.188-.672,0-1.259-.149-1.763-.446s-.895-.728-1.172-1.295c-.278-.566-.416-1.248-.416-2.045v-1.441c0-.648.121-1.236.363-1.764.242-.527.598-.947,1.066-1.259.469-.313,1.036-.469,1.7-.469s1.218.156,1.664.469c.445.312.781.744,1.008,1.295.226.55.339,1.197.339,1.939l1.442-.609h-9.199v2.074h10.734v-.961c0-1.149-.16-2.139-.48-2.971-.321-.832-.76-1.517-1.319-2.056-.559-.54-1.199-.938-1.922-1.196-.722-.258-1.486-.386-2.291-.386-1.25,0-2.336.285-3.258.855-.921.57-1.636,1.365-2.144,2.385-.508,1.019-.762,2.205-.762,3.556,0,1.368.256,2.555.768,3.563.511,1.008,1.244,1.787,2.197,2.338.953.551,2.086.826,3.398.826,1.016,0,1.916-.154,2.702-.463M266.689,99.692c0,1.117.348,1.998,1.043,2.642.695.645,1.653.967,2.871.967.336,0,.672-.026,1.008-.076.336-.051.668-.127.996-.229l-.527-2.414c-.133.031-.281.059-.445.082-.165.024-.313.035-.446.035-.492,0-.851-.123-1.078-.369-.227-.246-.34-.627-.34-1.142v-12.282h-3.082v12.786ZM264.849,92.414h7.512v-2.391h-7.512v2.391ZM261.865,90.85c-.879-.66-2.088-.99-3.627-.99-1.047,0-1.969.164-2.766.492-.797.328-1.418.789-1.863,1.383-.446.593-.668,1.296-.668,2.109,0,.953.3,1.736.902,2.35.602.613,1.531,1.056,2.789,1.33l2.238.468c1.172.266,1.758.766,1.758,1.5,0,.438-.222.807-.668,1.108-.445.301-1.035.451-1.769.451-.703,0-1.28-.15-1.729-.451-.449-.301-.74-.744-.873-1.33l-3.012.281c.196,1.203.78,2.143,1.752,2.818.973.676,2.26,1.014,3.862,1.014,1.093,0,2.06-.176,2.9-.527.84-.352,1.498-.844,1.975-1.477.476-.633.715-1.359.715-2.18,0-.929-.305-1.687-.914-2.273-.61-.586-1.528-1.008-2.754-1.266l-2.239-.468c-.664-.149-1.138-.346-1.423-.592-.286-.246-.428-.561-.428-.944,0-.437.217-.796.65-1.078.434-.281.971-.422,1.612-.422.71,0,1.261.166,1.652.498.39.333.644.713.762,1.143l2.8-.293c-.211-1.109-.755-1.994-1.634-2.654M250.239,87.692c.352-.329.527-.727.527-1.196,0-.461-.175-.855-.527-1.183-.351-.328-.769-.493-1.254-.493-.492,0-.914.165-1.265.493-.352.328-.528.726-.528,1.195,0,.461.176.855.528,1.184.351.328.773.492,1.265.492.485,0,.903-.164,1.254-.492M250.52,90.024h-3.082v13.102h3.082v-13.102ZM236.819,100.014c-.464-.332-.814-.799-1.048-1.401-.235-.601-.352-1.3-.352-2.097,0-.789.115-1.494.346-2.115.23-.622.576-1.112,1.037-1.471.461-.359,1.035-.539,1.723-.539.663,0,1.226.172,1.687.515.461.344.809.825,1.043,1.442.234.617.352,1.34.352,2.168,0,1.25-.268,2.228-.803,2.935s-1.295,1.061-2.279,1.061c-.672,0-1.241-.166-1.706-.498M241.659,107.76c.926-.363,1.654-.912,2.186-1.647.531-.734.797-1.66.797-2.777v-13.312h-3.012v2.168h-.164c-.164-.313-.395-.651-.691-1.014-.297-.363-.696-.674-1.196-.932-.5-.258-1.133-.386-1.898-.386-1.008,0-1.922.257-2.742.773-.821.516-1.471,1.27-1.952,2.262-.48.992-.72,2.207-.72,3.644,0,1.422.24,2.606.72,3.551.481.945,1.129,1.656,1.946,2.133.816.476,1.724.715,2.724.715.758,0,1.385-.116,1.881-.346.496-.23.897-.512,1.201-.844.305-.332.532-.654.68-.967h.176v2.473c0,.961-.287,1.654-.862,2.08-.574.426-1.298.639-2.173.639-.618,0-1.129-.084-1.535-.252-.407-.168-.731-.379-.973-.633s-.426-.51-.551-.768l-2.766.68c.274.914.887,1.694,1.84,2.338.953.645,2.262.967,3.926.967,1.18,0,2.232-.182,3.158-.545M227.569,102.92c.785-.308,1.43-.746,1.934-1.312.504-.567.849-1.229,1.037-1.987l-2.883-.34c-.141.375-.342.69-.604.944-.261.254-.574.443-.937.568-.363.125-.764.188-1.201.188-.672,0-1.26-.149-1.764-.446s-.895-.728-1.172-1.295c-.277-.566-.416-1.248-.416-2.045v-1.441c0-.648.121-1.236.363-1.764.243-.527.598-.947,1.067-1.259.469-.313,1.035-.469,1.699-.469s1.219.156,1.664.469c.445.312.781.744,1.008,1.295.226.55.34,1.197.34,1.939l1.441-.609h-9.199v2.074h10.734v-.961c0-1.149-.16-2.139-.48-2.971-.321-.832-.76-1.517-1.318-2.056-.559-.54-1.2-.938-1.922-1.196-.723-.258-1.487-.386-2.291-.386-1.25,0-2.336.285-3.258.855s-1.637,1.365-2.145,2.385c-.508,1.019-.761,2.205-.761,3.556,0,1.368.255,2.555.767,3.563.512,1.008,1.244,1.787,2.197,2.338.953.551,2.086.826,3.399.826,1.015,0,1.916-.154,2.701-.463M213.246,103.125v-7.687c0-.563.127-1.055.381-1.477.253-.422.603-.754,1.048-.996.446-.242.953-.363,1.524-.363.258,0,.527.015.808.047.282.031.489.07.622.117v-2.836c-.141-.024-.319-.043-.534-.059-.215-.015-.404-.023-.568-.023-.75,0-1.418.205-2.004.615-.586.41-.996.998-1.23,1.764h-.141v-2.203h-2.988v13.101h3.082ZM199.008,107.613l2.051-7.078h-3.164l-1.031,7.078h2.144ZM186.403,93.838c.238-.441.566-.779.984-1.014.418-.234.897-.351,1.436-.351.797,0,1.422.248,1.875.744.453.496.68,1.182.68,2.057v7.851h3.082v-8.332c0-1.047-.186-1.939-.557-2.678-.371-.738-.893-1.298-1.565-1.681-.672-.383-1.461-.574-2.367-.574-.984,0-1.795.216-2.431.65-.637.434-1.104,1.018-1.401,1.752h-.152v-2.238h-3.024v13.101h3.082v-7.664c0-.64.119-1.181.358-1.623M179.876,87.692c.352-.329.527-.727.527-1.196,0-.461-.175-.855-.527-1.183-.352-.328-.77-.493-1.254-.493-.492,0-.914.165-1.266.493-.351.328-.527.726-.527,1.195,0,.461.176.855.527,1.184.352.328.774.492,1.266.492.484,0,.902-.164,1.254-.492M180.157,90.024h-3.082v13.102h3.082v-13.102ZM166.902,100.33c-.469-.379-.818-.892-1.049-1.541-.23-.648-.345-1.367-.345-2.156,0-.805.115-1.531.345-2.18.231-.648.58-1.162,1.049-1.541.469-.379,1.051-.568,1.746-.568.711,0,1.297.189,1.758.568.461.379.807.893,1.037,1.541.231.649.346,1.375.346,2.18,0,.789-.115,1.508-.346,2.156-.23.649-.576,1.162-1.037,1.541-.461.379-1.047.569-1.758.569-.695,0-1.277-.19-1.746-.569M171.976,102.539c.938-.562,1.664-1.351,2.18-2.367.516-1.015.774-2.195.774-3.539,0-1.352-.258-2.537-.774-3.557-.516-1.019-1.242-1.81-2.18-2.373-.937-.562-2.047-.843-3.328-.843s-2.39.281-3.328.843c-.937.563-1.662,1.354-2.174,2.373-.511,1.02-.767,2.205-.767,3.557,0,1.344.256,2.524.767,3.539.512,1.016,1.237,1.805,2.174,2.367.938.563,2.047.844,3.328.844s2.391-.281,3.328-.844M159.926,87.692c.352-.329.527-.727.527-1.196,0-.461-.175-.855-.527-1.183-.351-.328-.77-.493-1.254-.493-.492,0-.914.165-1.265.493-.352.328-.528.726-.528,1.195,0,.461.176.855.528,1.184.351.328.773.492,1.265.492.484,0,.903-.164,1.254-.492M157.137,103.84c0,.547-.127.963-.381,1.248-.254.285-.678.428-1.271.428h-.446v2.508h.621c.969,0,1.793-.149,2.473-.446.68-.297,1.199-.752,1.559-1.365.359-.613.535-1.393.527-2.338v-13.851h-3.082v13.816Z"/>
    <path class="st2" d="M375.338,72.99c.821-.261,1.543-.674,2.168-1.236.133-.094.262-.188.387-.281.125-.094.258-.192.398-.293.422-.336.828-.783,1.219-1.342.391-.559.707-1.246.949-2.063.242-.816.364-1.775.364-2.877h-2.661c0,.891-.148,1.702-.445,2.432-.297.731-.693,1.358-1.189,1.881-.497.523-1.047.928-1.653,1.213-.605.285-1.224.428-1.857.428-.563,0-1.055-.114-1.477-.34-.422-.227-.75-.528-.984-.903-.234-.375-.352-.792-.352-1.254,0-.304.123-.669.37-1.095.246-.426.658-.854,1.236-1.283l3.539-2.579c.726-.531,1.295-1.121,1.705-1.769.41-.648.615-1.383.615-2.203,0-.719-.178-1.377-.533-1.975-.356-.597-.865-1.078-1.529-1.441-.664-.364-1.457-.545-2.379-.545-.914,0-1.713.186-2.397.556-.683.372-1.217.881-1.599,1.53-.383.648-.574,1.387-.574,2.215,0,.726.15,1.4.451,2.021.3.621.683,1.221,1.148,1.799.465.578.951,1.164,1.459,1.758l6.797,7.781h3.352l-8.192-9.586c-.391-.476-.76-.926-1.107-1.348-.348-.421-.627-.83-.838-1.224-.211-.395-.317-.78-.317-1.155,0-.32.078-.619.235-.896.156-.277.375-.502.656-.674.281-.172.605-.258.973-.258.554,0,.988.168,1.3.504.313.336.469.692.469,1.067,0,.445-.119.828-.357,1.148-.239.321-.58.637-1.026.949l-3.105,2.11c-.649.468-1.229.931-1.74,1.388-.512.457-.914.954-1.207,1.489s-.44,1.15-.44,1.845c0,.93.231,1.764.692,2.502.461.739,1.123,1.323,1.986,1.752.863.43,1.889.645,3.076.645.789,0,1.594-.131,2.414-.393M351.626,70.277c-.457-.367-.802-.871-1.037-1.511-.234-.641-.351-1.367-.351-2.18s.115-1.535.345-2.168c.231-.633.576-1.129,1.037-1.488.461-.36,1.032-.539,1.711-.539.664,0,1.225.172,1.682.515.457.344.805.83,1.043,1.459.238.629.357,1.369.357,2.221,0,.844-.121,1.584-.363,2.221-.242.636-.592,1.133-1.049,1.488-.457.356-1.013.533-1.67.533-.679,0-1.248-.183-1.705-.551M354.351,72.979c.492-.254.886-.559,1.183-.915.297-.355.528-.693.692-1.013h.187v2.074h3.012v-17.461h-3.07v6.527h-.129c-.156-.312-.381-.65-.674-1.013-.293-.364-.685-.674-1.178-.932-.492-.258-1.125-.387-1.898-.387-1.008,0-1.918.258-2.731.774-.812.515-1.459,1.273-1.939,2.273-.48,1-.721,2.231-.721,3.692,0,1.437.235,2.66.703,3.668.469,1.007,1.112,1.775,1.928,2.302.816.528,1.736.791,2.76.791.758,0,1.383-.127,1.875-.38M336.852,63.838c.238-.441.566-.779.984-1.014.418-.234.897-.351,1.436-.351.797,0,1.422.248,1.875.744.453.496.68,1.182.68,2.056v7.852h3.082v-8.332c0-1.047-.186-1.939-.557-2.678-.371-.738-.893-1.299-1.564-1.681-.672-.383-1.461-.575-2.368-.575-.984,0-1.795.217-2.431.651-.637.433-1.104,1.017-1.401,1.752h-.152v-2.239h-3.023v13.102h3.082v-7.664c0-.641.119-1.182.357-1.623M323.187,70.33c-.469-.379-.819-.892-1.049-1.541-.23-.648-.346-1.367-.346-2.156,0-.805.116-1.531.346-2.18.23-.648.58-1.162,1.049-1.541.469-.379,1.051-.568,1.746-.568.711,0,1.297.189,1.758.568.461.379.806.893,1.037,1.541.23.649.346,1.375.346,2.18,0,.789-.116,1.508-.346,2.156-.231.649-.576,1.162-1.037,1.541-.461.379-1.047.568-1.758.568-.695,0-1.277-.189-1.746-.568M328.261,72.539c.938-.562,1.664-1.351,2.18-2.367.515-1.016.773-2.195.773-3.539,0-1.352-.258-2.537-.773-3.557-.516-1.019-1.242-1.81-2.18-2.373-.937-.562-2.047-.844-3.328-.844s-2.391.282-3.328.844c-.938.563-1.662,1.354-2.174,2.373-.512,1.02-.768,2.205-.768,3.557,0,1.344.256,2.523.768,3.539.512,1.016,1.236,1.805,2.174,2.367.937.563,2.047.844,3.328.844s2.391-.281,3.328-.844M309.13,70.295c-.461-.355-.811-.852-1.049-1.488-.238-.637-.357-1.377-.357-2.221,0-.852.119-1.592.357-2.221.238-.629.586-1.115,1.043-1.459.457-.343,1.018-.515,1.682-.515.687,0,1.257.179,1.711.539.453.359.797.855,1.031,1.488.234.633.351,1.355.351,2.168s-.117,1.539-.351,2.18c-.234.64-.58,1.144-1.037,1.511-.457.368-1.026.551-1.705.551-.657,0-1.215-.177-1.676-.533M307.782,78.023v-6.972h.129c.156.32.385.658.686,1.013.3.356.699.661,1.195.915.496.253,1.115.38,1.857.38,1.032,0,1.955-.263,2.772-.791.816-.527,1.459-1.295,1.928-2.302.468-1.008.703-2.231.703-3.668,0-1.461-.24-2.692-.721-3.692-.48-1-1.127-1.758-1.939-2.273-.813-.516-1.723-.774-2.731-.774-.773,0-1.408.129-1.904.387s-.889.568-1.178.932c-.289.363-.512.701-.668,1.013h-.187v-2.168h-3.024v18h3.082ZM300.649,60.85c-.878-.66-2.087-.991-3.626-.991-1.047,0-1.969.164-2.766.493-.797.328-1.418.789-1.863,1.382-.446.594-.668,1.297-.668,2.11,0,.953.3,1.736.902,2.349.602.614,1.531,1.057,2.789,1.33l2.238.469c1.172.266,1.758.766,1.758,1.5,0,.438-.223.807-.668,1.108-.445.3-1.035.451-1.769.451-.703,0-1.28-.151-1.729-.451-.449-.301-.74-.745-.873-1.33l-3.012.281c.196,1.203.78,2.142,1.752,2.818.973.676,2.26,1.014,3.862,1.014,1.093,0,2.06-.176,2.9-.528.84-.351,1.498-.843,1.975-1.476.476-.633.714-1.359.714-2.18,0-.929-.304-1.687-.914-2.273-.609-.586-1.527-1.008-2.753-1.266l-2.239-.469c-.664-.148-1.138-.345-1.424-.591-.285-.246-.427-.561-.427-.944,0-.437.216-.797.65-1.078.434-.281.971-.422,1.611-.422.711,0,1.262.166,1.653.498.39.332.644.713.761,1.143l2.801-.293c-.211-1.109-.756-1.994-1.635-2.654M286.808,72.92c.785-.309,1.43-.746,1.934-1.313.504-.566.849-1.228,1.037-1.986l-2.883-.34c-.141.375-.342.69-.604.944-.261.254-.574.443-.937.568-.363.125-.764.187-1.201.187-.672,0-1.26-.148-1.764-.445-.504-.297-.895-.728-1.172-1.295-.277-.566-.416-1.248-.416-2.045v-1.441c0-.648.121-1.236.364-1.764.242-.527.597-.947,1.066-1.26.469-.312,1.035-.468,1.699-.468s1.219.156,1.664.468c.446.313.781.745,1.008,1.295.227.551.34,1.198.34,1.94l1.441-.61h-9.199v2.075h10.734v-.961c0-1.149-.16-2.139-.48-2.971s-.76-1.518-1.318-2.057c-.559-.539-1.2-.937-1.922-1.195-.723-.258-1.487-.387-2.291-.387-1.25,0-2.336.286-3.258.856-.922.57-1.637,1.365-2.145,2.385-.508,1.019-.761,2.205-.761,3.556,0,1.367.255,2.555.767,3.563.512,1.008,1.244,1.787,2.198,2.338.953.55,2.085.826,3.398.826,1.015,0,1.916-.155,2.701-.463M272.485,73.125v-7.687c0-.563.127-1.055.381-1.477.253-.422.603-.754,1.048-.996.446-.242.954-.363,1.524-.363.258,0,.527.015.808.046.282.032.489.071.622.118v-2.836c-.141-.024-.319-.043-.534-.059-.215-.015-.404-.023-.568-.023-.75,0-1.418.205-2.004.615s-.996.998-1.23,1.764h-.141v-2.204h-2.988v13.102h3.082ZM259.812,60.85c-.879-.66-2.088-.991-3.627-.991-1.047,0-1.969.164-2.766.493-.797.328-1.418.789-1.863,1.382-.445.594-.668,1.297-.668,2.11,0,.953.301,1.736.902,2.349.602.614,1.532,1.057,2.789,1.33l2.239.469c1.172.266,1.758.766,1.758,1.5,0,.438-.223.807-.668,1.108-.446.3-1.036.451-1.77.451-.703,0-1.279-.151-1.728-.451-.45-.301-.741-.745-.873-1.33l-3.012.281c.195,1.203.779,2.142,1.752,2.818.972.676,2.259,1.014,3.861,1.014,1.094,0,2.061-.176,2.9-.528.84-.351,1.498-.843,1.975-1.476.477-.633.715-1.359.715-2.18,0-.929-.305-1.687-.914-2.273-.61-.586-1.528-1.008-2.754-1.266l-2.238-.469c-.664-.148-1.139-.345-1.424-.591-.285-.246-.428-.561-.428-.944,0-.437.217-.797.65-1.078.434-.281.971-.422,1.612-.422.711,0,1.261.166,1.652.498.391.332.645.713.762,1.143l2.801-.293c-.211-1.109-.756-1.994-1.635-2.654M245.107,73.125v-7.687c0-.563.127-1.055.381-1.477.254-.422.603-.754,1.049-.996.445-.242.953-.363,1.523-.363.258,0,.527.015.809.046.281.032.488.071.621.118v-2.836c-.141-.024-.319-.043-.533-.059-.215-.015-.405-.023-.569-.023-.75,0-1.418.205-2.004.615-.586.41-.996.998-1.23,1.764h-.141v-2.204h-2.988v13.102h3.082ZM236.688,72.92c.785-.309,1.43-.746,1.934-1.313.503-.566.849-1.228,1.037-1.986l-2.883-.34c-.141.375-.342.69-.604.944-.262.254-.574.443-.937.568-.363.125-.764.187-1.201.187-.672,0-1.26-.148-1.764-.445-.504-.297-.895-.728-1.172-1.295-.277-.566-.416-1.248-.416-2.045v-1.441c0-.648.121-1.236.363-1.764.242-.527.598-.947,1.067-1.26.469-.312,1.035-.468,1.699-.468s1.219.156,1.664.468c.445.313.781.745,1.008,1.295.226.551.34,1.198.34,1.94l1.441-.61h-9.199v2.075h10.734v-.961c0-1.149-.16-2.139-.48-2.971-.321-.832-.76-1.518-1.319-2.057-.558-.539-1.199-.937-1.921-1.195-.723-.258-1.487-.387-2.291-.387-1.251,0-2.337.286-3.258.856-.922.57-1.637,1.365-2.145,2.385-.508,1.019-.762,2.205-.762,3.556,0,1.367.256,2.555.768,3.563.512,1.008,1.244,1.787,2.197,2.338.953.55,2.086.826,3.399.826,1.015,0,1.916-.155,2.701-.463M218.09,70.295c-.461-.355-.811-.852-1.049-1.488-.238-.637-.357-1.377-.357-2.221,0-.852.119-1.592.357-2.221.238-.629.586-1.115,1.043-1.459.457-.343,1.018-.515,1.682-.515.687,0,1.258.179,1.711.539.453.359.797.855,1.031,1.488.234.633.352,1.355.352,2.168s-.118,1.539-.352,2.18c-.234.64-.58,1.144-1.037,1.511-.457.368-1.026.551-1.705.551-.656,0-1.215-.177-1.676-.533M223.381,72.568c.816-.527,1.459-1.295,1.928-2.302.468-1.008.703-2.231.703-3.668,0-1.461-.24-2.692-.721-3.692-.48-1-1.127-1.758-1.939-2.273-.813-.516-1.723-.774-2.731-.774-.773,0-1.408.129-1.904.387-.496.258-.889.568-1.178.932-.289.363-.512.701-.668,1.013h-.129v-6.527h-3.082v17.461h3.024v-2.074h.187c.156.32.385.658.686,1.013.3.356.699.661,1.195.915.496.253,1.115.38,1.858.38,1.031,0,1.955-.263,2.771-.791M195.552,73.125v-7.969c0-.531.108-1,.323-1.406.214-.406.505-.723.873-.949.367-.227.773-.34,1.218-.34.657,0,1.184.201,1.582.603.399.403.598.944.598,1.623v8.438h3.047v-8.18c0-.726.207-1.322.621-1.787.414-.465.992-.697,1.734-.697.625,0,1.155.189,1.588.568.434.379.651.971.651,1.776v8.32h3.093v-8.789c0-1.461-.38-2.572-1.142-3.334-.762-.762-1.744-1.143-2.947-1.143-.954,0-1.774.219-2.461.657-.688.437-1.18,1.019-1.477,1.746h-.141c-.242-.742-.667-1.328-1.277-1.758-.609-.43-1.359-.645-2.25-.645-.867,0-1.617.213-2.25.639-.633.426-1.086,1.014-1.359,1.764h-.164v-2.239h-2.942v13.102h3.082ZM187.133,72.92c.785-.309,1.43-.746,1.934-1.313.504-.566.849-1.228,1.037-1.986l-2.883-.34c-.14.375-.342.69-.603.944-.262.254-.575.443-.938.568s-.764.187-1.201.187c-.672,0-1.26-.148-1.764-.445-.504-.297-.894-.728-1.172-1.295-.277-.566-.416-1.248-.416-2.045v-1.441c0-.648.121-1.236.364-1.764.242-.527.597-.947,1.066-1.26.469-.312,1.035-.468,1.699-.468s1.219.156,1.664.468c.446.313.782.745,1.008,1.295.227.551.34,1.198.34,1.94l1.441-.61h-9.199v2.075h10.735v-.961c0-1.149-.161-2.139-.481-2.971s-.76-1.518-1.318-2.057c-.559-.539-1.2-.937-1.922-1.195-.723-.258-1.487-.387-2.291-.387-1.25,0-2.336.286-3.258.856-.922.57-1.637,1.365-2.144,2.385-.508,1.019-.762,2.205-.762,3.556,0,1.367.256,2.555.767,3.563.512,1.008,1.244,1.787,2.198,2.338.953.55,2.086.826,3.398.826,1.016,0,1.916-.155,2.701-.463M157.266,73.125h3.047v-12.023h.164l4.793,11.964h2.273l4.852-11.941h.141v12h3.105v-17.461h-3.926l-5.191,12.645h-.199l-5.18-12.645h-3.879v17.461Z"/>
    <path class="st2" d="M130,94.5c0,27.614-22.386,50-50,50s-50-22.386-50-50,22.386-50,50-50,50,22.386,50,50"/>
    <path class="st1" d="M80,50.75c-24.163,0-43.75,19.588-43.75,43.75s19.587,43.75,43.75,43.75,43.75-19.587,43.75-43.75-19.588-43.75-43.75-43.75M94.594,129.056c-4.619,1.954-9.529,2.944-14.594,2.944s-9.976-.99-14.595-2.944c-4.465-1.888-8.476-4.593-11.922-8.039-.114-.114-.226-.231-.338-.347,2.687-3.787,6.159-6.986,10.172-9.352,5.035-2.968,10.803-4.536,16.683-4.536s11.648,1.568,16.682,4.536c4.013,2.366,7.485,5.565,10.173,9.352-.113.116-.224.233-.339.347-3.446,3.446-7.457,6.151-11.922,8.039M80,100.214c-7.262,0-13.17-5.908-13.17-13.169s5.908-13.17,13.17-13.17,13.169,5.908,13.169,13.17-5.908,13.169-13.169,13.169M110.942,115.695c-3.037-3.911-6.802-7.236-11.086-9.761-2.514-1.482-5.181-2.67-7.946-3.551,4.569-3.553,7.509-9.102,7.509-15.338,0-10.725-8.694-19.42-19.419-19.42s-19.42,8.695-19.42,19.42c0,6.236,2.941,11.785,7.51,15.338-2.766.881-5.433,2.069-7.946,3.551-4.284,2.525-8.049,5.85-11.087,9.761-1.418-2.066-2.628-4.271-3.613-6.6-1.954-4.619-2.944-9.529-2.944-14.595s.99-9.975,2.944-14.594c1.888-4.465,4.593-8.476,8.039-11.922s7.457-6.151,11.922-8.039c4.619-1.954,9.529-2.945,14.595-2.945s9.975.991,14.594,2.945c4.465,1.888,8.476,4.593,11.922,8.039s6.151,7.457,8.039,11.922c1.954,4.619,2.945,9.529,2.945,14.594s-.991,9.976-2.945,14.595c-.985,2.329-2.194,4.534-3.613,6.6"/>
  </g>
</svg>