<?xml version="1.0" encoding="UTF-8"?>
<svg id="Layer_1" xmlns="http://www.w3.org/2000/svg" width="492" height="189" xmlns:xlink="http://www.w3.org/1999/xlink" version="1.1" viewBox="0 0 492 189">
  <!-- Generator: Adobe Illustrator 29.5.0, SVG Export Plug-In . SVG Version: 2.1.0 Build 137)  -->
  <defs>
    <style>
      .st0 {
        fill: none;
      }

      .st1 {
        fill: #a2ffff;
      }

      .st2 {
        clip-path: url(#clippath-1);
      }

      .st3 {
        clip-path: url(#clippath-3);
      }

      .st4 {
        clip-path: url(#clippath-4);
      }

      .st5 {
        clip-path: url(#clippath-2);
      }

      .st6 {
        clip-path: url(#clippath-5);
      }

      .st7 {
        fill: #6e0fd7;
      }

      .st8 {
        fill: #fff;
      }

      .st9 {
        fill: #320a64;
      }

      .st10 {
        fill: #e2cff7;
      }

      .st11 {
        opacity: 0;
      }

      .st12 {
        clip-path: url(#clippath);
      }
    </style>
    <clipPath id="clippath">
      <rect class="st0" width="492" height="189"/>
    </clipPath>
    <clipPath id="clippath-1">
      <rect class="st0" width="492" height="189"/>
    </clipPath>
    <clipPath id="clippath-2">
      <path class="st0" d="M30,94.5c0,27.614,22.385,50,50,50s50-22.386,50-50-22.386-50-50-50-50,22.386-50,50"/>
    </clipPath>
    <clipPath id="clippath-3">
      <rect class="st0" x="30" y="44.5" width="100" height="100"/>
    </clipPath>
    <clipPath id="clippath-4">
      <rect class="st0" x="30" y="44.5" width="100" height="100"/>
    </clipPath>
    <clipPath id="clippath-5">
      <rect class="st0" width="492" height="189"/>
    </clipPath>
  </defs>
  <g class="st12">
    <g class="st2">
      <rect class="st10" width="492" height="189" rx="12" ry="12"/>
      <path class="st7" d="M29,46c9.389,0,17-7.611,17-17s-7.611-17-17-17-17,7.611-17,17,7.611,17,17,17"/>
      <path class="st7" d="M80,144.5c27.614,0,50-22.386,50-50s-22.386-50-50-50-50,22.386-50,50,22.386,50,50,50"/>
    </g>
    <g class="st5">
      <g class="st11">
        <g class="st3">
          <g class="st4">
            <path class="st1" d="M80,44.5c-27.614,0-50,22.386-50,50s22.386,50,50,50,50-22.386,50-50-22.386-50-50-50"/>
          </g>
        </g>
      </g>
      <path class="st8" d="M80,69.987c-10.01,0-18.125,8.115-18.125,18.125,0,11.764,11.328,23.353,18.125,30.15,6.797-6.797,18.125-18.386,18.125-30.15,0-10.01-8.115-18.125-18.125-18.125M80,94.844c-3.718,0-6.732-3.014-6.732-6.732s3.014-6.732,6.732-6.732,6.732,3.014,6.732,6.732-3.014,6.732-6.732,6.732"/>
    </g>
    <path class="st8" d="M33.375,36.687v-14.551h-3.281v10.088l-.078,1.221v3.242h3.359ZM35.123,34.275v-2.764h-8.643v-.117l3.497-5.527h1.406v-3.731h-2.432l-5.967,9.395v2.744h12.139Z"/>
    <g class="st6">
      <path class="st9" d="M385.866,132.78c.363-.364.545-.807.545-1.33s-.182-.967-.545-1.33c-.363-.364-.811-.545-1.342-.545s-.978.181-1.342.545c-.363.363-.544.806-.544,1.33s.181.966.544,1.33c.364.363.811.545,1.342.545s.979-.182,1.342-.545M378.068,133.125v-7.687c0-.563.127-1.055.381-1.477.254-.422.603-.753,1.049-.996.445-.242.953-.363,1.523-.363.258,0,.528.016.809.047.281.031.488.07.621.117v-2.836c-.141-.023-.318-.043-.533-.058-.215-.016-.405-.024-.569-.024-.75,0-1.418.205-2.004.615-.585.41-.996.998-1.23,1.764h-.141v-2.203h-2.988v13.101h3.082ZM371.899,117.692c.351-.328.527-.727.527-1.195,0-.461-.176-.856-.527-1.184-.352-.328-.77-.492-1.254-.492-.492,0-.914.164-1.266.492-.351.328-.527.727-.527,1.195,0,.461.176.856.527,1.184.352.328.774.492,1.266.492.484,0,.902-.164,1.254-.492M372.18,120.024h-3.082v13.102h3.082v-13.102ZM358.645,130.688c-.414-.289-.621-.719-.621-1.289,0-.399.106-.723.317-.973s.498-.447.861-.592c.363-.144.775-.248,1.236-.31.203-.024.444-.055.721-.094.277-.039.561-.086.85-.14.289-.055.546-.116.773-.182.227-.066.391-.139.492-.217v1.535c0,.485-.125.932-.375,1.342s-.601.738-1.054.984c-.454.246-.993.37-1.618.37-.64,0-1.168-.145-1.582-.434M361.229,133.102c.504-.195.926-.451,1.266-.768.34-.316.604-.654.791-1.013h.094v1.804h2.965v-8.765c0-.867-.157-1.59-.469-2.168-.313-.578-.731-1.039-1.254-1.383-.524-.344-1.098-.588-1.723-.732-.625-.145-1.25-.217-1.875-.217-.914,0-1.748.135-2.502.404-.754.27-1.392.672-1.916,1.207-.523.535-.898,1.201-1.125,1.998l2.871.41c.157-.445.455-.832.897-1.16.441-.328,1.041-.492,1.799-.492.718,0,1.265.176,1.64.527.375.352.563.844.563,1.477v.058c0,.297-.108.516-.322.657-.215.14-.561.242-1.037.304-.477.063-1.102.137-1.875.223-.633.063-1.247.17-1.84.322-.594.153-1.127.374-1.6.662-.473.29-.846.676-1.119,1.161-.274.484-.41,1.093-.41,1.828,0,.859.191,1.582.574,2.168.383.586.906,1.029,1.57,1.33.664.3,1.414.451,2.25.451.688,0,1.284-.098,1.787-.293M351.233,133.125v-14.109c0-.516.123-.914.369-1.195.246-.282.654-.422,1.225-.422.25,0,.472.021.668.064.195.043.355.088.48.135l.633-2.391c-.196-.07-.502-.148-.92-.234-.418-.086-.897-.129-1.436-.129-.75,0-1.435.145-2.056.434-.621.289-1.116.726-1.483,1.312-.367.586-.55,1.321-.55,2.203v14.332h3.07ZM346.241,122.414h7.723v-2.391h-7.723v2.391ZM336.509,132.92c.785-.308,1.43-.746,1.934-1.312.504-.566.849-1.229,1.037-1.986l-2.883-.34c-.141.375-.342.689-.603.943-.262.254-.575.444-.938.568-.363.125-.764.188-1.201.188-.672,0-1.26-.148-1.764-.445-.504-.297-.894-.729-1.172-1.295-.277-.567-.416-1.248-.416-2.045v-1.442c0-.648.121-1.236.364-1.763.242-.528.597-.948,1.066-1.26.469-.312,1.035-.469,1.699-.469s1.219.157,1.664.469c.446.312.781.744,1.008,1.295.227.551.34,1.197.34,1.939l1.441-.609h-9.199v2.074h10.735v-.961c0-1.148-.161-2.138-.481-2.971-.32-.832-.76-1.517-1.318-2.056-.559-.539-1.2-.938-1.922-1.195-.723-.258-1.487-.387-2.291-.387-1.25,0-2.336.285-3.258.855-.922.571-1.637,1.366-2.145,2.385-.507,1.02-.761,2.205-.761,3.557,0,1.367.256,2.554.767,3.562.512,1.008,1.244,1.787,2.198,2.338.953.551,2.086.826,3.398.826,1.016,0,1.916-.154,2.701-.463M317.181,123.838c.242-.441.576-.779,1.002-1.013.426-.235.912-.352,1.459-.352.812,0,1.445.244,1.898.733.453.488.68,1.177.68,2.068v7.851h3.094v-8.332c0-1.054-.188-1.949-.563-2.683-.375-.734-.9-1.293-1.576-1.676-.676-.383-1.467-.574-2.373-.574-1.008,0-1.832.215-2.473.644-.64.43-1.113,1.016-1.418,1.758h-.164v-6.597h-3.011v17.46h3.082v-7.664c0-.64.121-1.181.363-1.623M306.069,129.692c0,1.117.348,1.998,1.043,2.642.696.645,1.653.967,2.871.967.336,0,.672-.025,1.008-.076.336-.051.668-.127.996-.228l-.527-2.415c-.133.032-.281.059-.445.082-.164.024-.313.036-.446.036-.492,0-.851-.123-1.078-.369-.226-.247-.34-.627-.34-1.143v-12.281h-3.082v12.785ZM304.23,122.414h7.512v-2.391h-7.512v2.391ZM293.648,133.125v-7.687c0-.563.127-1.055.381-1.477s.604-.753,1.049-.996c.445-.242.953-.363,1.524-.363.257,0,.527.016.808.047.281.031.488.07.621.117v-2.836c-.14-.023-.318-.043-.533-.058-.215-.016-.404-.024-.568-.024-.75,0-1.418.205-2.004.615s-.996.998-1.231,1.764h-.14v-2.203h-2.989v13.101h3.082ZM280.341,130.331c-.469-.379-.819-.893-1.049-1.541-.231-.649-.346-1.368-.346-2.157,0-.804.115-1.531.346-2.179.23-.649.58-1.162,1.049-1.541.468-.379,1.05-.569,1.746-.569.711,0,1.296.19,1.758.569.46.379.806.892,1.037,1.541.23.648.345,1.375.345,2.179,0,.789-.115,1.508-.345,2.157-.231.648-.577,1.162-1.037,1.541-.462.379-1.047.568-1.758.568-.696,0-1.278-.189-1.746-.568M285.415,132.54c.937-.563,1.664-1.352,2.18-2.368.515-1.015.773-2.195.773-3.539,0-1.351-.258-2.537-.773-3.556-.516-1.02-1.243-1.811-2.18-2.373-.938-.563-2.047-.844-3.328-.844s-2.391.281-3.328.844c-.938.562-1.663,1.353-2.174,2.373-.512,1.019-.768,2.205-.768,3.556,0,1.344.256,2.524.768,3.539.511,1.016,1.236,1.805,2.174,2.368.937.562,2.046.843,3.328.843s2.39-.281,3.328-.843M272.092,133.125v-14.109c0-.516.124-.914.37-1.195.246-.282.654-.422,1.224-.422.25,0,.473.021.668.064.195.043.356.088.481.135l.632-2.391c-.195-.07-.502-.148-.919-.234-.418-.086-.897-.129-1.436-.129-.75,0-1.436.145-2.057.434s-1.115.726-1.482,1.312-.551,1.321-.551,2.203v14.332h3.07ZM267.1,122.414h7.723v-2.391h-7.723v2.391ZM253.226,137.631c.586-.262,1.078-.64,1.477-1.136.398-.497.718-1.092.961-1.788l5.25-14.683h-3.293l-3.024,9.902h-.14l-3.012-9.902h-3.27l4.735,13.383-.258.703c-.266.711-.619,1.137-1.061,1.277-.441.141-.974.129-1.599-.035l-.152-.047-.727,2.402c.219.086.506.163.861.229.356.066.744.096,1.166.088.805,0,1.5-.131,2.086-.393M238.777,130.278c-.457-.367-.803-.871-1.037-1.512-.235-.64-.352-1.367-.352-2.18s.115-1.535.346-2.168c.23-.632.576-1.128,1.037-1.488.461-.359,1.031-.539,1.711-.539.664,0,1.225.172,1.682.516s.804.83,1.043,1.459c.238.629.357,1.369.357,2.22,0,.844-.121,1.584-.363,2.221-.243.637-.592,1.133-1.049,1.488-.457.356-1.014.534-1.67.534-.68,0-1.248-.184-1.705-.551M241.501,132.979c.493-.254.887-.559,1.184-.914.297-.356.527-.693.691-1.014h.188v2.074h3.012v-17.46h-3.071v6.527h-.129c-.156-.313-.38-.651-.673-1.014-.293-.363-.686-.674-1.178-.931-.492-.258-1.125-.387-1.899-.387-1.007,0-1.918.258-2.73.773-.813.516-1.459,1.274-1.939,2.274-.481,1-.721,2.23-.721,3.691,0,1.438.234,2.66.703,3.668.469,1.008,1.111,1.775,1.928,2.303.816.527,1.736.791,2.759.791.758,0,1.383-.127,1.875-.381M224.353,130.688c-.414-.289-.621-.719-.621-1.289,0-.399.106-.723.316-.973.211-.25.499-.447.862-.592.363-.144.775-.248,1.236-.31.203-.024.443-.055.721-.094.277-.039.56-.086.849-.14.289-.055.547-.116.774-.182.226-.066.39-.139.492-.217v1.535c0,.485-.125.932-.375,1.342s-.602.738-1.055.984c-.453.246-.992.37-1.617.37-.641,0-1.168-.145-1.582-.434M226.937,133.102c.504-.195.926-.451,1.266-.768.34-.316.603-.654.791-1.013h.094v1.804h2.964v-8.765c0-.867-.156-1.59-.468-2.168-.313-.578-.731-1.039-1.254-1.383-.524-.344-1.098-.588-1.723-.732-.625-.145-1.25-.217-1.875-.217-.914,0-1.748.135-2.502.404-.754.27-1.393.672-1.916,1.207-.523.535-.898,1.201-1.125,1.998l2.871.41c.156-.445.455-.832.897-1.16.441-.328,1.041-.492,1.798-.492.719,0,1.266.176,1.641.527.375.352.563.844.563,1.477v.058c0,.297-.108.516-.323.657-.215.14-.56.242-1.037.304-.476.063-1.101.137-1.875.223-.633.063-1.246.17-1.84.322-.593.153-1.127.374-1.599.662-.473.29-.846.676-1.119,1.161-.274.484-.411,1.093-.411,1.828,0,.859.192,1.582.575,2.168.382.586.906,1.029,1.57,1.33.664.3,1.414.451,2.25.451.687,0,1.283-.098,1.787-.293M216.21,132.92c.785-.308,1.43-.746,1.934-1.312.503-.566.849-1.229,1.037-1.986l-2.883-.34c-.141.375-.342.689-.604.943-.261.254-.574.444-.937.568-.363.125-.764.188-1.201.188-.672,0-1.26-.148-1.764-.445-.504-.297-.895-.729-1.172-1.295-.277-.567-.416-1.248-.416-2.045v-1.442c0-.648.121-1.236.363-1.763.242-.528.598-.948,1.067-1.26.469-.312,1.035-.469,1.699-.469s1.219.157,1.664.469c.445.312.781.744,1.008,1.295.226.551.34,1.197.34,1.939l1.441-.609h-9.199v2.074h10.734v-.961c0-1.148-.16-2.138-.48-2.971-.321-.832-.76-1.517-1.319-2.056-.558-.539-1.199-.938-1.921-1.195-.723-.258-1.487-.387-2.291-.387-1.25,0-2.336.285-3.258.855-.922.571-1.637,1.366-2.145,2.385-.508,1.02-.761,2.205-.761,3.557,0,1.367.255,2.554.767,3.562.512,1.008,1.244,1.787,2.197,2.338.953.551,2.086.826,3.399.826,1.015,0,1.916-.154,2.701-.463M201.887,133.125v-7.687c0-.563.127-1.055.381-1.477.253-.422.603-.753,1.048-.996.446-.242.953-.363,1.524-.363.258,0,.527.016.808.047.282.031.489.07.621.117v-2.836c-.14-.023-.318-.043-.533-.058-.215-.016-.404-.024-.568-.024-.75,0-1.418.205-2.004.615-.586.41-.996.998-1.23,1.764h-.141v-2.203h-2.988v13.101h3.082ZM188.007,132.92c.785-.308,1.429-.746,1.933-1.312.504-.566.85-1.229,1.037-1.986l-2.882-.34c-.141.375-.342.689-.604.943-.262.254-.574.444-.937.568-.364.125-.764.188-1.202.188-.672,0-1.259-.148-1.763-.445-.504-.297-.895-.729-1.172-1.295-.278-.567-.416-1.248-.416-2.045v-1.442c0-.648.121-1.236.363-1.763.242-.528.598-.948,1.067-1.26.468-.312,1.035-.469,1.699-.469s1.219.157,1.664.469c.445.312.781.744,1.008,1.295.226.551.34,1.197.34,1.939l1.441-.609h-9.199v2.074h10.734v-.961c0-1.148-.16-2.138-.48-2.971-.321-.832-.76-1.517-1.319-2.056-.558-.539-1.199-.938-1.922-1.195-.722-.258-1.486-.387-2.291-.387-1.25,0-2.336.285-3.257.855-.922.571-1.637,1.366-2.145,2.385-.508,1.02-.762,2.205-.762,3.557,0,1.367.256,2.554.768,3.562.511,1.008,1.244,1.787,2.197,2.338.953.551,2.086.826,3.399.826,1.015,0,1.916-.154,2.701-.463M173.683,133.125v-7.687c0-.563.127-1.055.381-1.477s.604-.753,1.049-.996c.445-.242.953-.363,1.524-.363.257,0,.527.016.808.047.281.031.488.07.621.117v-2.836c-.14-.023-.318-.043-.533-.058-.215-.016-.404-.024-.568-.024-.75,0-1.418.205-2.004.615-.586.41-.996.998-1.231,1.764h-.14v-2.203h-2.989v13.101h3.082ZM160.113,130.688c-.414-.289-.621-.719-.621-1.289,0-.399.105-.723.316-.973.211-.25.498-.447.862-.592.363-.144.775-.248,1.236-.31.203-.024.443-.055.721-.094.277-.039.56-.086.849-.14.289-.055.547-.116.774-.182.226-.066.39-.139.492-.217v1.535c0,.485-.125.932-.375,1.342s-.602.738-1.055.984c-.453.246-.992.37-1.617.37-.641,0-1.168-.145-1.582-.434M162.697,133.102c.504-.195.926-.451,1.266-.768.339-.316.603-.654.791-1.013h.093v1.804h2.965v-8.765c0-.867-.156-1.59-.469-2.168-.312-.578-.73-1.039-1.253-1.383-.524-.344-1.098-.588-1.723-.732-.625-.145-1.25-.217-1.875-.217-.914,0-1.748.135-2.502.404-.754.27-1.393.672-1.916,1.207-.524.535-.899,1.201-1.125,1.998l2.871.41c.156-.445.455-.832.897-1.16.441-.328,1.04-.492,1.798-.492.719,0,1.266.176,1.641.527.375.352.562.844.562,1.477v.058c0,.297-.107.516-.322.657-.215.14-.56.242-1.037.304-.477.063-1.101.137-1.875.223-.633.063-1.246.17-1.84.322-.594.153-1.127.374-1.599.662-.473.29-.846.676-1.119,1.161-.274.484-.411,1.093-.411,1.828,0,.859.192,1.582.575,2.168.382.586.906,1.029,1.57,1.33.664.3,1.414.451,2.25.451.687,0,1.283-.098,1.787-.293"/>
      <path class="st9" d="M448.669,90.85c-.879-.66-2.088-.991-3.627-.991-1.047,0-1.969.164-2.766.493-.796.328-1.418.789-1.863,1.382-.445.594-.668,1.297-.668,2.11,0,.953.301,1.736.903,2.349.601.614,1.531,1.057,2.789,1.33l2.238.469c1.172.266,1.758.766,1.758,1.5,0,.438-.223.807-.668,1.108-.446.3-1.036.451-1.77.451-.703,0-1.279-.151-1.728-.451-.45-.301-.741-.745-.873-1.33l-3.012.281c.195,1.203.779,2.142,1.752,2.818.973.676,2.26,1.014,3.861,1.014,1.094,0,2.061-.176,2.901-.528.839-.351,1.498-.843,1.974-1.476.477-.633.715-1.359.715-2.18,0-.929-.305-1.687-.914-2.273-.609-.586-1.527-1.008-2.754-1.266l-2.238-.469c-.664-.148-1.139-.345-1.424-.591-.285-.246-.428-.561-.428-.944,0-.437.217-.797.651-1.078.433-.281.97-.422,1.611-.422.711,0,1.262.166,1.652.498.391.332.645.713.762,1.143l2.801-.293c-.211-1.109-.756-1.994-1.635-2.654M433.964,103.125v-7.687c0-.563.127-1.055.381-1.477.254-.422.603-.754,1.049-.996.445-.242.953-.363,1.523-.363.258,0,.528.015.809.046.281.032.488.071.621.118v-2.836c-.141-.024-.319-.043-.533-.059-.215-.015-.405-.023-.569-.023-.75,0-1.418.205-2.004.615-.586.41-.996.998-1.23,1.764h-.141v-2.204h-2.988v13.102h3.082ZM425.545,102.92c.785-.309,1.43-.746,1.934-1.313.504-.566.849-1.228,1.037-1.986l-2.883-.34c-.141.375-.342.69-.604.944-.261.254-.574.443-.937.568-.363.125-.764.187-1.201.187-.672,0-1.26-.148-1.764-.445-.504-.297-.895-.728-1.172-1.295-.277-.566-.416-1.248-.416-2.045v-1.441c0-.648.121-1.236.363-1.764.243-.527.598-.947,1.067-1.26.469-.312,1.035-.468,1.699-.468s1.219.156,1.664.468c.445.313.781.745,1.008,1.295.226.551.34,1.198.34,1.94l1.441-.61h-9.199v2.075h10.734v-.961c0-1.149-.16-2.139-.48-2.971-.321-.832-.76-1.518-1.318-2.057-.559-.539-1.2-.937-1.922-1.195-.723-.258-1.487-.387-2.291-.387-1.25,0-2.336.286-3.258.856-.922.57-1.637,1.365-2.145,2.385-.508,1.019-.761,2.205-.761,3.556,0,1.367.255,2.555.767,3.563.512,1.008,1.244,1.787,2.197,2.338.954.55,2.086.826,3.399.826,1.015,0,1.916-.155,2.701-.463M406.947,100.295c-.461-.355-.811-.852-1.049-1.488-.238-.637-.357-1.377-.357-2.221,0-.852.119-1.592.357-2.221.238-.629.586-1.115,1.043-1.459.457-.343,1.018-.515,1.682-.515.687,0,1.258.179,1.711.539.453.359.797.855,1.031,1.488.234.633.352,1.355.352,2.168s-.118,1.539-.352,2.18c-.234.64-.58,1.144-1.037,1.511-.457.368-1.025.551-1.705.551-.656,0-1.215-.177-1.676-.533M412.238,102.568c.816-.527,1.459-1.295,1.928-2.302.469-1.008.703-2.231.703-3.668,0-1.461-.24-2.692-.721-3.692-.48-1-1.127-1.758-1.939-2.273-.813-.516-1.723-.774-2.731-.774-.773,0-1.408.129-1.904.387-.496.258-.889.568-1.178.932-.289.363-.511.701-.668,1.013h-.129v-6.527h-3.082v17.461h3.024v-2.074h.187c.157.32.385.658.686,1.013.301.356.699.661,1.195.915.496.253,1.115.38,1.858.38,1.031,0,1.955-.263,2.771-.791M384.409,103.125v-7.969c0-.531.108-1,.323-1.406.214-.406.505-.723.873-.949.367-.227.773-.34,1.218-.34.657,0,1.184.201,1.583.603.398.403.597.944.597,1.623v8.438h3.047v-8.18c0-.726.207-1.322.621-1.787.414-.465.992-.697,1.735-.697.624,0,1.154.189,1.587.568.434.379.651.971.651,1.776v8.32h3.094v-8.789c0-1.461-.381-2.572-1.143-3.334s-1.744-1.143-2.947-1.143c-.954,0-1.774.219-2.461.657-.688.437-1.18,1.019-1.477,1.746h-.14c-.243-.742-.668-1.328-1.278-1.758-.609-.43-1.359-.645-2.25-.645-.867,0-1.617.213-2.25.639-.633.426-1.086,1.014-1.359,1.764h-.164v-2.239h-2.942v13.102h3.082ZM375.99,102.92c.786-.309,1.43-.746,1.934-1.313.504-.566.85-1.228,1.037-1.986l-2.883-.34c-.14.375-.342.69-.603.944-.262.254-.574.443-.938.568-.363.125-.763.187-1.201.187-.672,0-1.26-.148-1.764-.445-.503-.297-.894-.728-1.171-1.295-.278-.566-.416-1.248-.416-2.045v-1.441c0-.648.121-1.236.363-1.764.242-.527.598-.947,1.066-1.26.469-.312,1.035-.468,1.699-.468s1.219.156,1.665.468c.445.313.781.745,1.007,1.295.227.551.34,1.198.34,1.94l1.442-.61h-9.2v2.075h10.735v-.961c0-1.149-.16-2.139-.481-2.971-.32-.832-.76-1.518-1.318-2.057-.559-.539-1.199-.937-1.922-1.195-.723-.258-1.486-.387-2.291-.387-1.25,0-2.336.286-3.258.856-.922.57-1.637,1.365-2.144,2.385-.508,1.019-.762,2.205-.762,3.556,0,1.367.256,2.555.768,3.563.511,1.008,1.244,1.787,2.197,2.338.953.55,2.086.826,3.398.826,1.016,0,1.916-.155,2.701-.463M349.465,103.125v-7.969c0-.531.107-1,.322-1.406.215-.406.506-.723.873-.949.367-.227.773-.34,1.219-.34.656,0,1.183.201,1.582.603.398.403.597.944.597,1.623v8.438h3.047v-8.18c0-.726.207-1.322.621-1.787.414-.465.992-.697,1.735-.697.625,0,1.154.189,1.587.568.434.379.651.971.651,1.776v8.32h3.094v-8.789c0-1.461-.381-2.572-1.143-3.334-.762-.762-1.744-1.143-2.947-1.143-.953,0-1.774.219-2.461.657-.688.437-1.18,1.019-1.477,1.746h-.14c-.243-.742-.668-1.328-1.278-1.758-.609-.43-1.359-.645-2.25-.645-.867,0-1.617.213-2.25.639-.632.426-1.086,1.014-1.359,1.764h-.164v-2.239h-2.942v13.102h3.083ZM332.977,102.99c.82-.261,1.543-.674,2.168-1.236.133-.094.262-.188.387-.281.125-.094.258-.192.398-.293.422-.336.828-.783,1.219-1.342.391-.559.707-1.246.949-2.063.242-.816.364-1.775.364-2.877h-2.661c0,.891-.148,1.702-.445,2.432-.297.731-.693,1.358-1.189,1.881-.497.523-1.047.928-1.653,1.213-.605.285-1.224.428-1.857.428-.563,0-1.055-.114-1.477-.34-.422-.227-.75-.528-.984-.903-.234-.375-.352-.792-.352-1.254,0-.304.123-.669.37-1.095.246-.426.658-.854,1.236-1.283l3.539-2.579c.726-.531,1.295-1.121,1.705-1.769.41-.648.615-1.383.615-2.203,0-.719-.178-1.377-.533-1.975-.356-.597-.865-1.078-1.529-1.441-.664-.364-1.457-.545-2.379-.545-.914,0-1.713.186-2.397.556-.683.372-1.217.881-1.599,1.53-.383.648-.575,1.387-.575,2.215,0,.726.151,1.4.452,2.021.3.621.683,1.221,1.148,1.799.465.578.951,1.164,1.459,1.758l6.797,7.781h3.352l-8.192-9.586c-.391-.476-.76-.926-1.107-1.348-.348-.421-.627-.83-.838-1.224-.211-.395-.317-.78-.317-1.155,0-.32.078-.619.235-.896.156-.277.375-.502.656-.674.281-.172.605-.258.973-.258.554,0,.988.168,1.3.504.313.336.469.692.469,1.067,0,.445-.119.828-.357,1.148-.239.321-.58.637-1.026.949l-3.105,2.11c-.649.468-1.229.931-1.74,1.388-.512.457-.914.954-1.207,1.489-.293.535-.44,1.15-.44,1.845,0,.93.231,1.764.692,2.502.46.739,1.123,1.323,1.986,1.752.863.43,1.888.645,3.076.645.789,0,1.594-.131,2.414-.393M313.806,103.125v-7.687c0-.563.127-1.055.381-1.477.254-.422.604-.754,1.049-.996.445-.242.953-.363,1.523-.363.258,0,.528.015.809.046.281.032.488.071.621.118v-2.836c-.141-.024-.318-.043-.533-.059-.215-.015-.404-.023-.569-.023-.75,0-1.417.205-2.003.615-.586.41-.997.998-1.231,1.764h-.141v-2.204h-2.988v13.102h3.082ZM300.498,100.33c-.468-.379-.818-.892-1.048-1.541-.231-.648-.346-1.367-.346-2.156,0-.805.115-1.531.346-2.18.23-.648.58-1.162,1.048-1.541.469-.379,1.051-.568,1.747-.568.71,0,1.296.189,1.757.568.461.379.807.893,1.037,1.541.231.649.346,1.375.346,2.18,0,.789-.115,1.508-.346,2.156-.23.649-.576,1.162-1.037,1.541-.461.379-1.047.568-1.757.568-.696,0-1.278-.189-1.747-.568M305.573,102.539c.937-.562,1.664-1.351,2.179-2.367.516-1.016.774-2.195.774-3.539,0-1.352-.258-2.537-.774-3.557-.515-1.019-1.242-1.81-2.179-2.373-.938-.562-2.047-.844-3.328-.844s-2.391.282-3.329.844c-.937.563-1.662,1.354-2.173,2.373-.512,1.02-.768,2.205-.768,3.557,0,1.344.256,2.523.768,3.539.511,1.016,1.236,1.805,2.173,2.367.938.563,2.047.844,3.329.844s2.39-.281,3.328-.844M289.224,99.691c0,1.118.348,1.998,1.043,2.643.695.645,1.652.967,2.871.967.336,0,.672-.026,1.008-.076.336-.051.668-.127.996-.229l-.527-2.414c-.133.031-.282.059-.446.082-.164.023-.312.035-.445.035-.492,0-.852-.123-1.078-.369-.227-.246-.34-.627-.34-1.143v-12.281h-3.082v12.785ZM287.384,92.414h7.512v-2.391h-7.512v2.391ZM285.487,87.691c.352-.328.528-.726.528-1.195,0-.461-.176-.855-.528-1.183-.351-.329-.769-.493-1.253-.493-.493,0-.915.164-1.266.493-.352.328-.527.726-.527,1.195,0,.461.175.855.527,1.183.351.329.773.493,1.266.493.484,0,.902-.164,1.253-.493M285.769,90.023h-3.082v13.102h3.082v-13.102ZM272.555,100.295c-.461-.355-.811-.852-1.049-1.488-.239-.637-.358-1.377-.358-2.221,0-.852.119-1.592.358-2.221.238-.629.586-1.115,1.043-1.459.457-.343,1.017-.515,1.681-.515.688,0,1.258.179,1.711.539.453.359.797.855,1.032,1.488.234.633.351,1.355.351,2.168s-.117,1.539-.351,2.18c-.235.64-.58,1.144-1.037,1.511-.458.368-1.026.551-1.706.551-.656,0-1.214-.177-1.675-.533M277.846,102.568c.816-.527,1.459-1.295,1.927-2.302.469-1.008.704-2.231.704-3.668,0-1.461-.241-2.692-.721-3.692-.481-1-1.127-1.758-1.94-2.273-.812-.516-1.722-.774-2.73-.774-.774,0-1.408.129-1.904.387-.497.258-.889.568-1.178.932-.289.363-.512.701-.668,1.013h-.129v-6.527h-3.082v17.461h3.023v-2.074h.188c.156.32.385.658.685,1.013.301.356.7.661,1.196.915.496.253,1.115.38,1.857.38,1.031,0,1.955-.263,2.772-.791M265.037,87.691c.352-.328.528-.726.528-1.195,0-.461-.176-.855-.528-1.183-.351-.329-.769-.493-1.253-.493-.493,0-.914.164-1.266.493-.352.328-.527.726-.527,1.195,0,.461.175.855.527,1.183.352.329.773.493,1.266.493.484,0,.902-.164,1.253-.493M265.319,90.023h-3.082v13.102h3.082v-13.102ZM251.365,93.838c.242-.441.576-.779,1.002-1.014.426-.234.912-.351,1.459-.351.812,0,1.445.244,1.898.732.453.488.68,1.178.68,2.068v7.852h3.094v-8.332c0-1.055-.188-1.949-.563-2.684-.375-.734-.9-1.293-1.576-1.675-.676-.383-1.467-.575-2.373-.575-1.008,0-1.832.215-2.473.645-.64.43-1.113,1.016-1.418,1.758h-.164v-6.598h-3.011v17.461h3.082v-7.664c0-.641.121-1.182.363-1.623M234.306,90.023l3.879,6.563-3.973,6.539h3.27l2.73-4.711,2.777,4.711h3.246l-4.007-6.539,3.937-6.563h-3.269l-2.684,4.852-2.637-4.852h-3.269ZM230.348,102.92c.785-.309,1.429-.746,1.933-1.313.504-.566.85-1.228,1.037-1.986l-2.883-.34c-.14.375-.341.69-.603.944-.262.254-.574.443-.938.568-.363.125-.763.187-1.201.187-.672,0-1.259-.148-1.763-.445-.504-.297-.895-.728-1.172-1.295-.278-.566-.416-1.248-.416-2.045v-1.441c0-.648.121-1.236.363-1.764.242-.527.598-.947,1.066-1.26.469-.312,1.035-.468,1.7-.468s1.218.156,1.664.468c.445.313.781.745,1.007,1.295.227.551.34,1.198.34,1.94l1.442-.61h-9.199v2.075h10.734v-.961c0-1.149-.16-2.139-.481-2.971-.32-.832-.759-1.518-1.318-2.057-.559-.539-1.199-.937-1.922-1.195-.723-.258-1.486-.387-2.291-.387-1.25,0-2.336.286-3.258.856-.922.57-1.636,1.365-2.144,2.385-.508,1.019-.762,2.205-.762,3.556,0,1.367.256,2.555.768,3.563.511,1.008,1.244,1.787,2.197,2.338.953.55,2.086.826,3.398.826,1.016,0,1.916-.155,2.702-.463M205.739,100.277c-.457-.367-.803-.871-1.037-1.511-.234-.641-.352-1.367-.352-2.18s.116-1.535.346-2.168c.231-.633.576-1.129,1.037-1.488.461-.36,1.032-.539,1.711-.539.664,0,1.225.172,1.682.515.457.344.804.83,1.043,1.459.238.629.357,1.369.357,2.221,0,.844-.121,1.584-.363,2.221-.242.636-.592,1.133-1.049,1.488-.457.356-1.014.533-1.67.533-.679,0-1.248-.183-1.705-.551M208.464,102.979c.492-.254.886-.559,1.183-.915.297-.355.528-.693.692-1.013h.187v2.074h3.012v-17.461h-3.07v6.527h-.129c-.157-.312-.381-.65-.674-1.013-.293-.364-.686-.674-1.178-.932-.492-.258-1.125-.387-1.898-.387-1.008,0-1.918.258-2.731.774-.812.515-1.459,1.273-1.939,2.273-.481,1-.721,2.231-.721,3.692,0,1.437.235,2.66.703,3.668.469,1.007,1.112,1.775,1.928,2.302.816.528,1.736.791,2.76.791.757,0,1.383-.127,1.875-.38M191.315,100.687c-.414-.288-.621-.718-.621-1.289,0-.398.106-.722.317-.972.211-.25.498-.447.861-.592.363-.144.775-.248,1.236-.311.203-.023.444-.054.721-.093.277-.039.561-.086.85-.141.289-.055.546-.115.773-.182.227-.066.391-.138.492-.216v1.535c0,.484-.125.931-.375,1.342-.25.41-.601.738-1.054.984-.454.246-.993.369-1.618.369-.64,0-1.168-.144-1.582-.434M193.899,103.102c.504-.196.926-.452,1.266-.768s.604-.654.791-1.014h.094v1.805h2.965v-8.766c0-.867-.157-1.589-.469-2.168-.313-.578-.731-1.039-1.254-1.382-.523-.344-1.098-.588-1.723-.733-.625-.144-1.25-.217-1.875-.217-.914,0-1.748.135-2.502.405-.754.269-1.392.672-1.916,1.207-.523.535-.898,1.201-1.125,1.998l2.871.41c.157-.445.456-.832.897-1.16.441-.328,1.041-.492,1.799-.492.718,0,1.265.175,1.64.527.375.351.563.844.563,1.476v.059c0,.297-.108.516-.322.656-.215.141-.561.243-1.037.305-.477.063-1.102.137-1.875.223-.633.062-1.247.17-1.84.322-.594.152-1.127.373-1.6.662-.473.289-.846.676-1.119,1.16-.274.485-.41,1.094-.41,1.828,0,.86.191,1.582.574,2.168s.906,1.03,1.57,1.33c.664.301,1.414.452,2.25.452.688,0,1.284-.098,1.787-.293M183.172,102.92c.785-.309,1.43-.746,1.934-1.313.504-.566.849-1.228,1.037-1.986l-2.883-.34c-.14.375-.342.69-.603.944-.262.254-.575.443-.938.568-.363.125-.764.187-1.201.187-.672,0-1.26-.148-1.764-.445-.504-.297-.894-.728-1.172-1.295-.277-.566-.416-1.248-.416-2.045v-1.441c0-.648.121-1.236.364-1.764.242-.527.597-.947,1.066-1.26.469-.312,1.035-.468,1.699-.468s1.219.156,1.664.468c.446.313.782.745,1.008,1.295.227.551.34,1.198.34,1.94l1.441-.61h-9.199v2.075h10.735v-.961c0-1.149-.161-2.139-.481-2.971s-.76-1.518-1.318-2.057c-.559-.539-1.2-.937-1.922-1.195-.723-.258-1.487-.387-2.291-.387-1.25,0-2.336.286-3.258.856-.922.57-1.637,1.365-2.144,2.385-.508,1.019-.762,2.205-.762,3.556,0,1.367.256,2.555.767,3.563.512,1.008,1.244,1.787,2.198,2.338.953.55,2.086.826,3.398.826,1.016,0,1.916-.155,2.701-.463M160.43,103.125v-7.406h8.086v7.406h3.164v-17.461h-3.164v7.395h-8.086v-7.395h-3.164v17.461h3.164Z"/>
      <path class="st9" d="M431.012,77.613l2.05-7.078h-3.164l-1.031,7.078h2.145ZM418.655,70.277c-.457-.367-.803-.871-1.037-1.511-.235-.641-.352-1.367-.352-2.18s.115-1.535.346-2.168c.23-.633.576-1.129,1.037-1.488.461-.36,1.031-.539,1.711-.539.664,0,1.224.172,1.681.515.457.344.805.83,1.043,1.459.239.629.358,1.369.358,2.221,0,.844-.121,1.584-.363,2.221-.243.636-.592,1.133-1.049,1.488-.457.356-1.014.533-1.67.533-.68,0-1.248-.183-1.705-.551M421.379,72.979c.493-.254.887-.559,1.184-.915.297-.355.527-.693.691-1.013h.188v2.074h3.012v-17.461h-3.071v6.527h-.129c-.156-.312-.381-.65-.673-1.013-.293-.364-.686-.674-1.178-.932s-1.125-.387-1.899-.387c-1.007,0-1.918.258-2.73.774-.813.515-1.459,1.273-1.94,2.273-.48,1-.72,2.231-.72,3.692,0,1.437.234,2.66.703,3.668.469,1.007,1.111,1.775,1.928,2.302.816.528,1.736.791,2.759.791.758,0,1.383-.127,1.875-.38M409.361,72.92c.785-.309,1.43-.746,1.933-1.313.504-.566.85-1.228,1.038-1.986l-2.883-.34c-.141.375-.342.69-.604.944-.262.254-.574.443-.937.568-.364.125-.764.187-1.201.187-.672,0-1.26-.148-1.764-.445-.504-.297-.895-.728-1.172-1.295-.277-.566-.416-1.248-.416-2.045v-1.441c0-.648.121-1.236.363-1.764.242-.527.598-.947,1.067-1.26.468-.312,1.035-.468,1.699-.468s1.219.156,1.664.468c.445.313.781.745,1.008,1.295.226.551.34,1.198.34,1.94l1.441-.61h-9.199v2.075h10.734v-.961c0-1.149-.16-2.139-.48-2.971-.321-.832-.76-1.518-1.319-2.057-.558-.539-1.199-.937-1.922-1.195-.722-.258-1.486-.387-2.291-.387-1.25,0-2.336.286-3.257.856-.922.57-1.637,1.365-2.145,2.385-.508,1.019-.762,2.205-.762,3.556,0,1.367.256,2.555.768,3.563.512,1.008,1.244,1.787,2.197,2.338.953.55,2.086.826,3.399.826,1.015,0,1.916-.155,2.701-.463M390.104,63.838c.238-.441.566-.779.984-1.014.418-.234.897-.351,1.436-.351.797,0,1.422.248,1.875.744.453.496.68,1.182.68,2.056v7.852h3.082v-8.332c0-1.047-.186-1.939-.557-2.678-.371-.738-.893-1.299-1.564-1.681-.672-.383-1.461-.575-2.368-.575-.984,0-1.795.217-2.431.651-.637.433-1.104,1.017-1.401,1.752h-.152v-2.239h-3.023v13.102h3.082v-7.664c0-.641.119-1.182.357-1.623M376.046,70.014c-.465-.332-.815-.799-1.049-1.401-.235-.601-.352-1.3-.352-2.097,0-.789.115-1.495.346-2.116.23-.621.576-1.111,1.037-1.47.461-.36,1.035-.539,1.723-.539.664,0,1.226.172,1.687.515.461.344.809.825,1.043,1.442.235.617.352,1.34.352,2.168,0,1.25-.268,2.228-.803,2.935-.535.707-1.295,1.061-2.279,1.061-.672,0-1.241-.166-1.705-.498M380.885,77.76c.926-.364,1.655-.912,2.186-1.647.531-.734.797-1.66.797-2.777v-13.313h-3.012v2.168h-.164c-.164-.312-.394-.65-.691-1.013-.297-.364-.696-.674-1.196-.932s-1.132-.387-1.898-.387c-1.008,0-1.922.258-2.742.774-.821.515-1.471,1.269-1.951,2.262-.481.992-.721,2.207-.721,3.644,0,1.422.24,2.606.721,3.551.48.945,1.128,1.656,1.945,2.133.816.476,1.724.715,2.725.715.757,0,1.384-.116,1.88-.346.496-.231.897-.512,1.202-.844.304-.332.531-.654.679-.967h.176v2.473c0,.961-.287,1.654-.861,2.08-.575.426-1.299.639-2.174.639-.617,0-1.129-.084-1.535-.252-.407-.168-.731-.379-.973-.633-.242-.254-.426-.51-.551-.768l-2.765.68c.273.914.886,1.693,1.84,2.338.953.644,2.261.967,3.925.967,1.18,0,2.233-.182,3.158-.545M369.04,57.691c.351-.328.527-.726.527-1.195,0-.461-.176-.855-.527-1.183-.352-.329-.77-.493-1.254-.493-.492,0-.914.164-1.266.493-.351.328-.527.726-.527,1.195,0,.461.176.855.527,1.183.352.329.774.493,1.266.493.484,0,.902-.164,1.254-.493M369.321,60.023h-3.082v13.102h3.082v-13.102ZM362.2,60.85c-.879-.66-2.088-.991-3.627-.991-1.047,0-1.968.164-2.765.493-.797.328-1.418.789-1.863,1.382-.446.594-.668,1.297-.668,2.11,0,.953.3,1.736.902,2.349.601.614,1.531,1.057,2.789,1.33l2.238.469c1.172.266,1.758.766,1.758,1.5,0,.438-.223.807-.668,1.108-.445.3-1.035.451-1.769.451-.704,0-1.28-.151-1.729-.451-.449-.301-.74-.745-.873-1.33l-3.012.281c.195,1.203.78,2.142,1.752,2.818.973.676,2.26,1.014,3.862,1.014,1.093,0,2.06-.176,2.9-.528.84-.351,1.498-.843,1.975-1.476.476-.633.714-1.359.714-2.18,0-.929-.304-1.687-.914-2.273-.609-.586-1.527-1.008-2.754-1.266l-2.238-.469c-.664-.148-1.139-.345-1.424-.591-.285-.246-.427-.561-.427-.944,0-.437.216-.797.65-1.078.434-.281.971-.422,1.611-.422.711,0,1.262.166,1.653.498.39.332.644.713.761,1.143l2.801-.293c-.211-1.109-.756-1.994-1.635-2.654M349.492,60.85c-.879-.66-2.088-.991-3.627-.991-1.047,0-1.969.164-2.766.493-.797.328-1.418.789-1.863,1.382-.446.594-.668,1.297-.668,2.11,0,.953.3,1.736.902,2.349.602.614,1.531,1.057,2.789,1.33l2.238.469c1.172.266,1.758.766,1.758,1.5,0,.438-.222.807-.668,1.108-.445.3-1.035.451-1.769.451-.703,0-1.28-.151-1.729-.451-.449-.301-.74-.745-.873-1.33l-3.011.281c.195,1.203.779,2.142,1.751,2.818.973.676,2.26,1.014,3.862,1.014,1.093,0,2.06-.176,2.9-.528.84-.351,1.498-.843,1.975-1.476.476-.633.715-1.359.715-2.18,0-.929-.305-1.687-.914-2.273-.61-.586-1.528-1.008-2.754-1.266l-2.239-.469c-.664-.148-1.138-.345-1.423-.591-.286-.246-.428-.561-.428-.944,0-.437.217-.797.65-1.078.434-.281.971-.422,1.612-.422.71,0,1.261.166,1.652.498.39.332.644.713.762,1.143l2.8-.293c-.211-1.109-.755-1.994-1.634-2.654M330.468,70.687c-.414-.288-.621-.718-.621-1.289,0-.398.105-.722.316-.972s.498-.447.861-.592c.364-.144.776-.248,1.237-.311.203-.023.443-.054.72-.093.278-.039.561-.086.85-.141s.547-.115.773-.182c.227-.066.391-.138.493-.216v1.535c0,.484-.125.931-.375,1.342-.251.41-.602.738-1.055.984s-.992.369-1.617.369c-.641,0-1.168-.144-1.582-.434M333.052,73.102c.504-.196.925-.452,1.265-.768.34-.316.604-.654.791-1.014h.094v1.805h2.965v-8.766c0-.867-.156-1.589-.469-2.168-.312-.578-.73-1.039-1.254-1.382-.523-.344-1.097-.588-1.722-.733-.626-.144-1.25-.217-1.875-.217-.914,0-1.748.135-2.502.405-.754.269-1.393.672-1.916,1.207-.524.535-.899,1.201-1.125,1.998l2.871.41c.156-.445.455-.832.896-1.16.442-.328,1.041-.492,1.799-.492.719,0,1.266.175,1.641.527.375.351.562.844.562,1.476v.059c0,.297-.107.516-.322.656-.215.141-.561.243-1.037.305-.477.063-1.102.137-1.875.223-.633.062-1.246.17-1.84.322s-1.127.373-1.6.662c-.472.289-.845.676-1.119,1.16-.273.485-.41,1.094-.41,1.828,0,.86.191,1.582.574,2.168s.906,1.03,1.571,1.33c.664.301,1.414.452,2.25.452.687,0,1.283-.098,1.787-.293M317.9,60.85c-.879-.66-2.088-.991-3.627-.991-1.047,0-1.968.164-2.765.493-.797.328-1.418.789-1.864,1.382-.445.594-.668,1.297-.668,2.11,0,.953.301,1.736.903,2.349.601.614,1.531,1.057,2.789,1.33l2.238.469c1.172.266,1.758.766,1.758,1.5,0,.438-.223.807-.668,1.108-.445.3-1.035.451-1.77.451-.703,0-1.279-.151-1.728-.451-.449-.301-.74-.745-.873-1.33l-3.012.281c.195,1.203.779,2.142,1.752,2.818.973.676,2.26,1.014,3.861,1.014,1.094,0,2.061-.176,2.901-.528.84-.351,1.498-.843,1.974-1.476.477-.633.715-1.359.715-2.18,0-.929-.304-1.687-.914-2.273-.609-.586-1.527-1.008-2.754-1.266l-2.238-.469c-.664-.148-1.139-.345-1.424-.591-.285-.246-.428-.561-.428-.944,0-.437.217-.797.651-1.078.433-.281.97-.422,1.611-.422.711,0,1.262.166,1.653.498.39.332.644.713.761,1.143l2.801-.293c-.211-1.109-.756-1.994-1.635-2.654M298.726,70.277c-.457-.367-.802-.871-1.037-1.511-.234-.641-.351-1.367-.351-2.18s.115-1.535.345-2.168c.231-.633.576-1.129,1.037-1.488.461-.36,1.032-.539,1.711-.539.664,0,1.225.172,1.682.515.457.344.805.83,1.043,1.459.238.629.357,1.369.357,2.221,0,.844-.121,1.584-.363,2.221-.242.636-.592,1.133-1.049,1.488-.457.356-1.013.533-1.67.533-.679,0-1.248-.183-1.705-.551M301.451,72.979c.492-.254.887-.559,1.184-.915.296-.355.527-.693.691-1.013h.187v2.074h3.012v-17.461h-3.07v6.527h-.129c-.156-.312-.381-.65-.674-1.013-.293-.364-.685-.674-1.178-.932-.492-.258-1.125-.387-1.898-.387-1.008,0-1.918.258-2.731.774-.812.515-1.459,1.273-1.939,2.273s-.721,2.231-.721,3.692c0,1.437.235,2.66.703,3.668.469,1.007,1.112,1.775,1.928,2.302.816.528,1.736.791,2.76.791.758,0,1.383-.127,1.875-.38M283.952,63.838c.238-.441.566-.779.985-1.014.417-.234.896-.351,1.435-.351.797,0,1.422.248,1.875.744.453.496.68,1.182.68,2.056v7.852h3.082v-8.332c0-1.047-.186-1.939-.557-2.678-.371-.738-.892-1.299-1.564-1.681-.672-.383-1.461-.575-2.368-.575-.984,0-1.794.217-2.431.651-.637.433-1.104,1.017-1.401,1.752h-.152v-2.239h-3.023v13.102h3.082v-7.664c0-.641.119-1.182.357-1.623M270.024,70.687c-.414-.288-.621-.718-.621-1.289,0-.398.106-.722.317-.972s.498-.447.861-.592c.363-.144.775-.248,1.236-.311.203-.023.444-.054.721-.093.277-.039.56-.086.85-.141.289-.055.546-.115.773-.182.227-.066.391-.138.492-.216v1.535c0,.484-.125.931-.375,1.342-.25.41-.601.738-1.054.984-.454.246-.993.369-1.618.369-.64,0-1.168-.144-1.582-.434M272.608,73.102c.504-.196.926-.452,1.266-.768.34-.316.603-.654.791-1.014h.094v1.805h2.965v-8.766c0-.867-.157-1.589-.469-2.168-.313-.578-.731-1.039-1.254-1.382-.524-.344-1.098-.588-1.723-.733-.625-.144-1.25-.217-1.875-.217-.914,0-1.748.135-2.502.405-.754.269-1.392.672-1.916,1.207-.523.535-.898,1.201-1.125,1.998l2.871.41c.157-.445.455-.832.897-1.16.441-.328,1.041-.492,1.799-.492.718,0,1.265.175,1.64.527.375.351.563.844.563,1.476v.059c0,.297-.108.516-.323.656-.214.141-.56.243-1.037.305-.476.063-1.101.137-1.875.223-.632.062-1.246.17-1.839.322-.594.152-1.127.373-1.6.662-.473.289-.846.676-1.119,1.16-.274.485-.41,1.094-.41,1.828,0,.86.191,1.582.574,2.168s.906,1.03,1.57,1.33c.664.301,1.414.452,2.25.452.688,0,1.283-.098,1.787-.293M259.391,69.691c0,1.118.348,1.998,1.043,2.643.695.645,1.652.967,2.871.967.336,0,.672-.026,1.008-.076.336-.051.668-.127.996-.229l-.527-2.414c-.133.031-.282.059-.446.082-.164.023-.312.035-.445.035-.492,0-.852-.123-1.078-.369-.227-.246-.34-.627-.34-1.143v-12.281h-3.082v12.785ZM257.551,62.414h7.512v-2.391h-7.512v2.391ZM254.566,60.85c-.878-.66-2.088-.991-3.627-.991-1.047,0-1.968.164-2.765.493-.797.328-1.418.789-1.863,1.382-.446.594-.668,1.297-.668,2.11,0,.953.3,1.736.902,2.349.601.614,1.531,1.057,2.789,1.33l2.238.469c1.172.266,1.758.766,1.758,1.5,0,.438-.223.807-.668,1.108-.445.3-1.035.451-1.769.451-.704,0-1.28-.151-1.729-.451-.449-.301-.74-.745-.873-1.33l-3.012.281c.195,1.203.78,2.142,1.752,2.818.973.676,2.26,1.014,3.862,1.014,1.093,0,2.06-.176,2.9-.528.84-.351,1.498-.843,1.975-1.476.476-.633.714-1.359.714-2.18,0-.929-.304-1.687-.914-2.273-.609-.586-1.527-1.008-2.754-1.266l-2.238-.469c-.664-.148-1.139-.345-1.424-.591-.285-.246-.427-.561-.427-.944,0-.437.216-.797.65-1.078.434-.281.971-.422,1.611-.422.711,0,1.262.166,1.653.498.39.332.644.713.761,1.143l2.801-.293c-.211-1.109-.756-1.994-1.635-2.654M234.487,73.125h3.082v-17.461h-3.082v17.461ZM228.616,73.125h3.082v-17.461h-3.082v17.461ZM218.125,70.687c-.414-.288-.621-.718-.621-1.289,0-.398.105-.722.316-.972s.498-.447.862-.592c.363-.144.775-.248,1.236-.311.203-.023.443-.054.721-.093.277-.039.56-.086.849-.141s.547-.115.774-.182c.226-.066.39-.138.492-.216v1.535c0,.484-.125.931-.375,1.342-.25.41-.602.738-1.055.984s-.992.369-1.617.369c-.641,0-1.168-.144-1.582-.434M220.709,73.102c.504-.196.926-.452,1.266-.768.339-.316.603-.654.791-1.014h.093v1.805h2.965v-8.766c0-.867-.156-1.589-.468-2.168-.313-.578-.731-1.039-1.254-1.382-.524-.344-1.098-.588-1.723-.733-.625-.144-1.25-.217-1.875-.217-.914,0-1.748.135-2.502.405-.754.269-1.393.672-1.916,1.207-.524.535-.899,1.201-1.125,1.998l2.871.41c.156-.445.455-.832.897-1.16.441-.328,1.041-.492,1.798-.492.719,0,1.266.175,1.641.527.375.351.563.844.563,1.476v.059c0,.297-.108.516-.323.656-.215.141-.56.243-1.037.305-.476.063-1.101.137-1.875.223-.633.062-1.246.17-1.84.322s-1.127.373-1.599.662c-.473.289-.846.676-1.119,1.16-.274.485-.411,1.094-.411,1.828,0,.86.192,1.582.575,2.168.382.586.906,1.03,1.57,1.33.664.301,1.414.452,2.25.452.687,0,1.283-.098,1.787-.293M198.72,63.838c.242-.441.576-.779,1.002-1.014.425-.234.912-.351,1.459-.351.812,0,1.445.244,1.898.732s.68,1.178.68,2.068v7.852h3.094v-8.332c0-1.055-.188-1.949-.563-2.684-.375-.734-.9-1.293-1.576-1.675-.676-.383-1.467-.575-2.373-.575-1.008,0-1.832.215-2.473.645-.641.43-1.113,1.016-1.418,1.758h-.164v-6.598h-3.012v17.461h3.082v-7.664c0-.641.121-1.182.364-1.623M187.608,69.691c0,1.118.348,1.998,1.043,2.643.695.645,1.652.967,2.871.967.336,0,.672-.026,1.008-.076.336-.051.668-.127.996-.229l-.527-2.414c-.133.031-.282.059-.446.082-.164.023-.312.035-.445.035-.492,0-.852-.123-1.078-.369-.227-.246-.34-.627-.34-1.143v-12.281h-3.082v12.785ZM185.768,62.414h7.512v-2.391h-7.512v2.391ZM183.872,57.691c.351-.328.527-.726.527-1.195,0-.461-.176-.855-.527-1.183-.352-.329-.77-.493-1.254-.493-.493,0-.914.164-1.266.493-.352.328-.527.726-.527,1.195,0,.461.175.855.527,1.183.352.329.773.493,1.266.493.484,0,.902-.164,1.254-.493M184.153,60.023h-3.082v13.102h3.082v-13.102ZM164.109,73.125l3.48-12.234h.141l3.492,12.234h3.129l4.934-17.461h-3.422l-3.129,12.844h-.176l-3.34-12.844h-3.105l-3.363,12.832h-.153l-3.152-12.832h-3.399l4.922,17.461h3.141Z"/>
    </g>
  </g>
</svg>