<?xml version="1.0" encoding="UTF-8"?>
<svg id="Layer_1" xmlns="http://www.w3.org/2000/svg" width="492" height="189" xmlns:xlink="http://www.w3.org/1999/xlink" version="1.1" viewBox="0 0 492 189">
  <!-- Generator: Adobe Illustrator 29.5.0, SVG Export Plug-In . SVG Version: 2.1.0 Build 137)  -->
  <defs>
    <style>
      .st0 {
        fill: none;
      }

      .st1 {
        fill: #a2ffff;
      }

      .st2 {
        clip-path: url(#clippath-1);
      }

      .st3 {
        clip-path: url(#clippath-3);
      }

      .st4 {
        clip-path: url(#clippath-4);
      }

      .st5 {
        clip-path: url(#clippath-2);
      }

      .st6 {
        clip-path: url(#clippath-5);
      }

      .st7 {
        fill: #6e0fd7;
      }

      .st8 {
        fill: #fff;
      }

      .st9 {
        fill: #320a64;
      }

      .st10 {
        fill: #e2cff7;
      }

      .st11 {
        opacity: 0;
      }

      .st12 {
        clip-path: url(#clippath);
      }
    </style>
    <clipPath id="clippath">
      <rect class="st0" width="492" height="189"/>
    </clipPath>
    <clipPath id="clippath-1">
      <rect class="st0" width="492" height="189"/>
    </clipPath>
    <clipPath id="clippath-2">
      <path class="st0" d="M30,94.5c0,27.614,22.385,50,50,50s50-22.386,50-50-22.386-50-50-50-50,22.386-50,50"/>
    </clipPath>
    <clipPath id="clippath-3">
      <rect class="st0" x="30" y="44.5" width="100" height="100"/>
    </clipPath>
    <clipPath id="clippath-4">
      <rect class="st0" x="30" y="44.5" width="100" height="100"/>
    </clipPath>
    <clipPath id="clippath-5">
      <rect class="st0" width="492" height="189"/>
    </clipPath>
  </defs>
  <g class="st12">
    <g class="st2">
      <rect class="st10" width="492" height="189" rx="12" ry="12"/>
      <path class="st7" d="M29,46c9.389,0,17-7.611,17-17s-7.611-17-17-17-17,7.611-17,17,7.611,17,17,17"/>
      <path class="st7" d="M80,144.5c27.614,0,50-22.386,50-50s-22.386-50-50-50-50,22.386-50,50,22.386,50,50,50"/>
    </g>
    <g class="st5">
      <g class="st11">
        <g class="st3">
          <g class="st4">
            <path class="st1" d="M80,44.5c-27.614,0-50,22.386-50,50s22.386,50,50,50,50-22.386,50-50-22.386-50-50-50"/>
          </g>
        </g>
      </g>
      <path class="st10" d="M81.602,99.69l6.521-6.521c.053-.074.085-.107.097-.118l17.5-17.5c-.646-.28-1.356-.426-2.085-.426h-47.271c-.698,0-1.389.135-2.028.395l24.17,24.17c.853.854,2.242.854,3.096,0"/>
      <path class="st10" d="M51.351,78.505c-.26.639-.396,1.33-.396,2.029v27.933c0,.698.136,1.389.396,2.028l15.995-15.995-15.995-15.995Z"/>
      <path class="st10" d="M84.587,102.674c-1.228,1.205-2.84,1.866-4.544,1.866-1.713,0-3.319-.662-4.522-1.865l-5.19-5.19-15.995,15.995c.639.26,1.33.395,2.028.395h47.271c.699,0,1.389-.135,2.029-.395l-15.951-15.952-5.126,5.146Z"/>
      <path class="st10" d="M108.68,78.572l-.719.706-15.264,15.265,15.952,15.952c.26-.639.396-1.33.396-2.028v-27.933c0-.682-.123-1.339-.365-1.962"/>
    </g>
    <g class="st6">
      <path class="st9" d="M370.4,132.779c.363-.363.545-.806.545-1.33s-.182-.967-.545-1.33c-.363-.363-.81-.545-1.342-.545s-.978.182-1.341.545c-.364.363-.545.807-.545,1.33s.181.967.545,1.33c.363.364.81.545,1.341.545s.979-.181,1.342-.545M362.95,120.85c-.879-.66-2.088-.991-3.627-.991-1.047,0-1.969.164-2.766.493-.797.328-1.418.789-1.863,1.382-.446.594-.668,1.297-.668,2.11,0,.953.3,1.736.902,2.349.602.614,1.531,1.057,2.789,1.33l2.238.469c1.172.266,1.758.766,1.758,1.5,0,.438-.222.807-.668,1.108-.445.3-1.035.451-1.769.451-.703,0-1.28-.151-1.729-.451-.449-.301-.74-.745-.873-1.33l-3.012.281c.196,1.203.78,2.142,1.752,2.818.973.676,2.26,1.014,3.862,1.014,1.093,0,2.06-.176,2.9-.528.84-.351,1.498-.843,1.975-1.476.476-.633.715-1.359.715-2.18,0-.929-.305-1.687-.914-2.273-.61-.586-1.528-1.008-2.754-1.266l-2.239-.469c-.664-.148-1.138-.345-1.423-.591-.286-.246-.428-.561-.428-.944,0-.437.217-.797.65-1.078.434-.281.971-.422,1.611-.422.711,0,1.262.166,1.653.498.39.332.644.713.762,1.143l2.8-.293c-.211-1.109-.756-1.994-1.634-2.654M348.245,133.125v-7.687c0-.563.127-1.055.381-1.477.253-.422.603-.754,1.048-.996.446-.242.953-.363,1.524-.363.258,0,.527.015.808.046.282.032.489.071.621.118v-2.836c-.14-.024-.318-.043-.533-.059-.215-.015-.404-.023-.568-.023-.75,0-1.418.205-2.004.615-.586.41-.996.998-1.23,1.764h-.141v-2.204h-2.988v13.102h3.082ZM334.937,130.33c-.469-.379-.819-.892-1.049-1.541-.23-.648-.346-1.367-.346-2.156,0-.805.116-1.531.346-2.18.23-.648.58-1.162,1.049-1.541.469-.379,1.051-.568,1.746-.568.711,0,1.297.189,1.758.568.461.379.806.893,1.037,1.541.23.649.346,1.375.346,2.18,0,.789-.116,1.508-.346,2.156-.231.649-.576,1.162-1.037,1.541-.461.379-1.047.568-1.758.568-.695,0-1.277-.189-1.746-.568M340.011,132.539c.938-.562,1.664-1.351,2.18-2.367.515-1.016.773-2.195.773-3.539,0-1.352-.258-2.537-.773-3.557-.516-1.019-1.242-1.81-2.18-2.373-.937-.562-2.047-.844-3.328-.844s-2.391.282-3.328.844c-.938.563-1.662,1.354-2.174,2.373-.512,1.02-.768,2.205-.768,3.557,0,1.344.256,2.523.768,3.539.512,1.016,1.236,1.805,2.174,2.367.937.563,2.047.844,3.328.844s2.391-.281,3.328-.844M323.662,129.691c0,1.118.348,1.998,1.043,2.643.696.645,1.653.967,2.871.967.336,0,.672-.026,1.008-.076.336-.051.668-.127.996-.229l-.527-2.414c-.133.031-.281.059-.445.082-.164.023-.313.035-.446.035-.492,0-.851-.123-1.078-.369-.226-.246-.34-.627-.34-1.143v-12.281h-3.082v12.785ZM321.823,122.414h7.512v-2.391h-7.512v2.391ZM319.926,117.691c.351-.328.527-.726.527-1.195,0-.461-.176-.855-.527-1.183-.352-.329-.77-.493-1.254-.493-.492,0-.914.164-1.266.493-.351.328-.527.726-.527,1.195,0,.461.176.855.527,1.183.352.329.774.493,1.266.493.484,0,.902-.164,1.254-.493M320.207,120.023h-3.082v13.102h3.082v-13.102ZM306.993,130.295c-.461-.355-.811-.852-1.049-1.488-.238-.637-.357-1.377-.357-2.221,0-.852.119-1.592.357-2.221.238-.629.586-1.115,1.043-1.459.457-.343,1.018-.515,1.682-.515.687,0,1.258.179,1.711.539.453.359.797.855,1.031,1.488.234.633.352,1.355.352,2.168s-.118,1.539-.352,2.18c-.234.64-.58,1.144-1.037,1.511-.457.368-1.025.551-1.705.551-.656,0-1.215-.177-1.676-.533M312.284,132.568c.816-.527,1.459-1.295,1.928-2.302.469-1.008.703-2.231.703-3.668,0-1.461-.24-2.692-.721-3.692-.48-1-1.127-1.758-1.939-2.273-.813-.516-1.723-.774-2.731-.774-.773,0-1.408.129-1.904.387-.496.258-.889.568-1.178.932-.289.363-.511.701-.668,1.013h-.129v-6.527h-3.082v17.461h3.024v-2.074h.187c.157.32.385.658.686,1.013.301.356.699.661,1.195.915.496.253,1.115.38,1.858.38,1.031,0,1.955-.263,2.771-.791M299.476,117.691c.351-.328.527-.726.527-1.195,0-.461-.176-.855-.527-1.183-.352-.329-.77-.493-1.254-.493-.492,0-.914.164-1.266.493-.351.328-.527.726-.527,1.195,0,.461.176.855.527,1.183.352.329.774.493,1.266.493.484,0,.902-.164,1.254-.493M299.757,120.023h-3.082v13.102h3.082v-13.102ZM285.803,123.838c.242-.441.576-.779,1.002-1.014.426-.234.912-.351,1.459-.351.813,0,1.445.244,1.899.732.453.488.679,1.178.679,2.068v7.852h3.094v-8.332c0-1.055-.187-1.949-.562-2.684-.375-.734-.901-1.293-1.577-1.675-.675-.383-1.466-.575-2.373-.575-1.007,0-1.832.215-2.472.645-.641.43-1.114,1.016-1.418,1.758h-.164v-6.598h-3.012v17.461h3.082v-7.664c0-.641.121-1.182.363-1.623M268.744,120.023l3.879,6.563-3.973,6.539h3.27l2.73-4.711,2.778,4.711h3.246l-4.008-6.539,3.938-6.563h-3.27l-2.684,4.852-2.636-4.852h-3.27ZM264.786,132.92c.785-.309,1.43-.746,1.934-1.313.504-.566.849-1.228,1.037-1.986l-2.883-.34c-.141.375-.342.69-.604.944-.261.254-.574.443-.937.568s-.764.187-1.201.187c-.672,0-1.26-.148-1.764-.445s-.895-.728-1.172-1.295c-.277-.566-.416-1.248-.416-2.045v-1.441c0-.648.121-1.236.363-1.764.242-.527.598-.947,1.067-1.26.469-.312,1.035-.468,1.699-.468s1.219.156,1.664.468c.445.313.781.745,1.008,1.295.226.551.34,1.198.34,1.94l1.441-.61h-9.199v2.075h10.734v-.961c0-1.149-.16-2.139-.48-2.971-.321-.832-.76-1.518-1.318-2.057-.559-.539-1.2-.937-1.922-1.195-.723-.258-1.487-.387-2.291-.387-1.25,0-2.336.286-3.258.856-.922.57-1.637,1.365-2.145,2.385-.508,1.019-.761,2.205-.761,3.556,0,1.367.255,2.555.767,3.563.512,1.008,1.244,1.787,2.197,2.338.953.55,2.086.826,3.399.826,1.015,0,1.916-.155,2.701-.463M244.719,133.125v-7.687c0-.563.126-1.055.38-1.477.254-.422.604-.754,1.049-.996.446-.242.953-.363,1.524-.363.258,0,.527.015.808.046.282.032.488.071.621.118v-2.836c-.14-.024-.318-.043-.533-.059-.215-.015-.404-.023-.568-.023-.75,0-1.418.205-2.004.615-.586.41-.996.998-1.231,1.764h-.14v-2.204h-2.988v13.102h3.082ZM236.3,132.92c.785-.309,1.429-.746,1.933-1.313.504-.566.85-1.228,1.037-1.986l-2.883-.34c-.14.375-.341.69-.603.944-.262.254-.574.443-.938.568-.363.125-.763.187-1.201.187-.672,0-1.26-.148-1.763-.445-.504-.297-.895-.728-1.172-1.295-.278-.566-.416-1.248-.416-2.045v-1.441c0-.648.121-1.236.363-1.764.242-.527.598-.947,1.066-1.26.469-.312,1.035-.468,1.7-.468s1.218.156,1.664.468c.445.313.781.745,1.007,1.295.227.551.34,1.198.34,1.94l1.442-.61h-9.199v2.075h10.734v-.961c0-1.149-.16-2.139-.481-2.971-.32-.832-.759-1.518-1.318-2.057-.559-.539-1.199-.937-1.922-1.195-.723-.258-1.486-.387-2.291-.387-1.25,0-2.336.286-3.258.856-.922.57-1.636,1.365-2.144,2.385-.508,1.019-.762,2.205-.762,3.556,0,1.367.256,2.555.768,3.563.511,1.008,1.244,1.787,2.197,2.338.953.55,2.086.826,3.398.826,1.016,0,1.916-.155,2.702-.463M217.702,130.295c-.461-.355-.811-.852-1.049-1.488-.239-.637-.358-1.377-.358-2.221,0-.852.119-1.592.358-2.221.238-.629.586-1.115,1.043-1.459.457-.343,1.017-.515,1.681-.515.688,0,1.258.179,1.711.539.453.359.797.855,1.032,1.488.234.633.351,1.355.351,2.168s-.117,1.539-.351,2.18c-.235.64-.581,1.144-1.038,1.511-.457.368-1.025.551-1.705.551-.656,0-1.215-.177-1.675-.533M222.993,132.568c.816-.527,1.459-1.295,1.927-2.302.469-1.008.703-2.231.703-3.668,0-1.461-.24-2.692-.72-3.692-.481-1-1.127-1.758-1.94-2.273-.812-.516-1.722-.774-2.73-.774-.774,0-1.408.129-1.904.387-.497.258-.889.568-1.178.932-.289.363-.512.701-.668,1.013h-.129v-6.527h-3.082v17.461h3.023v-2.074h.188c.156.32.385.658.685,1.013.301.356.699.661,1.196.915.496.253,1.115.38,1.857.38,1.031,0,1.955-.263,2.772-.791M195.164,133.125v-7.969c0-.531.107-1,.322-1.406s.506-.723.873-.949c.367-.227.774-.34,1.219-.34.656,0,1.184.201,1.582.603.398.403.598.944.598,1.623v8.438h3.047v-8.18c0-.726.206-1.322.621-1.787.414-.465.992-.697,1.734-.697.625,0,1.154.189,1.588.568.434.379.65.971.65,1.776v8.32h3.094v-8.789c0-1.461-.381-2.572-1.143-3.334-.761-.762-1.744-1.143-2.947-1.143-.953,0-1.773.219-2.461.657-.687.437-1.179,1.019-1.476,1.746h-.141c-.242-.742-.668-1.328-1.277-1.758-.61-.43-1.36-.645-2.25-.645-.867,0-1.617.213-2.25.639-.633.426-1.086,1.014-1.36,1.764h-.164v-2.239h-2.941v13.102h3.082ZM186.745,132.92c.785-.309,1.43-.746,1.934-1.313.503-.566.849-1.228,1.037-1.986l-2.883-.34c-.141.375-.342.69-.604.944-.262.254-.574.443-.937.568-.363.125-.764.187-1.201.187-.672,0-1.26-.148-1.764-.445s-.895-.728-1.172-1.295c-.277-.566-.416-1.248-.416-2.045v-1.441c0-.648.121-1.236.363-1.764.242-.527.598-.947,1.067-1.26.469-.312,1.035-.468,1.699-.468s1.219.156,1.664.468c.445.313.781.745,1.008,1.295.226.551.34,1.198.34,1.94l1.441-.61h-9.199v2.075h10.734v-.961c0-1.149-.16-2.139-.48-2.971-.321-.832-.76-1.518-1.319-2.057-.558-.539-1.199-.937-1.921-1.195-.723-.258-1.487-.387-2.291-.387-1.251,0-2.337.286-3.258.856-.922.57-1.637,1.365-2.145,2.385-.508,1.019-.762,2.205-.762,3.556,0,1.367.256,2.555.768,3.563.512,1.008,1.244,1.787,2.197,2.338.953.55,2.086.826,3.399.826,1.015,0,1.916-.155,2.701-.463M160.219,133.125v-7.969c0-.531.107-1,.322-1.406.215-.406.506-.723.873-.949.367-.227.774-.34,1.219-.34.656,0,1.184.201,1.582.603.399.403.598.944.598,1.623v8.438h3.047v-8.18c0-.726.207-1.322.621-1.787.414-.465.992-.697,1.734-.697.625,0,1.154.189,1.588.568s.65.971.65,1.776v8.32h3.094v-8.789c0-1.461-.381-2.572-1.142-3.334-.762-.762-1.745-1.143-2.948-1.143-.953,0-1.773.219-2.461.657-.687.437-1.179,1.019-1.476,1.746h-.141c-.242-.742-.668-1.328-1.277-1.758-.61-.43-1.36-.645-2.25-.645-.867,0-1.617.213-2.25.639-.633.426-1.086,1.014-1.36,1.764h-.164v-2.239h-2.941v13.102h3.082Z"/>
      <path class="st9" d="M427.365,90.85c-.879-.66-2.088-.991-3.627-.991-1.047,0-1.969.165-2.766.493-.796.328-1.417.789-1.863,1.382-.445.594-.668,1.297-.668,2.11,0,.953.301,1.736.903,2.349.601.614,1.531,1.057,2.789,1.331l2.238.468c1.172.266,1.758.766,1.758,1.5,0,.438-.223.807-.668,1.108-.446.301-1.036.451-1.77.451-.703,0-1.279-.15-1.728-.451-.45-.301-.741-.744-.873-1.33l-3.012.281c.195,1.203.779,2.143,1.752,2.818.973.676,2.26,1.014,3.861,1.014,1.094,0,2.061-.176,2.901-.527.839-.352,1.498-.844,1.974-1.477.477-.633.715-1.359.715-2.18,0-.929-.305-1.687-.914-2.273-.609-.586-1.527-1.008-2.754-1.266l-2.238-.468c-.664-.149-1.139-.346-1.424-.592s-.428-.561-.428-.944c0-.437.217-.797.651-1.078.433-.281.97-.422,1.611-.422.711,0,1.262.166,1.652.498.391.333.645.713.762,1.143l2.801-.293c-.211-1.109-.756-1.994-1.635-2.654M415.74,87.692c.351-.329.527-.727.527-1.196,0-.461-.176-.855-.527-1.183-.352-.329-.77-.493-1.254-.493-.493,0-.914.164-1.266.493-.352.328-.527.726-.527,1.195,0,.461.175.855.527,1.184.352.328.773.492,1.266.492.484,0,.902-.164,1.254-.492M416.021,90.024h-3.082v13.102h3.082v-13.102ZM402.067,93.838c.242-.441.576-.779,1.002-1.014.426-.234.912-.351,1.459-.351.812,0,1.445.244,1.898.732.453.489.68,1.178.68,2.069v7.851h3.094v-8.332c0-1.055-.188-1.949-.563-2.684-.375-.734-.9-1.292-1.576-1.675-.676-.383-1.467-.575-2.373-.575-1.008,0-1.832.215-2.473.645-.64.43-1.113,1.016-1.418,1.758h-.164v-6.598h-3.011v17.461h3.082v-7.664c0-.64.121-1.182.363-1.623M382.873,100.33c-.469-.379-.819-.892-1.049-1.541-.231-.648-.346-1.367-.346-2.156,0-.805.115-1.531.346-2.18.23-.648.58-1.162,1.049-1.541.468-.379,1.05-.568,1.746-.568.71,0,1.296.189,1.757.568.461.379.807.893,1.038,1.541.23.649.345,1.375.345,2.18,0,.789-.115,1.508-.345,2.156-.231.649-.577,1.162-1.038,1.541-.461.379-1.047.569-1.757.569-.696,0-1.278-.19-1.746-.569M387.947,102.539c.937-.562,1.664-1.351,2.179-2.367.516-1.016.774-2.195.774-3.539,0-1.352-.258-2.537-.774-3.557-.515-1.019-1.242-1.81-2.179-2.373-.938-.562-2.047-.844-3.328-.844s-2.391.282-3.328.844c-.938.563-1.663,1.354-2.174,2.373-.512,1.02-.768,2.205-.768,3.557,0,1.344.256,2.523.768,3.539.511,1.016,1.236,1.805,2.174,2.367.937.563,2.046.844,3.328.844s2.39-.281,3.328-.844M371.598,99.692c0,1.117.348,1.998,1.043,2.642.695.645,1.652.967,2.871.967.336,0,.672-.026,1.008-.076.336-.051.668-.127.996-.229l-.527-2.414c-.133.031-.281.059-.446.082-.164.024-.312.035-.445.035-.492,0-.851-.123-1.078-.369-.227-.246-.34-.627-.34-1.142v-12.282h-3.082v12.786ZM369.758,92.414h7.512v-2.391h-7.512v2.391ZM361.152,90.85c-.879-.66-2.088-.991-3.627-.991-1.047,0-1.969.165-2.766.493s-1.418.789-1.863,1.382c-.445.594-.668,1.297-.668,2.11,0,.953.301,1.736.902,2.349.602.614,1.531,1.057,2.789,1.331l2.239.468c1.172.266,1.757.766,1.757,1.5,0,.438-.222.807-.667,1.108-.446.301-1.036.451-1.77.451-.703,0-1.279-.15-1.729-.451-.449-.301-.74-.744-.873-1.33l-3.011.281c.195,1.203.779,2.143,1.752,2.818.972.676,2.259,1.014,3.861,1.014,1.094,0,2.06-.176,2.9-.527.84-.352,1.498-.844,1.975-1.477.476-.633.715-1.359.715-2.18,0-.929-.305-1.687-.914-2.273-.61-.586-1.528-1.008-2.754-1.266l-2.238-.468c-.665-.149-1.139-.346-1.424-.592-.286-.246-.428-.561-.428-.944,0-.437.217-.797.65-1.078.434-.281.971-.422,1.612-.422.711,0,1.261.166,1.652.498.391.333.645.713.762,1.143l2.801-.293c-.211-1.109-.756-1.994-1.635-2.654M341.777,93.838c.239-.441.567-.779.985-1.014.418-.234.896-.351,1.435-.351.797,0,1.422.248,1.875.744.453.496.68,1.182.68,2.057v7.851h3.082v-8.332c0-1.047-.186-1.939-.557-2.678-.371-.738-.892-1.298-1.564-1.681-.672-.383-1.461-.575-2.367-.575-.985,0-1.795.217-2.432.651-.637.433-1.104,1.018-1.4,1.752h-.153v-2.238h-3.023v13.101h3.082v-7.664c0-.64.119-1.182.357-1.623M328.112,100.33c-.469-.379-.818-.892-1.049-1.541-.23-.648-.345-1.367-.345-2.156,0-.805.115-1.531.345-2.18.231-.648.58-1.162,1.049-1.541.469-.379,1.051-.568,1.746-.568.711,0,1.297.189,1.758.568.461.379.807.893,1.037,1.541.231.649.346,1.375.346,2.18,0,.789-.115,1.508-.346,2.156-.23.649-.576,1.162-1.037,1.541-.461.379-1.047.569-1.758.569-.695,0-1.277-.19-1.746-.569M333.186,102.539c.938-.562,1.664-1.351,2.18-2.367s.773-2.195.773-3.539c0-1.352-.257-2.537-.773-3.557-.516-1.019-1.242-1.81-2.18-2.373-.937-.562-2.047-.844-3.328-.844s-2.39.282-3.328.844c-.937.563-1.662,1.354-2.174,2.373-.511,1.02-.767,2.205-.767,3.557,0,1.344.256,2.523.767,3.539.512,1.016,1.237,1.805,2.174,2.367.938.563,2.047.844,3.328.844s2.391-.281,3.328-.844M321.186,87.692c.352-.329.527-.727.527-1.196,0-.461-.175-.855-.527-1.183-.351-.329-.769-.493-1.254-.493-.492,0-.914.164-1.265.493-.352.328-.528.726-.528,1.195,0,.461.176.855.528,1.184.351.328.773.492,1.265.492.485,0,.903-.164,1.254-.492M321.467,90.024h-3.082v13.102h3.082v-13.102ZM310.777,99.692c0,1.117.347,1.998,1.043,2.642.695.645,1.652.967,2.871.967.336,0,.672-.026,1.008-.076.335-.051.668-.127.996-.229l-.528-2.414c-.133.031-.281.059-.445.082-.164.024-.313.035-.445.035-.493,0-.852-.123-1.078-.369-.227-.246-.34-.627-.34-1.142v-12.282h-3.082v12.786ZM308.937,92.414h7.512v-2.391h-7.512v2.391ZM299.728,100.688c-.414-.289-.621-.719-.621-1.289,0-.399.105-.723.316-.973s.498-.447.862-.592c.363-.144.775-.248,1.236-.31.203-.024.443-.055.721-.094.277-.039.56-.086.849-.141.289-.054.547-.115.774-.181.226-.067.39-.139.492-.217v1.535c0,.484-.125.932-.375,1.342s-.602.738-1.055.984c-.453.246-.992.369-1.617.369-.641,0-1.168-.144-1.582-.433M302.312,103.102c.504-.196.926-.451,1.266-.768.339-.316.603-.654.791-1.014h.093v1.805h2.965v-8.766c0-.867-.156-1.589-.469-2.167-.312-.579-.73-1.039-1.253-1.383-.524-.344-1.098-.588-1.723-.733-.625-.144-1.25-.217-1.875-.217-.914,0-1.748.135-2.502.405-.754.269-1.393.672-1.916,1.207-.524.535-.899,1.201-1.125,1.998l2.871.41c.156-.445.455-.832.897-1.16.441-.328,1.04-.492,1.798-.492.719,0,1.266.175,1.641.527s.562.844.562,1.477v.058c0,.297-.107.516-.322.656-.215.141-.56.243-1.037.305-.477.063-1.101.137-1.875.223-.633.062-1.246.17-1.84.322s-1.127.373-1.599.662c-.473.289-.846.676-1.119,1.16-.274.485-.411,1.094-.411,1.828,0,.86.192,1.582.575,2.168.382.586.906,1.03,1.57,1.33.664.301,1.414.452,2.25.452.687,0,1.283-.098,1.787-.293M289.095,99.692c0,1.117.347,1.998,1.043,2.642.695.645,1.652.967,2.871.967.336,0,.672-.026,1.008-.076.335-.051.668-.127.996-.229l-.528-2.414c-.133.031-.281.059-.445.082-.164.024-.312.035-.445.035-.492,0-.852-.123-1.078-.369-.227-.246-.34-.627-.34-1.142v-12.282h-3.082v12.786ZM287.255,92.414h7.512v-2.391h-7.512v2.391ZM285.358,87.692c.352-.329.528-.727.528-1.196,0-.461-.176-.855-.528-1.183-.351-.329-.769-.493-1.254-.493-.492,0-.914.164-1.265.493-.352.328-.528.726-.528,1.195,0,.461.176.855.528,1.184.351.328.773.492,1.265.492.485,0,.903-.164,1.254-.492M285.639,90.024h-3.082v13.102h3.082v-13.102ZM277.719,90.024l-3.012,9.738h-.141l-3.035-9.738h-3.293l4.653,13.101h3.421l4.665-13.101h-3.258ZM259.064,93.838c.238-.441.566-.779.984-1.014.418-.234.897-.351,1.436-.351.797,0,1.422.248,1.875.744.453.496.68,1.182.68,2.057v7.851h3.082v-8.332c0-1.047-.186-1.939-.557-2.678-.371-.738-.893-1.298-1.564-1.681-.672-.383-1.461-.575-2.368-.575-.984,0-1.795.217-2.431.651-.637.433-1.104,1.018-1.401,1.752h-.152v-2.238h-3.023v13.101h3.082v-7.664c0-.64.119-1.182.357-1.623M252.537,87.692c.352-.329.527-.727.527-1.196,0-.461-.175-.855-.527-1.183-.352-.329-.77-.493-1.254-.493-.492,0-.914.164-1.266.493-.351.328-.527.726-.527,1.195,0,.461.176.855.527,1.184.352.328.774.492,1.266.492.484,0,.902-.164,1.254-.492M252.818,90.024h-3.082v13.102h3.082v-13.102ZM238.171,103.125v-7.687c0-.563.127-1.055.381-1.477.253-.422.603-.754,1.048-.996.446-.242.954-.363,1.524-.363.258,0,.527.015.808.047.282.031.489.07.622.117v-2.836c-.141-.024-.319-.043-.534-.059-.215-.015-.404-.023-.568-.023-.75,0-1.418.205-2.004.615s-.996.998-1.23,1.764h-.141v-2.203h-2.988v13.101h3.082ZM229.752,102.92c.785-.309,1.429-.746,1.933-1.312.504-.567.85-1.229,1.037-1.987l-2.882-.34c-.141.375-.342.69-.604.944s-.574.443-.937.568c-.364.125-.764.188-1.202.188-.672,0-1.259-.149-1.763-.446-.504-.297-.895-.728-1.172-1.295-.278-.566-.416-1.248-.416-2.045v-1.441c0-.648.121-1.236.363-1.764.242-.527.598-.947,1.067-1.259.468-.313,1.035-.469,1.699-.469s1.219.156,1.664.469c.445.312.781.744,1.008,1.294.226.551.34,1.198.34,1.94l1.441-.609h-9.199v2.074h10.734v-.961c0-1.149-.16-2.139-.48-2.971-.321-.832-.76-1.517-1.319-2.056-.558-.54-1.199-.938-1.922-1.196-.722-.258-1.486-.387-2.291-.387-1.25,0-2.336.286-3.257.856-.922.57-1.637,1.365-2.145,2.385-.508,1.019-.762,2.205-.762,3.556,0,1.368.256,2.555.768,3.563.511,1.008,1.244,1.787,2.197,2.338.953.551,2.086.826,3.399.826,1.015,0,1.916-.154,2.701-.463M211.154,100.295c-.461-.355-.811-.851-1.049-1.488-.238-.637-.357-1.377-.357-2.221,0-.851.119-1.592.357-2.221.238-.628.586-1.115,1.043-1.459.457-.343,1.017-.515,1.682-.515.687,0,1.257.18,1.71.539.453.359.797.855,1.032,1.488.234.633.351,1.356.351,2.168s-.117,1.539-.351,2.18c-.235.64-.58,1.144-1.037,1.511-.457.368-1.026.551-1.705.551-.657,0-1.215-.177-1.676-.533M216.445,102.568c.816-.527,1.459-1.294,1.928-2.302.468-1.008.703-2.231.703-3.668,0-1.461-.241-2.692-.721-3.692-.481-1-1.127-1.757-1.94-2.273-.812-.516-1.722-.774-2.73-.774-.773,0-1.408.129-1.904.387-.496.258-.889.569-1.178.932-.289.363-.512.701-.668,1.014h-.129v-6.528h-3.082v17.461h3.024v-2.074h.187c.156.32.385.658.686,1.014.3.355.699.66,1.195.914.496.253,1.115.38,1.857.38,1.032,0,1.955-.263,2.772-.791M188.616,103.125v-7.969c0-.531.107-1,.322-1.406.215-.406.506-.722.873-.949.368-.227.774-.34,1.219-.34.656,0,1.184.201,1.582.604.399.402.598.943.598,1.623v8.437h3.047v-8.18c0-.726.207-1.322.621-1.787.414-.464.992-.697,1.734-.697.625,0,1.155.19,1.588.568.434.379.651.971.651,1.776v8.32h3.093v-8.789c0-1.461-.381-2.572-1.142-3.334-.762-.762-1.745-1.143-2.948-1.143-.953,0-1.773.219-2.461.657-.687.437-1.179,1.019-1.476,1.746h-.141c-.242-.742-.668-1.328-1.277-1.758-.609-.43-1.359-.645-2.25-.645-.867,0-1.617.213-2.25.639-.633.426-1.086,1.014-1.359,1.764h-.164v-2.238h-2.942v13.101h3.082ZM179.243,99.281c-.274.438-.623.766-1.049.985-.426.219-.865.328-1.318.328-.743.008-1.342-.235-1.799-.727-.457-.492-.686-1.148-.686-1.968v-7.875h-3.082v8.343c0,1.047.186,1.94.557,2.678.371.738.883,1.297,1.535,1.676.652.379,1.408.568,2.268.568.984.008,1.812-.222,2.484-.691.672-.469,1.156-1.07,1.453-1.805h.141v2.332h2.988v-13.101h-3.082v7.605c0,.664-.137,1.215-.41,1.652M160.576,93.838c.238-.441.566-.779.984-1.014.418-.234.897-.351,1.436-.351.797,0,1.422.248,1.875.744.453.496.68,1.182.68,2.057v7.851h3.082v-8.332c0-1.047-.186-1.939-.557-2.678-.371-.738-.893-1.298-1.564-1.681-.672-.383-1.461-.575-2.368-.575-.984,0-1.795.217-2.431.651-.637.433-1.104,1.018-1.401,1.752h-.152v-2.238h-3.023v13.101h3.082v-7.664c0-.64.119-1.182.357-1.623"/>
      <path class="st9" d="M423.862,70.687c-.414-.288-.621-.718-.621-1.289,0-.398.106-.722.317-.972.21-.25.498-.447.861-.592.363-.144.775-.248,1.236-.311.203-.023.443-.054.721-.093.277-.039.56-.086.849-.141s.547-.115.774-.182c.226-.066.39-.138.492-.216v1.535c0,.484-.125.931-.375,1.342-.25.41-.602.738-1.055.984s-.992.369-1.617.369c-.64,0-1.168-.144-1.582-.434M426.446,73.102c.504-.196.926-.452,1.266-.768.34-.316.603-.654.791-1.014h.094v1.805h2.964v-8.766c0-.867-.156-1.589-.468-2.168-.313-.578-.731-1.039-1.254-1.382-.524-.344-1.098-.588-1.723-.733-.625-.144-1.25-.217-1.875-.217-.914,0-1.748.135-2.502.405-.754.269-1.393.672-1.916,1.207s-.898,1.201-1.125,1.998l2.871.41c.156-.445.455-.832.897-1.16.441-.328,1.041-.492,1.799-.492.718,0,1.265.175,1.64.527.375.351.563.844.563,1.476v.059c0,.297-.108.516-.323.656-.215.141-.56.243-1.037.305-.476.063-1.101.137-1.875.223-.633.062-1.246.17-1.84.322-.593.152-1.127.373-1.599.662-.473.289-.846.676-1.119,1.16-.274.485-.41,1.094-.41,1.828,0,.86.191,1.582.574,2.168.382.586.906,1.03,1.57,1.33.664.301,1.414.452,2.25.452.687,0,1.283-.098,1.787-.293M411.295,60.85c-.879-.66-2.088-.991-3.627-.991-1.047,0-1.969.164-2.766.493-.797.328-1.418.789-1.863,1.382-.445.594-.668,1.297-.668,2.11,0,.953.301,1.736.902,2.349.602.614,1.531,1.057,2.789,1.33l2.239.469c1.171.266,1.757.766,1.757,1.5,0,.438-.222.807-.668,1.108-.445.3-1.035.451-1.769.451-.703,0-1.279-.151-1.729-.451-.449-.301-.74-.745-.873-1.33l-3.011.281c.195,1.203.779,2.142,1.752,2.818.972.676,2.259,1.014,3.861,1.014,1.094,0,2.06-.176,2.9-.528.84-.351,1.498-.843,1.975-1.476.476-.633.715-1.359.715-2.18,0-.929-.305-1.687-.914-2.273-.61-.586-1.528-1.008-2.754-1.266l-2.239-.469c-.664-.148-1.138-.345-1.423-.591-.286-.246-.428-.561-.428-.944,0-.437.217-.797.65-1.078.434-.281.971-.422,1.612-.422.71,0,1.261.166,1.652.498s.645.713.762,1.143l2.8-.293c-.21-1.109-.755-1.994-1.634-2.654M392.121,70.277c-.457-.367-.803-.871-1.037-1.511-.235-.641-.352-1.367-.352-2.18s.115-1.535.346-2.168c.23-.633.576-1.129,1.037-1.488.461-.36,1.031-.539,1.711-.539.664,0,1.224.172,1.681.515.458.344.805.83,1.043,1.459.239.629.358,1.369.358,2.221,0,.844-.121,1.584-.363,2.221-.243.636-.592,1.133-1.049,1.488-.457.356-1.014.533-1.67.533-.68,0-1.248-.183-1.705-.551M394.845,72.979c.493-.254.887-.559,1.184-.915.297-.355.527-.693.691-1.013h.188v2.074h3.012v-17.461h-3.071v6.527h-.129c-.156-.312-.38-.65-.673-1.013-.293-.364-.686-.674-1.178-.932s-1.125-.387-1.899-.387c-1.007,0-1.918.258-2.73.774-.813.515-1.459,1.273-1.94,2.273-.48,1-.72,2.231-.72,3.692,0,1.437.234,2.66.703,3.668.469,1.007,1.111,1.775,1.928,2.302.816.528,1.736.791,2.759.791.758,0,1.383-.127,1.875-.38M377.347,63.838c.238-.441.566-.779.984-1.014.418-.234.896-.351,1.436-.351.796,0,1.421.248,1.875.744.453.496.679,1.182.679,2.056v7.852h3.082v-8.332c0-1.047-.185-1.939-.556-2.678-.372-.738-.893-1.299-1.565-1.681-.672-.383-1.461-.575-2.367-.575-.984,0-1.795.217-2.432.651-.637.433-1.103,1.017-1.4,1.752h-.152v-2.239h-3.024v13.102h3.082v-7.664c0-.641.119-1.182.358-1.623M368.57,72.92c.785-.309,1.43-.746,1.934-1.313.504-.566.849-1.228,1.037-1.986l-2.883-.34c-.141.375-.342.69-.604.944-.261.254-.574.443-.937.568-.363.125-.764.187-1.201.187-.672,0-1.26-.148-1.764-.445-.504-.297-.895-.728-1.172-1.295-.277-.566-.416-1.248-.416-2.045v-1.441c0-.648.121-1.236.364-1.764.242-.527.597-.947,1.066-1.26.469-.312,1.035-.468,1.699-.468s1.219.156,1.664.468c.446.313.781.745,1.008,1.295.227.551.34,1.198.34,1.94l1.441-.61h-9.199v2.075h10.734v-.961c0-1.149-.16-2.139-.48-2.971-.32-.832-.76-1.518-1.318-2.057-.559-.539-1.2-.937-1.922-1.195-.723-.258-1.487-.387-2.291-.387-1.25,0-2.336.286-3.258.856-.922.57-1.637,1.365-2.145,2.385-.508,1.019-.761,2.205-.761,3.556,0,1.367.255,2.555.767,3.563.512,1.008,1.244,1.787,2.198,2.338.953.55,2.085.826,3.398.826,1.015,0,1.916-.155,2.701-.463M352.767,69.691c0,1.118.347,1.998,1.043,2.643.695.645,1.652.967,2.871.967.336,0,.672-.026,1.008-.076.335-.051.668-.127.996-.229l-.528-2.414c-.133.031-.281.059-.445.082-.164.023-.313.035-.445.035-.492,0-.852-.123-1.078-.369-.227-.246-.34-.627-.34-1.143v-12.281h-3.082v12.785ZM350.927,62.414h7.512v-2.391h-7.512v2.391ZM337.832,60.023l3.879,6.563-3.973,6.539h3.27l2.73-4.711,2.777,4.711h3.247l-4.008-6.539,3.937-6.563h-3.269l-2.684,4.852-2.637-4.852h-3.269ZM333.874,72.92c.785-.309,1.429-.746,1.933-1.313.504-.566.85-1.228,1.037-1.986l-2.882-.34c-.141.375-.342.69-.604.944-.262.254-.574.443-.937.568-.364.125-.764.187-1.202.187-.672,0-1.259-.148-1.763-.445-.504-.297-.895-.728-1.172-1.295-.278-.566-.416-1.248-.416-2.045v-1.441c0-.648.121-1.236.363-1.764.242-.527.598-.947,1.066-1.26.469-.312,1.036-.468,1.7-.468s1.218.156,1.664.468c.445.313.781.745,1.008,1.295.226.551.339,1.198.339,1.94l1.442-.61h-9.199v2.075h10.734v-.961c0-1.149-.16-2.139-.48-2.971-.321-.832-.76-1.518-1.319-2.057s-1.199-.937-1.922-1.195c-.722-.258-1.486-.387-2.291-.387-1.25,0-2.336.286-3.258.856-.921.57-1.636,1.365-2.144,2.385-.508,1.019-.762,2.205-.762,3.556,0,1.367.256,2.555.768,3.563.511,1.008,1.244,1.787,2.197,2.338.953.55,2.086.826,3.398.826,1.016,0,1.916-.155,2.702-.463M313.806,73.125v-7.687c0-.563.127-1.055.381-1.477.254-.422.604-.754,1.049-.996.445-.242.953-.363,1.523-.363.258,0,.528.015.809.046.281.032.488.071.621.118v-2.836c-.141-.024-.318-.043-.533-.059-.215-.015-.404-.023-.569-.023-.75,0-1.417.205-2.003.615-.586.41-.997.998-1.231,1.764h-.141v-2.204h-2.988v13.102h3.082ZM300.498,70.33c-.468-.379-.818-.892-1.048-1.541-.231-.648-.346-1.367-.346-2.156,0-.805.115-1.531.346-2.18.23-.648.58-1.162,1.048-1.541.469-.379,1.051-.568,1.747-.568.71,0,1.296.189,1.757.568.461.379.807.893,1.037,1.541.231.649.346,1.375.346,2.18,0,.789-.115,1.508-.346,2.156-.23.649-.576,1.162-1.037,1.541-.461.379-1.047.568-1.757.568-.696,0-1.278-.189-1.747-.568M305.573,72.539c.937-.562,1.664-1.351,2.179-2.367.516-1.016.774-2.195.774-3.539,0-1.352-.258-2.537-.774-3.557-.515-1.019-1.242-1.81-2.179-2.373-.938-.562-2.047-.844-3.328-.844s-2.391.282-3.329.844c-.937.563-1.662,1.354-2.173,2.373-.512,1.02-.768,2.205-.768,3.557,0,1.344.256,2.523.768,3.539.511,1.016,1.236,1.805,2.173,2.367.938.563,2.047.844,3.329.844s2.39-.281,3.328-.844M289.224,69.691c0,1.118.348,1.998,1.043,2.643.695.645,1.652.967,2.871.967.336,0,.672-.026,1.008-.076.336-.051.668-.127.996-.229l-.527-2.414c-.133.031-.282.059-.446.082-.164.023-.312.035-.445.035-.492,0-.852-.123-1.078-.369-.227-.246-.34-.627-.34-1.143v-12.281h-3.082v12.785ZM287.384,62.414h7.512v-2.391h-7.512v2.391ZM285.487,57.691c.352-.328.528-.726.528-1.195,0-.461-.176-.855-.528-1.183-.351-.329-.769-.493-1.253-.493-.493,0-.914.164-1.266.493-.352.328-.527.726-.527,1.195,0,.461.175.855.527,1.183.352.329.773.493,1.266.493.484,0,.902-.164,1.253-.493M285.769,60.023h-3.082v13.102h3.082v-13.102ZM272.555,70.295c-.461-.355-.811-.852-1.049-1.488-.239-.637-.358-1.377-.358-2.221,0-.852.119-1.592.358-2.221.238-.629.586-1.115,1.043-1.459.457-.343,1.017-.515,1.681-.515.688,0,1.258.179,1.711.539.453.359.797.855,1.032,1.488.234.633.351,1.355.351,2.168s-.117,1.539-.351,2.18c-.235.64-.58,1.144-1.037,1.511-.457.368-1.026.551-1.706.551-.656,0-1.214-.177-1.675-.533M277.846,72.568c.816-.527,1.459-1.295,1.927-2.302.469-1.008.704-2.231.704-3.668,0-1.461-.241-2.692-.721-3.692-.481-1-1.127-1.758-1.94-2.273-.812-.516-1.722-.774-2.73-.774-.774,0-1.408.129-1.904.387-.497.258-.889.568-1.178.932-.289.363-.512.701-.668,1.013h-.129v-6.527h-3.082v17.461h3.023v-2.074h.188c.156.32.385.658.685,1.013.301.356.7.661,1.196.915.496.253,1.115.38,1.857.38,1.031,0,1.955-.263,2.772-.791M265.037,57.691c.352-.328.528-.726.528-1.195,0-.461-.176-.855-.528-1.183-.351-.329-.769-.493-1.253-.493-.493,0-.915.164-1.266.493-.352.328-.527.726-.527,1.195,0,.461.175.855.527,1.183.351.329.773.493,1.266.493.484,0,.902-.164,1.253-.493M265.319,60.023h-3.082v13.102h3.082v-13.102ZM251.365,63.838c.242-.441.576-.779,1.002-1.014.426-.234.912-.351,1.459-.351.812,0,1.445.244,1.898.732.453.488.68,1.178.68,2.068v7.852h3.094v-8.332c0-1.055-.188-1.949-.563-2.684-.375-.734-.9-1.293-1.576-1.675-.676-.383-1.467-.575-2.373-.575-1.008,0-1.832.215-2.473.645-.64.43-1.113,1.016-1.418,1.758h-.164v-6.598h-3.011v17.461h3.082v-7.664c0-.641.121-1.182.363-1.623M234.306,60.023l3.879,6.563-3.973,6.539h3.27l2.73-4.711,2.777,4.711h3.246l-4.007-6.539,3.937-6.563h-3.269l-2.684,4.852-2.637-4.852h-3.269ZM230.348,72.92c.785-.309,1.429-.746,1.933-1.313.504-.566.85-1.228,1.037-1.986l-2.883-.34c-.14.375-.341.69-.603.944-.262.254-.574.443-.938.568-.363.125-.763.187-1.201.187-.672,0-1.259-.148-1.763-.445-.504-.297-.895-.728-1.172-1.295-.278-.566-.416-1.248-.416-2.045v-1.441c0-.648.121-1.236.363-1.764.242-.527.598-.947,1.066-1.26.469-.312,1.036-.468,1.7-.468s1.218.156,1.664.468c.445.313.781.745,1.008,1.295.226.551.339,1.198.339,1.94l1.442-.61h-9.199v2.075h10.734v-.961c0-1.149-.16-2.139-.481-2.971-.32-.832-.759-1.518-1.318-2.057-.559-.539-1.199-.937-1.922-1.195s-1.486-.387-2.291-.387c-1.25,0-2.336.286-3.258.856-.922.57-1.636,1.365-2.144,2.385-.508,1.019-.762,2.205-.762,3.556,0,1.367.256,2.555.768,3.563.511,1.008,1.244,1.787,2.197,2.338.953.55,2.086.826,3.398.826,1.016,0,1.916-.155,2.702-.463M205.739,70.277c-.457-.367-.803-.871-1.037-1.511-.234-.641-.352-1.367-.352-2.18s.116-1.535.346-2.168c.231-.633.576-1.129,1.037-1.488.461-.36,1.032-.539,1.711-.539.664,0,1.225.172,1.682.515.457.344.804.83,1.043,1.459.238.629.357,1.369.357,2.221,0,.844-.121,1.584-.363,2.221-.242.636-.592,1.133-1.049,1.488-.457.356-1.014.533-1.67.533-.679,0-1.248-.183-1.705-.551M208.464,72.979c.492-.254.886-.559,1.183-.915.297-.355.528-.693.692-1.013h.187v2.074h3.012v-17.461h-3.07v6.527h-.129c-.157-.312-.381-.65-.674-1.013-.293-.364-.686-.674-1.178-.932-.492-.258-1.125-.387-1.898-.387-1.008,0-1.918.258-2.731.774-.812.515-1.459,1.273-1.939,2.273-.481,1-.721,2.231-.721,3.692,0,1.437.235,2.66.703,3.668.469,1.007,1.112,1.775,1.928,2.302.816.528,1.736.791,2.76.791.757,0,1.383-.127,1.875-.38M191.315,70.687c-.414-.288-.621-.718-.621-1.289,0-.398.106-.722.317-.972.211-.25.498-.447.861-.592.363-.144.775-.248,1.236-.311.203-.023.444-.054.721-.093.277-.039.561-.086.85-.141.289-.055.546-.115.773-.182.227-.066.391-.138.492-.216v1.535c0,.484-.125.931-.375,1.342-.25.41-.601.738-1.054.984-.454.246-.993.369-1.618.369-.64,0-1.168-.144-1.582-.434M193.899,73.102c.504-.196.926-.452,1.266-.768s.604-.654.791-1.014h.094v1.805h2.965v-8.766c0-.867-.157-1.589-.469-2.168-.313-.578-.731-1.039-1.254-1.382-.523-.344-1.098-.588-1.723-.733-.625-.144-1.25-.217-1.875-.217-.914,0-1.748.135-2.502.405-.754.269-1.392.672-1.916,1.207-.523.535-.898,1.201-1.125,1.998l2.871.41c.157-.445.456-.832.897-1.16.441-.328,1.041-.492,1.799-.492.718,0,1.265.175,1.64.527.375.351.563.844.563,1.476v.059c0,.297-.108.516-.322.656-.215.141-.561.243-1.037.305-.477.063-1.102.137-1.875.223-.633.062-1.247.17-1.84.322-.594.152-1.127.373-1.6.662-.473.289-.846.676-1.119,1.16-.274.485-.41,1.094-.41,1.828,0,.86.191,1.582.574,2.168s.906,1.03,1.57,1.33c.664.301,1.414.452,2.25.452.688,0,1.284-.098,1.787-.293M183.172,72.92c.785-.309,1.43-.746,1.934-1.313.504-.566.849-1.228,1.037-1.986l-2.883-.34c-.14.375-.342.69-.603.944-.262.254-.575.443-.938.568-.363.125-.764.187-1.201.187-.672,0-1.26-.148-1.764-.445-.504-.297-.894-.728-1.172-1.295-.277-.566-.416-1.248-.416-2.045v-1.441c0-.648.121-1.236.364-1.764.242-.527.597-.947,1.066-1.26.469-.312,1.035-.468,1.699-.468s1.219.156,1.664.468c.446.313.782.745,1.008,1.295.227.551.34,1.198.34,1.94l1.441-.61h-9.199v2.075h10.735v-.961c0-1.149-.161-2.139-.481-2.971s-.76-1.518-1.318-2.057c-.559-.539-1.2-.937-1.922-1.195-.723-.258-1.487-.387-2.291-.387-1.25,0-2.336.286-3.258.856-.922.57-1.637,1.365-2.144,2.385-.508,1.019-.762,2.205-.762,3.556,0,1.367.256,2.555.767,3.563.512,1.008,1.244,1.787,2.198,2.338.953.55,2.086.826,3.398.826,1.016,0,1.916-.155,2.701-.463M160.43,73.125v-7.406h8.086v7.406h3.164v-17.461h-3.164v7.395h-8.086v-7.395h-3.164v17.461h3.164Z"/>
    </g>
    <polygon class="st8" points="28.176 22.137 24.582 24.422 24.582 27.157 27.903 25.057 27.99 25.057 27.99 36.688 31.057 36.688 31.057 22.137 28.176 22.137"/>
  </g>
</svg>