<?xml version="1.0" encoding="UTF-8"?>
<svg id="Layer_1" xmlns="http://www.w3.org/2000/svg" width="492" height="189" xmlns:xlink="http://www.w3.org/1999/xlink" version="1.1" viewBox="0 0 492 189">
  <!-- Generator: Adobe Illustrator 29.5.0, SVG Export Plug-In . SVG Version: 2.1.0 Build 137)  -->
  <defs>
    <style>
      .st0 {
        fill: none;
      }

      .st1 {
        fill: #fff;
      }

      .st2 {
        fill: #00beb4;
      }

      .st3 {
        clip-path: url(#clippath);
      }
    </style>
    <clipPath id="clippath">
      <rect class="st0" width="492" height="189"/>
    </clipPath>
  </defs>
  <g class="st3">
    <rect class="st2" width="492" height="189" rx="12" ry="12"/>
    <path class="st1" d="M78.142,119.74v-4.788c0-.506-.254-.76-.76-.76h-17.404c-.102,0-.178-.038-.228-.114-.051-.076-.051-.164,0-.266l3.724-5.396c4.053-6.029,6.713-10.057,7.98-12.084,1.824-2.938,3.179-5.687,4.066-8.246.886-2.558,1.33-5.079,1.33-7.562,0-4.154-1.166-7.498-3.496-10.032-2.331-2.533-5.396-3.8-9.196-3.8s-6.916,1.216-9.348,3.648c-2.432,2.432-3.724,5.65-3.876,9.652v3.268c0,.507.253.76.76.76h5.928c.506,0,.76-.253.76-.76v-3.04c-.051-2.178.43-3.926,1.444-5.244,1.013-1.317,2.356-1.976,4.028-1.976s3.027.672,4.066,2.014c1.038,1.343,1.558,3.154,1.558,5.434,0,3.446-1.52,7.752-4.56,12.92-2.635,4.307-6.359,9.931-11.172,16.872l-2.356,3.496c-.203.254-.304.583-.304.988v5.016c0,.507.253.76.76.76h25.536c.506,0,.76-.253.76-.76M109.75,119.74v-4.788c0-.506-.254-.76-.76-.76h-17.404c-.102,0-.178-.038-.228-.114-.051-.076-.051-.164,0-.266l3.724-5.396c4.053-6.029,6.713-10.057,7.98-12.084,1.824-2.938,3.179-5.687,4.066-8.246.886-2.558,1.33-5.079,1.33-7.562,0-4.154-1.166-7.498-3.496-10.032-2.331-2.533-5.396-3.8-9.196-3.8s-6.916,1.216-9.348,3.648c-2.432,2.432-3.724,5.65-3.876,9.652v3.268c0,.507.253.76.76.76h5.928c.506,0,.76-.253.76-.76v-3.04c-.051-2.178.43-3.926,1.444-5.244,1.013-1.317,2.356-1.976,4.028-1.976s3.027.672,4.066,2.014c1.038,1.343,1.558,3.154,1.558,5.434,0,3.446-1.52,7.752-4.56,12.92-2.635,4.307-6.359,9.931-11.172,16.872l-2.356,3.496c-.203.254-.304.583-.304.988v5.016c0,.507.253.76.76.76h25.536c.506,0,.76-.253.76-.76M124,120.499c0,9.925-8.075,18-18,18h-52c-9.925,0-18-8.075-18-18v-52c0-9.925,8.075-18,18-18h52c9.925,0,18,8.075,18,18v52ZM130,120.499v-52c0-13.233-10.767-23.999-24-23.999h-52c-13.234,0-24,10.766-24,23.999v52c0,13.233,10.766,24,24,24h52c13.233,0,24-10.767,24-24"/>
    <path class="st1" d="M29,46c9.389,0,17-7.611,17-17s-7.611-17-17-17-17,7.611-17,17,7.611,17,17,17"/>
    <path class="st2" d="M31.949,36.331c.876-.368,1.561-.879,2.056-1.533.494-.655.742-1.402.742-2.241,0-.899-.285-1.647-.855-2.247-.569-.598-1.414-.963-2.534-1.093v-.108c.84-.123,1.527-.452,2.061-.986.533-.534.801-1.204.801-2.012,0-.794-.22-1.505-.66-2.134-.439-.628-1.054-1.124-1.845-1.489-.791-.364-1.708-.547-2.749-.547-1.049,0-1.983.188-2.803.562-.82.374-1.468.892-1.943,1.553-.476.66-.717,1.424-.723,2.29h3.369c.006-.332.101-.622.283-.869.182-.248.431-.441.747-.582.316-.139.669-.21,1.06-.21.377,0,.706.071.986.21.28.141.498.332.654.577.157.244.235.532.235.864s-.093.627-.278.884c-.186.257-.442.457-.767.6-.326.144-.703.215-1.133.215h-1.416v2.5h1.416c.495,0,.921.075,1.279.225s.637.355.835.615c.199.26.298.566.298.918,0,.339-.089.638-.268.898-.179.261-.429.464-.747.611-.319.146-.687.219-1.104.219-.41,0-.781-.066-1.113-.2-.332-.133-.594-.322-.786-.566-.192-.244-.292-.526-.298-.845h-3.535c.006.879.255,1.655.747,2.329.491.674,1.165,1.2,2.021,1.577.856.378,1.838.567,2.945.567,1.139,0,2.146-.184,3.022-.552"/>
    <path class="st1" d="M387.346,132.779c.363-.363.545-.806.545-1.33s-.182-.967-.545-1.33-.811-.545-1.342-.545-.978.182-1.342.545c-.363.363-.545.807-.545,1.33s.182.967.545,1.33c.364.364.811.545,1.342.545s.979-.181,1.342-.545M379.895,120.85c-.879-.66-2.088-.991-3.627-.991-1.047,0-1.968.164-2.765.493-.797.328-1.418.789-1.864,1.382-.445.594-.668,1.297-.668,2.11,0,.953.301,1.736.903,2.349.601.614,1.531,1.057,2.789,1.33l2.238.469c1.172.266,1.758.766,1.758,1.5,0,.438-.223.807-.668,1.108-.445.3-1.035.451-1.77.451-.703,0-1.279-.151-1.728-.451-.449-.301-.74-.745-.873-1.33l-3.012.281c.195,1.203.779,2.142,1.752,2.818.973.676,2.26,1.014,3.861,1.014,1.094,0,2.061-.176,2.901-.528.84-.351,1.498-.843,1.974-1.476.477-.633.715-1.359.715-2.18,0-.929-.304-1.687-.914-2.273-.609-.586-1.527-1.008-2.754-1.266l-2.238-.469c-.664-.148-1.139-.345-1.424-.591-.285-.246-.428-.561-.428-.944,0-.437.217-.797.651-1.078.433-.281.97-.422,1.611-.422.711,0,1.262.166,1.653.498.39.332.644.713.761,1.143l2.801-.293c-.211-1.109-.756-1.994-1.635-2.654M365.19,133.125v-7.687c0-.563.127-1.055.381-1.477.254-.422.604-.754,1.049-.996.445-.242.953-.363,1.523-.363.258,0,.528.015.809.046.281.032.488.071.621.118v-2.836c-.141-.024-.318-.043-.533-.059-.215-.015-.404-.023-.568-.023-.75,0-1.418.205-2.004.615-.586.41-.996.998-1.231,1.764h-.14v-2.204h-2.989v13.102h3.082ZM356.771,132.92c.785-.309,1.43-.746,1.934-1.313.504-.566.849-1.228,1.037-1.986l-2.883-.34c-.14.375-.342.69-.603.944-.262.254-.575.443-.938.568-.363.125-.764.187-1.201.187-.672,0-1.26-.148-1.764-.445-.504-.297-.894-.728-1.172-1.295-.277-.566-.416-1.248-.416-2.045v-1.441c0-.648.121-1.236.364-1.764.242-.527.597-.947,1.066-1.26.469-.312,1.035-.468,1.699-.468s1.219.156,1.664.468c.446.313.782.745,1.008,1.295.227.551.34,1.198.34,1.94l1.441-.61h-9.199v2.075h10.735v-.961c0-1.149-.161-2.139-.481-2.971s-.76-1.518-1.318-2.057c-.559-.539-1.2-.937-1.922-1.195-.723-.258-1.487-.387-2.291-.387-1.25,0-2.336.286-3.258.856-.922.57-1.637,1.365-2.144,2.385-.508,1.019-.762,2.205-.762,3.556,0,1.367.256,2.555.767,3.563.512,1.008,1.244,1.787,2.198,2.338.953.55,2.086.826,3.398.826,1.016,0,1.916-.155,2.701-.463M338.173,130.295c-.461-.355-.81-.852-1.048-1.488-.239-.637-.358-1.377-.358-2.221,0-.852.119-1.592.358-2.221.238-.629.585-1.115,1.042-1.459.458-.343,1.018-.515,1.682-.515.687,0,1.258.179,1.711.539.453.359.797.855,1.031,1.488.235.633.352,1.355.352,2.168s-.117,1.539-.352,2.18c-.234.64-.58,1.144-1.037,1.511-.457.368-1.025.551-1.705.551-.656,0-1.215-.177-1.676-.533M343.464,132.568c.817-.527,1.459-1.295,1.928-2.302.469-1.008.703-2.231.703-3.668,0-1.461-.24-2.692-.72-3.692-.481-1-1.128-1.758-1.94-2.273-.813-.516-1.723-.774-2.73-.774-.774,0-1.409.129-1.905.387-.496.258-.889.568-1.177.932-.29.363-.512.701-.668,1.013h-.129v-6.527h-3.082v17.461h3.023v-2.074h.188c.156.32.384.658.685,1.013.301.356.699.661,1.195.915.496.253,1.116.38,1.858.38,1.031,0,1.955-.263,2.771-.791M315.636,133.125v-7.969c0-.531.107-1,.322-1.406s.506-.723.873-.949c.367-.227.773-.34,1.219-.34.656,0,1.183.201,1.582.603.398.403.597.944.597,1.623v8.438h3.047v-8.18c0-.726.207-1.322.621-1.787.414-.465.992-.697,1.735-.697.625,0,1.154.189,1.588.568.433.379.65.971.65,1.776v8.32h3.094v-8.789c0-1.461-.381-2.572-1.143-3.334-.762-.762-1.744-1.143-2.947-1.143-.953,0-1.774.219-2.461.657-.688.437-1.18,1.019-1.477,1.746h-.14c-.242-.742-.668-1.328-1.278-1.758-.609-.43-1.359-.645-2.25-.645-.867,0-1.617.213-2.25.639-.632.426-1.086,1.014-1.359,1.764h-.164v-2.239h-2.941v13.102h3.082ZM307.217,132.92c.785-.309,1.429-.746,1.933-1.313.504-.566.85-1.228,1.037-1.986l-2.882-.34c-.141.375-.342.69-.604.944-.262.254-.574.443-.937.568-.364.125-.764.187-1.202.187-.672,0-1.259-.148-1.763-.445s-.895-.728-1.172-1.295c-.278-.566-.416-1.248-.416-2.045v-1.441c0-.648.121-1.236.363-1.764.242-.527.598-.947,1.066-1.26.469-.312,1.036-.468,1.7-.468s1.218.156,1.664.468c.445.313.781.745,1.008,1.295.226.551.339,1.198.339,1.94l1.442-.61h-9.199v2.075h10.734v-.961c0-1.149-.16-2.139-.481-2.971-.32-.832-.759-1.518-1.318-2.057-.559-.539-1.199-.937-1.922-1.195-.722-.258-1.486-.387-2.291-.387-1.25,0-2.336.286-3.258.856-.922.57-1.636,1.365-2.144,2.385-.508,1.019-.762,2.205-.762,3.556,0,1.367.256,2.555.768,3.563.511,1.008,1.244,1.787,2.197,2.338.953.55,2.086.826,3.398.826,1.016,0,1.916-.155,2.702-.463M280.691,133.125v-7.969c0-.531.107-1,.322-1.406s.506-.723.873-.949c.367-.227.773-.34,1.219-.34.656,0,1.183.201,1.582.603.398.403.597.944.597,1.623v8.438h3.047v-8.18c0-.726.207-1.322.621-1.787.414-.465.993-.697,1.735-.697.625,0,1.154.189,1.588.568.433.379.65.971.65,1.776v8.32h3.094v-8.789c0-1.461-.381-2.572-1.143-3.334-.761-.762-1.744-1.143-2.947-1.143-.953,0-1.774.219-2.461.657-.687.437-1.18,1.019-1.476,1.746h-.141c-.242-.742-.668-1.328-1.277-1.758-.61-.43-1.36-.645-2.25-.645-.868,0-1.618.213-2.25.639-.633.426-1.086,1.014-1.36,1.764h-.164v-2.239h-2.941v13.102h3.082ZM261.502,130.277c-.457-.367-.803-.871-1.037-1.511-.234-.641-.351-1.367-.351-2.18s.115-1.535.345-2.168c.231-.633.576-1.129,1.037-1.488.461-.36,1.032-.539,1.711-.539.664,0,1.225.172,1.682.515.457.344.805.83,1.043,1.459.238.629.357,1.369.357,2.221,0,.844-.121,1.584-.363,2.221-.242.636-.592,1.133-1.049,1.488-.457.356-1.013.533-1.67.533-.679,0-1.248-.183-1.705-.551M264.227,132.979c.492-.254.886-.559,1.183-.915.297-.355.528-.693.692-1.013h.187v2.074h3.012v-17.461h-3.07v6.527h-.129c-.157-.312-.381-.65-.674-1.013-.293-.364-.686-.674-1.178-.932-.492-.258-1.125-.387-1.898-.387-1.008,0-1.918.258-2.731.774-.812.515-1.459,1.273-1.939,2.273-.481,1-.721,2.231-.721,3.692,0,1.437.235,2.66.703,3.668.469,1.007,1.112,1.775,1.928,2.302.816.528,1.736.791,2.76.791.758,0,1.383-.127,1.875-.38M252.208,132.92c.785-.309,1.43-.746,1.934-1.313.504-.566.85-1.228,1.037-1.986l-2.883-.34c-.14.375-.342.69-.603.944-.262.254-.575.443-.938.568s-.764.187-1.201.187c-.672,0-1.26-.148-1.764-.445s-.894-.728-1.172-1.295c-.277-.566-.416-1.248-.416-2.045v-1.441c0-.648.121-1.236.364-1.764.242-.527.597-.947,1.066-1.26.469-.312,1.035-.468,1.699-.468s1.219.156,1.664.468c.446.313.782.745,1.008,1.295.227.551.34,1.198.34,1.94l1.441-.61h-9.199v2.075h10.735v-.961c0-1.149-.161-2.139-.481-2.971-.32-.832-.76-1.518-1.318-2.057-.559-.539-1.2-.937-1.922-1.195-.723-.258-1.487-.387-2.291-.387-1.25,0-2.336.286-3.258.856-.922.57-1.637,1.365-2.144,2.385-.508,1.019-.762,2.205-.762,3.556,0,1.367.256,2.555.767,3.563.512,1.008,1.244,1.787,2.198,2.338.953.55,2.086.826,3.398.826,1.016,0,1.916-.155,2.701-.463M237.885,133.125v-7.687c0-.563.127-1.055.381-1.477.254-.422.603-.754,1.049-.996.445-.242.953-.363,1.523-.363.258,0,.527.015.809.046.281.032.488.071.621.118v-2.836c-.141-.024-.319-.043-.533-.059-.215-.015-.405-.023-.569-.023-.75,0-1.418.205-2.004.615-.586.41-.996.998-1.23,1.764h-.141v-2.204h-2.988v13.102h3.082ZM229.466,132.92c.785-.309,1.43-.746,1.934-1.313.503-.566.849-1.228,1.037-1.986l-2.883-.34c-.141.375-.342.69-.604.944-.262.254-.574.443-.937.568-.363.125-.764.187-1.201.187-.672,0-1.26-.148-1.764-.445s-.895-.728-1.172-1.295c-.277-.566-.416-1.248-.416-2.045v-1.441c0-.648.121-1.236.363-1.764.242-.527.598-.947,1.067-1.26.469-.312,1.035-.468,1.699-.468s1.219.156,1.664.468c.445.313.781.745,1.008,1.295.226.551.34,1.198.34,1.94l1.441-.61h-9.199v2.075h10.734v-.961c0-1.149-.16-2.139-.48-2.971-.321-.832-.76-1.518-1.319-2.057-.558-.539-1.199-.937-1.921-1.195-.723-.258-1.487-.387-2.291-.387-1.25,0-2.336.286-3.258.856-.922.57-1.637,1.365-2.145,2.385-.508,1.019-.761,2.205-.761,3.556,0,1.367.255,2.555.767,3.563.512,1.008,1.244,1.787,2.197,2.338.953.55,2.086.826,3.399.826,1.015,0,1.916-.155,2.701-.463M213.663,129.691c0,1.118.347,1.998,1.042,2.643.696.645,1.653.967,2.872.967.335,0,.671-.026,1.007-.076.336-.051.668-.127.996-.229l-.527-2.414c-.133.031-.281.059-.445.082-.164.023-.313.035-.445.035-.493,0-.852-.123-1.079-.369-.226-.246-.339-.627-.339-1.143v-12.281h-3.082v12.785ZM211.823,122.414h7.512v-2.391h-7.512v2.391ZM208.838,120.85c-.879-.66-2.088-.991-3.627-.991-1.047,0-1.969.164-2.766.493-.797.328-1.418.789-1.863,1.382-.445.594-.668,1.297-.668,2.11,0,.953.301,1.736.902,2.349.602.614,1.532,1.057,2.789,1.33l2.239.469c1.172.266,1.758.766,1.758,1.5,0,.438-.223.807-.668,1.108-.446.3-1.036.451-1.77.451-.703,0-1.279-.151-1.728-.451-.45-.301-.741-.745-.874-1.33l-3.011.281c.195,1.203.779,2.142,1.752,2.818.972.676,2.259,1.014,3.861,1.014,1.094,0,2.061-.176,2.9-.528.84-.351,1.498-.843,1.975-1.476.476-.633.715-1.359.715-2.18,0-.929-.305-1.687-.914-2.273-.61-.586-1.528-1.008-2.754-1.266l-2.238-.469c-.664-.148-1.139-.345-1.424-.591-.285-.246-.428-.561-.428-.944,0-.437.217-.797.65-1.078.434-.281.971-.422,1.612-.422.711,0,1.261.166,1.652.498.391.332.645.713.762,1.143l2.801-.293c-.211-1.109-.756-1.994-1.635-2.654M197.212,117.691c.352-.328.528-.726.528-1.195,0-.461-.176-.855-.528-1.183-.351-.329-.769-.493-1.253-.493-.493,0-.915.164-1.266.493-.352.328-.527.726-.527,1.195,0,.461.175.855.527,1.183.351.329.773.493,1.266.493.484,0,.902-.164,1.253-.493M197.494,120.023h-3.082v13.102h3.082v-13.102ZM183.793,130.014c-.465-.332-.815-.799-1.049-1.401-.234-.601-.352-1.3-.352-2.097,0-.789.116-1.495.346-2.116.23-.621.576-1.111,1.037-1.47.461-.36,1.035-.539,1.723-.539.664,0,1.226.172,1.687.515.461.344.809.825,1.043,1.442.235.617.352,1.34.352,2.168,0,1.25-.268,2.228-.803,2.935s-1.295,1.061-2.279,1.061c-.672,0-1.241-.166-1.705-.498M188.633,137.76c.925-.364,1.654-.912,2.185-1.647.531-.734.797-1.66.797-2.777v-13.313h-3.012v2.168h-.164c-.164-.312-.394-.65-.691-1.013-.297-.364-.696-.674-1.195-.932-.501-.258-1.133-.387-1.899-.387-1.008,0-1.922.258-2.742.774-.82.515-1.471,1.269-1.951,2.262-.481.992-.721,2.207-.721,3.644,0,1.422.24,2.606.721,3.551.48.945,1.129,1.656,1.945,2.133.816.476,1.725.715,2.725.715.757,0,1.384-.116,1.88-.346.497-.231.897-.512,1.202-.844.304-.332.531-.654.679-.967h.176v2.473c0,.961-.287,1.654-.861,2.08-.574.426-1.299.639-2.174.639-.617,0-1.129-.084-1.535-.252-.406-.168-.731-.379-.973-.633-.242-.254-.426-.51-.551-.768l-2.765.68c.273.914.886,1.693,1.84,2.338.953.644,2.261.967,3.925.967,1.18,0,2.233-.182,3.159-.545M174.542,132.92c.785-.309,1.43-.746,1.934-1.313.504-.566.85-1.228,1.037-1.986l-2.883-.34c-.14.375-.342.69-.603.944-.262.254-.575.443-.938.568-.363.125-.764.187-1.201.187-.672,0-1.26-.148-1.764-.445s-.894-.728-1.172-1.295c-.277-.566-.416-1.248-.416-2.045v-1.441c0-.648.121-1.236.364-1.764.242-.527.597-.947,1.066-1.26.469-.312,1.035-.468,1.699-.468s1.219.156,1.664.468c.446.313.782.745,1.008,1.295.227.551.34,1.198.34,1.94l1.441-.61h-9.199v2.075h10.735v-.961c0-1.149-.161-2.139-.481-2.971-.32-.832-.76-1.518-1.318-2.057-.559-.539-1.2-.937-1.922-1.195-.723-.258-1.487-.387-2.291-.387-1.25,0-2.336.286-3.258.856-.922.57-1.637,1.365-2.144,2.385-.508,1.019-.762,2.205-.762,3.556,0,1.367.256,2.555.767,3.563.512,1.008,1.244,1.787,2.198,2.338.953.55,2.086.826,3.398.826,1.016,0,1.916-.155,2.701-.463M160.219,133.125v-7.687c0-.563.127-1.055.381-1.477.254-.422.603-.754,1.049-.996.445-.242.953-.363,1.523-.363.258,0,.527.015.809.046.281.032.488.071.621.118v-2.836c-.141-.024-.319-.043-.533-.059-.215-.015-.405-.023-.569-.023-.75,0-1.418.205-2.004.615-.586.41-.996.998-1.23,1.764h-.141v-2.204h-2.988v13.102h3.082Z"/>
    <path class="st1" d="M362.004,102.991c.821-.262,1.543-.674,2.168-1.237.133-.093.262-.187.387-.281s.258-.191.399-.293c.421-.336.828-.783,1.218-1.342.391-.558.707-1.246.95-2.062.242-.817.363-1.776.363-2.877h-2.66c0,.89-.149,1.701-.446,2.431-.297.731-.693,1.358-1.189,1.881-.496.524-1.047.928-1.652,1.213-.606.285-1.225.428-1.858.428-.562,0-1.055-.113-1.476-.34-.422-.226-.75-.527-.985-.902-.234-.375-.351-.793-.351-1.254,0-.305.123-.67.369-1.096.246-.426.658-.853,1.236-1.283l3.539-2.578c.727-.531,1.295-1.121,1.705-1.77.41-.648.615-1.383.615-2.203,0-.719-.177-1.377-.533-1.974-.355-.598-.865-1.079-1.529-1.442-.664-.363-1.457-.545-2.379-.545-.914,0-1.713.186-2.396.557-.684.371-1.217.881-1.6,1.529-.383.649-.574,1.387-.574,2.215,0,.727.15,1.4.451,2.021.301.622.683,1.221,1.148,1.799.465.579.951,1.165,1.459,1.758l6.797,7.781h3.352l-8.192-9.586c-.39-.476-.76-.925-1.107-1.347-.348-.422-.627-.83-.838-1.225-.211-.394-.316-.779-.316-1.154,0-.32.078-.619.234-.897.156-.277.375-.501.656-.673.282-.172.606-.258.973-.258.555,0,.988.168,1.301.504.312.336.468.691.468,1.066,0,.445-.119.828-.357,1.149-.238.32-.58.636-1.025.949l-3.106,2.109c-.648.469-1.228.932-1.74,1.389-.512.457-.914.953-1.207,1.488-.293.535-.44,1.151-.44,1.846,0,.93.231,1.763.692,2.502.461.738,1.123,1.322,1.986,1.752.863.429,1.889.644,3.076.644.789,0,1.594-.131,2.414-.392M344.111,103.125v-14.109c0-.516.123-.914.369-1.195.246-.282.654-.422,1.225-.422.25,0,.472.021.668.064.195.043.355.088.48.135l.633-2.391c-.196-.07-.502-.148-.92-.234-.418-.086-.897-.129-1.436-.129-.75,0-1.435.145-2.056.434-.621.289-1.116.726-1.483,1.312-.367.586-.551,1.321-.551,2.203v14.332h3.071ZM339.119,92.414h7.723v-2.391h-7.723v2.391ZM334.309,103.125h3.082v-17.461h-3.082v17.461ZM328.984,102.92c.785-.308,1.429-.746,1.933-1.312.504-.567.85-1.229,1.038-1.987l-2.883-.339c-.141.375-.342.689-.604.943-.262.254-.574.443-.937.568-.364.125-.764.188-1.201.188-.672,0-1.26-.148-1.764-.445-.504-.297-.895-.729-1.172-1.295-.277-.567-.416-1.248-.416-2.045v-1.442c0-.648.121-1.236.363-1.763.242-.528.598-.948,1.067-1.26.468-.313,1.035-.469,1.699-.469s1.219.156,1.664.469c.445.312.781.744,1.008,1.295.226.551.34,1.197.34,1.939l1.441-.609h-9.199v2.074h10.734v-.961c0-1.148-.16-2.139-.48-2.971-.321-.832-.76-1.517-1.319-2.056-.558-.539-1.199-.938-1.922-1.196-.722-.257-1.486-.386-2.291-.386-1.25,0-2.336.285-3.257.855-.922.571-1.637,1.365-2.145,2.385s-.762,2.205-.762,3.557c0,1.367.256,2.554.768,3.562.512,1.008,1.244,1.787,2.197,2.338s2.086.826,3.399.826c1.015,0,1.916-.154,2.701-.463M316.573,90.85c-.879-.66-2.088-.99-3.627-.99-1.047,0-1.969.164-2.766.492-.797.328-1.418.789-1.863,1.383-.446.594-.668,1.297-.668,2.109,0,.953.3,1.737.902,2.35s1.531,1.056,2.789,1.33l2.239.469c1.171.265,1.757.765,1.757,1.5,0,.437-.222.806-.668,1.107-.445.301-1.035.451-1.769.451-.703,0-1.28-.15-1.729-.451-.449-.301-.74-.744-.873-1.33l-3.011.281c.195,1.203.779,2.143,1.752,2.819.972.675,2.259,1.013,3.861,1.013,1.094,0,2.06-.176,2.9-.527.84-.352,1.498-.844,1.975-1.477.476-.633.715-1.359.715-2.179,0-.93-.305-1.688-.914-2.274-.61-.586-1.528-1.008-2.754-1.265l-2.239-.469c-.664-.149-1.138-.346-1.423-.592-.286-.246-.428-.56-.428-.943,0-.438.217-.797.65-1.078.434-.282.971-.422,1.612-.422.71,0,1.261.166,1.652.498.39.332.644.713.762,1.142l2.8-.293c-.211-1.109-.755-1.994-1.634-2.654M289.929,103.125v-7.968c0-.532.107-1,.322-1.407.215-.406.506-.722.873-.949.368-.226.774-.34,1.219-.34.656,0,1.184.202,1.582.604.399.402.598.943.598,1.623v8.437h3.047v-8.179c0-.727.207-1.323.621-1.787.414-.465.992-.698,1.734-.698.625,0,1.155.19,1.588.569.434.379.651.971.651,1.775v8.32h3.093v-8.789c0-1.46-.381-2.572-1.142-3.334-.762-.761-1.745-1.142-2.948-1.142-.953,0-1.773.219-2.461.656-.687.438-1.179,1.02-1.476,1.746h-.141c-.242-.742-.668-1.328-1.277-1.758-.609-.429-1.359-.644-2.25-.644-.867,0-1.617.213-2.25.638-.633.426-1.086,1.014-1.359,1.764h-.164v-2.238h-2.942v13.101h3.082ZM283.76,87.692c.351-.328.527-.727.527-1.196,0-.46-.176-.855-.527-1.183-.352-.328-.77-.492-1.254-.492-.492,0-.914.164-1.266.492-.351.328-.527.726-.527,1.195,0,.461.176.856.527,1.184.352.328.774.492,1.266.492.484,0,.902-.164,1.254-.492M284.041,90.024h-3.082v13.102h3.082v-13.102ZM270.087,93.838c.242-.441.576-.779,1.002-1.013.426-.235.912-.352,1.459-.352.812,0,1.445.244,1.898.732.453.489.68,1.178.68,2.069v7.851h3.094v-8.332c0-1.054-.188-1.949-.563-2.683s-.9-1.293-1.576-1.676-1.467-.574-2.373-.574c-1.008,0-1.832.215-2.473.644-.64.43-1.113,1.016-1.418,1.758h-.164v-6.598h-3.011v17.461h3.082v-7.664c0-.64.121-1.181.363-1.623M250.893,100.33c-.469-.378-.819-.892-1.049-1.541-.231-.648-.346-1.367-.346-2.156,0-.804.115-1.531.346-2.179.23-.649.58-1.162,1.049-1.541.468-.379,1.05-.569,1.746-.569.711,0,1.296.19,1.758.569.46.379.806.892,1.037,1.541.23.648.345,1.375.345,2.179,0,.789-.115,1.508-.345,2.156-.231.649-.577,1.163-1.037,1.541-.462.379-1.047.569-1.758.569-.696,0-1.278-.19-1.746-.569M255.967,102.539c.937-.562,1.664-1.351,2.18-2.367.515-1.015.773-2.195.773-3.539,0-1.351-.258-2.537-.773-3.556-.516-1.02-1.243-1.811-2.18-2.373-.938-.563-2.047-.844-3.328-.844s-2.391.281-3.328.844c-.938.562-1.663,1.353-2.174,2.373-.512,1.019-.768,2.205-.768,3.556,0,1.344.256,2.524.768,3.539.511,1.016,1.236,1.805,2.174,2.367.937.563,2.046.844,3.328.844s2.39-.281,3.328-.844M239.618,99.692c0,1.117.348,1.998,1.043,2.642.695.645,1.653.967,2.871.967.336,0,.672-.025,1.008-.076.336-.051.668-.127.996-.229l-.527-2.414c-.133.032-.281.059-.445.082-.165.024-.313.036-.446.036-.492,0-.851-.123-1.078-.37-.227-.246-.34-.626-.34-1.142v-12.281h-3.082v12.785ZM237.778,92.414h7.512v-2.391h-7.512v2.391ZM229.172,90.85c-.879-.66-2.088-.99-3.627-.99-1.047,0-1.969.164-2.766.492-.797.328-1.418.789-1.863,1.383-.445.594-.668,1.297-.668,2.109,0,.953.301,1.737.902,2.35.602.613,1.532,1.056,2.789,1.33l2.239.469c1.172.265,1.758.765,1.758,1.5,0,.437-.223.806-.668,1.107-.446.301-1.036.451-1.77.451-.703,0-1.279-.15-1.728-.451-.45-.301-.741-.744-.874-1.33l-3.011.281c.195,1.203.779,2.143,1.752,2.819.972.675,2.259,1.013,3.861,1.013,1.094,0,2.061-.176,2.9-.527.84-.352,1.498-.844,1.975-1.477.476-.633.715-1.359.715-2.179,0-.93-.305-1.688-.914-2.274-.61-.586-1.528-1.008-2.754-1.265l-2.238-.469c-.664-.149-1.139-.346-1.424-.592s-.428-.56-.428-.943c0-.438.217-.797.65-1.078.434-.282.971-.422,1.612-.422.711,0,1.261.166,1.652.498.391.332.645.713.762,1.142l2.801-.293c-.211-1.109-.756-1.994-1.635-2.654M209.998,100.278c-.457-.367-.803-.871-1.037-1.512-.235-.64-.352-1.367-.352-2.18s.115-1.535.346-2.168c.23-.632.576-1.128,1.037-1.488.461-.359,1.031-.539,1.711-.539.664,0,1.225.172,1.682.516s.804.83,1.043,1.459c.238.629.357,1.369.357,2.22,0,.844-.121,1.584-.363,2.221-.243.637-.592,1.133-1.049,1.488-.457.356-1.014.534-1.67.534-.68,0-1.248-.184-1.705-.551M212.723,102.979c.492-.254.886-.559,1.183-.914.297-.356.527-.693.692-1.014h.187v2.074h3.012v-17.461h-3.071v6.528h-.128c-.157-.313-.381-.651-.674-1.014-.293-.363-.686-.674-1.178-.932-.492-.257-1.125-.386-1.898-.386-1.008,0-1.919.258-2.731.773-.813.516-1.459,1.274-1.939,2.274-.481,1-.721,2.23-.721,3.691,0,1.438.234,2.66.703,3.668.469,1.008,1.111,1.775,1.928,2.303.816.527,1.736.791,2.76.791.757,0,1.382-.127,1.875-.381M195.224,93.838c.238-.441.566-.779.984-1.013.418-.235.897-.352,1.436-.352.797,0,1.421.248,1.875.744.453.496.679,1.182.679,2.057v7.851h3.082v-8.332c0-1.046-.185-1.939-.556-2.677-.371-.739-.893-1.299-1.565-1.682s-1.461-.574-2.367-.574c-.984,0-1.795.217-2.432.65-.636.434-1.103,1.018-1.4,1.752h-.152v-2.238h-3.024v13.101h3.082v-7.664c0-.64.119-1.181.358-1.623M181.296,100.688c-.414-.289-.621-.719-.621-1.289,0-.399.105-.723.316-.973s.498-.447.862-.592c.363-.144.775-.248,1.236-.31.203-.024.443-.055.721-.094.277-.039.56-.086.849-.141.289-.054.547-.115.774-.181.226-.066.39-.139.492-.217v1.535c0,.485-.125.932-.375,1.342-.25.41-.602.738-1.055.984s-.992.369-1.617.369c-.641,0-1.168-.144-1.582-.433M183.88,103.102c.504-.195.926-.451,1.265-.768.34-.316.604-.654.792-1.013h.093v1.804h2.965v-8.765c0-.867-.156-1.59-.469-2.168-.312-.578-.73-1.039-1.254-1.383-.523-.344-1.097-.588-1.722-.732-.625-.145-1.25-.217-1.875-.217-.914,0-1.748.135-2.502.404-.754.27-1.393.672-1.916,1.207-.524.535-.899,1.201-1.125,1.998l2.871.41c.156-.445.455-.832.896-1.16.442-.328,1.041-.492,1.799-.492.719,0,1.266.176,1.641.527.375.352.562.844.562,1.477v.058c0,.297-.107.516-.322.657-.215.14-.561.242-1.037.304-.477.063-1.102.137-1.875.223-.633.063-1.246.17-1.84.322-.594.153-1.127.373-1.599.662-.473.29-.846.676-1.12,1.161-.273.484-.41,1.093-.41,1.828,0,.859.192,1.582.574,2.168.383.586.907,1.029,1.571,1.33.664.3,1.414.451,2.25.451.687,0,1.283-.098,1.787-.293M170.663,99.692c0,1.117.347,1.998,1.043,2.642.695.645,1.652.967,2.871.967.336,0,.672-.025,1.008-.076.335-.051.667-.127.996-.229l-.528-2.414c-.133.032-.281.059-.445.082-.164.024-.313.036-.445.036-.493,0-.852-.123-1.078-.37-.227-.246-.34-.626-.34-1.142v-12.281h-3.082v12.785ZM168.823,92.414h7.512v-2.391h-7.512v2.391ZM165.838,90.85c-.879-.66-2.088-.99-3.627-.99-1.047,0-1.969.164-2.766.492-.796.328-1.418.789-1.863,1.383-.445.594-.668,1.297-.668,2.109,0,.953.301,1.737.903,2.35.601.613,1.531,1.056,2.789,1.33l2.238.469c1.172.265,1.758.765,1.758,1.5,0,.437-.223.806-.668,1.107-.446.301-1.036.451-1.77.451-.703,0-1.279-.15-1.728-.451-.45-.301-.741-.744-.873-1.33l-3.012.281c.195,1.203.779,2.143,1.752,2.819.973.675,2.26,1.013,3.861,1.013,1.094,0,2.061-.176,2.901-.527.839-.352,1.498-.844,1.974-1.477.477-.633.715-1.359.715-2.179,0-.93-.305-1.688-.914-2.274-.609-.586-1.528-1.008-2.754-1.265l-2.238-.469c-.664-.149-1.139-.346-1.424-.592s-.428-.56-.428-.943c0-.438.217-.797.651-1.078.433-.282.97-.422,1.611-.422.711,0,1.262.166,1.652.498.391.332.645.713.762,1.142l2.801-.293c-.211-1.109-.756-1.994-1.635-2.654"/>
    <path class="st1" d="M407.359,60.85c-.879-.66-2.088-.991-3.627-.991-1.047,0-1.969.164-2.766.493-.796.328-1.418.789-1.863,1.382-.445.594-.668,1.297-.668,2.11,0,.953.301,1.736.903,2.349.601.614,1.531,1.057,2.789,1.33l2.238.469c1.172.266,1.758.766,1.758,1.5,0,.438-.223.807-.668,1.108-.446.3-1.036.451-1.77.451-.703,0-1.279-.151-1.728-.451-.45-.301-.741-.745-.873-1.33l-3.012.281c.195,1.203.779,2.142,1.752,2.818.973.676,2.26,1.014,3.861,1.014,1.094,0,2.061-.176,2.901-.528.839-.351,1.498-.843,1.974-1.476.477-.633.715-1.359.715-2.18,0-.929-.305-1.687-.914-2.273-.609-.586-1.528-1.008-2.754-1.266l-2.238-.469c-.664-.148-1.139-.345-1.424-.591-.285-.246-.428-.561-.428-.944,0-.437.217-.797.651-1.078.433-.281.97-.422,1.611-.422.711,0,1.262.166,1.652.498.391.332.645.713.762,1.143l2.801-.293c-.211-1.109-.756-1.994-1.635-2.654M387.985,63.838c.238-.441.566-.779.984-1.014.418-.234.896-.351,1.435-.351.797,0,1.422.248,1.875.744.453.496.68,1.182.68,2.056v7.852h3.082v-8.332c0-1.047-.185-1.939-.556-2.678-.372-.738-.893-1.299-1.565-1.681-.672-.383-1.461-.575-2.367-.575-.984,0-1.795.217-2.432.651-.637.433-1.103,1.017-1.4,1.752h-.152v-2.239h-3.024v13.102h3.082v-7.664c0-.641.119-1.182.358-1.623M373.926,70.014c-.465-.332-.814-.799-1.049-1.401-.234-.601-.351-1.3-.351-2.097,0-.789.115-1.495.346-2.116.23-.621.576-1.111,1.037-1.47.46-.36,1.035-.539,1.722-.539.664,0,1.227.172,1.688.515.461.344.808.825,1.043,1.442.234.617.351,1.34.351,2.168,0,1.25-.267,2.228-.802,2.935-.536.707-1.295,1.061-2.28,1.061-.672,0-1.24-.166-1.705-.498M378.766,77.76c.926-.364,1.654-.912,2.186-1.647.531-.734.796-1.66.796-2.777v-13.313h-3.011v2.168h-.164c-.164-.312-.395-.65-.692-1.013-.297-.364-.695-.674-1.195-.932s-1.133-.387-1.898-.387c-1.008,0-1.922.258-2.743.774-.82.515-1.47,1.269-1.951,2.262-.48.992-.721,2.207-.721,3.644,0,1.422.241,2.606.721,3.551.481.945,1.129,1.656,1.945,2.133.817.476,1.725.715,2.725.715.758,0,1.385-.116,1.881-.346.496-.231.896-.512,1.201-.844s.531-.654.68-.967h.176v2.473c0,.961-.288,1.654-.862,2.08-.574.426-1.299.639-2.174.639-.617,0-1.129-.084-1.535-.252-.406-.168-.73-.379-.972-.633-.243-.254-.426-.51-.551-.768l-2.766.68c.274.914.887,1.693,1.84,2.338.953.644,2.262.967,3.926.967,1.179,0,2.232-.182,3.158-.545M366.92,57.691c.352-.328.528-.726.528-1.195,0-.461-.176-.855-.528-1.183-.351-.329-.769-.493-1.253-.493-.493,0-.914.164-1.266.493-.352.328-.527.726-.527,1.195,0,.461.175.855.527,1.183.352.329.773.493,1.266.493.484,0,.902-.164,1.253-.493M367.202,60.023h-3.082v13.102h3.082v-13.102ZM360.081,60.85c-.879-.66-2.088-.991-3.627-.991-1.047,0-1.969.164-2.766.493-.796.328-1.418.789-1.863,1.382-.445.594-.668,1.297-.668,2.11,0,.953.301,1.736.902,2.349.602.614,1.532,1.057,2.79,1.33l2.238.469c1.172.266,1.758.766,1.758,1.5,0,.438-.223.807-.668,1.108-.446.3-1.036.451-1.77.451-.703,0-1.279-.151-1.728-.451-.45-.301-.741-.745-.873-1.33l-3.012.281c.195,1.203.779,2.142,1.752,2.818.972.676,2.26,1.014,3.861,1.014,1.094,0,2.061-.176,2.901-.528.839-.351,1.498-.843,1.974-1.476.477-.633.715-1.359.715-2.18,0-.929-.305-1.687-.914-2.273-.609-.586-1.528-1.008-2.754-1.266l-2.238-.469c-.664-.148-1.139-.345-1.424-.591-.285-.246-.428-.561-.428-.944,0-.437.217-.797.651-1.078.433-.281.97-.422,1.611-.422.711,0,1.261.166,1.652.498s.645.713.762,1.143l2.801-.293c-.211-1.109-.756-1.994-1.635-2.654M347.372,60.85c-.879-.66-2.088-.991-3.627-.991-1.047,0-1.968.164-2.765.493-.797.328-1.418.789-1.864,1.382-.445.594-.668,1.297-.668,2.11,0,.953.301,1.736.903,2.349.601.614,1.531,1.057,2.789,1.33l2.238.469c1.172.266,1.758.766,1.758,1.5,0,.438-.223.807-.668,1.108-.445.3-1.035.451-1.77.451-.703,0-1.279-.151-1.728-.451-.449-.301-.74-.745-.873-1.33l-3.012.281c.195,1.203.779,2.142,1.752,2.818.973.676,2.26,1.014,3.861,1.014,1.094,0,2.061-.176,2.901-.528.839-.351,1.498-.843,1.974-1.476.477-.633.715-1.359.715-2.18,0-.929-.304-1.687-.914-2.273-.609-.586-1.527-1.008-2.754-1.266l-2.238-.469c-.664-.148-1.139-.345-1.424-.591-.285-.246-.428-.561-.428-.944,0-.437.217-.797.651-1.078.433-.281.97-.422,1.611-.422.711,0,1.262.166,1.652.498.391.332.645.713.762,1.143l2.801-.293c-.211-1.109-.756-1.994-1.635-2.654M328.348,70.687c-.414-.288-.621-.718-.621-1.289,0-.398.106-.722.317-.972s.498-.447.861-.592c.363-.144.775-.248,1.236-.311.203-.023.444-.054.721-.093.277-.039.56-.086.85-.141.288-.055.546-.115.773-.182.226-.066.391-.138.492-.216v1.535c0,.484-.125.931-.375,1.342-.25.41-.602.738-1.055.984s-.992.369-1.617.369c-.64,0-1.168-.144-1.582-.434M330.932,73.102c.504-.196.926-.452,1.266-.768.34-.316.603-.654.791-1.014h.094v1.805h2.964v-8.766c0-.867-.156-1.589-.468-2.168-.313-.578-.731-1.039-1.254-1.382-.524-.344-1.098-.588-1.723-.733-.625-.144-1.25-.217-1.875-.217-.914,0-1.748.135-2.502.405-.754.269-1.392.672-1.916,1.207-.523.535-.898,1.201-1.125,1.998l2.871.41c.156-.445.455-.832.897-1.16.441-.328,1.041-.492,1.799-.492.718,0,1.265.175,1.64.527.375.351.563.844.563,1.476v.059c0,.297-.108.516-.323.656-.215.141-.56.243-1.037.305-.476.063-1.101.137-1.875.223-.632.062-1.246.17-1.839.322-.594.152-1.128.373-1.6.662-.473.289-.846.676-1.119,1.16-.274.485-.41,1.094-.41,1.828,0,.86.191,1.582.574,2.168s.906,1.03,1.57,1.33c.664.301,1.414.452,2.25.452.688,0,1.283-.098,1.787-.293M313.806,73.125v-7.687c0-.563.127-1.055.381-1.477.254-.422.604-.754,1.049-.996.445-.242.953-.363,1.523-.363.258,0,.528.015.809.046.281.032.488.071.621.118v-2.836c-.141-.024-.318-.043-.533-.059-.215-.015-.404-.023-.569-.023-.75,0-1.417.205-2.003.615-.586.41-.997.998-1.231,1.764h-.141v-2.204h-2.988v13.102h3.082ZM300.498,70.33c-.468-.379-.818-.892-1.048-1.541-.231-.648-.346-1.367-.346-2.156,0-.805.115-1.531.346-2.18.23-.648.58-1.162,1.048-1.541.469-.379,1.051-.568,1.747-.568.71,0,1.296.189,1.757.568.461.379.807.893,1.037,1.541.231.649.346,1.375.346,2.18,0,.789-.115,1.508-.346,2.156-.23.649-.576,1.162-1.037,1.541-.461.379-1.047.568-1.757.568-.696,0-1.278-.189-1.747-.568M305.573,72.539c.937-.562,1.664-1.351,2.179-2.367.516-1.016.774-2.195.774-3.539,0-1.352-.258-2.537-.774-3.557-.515-1.019-1.242-1.81-2.179-2.373-.938-.562-2.047-.844-3.328-.844s-2.391.282-3.329.844c-.937.563-1.662,1.354-2.173,2.373-.512,1.02-.768,2.205-.768,3.557,0,1.344.256,2.523.768,3.539.511,1.016,1.236,1.805,2.173,2.367.938.563,2.047.844,3.329.844s2.39-.281,3.328-.844M289.224,69.691c0,1.118.348,1.998,1.043,2.643.695.645,1.652.967,2.871.967.336,0,.672-.026,1.008-.076.336-.051.668-.127.996-.229l-.527-2.414c-.133.031-.282.059-.446.082-.164.023-.312.035-.445.035-.492,0-.852-.123-1.078-.369-.227-.246-.34-.627-.34-1.143v-12.281h-3.082v12.785ZM287.384,62.414h7.512v-2.391h-7.512v2.391ZM285.487,57.691c.352-.328.528-.726.528-1.195,0-.461-.176-.855-.528-1.183-.351-.329-.769-.493-1.253-.493-.493,0-.914.164-1.266.493-.352.328-.527.726-.527,1.195,0,.461.175.855.527,1.183.352.329.773.493,1.266.493.484,0,.902-.164,1.253-.493M285.769,60.023h-3.082v13.102h3.082v-13.102ZM272.555,70.295c-.461-.355-.811-.852-1.049-1.488-.239-.637-.358-1.377-.358-2.221,0-.852.119-1.592.358-2.221.238-.629.586-1.115,1.043-1.459.457-.343,1.017-.515,1.681-.515.688,0,1.258.179,1.711.539.453.359.797.855,1.032,1.488.234.633.351,1.355.351,2.168s-.117,1.539-.351,2.18c-.235.64-.58,1.144-1.037,1.511-.457.368-1.026.551-1.706.551-.656,0-1.214-.177-1.675-.533M277.846,72.568c.816-.527,1.459-1.295,1.927-2.302.469-1.008.704-2.231.704-3.668,0-1.461-.241-2.692-.721-3.692-.481-1-1.127-1.758-1.94-2.273-.812-.516-1.722-.774-2.73-.774-.774,0-1.408.129-1.904.387-.497.258-.889.568-1.178.932-.289.363-.512.701-.668,1.013h-.129v-6.527h-3.082v17.461h3.023v-2.074h.188c.156.32.385.658.685,1.013.301.356.7.661,1.196.915.496.253,1.115.38,1.857.38,1.031,0,1.955-.263,2.772-.791M265.037,57.691c.352-.328.528-.726.528-1.195,0-.461-.176-.855-.528-1.183-.351-.329-.769-.493-1.253-.493-.493,0-.915.164-1.266.493-.352.328-.527.726-.527,1.195,0,.461.175.855.527,1.183.351.329.773.493,1.266.493.484,0,.902-.164,1.253-.493M265.319,60.023h-3.082v13.102h3.082v-13.102ZM251.365,63.838c.242-.441.576-.779,1.002-1.014.426-.234.912-.351,1.459-.351.812,0,1.445.244,1.898.732.453.488.68,1.178.68,2.068v7.852h3.094v-8.332c0-1.055-.188-1.949-.563-2.684-.375-.734-.9-1.293-1.576-1.675-.676-.383-1.467-.575-2.373-.575-1.008,0-1.832.215-2.473.645-.64.43-1.113,1.016-1.418,1.758h-.164v-6.598h-3.011v17.461h3.082v-7.664c0-.641.121-1.182.363-1.623M234.306,60.023l3.879,6.563-3.973,6.539h3.27l2.73-4.711,2.777,4.711h3.246l-4.007-6.539,3.937-6.563h-3.269l-2.684,4.852-2.637-4.852h-3.269ZM230.348,72.92c.785-.309,1.429-.746,1.933-1.313.504-.566.85-1.228,1.037-1.986l-2.883-.34c-.14.375-.341.69-.603.944-.262.254-.574.443-.938.568-.363.125-.763.187-1.201.187-.672,0-1.259-.148-1.763-.445-.504-.297-.895-.728-1.172-1.295-.278-.566-.416-1.248-.416-2.045v-1.441c0-.648.121-1.236.363-1.764.242-.527.598-.947,1.066-1.26.469-.312,1.036-.468,1.7-.468s1.218.156,1.664.468c.445.313.781.745,1.008,1.295.226.551.339,1.198.339,1.94l1.442-.61h-9.199v2.075h10.734v-.961c0-1.149-.16-2.139-.481-2.971-.32-.832-.759-1.518-1.318-2.057-.559-.539-1.199-.937-1.922-1.195s-1.486-.387-2.291-.387c-1.25,0-2.336.286-3.258.856-.922.57-1.636,1.365-2.144,2.385-.508,1.019-.762,2.205-.762,3.556,0,1.367.256,2.555.768,3.563.511,1.008,1.244,1.787,2.197,2.338.953.55,2.086.826,3.398.826,1.016,0,1.916-.155,2.702-.463M205.739,70.277c-.457-.367-.803-.871-1.037-1.511-.234-.641-.352-1.367-.352-2.18s.116-1.535.346-2.168c.231-.633.576-1.129,1.037-1.488.461-.36,1.032-.539,1.711-.539.664,0,1.225.172,1.682.515.457.344.804.83,1.043,1.459.238.629.357,1.369.357,2.221,0,.844-.121,1.584-.363,2.221-.242.636-.592,1.133-1.049,1.488-.457.356-1.014.533-1.67.533-.679,0-1.248-.183-1.705-.551M208.464,72.979c.492-.254.886-.559,1.183-.915.297-.355.528-.693.692-1.013h.187v2.074h3.012v-17.461h-3.07v6.527h-.129c-.157-.312-.381-.65-.674-1.013-.293-.364-.686-.674-1.178-.932-.492-.258-1.125-.387-1.898-.387-1.008,0-1.918.258-2.731.774-.812.515-1.459,1.273-1.939,2.273-.481,1-.721,2.231-.721,3.692,0,1.437.235,2.66.703,3.668.469,1.007,1.112,1.775,1.928,2.302.816.528,1.736.791,2.76.791.757,0,1.383-.127,1.875-.38M191.315,70.687c-.414-.288-.621-.718-.621-1.289,0-.398.106-.722.317-.972.211-.25.498-.447.861-.592.363-.144.775-.248,1.236-.311.203-.023.444-.054.721-.093.277-.039.561-.086.85-.141.289-.055.546-.115.773-.182.227-.066.391-.138.492-.216v1.535c0,.484-.125.931-.375,1.342-.25.41-.601.738-1.054.984-.454.246-.993.369-1.618.369-.64,0-1.168-.144-1.582-.434M193.899,73.102c.504-.196.926-.452,1.266-.768s.604-.654.791-1.014h.094v1.805h2.965v-8.766c0-.867-.157-1.589-.469-2.168-.313-.578-.731-1.039-1.254-1.382-.523-.344-1.098-.588-1.723-.733-.625-.144-1.25-.217-1.875-.217-.914,0-1.748.135-2.502.405-.754.269-1.392.672-1.916,1.207-.523.535-.898,1.201-1.125,1.998l2.871.41c.157-.445.456-.832.897-1.16.441-.328,1.041-.492,1.799-.492.718,0,1.265.175,1.64.527.375.351.563.844.563,1.476v.059c0,.297-.108.516-.322.656-.215.141-.561.243-1.037.305-.477.063-1.102.137-1.875.223-.633.062-1.247.17-1.84.322-.594.152-1.127.373-1.6.662-.473.289-.846.676-1.119,1.16-.274.485-.41,1.094-.41,1.828,0,.86.191,1.582.574,2.168s.906,1.03,1.57,1.33c.664.301,1.414.452,2.25.452.688,0,1.284-.098,1.787-.293M183.172,72.92c.785-.309,1.43-.746,1.934-1.313.504-.566.849-1.228,1.037-1.986l-2.883-.34c-.14.375-.342.69-.603.944-.262.254-.575.443-.938.568-.363.125-.764.187-1.201.187-.672,0-1.26-.148-1.764-.445-.504-.297-.894-.728-1.172-1.295-.277-.566-.416-1.248-.416-2.045v-1.441c0-.648.121-1.236.364-1.764.242-.527.597-.947,1.066-1.26.469-.312,1.035-.468,1.699-.468s1.219.156,1.664.468c.446.313.782.745,1.008,1.295.227.551.34,1.198.34,1.94l1.441-.61h-9.199v2.075h10.735v-.961c0-1.149-.161-2.139-.481-2.971s-.76-1.518-1.318-2.057c-.559-.539-1.2-.937-1.922-1.195-.723-.258-1.487-.387-2.291-.387-1.25,0-2.336.286-3.258.856-.922.57-1.637,1.365-2.144,2.385-.508,1.019-.762,2.205-.762,3.556,0,1.367.256,2.555.767,3.563.512,1.008,1.244,1.787,2.198,2.338.953.55,2.086.826,3.398.826,1.016,0,1.916-.155,2.701-.463M160.43,73.125v-7.406h8.086v7.406h3.164v-17.461h-3.164v7.395h-8.086v-7.395h-3.164v17.461h3.164Z"/>
  </g>
</svg>