<?xml version="1.0" encoding="UTF-8"?>
<svg id="wv_hall_1A" data-name="Hall 1A" xmlns="http://www.w3.org/2000/svg" viewBox="0 0 1300 1300" viewBox="0 0 1300 1300" class="hall-svg h-auto">
  <g id="wv_hall_1300" data-name="1300">
    <rect class="cls-2" width="1300" height="1300"/>
  </g>
  <g id="HALL">
    <g>
      <path class="cls-3" d="M285.5,710c0,2.48,2.02,4.5,4.5,4.5h19c2.48,0,4.5-2.02,4.5-4.5v-161c0-2.48-2.02-4.5-4.5-4.5h-19c-2.48,0-4.5,2.02-4.5,4.5v161ZM286.5,549c0-1.93,1.57-3.5,3.5-3.5h19c1.93,0,3.5,1.57,3.5,3.5v161c0,1.93-1.57,3.5-3.5,3.5h-19c-1.93,0-3.5-1.57-3.5-3.5v-161Z"/>
      <path class="cls-3" d="M346.99,544.5h-19c-2.48,0-4.5,2.02-4.5,4.5v161c0,2.48,2.02,4.5,4.5,4.5h19c2.48,0,4.5-2.02,4.5-4.5v-161c0-2.48-2.02-4.5-4.5-4.5ZM350.49,710c0,1.93-1.57,3.5-3.5,3.5h-19c-1.93,0-3.5-1.57-3.5-3.5v-161c0-1.93,1.57-3.5,3.5-3.5h19c1.93,0,3.5,1.57,3.5,3.5v161Z"/>
      <path class="cls-3" d="M351.5,474c0-2.48-2.02-4.5-4.5-4.5h-57c-2.48,0-4.5,2.02-4.5,4.5v57c0,2.48,2.02,4.5,4.5,4.5h57c2.48,0,4.5-2.02,4.5-4.5v-57ZM350.5,531c0,1.93-1.57,3.5-3.5,3.5h-57c-1.93,0-3.5-1.57-3.5-3.5v-57c0-1.93,1.57-3.5,3.5-3.5h57c1.93,0,3.5,1.57,3.5,3.5v57Z"/>
      <path class="cls-3" d="M862,774.5c2.48,0,4.5-2.02,4.5-4.5v-62c0-2.48-2.02-4.5-4.5-4.5h-32c-2.48,0-4.5,2.02-4.5,4.5v62c0,2.48,2.02,4.5,4.5,4.5h32ZM826.5,770v-62c0-1.93,1.57-3.5,3.5-3.5h32c1.93,0,3.5,1.57,3.5,3.5v62c0,1.93-1.57,3.5-3.5,3.5h-32c-1.93,0-3.5-1.57-3.5-3.5Z"/>
      <path class="cls-3" d="M246,764.5h30c.28,0,.5-.22.5-.5v-40c0-.28-.22-.5-.5-.5h-5s0,0,0,0,0,0,0,0h-5s0,0,0,0,0,0,0,0h-5s0,0,0,0,0,0,0,0h-5s0,0,0,0,0,0,0,0h-5s0,0,0,0,0,0,0,0h-5c-.28,0-.5.22-.5.5v40c0,.28.22.5.5.5ZM246.5,744.5h4v19h-4v-19ZM261.5,744.5h4v19h-4v-19ZM260.5,763.5h-4v-19h4v19ZM266.5,744.5h4v19h-4v-19ZM266.5,743.5v-19h4v19h-4ZM265.5,743.5h-4v-19h4v19ZM260.5,743.5h-4v-19h4v19ZM255.5,743.5h-4v-19h4v19ZM255.5,744.5v19h-4v-19h4ZM271.5,763.5v-19h4v19h-4ZM275.5,743.5h-4v-19h4v19ZM250.5,724.5v19h-4v-19h4Z"/>
      <path class="cls-3" d="M366,510.5s0,0,0,0,0,0,0,0h5s0,0,0,0,0,0,0,0h5s0,0,0,0,0,0,0,0h45c.28,0,.5-.22.5-.5v-40c0-.28-.22-.5-.5-.5h-5s0,0,0,0,0,0,0,0h-5s0,0,0,0,0,0,0,0h-5s0,0,0,0,0,0,0,0h-5s0,0,0,0,0,0,0,0h-5s0,0,0,0,0,0,0,0h-5s0,0,0,0,0,0,0,0h-5s0,0,0,0,0,0,0,0h-5s0,0,0,0,0,0,0,0h-20c-.28,0-.5.22-.5.5v40c0,.28.22.5.5.5h5ZM361.5,490.5h4v19h-4v-19ZM376.5,490.5h4v19h-4v-19ZM375.5,509.5h-4v-19h4v19ZM381.5,490.5h4v19h-4v-19ZM386.5,490.5h4v19h-4v-19ZM391.5,490.5h4v19h-4v-19ZM396.5,490.5h4v19h-4v-19ZM401.5,490.5h4v19h-4v-19ZM406.5,490.5h4v19h-4v-19ZM411.5,490.5h4v19h-4v-19ZM411.5,489.5v-19h4v19h-4ZM410.5,489.5h-4v-19h4v19ZM405.5,489.5h-4v-19h4v19ZM400.5,489.5h-4v-19h4v19ZM395.5,489.5h-4v-19h4v19ZM390.5,489.5h-4v-19h4v19ZM385.5,489.5h-4v-19h4v19ZM380.5,489.5h-4v-19h4v19ZM375.5,489.5h-4v-19h4v19ZM370.5,489.5h-4v-19h4v19ZM370.5,490.5v19h-4v-19h4ZM416.5,509.5v-19h4v19h-4ZM420.5,489.5h-4v-19h4v19ZM365.5,470.5v19h-4v-19h4Z"/>
      <path class="cls-3" d="M436,510.5s0,0,0,0,0,0,0,0h5s0,0,0,0,0,0,0,0h5s0,0,0,0,0,0,0,0h45c.28,0,.5-.22.5-.5v-40c0-.28-.22-.5-.5-.5h-5s0,0,0,0,0,0,0,0h-5s0,0,0,0,0,0,0,0h-5s0,0,0,0,0,0,0,0h-5s0,0,0,0,0,0,0,0h-5s0,0,0,0,0,0,0,0h-5s0,0,0,0,0,0,0,0h-5s0,0,0,0,0,0,0,0h-5s0,0,0,0,0,0,0,0h-20c-.28,0-.5.22-.5.5v40c0,.28.22.5.5.5h5ZM431.5,490.5h4v19h-4v-19ZM446.5,490.5h4v19h-4v-19ZM445.5,509.5h-4v-19h4v19ZM451.5,490.5h4v19h-4v-19ZM456.5,490.5h4v19h-4v-19ZM461.5,490.5h4v19h-4v-19ZM466.5,490.5h4v19h-4v-19ZM471.5,490.5h4v19h-4v-19ZM476.5,490.5h4v19h-4v-19ZM481.5,490.5h4v19h-4v-19ZM481.5,489.5v-19h4v19h-4ZM480.5,489.5h-4v-19h4v19ZM475.5,489.5h-4v-19h4v19ZM470.5,489.5h-4v-19h4v19ZM465.5,489.5h-4v-19h4v19ZM460.5,489.5h-4v-19h4v19ZM455.5,489.5h-4v-19h4v19ZM450.5,489.5h-4v-19h4v19ZM445.5,489.5h-4v-19h4v19ZM440.5,489.5h-4v-19h4v19ZM440.5,490.5v19h-4v-19h4ZM486.5,509.5v-19h4v19h-4ZM490.5,489.5h-4v-19h4v19ZM435.5,470.5v19h-4v-19h4Z"/>
      <path class="cls-3" d="M876,793.5h-434c-.28,0-.5.22-.5.5v50c0,.28.22.5.5.5h434c.28,0,.5-.22.5-.5v-50c0-.28-.22-.5-.5-.5ZM875.5,843.5h-433v-49h433v49Z"/>
      <path class="cls-3" d="M996.3,663.6c-.09-.06-.19-.1-.3-.1h-20c-.28,0-.5.22-.5.5v40c0,.28.22.5.5.5s.5-.22.5-.5v-39.5h19.33l39.87,29.9c.22.17.53.12.7-.1.17-.22.12-.53-.1-.7l-40-30Z"/>
      <path class="cls-3" d="M896,663.5h-20c-.28,0-.5.22-.5.5v119.5H351.5v-14.5c0-.28-.22-.5-.5-.5-7.22,0-13.29,4.97-15,11.66-1.71-6.69-7.78-11.66-15-11.66-.28,0-.5.22-.5.5v14.5h-4v-14.5c0-.28-.22-.5-.5-.5-7.22,0-13.29,4.97-15,11.66-1.71-6.69-7.78-11.66-15-11.66-.28,0-.5.22-.5.5v14.5h-9v-9.5c0-.28-.22-.5-.5-.5h-30c-.28,0-.5.22-.5.5s.22.5.5.5h29.5v9.5c0,.28.22.5.5.5h9.5v14.5c0,.28.22.5.5.5,7.22,0,13.29-4.97,15-11.66,1.71,6.69,7.78,11.66,15,11.66.28,0,.5-.22.5-.5v-14.5h4v14.5c0,.28.22.5.5.5,7.22,0,13.29-4.97,15-11.66,1.71,6.69,7.78,11.66,15,11.66.28,0,.5-.22.5-.5v-14.5h524.5c.28,0,.5-.22.5-.5v-119.5h19v39.5c0,.28.22.5.5.5s.5-.22.5-.5v-40c0-.28-.22-.5-.5-.5ZM286.5,798.49v-28.98c7.76.26,14,6.66,14,14.49s-6.24,14.23-14,14.49ZM315.5,798.49c-7.76-.26-14-6.66-14-14.49s6.24-14.23,14-14.49v28.98ZM321.5,798.49v-28.98c7.76.26,14,6.66,14,14.49s-6.24,14.23-14,14.49ZM350.5,798.49c-7.76-.26-14-6.66-14-14.49s6.24-14.23,14-14.49v28.98Z"/>
      <path class="cls-3" d="M1056.3,623.6l-40-30c-.09-.06-.19-.1-.3-.1h-139.5v-133.5c0-.28-.22-.5-.5-.5H276c-.28,0-.5.22-.5.5v253.5h-29.5c-.28,0-.5.22-.5.5s.22.5.5.5h30c.28,0,.5-.22.5-.5v-253.5h599v133.5c0,.28.22.5.5.5h139.83l39.87,29.9c.22.17.53.12.7-.1.17-.22.12-.53-.1-.7Z"/>
    </g>
  </g>
  <g id="Signage">
    <g>
      <path class="cls-3" d="M855.6,736.22c.01-.3.02-.61.02-.91,0-.27-.22-.48-.48-.48h-18.43c-.27,0-.48.22-.48.48,0,5.1,1.76,9.79,4.58,12.43h-5.07c-.27,0-.48.22-.48.48,0,1.59,1.29,2.88,2.88,2.88h15.59c1.59,0,2.88-1.29,2.88-2.88,0-.27-.22-.48-.48-.48h-5.07c.49-.46.95-.98,1.37-1.56,4.48-.55,6.11-3.56,6.6-4.85.69-1.81.62-3.75-.16-4.61-.95-1.05-2.29-.89-3.27-.5ZM855.58,748.71c-.21.82-.96,1.43-1.86,1.43h-15.59c-.89,0-1.64-.61-1.86-1.43h19.3ZM849.54,747.74h-7.22c-3.02-2.17-4.99-6.8-5.12-11.95h17.45c-.12,5.15-2.09,9.78-5.12,11.95ZM858.12,740.99c-.49,1.28-1.78,3.4-4.97,4.09,1.27-2.15,2.12-4.84,2.38-7.74.48-.27,1.8-.87,2.62.03.46.5.58,2.03-.03,3.61Z"/>
      <path class="cls-3" d="M843.1,733.82c.27,0,.48-.22.48-.48v-4.31c0-.27-.22-.48-.48-.48s-.48.22-.48.48v4.31c0,.27.22.48.48.48Z"/>
      <path class="cls-3" d="M845.93,732.16c.27,0,.48-.22.48-.48v-4.31c0-.27-.22-.48-.48-.48s-.48.22-.48.48v4.31c0,.27.22.48.48.48Z"/>
      <path class="cls-3" d="M848.75,733.82c.27,0,.48-.22.48-.48v-4.31c0-.27-.22-.48-.48-.48s-.48.22-.48.48v4.31c0,.27.22.48.48.48Z"/>
      <path class="cls-3" d="M202.95,752.23c0-3.08.64-3.67,4.2-3.89,9.6-.5,11.03-.73,12.49-1.99,1.04-.92,1.4-2.04,1.4-4.31,0-1.29-.17-2.44-.45-3.08-.48-1.18-1.65-2.04-3.08-2.3-1.18-.2-5.1-.42-7.73-.42-1.79,0-3.61.11-4.79.25-1.65.25-2.69.76-3.44,1.79-.76.98-.92,1.93-.92,5.18h2.38c0-1.71.03-2.18.08-2.6.14-1.12.64-1.68,1.68-1.96.87-.25,3.67-.45,6.08-.45,3.42,0,5.74.22,6.58.67.9.45,1.32,1.46,1.32,3.19,0,1.6-.45,2.46-1.46,2.91-.84.39-1.93.53-6.22.76-2.8.17-4.45.28-4.98.34-1.46.17-2.63.45-3.33.81-1.74.92-2.27,2.32-2.27,5.85,0,.62.03,1.32.06,2.02h20.63v-2.13h-18.23v-.64Z"/>
      <path class="cls-3" d="M227.76,736.67l-4.94,9.33h3.25l.8-1.58h6.17l.8,1.58h3.23l-4.88-9.33h-4.42ZM227.87,742.38l1.8-3.54h.56l1.8,3.54h-4.17Z"/>
      <polygon class="cls-3" points="876.72 626.62 878.2 628.3 884.22 622.65 885.09 622.65 885.09 639 887.53 639 887.53 620.32 883.36 620.32 876.72 626.62"/>
      <path class="cls-3" d="M951.58,671.47l-13.4-8.18c-.33-.2-.76-.3-1.18-.29-.43,0-.86.09-1.18.29l-13.4,8.18c-.64.39-.6,1.53.48,1.53h28.21c1.08,0,1.11-1.14.48-1.53Z"/>
      <path class="cls-3" d="M190.47,729.42l-8.18,13.4c-.2.33-.3.76-.29,1.18,0,.43.09.86.29,1.18l8.18,13.4c.39.64,1.53.6,1.53-.48v-28.21c0-1.08-1.14-1.11-1.53-.48Z"/>
      <path class="cls-3" d="M900.53,614.42c-.39-.64-1.53-.6-1.53.48v28.21c0,1.08,1.14,1.11,1.53.48l8.18-13.4c.2-.33.3-.76.29-1.18,0-.43-.09-.86-.29-1.18l-8.18-13.4Z"/>
      <path class="cls-3" d="M941.53,701.86c.38.58,1,.89,1.64.89.37,0,.74-.11,1.07-.32.91-.6,1.16-1.82.56-2.73l-4.06-6.23c-.37,1.75-.7,3.95-.84,5.9l1.62,2.49Z"/>
      <path class="cls-3" d="M936.63,678.21c-1.8.66-2.72,2.67-2.06,4.48.66,1.81,2.66,2.74,4.46,2.07,1.8-.66,2.72-2.67,2.06-4.48-.66-1.81-2.66-2.74-4.46-2.07Z"/>
      <path class="cls-3" d="M942.57,709.21c-.04-.11-.09-.22-.14-.32l-.08-.15-4.52-7.92c0-.24,0-.46.01-.7.02-.49.06-.99.1-1.49.09-1.01.22-2.02.37-3.04.15-1.01.34-2.02.55-3,.11-.49.22-.97.35-1.42l.1-.34.08-.26c.03-.14.16-.44.24-.68l.02-.05h0c.58-1.58-.22-3.31-1.78-3.89-1.36-.5-2.85.04-3.59,1.23l-5,5.44c-.18.2-.32.42-.41.68l-2.35,6.63c-.36,1.02.17,2.15,1.19,2.52.22.08.44.12.66.12.81,0,1.56-.5,1.85-1.31l2.01-5.67c-.11.83-.22,1.67-.29,2.52-.05.58-.09,1.16-.12,1.75-.03.59-.04,1.2-.03,1.83h0s0,.16,0,.16c.02.47.17.94.45,1.36l5.46,8.22,3.71,9.09c.48,1.16,1.78,1.77,2.98,1.35,1.24-.43,1.9-1.79,1.48-3.04l-3.3-9.61Z"/>
      <path class="cls-3" d="M931.54,705.95s0,.09-.01.13c-.01.8-.06,1.6-.09,2.4l-.08,1.88-5.02,8.08c-.62,1-.36,2.32.61,3.01,1,.71,2.39.46,3.09-.55l5.64-8.09-.15-.4-3.99-6.47Z"/>
    </g>
  </g>
  <g id="wv_hall_1A_01" data-name="1A/01" class="ds-stand">
    <rect class="cls-3" x="386" y="680" width="44" height="34" rx="4" ry="4"/>
    <g>
      <path class="cls-1" d="M399.74,705.57c-1.02-1.01-1.53-2.36-1.53-4.06v-9.02c0-1.68.51-3.02,1.53-4.03,1.02-1.01,2.38-1.51,4.07-1.51s3.06.5,4.09,1.51c1.03,1.01,1.54,2.35,1.54,4.03v9.02c0,1.7-.51,3.05-1.54,4.06-1.03,1.01-2.39,1.51-4.09,1.51s-3.06-.5-4.07-1.51ZM405.94,703.9c.54-.57.81-1.32.81-2.25v-9.27c0-.93-.27-1.68-.81-2.25-.54-.57-1.25-.85-2.13-.85s-1.58.28-2.11.85-.8,1.32-.8,2.25v9.27c0,.93.27,1.68.8,2.25s1.24.85,2.11.85,1.59-.28,2.13-.85Z"/>
      <path class="cls-1" d="M414.96,687.2h2.21c.19,0,.28.09.28.28v19.04c0,.19-.09.28-.28.28h-2.13c-.19,0-.28-.09-.28-.28v-16.41s-.01-.07-.04-.1c-.03-.03-.06-.03-.1-.01l-2.72.87-.11.03c-.11,0-.19-.08-.22-.25l-.11-1.6c0-.15.06-.26.2-.34l2.94-1.43c.11-.06.23-.08.36-.08Z"/>
    </g>
  </g>
  <g id="wv_hall_1A_02" data-name="1A/02" class="ds-stand">
    <rect class="cls-3" x="386" y="640" width="44" height="34" rx="4" ry="4"/>
    <g>
      <path class="cls-1" d="M397.19,665.57c-1.02-1.01-1.53-2.36-1.53-4.06v-9.02c0-1.68.51-3.02,1.53-4.03,1.02-1.01,2.38-1.51,4.07-1.51s3.06.5,4.09,1.51c1.03,1.01,1.54,2.35,1.54,4.03v9.02c0,1.7-.51,3.05-1.54,4.06-1.03,1.01-2.39,1.51-4.09,1.51s-3.06-.5-4.07-1.51ZM403.39,663.9c.54-.57.81-1.32.81-2.25v-9.27c0-.93-.27-1.68-.81-2.25-.54-.57-1.25-.85-2.13-.85s-1.58.28-2.11.85-.8,1.32-.8,2.25v9.27c0,.93.27,1.68.8,2.25s1.24.85,2.11.85,1.59-.28,2.13-.85Z"/>
      <path class="cls-1" d="M413.05,664.48h7.42c.19,0,.28.09.28.28v1.76c0,.19-.09.28-.28.28h-10.56c-.19,0-.28-.09-.28-.28v-1.79c0-.13.04-.24.11-.34,2.41-3.1,4.28-5.59,5.63-7.48,1.44-2,2.16-3.59,2.16-4.79,0-.86-.24-1.54-.73-2.06-.49-.51-1.13-.77-1.93-.77s-1.41.26-1.89.77c-.48.51-.71,1.19-.69,2.03v.98c0,.19-.09.28-.28.28h-2.16c-.19,0-.28-.09-.28-.28v-1.2c.04-1.47.55-2.66,1.55-3.56s2.26-1.34,3.79-1.34c1.06,0,2,.22,2.8.66.8.44,1.42,1.05,1.86,1.83s.66,1.67.66,2.66c0,1.66-.75,3.55-2.24,5.66-.86,1.21-2.26,3.05-4.2,5.52l-.81,1.04c-.06.09-.04.14.06.14Z"/>
    </g>
  </g>
  <g id="wv_hall_1A_03" data-name="1A/03" class="ds-stand">
    <rect class="cls-3" x="386" y="600" width="44" height="34" rx="4" ry="4"/>
    <g>
      <path class="cls-1" d="M397.32,625.57c-1.02-1.01-1.53-2.36-1.53-4.06v-9.02c0-1.68.51-3.02,1.53-4.03,1.02-1.01,2.38-1.51,4.07-1.51s3.06.5,4.09,1.51c1.03,1.01,1.54,2.35,1.54,4.03v9.02c0,1.7-.51,3.05-1.54,4.06-1.03,1.01-2.39,1.51-4.09,1.51s-3.06-.5-4.07-1.51ZM403.52,623.9c.54-.57.81-1.32.81-2.25v-9.27c0-.93-.27-1.68-.81-2.25-.54-.57-1.25-.85-2.13-.85s-1.58.28-2.11.85-.8,1.32-.8,2.25v9.27c0,.93.27,1.68.8,2.25s1.24.85,2.11.85,1.59-.28,2.13-.85Z"/>
      <path class="cls-1" d="M420.26,620.72c0,1.16-.18,2.19-.53,3.11-.39,1.05-.99,1.84-1.79,2.38-.8.54-1.8.81-3,.81-1.36,0-2.5-.36-3.42-1.08-.92-.72-1.49-1.68-1.74-2.9-.11-.56-.19-1.24-.22-2.04,0-.19.09-.28.28-.28h2.13c.19,0,.28.09.28.28.04.62.09,1.12.17,1.51.15.69.44,1.23.87,1.61.43.38.98.57,1.65.57.62,0,1.13-.16,1.54-.49.41-.33.71-.81.9-1.44.17-.62.25-1.36.25-2.24,0-1.01-.12-1.84-.36-2.49-.21-.58-.5-1.02-.9-1.32-.39-.3-.88-.45-1.46-.45-.28,0-.58.08-.9.25-.08.04-.13.06-.17.06-.08,0-.15-.04-.22-.11l-1.09-1.18c-.06-.06-.08-.12-.08-.2s.03-.14.08-.2l4.26-5.24s.05-.07.03-.1c-.02-.03-.05-.04-.08-.04h-6.66c-.19,0-.28-.09-.28-.28v-1.76c0-.19.09-.28.28-.28h9.83c.19,0,.28.09.28.28v1.85c0,.13-.04.24-.11.34l-3.95,4.96s-.05.07-.03.1c.02.03.05.04.08.04.84.07,1.56.34,2.16.8.6.46,1.05,1.08,1.37,1.86.37.91.56,2.02.56,3.3Z"/>
    </g>
  </g>
  <g id="wv_hall_1A_04" data-name="1A/04" class="ds-stand">
    <rect class="cls-3" x="386" y="560" width="44" height="34" rx="4" ry="4"/>
    <g>
      <path class="cls-1" d="M396.84,585.57c-1.02-1.01-1.53-2.36-1.53-4.06v-9.02c0-1.68.51-3.02,1.53-4.03,1.02-1.01,2.38-1.51,4.07-1.51s3.06.5,4.09,1.51c1.03,1.01,1.54,2.35,1.54,4.03v9.02c0,1.7-.51,3.05-1.54,4.06-1.03,1.01-2.39,1.51-4.09,1.51s-3.06-.5-4.07-1.51ZM403.04,583.9c.54-.57.81-1.32.81-2.25v-9.27c0-.93-.27-1.68-.81-2.25-.54-.57-1.25-.85-2.13-.85s-1.58.28-2.11.85c-.53.57-.8,1.32-.8,2.25v9.27c0,.93.27,1.68.8,2.25.53.57,1.24.85,2.11.85s1.59-.28,2.13-.85Z"/>
      <path class="cls-1" d="M421.1,579.41v1.88c0,.19-.09.28-.28.28h-1.04c-.07,0-.11.04-.11.11v4.84c0,.19-.09.28-.28.28h-2.13c-.19,0-.28-.09-.28-.28v-4.84c0-.07-.04-.11-.11-.11h-7.7c-.19,0-.28-.09-.28-.28v-1.54c0-.13.02-.24.06-.34l4.79-11.98c.06-.15.16-.22.31-.22h2.29c.09,0,.16.03.2.1s.04.14,0,.24l-4.51,11.45s-.02.07,0,.1c.02.03.05.04.08.04h4.76c.08,0,.11-.04.11-.11v-3.98c0-.19.09-.28.28-.28h2.13c.19,0,.28.09.28.28v3.98c0,.08.04.11.11.11h1.04c.19,0,.28.09.28.28Z"/>
    </g>
  </g>
  <g id="wv_hall_1A_05" data-name="1A/05" class="ds-stand">
    <rect class="cls-3" x="386" y="520" width="44" height="34" rx="4" ry="4"/>
    <g>
      <path class="cls-1" d="M397.32,545.57c-1.02-1.01-1.53-2.36-1.53-4.06v-9.02c0-1.68.51-3.02,1.53-4.03,1.02-1.01,2.38-1.51,4.07-1.51s3.06.5,4.09,1.51c1.03,1.01,1.54,2.35,1.54,4.03v9.02c0,1.7-.51,3.05-1.54,4.06-1.03,1.01-2.39,1.51-4.09,1.51s-3.06-.5-4.07-1.51ZM403.52,543.9c.54-.57.81-1.32.81-2.25v-9.27c0-.93-.27-1.68-.81-2.25-.54-.57-1.25-.85-2.13-.85s-1.58.28-2.11.85-.8,1.32-.8,2.25v9.27c0,.93.27,1.68.8,2.25s1.24.85,2.11.85,1.59-.28,2.13-.85Z"/>
      <path class="cls-1" d="M420.63,540.72c0,.97-.08,1.79-.25,2.46-.32,1.23-.92,2.18-1.81,2.84s-1.99.99-3.32.99-2.43-.35-3.32-1.04c-.89-.69-1.48-1.66-1.78-2.91-.11-.48-.18-.86-.2-1.12v-.06c0-.15.08-.22.25-.22h2.16c.19,0,.29.09.31.28.04.3.07.5.11.59.15.69.44,1.22.87,1.58.43.36.96.55,1.6.55s1.17-.19,1.61-.56c.44-.37.73-.91.88-1.6.11-.43.17-1.02.17-1.76s-.07-1.38-.2-1.96c-.15-.63-.44-1.12-.87-1.44-.43-.33-.96-.49-1.6-.49s-1.14.14-1.58.42c-.44.28-.75.7-.94,1.26-.04.15-.14.22-.31.22h-2.18c-.19,0-.28-.09-.28-.28v-11c0-.19.09-.28.28-.28h9.55c.19,0,.28.09.28.28v1.76c0,.19-.09.28-.28.28h-7.03c-.08,0-.11.04-.11.11l-.03,5.96c0,.09.05.11.14.06.37-.37.83-.66,1.36-.85.53-.2,1.1-.29,1.69-.29,1.1,0,2.03.27,2.8.8.77.53,1.3,1.3,1.6,2.31.28.92.42,1.95.42,3.11Z"/>
    </g>
  </g>
  <g id="wv_hall_1A_06" data-name="1A/06" class="ds-stand">
    <rect class="cls-3" x="502" y="476" width="44" height="34" rx="4" ry="4"/>
    <g>
      <path class="cls-1" d="M513.3,501.57c-1.02-1.01-1.53-2.36-1.53-4.06v-9.02c0-1.68.51-3.02,1.53-4.03,1.02-1.01,2.38-1.51,4.07-1.51s3.06.5,4.09,1.51c1.03,1.01,1.54,2.35,1.54,4.03v9.02c0,1.7-.51,3.05-1.54,4.06-1.03,1.01-2.39,1.51-4.09,1.51s-3.06-.5-4.07-1.51ZM519.51,499.9c.54-.57.81-1.32.81-2.25v-9.27c0-.93-.27-1.68-.81-2.25-.54-.57-1.25-.85-2.13-.85s-1.58.28-2.11.85-.8,1.32-.8,2.25v9.27c0,.93.27,1.68.8,2.25s1.24.85,2.11.85,1.59-.28,2.13-.85Z"/>
      <path class="cls-1" d="M536.64,496.72c0,.95-.1,1.79-.31,2.52-.32,1.21-.91,2.15-1.76,2.8-.86.65-1.95.98-3.28.98-1.21,0-2.24-.29-3.08-.88-.84-.59-1.43-1.43-1.76-2.53-.34-.75-.5-1.68-.5-2.8l-.03-8.88c0-1.49.49-2.69,1.46-3.6s2.25-1.36,3.84-1.36c1.49,0,2.71.45,3.65,1.34s1.41,2.07,1.41,3.53v.59c0,.19-.09.28-.28.28h-2.13c-.19,0-.28-.09-.28-.28v-.39c0-.78-.23-1.43-.69-1.95-.46-.51-1.03-.77-1.72-.77-.75,0-1.36.26-1.83.77-.48.51-.71,1.19-.71,2.03v3.53s.01.07.04.08c.03.02.06,0,.1-.03.73-.84,1.7-1.26,2.91-1.26,1.14,0,2.09.3,2.84.9.76.6,1.31,1.42,1.67,2.46.3.84.45,1.81.45,2.91ZM533.93,496.67c0-.88-.09-1.59-.28-2.13-.17-.58-.46-1.03-.87-1.36-.41-.33-.92-.49-1.51-.49s-1.12.16-1.53.49c-.4.33-.69.79-.85,1.39-.17.52-.25,1.23-.25,2.13,0,.77.06,1.41.2,1.93.15.63.43,1.13.85,1.5.42.36.95.55,1.58.55s1.16-.18,1.58-.55c.42-.36.71-.89.88-1.58.13-.5.2-1.13.2-1.88Z"/>
    </g>
  </g>
  <g id="wv_hall_1A_07" data-name="1A/07" class="ds-stand">
    <rect class="cls-3" x="552" y="476" width="44" height="34" rx="4" ry="4"/>
    <g>
      <path class="cls-1" d="M563.88,501.57c-1.02-1.01-1.53-2.36-1.53-4.06v-9.02c0-1.68.51-3.02,1.53-4.03,1.02-1.01,2.38-1.51,4.07-1.51s3.06.5,4.09,1.51c1.03,1.01,1.54,2.35,1.54,4.03v9.02c0,1.7-.51,3.05-1.54,4.06-1.03,1.01-2.39,1.51-4.09,1.51s-3.06-.5-4.07-1.51ZM570.08,499.9c.54-.57.81-1.32.81-2.25v-9.27c0-.93-.27-1.68-.81-2.25s-1.25-.85-2.13-.85-1.58.28-2.11.85c-.53.57-.8,1.32-.8,2.25v9.27c0,.93.27,1.68.8,2.25.53.57,1.24.85,2.11.85s1.59-.28,2.13-.85Z"/>
      <path class="cls-1" d="M578.26,502.49l5.54-16.83s.01-.07-.01-.1c-.03-.03-.06-.04-.1-.04h-5.6c-.07,0-.11.04-.11.11v1.2c0,.19-.09.28-.28.28h-1.65c-.19,0-.28-.09-.28-.28v-3.36c0-.19.09-.28.28-.28h10.33c.19,0,.28.09.28.28v1.88c0,.07-.02.19-.06.34l-5.52,16.88c-.06.15-.17.22-.34.22h-2.27c-.21,0-.28-.1-.22-.31Z"/>
    </g>
  </g>
  <g id="wv_hall_1A_08" data-name="1A/08" class="ds-stand">
    <rect class="cls-3" x="602" y="476" width="44" height="34" rx="4" ry="4"/>
    <g>
      <path class="cls-1" d="M613.22,501.57c-1.02-1.01-1.53-2.36-1.53-4.06v-9.02c0-1.68.51-3.02,1.53-4.03,1.02-1.01,2.38-1.51,4.07-1.51s3.06.5,4.09,1.51c1.03,1.01,1.54,2.35,1.54,4.03v9.02c0,1.7-.51,3.05-1.54,4.06-1.03,1.01-2.39,1.51-4.09,1.51s-3.06-.5-4.07-1.51ZM619.42,499.9c.54-.57.81-1.32.81-2.25v-9.27c0-.93-.27-1.68-.81-2.25s-1.25-.85-2.13-.85-1.58.28-2.11.85c-.53.57-.8,1.32-.8,2.25v9.27c0,.93.27,1.68.8,2.25.53.57,1.24.85,2.11.85s1.59-.28,2.13-.85Z"/>
      <path class="cls-1" d="M636.42,497.26c0,1.16-.21,2.15-.62,2.97-.41.88-1.02,1.56-1.83,2.06-.81.5-1.77.74-2.87.74s-2.06-.25-2.88-.76c-.82-.5-1.44-1.21-1.85-2.13-.41-.88-.62-1.85-.62-2.91s.18-1.95.53-2.77c.37-.88.98-1.52,1.82-1.93.09-.06.09-.11,0-.17-.65-.39-1.16-.91-1.51-1.54-.47-.77-.7-1.67-.7-2.72s.21-1.92.64-2.69c.43-.78,1.05-1.4,1.85-1.85.8-.45,1.71-.67,2.72-.67s1.96.22,2.74.66c.78.44,1.38,1.06,1.79,1.86.45.8.67,1.7.67,2.69s-.23,1.91-.7,2.72c-.35.63-.86,1.15-1.51,1.54-.09.06-.1.1-.03.14.84.41,1.45,1.06,1.82,1.96.35.77.53,1.7.53,2.8ZM633.76,497.09c0-.75-.1-1.38-.31-1.9-.19-.54-.48-.96-.88-1.26-.4-.3-.89-.45-1.47-.45-1.18,0-1.96.55-2.35,1.65-.21.5-.31,1.16-.31,1.96s.13,1.52.39,2.04c.41,1.05,1.17,1.57,2.27,1.57s1.83-.51,2.24-1.54c.28-.56.42-1.25.42-2.07ZM628.55,488.3c0,.67.13,1.25.39,1.74.21.43.49.77.87,1.01.37.24.8.36,1.29.36s.94-.13,1.32-.38c.37-.25.66-.6.87-1.05.24-.47.36-1.04.36-1.71,0-.58-.11-1.09-.34-1.54-.19-.47-.47-.84-.85-1.11-.38-.27-.84-.41-1.39-.41-.5,0-.95.14-1.34.42-.39.28-.68.65-.87,1.12-.21.5-.31,1.02-.31,1.54Z"/>
    </g>
  </g>
  <g id="wv_hall_1A_09" data-name="1A/09" class="ds-stand">
    <rect class="cls-3" x="652" y="476" width="44" height="34" rx="4" ry="4"/>
    <g>
      <path class="cls-1" d="M663.43,501.57c-1.02-1.01-1.53-2.36-1.53-4.06v-9.02c0-1.68.51-3.02,1.53-4.03,1.02-1.01,2.38-1.51,4.07-1.51s3.06.5,4.09,1.51c1.03,1.01,1.54,2.35,1.54,4.03v9.02c0,1.7-.51,3.05-1.54,4.06-1.03,1.01-2.39,1.51-4.09,1.51s-3.06-.5-4.07-1.51ZM669.63,499.9c.54-.57.81-1.32.81-2.25v-9.27c0-.93-.27-1.68-.81-2.25-.54-.57-1.25-.85-2.13-.85s-1.58.28-2.11.85c-.53.57-.8,1.32-.8,2.25v9.27c0,.93.27,1.68.8,2.25.53.57,1.24.85,2.11.85s1.59-.28,2.13-.85Z"/>
      <path class="cls-1" d="M686.15,489.19v8.88c0,1.51-.49,2.72-1.46,3.61s-2.24,1.34-3.81,1.34-2.74-.45-3.67-1.34c-.93-.9-1.4-2.07-1.4-3.53v-.59c0-.19.09-.28.28-.28h2.13c.19,0,.28.09.28.28v.39c0,.8.22,1.46.67,1.96.45.5,1.02.76,1.71.76.76,0,1.39-.26,1.86-.77.48-.51.71-1.19.71-2.03v-3.56s-.01-.07-.04-.08c-.03-.02-.06,0-.1.03-.73.86-1.7,1.29-2.91,1.29-1.14,0-2.09-.3-2.86-.9-.77-.6-1.32-1.42-1.65-2.46-.3-.77-.45-1.74-.45-2.91,0-1.05.1-1.89.31-2.52.3-1.21.88-2.15,1.74-2.8.86-.65,1.95-.98,3.28-.98,1.21,0,2.24.29,3.08.88s1.43,1.43,1.76,2.53c.36.78.53,1.72.53,2.8ZM682.33,492.82c.4-.33.69-.79.85-1.39.19-.58.28-1.29.28-2.13,0-.77-.07-1.41-.2-1.93-.17-.65-.46-1.16-.88-1.51-.42-.35-.95-.53-1.58-.53s-1.14.18-1.57.55c-.43.36-.73.89-.9,1.58-.13.62-.2,1.24-.2,1.88,0,.8.09,1.51.28,2.13.39,1.23,1.19,1.85,2.38,1.85.62,0,1.12-.16,1.53-.49Z"/>
    </g>
  </g>
  <g id="wv_hall_1A_10" data-name="1A/10" class="ds-stand">
    <rect class="cls-3" x="702" y="476" width="44" height="34" rx="4" ry="4"/>
    <g>
      <path class="cls-1" d="M716.92,483.2h2.21c.19,0,.28.09.28.28v19.04c0,.19-.09.28-.28.28h-2.13c-.19,0-.28-.09-.28-.28v-16.41s-.01-.07-.04-.1c-.03-.03-.06-.03-.1-.01l-2.72.87-.11.03c-.11,0-.19-.08-.22-.25l-.11-1.6c0-.15.07-.26.2-.34l2.94-1.43c.11-.06.23-.08.36-.08Z"/>
      <path class="cls-1" d="M724.24,501.57c-1.02-1.01-1.53-2.36-1.53-4.06v-9.02c0-1.68.51-3.02,1.53-4.03,1.02-1.01,2.38-1.51,4.07-1.51s3.06.5,4.09,1.51c1.03,1.01,1.54,2.35,1.54,4.03v9.02c0,1.7-.51,3.05-1.54,4.06-1.03,1.01-2.39,1.51-4.09,1.51s-3.06-.5-4.07-1.51ZM730.44,499.9c.54-.57.81-1.32.81-2.25v-9.27c0-.93-.27-1.68-.81-2.25-.54-.57-1.25-.85-2.13-.85s-1.58.28-2.11.85-.8,1.32-.8,2.25v9.27c0,.93.27,1.68.8,2.25s1.24.85,2.11.85,1.59-.28,2.13-.85Z"/>
    </g>
  </g>
  <g id="wv_hall_1A_11" data-name="1A/11" class="ds-stand">
    <rect class="cls-3" x="772" y="476" width="44" height="34" rx="4" ry="4"/>
    <g>
      <path class="cls-1" d="M789.77,483.2h2.21c.19,0,.28.09.28.28v19.04c0,.19-.09.28-.28.28h-2.13c-.19,0-.28-.09-.28-.28v-16.41s-.01-.07-.04-.1c-.03-.03-.06-.03-.1-.01l-2.71.87-.11.03c-.11,0-.19-.08-.22-.25l-.11-1.6c0-.15.07-.26.2-.34l2.94-1.43c.11-.06.23-.08.36-.08Z"/>
      <path class="cls-1" d="M798.26,483.2h2.21c.19,0,.28.09.28.28v19.04c0,.19-.09.28-.28.28h-2.13c-.19,0-.28-.09-.28-.28v-16.41s-.01-.07-.04-.1c-.03-.03-.06-.03-.1-.01l-2.72.87-.11.03c-.11,0-.19-.08-.22-.25l-.11-1.6c0-.15.07-.26.2-.34l2.94-1.43c.11-.06.23-.08.36-.08Z"/>
    </g>
  </g>
  <g id="wv_hall_1A_12" data-name="1A/12" class="ds-stand">
    <rect class="cls-3" x="822" y="476" width="44" height="34" rx="4" ry="4"/>
    <g>
      <path class="cls-1" d="M837.28,483.2h2.21c.19,0,.28.09.28.28v19.04c0,.19-.09.28-.28.28h-2.13c-.19,0-.28-.09-.28-.28v-16.41s-.01-.07-.04-.1c-.03-.03-.06-.03-.1-.01l-2.72.87-.11.03c-.11,0-.19-.08-.22-.25l-.11-1.6c0-.15.07-.26.2-.34l2.94-1.43c.11-.06.23-.08.36-.08Z"/>
      <path class="cls-1" d="M846.3,500.48h7.42c.19,0,.28.09.28.28v1.76c0,.19-.09.28-.28.28h-10.56c-.19,0-.28-.09-.28-.28v-1.79c0-.13.04-.24.11-.34,2.41-3.1,4.28-5.59,5.63-7.48,1.44-2,2.16-3.59,2.16-4.79,0-.86-.24-1.54-.73-2.06-.49-.51-1.13-.77-1.93-.77s-1.41.26-1.89.77c-.48.51-.71,1.19-.69,2.03v.98c0,.19-.09.28-.28.28h-2.16c-.19,0-.28-.09-.28-.28v-1.2c.04-1.47.55-2.66,1.55-3.56s2.26-1.34,3.79-1.34c1.06,0,2,.22,2.8.66.8.44,1.42,1.05,1.86,1.83s.66,1.67.66,2.66c0,1.66-.75,3.55-2.24,5.66-.86,1.21-2.26,3.05-4.2,5.52l-.81,1.04c-.06.09-.04.14.06.14Z"/>
    </g>
  </g>
  <g id="wv_hall_1A_13" data-name="1A/13" class="ds-stand">
    <rect class="cls-3" x="592" y="610" width="44" height="34" rx="4" ry="4"/>
    <g>
      <path class="cls-1" d="M607.42,617.2h2.21c.19,0,.28.09.28.28v19.04c0,.19-.09.28-.28.28h-2.13c-.19,0-.28-.09-.28-.28v-16.41s-.01-.07-.04-.1c-.03-.03-.06-.03-.1-.01l-2.72.87-.11.03c-.11,0-.19-.08-.22-.25l-.11-1.6c0-.15.07-.26.2-.34l2.94-1.43c.11-.06.23-.08.36-.08Z"/>
      <path class="cls-1" d="M623.49,630.72c0,1.16-.18,2.19-.53,3.11-.39,1.05-.99,1.84-1.79,2.38s-1.8.81-3,.81c-1.36,0-2.5-.36-3.42-1.08-.92-.72-1.49-1.68-1.74-2.9-.11-.56-.19-1.24-.22-2.04,0-.19.09-.28.28-.28h2.13c.19,0,.28.09.28.28.04.62.09,1.12.17,1.51.15.69.44,1.23.87,1.61.43.38.98.57,1.65.57.62,0,1.13-.16,1.54-.49.41-.33.71-.81.9-1.44.17-.62.25-1.36.25-2.24,0-1.01-.12-1.84-.36-2.49-.21-.58-.5-1.02-.9-1.32-.39-.3-.88-.45-1.46-.45-.28,0-.58.08-.9.25-.08.04-.13.06-.17.06-.08,0-.15-.04-.22-.11l-1.09-1.18c-.06-.06-.08-.12-.08-.2s.03-.14.08-.2l4.26-5.24s.05-.07.03-.1c-.02-.03-.05-.04-.08-.04h-6.66c-.19,0-.28-.09-.28-.28v-1.76c0-.19.09-.28.28-.28h9.83c.19,0,.28.09.28.28v1.85c0,.13-.04.24-.11.34l-3.95,4.96s-.05.07-.03.1c.02.03.05.04.08.04.84.07,1.56.34,2.16.8.6.46,1.05,1.08,1.37,1.86.37.91.56,2.02.56,3.3Z"/>
    </g>
  </g>
  <g id="wv_hall_1A_14" data-name="1A/14" class="ds-stand">
    <rect class="cls-3" x="642" y="610" width="44" height="34" rx="4" ry="4"/>
    <g>
      <path class="cls-1" d="M656.94,617.2h2.21c.19,0,.28.09.28.28v19.04c0,.19-.09.28-.28.28h-2.13c-.19,0-.28-.09-.28-.28v-16.41s-.01-.07-.04-.1c-.03-.03-.06-.03-.1-.01l-2.72.87-.11.03c-.11,0-.19-.08-.22-.25l-.11-1.6c0-.15.07-.26.2-.34l2.94-1.43c.11-.06.23-.08.36-.08Z"/>
      <path class="cls-1" d="M674.33,629.41v1.88c0,.19-.09.28-.28.28h-1.04c-.07,0-.11.04-.11.11v4.84c0,.19-.09.28-.28.28h-2.13c-.19,0-.28-.09-.28-.28v-4.84c0-.07-.04-.11-.11-.11h-7.7c-.19,0-.28-.09-.28-.28v-1.54c0-.13.02-.24.06-.34l4.79-11.98c.06-.15.16-.22.31-.22h2.3c.09,0,.16.03.2.1s.04.14,0,.24l-4.51,11.45s-.02.07,0,.1c.02.03.05.04.08.04h4.76c.07,0,.11-.04.11-.11v-3.98c0-.19.09-.28.28-.28h2.13c.19,0,.28.09.28.28v3.98c0,.08.04.11.11.11h1.04c.19,0,.28.09.28.28Z"/>
    </g>
  </g>
  <g id="wv_hall_1A_15" data-name="1A/15" class="ds-stand">
    <rect class="cls-3" x="592" y="650" width="44" height="34" rx="4" ry="4"/>
    <g>
      <path class="cls-1" d="M607.42,657.2h2.21c.19,0,.28.09.28.28v19.04c0,.19-.09.28-.28.28h-2.13c-.19,0-.28-.09-.28-.28v-16.41s-.01-.07-.04-.1c-.03-.03-.06-.03-.1-.01l-2.72.87-.11.03c-.11,0-.19-.08-.22-.25l-.11-1.6c0-.15.07-.26.2-.34l2.94-1.43c.11-.06.23-.08.36-.08Z"/>
      <path class="cls-1" d="M623.86,670.72c0,.97-.08,1.79-.25,2.46-.32,1.23-.92,2.18-1.81,2.84s-1.99.99-3.32.99-2.43-.35-3.32-1.04c-.89-.69-1.48-1.66-1.78-2.91-.11-.48-.18-.86-.2-1.12v-.06c0-.15.08-.22.25-.22h2.16c.19,0,.29.09.31.28.04.3.07.5.11.59.15.69.44,1.22.87,1.58.43.36.96.55,1.6.55s1.17-.19,1.61-.56c.44-.37.73-.91.88-1.6.11-.43.17-1.02.17-1.76s-.07-1.38-.2-1.96c-.15-.63-.44-1.12-.87-1.44-.43-.33-.96-.49-1.6-.49s-1.14.14-1.58.42c-.44.28-.75.7-.94,1.26-.04.15-.14.22-.31.22h-2.18c-.19,0-.28-.09-.28-.28v-11c0-.19.09-.28.28-.28h9.55c.19,0,.28.09.28.28v1.76c0,.19-.09.28-.28.28h-7.03c-.08,0-.11.04-.11.11l-.03,5.96c0,.09.05.11.14.06.37-.37.83-.66,1.36-.85.53-.2,1.1-.29,1.69-.29,1.1,0,2.03.27,2.8.8.77.53,1.3,1.3,1.6,2.31.28.92.42,1.95.42,3.11Z"/>
    </g>
  </g>
  <g id="wv_hall_1A_16" data-name="1A/16" class="ds-stand">
    <rect class="cls-3" x="642" y="650" width="44" height="34" rx="4" ry="4"/>
    <g>
      <path class="cls-1" d="M657.41,657.2h2.21c.19,0,.28.09.28.28v19.04c0,.19-.09.28-.28.28h-2.13c-.19,0-.28-.09-.28-.28v-16.41s-.01-.07-.04-.1c-.03-.03-.06-.03-.1-.01l-2.72.87-.11.03c-.11,0-.19-.08-.22-.25l-.11-1.6c0-.15.07-.26.2-.34l2.94-1.43c.11-.06.23-.08.36-.08Z"/>
      <path class="cls-1" d="M673.87,670.72c0,.95-.1,1.79-.31,2.52-.32,1.21-.91,2.15-1.76,2.8-.86.65-1.95.98-3.28.98-1.21,0-2.24-.29-3.08-.88-.84-.59-1.43-1.43-1.76-2.53-.34-.75-.5-1.68-.5-2.8l-.03-8.88c0-1.49.48-2.69,1.46-3.6.97-.91,2.25-1.36,3.84-1.36,1.49,0,2.71.45,3.65,1.34.94.9,1.41,2.07,1.41,3.53v.59c0,.19-.09.28-.28.28h-2.13c-.19,0-.28-.09-.28-.28v-.39c0-.78-.23-1.43-.69-1.95-.46-.51-1.03-.77-1.72-.77-.75,0-1.36.26-1.83.77-.48.51-.71,1.19-.71,2.03v3.53s.01.07.04.08c.03.02.06,0,.1-.03.73-.84,1.7-1.26,2.91-1.26,1.14,0,2.09.3,2.84.9.76.6,1.31,1.42,1.67,2.46.3.84.45,1.81.45,2.91ZM671.15,670.67c0-.88-.09-1.59-.28-2.13-.17-.58-.46-1.03-.87-1.36-.41-.33-.91-.49-1.51-.49s-1.12.16-1.53.49c-.4.33-.69.79-.85,1.39-.17.52-.25,1.23-.25,2.13,0,.77.07,1.41.2,1.93.15.63.43,1.13.85,1.5.42.36.95.55,1.58.55s1.16-.18,1.58-.55c.42-.36.71-.89.88-1.58.13-.5.2-1.13.2-1.88Z"/>
    </g>
  </g>
  <g id="wv_hall_1A_17" data-name="1A/17" class="ds-stand">
    <rect class="cls-3" x="712" y="610" width="44" height="34" rx="4" ry="4"/>
    <g>
      <path class="cls-1" d="M727.98,617.2h2.21c.19,0,.28.09.28.28v19.04c0,.19-.09.28-.28.28h-2.13c-.19,0-.28-.09-.28-.28v-16.41s-.01-.07-.04-.1c-.03-.03-.06-.03-.1-.01l-2.72.87-.11.03c-.11,0-.19-.08-.22-.25l-.11-1.6c0-.15.06-.26.2-.34l2.94-1.43c.11-.06.23-.08.36-.08Z"/>
      <path class="cls-1" d="M735.48,636.49l5.54-16.83s.01-.07-.01-.1c-.03-.03-.06-.04-.1-.04h-5.6c-.08,0-.11.04-.11.11v1.2c0,.19-.09.28-.28.28h-1.65c-.19,0-.28-.09-.28-.28v-3.36c0-.19.09-.28.28-.28h10.33c.19,0,.28.09.28.28v1.88c0,.07-.02.19-.06.34l-5.52,16.88c-.06.15-.17.22-.34.22h-2.27c-.21,0-.28-.1-.22-.31Z"/>
    </g>
  </g>
  <g id="wv_hall_1A_18" data-name="1A/18" class="ds-stand">
    <rect class="cls-3" x="762" y="610" width="44" height="34" rx="4" ry="4"/>
    <g>
      <path class="cls-1" d="M777.32,617.2h2.21c.19,0,.28.09.28.28v19.04c0,.19-.09.28-.28.28h-2.13c-.19,0-.28-.09-.28-.28v-16.41s-.01-.07-.04-.1c-.03-.03-.06-.03-.1-.01l-2.72.87-.11.03c-.11,0-.19-.08-.22-.25l-.11-1.6c0-.15.07-.26.2-.34l2.94-1.43c.11-.06.23-.08.36-.08Z"/>
      <path class="cls-1" d="M793.65,631.26c0,1.16-.21,2.15-.62,2.97-.41.88-1.02,1.56-1.83,2.06-.81.5-1.77.74-2.87.74s-2.06-.25-2.88-.76c-.82-.5-1.44-1.21-1.85-2.13-.41-.88-.62-1.85-.62-2.91s.18-1.95.53-2.77c.37-.88.98-1.52,1.82-1.93.09-.06.09-.11,0-.17-.65-.39-1.16-.91-1.51-1.54-.47-.77-.7-1.67-.7-2.72s.21-1.92.64-2.69c.43-.78,1.04-1.4,1.85-1.85.8-.45,1.71-.67,2.72-.67s1.96.22,2.74.66c.78.44,1.38,1.06,1.79,1.86.45.8.67,1.7.67,2.69s-.23,1.91-.7,2.72c-.36.63-.86,1.15-1.51,1.54-.09.06-.1.1-.03.14.84.41,1.45,1.06,1.82,1.96.36.77.53,1.7.53,2.8ZM790.99,631.09c0-.75-.1-1.38-.31-1.9-.19-.54-.48-.96-.88-1.26-.4-.3-.89-.45-1.47-.45-1.18,0-1.96.55-2.35,1.65-.21.5-.31,1.16-.31,1.96s.13,1.52.39,2.04c.41,1.05,1.17,1.57,2.27,1.57s1.83-.51,2.24-1.54c.28-.56.42-1.25.42-2.07ZM785.78,622.3c0,.67.13,1.25.39,1.74.21.43.49.77.87,1.01.37.24.8.36,1.29.36s.94-.13,1.32-.38c.37-.25.66-.6.87-1.05.24-.47.36-1.04.36-1.71,0-.58-.11-1.09-.34-1.54-.19-.47-.47-.84-.85-1.11-.38-.27-.84-.41-1.39-.41-.5,0-.95.14-1.34.42-.39.28-.68.65-.87,1.12-.21.5-.31,1.02-.31,1.54Z"/>
    </g>
  </g>
  <g id="wv_hall_1A_19" data-name="1A/19" class="ds-stand">
    <rect class="cls-3" x="712" y="650" width="44" height="34" rx="4" ry="4"/>
    <g>
      <path class="cls-1" d="M727.53,657.2h2.21c.19,0,.28.09.28.28v19.04c0,.19-.09.28-.28.28h-2.13c-.19,0-.28-.09-.28-.28v-16.41s-.01-.07-.04-.1c-.03-.03-.06-.03-.1-.01l-2.72.87-.11.03c-.11,0-.19-.08-.22-.25l-.11-1.6c0-.15.07-.26.2-.34l2.94-1.43c.11-.06.23-.08.36-.08Z"/>
      <path class="cls-1" d="M743.38,663.19v8.88c0,1.51-.49,2.72-1.46,3.61s-2.24,1.34-3.81,1.34-2.73-.45-3.67-1.34-1.4-2.07-1.4-3.53v-.59c0-.19.09-.28.28-.28h2.13c.19,0,.28.09.28.28v.39c0,.8.22,1.46.67,1.96.45.5,1.02.76,1.71.76.77,0,1.39-.26,1.86-.77.48-.51.71-1.19.71-2.03v-3.56s-.01-.07-.04-.08c-.03-.02-.06,0-.1.03-.73.86-1.7,1.29-2.91,1.29-1.14,0-2.09-.3-2.86-.9-.77-.6-1.32-1.42-1.65-2.46-.3-.77-.45-1.74-.45-2.91,0-1.05.1-1.89.31-2.52.3-1.21.88-2.15,1.74-2.8.86-.65,1.95-.98,3.28-.98,1.21,0,2.24.29,3.08.88s1.43,1.43,1.76,2.53c.35.78.53,1.72.53,2.8ZM739.56,666.82c.4-.33.69-.79.85-1.39.19-.58.28-1.29.28-2.13,0-.77-.07-1.41-.2-1.93-.17-.65-.46-1.16-.88-1.51-.42-.35-.95-.53-1.58-.53s-1.14.18-1.57.55c-.43.36-.73.89-.9,1.58-.13.62-.2,1.24-.2,1.88,0,.8.09,1.51.28,2.13.39,1.23,1.18,1.85,2.38,1.85.62,0,1.12-.16,1.53-.49Z"/>
    </g>
  </g>
  <g id="wv_hall_1A_20" data-name="1A/20" class="ds-stand">
    <rect class="cls-3" x="762" y="650" width="44" height="34" rx="4" ry="4"/>
    <g>
      <path class="cls-1" d="M774.86,674.48h7.42c.19,0,.28.09.28.28v1.76c0,.19-.09.28-.28.28h-10.56c-.19,0-.28-.09-.28-.28v-1.79c0-.13.04-.24.11-.34,2.41-3.1,4.28-5.59,5.63-7.48,1.44-2,2.16-3.59,2.16-4.79,0-.86-.24-1.54-.73-2.06-.49-.51-1.13-.77-1.93-.77s-1.41.26-1.89.77c-.48.51-.71,1.19-.69,2.03v.98c0,.19-.09.28-.28.28h-2.16c-.19,0-.28-.09-.28-.28v-1.2c.04-1.47.55-2.66,1.55-3.56,1-.9,2.26-1.34,3.79-1.34,1.06,0,2,.22,2.8.66.8.44,1.42,1.05,1.86,1.83.44.78.66,1.67.66,2.66,0,1.66-.75,3.55-2.24,5.66-.86,1.21-2.26,3.05-4.2,5.52l-.81,1.04c-.06.09-.04.14.06.14Z"/>
      <path class="cls-1" d="M786.63,675.57c-1.02-1.01-1.53-2.36-1.53-4.06v-9.02c0-1.68.51-3.02,1.53-4.03,1.02-1.01,2.38-1.51,4.07-1.51s3.06.5,4.09,1.51c1.03,1.01,1.54,2.35,1.54,4.03v9.02c0,1.7-.51,3.05-1.54,4.06-1.03,1.01-2.39,1.51-4.09,1.51s-3.06-.5-4.07-1.51ZM792.83,673.9c.54-.57.81-1.32.81-2.25v-9.27c0-.93-.27-1.68-.81-2.25s-1.25-.85-2.13-.85-1.58.28-2.11.85c-.53.57-.8,1.32-.8,2.25v9.27c0,.93.27,1.68.8,2.25.53.57,1.24.85,2.11.85s1.59-.28,2.13-.85Z"/>
    </g>
  </g>
  <g id="wv_hall_1A_21" data-name="1A/21" class="ds-stand">
    <rect class="cls-3" x="452" y="730" width="34" height="44" rx="4" ry="4"/>
    <g>
      <path class="cls-1" d="M462.9,759.48h7.42c.19,0,.28.09.28.28v1.76c0,.19-.09.28-.28.28h-10.56c-.19,0-.28-.09-.28-.28v-1.79c0-.13.04-.24.11-.34,2.41-3.1,4.28-5.59,5.63-7.48,1.44-2,2.16-3.59,2.16-4.79,0-.86-.24-1.54-.73-2.06-.49-.51-1.13-.77-1.93-.77s-1.41.26-1.89.77c-.48.51-.71,1.19-.69,2.03v.98c0,.19-.09.28-.28.28h-2.16c-.19,0-.28-.09-.28-.28v-1.2c.04-1.47.56-2.66,1.55-3.56,1-.9,2.26-1.34,3.79-1.34,1.06,0,2,.22,2.8.66.8.44,1.42,1.05,1.86,1.83.44.78.66,1.67.66,2.66,0,1.66-.75,3.55-2.24,5.66-.86,1.21-2.26,3.05-4.2,5.52l-.81,1.04c-.06.09-.04.14.06.14Z"/>
      <path class="cls-1" d="M475.47,742.2h2.21c.19,0,.28.09.28.28v19.04c0,.19-.09.28-.28.28h-2.13c-.19,0-.28-.09-.28-.28v-16.41s-.01-.07-.04-.1c-.03-.03-.06-.03-.1-.01l-2.72.87-.11.03c-.11,0-.19-.08-.22-.25l-.11-1.6c0-.15.06-.26.2-.34l2.94-1.43c.11-.06.23-.08.36-.08Z"/>
    </g>
  </g>
  <g id="wv_hall_1A_22" data-name="1A/22" class="ds-stand">
    <rect class="cls-3" x="492" y="730" width="34" height="44" rx="4" ry="4"/>
    <g>
      <path class="cls-1" d="M500.24,759.48h7.42c.19,0,.28.09.28.28v1.76c0,.19-.09.28-.28.28h-10.56c-.19,0-.28-.09-.28-.28v-1.79c0-.13.04-.24.11-.34,2.41-3.1,4.28-5.59,5.63-7.48,1.44-2,2.16-3.59,2.16-4.79,0-.86-.24-1.54-.73-2.06-.49-.51-1.13-.77-1.93-.77s-1.41.26-1.89.77c-.48.51-.71,1.19-.69,2.03v.98c0,.19-.09.28-.28.28h-2.16c-.19,0-.28-.09-.28-.28v-1.2c.04-1.47.56-2.66,1.55-3.56,1-.9,2.26-1.34,3.79-1.34,1.06,0,2,.22,2.8.66.8.44,1.42,1.05,1.86,1.83.44.78.66,1.67.66,2.66,0,1.66-.75,3.55-2.24,5.66-.86,1.21-2.26,3.05-4.2,5.52l-.81,1.04c-.06.09-.04.14.06.14Z"/>
      <path class="cls-1" d="M513.68,759.48h7.42c.19,0,.28.09.28.28v1.76c0,.19-.09.28-.28.28h-10.56c-.19,0-.28-.09-.28-.28v-1.79c0-.13.04-.24.11-.34,2.41-3.1,4.28-5.59,5.63-7.48,1.44-2,2.16-3.59,2.16-4.79,0-.86-.24-1.54-.73-2.06-.49-.51-1.13-.77-1.93-.77s-1.41.26-1.89.77c-.48.51-.7,1.19-.69,2.03v.98c0,.19-.09.28-.28.28h-2.16c-.19,0-.28-.09-.28-.28v-1.2c.04-1.47.56-2.66,1.55-3.56s2.26-1.34,3.79-1.34c1.06,0,2,.22,2.8.66.8.44,1.42,1.05,1.86,1.83s.66,1.67.66,2.66c0,1.66-.75,3.55-2.24,5.66-.86,1.21-2.26,3.05-4.2,5.52l-.81,1.04c-.06.09-.04.14.06.14Z"/>
    </g>
  </g>
  <g id="wv_hall_1A_23" data-name="1A/23" class="ds-stand">
    <rect class="cls-3" x="532" y="730" width="34" height="44" rx="4" ry="4"/>
    <g>
      <path class="cls-1" d="M540.42,759.48h7.42c.19,0,.28.09.28.28v1.76c0,.19-.09.28-.28.28h-10.56c-.19,0-.28-.09-.28-.28v-1.79c0-.13.04-.24.11-.34,2.41-3.1,4.28-5.59,5.63-7.48,1.44-2,2.16-3.59,2.16-4.79,0-.86-.24-1.54-.73-2.06-.49-.51-1.13-.77-1.93-.77s-1.41.26-1.89.77c-.48.51-.7,1.19-.69,2.03v.98c0,.19-.09.28-.28.28h-2.16c-.19,0-.28-.09-.28-.28v-1.2c.04-1.47.56-2.66,1.55-3.56s2.26-1.34,3.79-1.34c1.06,0,2,.22,2.8.66.8.44,1.42,1.05,1.86,1.83s.66,1.67.66,2.66c0,1.66-.75,3.55-2.24,5.66-.86,1.21-2.26,3.05-4.2,5.52l-.81,1.04c-.06.09-.04.14.06.14Z"/>
      <path class="cls-1" d="M560.83,755.72c0,1.16-.18,2.19-.53,3.11-.39,1.05-.99,1.84-1.79,2.38s-1.8.81-3,.81c-1.36,0-2.5-.36-3.42-1.08-.91-.72-1.49-1.68-1.74-2.9-.11-.56-.19-1.24-.22-2.04,0-.19.09-.28.28-.28h2.13c.19,0,.28.09.28.28.04.62.09,1.12.17,1.51.15.69.44,1.23.87,1.61.43.38.98.57,1.65.57.62,0,1.13-.16,1.54-.49.41-.33.71-.81.9-1.44.17-.62.25-1.36.25-2.24,0-1.01-.12-1.84-.36-2.49-.21-.58-.5-1.02-.9-1.32-.39-.3-.88-.45-1.46-.45-.28,0-.58.08-.9.25-.07.04-.13.06-.17.06-.07,0-.15-.04-.22-.11l-1.09-1.18c-.06-.06-.08-.12-.08-.2s.03-.14.08-.2l4.26-5.24s.05-.07.03-.1c-.02-.03-.05-.04-.08-.04h-6.66c-.19,0-.28-.09-.28-.28v-1.76c0-.19.09-.28.28-.28h9.83c.19,0,.28.09.28.28v1.85c0,.13-.04.24-.11.34l-3.95,4.96s-.05.07-.03.1.05.04.08.04c.84.07,1.56.34,2.16.8.6.46,1.05,1.08,1.37,1.86.37.91.56,2.02.56,3.3Z"/>
    </g>
  </g>
  <g id="wv_hall_1A_24" data-name="1A/24" class="ds-stand">
    <rect class="cls-3" x="572" y="730" width="34" height="44" rx="4" ry="4"/>
    <g>
      <path class="cls-1" d="M579.89,759.48h7.42c.19,0,.28.09.28.28v1.76c0,.19-.09.28-.28.28h-10.56c-.19,0-.28-.09-.28-.28v-1.79c0-.13.04-.24.11-.34,2.41-3.1,4.28-5.59,5.63-7.48,1.44-2,2.16-3.59,2.16-4.79,0-.86-.24-1.54-.73-2.06-.49-.51-1.13-.77-1.93-.77s-1.41.26-1.89.77c-.48.51-.71,1.19-.69,2.03v.98c0,.19-.09.28-.28.28h-2.16c-.19,0-.28-.09-.28-.28v-1.2c.04-1.47.56-2.66,1.55-3.56,1-.9,2.26-1.34,3.79-1.34,1.06,0,2,.22,2.8.66.8.44,1.42,1.05,1.86,1.83s.66,1.67.66,2.66c0,1.66-.75,3.55-2.24,5.66-.86,1.21-2.26,3.05-4.2,5.52l-.81,1.04c-.06.09-.04.14.06.14Z"/>
      <path class="cls-1" d="M601.73,754.41v1.88c0,.19-.09.28-.28.28h-1.04c-.07,0-.11.04-.11.11v4.84c0,.19-.09.28-.28.28h-2.13c-.19,0-.28-.09-.28-.28v-4.84c0-.07-.04-.11-.11-.11h-7.7c-.19,0-.28-.09-.28-.28v-1.54c0-.13.02-.24.06-.34l4.79-11.98c.06-.15.16-.22.31-.22h2.3c.09,0,.16.03.2.1s.04.14,0,.24l-4.51,11.45s-.02.07,0,.1c.02.03.05.04.08.04h4.76c.07,0,.11-.04.11-.11v-3.98c0-.19.09-.28.28-.28h2.13c.19,0,.28.09.28.28v3.98c0,.08.04.11.11.11h1.04c.19,0,.28.09.28.28Z"/>
    </g>
  </g>
  <g id="wv_hall_1A_25" data-name="1A/25" class="ds-stand">
    <rect class="cls-3" x="612" y="730" width="34" height="44" rx="4" ry="4"/>
    <g>
      <path class="cls-1" d="M620.36,759.48h7.42c.19,0,.28.09.28.28v1.76c0,.19-.09.28-.28.28h-10.56c-.19,0-.28-.09-.28-.28v-1.79c0-.13.04-.24.11-.34,2.41-3.1,4.28-5.59,5.63-7.48,1.44-2,2.16-3.59,2.16-4.79,0-.86-.24-1.54-.73-2.06-.49-.51-1.13-.77-1.93-.77s-1.41.26-1.89.77c-.48.51-.71,1.19-.69,2.03v.98c0,.19-.09.28-.28.28h-2.16c-.19,0-.28-.09-.28-.28v-1.2c.04-1.47.55-2.66,1.55-3.56,1-.9,2.26-1.34,3.79-1.34,1.06,0,2,.22,2.8.66.8.44,1.42,1.05,1.86,1.83.44.78.66,1.67.66,2.66,0,1.66-.75,3.55-2.24,5.66-.86,1.21-2.26,3.05-4.2,5.52l-.81,1.04c-.06.09-.04.14.06.14Z"/>
      <path class="cls-1" d="M641.25,755.72c0,.97-.08,1.79-.25,2.46-.32,1.23-.92,2.18-1.81,2.84s-1.99.99-3.32.99-2.43-.35-3.32-1.04c-.89-.69-1.48-1.66-1.78-2.91-.11-.48-.18-.86-.2-1.12v-.06c0-.15.08-.22.25-.22h2.16c.19,0,.29.09.31.28.04.3.07.5.11.59.15.69.44,1.22.87,1.58.43.36.96.55,1.6.55s1.17-.19,1.61-.56c.44-.37.73-.91.88-1.6.11-.43.17-1.02.17-1.76s-.07-1.38-.2-1.96c-.15-.63-.44-1.12-.87-1.44-.43-.33-.96-.49-1.6-.49s-1.14.14-1.58.42-.75.7-.94,1.26c-.04.15-.14.22-.31.22h-2.18c-.19,0-.28-.09-.28-.28v-11c0-.19.09-.28.28-.28h9.55c.19,0,.28.09.28.28v1.76c0,.19-.09.28-.28.28h-7.03c-.08,0-.11.04-.11.11l-.03,5.96c0,.09.05.11.14.06.37-.37.83-.66,1.36-.85.53-.2,1.1-.29,1.69-.29,1.1,0,2.04.27,2.8.8.76.53,1.3,1.3,1.6,2.31.28.92.42,1.95.42,3.11Z"/>
    </g>
  </g>
  <g id="wv_hall_1A_26" data-name="1A/26" class="ds-stand">
    <rect class="cls-3" x="652" y="730" width="34" height="44" rx="4" ry="4"/>
    <g>
      <path class="cls-1" d="M660.35,759.48h7.42c.19,0,.28.09.28.28v1.76c0,.19-.09.28-.28.28h-10.56c-.19,0-.28-.09-.28-.28v-1.79c0-.13.04-.24.11-.34,2.41-3.1,4.28-5.59,5.63-7.48,1.44-2,2.16-3.59,2.16-4.79,0-.86-.24-1.54-.73-2.06-.49-.51-1.13-.77-1.93-.77s-1.41.26-1.89.77c-.48.51-.71,1.19-.69,2.03v.98c0,.19-.09.28-.28.28h-2.16c-.19,0-.28-.09-.28-.28v-1.2c.04-1.47.55-2.66,1.55-3.56,1-.9,2.26-1.34,3.79-1.34,1.06,0,2,.22,2.8.66.8.44,1.42,1.05,1.86,1.83.44.78.66,1.67.66,2.66,0,1.66-.75,3.55-2.24,5.66-.86,1.21-2.26,3.05-4.2,5.52l-.81,1.04c-.06.09-.04.14.06.14Z"/>
      <path class="cls-1" d="M681.27,755.72c0,.95-.1,1.79-.31,2.52-.32,1.21-.91,2.15-1.76,2.8s-1.95.98-3.28.98c-1.21,0-2.24-.29-3.08-.88-.84-.59-1.43-1.43-1.76-2.53-.34-.75-.5-1.68-.5-2.8l-.03-8.88c0-1.49.49-2.69,1.46-3.6s2.25-1.36,3.84-1.36c1.49,0,2.71.45,3.65,1.34.94.9,1.41,2.07,1.41,3.53v.59c0,.19-.09.28-.28.28h-2.13c-.19,0-.28-.09-.28-.28v-.39c0-.78-.23-1.43-.69-1.95-.46-.51-1.03-.77-1.72-.77-.75,0-1.36.26-1.83.77-.48.51-.71,1.19-.71,2.03v3.53s.01.07.04.08c.03.02.06,0,.1-.03.73-.84,1.7-1.26,2.91-1.26,1.14,0,2.09.3,2.84.9.76.6,1.31,1.42,1.67,2.46.3.84.45,1.81.45,2.91ZM678.55,755.67c0-.88-.09-1.59-.28-2.13-.17-.58-.46-1.03-.87-1.36-.41-.33-.92-.49-1.51-.49s-1.12.16-1.53.49c-.4.33-.69.79-.85,1.39-.17.52-.25,1.23-.25,2.13,0,.77.07,1.41.2,1.93.15.63.43,1.13.85,1.5.42.36.95.55,1.58.55s1.16-.18,1.58-.55c.42-.36.71-.89.88-1.58.13-.5.2-1.13.2-1.88Z"/>
    </g>
  </g>
  <g id="wv_hall_1A_27" data-name="1A/27" class="ds-stand">
    <rect class="cls-3" x="692" y="730" width="34" height="44" rx="4" ry="4"/>
    <g>
      <path class="cls-1" d="M700.92,759.48h7.42c.19,0,.28.09.28.28v1.76c0,.19-.09.28-.28.28h-10.56c-.19,0-.28-.09-.28-.28v-1.79c0-.13.04-.24.11-.34,2.41-3.1,4.28-5.59,5.63-7.48,1.44-2,2.16-3.59,2.16-4.79,0-.86-.24-1.54-.73-2.06-.49-.51-1.13-.77-1.93-.77s-1.41.26-1.89.77c-.48.51-.7,1.19-.69,2.03v.98c0,.19-.09.28-.28.28h-2.16c-.19,0-.28-.09-.28-.28v-1.2c.04-1.47.56-2.66,1.55-3.56s2.26-1.34,3.79-1.34c1.06,0,2,.22,2.8.66.8.44,1.42,1.05,1.86,1.83s.66,1.67.66,2.66c0,1.66-.75,3.55-2.24,5.66-.86,1.21-2.26,3.05-4.2,5.52l-.81,1.04c-.06.09-.04.14.06.14Z"/>
      <path class="cls-1" d="M712.88,761.49l5.54-16.83s.01-.07-.01-.1c-.03-.03-.06-.04-.1-.04h-5.6c-.08,0-.11.04-.11.11v1.2c0,.19-.09.28-.28.28h-1.65c-.19,0-.28-.09-.28-.28v-3.36c0-.19.09-.28.28-.28h10.33c.19,0,.28.09.28.28v1.88c0,.07-.02.19-.06.34l-5.52,16.88c-.06.15-.17.22-.34.22h-2.27c-.21,0-.28-.1-.22-.31Z"/>
    </g>
  </g>
  <g id="wv_hall_1A_28" data-name="1A/28" class="ds-stand">
    <rect class="cls-3" x="732" y="730" width="74" height="44" rx="4" ry="4"/>
    <g>
      <path class="cls-1" d="M760.27,759.48h7.42c.19,0,.28.09.28.28v1.76c0,.19-.09.28-.28.28h-10.56c-.19,0-.28-.09-.28-.28v-1.79c0-.13.04-.24.11-.34,2.41-3.1,4.28-5.59,5.63-7.48,1.44-2,2.16-3.59,2.16-4.79,0-.86-.24-1.54-.73-2.06-.49-.51-1.13-.77-1.93-.77s-1.41.26-1.89.77c-.48.51-.71,1.19-.69,2.03v.98c0,.19-.09.28-.28.28h-2.16c-.19,0-.28-.09-.28-.28v-1.2c.04-1.47.56-2.66,1.55-3.56,1-.9,2.26-1.34,3.79-1.34,1.06,0,2,.22,2.8.66.8.44,1.42,1.05,1.86,1.83.44.78.66,1.67.66,2.66,0,1.66-.75,3.55-2.24,5.66-.86,1.21-2.26,3.05-4.2,5.52l-.81,1.04c-.06.09-.04.14.06.14Z"/>
      <path class="cls-1" d="M781.04,756.26c0,1.16-.21,2.15-.62,2.97-.41.88-1.02,1.56-1.83,2.06-.81.5-1.77.74-2.87.74s-2.06-.25-2.88-.76c-.82-.5-1.44-1.21-1.85-2.13-.41-.88-.62-1.85-.62-2.91s.18-1.95.53-2.77c.37-.88.98-1.52,1.82-1.93.09-.06.09-.11,0-.17-.65-.39-1.16-.91-1.51-1.54-.47-.77-.7-1.67-.7-2.72s.21-1.92.64-2.69c.43-.78,1.04-1.4,1.85-1.85.8-.45,1.71-.67,2.72-.67s1.96.22,2.74.66c.78.44,1.38,1.06,1.79,1.86.45.8.67,1.7.67,2.69s-.23,1.91-.7,2.72c-.35.63-.86,1.15-1.51,1.54-.09.06-.1.1-.03.14.84.41,1.45,1.06,1.82,1.96.35.77.53,1.7.53,2.8ZM778.38,756.09c0-.75-.1-1.38-.31-1.9-.19-.54-.48-.96-.88-1.26-.4-.3-.89-.45-1.47-.45-1.18,0-1.96.55-2.35,1.65-.21.5-.31,1.16-.31,1.96s.13,1.52.39,2.04c.41,1.05,1.17,1.57,2.27,1.57s1.83-.51,2.24-1.54c.28-.56.42-1.25.42-2.07ZM773.17,747.3c0,.67.13,1.25.39,1.74.21.43.49.77.87,1.01.37.24.8.36,1.29.36s.94-.13,1.32-.38.66-.6.87-1.05c.24-.47.36-1.04.36-1.71,0-.58-.11-1.09-.34-1.54-.19-.47-.47-.84-.85-1.11-.38-.27-.84-.41-1.39-.41-.5,0-.95.14-1.34.42-.39.28-.68.65-.87,1.12-.21.5-.31,1.02-.31,1.54Z"/>
    </g>
  </g>
</svg>