<?xml version="1.0" encoding="UTF-8"?>
<svg id="wv_hall_1G" data-name="Hall 1G" xmlns="http://www.w3.org/2000/svg" viewBox="0 0 1300 1300" class="hall-svg h-auto">
  <g id="wv_hall_1300" data-name="1300">
    <rect class="cls-2" width="1300" height="1300"/>
  </g>
  <g id="HALL">
    <g>
      <path class="cls-3" d="M988.15,245.87s0,0,0,0c0,0,0,0,0,0l3.65,3.4s0,0,0,0c0,0,0,0,0,0l3.65,3.4s0,0,0,0c0,0,0,0,0,0l3.65,3.4s0,0,0,0h0s3.66,3.41,3.66,3.41c0,0,0,0,0,0s0,0,0,0l3.66,3.41s0,0,0,0,0,0,0,0l3.66,3.41s0,0,0,0c0,0,0,0,0,0l3.65,3.41s0,0,0,0,0,0,0,0l10.97,10.22h0s3.66,3.41,3.66,3.41c.09.09.21.13.34.13,0,0,.01,0,.02,0,.13,0,.26-.06.35-.16l27.27-29.27c.19-.2.18-.52-.03-.71l-3.66-3.41s0,0,0,0,0,0,0,0l-3.66-3.41s0,0,0,0,0,0,0,0l-3.66-3.41s0,0,0,0,0,0,0,0l-3.66-3.41s0,0,0,0,0,0,0,0l-3.65-3.4s0,0,0,0c0,0,0,0,0,0l-3.65-3.4s0,0,0,0,0,0,0,0l-3.65-3.4s0,0,0,0,0,0,0,0l-3.65-3.4s0,0,0,0,0,0,0,0l-10.97-10.22h0s-3.66-3.41-3.66-3.41c-.1-.09-.23-.15-.36-.13-.13,0-.26.06-.35.16l-27.27,29.27c-.19.2-.18.52.03.71l3.65,3.4ZM1018.71,219.68l-12.95,13.9-2.93-2.73,12.95-13.9,2.93,2.73ZM1022.37,223.08l-12.95,13.9-2.93-2.73,12.95-13.9,2.93,2.73ZM1026.03,226.49l-12.95,13.9-2.93-2.73,12.95-13.9,2.93,2.73ZM1029.69,229.9l-12.95,13.9-2.93-2.73,12.95-13.9,2.93,2.73ZM1033.34,233.31l-12.95,13.9-2.93-2.73,12.95-13.9,2.93,2.73ZM1037,236.72l-12.95,13.9-2.93-2.73,12.95-13.9,2.93,2.73ZM1040.66,240.13l-12.95,13.9-2.93-2.73,12.95-13.9,2.93,2.73ZM1044.32,243.53l-12.95,13.9-2.93-2.73,12.95-13.9,2.93,2.73ZM1047.98,246.94l-12.95,13.9-2.93-2.73,12.95-13.9,2.93,2.73ZM1051.63,250.35l-12.95,13.9-2.93-2.73,12.95-13.9,2.93,2.73ZM1022.12,276.16l12.95-13.9,2.93,2.73-12.95,13.9-2.93-2.73ZM1018.47,272.75l12.95-13.9,2.93,2.73-12.95,13.9-2.93-2.73ZM1014.81,269.34l12.95-13.9,2.93,2.73-12.95,13.9-2.93-2.73ZM1011.15,265.93l12.95-13.9,2.93,2.73-12.95,13.9-2.93-2.73ZM1007.49,262.52l12.95-13.9,2.93,2.73-12.95,13.9-2.93-2.73ZM1003.83,259.12l12.95-13.9,2.93,2.73-12.95,13.9-2.93-2.73ZM1000.17,255.71l12.95-13.9,2.93,2.73-12.95,13.9-2.93-2.73ZM996.52,252.3l12.95-13.9,2.93,2.73-12.95,13.9-2.93-2.73ZM992.86,248.89l12.95-13.9,2.93,2.73-12.95,13.9-2.93-2.73ZM1005.08,234.31l-12.95,13.9-2.93-2.73,12.95-13.9,2.93,2.73ZM1028.71,282.29l-2.93-2.73,12.95-13.9,2.93,2.73-12.95,13.9ZM1042.34,267.66l-2.93-2.73,12.95-13.9,2.93,2.73-12.95,13.9ZM1012.13,213.54l2.93,2.73-12.95,13.9-2.93-2.73,12.95-13.9ZM998.49,228.17l2.93,2.73-12.95,13.9-2.93-2.73,12.95-13.9Z"/>
      <path class="cls-3" d="M255.45,994.22s0,0,0,0c0,0,0,0,0,0l-3.23-3.81s0,0,0,0c0,0,0,0,0,0l-3.23-3.81s0,0,0,0,0,0,0,0l-6.46-7.63h0s0,0,0,0l-3.23-3.81s0,0,0,0,0,0,0,0l-3.23-3.81s0,0,0,0,0,0,0,0l-6.46-7.63h0s0,0,0,0l-3.23-3.81s0,0,0,0,0,0,0,0l-3.23-3.81s0,0,0,0,0,0,0,0l-3.23-3.81c-.09-.1-.21-.16-.34-.17-.13-.01-.26.03-.36.12l-30.53,25.85c-.21.18-.24.49-.06.71l3.23,3.81s0,0,0,0c0,0,0,0,0,0l3.23,3.81s0,0,0,0c0,0,0,0,0,0l3.23,3.81s0,0,0,0c0,0,0,0,0,0l3.23,3.81s0,0,0,0c0,0,0,0,0,0l3.23,3.81s0,0,0,0c0,0,0,0,0,0l3.23,3.81s0,0,0,0c0,0,0,0,0,0l3.23,3.81s0,0,0,0c0,0,0,0,0,0l3.23,3.81s0,0,0,0c0,0,0,0,0,0l3.23,3.81h0s0,0,0,0l9.69,11.45c.09.1.21.16.34.17.01,0,.03,0,.04,0,.12,0,.23-.04.32-.12l15.26-12.92s0,0,0,0c0,0,0,0,0,0l15.26-12.92c.21-.18.24-.49.06-.71l-3.23-3.81ZM222.01,1016.63l14.5-12.28,2.58,3.05-14.5,12.28-2.58-3.05ZM218.78,1012.81l14.5-12.28,2.58,3.05-14.5,12.28-2.58-3.05ZM215.55,1009l14.5-12.28,2.58,3.05-14.5,12.28-2.58-3.05ZM212.32,1005.18l14.5-12.28,2.58,3.05-14.5,12.28-2.58-3.05ZM209.09,1001.36l14.5-12.28,2.58,3.05-14.5,12.28-2.58-3.05ZM205.86,997.55l14.5-12.28,2.58,3.05-14.5,12.28-2.58-3.05ZM202.63,993.73l14.5-12.28,2.58,3.05-14.5,12.28-2.58-3.05ZM199.4,989.92l14.5-12.28,2.58,3.05-14.5,12.28-2.58-3.05ZM196.17,986.1l14.5-12.28,2.58,3.05-14.5,12.28-2.58-3.05ZM192.94,982.28l14.5-12.28,2.58,3.05-14.5,12.28-2.58-3.05ZM225.28,960.14l-14.5,12.28-2.58-3.05,14.5-12.28,2.58,3.05ZM228.51,963.95l-14.5,12.28-2.58-3.05,14.5-12.28,2.58,3.05ZM231.75,967.77l-14.5,12.28-2.58-3.05,14.5-12.28,2.58,3.05ZM234.98,971.59l-14.5,12.28-2.58-3.05,14.5-12.28,2.58,3.05ZM238.21,975.4l-14.5,12.28-2.58-3.05,14.5-12.28,2.58,3.05ZM241.44,979.22l-14.5,12.28-2.58-3.05,14.5-12.28,2.58,3.05ZM244.67,983.03l-14.5,12.28-2.58-3.05,14.5-12.28,2.58,3.05ZM247.9,986.85l-14.5,12.28-2.58-3.05,14.5-12.28,2.58,3.05ZM251.13,990.67l-14.5,12.28-2.58-3.05,14.5-12.28,2.58,3.05ZM237.28,1003.71l14.5-12.28,2.58,3.05-14.5,12.28-2.58-3.05ZM219.47,953.27l2.58,3.05-14.5,12.28-2.58-3.05,14.5-12.28ZM204.21,966.19l2.58,3.05-14.5,12.28-2.58-3.05,14.5-12.28ZM227.83,1023.5l-2.58-3.05,14.5-12.28,2.58,3.05-14.5,12.28ZM243.09,1010.57l-2.58-3.05,14.5-12.28,2.58,3.05-14.5,12.28Z"/>
      <path class="cls-3" d="M1194.1,420.15c-29.74-70.32-72.32-133.47-126.55-187.7-54.23-54.23-117.38-96.81-187.7-126.55-72.8-30.79-150.13-46.4-229.85-46.4s-157.05,15.61-229.85,46.4c-70.32,29.74-133.47,72.32-187.7,126.55-54.23,54.23-96.81,117.38-126.55,187.7-.29.69-.57,1.37-.86,2.06-.07.17-.14.34-.21.52-28.51,68.29-43.69,140.53-45.2,214.96-.01.61-.02,1.22-.03,1.83-.06,3.49-.1,6.98-.1,10.49s.04,6.99.1,10.48c.01.61.02,1.22.03,1.83,1.51,74.42,16.69,146.66,45.19,214.94.08.18.15.37.23.55.29.68.56,1.36.85,2.05,29.74,70.32,72.32,133.47,126.55,187.7,54.23,54.23,117.38,96.81,187.7,126.55,72.8,30.79,150.13,46.4,229.85,46.4s157.05-15.61,229.85-46.4c70.32-29.74,133.47-72.32,187.7-126.55,54.23-54.23,96.81-117.38,126.55-187.7,30.79-72.8,46.4-150.13,46.4-229.85s-15.61-157.05-46.4-229.85ZM105.91,877.24c-.11-.26-.22-.52-.33-.79-17.98-43.17-30.72-88.34-37.97-134.69l55.54-8.7,12.64-1.98c7.9,50.51,23.19,99.43,45.44,145.4l-62.11,30.08c-4.68-9.66-9.08-19.44-13.21-29.32ZM67.45,740.78c-3.99-25.85-6.28-52.21-6.82-78.54-.01-.61-.02-1.22-.03-1.83-.06-3.47-.1-6.94-.1-10.41s.04-6.94.1-10.41c.01-.61.02-1.22.03-1.83.54-26.33,2.83-52.69,6.82-78.54l69.17,10.84h0s8.89,1.39,8.89,1.39c-3.99,25.83-6.01,52.26-6.01,78.54s2.02,52.71,6.01,78.54l-78.06,12.23ZM67.61,558.24c7.25-46.36,19.99-91.54,37.98-134.72.1-.25.21-.5.31-.75,4.13-9.89,8.54-19.67,13.22-29.34l62.11,30.08c-22.25,45.97-37.54,94.89-45.44,145.4l-68.18-10.68ZM1193.17,879.46c-29.69,70.2-72.2,133.24-126.33,187.38-54.14,54.14-117.18,96.64-187.38,126.33-72.68,30.74-149.88,46.33-229.46,46.33s-156.78-15.59-229.46-46.33c-70.2-29.69-133.24-72.2-187.38-126.33-46.83-46.84-84.96-100.34-113.61-159.37l63.02-30.52-.22-.45c-22.33-46.02-37.66-94.99-45.57-145.57l9.38-1.47.49-.08-.08-.49c-4.03-25.94-6.08-52.48-6.08-78.88s2.04-52.94,6.08-78.88l.08-.49-9.87-1.55c7.91-50.58,23.24-99.56,45.57-145.57l.22-.45-63.02-30.52c28.66-59.03,66.78-112.53,113.61-159.37,54.14-54.14,117.18-96.64,187.38-126.33,72.68-30.74,149.88-46.33,229.46-46.33s156.78,15.59,229.46,46.33c70.2,29.69,133.24,72.2,187.38,126.33,54.14,54.14,96.64,117.18,126.33,187.38,30.74,72.68,46.33,149.88,46.33,229.46s-15.59,156.78-46.33,229.46Z"/>
      <path class="cls-3" d="M1003.91,296.09c-45.96-45.96-99.49-82.05-159.09-107.26-61.7-26.1-127.25-39.33-194.82-39.33s-133.11,13.23-194.82,39.33c-59.6,25.21-113.12,61.3-159.09,107.26-45.96,45.97-82.05,99.49-107.26,159.09-26.1,61.7-39.33,127.25-39.33,194.82s13.23,133.11,39.33,194.82c25.21,59.6,61.3,113.12,107.26,159.09,45.96,45.96,99.49,82.05,159.09,107.26,61.7,26.1,127.25,39.33,194.82,39.33s133.11-13.23,194.82-39.33c59.6-25.21,113.12-61.3,159.09-107.26,45.96-45.97,82.05-99.49,107.26-159.09,26.1-61.7,39.33-127.25,39.33-194.82s-13.23-133.11-39.33-194.82c-25.21-59.6-61.3-113.12-107.26-159.09ZM1110.25,844.43c-25.16,59.48-61.17,112.9-107.05,158.77-45.87,45.87-99.29,81.89-158.77,107.05-61.58,26.05-127,39.25-194.43,39.25s-132.85-13.21-194.43-39.25c-59.48-25.16-112.9-61.17-158.77-107.05-45.87-45.87-81.89-99.29-107.05-158.77-26.05-61.58-39.25-127-39.25-194.43s13.21-132.85,39.25-194.43c25.16-59.48,61.17-112.9,107.05-158.77,45.87-45.87,99.29-81.89,158.77-107.05,61.58-26.05,127-39.25,194.43-39.25s132.85,13.21,194.43,39.25c59.48,25.16,112.9,61.17,158.77,107.05,45.87,45.87,81.89,99.29,107.05,158.77,26.05,61.58,39.25,127,39.25,194.43s-13.21,132.85-39.25,194.43Z"/>
    </g>
  </g>
  <g id="Signage">
    <g>
      <path class="cls-3" d="M136.65,480.26c-.29-.06-.51-.31-.51-.61v-2.65c0-2.62-2.13-4.75-4.74-4.75h-22.08c-2.62,0-4.75,2.13-4.75,4.75v2.65c0,.3-.21.56-.51.61-2.52.49-4.35,2.71-4.35,5.27v2.55c0,5.79,4.34,10.57,10.1,11.13.32.03.56.3.56.62v1.64c0,.29.23.52.52.52s.52-.23.52-.52v-1.58c0-.34.28-.62.62-.62h16.6c.34,0,.62.28.62.62v1.58c0,.29.23.52.52.52s.52-.23.52-.52v-1.64c0-.32.24-.59.56-.62,5.76-.56,10.1-5.35,10.1-11.13v-2.55c0-2.56-1.83-4.78-4.35-5.27ZM105.63,477c0-2.04,1.66-3.7,3.7-3.7h22.08c2.04,0,3.7,1.66,3.7,3.7v2.65c0,.3-.21.56-.51.61-2.52.49-4.34,2.71-4.34,5.27v2.36c0,.34-.28.62-.62.62h-18.52c-.34,0-.62-.28-.62-.62v-2.36c0-2.56-1.83-4.78-4.35-5.27-.29-.06-.51-.31-.51-.61v-2.65ZM139.95,488.08c0,5.59-4.55,10.14-10.14,10.14h-18.9c-5.59,0-10.14-4.55-10.14-10.14v-2.55c0-2.39,1.94-4.33,4.33-4.33s4.33,1.94,4.33,4.33v2.55c0,.82.67,1.48,1.48,1.48h18.9c.82,0,1.48-.67,1.48-1.48v-2.55c0-2.39,1.94-4.33,4.33-4.33s4.33,1.94,4.33,4.33v2.55Z"/>
      <path class="cls-3" d="M136.65,806.01c-.29-.06-.51-.31-.51-.61v-2.65c0-2.62-2.13-4.75-4.74-4.75h-22.08c-2.62,0-4.75,2.13-4.75,4.75v2.65c0,.3-.21.56-.51.61-2.52.49-4.35,2.71-4.35,5.27v2.55c0,5.79,4.34,10.57,10.1,11.13.32.03.56.3.56.62v1.64c0,.29.23.52.52.52s.52-.23.52-.52v-1.58c0-.34.28-.62.62-.62h16.6c.34,0,.62.28.62.62v1.58c0,.29.23.52.52.52s.52-.23.52-.52v-1.64c0-.32.24-.59.56-.62,5.76-.56,10.1-5.35,10.1-11.13v-2.55c0-2.56-1.83-4.78-4.35-5.27ZM105.63,802.75c0-2.04,1.66-3.7,3.7-3.7h22.08c2.04,0,3.7,1.66,3.7,3.7v2.65c0,.3-.21.56-.51.61-2.52.49-4.34,2.71-4.34,5.27v2.36c0,.34-.28.62-.62.62h-18.52c-.34,0-.62-.28-.62-.62v-2.36c0-2.56-1.83-4.78-4.35-5.27-.29-.06-.51-.31-.51-.61v-2.65ZM139.95,813.83c0,5.59-4.55,10.14-10.14,10.14h-18.9c-5.59,0-10.14-4.55-10.14-10.14v-2.55c0-2.39,1.94-4.33,4.33-4.33s4.33,1.94,4.33,4.33v2.55c0,.82.67,1.48,1.48,1.48h18.9c.82,0,1.48-.67,1.48-1.48v-2.55c0-2.39,1.94-4.33,4.33-4.33s4.33,1.94,4.33,4.33v2.55Z"/>
      <polygon class="cls-3" points="88.69 667.88 83.87 638 82.02 638 87.73 671.5 89.64 671.5 95.41 638 93.64 638 88.69 667.88"/>
      <rect class="cls-3" x="99.36" y="638" width="1.86" height="33.36"/>
      <path class="cls-3" d="M111.8,657.97c3.91,0,5.91-2,5.91-5.86v-8.67c0-3.57-2.1-5.43-5.77-5.43h-5.53v33.36h1.86v-13.39h3.53ZM108.27,639.76h3.62c2.48,0,3.96,1.19,3.96,3.57v8.86c0,2.67-1.38,4-4.1,4h-3.48v-16.44Z"/>
    </g>
  </g>
  <g id="wv_hall_1G_01" data-name="1G/01" class="ds-stand">
    <path class="cls-3" d="M158.55,317.28h75.14c2.21,0,4,1.79,4,4v47.33c0,2.21-1.79,4-4,4h-75.14c-2.21,0-4-1.79-4-4v-47.33c0-2.21,1.79-4,4-4Z" transform="translate(-199.14 310.01) rotate(-55.33)"/>
    <g>
      <path class="cls-1" d="M187.74,353.57c-1.02-1.01-1.53-2.36-1.53-4.06v-9.02c0-1.68.51-3.02,1.53-4.03,1.02-1.01,2.38-1.51,4.07-1.51s3.06.5,4.09,1.51c1.03,1.01,1.54,2.35,1.54,4.03v9.02c0,1.7-.51,3.05-1.54,4.06-1.03,1.01-2.39,1.51-4.09,1.51s-3.06-.5-4.07-1.51ZM193.94,351.9c.54-.57.81-1.32.81-2.25v-9.27c0-.93-.27-1.68-.81-2.25-.54-.57-1.25-.85-2.13-.85s-1.58.28-2.11.85-.8,1.32-.8,2.25v9.27c0,.93.27,1.68.8,2.25s1.24.85,2.11.85,1.59-.28,2.13-.85Z"/>
      <path class="cls-1" d="M202.96,335.2h2.21c.19,0,.28.09.28.28v19.04c0,.19-.09.28-.28.28h-2.13c-.19,0-.28-.09-.28-.28v-16.41s-.01-.07-.04-.1c-.03-.03-.06-.03-.1-.01l-2.72.87-.11.03c-.11,0-.19-.08-.22-.25l-.11-1.6c0-.15.07-.26.2-.34l2.94-1.43c.11-.06.23-.08.36-.08Z"/>
    </g>
  </g>
  <g id="wv_hall_1G_02" data-name="1G/02" class="ds-stand">
    <path class="cls-3" d="M243.19,253.59c1.58-1.53,4.13-1.49,5.66.09l25.04,25.82c1.53,1.58,1.49,4.12-.09,5.65l-18.67,18.07c-1.58,1.53-4.13,1.49-5.66-.09l-25.04-25.82c-1.53-1.58-1.49-4.12.09-5.65l18.67-18.07Z"/>
    <g>
      <path class="cls-1" d="M238.19,287.57c-1.02-1.01-1.53-2.36-1.53-4.06v-9.02c0-1.68.51-3.02,1.53-4.03,1.02-1.01,2.38-1.51,4.07-1.51s3.06.5,4.09,1.51c1.03,1.01,1.54,2.35,1.54,4.03v9.02c0,1.7-.51,3.05-1.54,4.06-1.03,1.01-2.39,1.51-4.09,1.51s-3.06-.5-4.07-1.51ZM244.39,285.9c.54-.57.81-1.32.81-2.25v-9.27c0-.93-.27-1.68-.81-2.25-.54-.57-1.25-.85-2.13-.85s-1.58.28-2.11.85c-.53.57-.8,1.32-.8,2.25v9.27c0,.93.27,1.68.8,2.25.53.57,1.24.85,2.11.85s1.59-.28,2.13-.85Z"/>
      <path class="cls-1" d="M254.05,286.48h7.42c.19,0,.28.09.28.28v1.76c0,.19-.09.28-.28.28h-10.56c-.19,0-.28-.09-.28-.28v-1.79c0-.13.04-.24.11-.34,2.41-3.1,4.28-5.59,5.63-7.48,1.44-2,2.16-3.59,2.16-4.79,0-.86-.24-1.54-.73-2.06-.49-.51-1.13-.77-1.93-.77s-1.41.26-1.89.77c-.48.51-.71,1.19-.69,2.03v.98c0,.19-.09.28-.28.28h-2.16c-.19,0-.28-.09-.28-.28v-1.2c.04-1.47.55-2.66,1.55-3.56s2.26-1.34,3.79-1.34c1.06,0,2,.22,2.8.66.8.44,1.42,1.05,1.86,1.83s.66,1.67.66,2.66c0,1.66-.75,3.55-2.24,5.66-.86,1.21-2.26,3.05-4.2,5.52l-.81,1.04c-.06.09-.04.14.06.14Z"/>
    </g>
  </g>
  <g id="wv_hall_1G_03" data-name="1G/03" class="ds-stand">
    <path class="cls-3" d="M271.86,225.72c1.58-1.53,4.13-1.49,5.66.09l25.04,25.82c1.53,1.58,1.49,4.12-.09,5.65l-18.67,18.07c-1.58,1.53-4.13,1.49-5.66-.09l-25.04-25.82c-1.53-1.58-1.49-4.12.09-5.65l18.67-18.07Z"/>
    <g>
      <path class="cls-1" d="M267.32,259.57c-1.02-1.01-1.53-2.36-1.53-4.06v-9.02c0-1.68.51-3.02,1.53-4.03,1.02-1.01,2.38-1.51,4.07-1.51s3.06.5,4.09,1.51c1.03,1.01,1.54,2.35,1.54,4.03v9.02c0,1.7-.51,3.05-1.54,4.06-1.03,1.01-2.39,1.51-4.09,1.51s-3.06-.5-4.07-1.51ZM273.52,257.9c.54-.57.81-1.32.81-2.25v-9.27c0-.93-.27-1.68-.81-2.25-.54-.57-1.25-.85-2.13-.85s-1.58.28-2.11.85-.8,1.32-.8,2.25v9.27c0,.93.27,1.68.8,2.25s1.24.85,2.11.85,1.59-.28,2.13-.85Z"/>
      <path class="cls-1" d="M290.26,254.72c0,1.16-.18,2.19-.53,3.11-.39,1.05-.99,1.84-1.79,2.38s-1.8.81-3,.81c-1.36,0-2.5-.36-3.42-1.08-.91-.72-1.49-1.68-1.74-2.9-.11-.56-.19-1.24-.22-2.04,0-.19.09-.28.28-.28h2.13c.19,0,.28.09.28.28.04.62.09,1.12.17,1.51.15.69.44,1.23.87,1.61.43.38.98.57,1.65.57.62,0,1.13-.16,1.54-.49.41-.33.71-.81.9-1.44.17-.62.25-1.36.25-2.24,0-1.01-.12-1.84-.36-2.49-.21-.58-.5-1.02-.9-1.32-.39-.3-.88-.45-1.46-.45-.28,0-.58.08-.9.25-.07.04-.13.06-.17.06-.07,0-.15-.04-.22-.11l-1.09-1.18c-.06-.06-.08-.12-.08-.2s.03-.14.08-.2l4.26-5.24s.05-.07.03-.1c-.02-.03-.05-.04-.08-.04h-6.66c-.19,0-.28-.09-.28-.28v-1.76c0-.19.09-.28.28-.28h9.83c.19,0,.28.09.28.28v1.85c0,.13-.04.24-.11.34l-3.95,4.96s-.05.07-.03.1.05.04.08.04c.84.07,1.56.34,2.16.8.6.46,1.05,1.08,1.37,1.86.37.91.56,2.02.56,3.3Z"/>
    </g>
  </g>
  <g id="wv_hall_1G_04" data-name="1G/04" class="ds-stand">
    <path class="cls-3" d="M318.58,189.22c1.84-1.21,4.33-.7,5.55,1.14l19.83,30.02c1.21,1.84.7,4.33-1.14,5.54l-21.72,14.29c-1.84,1.21-4.33.7-5.55-1.14l-19.83-30.02c-1.21-1.84-.7-4.33,1.14-5.54l21.72-14.29Z"/>
    <g>
      <path class="cls-1" d="M309.84,223.57c-1.02-1.01-1.53-2.36-1.53-4.06v-9.02c0-1.68.51-3.02,1.53-4.03,1.02-1.01,2.38-1.51,4.07-1.51s3.06.5,4.09,1.51c1.03,1.01,1.54,2.35,1.54,4.03v9.02c0,1.7-.51,3.05-1.54,4.06-1.03,1.01-2.39,1.51-4.09,1.51s-3.06-.5-4.07-1.51ZM316.04,221.9c.54-.57.81-1.32.81-2.25v-9.27c0-.93-.27-1.68-.81-2.25-.54-.57-1.25-.85-2.13-.85s-1.58.28-2.11.85c-.53.57-.8,1.32-.8,2.25v9.27c0,.93.27,1.68.8,2.25.53.57,1.24.85,2.11.85s1.59-.28,2.13-.85Z"/>
      <path class="cls-1" d="M334.1,217.41v1.88c0,.19-.09.28-.28.28h-1.04c-.08,0-.11.04-.11.11v4.84c0,.19-.09.28-.28.28h-2.13c-.19,0-.28-.09-.28-.28v-4.84c0-.07-.04-.11-.11-.11h-7.7c-.19,0-.28-.09-.28-.28v-1.54c0-.13.02-.24.06-.34l4.79-11.98c.06-.15.16-.22.31-.22h2.3c.09,0,.16.03.2.1.04.07.04.14,0,.24l-4.51,11.45s-.02.07,0,.1c.02.03.05.04.08.04h4.76c.07,0,.11-.04.11-.11v-3.98c0-.19.09-.28.28-.28h2.13c.19,0,.28.09.28.28v3.98c0,.08.04.11.11.11h1.04c.19,0,.28.09.28.28Z"/>
    </g>
  </g>
  <g id="wv_hall_1G_05" data-name="1G/05" class="ds-stand">
    <path class="cls-3" d="M351.96,167.17c1.84-1.21,4.33-.7,5.55,1.14l19.83,30.02c1.21,1.84.7,4.33-1.14,5.54l-21.72,14.29c-1.84,1.21-4.33.7-5.55-1.14l-19.83-30.02c-1.21-1.84-.7-4.33,1.14-5.54l21.72-14.29Z"/>
    <g>
      <path class="cls-1" d="M342.32,201.57c-1.02-1.01-1.53-2.36-1.53-4.06v-9.02c0-1.68.51-3.02,1.53-4.03,1.02-1.01,2.38-1.51,4.07-1.51s3.06.5,4.09,1.51c1.03,1.01,1.54,2.35,1.54,4.03v9.02c0,1.7-.51,3.05-1.54,4.06-1.03,1.01-2.39,1.51-4.09,1.51s-3.06-.5-4.07-1.51ZM348.52,199.9c.54-.57.81-1.32.81-2.25v-9.27c0-.93-.27-1.68-.81-2.25-.54-.57-1.25-.85-2.13-.85s-1.58.28-2.11.85-.8,1.32-.8,2.25v9.27c0,.93.27,1.68.8,2.25s1.24.85,2.11.85,1.59-.28,2.13-.85Z"/>
      <path class="cls-1" d="M365.63,196.72c0,.97-.08,1.79-.25,2.46-.32,1.23-.92,2.18-1.81,2.84-.89.66-1.99.99-3.32.99s-2.43-.35-3.32-1.04c-.89-.69-1.48-1.66-1.78-2.91-.11-.48-.18-.86-.2-1.12v-.06c0-.15.08-.22.25-.22h2.16c.19,0,.29.09.31.28.04.3.07.5.11.59.15.69.44,1.22.87,1.58.43.36.96.55,1.6.55s1.17-.19,1.61-.56c.44-.37.73-.91.88-1.6.11-.43.17-1.02.17-1.76s-.07-1.38-.2-1.96c-.15-.63-.44-1.12-.87-1.44-.43-.33-.96-.49-1.6-.49s-1.14.14-1.58.42-.75.7-.94,1.26c-.04.15-.14.22-.31.22h-2.18c-.19,0-.28-.09-.28-.28v-11c0-.19.09-.28.28-.28h9.55c.19,0,.28.09.28.28v1.76c0,.19-.09.28-.28.28h-7.03c-.07,0-.11.04-.11.11l-.03,5.96c0,.09.05.11.14.06.37-.37.83-.66,1.36-.85.53-.2,1.1-.29,1.69-.29,1.1,0,2.03.27,2.8.8.77.53,1.3,1.3,1.6,2.31.28.92.42,1.95.42,3.11Z"/>
    </g>
  </g>
  <g id="wv_hall_1G_06" data-name="1G/06" class="ds-stand">
    <path class="cls-3" d="M385.33,145.12c1.84-1.21,4.33-.7,5.55,1.14l19.83,30.02c1.21,1.84.7,4.33-1.14,5.54l-21.72,14.29c-1.84,1.21-4.33.7-5.55-1.14l-19.83-30.02c-1.21-1.84-.7-4.33,1.14-5.54l21.72-14.29Z"/>
    <g>
      <path class="cls-1" d="M376.3,179.57c-1.02-1.01-1.53-2.36-1.53-4.06v-9.02c0-1.68.51-3.02,1.53-4.03,1.02-1.01,2.38-1.51,4.07-1.51s3.06.5,4.09,1.51c1.03,1.01,1.54,2.35,1.54,4.03v9.02c0,1.7-.51,3.05-1.54,4.06-1.03,1.01-2.39,1.51-4.09,1.51s-3.06-.5-4.07-1.51ZM382.51,177.9c.54-.57.81-1.32.81-2.25v-9.27c0-.93-.27-1.68-.81-2.25-.54-.57-1.25-.85-2.13-.85s-1.58.28-2.11.85-.8,1.32-.8,2.25v9.27c0,.93.27,1.68.8,2.25s1.24.85,2.11.85,1.59-.28,2.13-.85Z"/>
      <path class="cls-1" d="M399.64,174.72c0,.95-.1,1.79-.31,2.52-.32,1.21-.91,2.15-1.76,2.8-.86.65-1.95.98-3.28.98-1.21,0-2.24-.29-3.08-.88-.84-.59-1.43-1.43-1.76-2.53-.34-.75-.5-1.68-.5-2.8l-.03-8.88c0-1.49.49-2.69,1.46-3.6s2.25-1.36,3.84-1.36c1.49,0,2.71.45,3.65,1.34s1.41,2.07,1.41,3.53v.59c0,.19-.09.28-.28.28h-2.13c-.19,0-.28-.09-.28-.28v-.39c0-.78-.23-1.43-.69-1.95-.46-.51-1.03-.77-1.72-.77-.75,0-1.36.26-1.83.77-.48.51-.71,1.19-.71,2.03v3.53s.01.07.04.08c.03.02.06,0,.1-.03.73-.84,1.7-1.26,2.91-1.26,1.14,0,2.09.3,2.84.9.76.6,1.31,1.42,1.67,2.46.3.84.45,1.81.45,2.91ZM396.93,174.67c0-.88-.09-1.59-.28-2.13-.17-.58-.46-1.03-.87-1.36-.41-.33-.92-.49-1.51-.49s-1.12.16-1.53.49c-.4.33-.69.79-.85,1.39-.17.52-.25,1.23-.25,2.13,0,.77.06,1.41.2,1.93.15.63.43,1.13.85,1.5.42.36.95.55,1.58.55s1.16-.18,1.58-.55c.42-.36.71-.89.88-1.58.13-.5.2-1.13.2-1.88Z"/>
    </g>
  </g>
  <g id="wv_hall_1G_07" data-name="1G/07" class="ds-stand">
    <path class="cls-3" d="M434.3,171.61c-2.03.84-4.39-.13-5.24-2.16l-13.86-33.2c-.85-2.03.12-4.38,2.15-5.22l24.01-9.97c2.03-.84,4.39.13,5.24,2.16l13.86,33.2c.85,2.03-.12,4.38-2.15,5.22l-24.01,9.97Z"/>
    <g>
      <path class="cls-1" d="M427.88,156.57c-1.02-1.01-1.53-2.36-1.53-4.06v-9.02c0-1.68.51-3.02,1.53-4.03,1.02-1.01,2.38-1.51,4.07-1.51s3.06.5,4.09,1.51c1.03,1.01,1.54,2.35,1.54,4.03v9.02c0,1.7-.51,3.05-1.54,4.06-1.03,1.01-2.39,1.51-4.09,1.51s-3.06-.5-4.07-1.51ZM434.08,154.9c.54-.57.81-1.32.81-2.25v-9.27c0-.93-.27-1.68-.81-2.25s-1.25-.85-2.13-.85-1.58.28-2.11.85c-.53.57-.8,1.32-.8,2.25v9.27c0,.93.27,1.68.8,2.25.53.57,1.24.85,2.11.85s1.59-.28,2.13-.85Z"/>
      <path class="cls-1" d="M442.26,157.49l5.54-16.83s.01-.07-.01-.1c-.03-.03-.06-.04-.1-.04h-5.6c-.07,0-.11.04-.11.11v1.2c0,.19-.09.28-.28.28h-1.65c-.19,0-.28-.09-.28-.28v-3.36c0-.19.09-.28.28-.28h10.33c.19,0,.28.09.28.28v1.88c0,.07-.02.19-.06.34l-5.52,16.88c-.06.15-.17.22-.34.22h-2.27c-.21,0-.28-.1-.22-.31Z"/>
    </g>
  </g>
  <g id="wv_hall_1G_08" data-name="1G/08" class="ds-stand">
    <path class="cls-3" d="M513.17,146.82c2.14-.5,3.49-2.66,2.99-4.81l-8.12-35.05c-.5-2.14-2.66-3.49-4.8-2.99l-25.31,5.92c-2.14.5-3.49,2.66-2.99,4.81l8.12,35.05c.5,2.14,2.66,3.49,4.8,2.99l25.31-5.92Z"/>
    <g>
      <path class="cls-1" d="M484.22,136.57c-1.02-1.01-1.53-2.36-1.53-4.06v-9.02c0-1.68.51-3.02,1.53-4.03,1.02-1.01,2.38-1.51,4.07-1.51s3.06.5,4.09,1.51c1.03,1.01,1.54,2.35,1.54,4.03v9.02c0,1.7-.51,3.05-1.54,4.06-1.03,1.01-2.39,1.51-4.09,1.51s-3.06-.5-4.07-1.51ZM490.42,134.9c.54-.57.81-1.32.81-2.25v-9.27c0-.93-.27-1.68-.81-2.25s-1.25-.85-2.13-.85-1.58.28-2.11.85c-.53.57-.8,1.32-.8,2.25v9.27c0,.93.27,1.68.8,2.25.53.57,1.24.85,2.11.85s1.59-.28,2.13-.85Z"/>
      <path class="cls-1" d="M507.42,132.26c0,1.16-.21,2.15-.62,2.97-.41.88-1.02,1.56-1.83,2.06-.81.5-1.77.74-2.87.74s-2.06-.25-2.88-.76c-.82-.5-1.44-1.21-1.85-2.13-.41-.88-.62-1.85-.62-2.91s.18-1.95.53-2.77c.37-.88.98-1.52,1.82-1.93.09-.06.09-.11,0-.17-.65-.39-1.16-.91-1.51-1.54-.47-.77-.7-1.67-.7-2.72s.21-1.92.64-2.69c.43-.78,1.05-1.4,1.85-1.85.8-.45,1.71-.67,2.72-.67s1.96.22,2.74.66c.78.44,1.38,1.06,1.79,1.86.45.8.67,1.7.67,2.69s-.23,1.91-.7,2.72c-.35.63-.86,1.15-1.51,1.54-.09.06-.1.1-.03.14.84.41,1.45,1.06,1.82,1.96.35.77.53,1.7.53,2.8ZM504.76,132.09c0-.75-.1-1.38-.31-1.9-.19-.54-.48-.96-.88-1.26-.4-.3-.89-.45-1.47-.45-1.18,0-1.96.55-2.35,1.65-.21.5-.31,1.16-.31,1.96s.13,1.52.39,2.04c.41,1.05,1.17,1.57,2.27,1.57s1.83-.51,2.24-1.54c.28-.56.42-1.25.42-2.07ZM499.55,123.3c0,.67.13,1.25.39,1.74.21.43.49.77.87,1.01.37.24.8.36,1.29.36s.94-.13,1.32-.38c.37-.25.66-.6.87-1.05.24-.47.36-1.04.36-1.71,0-.58-.11-1.09-.34-1.54-.19-.47-.47-.84-.85-1.11-.38-.27-.84-.41-1.39-.41-.5,0-.95.14-1.34.42-.39.28-.68.65-.87,1.12-.21.5-.31,1.02-.31,1.54Z"/>
    </g>
  </g>
  <g id="wv_hall_1G_09" data-name="1G/09" class="ds-stand">
    <path class="cls-3" d="M552.14,137.78c2.14-.5,3.49-2.66,2.99-4.81l-8.12-35.05c-.5-2.14-2.66-3.49-4.8-2.99l-25.31,5.92c-2.14.5-3.49,2.66-2.99,4.81l8.12,35.05c.5,2.14,2.66,3.49,4.8,2.99l25.31-5.92Z"/>
    <g>
      <path class="cls-1" d="M523.43,128.57c-1.02-1.01-1.53-2.36-1.53-4.06v-9.02c0-1.68.51-3.02,1.53-4.03,1.02-1.01,2.38-1.51,4.07-1.51s3.06.5,4.09,1.51c1.03,1.01,1.54,2.35,1.54,4.03v9.02c0,1.7-.51,3.05-1.54,4.06-1.03,1.01-2.39,1.51-4.09,1.51s-3.06-.5-4.07-1.51ZM529.63,126.9c.54-.57.81-1.32.81-2.25v-9.27c0-.93-.27-1.68-.81-2.25-.54-.57-1.25-.85-2.13-.85s-1.58.28-2.11.85c-.53.57-.8,1.32-.8,2.25v9.27c0,.93.27,1.68.8,2.25.53.57,1.24.85,2.11.85s1.59-.28,2.13-.85Z"/>
      <path class="cls-1" d="M546.15,116.19v8.88c0,1.51-.49,2.72-1.46,3.61s-2.24,1.34-3.81,1.34-2.74-.45-3.67-1.34c-.93-.9-1.4-2.07-1.4-3.53v-.59c0-.19.09-.28.28-.28h2.13c.19,0,.28.09.28.28v.39c0,.8.22,1.46.67,1.96.45.5,1.02.76,1.71.76.76,0,1.39-.26,1.86-.77.48-.51.71-1.19.71-2.03v-3.56s-.01-.07-.04-.08c-.03-.02-.06,0-.1.03-.73.86-1.7,1.29-2.91,1.29-1.14,0-2.09-.3-2.86-.9-.77-.6-1.32-1.42-1.65-2.46-.3-.77-.45-1.74-.45-2.91,0-1.05.1-1.89.31-2.52.3-1.21.88-2.15,1.74-2.8.86-.65,1.95-.98,3.28-.98,1.21,0,2.24.29,3.08.88s1.43,1.43,1.76,2.53c.36.78.53,1.72.53,2.8ZM542.33,119.82c.4-.33.69-.79.85-1.39.19-.58.28-1.29.28-2.13,0-.77-.07-1.41-.2-1.93-.17-.65-.46-1.16-.88-1.51-.42-.35-.95-.53-1.58-.53s-1.14.18-1.57.55c-.43.36-.73.89-.9,1.58-.13.62-.2,1.24-.2,1.88,0,.8.09,1.51.28,2.13.39,1.23,1.19,1.85,2.38,1.85.62,0,1.12-.16,1.53-.49Z"/>
    </g>
  </g>
  <g id="wv_hall_1G_10" data-name="1G/10" class="ds-stand">
    <path class="cls-3" d="M591.11,128.75c2.14-.5,3.49-2.66,2.99-4.81l-8.12-35.05c-.5-2.14-2.66-3.49-4.8-2.99l-25.31,5.92c-2.14.5-3.49,2.66-2.99,4.81l8.12,35.05c.5,2.14,2.66,3.49,4.8,2.99l25.31-5.92Z"/>
    <g>
      <path class="cls-1" d="M565.92,101.2h2.21c.19,0,.28.09.28.28v19.04c0,.19-.09.28-.28.28h-2.13c-.19,0-.28-.09-.28-.28v-16.41s-.01-.07-.04-.1c-.03-.03-.06-.03-.1-.01l-2.72.87-.11.03c-.11,0-.19-.08-.22-.25l-.11-1.6c0-.15.07-.26.2-.34l2.94-1.43c.11-.06.23-.08.36-.08Z"/>
      <path class="cls-1" d="M573.24,119.57c-1.02-1.01-1.53-2.36-1.53-4.06v-9.02c0-1.68.51-3.02,1.53-4.03,1.02-1.01,2.38-1.51,4.07-1.51s3.06.5,4.09,1.51c1.03,1.01,1.54,2.35,1.54,4.03v9.02c0,1.7-.51,3.05-1.54,4.06-1.03,1.01-2.39,1.51-4.09,1.51s-3.06-.5-4.07-1.51ZM579.44,117.9c.54-.57.81-1.32.81-2.25v-9.27c0-.93-.27-1.68-.81-2.25-.54-.57-1.25-.85-2.13-.85s-1.58.28-2.11.85-.8,1.32-.8,2.25v9.27c0,.93.27,1.68.8,2.25s1.24.85,2.11.85,1.59-.28,2.13-.85Z"/>
    </g>
  </g>
  <g id="wv_hall_1G_11" data-name="1G/11" class="ds-stand">
    <path class="cls-3" d="M643,83.06c2.2,0,4,1.81,4,4.01v35.97c0,2.2-1.8,4-4,3.99l-26-.05c-2.2,0-4-1.81-4-4.01v-35.97c0-2.2,1.8-4,4-3.99l26,.05Z"/>
    <g>
      <path class="cls-1" d="M625.77,95.2h2.21c.19,0,.28.09.28.28v19.04c0,.19-.09.28-.28.28h-2.13c-.19,0-.28-.09-.28-.28v-16.41s-.01-.07-.04-.1c-.03-.03-.06-.03-.1-.01l-2.71.87-.11.03c-.11,0-.19-.08-.22-.25l-.11-1.6c0-.15.07-.26.2-.34l2.94-1.43c.11-.06.23-.08.36-.08Z"/>
      <path class="cls-1" d="M634.26,95.2h2.21c.19,0,.28.09.28.28v19.04c0,.19-.09.28-.28.28h-2.13c-.19,0-.28-.09-.28-.28v-16.41s-.01-.07-.04-.1c-.03-.03-.06-.03-.1-.01l-2.72.87-.11.03c-.11,0-.19-.08-.22-.25l-.11-1.6c0-.15.07-.26.2-.34l2.94-1.43c.11-.06.23-.08.36-.08Z"/>
    </g>
  </g>
  <g id="wv_hall_1G_12" data-name="1G/12" class="ds-stand">
    <path class="cls-3" d="M683,83.06c2.2,0,4,1.81,4,4.01v35.97c0,2.2-1.8,4-4,3.99l-26-.05c-2.2,0-4-1.81-4-4.01v-35.97c0-2.2,1.8-4,4-3.99l26,.05Z"/>
    <g>
      <path class="cls-1" d="M663.28,95.2h2.21c.19,0,.28.09.28.28v19.04c0,.19-.09.28-.28.28h-2.13c-.19,0-.28-.09-.28-.28v-16.41s-.01-.07-.04-.1c-.03-.03-.06-.03-.1-.01l-2.72.87-.11.03c-.11,0-.19-.08-.22-.25l-.11-1.6c0-.15.07-.26.2-.34l2.94-1.43c.11-.06.23-.08.36-.08Z"/>
      <path class="cls-1" d="M672.3,112.48h7.42c.19,0,.28.09.28.28v1.76c0,.19-.09.28-.28.28h-10.56c-.19,0-.28-.09-.28-.28v-1.79c0-.13.04-.24.11-.34,2.41-3.1,4.28-5.59,5.63-7.48,1.44-2,2.16-3.59,2.16-4.79,0-.86-.24-1.54-.73-2.06-.49-.51-1.13-.77-1.93-.77s-1.41.26-1.89.77c-.48.51-.71,1.19-.69,2.03v.98c0,.19-.09.28-.28.28h-2.16c-.19,0-.28-.09-.28-.28v-1.2c.04-1.47.55-2.66,1.55-3.56s2.26-1.34,3.79-1.34c1.06,0,2,.22,2.8.66.8.44,1.42,1.05,1.86,1.83s.66,1.67.66,2.66c0,1.66-.75,3.55-2.24,5.66-.86,1.21-2.26,3.05-4.2,5.52l-.81,1.04c-.06.09-.04.14.06.14Z"/>
    </g>
  </g>
  <g id="wv_hall_1G_13" data-name="1G/13" class="ds-stand">
    <path class="cls-3" d="M748.17,91.83c2.14.5,3.49,2.66,2.99,4.81l-8.12,35.05c-.5,2.14-2.66,3.49-4.8,2.99l-25.31-5.92c-2.14-.5-3.49-2.66-2.99-4.81l8.12-35.05c.5-2.14,2.66-3.49,4.8-2.99l25.31,5.92Z"/>
    <g>
      <path class="cls-1" d="M723.42,100.2h2.21c.19,0,.28.09.28.28v19.04c0,.19-.09.28-.28.28h-2.13c-.19,0-.28-.09-.28-.28v-16.41s-.01-.07-.04-.1c-.03-.03-.06-.03-.1-.01l-2.72.87-.11.03c-.11,0-.19-.08-.22-.25l-.11-1.6c0-.15.07-.26.2-.34l2.94-1.43c.11-.06.23-.08.36-.08Z"/>
      <path class="cls-1" d="M739.49,113.72c0,1.16-.18,2.19-.53,3.11-.39,1.05-.99,1.84-1.79,2.38s-1.8.81-3,.81c-1.36,0-2.5-.36-3.42-1.08-.92-.72-1.49-1.68-1.74-2.9-.11-.56-.19-1.24-.22-2.04,0-.19.09-.28.28-.28h2.13c.19,0,.28.09.28.28.04.62.09,1.12.17,1.51.15.69.44,1.23.87,1.61.43.38.98.57,1.65.57.62,0,1.13-.16,1.54-.49.41-.33.71-.81.9-1.44.17-.62.25-1.36.25-2.24,0-1.01-.12-1.84-.36-2.49-.21-.58-.5-1.02-.9-1.32-.39-.3-.88-.45-1.46-.45-.28,0-.58.08-.9.25-.08.04-.13.06-.17.06-.08,0-.15-.04-.22-.11l-1.09-1.18c-.06-.06-.08-.12-.08-.2s.03-.14.08-.2l4.26-5.24s.05-.07.03-.1c-.02-.03-.05-.04-.08-.04h-6.66c-.19,0-.28-.09-.28-.28v-1.76c0-.19.09-.28.28-.28h9.83c.19,0,.28.09.28.28v1.85c0,.13-.04.24-.11.34l-3.95,4.96s-.05.07-.03.1c.02.03.05.04.08.04.84.07,1.56.34,2.16.8.6.46,1.05,1.08,1.37,1.86.37.91.56,2.02.56,3.3Z"/>
    </g>
  </g>
  <g id="wv_hall_1G_14" data-name="1G/14" class="ds-stand">
    <path class="cls-3" d="M787.14,100.87c2.14.5,3.49,2.66,2.99,4.81l-8.12,35.05c-.5,2.14-2.66,3.49-4.8,2.99l-25.31-5.92c-2.14-.5-3.49-2.66-2.99-4.81l8.12-35.05c.5-2.14,2.66-3.49,4.8-2.99l25.31,5.92Z"/>
    <g>
      <path class="cls-1" d="M761.94,109.2h2.21c.19,0,.28.09.28.28v19.04c0,.19-.09.28-.28.28h-2.13c-.19,0-.28-.09-.28-.28v-16.41s-.01-.07-.04-.1c-.03-.03-.06-.03-.1-.01l-2.72.87-.11.03c-.11,0-.19-.08-.22-.25l-.11-1.6c0-.15.07-.26.2-.34l2.94-1.43c.11-.06.23-.08.36-.08Z"/>
      <path class="cls-1" d="M779.33,121.41v1.88c0,.19-.09.28-.28.28h-1.04c-.07,0-.11.04-.11.11v4.84c0,.19-.09.28-.28.28h-2.13c-.19,0-.28-.09-.28-.28v-4.84c0-.07-.04-.11-.11-.11h-7.7c-.19,0-.28-.09-.28-.28v-1.54c0-.13.02-.24.06-.34l4.79-11.98c.06-.15.16-.22.31-.22h2.3c.09,0,.16.03.2.1s.04.14,0,.24l-4.51,11.45s-.02.07,0,.1c.02.03.05.04.08.04h4.76c.07,0,.11-.04.11-.11v-3.98c0-.19.09-.28.28-.28h2.13c.19,0,.28.09.28.28v3.98c0,.08.04.11.11.11h1.04c.19,0,.28.09.28.28Z"/>
    </g>
  </g>
  <g id="wv_hall_1G_15" data-name="1G/15" class="ds-stand">
    <path class="cls-3" d="M826.11,109.9c2.14.5,3.49,2.66,2.99,4.81l-8.12,35.05c-.5,2.14-2.66,3.49-4.8,2.99l-25.31-5.92c-2.14-.5-3.49-2.66-2.99-4.81l8.12-35.05c.5-2.14,2.66-3.49,4.8-2.99l25.31,5.92Z"/>
    <g>
      <path class="cls-1" d="M801.42,118.2h2.21c.19,0,.28.09.28.28v19.04c0,.19-.09.28-.28.28h-2.13c-.19,0-.28-.09-.28-.28v-16.41s-.01-.07-.04-.1c-.03-.03-.06-.03-.1-.01l-2.72.87-.11.03c-.11,0-.19-.08-.22-.25l-.11-1.6c0-.15.07-.26.2-.34l2.94-1.43c.11-.06.23-.08.36-.08Z"/>
      <path class="cls-1" d="M817.86,131.72c0,.97-.08,1.79-.25,2.46-.32,1.23-.92,2.18-1.81,2.84s-1.99.99-3.32.99-2.43-.35-3.32-1.04c-.89-.69-1.48-1.66-1.78-2.91-.11-.48-.18-.86-.2-1.12v-.06c0-.15.08-.22.25-.22h2.16c.19,0,.29.09.31.28.04.3.07.5.11.59.15.69.44,1.22.87,1.58.43.36.96.55,1.6.55s1.17-.19,1.61-.56c.44-.37.73-.91.88-1.6.11-.43.17-1.02.17-1.76s-.07-1.38-.2-1.96c-.15-.63-.44-1.12-.87-1.44-.43-.33-.96-.49-1.6-.49s-1.14.14-1.58.42c-.44.28-.75.7-.94,1.26-.04.15-.14.22-.31.22h-2.18c-.19,0-.28-.09-.28-.28v-11c0-.19.09-.28.28-.28h9.55c.19,0,.28.09.28.28v1.76c0,.19-.09.28-.28.28h-7.03c-.08,0-.11.04-.11.11l-.03,5.96c0,.09.05.11.14.06.37-.37.83-.66,1.36-.85.53-.2,1.1-.29,1.69-.29,1.1,0,2.03.27,2.8.8.77.53,1.3,1.3,1.6,2.31.28.92.42,1.95.42,3.11Z"/>
    </g>
  </g>
  <g id="wv_hall_1G_16" data-name="1G/16" class="ds-stand">
    <path class="cls-3" d="M885.31,130.88c2.03.84,3.01,3.19,2.18,5.23l-13.67,33.27c-.84,2.03-3.18,3.01-5.22,2.17l-24.03-9.93c-2.03-.84-3.01-3.19-2.18-5.23l13.67-33.27c.84-2.03,3.18-3.01,5.22-2.17l24.03,9.93Z"/>
    <g>
      <path class="cls-1" d="M858.41,136.2h2.21c.19,0,.28.09.28.28v19.04c0,.19-.09.28-.28.28h-2.13c-.19,0-.28-.09-.28-.28v-16.41s-.01-.07-.04-.1c-.03-.03-.06-.03-.1-.01l-2.72.87-.11.03c-.11,0-.19-.08-.22-.25l-.11-1.6c0-.15.07-.26.2-.34l2.94-1.43c.11-.06.23-.08.36-.08Z"/>
      <path class="cls-1" d="M874.87,149.72c0,.95-.1,1.79-.31,2.52-.32,1.21-.91,2.15-1.76,2.8-.86.65-1.95.98-3.28.98-1.21,0-2.24-.29-3.08-.88-.84-.59-1.43-1.43-1.76-2.53-.34-.75-.5-1.68-.5-2.8l-.03-8.88c0-1.49.48-2.69,1.46-3.6.97-.91,2.25-1.36,3.84-1.36,1.49,0,2.71.45,3.65,1.34.94.9,1.41,2.07,1.41,3.53v.59c0,.19-.09.28-.28.28h-2.13c-.19,0-.28-.09-.28-.28v-.39c0-.78-.23-1.43-.69-1.95-.46-.51-1.03-.77-1.72-.77-.75,0-1.36.26-1.83.77-.48.51-.71,1.19-.71,2.03v3.53s.01.07.04.08c.03.02.06,0,.1-.03.73-.84,1.7-1.26,2.91-1.26,1.14,0,2.09.3,2.84.9.76.6,1.31,1.42,1.67,2.46.3.84.45,1.81.45,2.91ZM872.15,149.67c0-.88-.09-1.59-.28-2.13-.17-.58-.46-1.03-.87-1.36-.41-.33-.91-.49-1.51-.49s-1.12.16-1.53.49c-.4.33-.69.79-.85,1.39-.17.52-.25,1.23-.25,2.13,0,.77.07,1.41.2,1.93.15.63.43,1.13.85,1.5.42.36.95.55,1.58.55s1.16-.18,1.58-.55c.42-.36.71-.89.88-1.58.13-.5.2-1.13.2-1.88Z"/>
    </g>
  </g>
  <g id="wv_hall_1G_17" data-name="1G/17" class="ds-stand">
    <path class="cls-3" d="M944.19,163.1c1.84,1.21,2.36,3.7,1.15,5.54l-19.7,30.1c-1.2,1.84-3.69,2.36-5.53,1.15l-21.72-14.28c-1.84-1.21-2.36-3.7-1.15-5.54l19.7-30.1c1.2-1.84,3.69-2.36,5.53-1.15l21.72,14.28Z"/>
    <g>
      <path class="cls-1" d="M915.98,165.2h2.21c.19,0,.28.09.28.28v19.04c0,.19-.09.28-.28.28h-2.13c-.19,0-.28-.09-.28-.28v-16.41s-.01-.07-.04-.1c-.03-.03-.06-.03-.1-.01l-2.72.87-.11.03c-.11,0-.19-.08-.22-.25l-.11-1.6c0-.15.06-.26.2-.34l2.94-1.43c.11-.06.23-.08.36-.08Z"/>
      <path class="cls-1" d="M923.48,184.49l5.54-16.83s.01-.07-.01-.1c-.03-.03-.06-.04-.1-.04h-5.6c-.08,0-.11.04-.11.11v1.2c0,.19-.09.28-.28.28h-1.65c-.19,0-.28-.09-.28-.28v-3.36c0-.19.09-.28.28-.28h10.33c.19,0,.28.09.28.28v1.88c0,.07-.02.19-.06.34l-5.52,16.88c-.06.15-.17.22-.34.22h-2.27c-.21,0-.28-.1-.22-.31Z"/>
    </g>
  </g>
  <g id="wv_hall_1G_18" data-name="1G/18" class="ds-stand">
    <path class="cls-3" d="M977.66,185.01c1.84,1.21,2.36,3.7,1.15,5.54l-19.7,30.1c-1.2,1.84-3.69,2.36-5.53,1.15l-21.72-14.28c-1.84-1.21-2.36-3.7-1.15-5.54l19.7-30.1c1.2-1.84,3.69-2.36,5.53-1.15l21.72,14.28Z"/>
    <g>
      <path class="cls-1" d="M948.32,187.2h2.21c.19,0,.28.09.28.28v19.04c0,.19-.09.28-.28.28h-2.13c-.19,0-.28-.09-.28-.28v-16.41s-.01-.07-.04-.1c-.03-.03-.06-.03-.1-.01l-2.72.87-.11.03c-.11,0-.19-.08-.22-.25l-.11-1.6c0-.15.07-.26.2-.34l2.94-1.43c.11-.06.23-.08.36-.08Z"/>
      <path class="cls-1" d="M964.65,201.26c0,1.16-.21,2.15-.62,2.97-.41.88-1.02,1.56-1.83,2.06-.81.5-1.77.74-2.87.74s-2.06-.25-2.88-.76c-.82-.5-1.44-1.21-1.85-2.13-.41-.88-.62-1.85-.62-2.91s.18-1.95.53-2.77c.37-.88.98-1.52,1.82-1.93.09-.06.09-.11,0-.17-.65-.39-1.16-.91-1.51-1.54-.47-.77-.7-1.67-.7-2.72s.21-1.92.64-2.69c.43-.78,1.04-1.4,1.85-1.85.8-.45,1.71-.67,2.72-.67s1.96.22,2.74.66c.78.44,1.38,1.06,1.79,1.86.45.8.67,1.7.67,2.69s-.23,1.91-.7,2.72c-.36.63-.86,1.15-1.51,1.54-.09.06-.1.1-.03.14.84.41,1.45,1.06,1.82,1.96.36.77.53,1.7.53,2.8ZM961.99,201.09c0-.75-.1-1.38-.31-1.9-.19-.54-.48-.96-.88-1.26-.4-.3-.89-.45-1.47-.45-1.18,0-1.96.55-2.35,1.65-.21.5-.31,1.16-.31,1.96s.13,1.52.39,2.04c.41,1.05,1.17,1.57,2.27,1.57s1.83-.51,2.24-1.54c.28-.56.42-1.25.42-2.07ZM956.78,192.3c0,.67.13,1.25.39,1.74.21.43.49.77.87,1.01.37.24.8.36,1.29.36s.94-.13,1.32-.38c.37-.25.66-.6.87-1.05.24-.47.36-1.04.36-1.71,0-.58-.11-1.09-.34-1.54-.19-.47-.47-.84-.85-1.11-.38-.27-.84-.41-1.39-.41-.5,0-.95.14-1.34.42-.39.28-.68.65-.87,1.12-.21.5-.31,1.02-.31,1.54Z"/>
    </g>
  </g>
  <g id="wv_hall_1G_19" data-name="1G/19" class="ds-stand">
    <path class="cls-3" d="M1101.74,307.21c1.24,1.82.76,4.32-1.06,5.56l-29.71,20.28c-1.82,1.24-4.32.77-5.55-1.05l-14.61-21.5c-1.24-1.82-.76-4.32,1.06-5.56l29.71-20.28c1.82-1.24,4.32-.77,5.55,1.05l14.61,21.5Z"/>
    <g>
      <path class="cls-1" d="M1070.53,299.2h2.21c.19,0,.28.09.28.28v19.04c0,.19-.09.28-.28.28h-2.13c-.19,0-.28-.09-.28-.28v-16.41s-.01-.07-.04-.1c-.03-.03-.06-.03-.1-.01l-2.72.87-.11.03c-.11,0-.19-.08-.22-.25l-.11-1.6c0-.15.07-.26.2-.34l2.94-1.43c.11-.06.23-.08.36-.08Z"/>
      <path class="cls-1" d="M1086.38,305.19v8.88c0,1.51-.49,2.72-1.46,3.61s-2.24,1.34-3.81,1.34-2.74-.45-3.67-1.34c-.93-.9-1.4-2.07-1.4-3.53v-.59c0-.19.09-.28.28-.28h2.13c.19,0,.28.09.28.28v.39c0,.8.22,1.46.67,1.96.45.5,1.02.76,1.71.76.76,0,1.39-.26,1.86-.77.48-.51.71-1.19.71-2.03v-3.56s-.01-.07-.04-.08c-.03-.02-.06,0-.1.03-.73.86-1.7,1.29-2.91,1.29-1.14,0-2.09-.3-2.86-.9-.77-.6-1.32-1.42-1.65-2.46-.3-.77-.45-1.74-.45-2.91,0-1.05.1-1.89.31-2.52.3-1.21.88-2.15,1.74-2.8.86-.65,1.95-.98,3.28-.98,1.21,0,2.24.29,3.08.88s1.43,1.43,1.76,2.53c.36.78.53,1.72.53,2.8ZM1082.56,308.82c.4-.33.69-.79.85-1.39.19-.58.28-1.29.28-2.13,0-.77-.07-1.41-.2-1.93-.17-.65-.46-1.16-.88-1.51-.42-.35-.95-.53-1.58-.53s-1.14.18-1.57.55c-.43.36-.73.89-.9,1.58-.13.62-.2,1.24-.2,1.88,0,.8.09,1.51.28,2.13.39,1.23,1.19,1.85,2.38,1.85.62,0,1.12-.16,1.53-.49Z"/>
    </g>
  </g>
  <g id="wv_hall_1G_20" data-name="1G/20" class="ds-stand">
    <path class="cls-3" d="M1124.3,340.26c1.24,1.82.76,4.32-1.06,5.56l-29.71,20.28c-1.82,1.24-4.32.77-5.55-1.05l-14.61-21.5c-1.24-1.82-.76-4.32,1.06-5.56l29.71-20.28c1.82-1.24,4.32-.77,5.55,1.05l14.61,21.5Z"/>
    <g>
      <path class="cls-1" d="M1089.86,349.48h7.42c.19,0,.28.09.28.28v1.76c0,.19-.09.28-.28.28h-10.56c-.19,0-.28-.09-.28-.28v-1.79c0-.13.04-.24.11-.34,2.41-3.1,4.28-5.59,5.63-7.48,1.44-2,2.16-3.59,2.16-4.79,0-.86-.24-1.54-.73-2.06-.49-.51-1.13-.77-1.93-.77s-1.41.26-1.89.77c-.48.51-.7,1.19-.69,2.03v.98c0,.19-.09.28-.28.28h-2.16c-.19,0-.28-.09-.28-.28v-1.2c.04-1.47.55-2.66,1.55-3.56,1-.9,2.26-1.34,3.79-1.34,1.06,0,2,.22,2.8.66.8.44,1.42,1.05,1.86,1.83.44.78.66,1.67.66,2.66,0,1.66-.75,3.55-2.24,5.66-.86,1.21-2.26,3.05-4.2,5.52l-.81,1.04c-.06.09-.04.14.06.14Z"/>
      <path class="cls-1" d="M1101.63,350.57c-1.02-1.01-1.53-2.36-1.53-4.06v-9.02c0-1.68.51-3.02,1.53-4.03,1.02-1.01,2.38-1.51,4.07-1.51s3.06.5,4.09,1.51c1.03,1.01,1.54,2.35,1.54,4.03v9.02c0,1.7-.51,3.05-1.54,4.06-1.03,1.01-2.39,1.51-4.09,1.51s-3.06-.5-4.07-1.51ZM1107.83,348.9c.54-.57.81-1.32.81-2.25v-9.27c0-.93-.27-1.68-.81-2.25s-1.25-.85-2.13-.85-1.58.28-2.11.85c-.53.57-.8,1.32-.8,2.25v9.27c0,.93.27,1.68.8,2.25.53.57,1.24.85,2.11.85s1.59-.28,2.13-.85Z"/>
    </g>
  </g>
  <g id="wv_hall_1G_21" data-name="1G/21" class="ds-stand">
    <path class="cls-3" d="M1146.84,373.29c1.24,1.82.76,4.32-1.06,5.56l-29.71,20.28c-1.82,1.24-4.32.77-5.55-1.05l-14.61-21.5c-1.24-1.82-.76-4.32,1.06-5.56l29.71-20.28c1.82-1.24,4.32-.77,5.55,1.05l14.61,21.5Z"/>
    <g>
      <path class="cls-1" d="M1115.9,381.48h7.42c.19,0,.28.09.28.28v1.76c0,.19-.09.28-.28.28h-10.56c-.19,0-.28-.09-.28-.28v-1.79c0-.13.04-.24.11-.34,2.41-3.1,4.28-5.59,5.63-7.48,1.44-2,2.16-3.59,2.16-4.79,0-.86-.24-1.54-.73-2.06-.49-.51-1.13-.77-1.93-.77s-1.41.26-1.89.77c-.48.51-.71,1.19-.69,2.03v.98c0,.19-.09.28-.28.28h-2.16c-.19,0-.28-.09-.28-.28v-1.2c.04-1.47.55-2.66,1.55-3.56,1-.9,2.26-1.34,3.79-1.34,1.06,0,2,.22,2.8.66.8.44,1.42,1.05,1.86,1.83s.66,1.67.66,2.66c0,1.66-.75,3.55-2.24,5.66-.86,1.21-2.26,3.05-4.2,5.52l-.81,1.04c-.06.09-.04.14.06.14Z"/>
      <path class="cls-1" d="M1128.47,364.2h2.21c.19,0,.28.09.28.28v19.04c0,.19-.09.28-.28.28h-2.13c-.19,0-.28-.09-.28-.28v-16.41s-.01-.07-.04-.1c-.03-.03-.06-.03-.1-.01l-2.72.87-.11.03c-.11,0-.19-.08-.22-.25l-.11-1.6c0-.15.06-.26.2-.34l2.94-1.43c.11-.06.23-.08.36-.08Z"/>
    </g>
  </g>
  <g id="wv_hall_1G_22" data-name="1G/22" class="ds-stand">
    <path class="cls-3" d="M1172.18,424.59c.86,2.02-.08,4.39-2.11,5.26l-33.06,14.18c-2.02.87-4.38-.08-5.25-2.1l-10.2-23.91c-.86-2.02.08-4.39,2.11-5.26l33.06-14.18c2.02-.87,4.38.08,5.25,2.1l10.2,23.91Z"/>
    <g>
      <path class="cls-1" d="M1137.99,428.48h7.42c.19,0,.28.09.28.28v1.76c0,.19-.09.28-.28.28h-10.56c-.19,0-.28-.09-.28-.28v-1.79c0-.13.04-.24.11-.34,2.41-3.1,4.28-5.59,5.63-7.48,1.44-2,2.16-3.59,2.16-4.79,0-.86-.24-1.54-.73-2.06-.49-.51-1.13-.77-1.93-.77s-1.41.26-1.89.77c-.48.51-.71,1.19-.69,2.03v.98c0,.19-.09.28-.28.28h-2.16c-.19,0-.28-.09-.28-.28v-1.2c.04-1.47.55-2.66,1.55-3.56,1-.9,2.26-1.34,3.79-1.34,1.06,0,2,.22,2.8.66.8.44,1.42,1.05,1.86,1.83s.66,1.67.66,2.66c0,1.66-.75,3.55-2.24,5.66-.86,1.21-2.26,3.05-4.2,5.52l-.81,1.04c-.06.09-.04.14.06.14Z"/>
      <path class="cls-1" d="M1151.43,428.48h7.42c.19,0,.28.09.28.28v1.76c0,.19-.09.28-.28.28h-10.56c-.19,0-.28-.09-.28-.28v-1.79c0-.13.04-.24.11-.34,2.41-3.1,4.28-5.59,5.63-7.48,1.44-2,2.16-3.59,2.16-4.79,0-.86-.24-1.54-.73-2.06-.49-.51-1.13-.77-1.93-.77s-1.41.26-1.89.77c-.48.51-.71,1.19-.69,2.03v.98c0,.19-.09.28-.28.28h-2.16c-.19,0-.28-.09-.28-.28v-1.2c.04-1.47.56-2.66,1.55-3.56,1-.9,2.26-1.34,3.79-1.34,1.06,0,2,.22,2.8.66.8.44,1.42,1.05,1.86,1.83.44.78.66,1.67.66,2.66,0,1.66-.75,3.55-2.24,5.66-.86,1.21-2.26,3.05-4.2,5.52l-.81,1.04c-.06.09-.04.14.06.14Z"/>
    </g>
  </g>
  <g id="wv_hall_1G_23" data-name="1G/23" class="ds-stand">
    <path class="cls-3" d="M1188.78,477.35c.58,2.12-.69,4.34-2.81,4.92l-34.69,9.52c-2.12.58-4.33-.68-4.91-2.8l-6.83-25.08c-.58-2.12.69-4.34,2.81-4.92l34.69-9.52c2.12-.58,4.33.68,4.91,2.8l6.83,25.08Z"/>
    <g>
      <path class="cls-1" d="M1155.42,478.48h7.42c.19,0,.28.09.28.28v1.76c0,.19-.09.28-.28.28h-10.56c-.19,0-.28-.09-.28-.28v-1.79c0-.13.04-.24.11-.34,2.41-3.1,4.28-5.59,5.63-7.48,1.44-2,2.16-3.59,2.16-4.79,0-.86-.24-1.54-.73-2.06-.49-.51-1.13-.77-1.93-.77s-1.41.26-1.89.77c-.48.51-.71,1.19-.69,2.03v.98c0,.19-.09.28-.28.28h-2.16c-.19,0-.28-.09-.28-.28v-1.2c.04-1.47.56-2.66,1.55-3.56,1-.9,2.26-1.34,3.79-1.34,1.06,0,2,.22,2.8.66.8.44,1.42,1.05,1.86,1.83.44.78.66,1.67.66,2.66,0,1.66-.75,3.55-2.24,5.66-.86,1.21-2.26,3.05-4.2,5.52l-.81,1.04c-.06.09-.04.14.06.14Z"/>
      <path class="cls-1" d="M1175.83,474.72c0,1.16-.18,2.19-.53,3.11-.39,1.05-.99,1.84-1.79,2.38s-1.8.81-3,.81c-1.36,0-2.5-.36-3.42-1.08-.91-.72-1.49-1.68-1.74-2.9-.11-.56-.19-1.24-.22-2.04,0-.19.09-.28.28-.28h2.13c.19,0,.28.09.28.28.04.62.09,1.12.17,1.51.15.69.44,1.23.87,1.61.43.38.98.57,1.65.57.62,0,1.13-.16,1.54-.49.41-.33.71-.81.9-1.44.17-.62.25-1.36.25-2.24,0-1.01-.12-1.84-.36-2.49-.21-.58-.5-1.02-.9-1.32-.39-.3-.88-.45-1.46-.45-.28,0-.58.08-.9.25-.07.04-.13.06-.17.06-.07,0-.15-.04-.22-.11l-1.09-1.18c-.06-.06-.08-.12-.08-.2s.03-.14.08-.2l4.26-5.24s.05-.07.03-.1c-.02-.03-.05-.04-.08-.04h-6.66c-.19,0-.28-.09-.28-.28v-1.76c0-.19.09-.28.28-.28h9.83c.19,0,.28.09.28.28v1.85c0,.13-.04.24-.11.34l-3.95,4.96s-.05.07-.03.1.05.04.08.04c.84.07,1.56.34,2.16.8.6.46,1.05,1.08,1.37,1.86.37.91.56,2.02.56,3.3Z"/>
    </g>
  </g>
  <g id="wv_hall_1G_24" data-name="1G/24" class="ds-stand">
    <path class="cls-3" d="M1199.37,515.93c.58,2.12-.69,4.34-2.81,4.92l-34.69,9.52c-2.12.58-4.33-.68-4.91-2.8l-6.83-25.08c-.58-2.12.69-4.34,2.81-4.92l34.69-9.52c2.12-.58,4.33.68,4.91,2.8l6.83,25.08Z"/>
    <g>
      <path class="cls-1" d="M1165.89,517.48h7.42c.19,0,.28.09.28.28v1.76c0,.19-.09.28-.28.28h-10.56c-.19,0-.28-.09-.28-.28v-1.79c0-.13.04-.24.11-.34,2.41-3.1,4.28-5.59,5.63-7.48,1.44-2,2.16-3.59,2.16-4.79,0-.86-.24-1.54-.73-2.06-.49-.51-1.13-.77-1.93-.77s-1.41.26-1.89.77c-.48.51-.71,1.19-.69,2.03v.98c0,.19-.09.28-.28.28h-2.16c-.19,0-.28-.09-.28-.28v-1.2c.04-1.47.56-2.66,1.55-3.56,1-.9,2.26-1.34,3.79-1.34,1.06,0,2,.22,2.8.66.8.44,1.42,1.05,1.86,1.83.44.78.66,1.67.66,2.66,0,1.66-.75,3.55-2.24,5.66-.86,1.21-2.26,3.05-4.2,5.52l-.81,1.04c-.06.09-.04.14.06.14Z"/>
      <path class="cls-1" d="M1187.73,512.41v1.88c0,.19-.09.28-.28.28h-1.04c-.07,0-.11.04-.11.11v4.84c0,.19-.09.28-.28.28h-2.13c-.19,0-.28-.09-.28-.28v-4.84c0-.07-.04-.11-.11-.11h-7.7c-.19,0-.28-.09-.28-.28v-1.54c0-.13.02-.24.06-.34l4.79-11.98c.06-.15.16-.22.31-.22h2.3c.09,0,.16.03.2.1s.04.14,0,.24l-4.51,11.45s-.02.07,0,.1c.02.03.05.04.08.04h4.76c.07,0,.11-.04.11-.11v-3.98c0-.19.09-.28.28-.28h2.13c.19,0,.28.09.28.28v3.98c0,.08.04.11.11.11h1.04c.19,0,.28.09.28.28Z"/>
    </g>
  </g>
  <g id="wv_hall_1G_25" data-name="1G/25" class="ds-stand">
    <path class="cls-3" d="M1209.95,554.5c.58,2.12-.69,4.34-2.81,4.92l-34.69,9.52c-2.12.58-4.33-.68-4.91-2.8l-6.83-25.08c-.58-2.12.69-4.34,2.81-4.92l34.69-9.52c2.12-.58,4.33.68,4.91,2.8l6.83,25.08Z"/>
    <g>
      <path class="cls-1" d="M1176.36,555.48h7.42c.19,0,.28.09.28.28v1.76c0,.19-.09.28-.28.28h-10.56c-.19,0-.28-.09-.28-.28v-1.79c0-.13.04-.24.11-.34,2.41-3.1,4.28-5.59,5.63-7.48,1.44-2,2.16-3.59,2.16-4.79,0-.86-.24-1.54-.73-2.06-.49-.51-1.13-.77-1.93-.77s-1.41.26-1.89.77c-.48.51-.71,1.19-.69,2.03v.98c0,.19-.09.28-.28.28h-2.16c-.19,0-.28-.09-.28-.28v-1.2c.04-1.47.55-2.66,1.55-3.56s2.26-1.34,3.79-1.34c1.06,0,2,.22,2.8.66.8.44,1.42,1.05,1.86,1.83s.66,1.67.66,2.66c0,1.66-.75,3.55-2.24,5.66-.86,1.21-2.26,3.05-4.2,5.52l-.81,1.04c-.06.09-.04.14.06.14Z"/>
      <path class="cls-1" d="M1197.25,551.72c0,.97-.08,1.79-.25,2.46-.32,1.23-.92,2.18-1.81,2.84s-1.99.99-3.32.99-2.43-.35-3.32-1.04c-.89-.69-1.48-1.66-1.78-2.91-.11-.48-.18-.86-.2-1.12v-.06c0-.15.08-.22.25-.22h2.16c.19,0,.29.09.31.28.04.3.07.5.11.59.15.69.44,1.22.87,1.58.43.36.96.55,1.6.55s1.17-.19,1.61-.56c.44-.37.73-.91.88-1.6.11-.43.17-1.02.17-1.76s-.07-1.38-.2-1.96c-.15-.63-.44-1.12-.87-1.44-.43-.33-.96-.49-1.6-.49s-1.14.14-1.58.42c-.44.28-.75.7-.94,1.26-.04.15-.14.22-.31.22h-2.18c-.19,0-.28-.09-.28-.28v-11c0-.19.09-.28.28-.28h9.55c.19,0,.28.09.28.28v1.76c0,.19-.09.28-.28.28h-7.03c-.08,0-.11.04-.11.11l-.03,5.96c0,.09.05.11.14.06.37-.37.83-.66,1.36-.85.53-.2,1.1-.29,1.69-.29,1.1,0,2.03.27,2.8.8.77.53,1.3,1.3,1.6,2.31.28.92.42,1.95.42,3.11Z"/>
    </g>
  </g>
  <g id="wv_hall_1G_26" data-name="1G/26" class="ds-stand">
    <path class="cls-3" d="M1215.83,609.93c.14,2.2-1.54,4.11-3.73,4.26l-35.89,2.41c-2.2.15-4.11-1.53-4.25-3.72l-1.69-25.94c-.14-2.2,1.54-4.11,3.73-4.26l35.89-2.41c2.2-.15,4.11,1.53,4.25,3.72l1.69,25.94Z"/>
    <g>
      <path class="cls-1" d="M1184.35,605.48h7.42c.19,0,.28.09.28.28v1.76c0,.19-.09.28-.28.28h-10.56c-.19,0-.28-.09-.28-.28v-1.79c0-.13.04-.24.11-.34,2.41-3.1,4.28-5.59,5.63-7.48,1.44-2,2.16-3.59,2.16-4.79,0-.86-.24-1.54-.73-2.06-.49-.51-1.13-.77-1.93-.77s-1.41.26-1.89.77c-.48.51-.7,1.19-.69,2.03v.98c0,.19-.09.28-.28.28h-2.16c-.19,0-.28-.09-.28-.28v-1.2c.04-1.47.55-2.66,1.55-3.56,1-.9,2.26-1.34,3.79-1.34,1.06,0,2,.22,2.8.66.8.44,1.42,1.05,1.86,1.83.44.78.66,1.67.66,2.66,0,1.66-.75,3.55-2.24,5.66-.86,1.21-2.26,3.05-4.2,5.52l-.81,1.04c-.06.09-.04.14.06.14Z"/>
      <path class="cls-1" d="M1205.26,601.72c0,.95-.1,1.79-.31,2.52-.32,1.21-.91,2.15-1.76,2.8s-1.95.98-3.28.98c-1.21,0-2.24-.29-3.08-.88-.84-.59-1.43-1.43-1.76-2.53-.34-.75-.5-1.68-.5-2.8l-.03-8.88c0-1.49.48-2.69,1.46-3.6s2.25-1.36,3.84-1.36c1.49,0,2.71.45,3.65,1.34s1.41,2.07,1.41,3.53v.59c0,.19-.09.28-.28.28h-2.13c-.19,0-.28-.09-.28-.28v-.39c0-.78-.23-1.43-.69-1.95-.46-.51-1.03-.77-1.72-.77-.75,0-1.36.26-1.83.77-.48.51-.71,1.19-.71,2.03v3.53s.01.07.04.08c.03.02.06,0,.1-.03.73-.84,1.7-1.26,2.91-1.26,1.14,0,2.09.3,2.84.9.76.6,1.31,1.42,1.67,2.46.3.84.45,1.81.45,2.91ZM1202.55,601.67c0-.88-.09-1.59-.28-2.13-.17-.58-.46-1.03-.87-1.36-.41-.33-.91-.49-1.51-.49s-1.12.16-1.53.49c-.4.33-.69.79-.85,1.39-.17.52-.25,1.23-.25,2.13,0,.77.07,1.41.2,1.93.15.63.43,1.13.85,1.5.42.36.95.55,1.58.55s1.16-.18,1.58-.55c.42-.36.71-.89.88-1.58.13-.5.2-1.13.2-1.88Z"/>
    </g>
  </g>
  <g id="wv_hall_1G_27" data-name="1G/27" class="ds-stand">
    <path class="cls-3" d="M1218.51,649.84c.14,2.2-1.54,4.11-3.73,4.26l-35.89,2.41c-2.2.15-4.11-1.53-4.25-3.72l-1.69-25.94c-.14-2.2,1.54-4.11,3.73-4.26l35.89-2.41c2.2-.15,4.11,1.53,4.25,3.72l1.69,25.94Z"/>
    <g>
      <path class="cls-1" d="M1187.92,645.48h7.42c.19,0,.28.09.28.28v1.76c0,.19-.09.28-.28.28h-10.56c-.19,0-.28-.09-.28-.28v-1.79c0-.13.04-.24.11-.34,2.41-3.1,4.28-5.59,5.63-7.48,1.44-2,2.16-3.59,2.16-4.79,0-.86-.24-1.54-.73-2.06-.49-.51-1.13-.77-1.93-.77s-1.41.26-1.89.77c-.48.51-.71,1.19-.69,2.03v.98c0,.19-.09.28-.28.28h-2.16c-.19,0-.28-.09-.28-.28v-1.2c.04-1.47.56-2.66,1.55-3.56,1-.9,2.26-1.34,3.79-1.34,1.06,0,2,.22,2.8.66.8.44,1.42,1.05,1.86,1.83.44.78.66,1.67.66,2.66,0,1.66-.75,3.55-2.24,5.66-.86,1.21-2.26,3.05-4.2,5.52l-.81,1.04c-.06.09-.04.14.06.14Z"/>
      <path class="cls-1" d="M1199.88,647.49l5.54-16.83s.01-.07-.01-.1c-.03-.03-.06-.04-.1-.04h-5.6c-.07,0-.11.04-.11.11v1.2c0,.19-.09.28-.28.28h-1.65c-.19,0-.28-.09-.28-.28v-3.36c0-.19.09-.28.28-.28h10.33c.19,0,.28.09.28.28v1.88c0,.07-.02.19-.06.34l-5.52,16.88c-.06.15-.17.22-.34.22h-2.27c-.21,0-.28-.1-.22-.31Z"/>
    </g>
  </g>
  <g id="wv_hall_1G_28" data-name="1G/28" class="ds-stand">
    <path class="cls-3" d="M1215.25,704.27c-.25,2.19-2.24,3.78-4.43,3.53l-35.75-3.97c-2.19-.24-3.77-2.23-3.53-4.42l2.92-25.83c.25-2.19,2.24-3.78,4.43-3.53l35.75,3.97c2.19.24,3.77,2.23,3.53,4.42l-2.92,25.83Z"/>
    <g>
      <path class="cls-1" d="M1186.26,696.48h7.42c.19,0,.28.09.28.28v1.76c0,.19-.09.28-.28.28h-10.56c-.19,0-.28-.09-.28-.28v-1.79c0-.13.04-.24.11-.34,2.41-3.1,4.28-5.59,5.63-7.48,1.44-2,2.16-3.59,2.16-4.79,0-.86-.24-1.54-.73-2.06-.49-.51-1.13-.77-1.93-.77s-1.41.26-1.89.77c-.48.51-.71,1.19-.69,2.03v.98c0,.19-.09.28-.28.28h-2.16c-.19,0-.28-.09-.28-.28v-1.2c.04-1.47.55-2.66,1.55-3.56,1-.9,2.26-1.34,3.79-1.34,1.06,0,2,.22,2.8.66.8.44,1.42,1.05,1.86,1.83.44.78.66,1.67.66,2.66,0,1.66-.75,3.55-2.24,5.66-.86,1.21-2.26,3.05-4.2,5.52l-.81,1.04c-.06.09-.04.14.06.14Z"/>
      <path class="cls-1" d="M1207.04,693.26c0,1.16-.21,2.15-.62,2.97-.41.88-1.02,1.56-1.83,2.06-.81.5-1.77.74-2.87.74s-2.06-.25-2.88-.76c-.82-.5-1.44-1.21-1.85-2.13-.41-.88-.62-1.85-.62-2.91s.18-1.95.53-2.77c.37-.88.98-1.52,1.82-1.93.09-.06.09-.11,0-.17-.65-.39-1.16-.91-1.51-1.54-.47-.77-.7-1.67-.7-2.72s.21-1.92.64-2.69c.43-.78,1.04-1.4,1.85-1.85.8-.45,1.71-.67,2.72-.67s1.96.22,2.74.66c.78.44,1.38,1.06,1.79,1.86.45.8.67,1.7.67,2.69s-.23,1.91-.7,2.72c-.36.63-.86,1.15-1.51,1.54-.09.06-.1.1-.03.14.84.41,1.45,1.06,1.82,1.96.36.77.53,1.7.53,2.8ZM1204.38,693.09c0-.75-.1-1.38-.31-1.9-.19-.54-.48-.96-.88-1.26-.4-.3-.89-.45-1.47-.45-1.18,0-1.96.55-2.35,1.65-.21.5-.31,1.16-.31,1.96s.13,1.52.39,2.04c.41,1.05,1.17,1.57,2.27,1.57s1.83-.51,2.24-1.54c.28-.56.42-1.25.42-2.07ZM1199.17,684.3c0,.67.13,1.25.39,1.74.21.43.49.77.87,1.01.37.24.8.36,1.29.36s.94-.13,1.32-.38c.37-.25.66-.6.87-1.05.24-.47.36-1.04.36-1.71,0-.58-.11-1.09-.34-1.54-.19-.47-.47-.84-.85-1.11-.38-.27-.84-.41-1.39-.41-.5,0-.95.14-1.34.42-.39.28-.68.65-.87,1.12-.21.5-.31,1.02-.31,1.54Z"/>
    </g>
  </g>
  <g id="wv_hall_1G_29" data-name="1G/29" class="ds-stand">
    <path class="cls-3" d="M1210.83,744.03c-.25,2.19-2.24,3.78-4.43,3.53l-35.75-3.97c-2.19-.24-3.77-2.23-3.53-4.42l2.92-25.83c.25-2.19,2.24-3.78,4.43-3.53l35.75,3.97c2.19.24,3.77,2.23,3.53,4.42l-2.92,25.83Z"/>
    <g>
      <path class="cls-1" d="M1182.47,736.25h7.42c.19,0,.28.09.28.28v1.76c0,.19-.09.28-.28.28h-10.56c-.19,0-.28-.09-.28-.28v-1.79c0-.13.04-.24.11-.34,2.41-3.1,4.28-5.59,5.63-7.48,1.44-2,2.16-3.59,2.16-4.79,0-.86-.24-1.54-.73-2.06-.49-.51-1.13-.77-1.93-.77s-1.41.26-1.89.77c-.48.51-.71,1.19-.69,2.03v.98c0,.19-.09.28-.28.28h-2.16c-.19,0-.28-.09-.28-.28v-1.2c.04-1.47.56-2.66,1.55-3.56,1-.9,2.26-1.34,3.79-1.34,1.06,0,2,.22,2.8.66.8.44,1.42,1.05,1.86,1.83.44.78.66,1.67.66,2.66,0,1.66-.75,3.55-2.24,5.66-.86,1.21-2.26,3.05-4.2,5.52l-.81,1.04c-.06.09-.04.14.06.14Z"/>
      <path class="cls-1" d="M1202.77,724.96v8.88c0,1.51-.49,2.72-1.46,3.61s-2.24,1.34-3.81,1.34-2.73-.45-3.67-1.34-1.4-2.07-1.4-3.53v-.59c0-.19.09-.28.28-.28h2.13c.19,0,.28.09.28.28v.39c0,.8.22,1.46.67,1.96.45.5,1.02.76,1.71.76.77,0,1.39-.26,1.86-.77.48-.51.71-1.19.71-2.03v-3.56s-.01-.07-.04-.08c-.03-.02-.06,0-.1.03-.73.86-1.7,1.29-2.91,1.29-1.14,0-2.09-.3-2.86-.9-.77-.6-1.32-1.42-1.65-2.46-.3-.77-.45-1.74-.45-2.91,0-1.05.1-1.89.31-2.52.3-1.21.88-2.15,1.74-2.8.86-.65,1.95-.98,3.28-.98,1.21,0,2.24.29,3.08.88s1.43,1.43,1.76,2.53c.35.78.53,1.72.53,2.8ZM1198.95,728.59c.4-.33.69-.79.85-1.39.19-.58.28-1.29.28-2.13,0-.77-.07-1.41-.2-1.93-.17-.65-.46-1.16-.88-1.51-.42-.35-.95-.53-1.58-.53s-1.14.18-1.57.55c-.43.36-.73.89-.9,1.58-.13.62-.2,1.24-.2,1.88,0,.8.09,1.51.28,2.13.39,1.23,1.18,1.85,2.38,1.85.62,0,1.12-.16,1.53-.49Z"/>
    </g>
  </g>
  <g id="wv_hall_1G_30" data-name="1G/30" class="ds-stand">
    <path class="cls-3" d="M1199.99,788.57c-.59,2.12-2.8,3.38-4.93,2.8l-34.69-9.52c-2.12-.58-3.38-2.79-2.79-4.91l6.94-25.05c.59-2.12,2.8-3.38,4.93-2.8l34.69,9.52c2.12.58,3.38,2.79,2.79,4.91l-6.94,25.05Z"/>
    <g>
      <path class="cls-1" d="M1179.99,773.33c0,1.16-.18,2.19-.53,3.11-.39,1.05-.99,1.84-1.79,2.38s-1.8.81-3,.81c-1.36,0-2.5-.36-3.42-1.08-.91-.72-1.49-1.68-1.74-2.9-.11-.56-.19-1.24-.22-2.04,0-.19.09-.28.28-.28h2.13c.19,0,.28.09.28.28.04.62.09,1.12.17,1.51.15.69.44,1.23.87,1.61.43.38.98.57,1.65.57.62,0,1.13-.16,1.54-.49.41-.33.71-.81.9-1.44.17-.62.25-1.36.25-2.24,0-1.01-.12-1.84-.36-2.49-.21-.58-.5-1.02-.9-1.32-.39-.3-.88-.45-1.46-.45-.28,0-.58.08-.9.25-.07.04-.13.06-.17.06-.07,0-.15-.04-.22-.11l-1.09-1.18c-.06-.06-.08-.12-.08-.2s.03-.14.08-.2l4.26-5.24s.05-.07.03-.1c-.02-.03-.05-.04-.08-.04h-6.66c-.19,0-.28-.09-.28-.28v-1.76c0-.19.09-.28.28-.28h9.83c.19,0,.28.09.28.28v1.85c0,.13-.04.24-.11.34l-3.95,4.96s-.05.07-.03.1.05.04.08.04c.84.07,1.56.34,2.16.8.6.46,1.05,1.08,1.37,1.86.37.91.56,2.02.56,3.3Z"/>
      <path class="cls-1" d="M1184.43,778.18c-1.02-1.01-1.53-2.36-1.53-4.06v-9.02c0-1.68.51-3.02,1.53-4.03,1.02-1.01,2.38-1.51,4.07-1.51s3.06.5,4.09,1.51c1.03,1.01,1.54,2.35,1.54,4.03v9.02c0,1.7-.51,3.05-1.54,4.06-1.03,1.01-2.39,1.51-4.09,1.51s-3.06-.5-4.07-1.51ZM1190.63,776.51c.54-.57.81-1.32.81-2.25v-9.27c0-.93-.27-1.68-.81-2.25-.54-.57-1.25-.85-2.13-.85s-1.58.28-2.11.85c-.53.57-.8,1.32-.8,2.25v9.27c0,.93.27,1.68.8,2.25.53.57,1.24.85,2.11.85s1.59-.28,2.13-.85Z"/>
    </g>
  </g>
  <g id="wv_hall_1G_31" data-name="1G/31" class="ds-stand">
    <path class="cls-3" d="M1189.39,827.15c-.59,2.12-2.8,3.38-4.93,2.8l-34.69-9.52c-2.12-.58-3.38-2.79-2.79-4.91l6.94-25.05c.59-2.12,2.8-3.38,4.93-2.8l34.69,9.52c2.12.58,3.38,2.79,2.79,4.91l-6.94,25.05Z"/>
    <g>
      <path class="cls-1" d="M1173.11,812.72c0,1.16-.18,2.19-.53,3.11-.39,1.05-.99,1.84-1.79,2.38s-1.8.81-3,.81c-1.36,0-2.5-.36-3.42-1.08-.92-.72-1.49-1.68-1.74-2.9-.11-.56-.19-1.24-.22-2.04,0-.19.09-.28.28-.28h2.13c.19,0,.28.09.28.28.04.62.09,1.12.17,1.51.15.69.44,1.23.87,1.61.43.38.98.57,1.65.57.62,0,1.13-.16,1.54-.49s.71-.81.9-1.44c.17-.62.25-1.36.25-2.24,0-1.01-.12-1.84-.36-2.49-.21-.58-.5-1.02-.9-1.32-.39-.3-.88-.45-1.46-.45-.28,0-.58.08-.9.25-.08.04-.13.06-.17.06-.08,0-.15-.04-.22-.11l-1.09-1.18c-.06-.06-.08-.12-.08-.2s.03-.14.08-.2l4.26-5.24s.05-.07.03-.1c-.02-.03-.05-.04-.08-.04h-6.66c-.19,0-.28-.09-.28-.28v-1.76c0-.19.09-.28.28-.28h9.83c.19,0,.28.09.28.28v1.85c0,.13-.04.24-.11.34l-3.95,4.96s-.05.07-.03.1.05.04.08.04c.84.07,1.56.34,2.16.8.6.46,1.05,1.08,1.37,1.86.37.91.56,2.02.56,3.3Z"/>
      <path class="cls-1" d="M1178.34,799.2h2.21c.19,0,.28.09.28.28v19.04c0,.19-.09.28-.28.28h-2.13c-.19,0-.28-.09-.28-.28v-16.41s-.01-.07-.04-.1c-.03-.03-.06-.03-.1-.01l-2.72.87-.11.03c-.11,0-.19-.08-.22-.25l-.11-1.6c0-.15.07-.26.2-.34l2.94-1.43c.11-.06.23-.08.36-.08Z"/>
    </g>
  </g>
  <g id="wv_hall_1G_32" data-name="1G/32" class="ds-stand">
    <path class="cls-3" d="M1169.85,879.11c-.82,2.04-3.16,3.05-5.2,2.23l-33.42-13.31c-2.04-.81-3.05-3.15-2.23-5.19l9.67-24.13c.82-2.04,3.16-3.05,5.2-2.23l33.42,13.31c2.04.81,3.05,3.15,2.23,5.19l-9.67,24.13Z"/>
    <g>
      <path class="cls-1" d="M1153.45,862.72c0,1.16-.18,2.19-.53,3.11-.39,1.05-.99,1.84-1.79,2.38-.8.54-1.8.81-3,.81-1.36,0-2.5-.36-3.42-1.08-.92-.72-1.49-1.68-1.74-2.9-.11-.56-.19-1.24-.22-2.04,0-.19.09-.28.28-.28h2.13c.19,0,.28.09.28.28.04.62.09,1.12.17,1.51.15.69.44,1.23.87,1.61.43.38.98.57,1.65.57.62,0,1.13-.16,1.54-.49.41-.33.71-.81.9-1.44.17-.62.25-1.36.25-2.24,0-1.01-.12-1.84-.36-2.49-.21-.58-.5-1.02-.9-1.32-.39-.3-.88-.45-1.46-.45-.28,0-.58.08-.9.25-.08.04-.13.06-.17.06-.07,0-.15-.04-.22-.11l-1.09-1.18c-.06-.06-.08-.12-.08-.2s.03-.14.08-.2l4.26-5.24s.05-.07.03-.1c-.02-.03-.05-.04-.08-.04h-6.66c-.19,0-.28-.09-.28-.28v-1.76c0-.19.09-.28.28-.28h9.83c.19,0,.28.09.28.28v1.85c0,.13-.04.24-.11.34l-3.95,4.96s-.05.07-.03.1.05.04.08.04c.84.07,1.56.34,2.16.8.6.46,1.05,1.08,1.37,1.86.37.91.56,2.02.56,3.3Z"/>
      <path class="cls-1" d="M1159.55,866.48h7.42c.19,0,.28.09.28.28v1.76c0,.19-.09.28-.28.28h-10.56c-.19,0-.28-.09-.28-.28v-1.79c0-.13.04-.24.11-.34,2.41-3.1,4.28-5.59,5.63-7.48,1.44-2,2.16-3.59,2.16-4.79,0-.86-.24-1.54-.73-2.06-.49-.51-1.13-.77-1.93-.77s-1.41.26-1.89.77c-.48.51-.71,1.19-.69,2.03v.98c0,.19-.09.28-.28.28h-2.16c-.19,0-.28-.09-.28-.28v-1.2c.04-1.47.56-2.66,1.55-3.56,1-.9,2.26-1.34,3.79-1.34,1.06,0,2,.22,2.8.66.8.44,1.42,1.05,1.86,1.83s.66,1.67.66,2.66c0,1.66-.75,3.55-2.24,5.66-.86,1.21-2.26,3.05-4.2,5.52l-.81,1.04c-.06.09-.04.14.06.14Z"/>
    </g>
  </g>
  <g id="wv_hall_1G_33" data-name="1G/33" class="ds-stand">
    <path class="cls-3" d="M1141.95,928.95c-1.18,1.86-3.66,2.42-5.52,1.25l-30.43-19.19c-1.86-1.17-2.42-3.65-1.24-5.51l13.91-21.96c1.18-1.86,3.66-2.42,5.52-1.25l30.43,19.19c1.86,1.17,2.42,3.65,1.24,5.51l-13.91,21.96Z"/>
    <g>
      <path class="cls-1" d="M1128.57,910.72c0,1.16-.18,2.19-.53,3.11-.39,1.05-.99,1.84-1.79,2.38s-1.8.81-3,.81c-1.36,0-2.5-.36-3.42-1.08-.91-.72-1.49-1.68-1.74-2.9-.11-.56-.19-1.24-.22-2.04,0-.19.09-.28.28-.28h2.13c.19,0,.28.09.28.28.04.62.09,1.12.17,1.51.15.69.44,1.23.87,1.61.43.38.98.57,1.65.57.62,0,1.13-.16,1.54-.49.41-.33.71-.81.9-1.44.17-.62.25-1.36.25-2.24,0-1.01-.12-1.84-.36-2.49-.21-.58-.5-1.02-.9-1.32-.39-.3-.88-.45-1.46-.45-.28,0-.58.08-.9.25-.07.04-.13.06-.17.06-.07,0-.15-.04-.22-.11l-1.09-1.18c-.06-.06-.08-.12-.08-.2s.03-.14.08-.2l4.26-5.24s.05-.07.03-.1c-.02-.03-.05-.04-.08-.04h-6.66c-.19,0-.28-.09-.28-.28v-1.76c0-.19.09-.28.28-.28h9.83c.19,0,.28.09.28.28v1.85c0,.13-.04.24-.11.34l-3.95,4.96s-.05.07-.03.1.05.04.08.04c.84.07,1.56.34,2.16.8.6.46,1.05,1.08,1.37,1.86.37.91.56,2.02.56,3.3Z"/>
      <path class="cls-1" d="M1141.76,910.72c0,1.16-.18,2.19-.53,3.11-.39,1.05-.99,1.84-1.79,2.38-.8.54-1.8.81-3,.81-1.36,0-2.5-.36-3.42-1.08-.92-.72-1.49-1.68-1.74-2.9-.11-.56-.19-1.24-.22-2.04,0-.19.09-.28.28-.28h2.13c.19,0,.28.09.28.28.04.62.09,1.12.17,1.51.15.69.44,1.23.87,1.61.43.38.98.57,1.65.57.62,0,1.13-.16,1.54-.49.41-.33.71-.81.9-1.44.17-.62.25-1.36.25-2.24,0-1.01-.12-1.84-.36-2.49-.21-.58-.5-1.02-.9-1.32-.39-.3-.88-.45-1.46-.45-.28,0-.58.08-.9.25-.08.04-.13.06-.17.06-.07,0-.15-.04-.22-.11l-1.09-1.18c-.06-.06-.08-.12-.08-.2s.03-.14.08-.2l4.26-5.24s.05-.07.03-.1c-.02-.03-.05-.04-.08-.04h-6.66c-.19,0-.28-.09-.28-.28v-1.76c0-.19.09-.28.28-.28h9.83c.19,0,.28.09.28.28v1.85c0,.13-.04.24-.11.34l-3.95,4.96s-.05.07-.03.1.05.04.08.04c.84.07,1.56.34,2.16.8.6.46,1.05,1.08,1.37,1.86.37.91.56,2.02.56,3.3Z"/>
    </g>
  </g>
  <g id="wv_hall_1G_34" data-name="1G/34" class="ds-stand">
    <path class="cls-3" d="M1120.61,962.79c-1.18,1.86-3.66,2.42-5.52,1.25l-30.43-19.19c-1.86-1.17-2.42-3.65-1.24-5.51l13.91-21.96c1.18-1.86,3.66-2.42,5.52-1.25l30.43,19.19c1.86,1.17,2.42,3.65,1.24,5.51l-13.91,21.96Z"/>
    <g>
      <path class="cls-1" d="M1107.1,942.72c0,1.16-.18,2.19-.53,3.11-.39,1.05-.99,1.84-1.79,2.38-.8.54-1.8.81-3,.81-1.36,0-2.5-.36-3.42-1.08-.92-.72-1.49-1.68-1.74-2.9-.11-.56-.19-1.24-.22-2.04,0-.19.09-.28.28-.28h2.13c.19,0,.28.09.28.28.04.62.09,1.12.17,1.51.15.69.44,1.23.87,1.61.43.38.98.57,1.65.57.62,0,1.13-.16,1.54-.49.41-.33.71-.81.9-1.44.17-.62.25-1.36.25-2.24,0-1.01-.12-1.84-.36-2.49-.21-.58-.5-1.02-.9-1.32-.39-.3-.88-.45-1.46-.45-.28,0-.58.08-.9.25-.08.04-.13.06-.17.06-.08,0-.15-.04-.22-.11l-1.09-1.18c-.06-.06-.08-.12-.08-.2s.03-.14.08-.2l4.26-5.24s.05-.07.03-.1c-.02-.03-.05-.04-.08-.04h-6.66c-.19,0-.28-.09-.28-.28v-1.76c0-.19.09-.28.28-.28h9.83c.19,0,.28.09.28.28v1.85c0,.13-.04.24-.11.34l-3.95,4.96s-.05.07-.03.1c.02.03.05.04.08.04.84.07,1.56.34,2.16.8.6.46,1.05,1.08,1.37,1.86.37.91.56,2.02.56,3.3Z"/>
      <path class="cls-1" d="M1121.6,941.41v1.88c0,.19-.09.28-.28.28h-1.04c-.08,0-.11.04-.11.11v4.84c0,.19-.09.28-.28.28h-2.13c-.19,0-.28-.09-.28-.28v-4.84c0-.07-.04-.11-.11-.11h-7.7c-.19,0-.28-.09-.28-.28v-1.54c0-.13.02-.24.06-.34l4.79-11.98c.06-.15.16-.22.31-.22h2.3c.09,0,.16.03.2.1.04.07.04.14,0,.24l-4.51,11.45s-.02.07,0,.1c.02.03.05.04.08.04h4.76c.07,0,.11-.04.11-.11v-3.98c0-.19.09-.28.28-.28h2.13c.19,0,.28.09.28.28v3.98c0,.08.04.11.11.11h1.04c.19,0,.28.09.28.28Z"/>
    </g>
  </g>
  <g id="wv_hall_1G_35" data-name="1G/35" class="ds-stand">
    <path class="cls-3" d="M1099.28,996.62c-1.18,1.86-3.66,2.42-5.52,1.25l-30.43-19.19c-1.86-1.17-2.42-3.65-1.24-5.51l13.91-21.96c1.18-1.86,3.66-2.42,5.52-1.25l30.43,19.19c1.86,1.17,2.42,3.65,1.24,5.51l-13.91,21.96Z"/>
    <g>
      <path class="cls-1" d="M1086.57,977.72c0,1.16-.18,2.19-.53,3.11-.39,1.05-.99,1.84-1.79,2.38s-1.8.81-3,.81c-1.36,0-2.5-.36-3.42-1.08-.91-.72-1.49-1.68-1.74-2.9-.11-.56-.19-1.24-.22-2.04,0-.19.09-.28.28-.28h2.13c.19,0,.28.09.28.28.04.62.09,1.12.17,1.51.15.69.44,1.23.87,1.61.43.38.98.57,1.65.57.62,0,1.13-.16,1.54-.49.41-.33.71-.81.9-1.44.17-.62.25-1.36.25-2.24,0-1.01-.12-1.84-.36-2.49-.21-.58-.5-1.02-.9-1.32-.39-.3-.88-.45-1.46-.45-.28,0-.58.08-.9.25-.07.04-.13.06-.17.06-.07,0-.15-.04-.22-.11l-1.09-1.18c-.06-.06-.08-.12-.08-.2s.03-.14.08-.2l4.26-5.24s.05-.07.03-.1c-.02-.03-.05-.04-.08-.04h-6.66c-.19,0-.28-.09-.28-.28v-1.76c0-.19.09-.28.28-.28h9.83c.19,0,.28.09.28.28v1.85c0,.13-.04.24-.11.34l-3.95,4.96s-.05.07-.03.1.05.04.08.04c.84.07,1.56.34,2.16.8.6.46,1.05,1.08,1.37,1.86.37.91.56,2.02.56,3.3Z"/>
      <path class="cls-1" d="M1100.12,977.72c0,.97-.08,1.79-.25,2.46-.32,1.23-.92,2.18-1.81,2.84s-1.99.99-3.32.99-2.43-.35-3.32-1.04c-.89-.69-1.48-1.66-1.78-2.91-.11-.48-.18-.86-.2-1.12v-.06c0-.15.08-.22.25-.22h2.16c.19,0,.29.09.31.28.04.3.07.5.11.59.15.69.44,1.22.87,1.58.43.36.96.55,1.6.55s1.17-.19,1.61-.56c.44-.37.73-.91.88-1.6.11-.43.17-1.02.17-1.76s-.07-1.38-.2-1.96c-.15-.63-.44-1.12-.87-1.44-.43-.33-.96-.49-1.6-.49s-1.14.14-1.58.42-.75.7-.94,1.26c-.04.15-.14.22-.31.22h-2.18c-.19,0-.28-.09-.28-.28v-11c0-.19.09-.28.28-.28h9.55c.19,0,.28.09.28.28v1.76c0,.19-.09.28-.28.28h-7.03c-.07,0-.11.04-.11.11l-.03,5.96c0,.09.05.11.14.06.37-.37.83-.66,1.36-.85.53-.2,1.1-.29,1.69-.29,1.1,0,2.03.27,2.8.8.76.53,1.3,1.3,1.6,2.31.28.92.42,1.95.42,3.11Z"/>
    </g>
  </g>
  <g id="wv_hall_1G_36" data-name="1G/36" class="ds-stand">
    <path class="cls-3" d="M1060.21,1040.52c-1.54,1.57-4.09,1.6-5.66.06l-25.75-25.12c-1.57-1.54-1.6-4.08-.06-5.65l18.19-18.57c1.54-1.57,4.09-1.6,5.66-.06l25.75,25.12c1.57,1.54,1.6,4.08.06,5.65l-18.19,18.57Z"/>
    <g>
      <path class="cls-1" d="M1051.56,1019.72c0,1.16-.18,2.19-.53,3.11-.39,1.05-.99,1.84-1.79,2.38s-1.8.81-3,.81c-1.36,0-2.5-.36-3.42-1.08-.92-.72-1.49-1.68-1.74-2.9-.11-.56-.19-1.24-.22-2.04,0-.19.09-.28.28-.28h2.13c.19,0,.28.09.28.28.04.62.09,1.12.17,1.51.15.69.44,1.23.87,1.61.43.38.98.57,1.65.57.62,0,1.13-.16,1.54-.49.41-.33.71-.81.9-1.44.17-.62.25-1.36.25-2.24,0-1.01-.12-1.84-.36-2.49-.21-.58-.5-1.02-.9-1.32-.39-.3-.88-.45-1.46-.45-.28,0-.58.08-.9.25-.08.04-.13.06-.17.06-.08,0-.15-.04-.22-.11l-1.09-1.18c-.06-.06-.08-.12-.08-.2s.03-.14.08-.2l4.26-5.24s.05-.07.03-.1c-.02-.03-.05-.04-.08-.04h-6.66c-.19,0-.28-.09-.28-.28v-1.76c0-.19.09-.28.28-.28h9.83c.19,0,.28.09.28.28v1.85c0,.13-.04.24-.11.34l-3.95,4.96s-.05.07-.03.1c.02.03.05.04.08.04.84.07,1.56.34,2.16.8.6.46,1.05,1.08,1.37,1.86.37.91.56,2.02.56,3.3Z"/>
      <path class="cls-1" d="M1065.14,1019.72c0,.95-.1,1.79-.31,2.52-.32,1.21-.91,2.15-1.76,2.8-.86.65-1.95.98-3.28.98-1.21,0-2.24-.29-3.08-.88-.84-.59-1.43-1.43-1.76-2.53-.34-.75-.5-1.68-.5-2.8l-.03-8.88c0-1.49.49-2.69,1.46-3.6s2.25-1.36,3.84-1.36c1.49,0,2.71.45,3.65,1.34.94.9,1.41,2.07,1.41,3.53v.59c0,.19-.09.28-.28.28h-2.13c-.19,0-.28-.09-.28-.28v-.39c0-.78-.23-1.43-.69-1.95-.46-.51-1.03-.77-1.72-.77-.75,0-1.36.26-1.83.77-.48.51-.71,1.19-.71,2.03v3.53s.01.07.04.08c.03.02.06,0,.1-.03.73-.84,1.7-1.26,2.91-1.26,1.14,0,2.09.3,2.84.9.76.6,1.31,1.42,1.67,2.46.3.84.45,1.81.45,2.91ZM1062.42,1019.67c0-.88-.09-1.59-.28-2.13-.17-.58-.46-1.03-.87-1.36-.41-.33-.92-.49-1.51-.49s-1.12.16-1.53.49c-.4.33-.69.79-.85,1.39-.17.52-.25,1.23-.25,2.13,0,.77.07,1.41.2,1.93.15.63.43,1.13.85,1.5.42.36.95.55,1.58.55s1.16-.18,1.58-.55c.42-.36.71-.89.88-1.58.13-.5.2-1.13.2-1.88Z"/>
    </g>
  </g>
  <g id="wv_hall_1G_37" data-name="1G/37" class="ds-stand">
    <path class="cls-3" d="M1032.27,1069.14c-1.54,1.57-4.09,1.6-5.66.06l-25.75-25.12c-1.57-1.54-1.6-4.08-.06-5.65l18.19-18.57c1.54-1.57,4.09-1.6,5.66-.06l25.75,25.12c1.57,1.54,1.6,4.08.06,5.65l-18.19,18.57Z"/>
    <g>
      <path class="cls-1" d="M1025.13,1049.72c0,1.16-.18,2.19-.53,3.11-.39,1.05-.99,1.84-1.79,2.38-.8.54-1.8.81-3,.81-1.36,0-2.5-.36-3.42-1.08-.92-.72-1.49-1.68-1.74-2.9-.11-.56-.19-1.24-.22-2.04,0-.19.09-.28.28-.28h2.13c.19,0,.28.09.28.28.04.62.09,1.12.17,1.51.15.69.44,1.23.87,1.61.43.38.98.57,1.65.57.62,0,1.13-.16,1.54-.49.41-.33.71-.81.9-1.44.17-.62.25-1.36.25-2.24,0-1.01-.12-1.84-.36-2.49-.21-.58-.5-1.02-.9-1.32-.39-.3-.88-.45-1.46-.45-.28,0-.58.08-.9.25-.08.04-.13.06-.17.06-.07,0-.15-.04-.22-.11l-1.09-1.18c-.06-.06-.08-.12-.08-.2s.03-.14.08-.2l4.26-5.24s.05-.07.03-.1c-.02-.03-.05-.04-.08-.04h-6.66c-.19,0-.28-.09-.28-.28v-1.76c0-.19.09-.28.28-.28h9.83c.19,0,.28.09.28.28v1.85c0,.13-.04.24-.11.34l-3.95,4.96s-.05.07-.03.1.05.04.08.04c.84.07,1.56.34,2.16.8.6.46,1.05,1.08,1.37,1.86.37.91.56,2.02.56,3.3Z"/>
      <path class="cls-1" d="M1029.75,1055.49l5.54-16.83s.01-.07-.01-.1c-.03-.03-.06-.04-.1-.04h-5.6c-.08,0-.11.04-.11.11v1.2c0,.19-.09.28-.28.28h-1.65c-.19,0-.28-.09-.28-.28v-3.36c0-.19.09-.28.28-.28h10.33c.19,0,.28.09.28.28v1.88c0,.07-.02.19-.06.34l-5.52,16.88c-.06.15-.17.22-.34.22h-2.27c-.21,0-.28-.1-.22-.31Z"/>
    </g>
  </g>
  <g id="wv_hall_1G_38" data-name="1G/38" class="ds-stand">
    <path class="cls-3" d="M981.49,1109.55c-1.87,1.16-4.35.58-5.51-1.29l-18.99-30.55c-1.16-1.87-.58-4.34,1.29-5.5l22.11-13.68c1.87-1.16,4.35-.58,5.51,1.29l18.99,30.55c1.16,1.87.58,4.34-1.29,5.5l-22.11,13.68Z"/>
    <g>
      <path class="cls-1" d="M979.47,1087.72c0,1.16-.18,2.19-.53,3.11-.39,1.05-.99,1.84-1.79,2.38-.8.54-1.8.81-3,.81-1.36,0-2.5-.36-3.42-1.08-.92-.72-1.49-1.68-1.74-2.9-.11-.56-.19-1.24-.22-2.04,0-.19.09-.28.28-.28h2.13c.19,0,.28.09.28.28.04.62.09,1.12.17,1.51.15.69.44,1.23.87,1.61.43.38.98.57,1.65.57.62,0,1.13-.16,1.54-.49.41-.33.71-.81.9-1.44.17-.62.25-1.36.25-2.24,0-1.01-.12-1.84-.36-2.49-.21-.58-.5-1.02-.9-1.32-.39-.3-.88-.45-1.46-.45-.28,0-.58.08-.9.25-.08.04-.13.06-.17.06-.08,0-.15-.04-.22-.11l-1.09-1.18c-.06-.06-.08-.12-.08-.2s.03-.14.08-.2l4.26-5.24s.05-.07.03-.1c-.02-.03-.05-.04-.08-.04h-6.66c-.19,0-.28-.09-.28-.28v-1.76c0-.19.09-.28.28-.28h9.83c.19,0,.28.09.28.28v1.85c0,.13-.04.24-.11.34l-3.95,4.96s-.05.07-.03.1.05.04.08.04c.84.07,1.56.34,2.16.8.6.46,1.05,1.08,1.37,1.86.37.91.56,2.02.56,3.3Z"/>
      <path class="cls-1" d="M992.91,1088.26c0,1.16-.21,2.15-.62,2.97-.41.88-1.02,1.56-1.83,2.06-.81.5-1.77.74-2.87.74s-2.06-.25-2.88-.76c-.82-.5-1.44-1.21-1.85-2.13-.41-.88-.62-1.85-.62-2.91s.18-1.95.53-2.77c.37-.88.98-1.52,1.82-1.93.09-.06.09-.11,0-.17-.65-.39-1.16-.91-1.51-1.54-.47-.77-.7-1.67-.7-2.72s.21-1.92.64-2.69c.43-.78,1.05-1.4,1.85-1.85.8-.45,1.71-.67,2.72-.67s1.96.22,2.74.66c.78.44,1.38,1.06,1.79,1.86.45.8.67,1.7.67,2.69s-.23,1.91-.7,2.72c-.35.63-.86,1.15-1.51,1.54-.09.06-.1.1-.03.14.84.41,1.45,1.06,1.82,1.96.35.77.53,1.7.53,2.8ZM990.25,1088.09c0-.75-.1-1.38-.31-1.9-.19-.54-.48-.96-.88-1.26-.4-.3-.89-.45-1.47-.45-1.18,0-1.96.55-2.35,1.65-.21.5-.31,1.16-.31,1.96s.13,1.52.39,2.04c.41,1.05,1.17,1.57,2.27,1.57s1.83-.51,2.24-1.54c.28-.56.42-1.25.42-2.07ZM985.05,1079.3c0,.67.13,1.25.39,1.74.21.43.49.77.87,1.01.37.24.8.36,1.29.36s.94-.13,1.32-.38c.37-.25.66-.6.87-1.05.24-.47.36-1.04.36-1.71,0-.58-.11-1.09-.34-1.54-.19-.47-.47-.84-.85-1.11-.38-.27-.84-.41-1.39-.41-.5,0-.95.14-1.34.42-.39.28-.68.65-.87,1.12-.21.5-.31,1.02-.31,1.54Z"/>
    </g>
  </g>
  <g id="wv_hall_1G_39" data-name="1G/39" class="ds-stand">
    <path class="cls-3" d="M947.52,1130.67c-1.87,1.16-4.35.58-5.51-1.29l-18.99-30.55c-1.16-1.87-.58-4.34,1.29-5.5l22.11-13.68c1.87-1.16,4.35-.58,5.51,1.29l18.99,30.55c1.16,1.87.58,4.34-1.29,5.5l-22.11,13.68Z"/>
    <g>
      <path class="cls-1" d="M945.68,1109.72c0,1.16-.18,2.19-.53,3.11-.39,1.05-.99,1.84-1.79,2.38-.8.54-1.8.81-3,.81-1.36,0-2.5-.36-3.42-1.08-.92-.72-1.49-1.68-1.74-2.9-.11-.56-.19-1.24-.22-2.04,0-.19.09-.28.28-.28h2.13c.19,0,.28.09.28.28.04.62.09,1.12.17,1.51.15.69.44,1.23.87,1.61.43.38.98.57,1.65.57.62,0,1.13-.16,1.54-.49.41-.33.71-.81.9-1.44.17-.62.25-1.36.25-2.24,0-1.01-.12-1.84-.36-2.49-.21-.58-.5-1.02-.9-1.32-.39-.3-.88-.45-1.46-.45-.28,0-.58.08-.9.25-.08.04-.13.06-.17.06-.07,0-.15-.04-.22-.11l-1.09-1.18c-.06-.06-.08-.12-.08-.2s.03-.14.08-.2l4.26-5.24s.05-.07.03-.1c-.02-.03-.05-.04-.08-.04h-6.66c-.19,0-.28-.09-.28-.28v-1.76c0-.19.09-.28.28-.28h9.83c.19,0,.28.09.28.28v1.85c0,.13-.04.24-.11.34l-3.95,4.96s-.05.07-.03.1.05.04.08.04c.84.07,1.56.34,2.16.8.6.46,1.05,1.08,1.37,1.86.37.91.56,2.02.56,3.3Z"/>
      <path class="cls-1" d="M958.65,1102.19v8.88c0,1.51-.49,2.72-1.46,3.61s-2.24,1.34-3.81,1.34-2.74-.45-3.67-1.34c-.93-.9-1.4-2.07-1.4-3.53v-.59c0-.19.09-.28.28-.28h2.13c.19,0,.28.09.28.28v.39c0,.8.22,1.46.67,1.96.45.5,1.02.76,1.71.76.76,0,1.39-.26,1.86-.77.48-.51.71-1.19.71-2.03v-3.56s-.01-.07-.04-.08c-.03-.02-.06,0-.1.03-.73.86-1.7,1.29-2.91,1.29-1.14,0-2.09-.3-2.86-.9-.77-.6-1.32-1.42-1.65-2.46-.3-.77-.45-1.74-.45-2.91,0-1.05.1-1.89.31-2.52.3-1.21.88-2.15,1.74-2.8.86-.65,1.95-.98,3.28-.98,1.21,0,2.24.29,3.08.88s1.43,1.43,1.76,2.53c.36.78.53,1.72.53,2.8ZM954.83,1105.82c.4-.33.69-.79.85-1.39.19-.58.28-1.29.28-2.13,0-.77-.07-1.41-.2-1.93-.17-.65-.46-1.16-.88-1.51-.42-.35-.95-.53-1.58-.53s-1.14.18-1.57.55c-.43.36-.73.89-.9,1.58-.13.62-.2,1.24-.2,1.88,0,.8.09,1.51.28,2.13.39,1.23,1.19,1.85,2.38,1.85.62,0,1.12-.16,1.53-.49Z"/>
    </g>
  </g>
  <g id="wv_hall_1G_40" data-name="1G/40" class="ds-stand">
    <path class="cls-3" d="M913.55,1151.78c-1.87,1.16-4.35.58-5.51-1.29l-18.99-30.55c-1.16-1.87-.58-4.34,1.29-5.5l22.11-13.68c1.87-1.16,4.35-.58,5.51,1.29l18.99,30.55c1.16,1.87.58,4.34-1.29,5.5l-22.11,13.68Z"/>
    <g>
      <path class="cls-1" d="M911.91,1128.41v1.88c0,.19-.09.28-.28.28h-1.04c-.07,0-.11.04-.11.11v4.84c0,.19-.09.28-.28.28h-2.13c-.19,0-.28-.09-.28-.28v-4.84c0-.07-.04-.11-.11-.11h-7.7c-.19,0-.28-.09-.28-.28v-1.54c0-.13.02-.24.06-.34l4.79-11.98c.06-.15.16-.22.31-.22h2.3c.09,0,.16.03.2.1s.04.14,0,.24l-4.51,11.45s-.02.07,0,.1c.02.03.05.04.08.04h4.76c.08,0,.11-.04.11-.11v-3.98c0-.19.09-.28.28-.28h2.13c.19,0,.28.09.28.28v3.98c0,.08.04.11.11.11h1.04c.19,0,.28.09.28.28Z"/>
      <path class="cls-1" d="M915.98,1134.57c-1.02-1.01-1.53-2.36-1.53-4.06v-9.02c0-1.68.51-3.02,1.53-4.03,1.02-1.01,2.38-1.51,4.07-1.51s3.06.5,4.09,1.51c1.03,1.01,1.54,2.35,1.54,4.03v9.02c0,1.7-.51,3.05-1.54,4.06-1.03,1.01-2.39,1.51-4.09,1.51s-3.06-.5-4.07-1.51ZM922.18,1132.9c.54-.57.81-1.32.81-2.25v-9.27c0-.93-.27-1.68-.81-2.25s-1.25-.85-2.13-.85-1.58.28-2.11.85c-.53.57-.8,1.32-.8,2.25v9.27c0,.93.27,1.68.8,2.25.53.57,1.24.85,2.11.85s1.59-.28,2.13-.85Z"/>
    </g>
  </g>
  <g id="wv_hall_1G_41" data-name="1G/41" class="ds-stand">
    <path class="cls-3" d="M879.57,1172.9c-1.87,1.16-4.35.58-5.51-1.29l-18.99-30.55c-1.16-1.87-.58-4.34,1.29-5.5l22.11-13.68c1.87-1.16,4.35-.58,5.51,1.29l18.99,30.55c1.16,1.87.58,4.34-1.29,5.5l-22.11,13.68Z"/>
    <g>
      <path class="cls-1" d="M881.67,1150.41v1.88c0,.19-.09.28-.28.28h-1.04c-.08,0-.11.04-.11.11v4.84c0,.19-.09.28-.28.28h-2.13c-.19,0-.28-.09-.28-.28v-4.84c0-.07-.04-.11-.11-.11h-7.7c-.19,0-.28-.09-.28-.28v-1.54c0-.13.02-.24.06-.34l4.79-11.98c.06-.15.16-.22.31-.22h2.3c.09,0,.16.03.2.1.04.07.04.14,0,.24l-4.51,11.45s-.02.07,0,.1c.02.03.05.04.08.04h4.76c.07,0,.11-.04.11-.11v-3.98c0-.19.09-.28.28-.28h2.13c.19,0,.28.09.28.28v3.98c0,.08.04.11.11.11h1.04c.19,0,.28.09.28.28Z"/>
      <path class="cls-1" d="M885.09,1138.2h2.21c.19,0,.28.09.28.28v19.04c0,.19-.09.28-.28.28h-2.13c-.19,0-.28-.09-.28-.28v-16.41s-.01-.07-.04-.1c-.03-.03-.06-.03-.1-.01l-2.72.87-.11.03c-.11,0-.19-.08-.22-.25l-.11-1.6c0-.15.07-.26.2-.34l2.94-1.43c.11-.06.23-.08.36-.08Z"/>
    </g>
  </g>
  <g id="wv_hall_1G_42" data-name="1G/42" class="ds-stand">
    <path class="cls-3" d="M807.81,1195.59c-2.14.5-4.31-.85-4.81-2.99l-8.19-35.03c-.5-2.14.84-4.3,2.99-4.8l25.32-5.87c2.14-.5,4.31.85,4.81,2.99l8.19,35.03c.5,2.14-.84,4.3-2.99,4.8l-25.32,5.87Z"/>
    <g>
      <path class="cls-1" d="M814.29,1173.41v1.88c0,.19-.09.28-.28.28h-1.04c-.08,0-.11.04-.11.11v4.84c0,.19-.09.28-.28.28h-2.13c-.19,0-.28-.09-.28-.28v-4.84c0-.07-.04-.11-.11-.11h-7.7c-.19,0-.28-.09-.28-.28v-1.54c0-.13.02-.24.06-.34l4.79-11.98c.06-.15.16-.22.31-.22h2.3c.09,0,.16.03.2.1.04.07.04.14,0,.24l-4.51,11.45s-.02.07,0,.1c.02.03.05.04.08.04h4.76c.07,0,.11-.04.11-.11v-3.98c0-.19.09-.28.28-.28h2.13c.19,0,.28.09.28.28v3.98c0,.08.04.11.11.11h1.04c.19,0,.28.09.28.28Z"/>
      <path class="cls-1" d="M820.03,1178.48h7.42c.19,0,.28.09.28.28v1.76c0,.19-.09.28-.28.28h-10.56c-.19,0-.28-.09-.28-.28v-1.79c0-.13.04-.24.11-.34,2.41-3.1,4.28-5.59,5.63-7.48,1.44-2,2.16-3.59,2.16-4.79,0-.86-.24-1.54-.73-2.06-.49-.51-1.13-.77-1.93-.77s-1.41.26-1.89.77c-.48.51-.71,1.19-.69,2.03v.98c0,.19-.09.28-.28.28h-2.16c-.19,0-.28-.09-.28-.28v-1.2c.04-1.47.56-2.66,1.55-3.56,1-.9,2.26-1.34,3.79-1.34,1.06,0,2,.22,2.8.66.8.44,1.42,1.05,1.86,1.83.44.78.66,1.67.66,2.66,0,1.66-.75,3.55-2.24,5.66-.86,1.21-2.26,3.05-4.2,5.52l-.81,1.04c-.06.09-.04.14.06.14Z"/>
    </g>
  </g>
  <g id="wv_hall_1G_43" data-name="1G/43" class="ds-stand">
    <path class="cls-3" d="M768.85,1204.69c-2.14.5-4.31-.85-4.81-2.99l-8.19-35.03c-.5-2.14.84-4.3,2.99-4.8l25.32-5.87c2.14-.5,4.31.85,4.81,2.99l8.19,35.03c.5,2.14-.84,4.3-2.99,4.8l-25.32,5.87Z"/>
    <g>
      <path class="cls-1" d="M775.41,1183.41v1.88c0,.19-.09.28-.28.28h-1.04c-.07,0-.11.04-.11.11v4.84c0,.19-.09.28-.28.28h-2.13c-.19,0-.28-.09-.28-.28v-4.84c0-.07-.04-.11-.11-.11h-7.7c-.19,0-.28-.09-.28-.28v-1.54c0-.13.02-.24.06-.34l4.79-11.98c.06-.15.16-.22.31-.22h2.3c.09,0,.16.03.2.1s.04.14,0,.24l-4.51,11.45s-.02.07,0,.1c.02.03.05.04.08.04h4.76c.08,0,.11-.04.11-.11v-3.98c0-.19.09-.28.28-.28h2.13c.19,0,.28.09.28.28v3.98c0,.08.04.11.11.11h1.04c.19,0,.28.09.28.28Z"/>
      <path class="cls-1" d="M788.24,1184.72c0,1.16-.18,2.19-.53,3.11-.39,1.05-.99,1.84-1.79,2.38-.8.54-1.8.81-3,.81-1.36,0-2.5-.36-3.42-1.08-.92-.72-1.49-1.68-1.74-2.9-.11-.56-.19-1.24-.22-2.04,0-.19.09-.28.28-.28h2.13c.19,0,.28.09.28.28.04.62.09,1.12.17,1.51.15.69.44,1.23.87,1.61.43.38.98.57,1.65.57.62,0,1.13-.16,1.54-.49.41-.33.71-.81.9-1.44.17-.62.25-1.36.25-2.24,0-1.01-.12-1.84-.36-2.49-.21-.58-.5-1.02-.9-1.32-.39-.3-.88-.45-1.46-.45-.28,0-.58.08-.9.25-.08.04-.13.06-.17.06-.08,0-.15-.04-.22-.11l-1.09-1.18c-.06-.06-.08-.12-.08-.2s.03-.14.08-.2l4.26-5.24s.05-.07.03-.1c-.02-.03-.05-.04-.08-.04h-6.66c-.19,0-.28-.09-.28-.28v-1.76c0-.19.09-.28.28-.28h9.83c.19,0,.28.09.28.28v1.85c0,.13-.04.24-.11.34l-3.95,4.96s-.05.07-.03.1.05.04.08.04c.84.07,1.56.34,2.16.8.6.46,1.05,1.08,1.37,1.86.37.91.56,2.02.56,3.3Z"/>
    </g>
  </g>
  <g id="wv_hall_1G_44" data-name="1G/44" class="ds-stand">
    <path class="cls-3" d="M729.91,1213.79c-2.14.5-4.31-.85-4.81-2.99l-8.19-35.03c-.5-2.14.84-4.3,2.99-4.8l25.32-5.87c2.14-.5,4.31.85,4.81,2.99l8.19,35.03c.5,2.14-.84,4.3-2.99,4.8l-25.32,5.87Z"/>
    <g>
      <path class="cls-1" d="M736.94,1192.41v1.88c0,.19-.09.28-.28.28h-1.04c-.07,0-.11.04-.11.11v4.84c0,.19-.09.28-.28.28h-2.13c-.19,0-.28-.09-.28-.28v-4.84c0-.07-.04-.11-.11-.11h-7.7c-.19,0-.28-.09-.28-.28v-1.54c0-.13.02-.24.06-.34l4.79-11.98c.06-.15.16-.22.31-.22h2.29c.09,0,.16.03.2.1s.04.14,0,.24l-4.51,11.45s-.02.07,0,.1c.02.03.05.04.08.04h4.76c.08,0,.11-.04.11-.11v-3.98c0-.19.09-.28.28-.28h2.13c.19,0,.28.09.28.28v3.98c0,.08.04.11.11.11h1.04c.19,0,.28.09.28.28Z"/>
      <path class="cls-1" d="M751.08,1192.41v1.88c0,.19-.09.28-.28.28h-1.04c-.07,0-.11.04-.11.11v4.84c0,.19-.09.28-.28.28h-2.13c-.19,0-.28-.09-.28-.28v-4.84c0-.07-.04-.11-.11-.11h-7.7c-.19,0-.28-.09-.28-.28v-1.54c0-.13.02-.24.06-.34l4.79-11.98c.06-.15.16-.22.31-.22h2.3c.09,0,.16.03.2.1s.04.14,0,.24l-4.51,11.45s-.02.07,0,.1c.02.03.05.04.08.04h4.76c.07,0,.11-.04.11-.11v-3.98c0-.19.09-.28.28-.28h2.13c.19,0,.28.09.28.28v3.98c0,.08.04.11.11.11h1.04c.19,0,.28.09.28.28Z"/>
    </g>
  </g>
  <g id="wv_hall_1G_45" data-name="1G/45" class="ds-stand">
    <path class="cls-3" d="M677,1215.98c-2.2,0-4-1.81-4-4.01v-35.97c0-2.2,1.8-4,4-3.99l25.99.05c2.2,0,4,1.81,4,4.01v35.97c0,2.2-1.8,4-4,3.99l-25.99-.05Z"/>
    <g>
      <path class="cls-1" d="M689.41,1196.41v1.88c0,.19-.09.28-.28.28h-1.04c-.07,0-.11.04-.11.11v4.84c0,.19-.09.28-.28.28h-2.13c-.19,0-.28-.09-.28-.28v-4.84c0-.07-.04-.11-.11-.11h-7.7c-.19,0-.28-.09-.28-.28v-1.54c0-.13.02-.24.06-.34l4.79-11.98c.06-.15.16-.22.31-.22h2.3c.09,0,.16.03.2.1s.04.14,0,.24l-4.51,11.45s-.02.07,0,.1c.02.03.05.04.08.04h4.76c.08,0,.11-.04.11-.11v-3.98c0-.19.09-.28.28-.28h2.13c.19,0,.28.09.28.28v3.98c0,.08.04.11.11.11h1.04c.19,0,.28.09.28.28Z"/>
      <path class="cls-1" d="M702.6,1197.72c0,.97-.08,1.79-.25,2.46-.32,1.23-.92,2.18-1.81,2.84-.89.66-1.99.99-3.32.99s-2.43-.35-3.32-1.04c-.89-.69-1.48-1.66-1.78-2.91-.11-.48-.18-.86-.2-1.12v-.06c0-.15.08-.22.25-.22h2.16c.19,0,.29.09.31.28.04.3.07.5.11.59.15.69.44,1.22.87,1.58.43.36.96.55,1.6.55s1.17-.19,1.61-.56c.44-.37.73-.91.88-1.6.11-.43.17-1.02.17-1.76s-.07-1.38-.2-1.96c-.15-.63-.44-1.12-.87-1.44-.43-.33-.96-.49-1.6-.49s-1.14.14-1.58.42-.75.7-.94,1.26c-.04.15-.14.22-.31.22h-2.18c-.19,0-.28-.09-.28-.28v-11c0-.19.09-.28.28-.28h9.55c.19,0,.28.09.28.28v1.76c0,.19-.09.28-.28.28h-7.03c-.08,0-.11.04-.11.11l-.03,5.96c0,.09.05.11.14.06.37-.37.83-.66,1.36-.85.53-.2,1.1-.29,1.69-.29,1.1,0,2.03.27,2.8.8.77.53,1.3,1.3,1.6,2.31.28.92.42,1.95.42,3.11Z"/>
    </g>
  </g>
  <g id="wv_hall_1G_46" data-name="1G/46" class="ds-stand">
    <path class="cls-3" d="M637,1215.98c-2.2,0-4-1.81-4-4.01v-35.97c0-2.2,1.8-4,4-3.99l25.99.05c2.2,0,4,1.81,4,4.01v35.97c0,2.2-1.8,4-4,3.99l-25.99-.05Z"/>
    <g>
      <path class="cls-1" d="M649.4,1196.41v1.88c0,.19-.09.28-.28.28h-1.04c-.07,0-.11.04-.11.11v4.84c0,.19-.09.28-.28.28h-2.13c-.19,0-.28-.09-.28-.28v-4.84c0-.07-.04-.11-.11-.11h-7.7c-.19,0-.28-.09-.28-.28v-1.54c0-.13.02-.24.06-.34l4.79-11.98c.06-.15.16-.22.31-.22h2.3c.09,0,.16.03.2.1s.04.14,0,.24l-4.51,11.45s-.02.07,0,.1c.02.03.05.04.08.04h4.76c.07,0,.11-.04.11-.11v-3.98c0-.19.09-.28.28-.28h2.13c.19,0,.28.09.28.28v3.98c0,.08.04.11.11.11h1.04c.19,0,.28.09.28.28Z"/>
      <path class="cls-1" d="M662.61,1197.72c0,.95-.1,1.79-.31,2.52-.32,1.21-.91,2.15-1.76,2.8s-1.95.98-3.28.98c-1.21,0-2.24-.29-3.08-.88-.84-.59-1.43-1.43-1.76-2.53-.34-.75-.5-1.68-.5-2.8l-.03-8.88c0-1.49.49-2.69,1.46-3.6s2.25-1.36,3.84-1.36c1.49,0,2.71.45,3.65,1.34.94.9,1.41,2.07,1.41,3.53v.59c0,.19-.09.28-.28.28h-2.13c-.19,0-.28-.09-.28-.28v-.39c0-.78-.23-1.43-.69-1.95-.46-.51-1.03-.77-1.72-.77-.75,0-1.36.26-1.83.77-.48.51-.71,1.19-.71,2.03v3.53s.01.07.04.08c.03.02.06,0,.1-.03.73-.84,1.7-1.26,2.91-1.26,1.14,0,2.09.3,2.84.9.76.6,1.31,1.42,1.67,2.46.3.84.45,1.81.45,2.91ZM659.9,1197.67c0-.88-.09-1.59-.28-2.13-.17-.58-.46-1.03-.87-1.36-.41-.33-.92-.49-1.51-.49s-1.12.16-1.53.49c-.4.33-.69.79-.85,1.39-.17.52-.25,1.23-.25,2.13,0,.77.07,1.41.2,1.93.15.63.43,1.13.85,1.5.42.36.95.55,1.58.55s1.16-.18,1.58-.55c.42-.36.71-.89.88-1.58.13-.5.2-1.13.2-1.88Z"/>
    </g>
  </g>
  <g id="wv_hall_1G_47" data-name="1G/47" class="ds-stand">
    <path class="cls-3" d="M597,1215.98c-2.2,0-4-1.81-4-4.01v-35.97c0-2.2,1.8-4,4-3.99l25.99.05c2.2,0,4,1.81,4,4.01v35.97c0,2.2-1.8,4-4,3.99l-25.99-.05Z"/>
    <g>
      <path class="cls-1" d="M610.63,1196.41v1.88c0,.19-.09.28-.28.28h-1.04c-.08,0-.11.04-.11.11v4.84c0,.19-.09.28-.28.28h-2.13c-.19,0-.28-.09-.28-.28v-4.84c0-.07-.04-.11-.11-.11h-7.7c-.19,0-.28-.09-.28-.28v-1.54c0-.13.02-.24.06-.34l4.79-11.98c.06-.15.16-.22.31-.22h2.3c.09,0,.16.03.2.1.04.07.04.14,0,.24l-4.51,11.45s-.02.07,0,.1c.02.03.05.04.08.04h4.76c.07,0,.11-.04.11-.11v-3.98c0-.19.09-.28.28-.28h2.13c.19,0,.28.09.28.28v3.98c0,.08.04.11.11.11h1.04c.19,0,.28.09.28.28Z"/>
      <path class="cls-1" d="M613.57,1203.49l5.54-16.83s.01-.07-.01-.1c-.03-.03-.06-.04-.1-.04h-5.6c-.08,0-.11.04-.11.11v1.2c0,.19-.09.28-.28.28h-1.65c-.19,0-.28-.09-.28-.28v-3.36c0-.19.09-.28.28-.28h10.33c.19,0,.28.09.28.28v1.88c0,.07-.02.19-.06.34l-5.52,16.88c-.06.15-.17.22-.34.22h-2.27c-.21,0-.28-.1-.22-.31Z"/>
    </g>
  </g>
  <g id="wv_hall_1G_48" data-name="1G/48" class="ds-stand">
    <path class="cls-3" d="M569.09,1213.79c2.14.5,4.31-.85,4.81-2.99l8.19-35.03c.5-2.14-.84-4.3-2.99-4.8l-25.32-5.87c-2.14-.5-4.31.85-4.81,2.99l-8.19,35.03c-.5,2.14.84,4.3,2.99,4.8l25.32,5.87Z"/>
    <g>
      <path class="cls-1" d="M559.31,1192.41v1.88c0,.19-.09.28-.28.28h-1.04c-.07,0-.11.04-.11.11v4.84c0,.19-.09.28-.28.28h-2.13c-.19,0-.28-.09-.28-.28v-4.84c0-.07-.04-.11-.11-.11h-7.7c-.19,0-.28-.09-.28-.28v-1.54c0-.13.02-.24.06-.34l4.79-11.98c.06-.15.16-.22.31-.22h2.3c.09,0,.16.03.2.1s.04.14,0,.24l-4.51,11.45s-.02.07,0,.1c.02.03.05.04.08.04h4.76c.07,0,.11-.04.11-.11v-3.98c0-.19.09-.28.28-.28h2.13c.19,0,.28.09.28.28v3.98c0,.08.04.11.11.11h1.04c.19,0,.28.09.28.28Z"/>
      <path class="cls-1" d="M572.39,1194.26c0,1.16-.21,2.15-.62,2.97-.41.88-1.02,1.56-1.83,2.06-.81.5-1.77.74-2.87.74s-2.06-.25-2.88-.76c-.82-.5-1.44-1.21-1.85-2.13-.41-.88-.62-1.85-.62-2.91s.18-1.95.53-2.77c.37-.88.98-1.52,1.82-1.93.09-.06.09-.11,0-.17-.65-.39-1.16-.91-1.51-1.54-.47-.77-.7-1.67-.7-2.72s.21-1.92.64-2.69c.43-.78,1.04-1.4,1.85-1.85.8-.45,1.71-.67,2.72-.67s1.96.22,2.74.66c.78.44,1.38,1.06,1.79,1.86.45.8.67,1.7.67,2.69s-.23,1.91-.7,2.72c-.36.63-.86,1.15-1.51,1.54-.09.06-.1.1-.03.14.84.41,1.45,1.06,1.82,1.96.36.77.53,1.7.53,2.8ZM569.73,1194.09c0-.75-.1-1.38-.31-1.9-.19-.54-.48-.96-.88-1.26-.4-.3-.89-.45-1.47-.45-1.18,0-1.96.55-2.35,1.65-.21.5-.31,1.16-.31,1.96s.13,1.52.39,2.04c.41,1.05,1.17,1.57,2.27,1.57s1.83-.51,2.24-1.54c.28-.56.42-1.25.42-2.07ZM564.52,1185.3c0,.67.13,1.25.39,1.74.21.43.49.77.87,1.01.37.24.8.36,1.29.36s.94-.13,1.32-.38c.37-.25.66-.6.87-1.05.24-.47.36-1.04.36-1.71,0-.58-.11-1.09-.34-1.54-.19-.47-.47-.84-.85-1.11-.38-.27-.84-.41-1.39-.41-.5,0-.95.14-1.34.42-.39.28-.68.65-.87,1.12-.21.5-.31,1.02-.31,1.54Z"/>
    </g>
  </g>
  <g id="wv_hall_1G_49" data-name="1G/49" class="ds-stand">
    <path class="cls-3" d="M530.15,1204.69c2.14.5,4.31-.85,4.81-2.99l8.19-35.03c.5-2.14-.84-4.3-2.99-4.8l-25.32-5.87c-2.14-.5-4.31.85-4.81,2.99l-8.19,35.03c-.5,2.14.84,4.3,2.99,4.8l25.32,5.87Z"/>
    <g>
      <path class="cls-1" d="M521.52,1183.41v1.88c0,.19-.09.28-.28.28h-1.04c-.07,0-.11.04-.11.11v4.84c0,.19-.09.28-.28.28h-2.13c-.19,0-.28-.09-.28-.28v-4.84c0-.07-.04-.11-.11-.11h-7.7c-.19,0-.28-.09-.28-.28v-1.54c0-.13.02-.24.06-.34l4.79-11.98c.06-.15.16-.22.31-.22h2.29c.09,0,.16.03.2.1s.04.14,0,.24l-4.51,11.45s-.02.07,0,.1c.02.03.05.04.08.04h4.76c.08,0,.11-.04.11-.11v-3.98c0-.19.09-.28.28-.28h2.13c.19,0,.28.09.28.28v3.98c0,.08.04.11.11.11h1.04c.19,0,.28.09.28.28Z"/>
      <path class="cls-1" d="M534.12,1177.19v8.88c0,1.51-.49,2.72-1.46,3.61s-2.24,1.34-3.81,1.34-2.73-.45-3.67-1.34-1.4-2.07-1.4-3.53v-.59c0-.19.09-.28.28-.28h2.13c.19,0,.28.09.28.28v.39c0,.8.22,1.46.67,1.96.45.5,1.02.76,1.71.76.77,0,1.39-.26,1.86-.77.48-.51.71-1.19.71-2.03v-3.56s-.01-.07-.04-.08c-.03-.02-.06,0-.1.03-.73.86-1.7,1.29-2.91,1.29-1.14,0-2.09-.3-2.86-.9-.77-.6-1.32-1.42-1.65-2.46-.3-.77-.45-1.74-.45-2.91,0-1.05.1-1.89.31-2.52.3-1.21.88-2.15,1.74-2.8.86-.65,1.95-.98,3.28-.98,1.21,0,2.24.29,3.08.88s1.43,1.43,1.76,2.53c.35.78.53,1.72.53,2.8ZM530.3,1180.82c.4-.33.69-.79.85-1.39.19-.58.28-1.29.28-2.13,0-.77-.07-1.41-.2-1.93-.17-.65-.46-1.16-.88-1.51-.42-.35-.95-.53-1.58-.53s-1.14.18-1.57.55c-.43.36-.73.89-.9,1.58-.13.62-.2,1.24-.2,1.88,0,.8.09,1.51.28,2.13.39,1.23,1.18,1.85,2.38,1.85.62,0,1.12-.16,1.53-.49Z"/>
    </g>
  </g>
  <g id="wv_hall_1G_50" data-name="1G/50" class="ds-stand">
    <path class="cls-3" d="M491.19,1195.59c2.14.5,4.31-.85,4.81-2.99l8.19-35.03c.5-2.14-.84-4.3-2.99-4.8l-25.32-5.87c-2.14-.5-4.31.85-4.81,2.99l-8.19,35.03c-.5,2.14.84,4.3,2.99,4.8l25.32,5.87Z"/>
    <g>
      <path class="cls-1" d="M482.43,1175.72c0,.97-.08,1.79-.25,2.46-.32,1.23-.92,2.18-1.81,2.84s-1.99.99-3.32.99-2.43-.35-3.32-1.04c-.89-.69-1.48-1.66-1.78-2.91-.11-.48-.18-.86-.2-1.12v-.06c0-.15.08-.22.25-.22h2.16c.19,0,.29.09.31.28.04.3.07.5.11.59.15.69.44,1.22.87,1.58.43.36.96.55,1.6.55s1.17-.19,1.61-.56c.44-.37.73-.91.88-1.6.11-.43.17-1.02.17-1.76s-.07-1.38-.2-1.96c-.15-.63-.44-1.12-.87-1.44-.43-.33-.96-.49-1.6-.49s-1.14.14-1.58.42c-.44.28-.75.7-.94,1.26-.04.15-.14.22-.31.22h-2.18c-.19,0-.28-.09-.28-.28v-11c0-.19.09-.28.28-.28h9.55c.19,0,.28.09.28.28v1.76c0,.19-.09.28-.28.28h-7.03c-.08,0-.11.04-.11.11l-.03,5.96c0,.09.05.11.14.06.37-.37.83-.66,1.36-.85.53-.2,1.1-.29,1.69-.29,1.1,0,2.03.27,2.8.8.77.53,1.3,1.3,1.6,2.31.28.92.42,1.95.42,3.11Z"/>
      <path class="cls-1" d="M486.51,1180.57c-1.02-1.01-1.53-2.36-1.53-4.06v-9.02c0-1.68.51-3.02,1.53-4.03,1.02-1.01,2.38-1.51,4.07-1.51s3.06.5,4.09,1.51c1.03,1.01,1.54,2.35,1.54,4.03v9.02c0,1.7-.51,3.05-1.54,4.06-1.03,1.01-2.39,1.51-4.09,1.51s-3.06-.5-4.07-1.51ZM492.71,1178.9c.54-.57.81-1.32.81-2.25v-9.27c0-.93-.27-1.68-.81-2.25-.54-.57-1.25-.85-2.13-.85s-1.58.28-2.11.85-.8,1.32-.8,2.25v9.27c0,.93.27,1.68.8,2.25s1.24.85,2.11.85,1.59-.28,2.13-.85Z"/>
    </g>
  </g>
  <g id="wv_hall_1G_51" data-name="1G/51" class="ds-stand">
    <path class="cls-3" d="M404.48,1165.49c-2-.92-2.89-3.31-1.97-5.31l14.94-32.73c.91-2,3.3-2.89,5.3-1.97l23.62,10.84c2,.92,2.89,3.31,1.97,5.31l-14.94,32.73c-.91,2-3.3,2.89-5.3,1.97l-23.62-10.84Z"/>
    <g>
      <path class="cls-1" d="M427.47,1154.72c0,.97-.08,1.79-.25,2.46-.32,1.23-.92,2.18-1.81,2.84s-1.99.99-3.32.99-2.43-.35-3.32-1.04c-.89-.69-1.48-1.66-1.78-2.91-.11-.48-.18-.86-.2-1.12v-.06c0-.15.08-.22.25-.22h2.16c.19,0,.29.09.31.28.04.3.07.5.11.59.15.69.44,1.22.87,1.58.43.36.96.55,1.6.55s1.17-.19,1.61-.56c.44-.37.73-.91.88-1.6.11-.43.17-1.02.17-1.76s-.07-1.38-.2-1.96c-.15-.63-.44-1.12-.87-1.44-.43-.33-.96-.49-1.6-.49s-1.14.14-1.58.42c-.44.28-.75.7-.94,1.26-.04.15-.14.22-.31.22h-2.18c-.19,0-.28-.09-.28-.28v-11c0-.19.09-.28.28-.28h9.55c.19,0,.28.09.28.28v1.76c0,.19-.09.28-.28.28h-7.03c-.08,0-.11.04-.11.11l-.03,5.96c0,.09.05.11.14.06.37-.37.83-.66,1.36-.85.53-.2,1.1-.29,1.69-.29,1.1,0,2.03.27,2.8.8.77.53,1.3,1.3,1.6,2.31.28.92.42,1.95.42,3.11Z"/>
      <path class="cls-1" d="M432.34,1141.2h2.21c.19,0,.28.09.28.28v19.04c0,.19-.09.28-.28.28h-2.13c-.19,0-.28-.09-.28-.28v-16.41s-.01-.07-.04-.1c-.03-.03-.06-.03-.1-.01l-2.72.87-.11.03c-.11,0-.19-.08-.22-.25l-.11-1.6c0-.15.07-.26.2-.34l2.94-1.43c.11-.06.23-.08.36-.08Z"/>
    </g>
  </g>
  <g id="wv_hall_1G_52" data-name="1G/52" class="ds-stand">
    <path class="cls-3" d="M348.72,1131.04c-1.76-1.32-2.13-3.84-.82-5.6l21.45-28.88c1.31-1.77,3.83-2.13,5.59-.82l20.84,15.54c1.76,1.32,2.13,3.84.82,5.6l-21.45,28.88c-1.31,1.77-3.83,2.13-5.59.82l-20.84-15.54Z"/>
    <g>
      <path class="cls-1" d="M370.81,1125.72c0,.97-.08,1.79-.25,2.46-.32,1.23-.92,2.18-1.81,2.84s-1.99.99-3.32.99-2.43-.35-3.32-1.04c-.89-.69-1.48-1.66-1.78-2.91-.11-.48-.18-.86-.2-1.12v-.06c0-.15.08-.22.25-.22h2.16c.19,0,.29.09.31.28.04.3.07.5.11.59.15.69.44,1.22.87,1.58.43.36.96.55,1.6.55s1.17-.19,1.61-.56c.44-.37.73-.91.88-1.6.11-.43.17-1.02.17-1.76s-.07-1.38-.2-1.96c-.15-.63-.44-1.12-.87-1.44-.43-.33-.96-.49-1.6-.49s-1.14.14-1.58.42c-.44.28-.75.7-.94,1.26-.04.15-.14.22-.31.22h-2.18c-.19,0-.28-.09-.28-.28v-11c0-.19.09-.28.28-.28h9.55c.19,0,.28.09.28.28v1.76c0,.19-.09.28-.28.28h-7.03c-.08,0-.11.04-.11.11l-.03,5.96c0,.09.05.11.14.06.37-.37.83-.66,1.36-.85.53-.2,1.1-.29,1.69-.29,1.1,0,2.03.27,2.8.8.77.53,1.3,1.3,1.6,2.31.28.92.42,1.95.42,3.11Z"/>
      <path class="cls-1" d="M376.55,1129.48h7.42c.19,0,.28.09.28.28v1.76c0,.19-.09.28-.28.28h-10.56c-.19,0-.28-.09-.28-.28v-1.79c0-.13.04-.24.11-.34,2.41-3.1,4.28-5.59,5.63-7.48,1.44-2,2.16-3.59,2.16-4.79,0-.86-.24-1.54-.73-2.06-.49-.51-1.13-.77-1.93-.77s-1.41.26-1.89.77c-.48.51-.7,1.19-.69,2.03v.98c0,.19-.09.28-.28.28h-2.16c-.19,0-.28-.09-.28-.28v-1.2c.04-1.47.55-2.66,1.55-3.56,1-.9,2.26-1.34,3.79-1.34,1.06,0,2,.22,2.8.66.8.44,1.42,1.05,1.86,1.83.44.78.66,1.67.66,2.66,0,1.66-.75,3.55-2.24,5.66-.86,1.21-2.26,3.05-4.2,5.52l-.81,1.04c-.06.09-.04.14.06.14Z"/>
    </g>
  </g>
  <g id="wv_hall_1G_53" data-name="1G/53" class="ds-stand">
    <path class="cls-3" d="M316.61,1107.19c-1.76-1.32-2.13-3.84-.82-5.6l21.45-28.88c1.31-1.77,3.83-2.13,5.59-.82l20.84,15.54c1.76,1.32,2.13,3.84.82,5.6l-21.45,28.88c-1.31,1.77-3.83,2.13-5.59.82l-20.84-15.54Z"/>
    <g>
      <path class="cls-1" d="M339.94,1101.72c0,.97-.08,1.79-.25,2.46-.32,1.23-.92,2.18-1.81,2.84s-1.99.99-3.32.99-2.43-.35-3.32-1.04c-.89-.69-1.48-1.66-1.78-2.91-.11-.48-.18-.86-.2-1.12v-.06c0-.15.08-.22.25-.22h2.16c.19,0,.29.09.31.28.04.3.07.5.11.59.15.69.44,1.22.87,1.58.43.36.96.55,1.6.55s1.17-.19,1.61-.56c.44-.37.73-.91.88-1.6.11-.43.17-1.02.17-1.76s-.07-1.38-.2-1.96c-.15-.63-.44-1.12-.87-1.44-.43-.33-.96-.49-1.6-.49s-1.14.14-1.58.42c-.44.28-.75.7-.94,1.26-.04.15-.14.22-.31.22h-2.18c-.19,0-.28-.09-.28-.28v-11c0-.19.09-.28.28-.28h9.55c.19,0,.28.09.28.28v1.76c0,.19-.09.28-.28.28h-7.03c-.08,0-.11.04-.11.11l-.03,5.96c0,.09.05.11.14.06.37-.37.83-.66,1.36-.85.53-.2,1.1-.29,1.69-.29,1.1,0,2.03.27,2.8.8.77.53,1.3,1.3,1.6,2.31.28.92.42,1.95.42,3.11Z"/>
      <path class="cls-1" d="M352.76,1101.72c0,1.16-.18,2.19-.53,3.11-.39,1.05-.99,1.84-1.79,2.38s-1.8.81-3,.81c-1.36,0-2.5-.36-3.42-1.08-.91-.72-1.49-1.68-1.74-2.9-.11-.56-.19-1.24-.22-2.04,0-.19.09-.28.28-.28h2.13c.19,0,.28.09.28.28.04.62.09,1.12.17,1.51.15.69.44,1.23.87,1.61.43.38.98.57,1.65.57.62,0,1.13-.16,1.54-.49.41-.33.71-.81.9-1.44.17-.62.25-1.36.25-2.24,0-1.01-.12-1.84-.36-2.49-.21-.58-.5-1.02-.9-1.32-.39-.3-.88-.45-1.46-.45-.28,0-.58.08-.9.25-.07.04-.13.06-.17.06-.07,0-.15-.04-.22-.11l-1.09-1.18c-.06-.06-.08-.12-.08-.2s.03-.14.08-.2l4.26-5.24s.05-.07.03-.1c-.02-.03-.05-.04-.08-.04h-6.66c-.19,0-.28-.09-.28-.28v-1.76c0-.19.09-.28.28-.28h9.83c.19,0,.28.09.28.28v1.85c0,.13-.04.24-.11.34l-3.95,4.96s-.05.07-.03.1.05.04.08.04c.84.07,1.56.34,2.16.8.6.46,1.05,1.08,1.37,1.86.37.91.56,2.02.56,3.3Z"/>
    </g>
  </g>
  <g id="wv_hall_1G_54" data-name="1G/54" class="ds-stand">
    <path class="cls-3" d="M284.5,1083.34c-1.76-1.32-2.13-3.84-.82-5.6l21.45-28.88c1.31-1.77,3.83-2.13,5.59-.82l20.84,15.54c1.76,1.32,2.13,3.84.82,5.6l-21.45,28.88c-1.31,1.77-3.83,2.13-5.59.82l-20.84-15.54Z"/>
    <g>
      <path class="cls-1" d="M307.46,1077.72c0,.97-.08,1.79-.25,2.46-.32,1.23-.92,2.18-1.81,2.84s-1.99.99-3.32.99-2.43-.35-3.32-1.04c-.89-.69-1.48-1.66-1.78-2.91-.11-.48-.18-.86-.2-1.12v-.06c0-.15.08-.22.25-.22h2.16c.19,0,.29.09.31.28.04.3.07.5.11.59.15.69.44,1.22.87,1.58.43.36.96.55,1.6.55s1.17-.19,1.61-.56c.44-.37.73-.91.88-1.6.11-.43.17-1.02.17-1.76s-.07-1.38-.2-1.96c-.15-.63-.44-1.12-.87-1.44-.43-.33-.96-.49-1.6-.49s-1.14.14-1.58.42-.75.7-.94,1.26c-.04.15-.14.22-.31.22h-2.18c-.19,0-.28-.09-.28-.28v-11c0-.19.09-.28.28-.28h9.55c.19,0,.28.09.28.28v1.76c0,.19-.09.28-.28.28h-7.03c-.07,0-.11.04-.11.11l-.03,5.96c0,.09.05.11.14.06.37-.37.83-.66,1.36-.85.53-.2,1.1-.29,1.69-.29,1.1,0,2.03.27,2.8.8.76.53,1.3,1.3,1.6,2.31.28.92.42,1.95.42,3.11Z"/>
      <path class="cls-1" d="M321.6,1076.41v1.88c0,.19-.09.28-.28.28h-1.04c-.08,0-.11.04-.11.11v4.84c0,.19-.09.28-.28.28h-2.13c-.19,0-.28-.09-.28-.28v-4.84c0-.07-.04-.11-.11-.11h-7.7c-.19,0-.28-.09-.28-.28v-1.54c0-.13.02-.24.06-.34l4.79-11.98c.06-.15.16-.22.31-.22h2.3c.09,0,.16.03.2.1.04.07.04.14,0,.24l-4.51,11.45s-.02.07,0,.1c.02.03.05.04.08.04h4.76c.07,0,.11-.04.11-.11v-3.98c0-.19.09-.28.28-.28h2.13c.19,0,.28.09.28.28v3.98c0,.08.04.11.11.11h1.04c.19,0,.28.09.28.28Z"/>
    </g>
  </g>
  <g id="wv_hall_1G_55" data-name="1G/55" class="ds-stand">
    <path class="cls-3" d="M252.39,1059.49c-1.76-1.32-2.13-3.84-.82-5.6l21.45-28.88c1.31-1.77,3.83-2.13,5.59-.82l20.84,15.54c1.76,1.32,2.13,3.84.82,5.6l-21.45,28.88c-1.31,1.77-3.83,2.13-5.59.82l-20.84-15.54Z"/>
    <g>
      <path class="cls-1" d="M274.94,1054.72c0,.97-.08,1.79-.25,2.46-.32,1.23-.92,2.18-1.81,2.84s-1.99.99-3.32.99-2.43-.35-3.32-1.04c-.89-.69-1.48-1.66-1.78-2.91-.11-.48-.18-.86-.2-1.12v-.06c0-.15.08-.22.25-.22h2.16c.19,0,.29.09.31.28.04.3.07.5.11.59.15.69.44,1.22.87,1.58.43.36.96.55,1.6.55s1.17-.19,1.61-.56c.44-.37.73-.91.88-1.6.11-.43.17-1.02.17-1.76s-.07-1.38-.2-1.96c-.15-.63-.44-1.12-.87-1.44-.43-.33-.96-.49-1.6-.49s-1.14.14-1.58.42c-.44.28-.75.7-.94,1.26-.04.15-.14.22-.31.22h-2.18c-.19,0-.28-.09-.28-.28v-11c0-.19.09-.28.28-.28h9.55c.19,0,.28.09.28.28v1.76c0,.19-.09.28-.28.28h-7.03c-.08,0-.11.04-.11.11l-.03,5.96c0,.09.05.11.14.06.37-.37.83-.66,1.36-.85.53-.2,1.1-.29,1.69-.29,1.1,0,2.03.27,2.8.8.77.53,1.3,1.3,1.6,2.31.28.92.42,1.95.42,3.11Z"/>
      <path class="cls-1" d="M288.12,1054.72c0,.97-.08,1.79-.25,2.46-.32,1.23-.92,2.18-1.81,2.84-.89.66-1.99.99-3.32.99s-2.43-.35-3.32-1.04c-.89-.69-1.48-1.66-1.78-2.91-.11-.48-.18-.86-.2-1.12v-.06c0-.15.08-.22.25-.22h2.16c.19,0,.29.09.31.28.04.3.07.5.11.59.15.69.44,1.22.87,1.58.43.36.96.55,1.6.55s1.17-.19,1.61-.56c.44-.37.73-.91.88-1.6.11-.43.17-1.02.17-1.76s-.07-1.38-.2-1.96c-.15-.63-.44-1.12-.87-1.44-.43-.33-.96-.49-1.6-.49s-1.14.14-1.58.42-.75.7-.94,1.26c-.04.15-.14.22-.31.22h-2.18c-.19,0-.28-.09-.28-.28v-11c0-.19.09-.28.28-.28h9.55c.19,0,.28.09.28.28v1.76c0,.19-.09.28-.28.28h-7.03c-.07,0-.11.04-.11.11l-.03,5.96c0,.09.05.11.14.06.37-.37.83-.66,1.36-.85.53-.2,1.1-.29,1.69-.29,1.1,0,2.03.27,2.8.8.77.53,1.3,1.3,1.6,2.31.28.92.42,1.95.42,3.11Z"/>
    </g>
  </g>
</svg>