<?xml version="1.0" encoding="UTF-8"?>
<svg id="wv_hall_2C" data-name="Hall 2C" xmlns="http://www.w3.org/2000/svg" viewBox="0 0 1300 1300" class="hall-svg h-auto">
  <g id="wv_hall_1300" data-name="1300">
    <rect class="cls-2" width="1300" height="1300"/>
  </g>
  <g id="HALL">
    <g>
      <path class="cls-3" d="M904,419.5h5s0,0,0,0,0,0,0,0h5s0,0,0,0,0,0,0,0h5s0,0,0,0,0,0,0,0h45c.28,0,.5-.22.5-.5v-40c0-.28-.22-.5-.5-.5h-5s0,0,0,0,0,0,0,0h-5s0,0,0,0,0,0,0,0h-5s0,0,0,0,0,0,0,0h-5s0,0,0,0,0,0,0,0h-5s0,0,0,0,0,0,0,0h-5s0,0,0,0,0,0,0,0h-5s0,0,0,0,0,0,0,0h-5s0,0,0,0,0,0,0,0h-20c-.28,0-.5.22-.5.5v40c0,.28.22.5.5.5ZM904.5,399.5h4v19h-4v-19ZM919.5,399.5h4v19h-4v-19ZM918.5,418.5h-4v-19h4v19ZM924.5,399.5h4v19h-4v-19ZM929.5,399.5h4v19h-4v-19ZM934.5,399.5h4v19h-4v-19ZM939.5,399.5h4v19h-4v-19ZM944.5,399.5h4v19h-4v-19ZM949.5,399.5h4v19h-4v-19ZM954.5,399.5h4v19h-4v-19ZM954.5,398.5v-19h4v19h-4ZM953.5,398.5h-4v-19h4v19ZM948.5,398.5h-4v-19h4v19ZM943.5,398.5h-4v-19h4v19ZM938.5,398.5h-4v-19h4v19ZM933.5,398.5h-4v-19h4v19ZM928.5,398.5h-4v-19h4v19ZM923.5,398.5h-4v-19h4v19ZM918.5,398.5h-4v-19h4v19ZM913.5,398.5h-4v-19h4v19ZM913.5,399.5v19h-4v-19h4ZM959.5,418.5v-19h4v19h-4ZM963.5,398.5h-4v-19h4v19ZM908.5,379.5v19h-4v-19h4Z"/>
      <path class="cls-3" d="M624,343.5s0,0,0,0,0,0,0,0h-5s0,0,0,0,0,0,0,0h-5s0,0,0,0,0,0,0,0h-5s0,0,0,0,0,0,0,0h-5s0,0,0,0,0,0,0,0h-5s0,0,0,0,0,0,0,0h-5s0,0,0,0,0,0,0,0h-5s0,0,0,0,0,0,0,0h-20c-.28,0-.5.22-.5.5v40c0,.28.22.5.5.5h5s0,0,0,0,0,0,0,0h5s0,0,0,0,0,0,0,0h5s0,0,0,0,0,0,0,0h45c.28,0,.5-.22.5-.5v-40c0-.28-.22-.5-.5-.5h-5ZM628.5,363.5h-4v-19h4v19ZM613.5,363.5h-4v-19h4v19ZM614.5,344.5h4v19h-4v-19ZM608.5,363.5h-4v-19h4v19ZM603.5,363.5h-4v-19h4v19ZM598.5,363.5h-4v-19h4v19ZM593.5,363.5h-4v-19h4v19ZM588.5,363.5h-4v-19h4v19ZM583.5,363.5h-4v-19h4v19ZM578.5,363.5h-4v-19h4v19ZM578.5,364.5v19h-4v-19h4ZM579.5,364.5h4v19h-4v-19ZM584.5,364.5h4v19h-4v-19ZM589.5,364.5h4v19h-4v-19ZM594.5,364.5h4v19h-4v-19ZM599.5,364.5h4v19h-4v-19ZM604.5,364.5h4v19h-4v-19ZM609.5,364.5h4v19h-4v-19ZM614.5,364.5h4v19h-4v-19ZM619.5,364.5h4v19h-4v-19ZM619.5,363.5v-19h4v19h-4ZM573.5,344.5v19h-4v-19h4ZM569.5,364.5h4v19h-4v-19ZM624.5,383.5v-19h4v19h-4Z"/>
      <path class="cls-3" d="M554,343.5s0,0,0,0,0,0,0,0h-5s0,0,0,0,0,0,0,0h-5s0,0,0,0,0,0,0,0h-5s0,0,0,0,0,0,0,0h-5s0,0,0,0,0,0,0,0h-5s0,0,0,0,0,0,0,0h-5s0,0,0,0,0,0,0,0h-5s0,0,0,0,0,0,0,0h-20c-.28,0-.5.22-.5.5v40c0,.28.22.5.5.5h5s0,0,0,0,0,0,0,0h5s0,0,0,0,0,0,0,0h5s0,0,0,0,0,0,0,0h45c.28,0,.5-.22.5-.5v-40c0-.28-.22-.5-.5-.5h-5ZM558.5,363.5h-4v-19h4v19ZM543.5,363.5h-4v-19h4v19ZM544.5,344.5h4v19h-4v-19ZM538.5,363.5h-4v-19h4v19ZM533.5,363.5h-4v-19h4v19ZM528.5,363.5h-4v-19h4v19ZM523.5,363.5h-4v-19h4v19ZM518.5,363.5h-4v-19h4v19ZM513.5,363.5h-4v-19h4v19ZM508.5,363.5h-4v-19h4v19ZM508.5,364.5v19h-4v-19h4ZM509.5,364.5h4v19h-4v-19ZM514.5,364.5h4v19h-4v-19ZM519.5,364.5h4v19h-4v-19ZM524.5,364.5h4v19h-4v-19ZM529.5,364.5h4v19h-4v-19ZM534.5,364.5h4v19h-4v-19ZM539.5,364.5h4v19h-4v-19ZM544.5,364.5h4v19h-4v-19ZM549.5,364.5h4v19h-4v-19ZM549.5,363.5v-19h4v19h-4ZM503.5,344.5v19h-4v-19h4ZM499.5,364.5h4v19h-4v-19ZM554.5,383.5v-19h4v19h-4Z"/>
      <path class="cls-3" d="M903.5,479c0,.28.22.5.5.5h5s0,0,0,0,0,0,0,0h5s0,0,0,0,0,0,0,0h5s0,0,0,0,0,0,0,0h45c.28,0,.5-.22.5-.5v-40c0-.28-.22-.5-.5-.5h-5s0,0,0,0,0,0,0,0h-5s0,0,0,0,0,0,0,0h-5s0,0,0,0,0,0,0,0h-5s0,0,0,0,0,0,0,0h-5s0,0,0,0,0,0,0,0h-5s0,0,0,0,0,0,0,0h-5s0,0,0,0,0,0,0,0h-5s0,0,0,0,0,0,0,0h-20c-.28,0-.5.22-.5.5v40ZM904.5,459.5h4v19h-4v-19ZM919.5,459.5h4v19h-4v-19ZM918.5,478.5h-4v-19h4v19ZM924.5,459.5h4v19h-4v-19ZM929.5,459.5h4v19h-4v-19ZM934.5,459.5h4v19h-4v-19ZM939.5,459.5h4v19h-4v-19ZM944.5,459.5h4v19h-4v-19ZM949.5,459.5h4v19h-4v-19ZM954.5,459.5h4v19h-4v-19ZM954.5,458.5v-19h4v19h-4ZM953.5,458.5h-4v-19h4v19ZM948.5,458.5h-4v-19h4v19ZM943.5,458.5h-4v-19h4v19ZM938.5,458.5h-4v-19h4v19ZM933.5,458.5h-4v-19h4v19ZM928.5,458.5h-4v-19h4v19ZM923.5,458.5h-4v-19h4v19ZM918.5,458.5h-4v-19h4v19ZM913.5,458.5h-4v-19h4v19ZM913.5,459.5v19h-4v-19h4ZM959.5,478.5v-19h4v19h-4ZM963.5,458.5h-4v-19h4v19ZM908.5,439.5v19h-4v-19h4Z"/>
      <path class="cls-3" d="M919,859.5s0,0,0,0,0,0,0,0h45c.28,0,.5-.22.5-.5v-40c0-.28-.22-.5-.5-.5h-5s0,0,0,0,0,0,0,0h-5s0,0,0,0,0,0,0,0h-5s0,0,0,0,0,0,0,0h-5s0,0,0,0,0,0,0,0h-5s0,0,0,0,0,0,0,0h-5s0,0,0,0,0,0,0,0h-5s0,0,0,0,0,0,0,0h-5s0,0,0,0,0,0,0,0h-20c-.28,0-.5.22-.5.5v40c0,.28.22.5.5.5h5s0,0,0,0,0,0,0,0h5s0,0,0,0,0,0,0,0h5ZM924.5,839.5h4v19h-4v-19ZM923.5,858.5h-4v-19h4v19ZM929.5,839.5h4v19h-4v-19ZM934.5,839.5h4v19h-4v-19ZM939.5,839.5h4v19h-4v-19ZM944.5,839.5h4v19h-4v-19ZM949.5,839.5h4v19h-4v-19ZM954.5,839.5h4v19h-4v-19ZM954.5,838.5v-19h4v19h-4ZM953.5,838.5h-4v-19h4v19ZM948.5,838.5h-4v-19h4v19ZM943.5,838.5h-4v-19h4v19ZM938.5,838.5h-4v-19h4v19ZM933.5,838.5h-4v-19h4v19ZM928.5,838.5h-4v-19h4v19ZM923.5,838.5h-4v-19h4v19ZM918.5,838.5h-4v-19h4v19ZM913.5,838.5h-4v-19h4v19ZM913.5,839.5v19h-4v-19h4ZM914.5,839.5h4v19h-4v-19ZM959.5,858.5v-19h4v19h-4ZM963.5,838.5h-4v-19h4v19ZM908.5,819.5v19h-4v-19h4ZM904.5,839.5h4v19h-4v-19Z"/>
      <path class="cls-3" d="M903.5,669c0,.28.22.5.5.5h5s0,0,0,0,0,0,0,0h5s0,0,0,0,0,0,0,0h5s0,0,0,0,0,0,0,0h45c.28,0,.5-.22.5-.5v-40c0-.28-.22-.5-.5-.5h-5s0,0,0,0,0,0,0,0h-5s0,0,0,0,0,0,0,0h-5s0,0,0,0,0,0,0,0h-5s0,0,0,0,0,0,0,0h-5s0,0,0,0,0,0,0,0h-5s0,0,0,0,0,0,0,0h-5s0,0,0,0,0,0,0,0h-5s0,0,0,0,0,0,0,0h-20c-.28,0-.5.22-.5.5v40ZM904.5,649.5h4v19h-4v-19ZM919.5,649.5h4v19h-4v-19ZM918.5,668.5h-4v-19h4v19ZM924.5,649.5h4v19h-4v-19ZM929.5,649.5h4v19h-4v-19ZM934.5,649.5h4v19h-4v-19ZM939.5,649.5h4v19h-4v-19ZM944.5,649.5h4v19h-4v-19ZM949.5,649.5h4v19h-4v-19ZM954.5,649.5h4v19h-4v-19ZM954.5,648.5v-19h4v19h-4ZM953.5,648.5h-4v-19h4v19ZM948.5,648.5h-4v-19h4v19ZM943.5,648.5h-4v-19h4v19ZM938.5,648.5h-4v-19h4v19ZM933.5,648.5h-4v-19h4v19ZM928.5,648.5h-4v-19h4v19ZM923.5,648.5h-4v-19h4v19ZM918.5,648.5h-4v-19h4v19ZM913.5,648.5h-4v-19h4v19ZM913.5,649.5v19h-4v-19h4ZM959.5,668.5v-19h4v19h-4ZM963.5,648.5h-4v-19h4v19ZM908.5,629.5v19h-4v-19h4Z"/>
      <path class="cls-3" d="M904,878.5c-.28,0-.5.22-.5.5v40c0,.28.22.5.5.5h5s0,0,0,0,0,0,0,0h5s0,0,0,0,0,0,0,0h5s0,0,0,0,0,0,0,0h45c.28,0,.5-.22.5-.5v-40c0-.28-.22-.5-.5-.5h-5s0,0,0,0,0,0,0,0h-5s0,0,0,0,0,0,0,0h-5s0,0,0,0,0,0,0,0h-5s0,0,0,0,0,0,0,0h-5s0,0,0,0,0,0,0,0h-5s0,0,0,0,0,0,0,0h-5s0,0,0,0,0,0,0,0h-5s0,0,0,0,0,0,0,0h-20ZM914.5,899.5h4v19h-4v-19ZM913.5,918.5h-4v-19h4v19ZM919.5,899.5h4v19h-4v-19ZM924.5,899.5h4v19h-4v-19ZM929.5,899.5h4v19h-4v-19ZM934.5,899.5h4v19h-4v-19ZM939.5,899.5h4v19h-4v-19ZM944.5,899.5h4v19h-4v-19ZM949.5,899.5h4v19h-4v-19ZM954.5,899.5h4v19h-4v-19ZM954.5,898.5v-19h4v19h-4ZM953.5,898.5h-4v-19h4v19ZM948.5,898.5h-4v-19h4v19ZM943.5,898.5h-4v-19h4v19ZM938.5,898.5h-4v-19h4v19ZM933.5,898.5h-4v-19h4v19ZM928.5,898.5h-4v-19h4v19ZM923.5,898.5h-4v-19h4v19ZM918.5,898.5h-4v-19h4v19ZM913.5,898.5h-4v-19h4v19ZM908.5,879.5v19h-4v-19h4ZM904.5,899.5h4v19h-4v-19ZM959.5,918.5v-19h4v19h-4ZM963.5,898.5h-4v-19h4v19Z"/>
      <path class="cls-3" d="M969,424.5c.28,0,.5-.22.5-.5v-50c0-.28-.22-.5-.5-.5h-49.5v-39.5c0-.28-.22-.5-.5-.5H349c-.28,0-.5.22-.5.5v414.5h-14.5c-.28,0-.5.22-.5.5,0,7.22,4.97,13.29,11.66,15-6.69,1.71-11.66,7.78-11.66,15,0,.28.22.5.5.5h14.5v4h-14.5c-.28,0-.5.22-.5.5,0,7.22,4.97,13.29,11.66,15-6.69,1.71-11.66,7.78-11.66,15,0,.28.22.5.5.5h14.5v4h-14.5c-.28,0-.5.22-.5.5,0,7.22,4.97,13.29,11.66,15-6.69,1.71-11.66,7.78-11.66,15,0,.28.22.5.5.5h14.5v4h-14.5c-.28,0-.5.22-.5.5,0,7.22,4.97,13.29,11.66,15-6.69,1.71-11.66,7.78-11.66,15,0,.28.22.5.5.5h14.5v79.5c0,.28.22.5.5.5h570c.28,0,.5-.22.5-.5v-39.5h49.5c.28,0,.5-.22.5-.5v-50c0-.28-.22-.5-.5-.5h-49.5v-9h49.5c.28,0,.5-.22.5-.5s-.22-.5-.5-.5h-50c-.28,0-.5.22-.5.5v10c0,.28.22.5.5.5h49.5v49h-49.5c-.28,0-.5.22-.5.5v39.5H349.5v-79h14.5c.28,0,.5-.22.5-.5,0-7.22-4.97-13.29-11.66-15,6.69-1.71,11.66-7.78,11.66-15,0-.28-.22-.5-.5-.5h-14.5v-4h14.5c.28,0,.5-.22.5-.5,0-7.22-4.97-13.29-11.66-15,6.69-1.71,11.66-7.78,11.66-15,0-.28-.22-.5-.5-.5h-14.5v-4h14.5c.28,0,.5-.22.5-.5,0-7.22-4.97-13.29-11.66-15,6.69-1.71,11.66-7.78,11.66-15,0-.28-.22-.5-.5-.5h-14.5v-4h14.5c.28,0,.5-.22.5-.5,0-7.22-4.97-13.29-11.66-15,6.69-1.71,11.66-7.78,11.66-15,0-.28-.22-.5-.5-.5h-14.5v-414h569v39.5c0,.28.22.5.5.5h49.5v49h-49.5c-.28,0-.5.22-.5.5v10c0,.28.22.5.5.5h50c.28,0,.5-.22.5-.5s-.22-.5-.5-.5h-49.5v-9h49.5ZM363.49,883.5h-28.98c.26-7.76,6.66-14,14.49-14s14.23,6.24,14.49,14ZM349,868.5c-7.83,0-14.23-6.24-14.49-14h28.98c-.26,7.76-6.66,14-14.49,14ZM363.49,848.5h-28.98c.26-7.76,6.66-14,14.49-14s14.23,6.24,14.49,14ZM349,833.5c-7.83,0-14.23-6.24-14.49-14h28.98c-.26,7.76-6.66,14-14.49,14ZM363.49,813.5h-28.98c.26-7.76,6.66-14,14.49-14s14.23,6.24,14.49,14ZM349,798.5c-7.83,0-14.23-6.24-14.49-14h28.98c-.26,7.76-6.66,14-14.49,14ZM363.49,778.5h-28.98c.26-7.76,6.66-14,14.49-14s14.23,6.24,14.49,14ZM349,763.5c-7.83,0-14.23-6.24-14.49-14h28.98c-.26,7.76-6.66,14-14.49,14Z"/>
      <path class="cls-3" d="M969,484.5c.28,0,.5-.22.5-.5s-.22-.5-.5-.5h-50c-.28,0-.5.22-.5.5v140c0,.28.22.5.5.5h50c.28,0,.5-.22.5-.5s-.22-.5-.5-.5h-49.5v-139h49.5Z"/>
      <path class="cls-3" d="M969,674.5c.28,0,.5-.22.5-.5s-.22-.5-.5-.5h-50c-.28,0-.5.22-.5.5v140c0,.28.22.5.5.5h50c.28,0,.5-.22.5-.5s-.22-.5-.5-.5h-49.5v-139h49.5Z"/>
    </g>
  </g>
  <g id="Signage">
    <g>
      <path class="cls-3" d="M980.95,465.23c0-3.08.64-3.67,4.2-3.89,9.6-.5,11.03-.73,12.49-1.99,1.04-.92,1.4-2.04,1.4-4.31,0-1.29-.17-2.44-.45-3.08-.48-1.18-1.65-2.04-3.08-2.3-1.18-.2-5.1-.42-7.73-.42-1.79,0-3.61.11-4.79.25-1.65.25-2.69.76-3.44,1.79-.76.98-.92,1.93-.92,5.18h2.38c0-1.71.03-2.18.08-2.6.14-1.12.64-1.68,1.68-1.96.87-.25,3.67-.45,6.08-.45,3.42,0,5.74.22,6.58.67.9.45,1.32,1.46,1.32,3.19,0,1.6-.45,2.46-1.46,2.91-.84.39-1.93.53-6.22.76-2.8.17-4.45.28-4.98.34-1.46.17-2.63.45-3.33.81-1.74.92-2.27,2.32-2.27,5.85,0,.62.03,1.32.06,2.02h20.64v-2.13h-18.23v-.64Z"/>
      <path class="cls-3" d="M1005.76,449.67l-4.94,9.33h3.25l.8-1.58h6.17l.8,1.58h3.23l-4.88-9.33h-4.42ZM1005.87,455.38l1.8-3.54h.56l1.8,3.54h-4.17Z"/>
      <path class="cls-3" d="M980.95,656.23c0-3.08.64-3.67,4.2-3.89,9.6-.5,11.03-.73,12.49-1.99,1.04-.92,1.4-2.04,1.4-4.31,0-1.29-.17-2.44-.45-3.08-.48-1.18-1.65-2.04-3.08-2.3-1.18-.2-5.1-.42-7.73-.42-1.79,0-3.61.11-4.79.25-1.65.25-2.69.76-3.44,1.79-.76.98-.92,1.93-.92,5.18h2.38c0-1.71.03-2.18.08-2.6.14-1.12.64-1.68,1.68-1.96.87-.25,3.67-.45,6.08-.45,3.42,0,5.74.22,6.58.67.9.45,1.32,1.46,1.32,3.19,0,1.6-.45,2.46-1.46,2.91-.84.39-1.93.53-6.22.76-2.8.17-4.45.28-4.98.34-1.46.17-2.63.45-3.33.81-1.74.92-2.27,2.32-2.27,5.85,0,.62.03,1.32.06,2.02h20.64v-2.13h-18.23v-.64Z"/>
      <path class="cls-3" d="M1005.76,640.67l-4.94,9.33h3.25l.8-1.58h6.17l.8,1.58h3.23l-4.88-9.33h-4.42ZM1005.87,646.38l1.8-3.54h.56l1.8,3.54h-4.17Z"/>
      <path class="cls-3" d="M980.95,845.23c0-3.08.64-3.67,4.2-3.89,9.6-.5,11.03-.73,12.49-1.99,1.04-.92,1.4-2.04,1.4-4.31,0-1.29-.17-2.44-.45-3.08-.48-1.18-1.65-2.04-3.08-2.3-1.18-.2-5.1-.42-7.73-.42-1.79,0-3.61.11-4.79.25-1.65.25-2.69.76-3.44,1.79-.76.98-.92,1.93-.92,5.18h2.38c0-1.71.03-2.18.08-2.6.14-1.12.64-1.68,1.68-1.96.87-.25,3.67-.45,6.08-.45,3.42,0,5.74.22,6.58.67.9.45,1.32,1.46,1.32,3.19,0,1.6-.45,2.46-1.46,2.91-.84.39-1.93.53-6.22.76-2.8.17-4.45.28-4.98.34-1.46.17-2.63.45-3.33.81-1.74.92-2.27,2.32-2.27,5.85,0,.62.03,1.32.06,2.02h20.64v-2.13h-18.23v-.64Z"/>
      <path class="cls-3" d="M1005.76,829.67l-4.94,9.33h3.25l.8-1.58h6.17l.8,1.58h3.23l-4.88-9.33h-4.42ZM1005.87,835.38l1.8-3.54h.56l1.8,3.54h-4.17Z"/>
      <path class="cls-3" d="M312.53,802.42c-.39-.64-1.53-.6-1.53.48v28.21c0,1.08,1.14,1.11,1.53.48l8.18-13.4c.2-.33.3-.76.29-1.18,0-.43-.09-.86-.29-1.18l-8.18-13.4Z"/>
      <path class="cls-3" d="M1023.53,473.58l8.18-13.4c.2-.33.3-.76.29-1.18,0-.43-.09-.86-.29-1.18l-8.18-13.4c-.39-.64-1.53-.6-1.53.48v28.21c0,1.08,1.14,1.11,1.53.48Z"/>
      <path class="cls-3" d="M1023.53,634.42c-.39-.64-1.53-.6-1.53.48v28.21c0,1.08,1.14,1.11,1.53.48l8.18-13.4c.2-.33.3-.76.29-1.18,0-.43-.09-.86-.29-1.18l-8.18-13.4Z"/>
      <path class="cls-3" d="M1023.53,823.42c-.39-.64-1.53-.6-1.53.48v28.21c0,1.08,1.14,1.11,1.53.48l8.18-13.4c.2-.33.3-.76.29-1.18,0-.43-.09-.86-.29-1.18l-8.18-13.4Z"/>
      <path class="cls-3" d="M298.91,818.38l1.62,2.49c.38.58,1,.89,1.64.89.37,0,.74-.11,1.07-.32.91-.6,1.16-1.82.56-2.73l-4.06-6.23c-.37,1.75-.7,3.95-.84,5.9Z"/>
      <path class="cls-3" d="M290.54,824.95s0,.09-.01.13c-.01.8-.06,1.6-.09,2.4l-.08,1.88-5.02,8.08c-.62,1-.36,2.32.61,3.01,1,.71,2.39.46,3.09-.55l5.64-8.09-.15-.4-3.99-6.47Z"/>
      <path class="cls-3" d="M298.02,803.77c1.8-.66,2.72-2.67,2.06-4.48-.66-1.81-2.66-2.74-4.46-2.07-1.8.66-2.72,2.67-2.06,4.48.66,1.81,2.66,2.74,4.46,2.07Z"/>
      <path class="cls-3" d="M301.57,828.21c-.04-.11-.09-.22-.14-.32l-.08-.15-4.52-7.92c0-.24,0-.46.01-.7.02-.49.06-.99.1-1.49.09-1.01.22-2.02.37-3.04.15-1.01.34-2.02.55-3,.11-.49.22-.97.35-1.42l.1-.34.08-.26c.03-.14.16-.44.24-.68l.02-.05h0c.58-1.58-.22-3.31-1.78-3.89-1.36-.5-2.85.04-3.59,1.23l-5,5.44c-.18.2-.32.42-.41.68l-2.35,6.63c-.36,1.02.17,2.15,1.19,2.52.22.08.44.12.66.12.81,0,1.56-.5,1.85-1.31l2.01-5.67c-.11.83-.22,1.67-.29,2.52-.05.58-.09,1.16-.12,1.75-.03.59-.04,1.2-.03,1.83h0s0,.16,0,.16c.02.47.17.94.45,1.36l5.46,8.22,3.71,9.09c.48,1.16,1.78,1.77,2.98,1.35,1.24-.43,1.9-1.79,1.48-3.04l-3.3-9.61Z"/>
    </g>
  </g>
  <g id="wv_hall_2C_01" data-name="2C/01" class="ds-stand">
    <rect class="cls-3" x="369" y="690" width="44" height="34" rx="4" ry="4"/>
    <g>
      <path class="cls-1" d="M382.74,715.57c-1.02-1.01-1.53-2.36-1.53-4.06v-9.02c0-1.68.51-3.02,1.53-4.03,1.02-1.01,2.38-1.51,4.07-1.51s3.06.5,4.09,1.51c1.03,1.01,1.54,2.35,1.54,4.03v9.02c0,1.7-.51,3.05-1.54,4.06-1.03,1.01-2.39,1.51-4.09,1.51s-3.06-.5-4.07-1.51ZM388.94,713.9c.54-.57.81-1.32.81-2.25v-9.27c0-.93-.27-1.68-.81-2.25s-1.25-.85-2.13-.85-1.58.28-2.11.85c-.53.57-.8,1.32-.8,2.25v9.27c0,.93.27,1.68.8,2.25.53.57,1.24.85,2.11.85s1.59-.28,2.13-.85Z"/>
      <path class="cls-1" d="M397.96,697.2h2.21c.19,0,.28.09.28.28v19.04c0,.19-.09.28-.28.28h-2.13c-.19,0-.28-.09-.28-.28v-16.41s-.01-.07-.04-.1c-.03-.03-.06-.03-.1-.01l-2.72.87-.11.03c-.11,0-.19-.08-.22-.25l-.11-1.6c0-.15.07-.26.2-.34l2.94-1.43c.11-.06.23-.08.36-.08Z"/>
    </g>
  </g>
  <g id="wv_hall_2C_02" data-name="2C/02" class="ds-stand">
    <rect class="cls-3" x="369" y="650" width="44" height="34" rx="4" ry="4"/>
    <g>
      <path class="cls-1" d="M380.19,675.57c-1.02-1.01-1.53-2.36-1.53-4.06v-9.02c0-1.68.51-3.02,1.53-4.03,1.02-1.01,2.38-1.51,4.07-1.51s3.06.5,4.09,1.51c1.03,1.01,1.54,2.35,1.54,4.03v9.02c0,1.7-.51,3.05-1.54,4.06-1.03,1.01-2.39,1.51-4.09,1.51s-3.06-.5-4.07-1.51ZM386.39,673.9c.54-.57.81-1.32.81-2.25v-9.27c0-.93-.27-1.68-.81-2.25s-1.25-.85-2.13-.85-1.58.28-2.11.85c-.53.57-.8,1.32-.8,2.25v9.27c0,.93.27,1.68.8,2.25.53.57,1.24.85,2.11.85s1.59-.28,2.13-.85Z"/>
      <path class="cls-1" d="M396.05,674.48h7.42c.19,0,.28.09.28.28v1.76c0,.19-.09.28-.28.28h-10.56c-.19,0-.28-.09-.28-.28v-1.79c0-.13.04-.24.11-.34,2.41-3.1,4.28-5.59,5.63-7.48,1.44-2,2.16-3.59,2.16-4.79,0-.86-.24-1.54-.73-2.06-.49-.51-1.13-.77-1.93-.77s-1.41.26-1.89.77c-.48.51-.7,1.19-.69,2.03v.98c0,.19-.09.28-.28.28h-2.16c-.19,0-.28-.09-.28-.28v-1.2c.04-1.47.56-2.66,1.55-3.56s2.26-1.34,3.79-1.34c1.06,0,2,.22,2.8.66.8.44,1.42,1.05,1.86,1.83s.66,1.67.66,2.66c0,1.66-.75,3.55-2.24,5.66-.86,1.21-2.26,3.05-4.2,5.52l-.81,1.04c-.06.09-.04.14.06.14Z"/>
    </g>
  </g>
  <g id="wv_hall_2C_03" data-name="2C/03" class="ds-stand">
    <rect class="cls-3" x="369" y="610" width="44" height="34" rx="4" ry="4"/>
    <g>
      <path class="cls-1" d="M380.32,635.57c-1.02-1.01-1.53-2.36-1.53-4.06v-9.02c0-1.68.51-3.02,1.53-4.03,1.02-1.01,2.38-1.51,4.07-1.51s3.06.5,4.09,1.51c1.03,1.01,1.54,2.35,1.54,4.03v9.02c0,1.7-.51,3.05-1.54,4.06-1.03,1.01-2.39,1.51-4.09,1.51s-3.06-.5-4.07-1.51ZM386.52,633.9c.54-.57.81-1.32.81-2.25v-9.27c0-.93-.27-1.68-.81-2.25-.54-.57-1.25-.85-2.13-.85s-1.58.28-2.11.85-.8,1.32-.8,2.25v9.27c0,.93.27,1.68.8,2.25s1.24.85,2.11.85,1.59-.28,2.13-.85Z"/>
      <path class="cls-1" d="M403.26,630.72c0,1.16-.18,2.19-.53,3.11-.39,1.05-.99,1.84-1.79,2.38-.8.54-1.8.81-3,.81-1.36,0-2.5-.36-3.42-1.08-.91-.72-1.49-1.68-1.74-2.9-.11-.56-.19-1.24-.22-2.04,0-.19.09-.28.28-.28h2.13c.19,0,.28.09.28.28.04.62.09,1.12.17,1.51.15.69.44,1.23.87,1.61.43.38.98.57,1.65.57.62,0,1.13-.16,1.54-.49s.71-.81.9-1.44c.17-.62.25-1.36.25-2.24,0-1.01-.12-1.84-.36-2.49-.21-.58-.5-1.02-.9-1.32-.39-.3-.88-.45-1.46-.45-.28,0-.58.08-.9.25-.07.04-.13.06-.17.06-.07,0-.15-.04-.22-.11l-1.09-1.18c-.06-.06-.08-.12-.08-.2s.03-.14.08-.2l4.26-5.24s.05-.07.03-.1c-.02-.03-.05-.04-.08-.04h-6.66c-.19,0-.28-.09-.28-.28v-1.76c0-.19.09-.28.28-.28h9.83c.19,0,.28.09.28.28v1.85c0,.13-.04.24-.11.34l-3.95,4.96s-.05.07-.03.1.05.04.08.04c.84.07,1.56.34,2.16.8.6.46,1.05,1.08,1.37,1.86.37.91.56,2.02.56,3.3Z"/>
    </g>
  </g>
  <g id="wv_hall_2C_04" data-name="2C/04" class="ds-stand">
    <rect class="cls-3" x="369" y="570" width="44" height="34" rx="4" ry="4"/>
    <g>
      <path class="cls-1" d="M379.84,595.57c-1.02-1.01-1.53-2.36-1.53-4.06v-9.02c0-1.68.51-3.02,1.53-4.03,1.02-1.01,2.38-1.51,4.07-1.51s3.06.5,4.09,1.51c1.03,1.01,1.54,2.35,1.54,4.03v9.02c0,1.7-.51,3.05-1.54,4.06-1.03,1.01-2.39,1.51-4.09,1.51s-3.06-.5-4.07-1.51ZM386.04,593.9c.54-.57.81-1.32.81-2.25v-9.27c0-.93-.27-1.68-.81-2.25-.54-.57-1.25-.85-2.13-.85s-1.58.28-2.11.85-.8,1.32-.8,2.25v9.27c0,.93.27,1.68.8,2.25s1.24.85,2.11.85,1.59-.28,2.13-.85Z"/>
      <path class="cls-1" d="M404.1,589.41v1.88c0,.19-.09.28-.28.28h-1.04c-.08,0-.11.04-.11.11v4.84c0,.19-.09.28-.28.28h-2.13c-.19,0-.28-.09-.28-.28v-4.84c0-.07-.04-.11-.11-.11h-7.7c-.19,0-.28-.09-.28-.28v-1.54c0-.13.02-.24.06-.34l4.79-11.98c.06-.15.16-.22.31-.22h2.3c.09,0,.16.03.2.1.04.07.04.14,0,.24l-4.51,11.45s-.02.07,0,.1c.02.03.05.04.08.04h4.76c.07,0,.11-.04.11-.11v-3.98c0-.19.09-.28.28-.28h2.13c.19,0,.28.09.28.28v3.98c0,.08.04.11.11.11h1.04c.19,0,.28.09.28.28Z"/>
    </g>
  </g>
  <g id="wv_hall_2C_05" data-name="2C/05" class="ds-stand">
    <rect class="cls-3" x="369" y="444" width="44" height="74" rx="4" ry="4"/>
    <g>
      <path class="cls-1" d="M380.32,489.57c-1.02-1.01-1.53-2.36-1.53-4.06v-9.02c0-1.68.51-3.02,1.53-4.03,1.02-1.01,2.38-1.51,4.07-1.51s3.06.5,4.09,1.51c1.03,1.01,1.54,2.35,1.54,4.03v9.02c0,1.7-.51,3.05-1.54,4.06-1.03,1.01-2.39,1.51-4.09,1.51s-3.06-.5-4.07-1.51ZM386.52,487.9c.54-.57.81-1.32.81-2.25v-9.27c0-.93-.27-1.68-.81-2.25-.54-.57-1.25-.85-2.13-.85s-1.58.28-2.11.85-.8,1.32-.8,2.25v9.27c0,.93.27,1.68.8,2.25s1.24.85,2.11.85,1.59-.28,2.13-.85Z"/>
      <path class="cls-1" d="M403.63,484.72c0,.97-.08,1.79-.25,2.46-.32,1.23-.92,2.18-1.81,2.84-.89.66-1.99.99-3.32.99s-2.43-.35-3.32-1.04c-.89-.69-1.48-1.66-1.78-2.91-.11-.48-.18-.86-.2-1.12v-.06c0-.15.08-.22.25-.22h2.16c.19,0,.29.09.31.28.04.3.07.5.11.59.15.69.44,1.22.87,1.58.43.36.96.55,1.6.55s1.17-.19,1.61-.56c.44-.37.73-.91.88-1.6.11-.43.17-1.02.17-1.76s-.07-1.38-.2-1.96c-.15-.63-.44-1.12-.87-1.44-.43-.33-.96-.49-1.6-.49s-1.14.14-1.58.42-.75.7-.94,1.26c-.04.15-.14.22-.31.22h-2.18c-.19,0-.28-.09-.28-.28v-11c0-.19.09-.28.28-.28h9.55c.19,0,.28.09.28.28v1.76c0,.19-.09.28-.28.28h-7.03c-.07,0-.11.04-.11.11l-.03,5.96c0,.09.05.11.14.06.37-.37.83-.66,1.36-.85.53-.2,1.1-.29,1.69-.29,1.1,0,2.03.27,2.8.8.77.53,1.3,1.3,1.6,2.31.28.92.42,1.95.42,3.11Z"/>
    </g>
  </g>
  <g id="wv_hall_2C_06" data-name="2C/06" class="ds-stand">
    <rect class="cls-3" x="419" y="404" width="34" height="44" rx="4" ry="4"/>
    <g>
      <path class="cls-1" d="M425.3,434.57c-1.02-1.01-1.53-2.36-1.53-4.06v-9.02c0-1.68.51-3.02,1.53-4.03,1.02-1.01,2.38-1.51,4.07-1.51s3.06.5,4.09,1.51c1.03,1.01,1.54,2.35,1.54,4.03v9.02c0,1.7-.51,3.05-1.54,4.06-1.03,1.01-2.39,1.51-4.09,1.51s-3.06-.5-4.07-1.51ZM431.51,432.9c.54-.57.81-1.32.81-2.25v-9.27c0-.93-.27-1.68-.81-2.25s-1.25-.85-2.13-.85-1.58.28-2.11.85c-.53.57-.8,1.32-.8,2.25v9.27c0,.93.27,1.68.8,2.25.53.57,1.24.85,2.11.85s1.59-.28,2.13-.85Z"/>
      <path class="cls-1" d="M448.64,429.72c0,.95-.1,1.79-.31,2.52-.32,1.21-.91,2.15-1.76,2.8-.86.65-1.95.98-3.28.98-1.21,0-2.24-.29-3.08-.88-.84-.59-1.43-1.43-1.76-2.53-.34-.75-.5-1.68-.5-2.8l-.03-8.88c0-1.49.49-2.69,1.46-3.6s2.25-1.36,3.84-1.36c1.49,0,2.71.45,3.65,1.34.94.9,1.41,2.07,1.41,3.53v.59c0,.19-.09.28-.28.28h-2.13c-.19,0-.28-.09-.28-.28v-.39c0-.78-.23-1.43-.69-1.95-.46-.51-1.03-.77-1.72-.77-.75,0-1.36.26-1.83.77-.48.51-.71,1.19-.71,2.03v3.53s.01.07.04.08c.03.02.06,0,.1-.03.73-.84,1.7-1.26,2.91-1.26,1.14,0,2.09.3,2.84.9.76.6,1.31,1.42,1.67,2.46.3.84.45,1.81.45,2.91ZM445.93,429.67c0-.88-.09-1.59-.28-2.13-.17-.58-.46-1.03-.87-1.36-.41-.33-.92-.49-1.51-.49s-1.12.16-1.53.49c-.4.33-.69.79-.85,1.39-.17.52-.25,1.23-.25,2.13,0,.77.06,1.41.2,1.93.15.63.43,1.13.85,1.5.42.36.95.55,1.58.55s1.16-.18,1.58-.55c.42-.36.71-.89.88-1.58.13-.5.2-1.13.2-1.88Z"/>
    </g>
  </g>
  <g id="wv_hall_2C_07" data-name="2C/07" class="ds-stand">
    <rect class="cls-3" x="459" y="404" width="34" height="44" rx="4" ry="4"/>
    <g>
      <path class="cls-1" d="M465.88,434.57c-1.02-1.01-1.53-2.36-1.53-4.06v-9.02c0-1.68.51-3.02,1.53-4.03,1.02-1.01,2.38-1.51,4.07-1.51s3.06.5,4.09,1.51c1.03,1.01,1.54,2.35,1.54,4.03v9.02c0,1.7-.51,3.05-1.54,4.06-1.03,1.01-2.39,1.51-4.09,1.51s-3.06-.5-4.07-1.51ZM472.08,432.9c.54-.57.81-1.32.81-2.25v-9.27c0-.93-.27-1.68-.81-2.25-.54-.57-1.25-.85-2.13-.85s-1.58.28-2.11.85c-.53.57-.8,1.32-.8,2.25v9.27c0,.93.27,1.68.8,2.25.53.57,1.24.85,2.11.85s1.59-.28,2.13-.85Z"/>
      <path class="cls-1" d="M480.26,435.49l5.54-16.83s.01-.07-.01-.1-.06-.04-.1-.04h-5.6c-.07,0-.11.04-.11.11v1.2c0,.19-.09.28-.28.28h-1.65c-.19,0-.28-.09-.28-.28v-3.36c0-.19.09-.28.28-.28h10.33c.19,0,.28.09.28.28v1.88c0,.07-.02.19-.06.34l-5.52,16.88c-.06.15-.17.22-.34.22h-2.27c-.21,0-.28-.1-.22-.31Z"/>
    </g>
  </g>
  <g id="wv_hall_2C_08" data-name="2C/08" class="ds-stand">
    <rect class="cls-3" x="499" y="404" width="34" height="44" rx="4" ry="4"/>
    <g>
      <path class="cls-1" d="M505.22,434.57c-1.02-1.01-1.53-2.36-1.53-4.06v-9.02c0-1.68.51-3.02,1.53-4.03,1.02-1.01,2.38-1.51,4.07-1.51s3.06.5,4.09,1.51c1.03,1.01,1.54,2.35,1.54,4.03v9.02c0,1.7-.51,3.05-1.54,4.06-1.03,1.01-2.39,1.51-4.09,1.51s-3.06-.5-4.07-1.51ZM511.42,432.9c.54-.57.81-1.32.81-2.25v-9.27c0-.93-.27-1.68-.81-2.25-.54-.57-1.25-.85-2.13-.85s-1.58.28-2.11.85-.8,1.32-.8,2.25v9.27c0,.93.27,1.68.8,2.25s1.24.85,2.11.85,1.59-.28,2.13-.85Z"/>
      <path class="cls-1" d="M528.42,430.26c0,1.16-.21,2.15-.62,2.97-.41.88-1.02,1.56-1.83,2.06-.81.5-1.77.74-2.87.74s-2.06-.25-2.88-.76c-.82-.5-1.44-1.21-1.85-2.13-.41-.88-.62-1.85-.62-2.91s.18-1.95.53-2.77c.37-.88.98-1.52,1.82-1.93.09-.06.09-.11,0-.17-.65-.39-1.16-.91-1.51-1.54-.47-.77-.7-1.67-.7-2.72s.21-1.92.64-2.69c.43-.78,1.05-1.4,1.85-1.85.8-.45,1.71-.67,2.72-.67s1.96.22,2.74.66c.78.44,1.38,1.06,1.79,1.86.45.8.67,1.7.67,2.69s-.23,1.91-.7,2.72c-.35.63-.86,1.15-1.51,1.54-.09.06-.1.1-.03.14.84.41,1.45,1.06,1.82,1.96.35.77.53,1.7.53,2.8ZM525.76,430.09c0-.75-.1-1.38-.31-1.9-.19-.54-.48-.96-.88-1.26-.4-.3-.89-.45-1.47-.45-1.18,0-1.96.55-2.35,1.65-.21.5-.31,1.16-.31,1.96s.13,1.52.39,2.04c.41,1.05,1.17,1.57,2.27,1.57s1.83-.51,2.24-1.54c.28-.56.42-1.25.42-2.07ZM520.55,421.3c0,.67.13,1.25.39,1.74.21.43.49.77.87,1.01.37.24.8.36,1.29.36s.94-.13,1.32-.38c.37-.25.66-.6.87-1.05.24-.47.36-1.04.36-1.71,0-.58-.11-1.09-.34-1.54-.19-.47-.47-.84-.85-1.11-.38-.27-.85-.41-1.39-.41-.5,0-.95.14-1.34.42-.39.28-.68.65-.87,1.12-.21.5-.31,1.02-.31,1.54Z"/>
    </g>
  </g>
  <g id="wv_hall_2C_09" data-name="2C/09" class="ds-stand">
    <rect class="cls-3" x="539" y="404" width="34" height="44" rx="4" ry="4"/>
    <g>
      <path class="cls-1" d="M545.43,434.57c-1.02-1.01-1.53-2.36-1.53-4.06v-9.02c0-1.68.51-3.02,1.53-4.03,1.02-1.01,2.38-1.51,4.07-1.51s3.06.5,4.09,1.51c1.03,1.01,1.54,2.35,1.54,4.03v9.02c0,1.7-.51,3.05-1.54,4.06-1.03,1.01-2.39,1.51-4.09,1.51s-3.06-.5-4.07-1.51ZM551.63,432.9c.54-.57.81-1.32.81-2.25v-9.27c0-.93-.27-1.68-.81-2.25-.54-.57-1.25-.85-2.13-.85s-1.58.28-2.11.85-.8,1.32-.8,2.25v9.27c0,.93.27,1.68.8,2.25s1.24.85,2.11.85,1.59-.28,2.13-.85Z"/>
      <path class="cls-1" d="M568.15,422.19v8.88c0,1.51-.49,2.72-1.46,3.61-.97.9-2.24,1.34-3.81,1.34s-2.73-.45-3.67-1.34c-.93-.9-1.4-2.07-1.4-3.53v-.59c0-.19.09-.28.28-.28h2.13c.19,0,.28.09.28.28v.39c0,.8.22,1.46.67,1.96.45.5,1.02.76,1.71.76.77,0,1.39-.26,1.86-.77.48-.51.71-1.19.71-2.03v-3.56s-.01-.07-.04-.08c-.03-.02-.06,0-.1.03-.73.86-1.7,1.29-2.91,1.29-1.14,0-2.09-.3-2.86-.9-.77-.6-1.32-1.42-1.65-2.46-.3-.77-.45-1.74-.45-2.91,0-1.05.1-1.89.31-2.52.3-1.21.88-2.15,1.74-2.8.86-.65,1.95-.98,3.28-.98,1.21,0,2.24.29,3.08.88.84.59,1.43,1.43,1.76,2.53.35.78.53,1.72.53,2.8ZM564.33,425.82c.4-.33.69-.79.85-1.39.19-.58.28-1.29.28-2.13,0-.77-.07-1.41-.2-1.93-.17-.65-.46-1.16-.88-1.51-.42-.35-.95-.53-1.58-.53s-1.14.18-1.57.55c-.43.36-.73.89-.9,1.58-.13.62-.2,1.24-.2,1.88,0,.8.09,1.51.28,2.13.39,1.23,1.19,1.85,2.38,1.85.62,0,1.12-.16,1.53-.49Z"/>
    </g>
  </g>
  <g id="wv_hall_2C_10" data-name="2C/10" class="ds-stand">
    <rect class="cls-3" x="599" y="404" width="34" height="44" rx="4" ry="4"/>
    <g>
      <path class="cls-1" d="M608.92,416.2h2.21c.19,0,.28.09.28.28v19.04c0,.19-.09.28-.28.28h-2.13c-.19,0-.28-.09-.28-.28v-16.41s-.01-.07-.04-.1c-.03-.03-.06-.03-.1-.01l-2.72.87-.11.03c-.11,0-.19-.08-.22-.25l-.11-1.6c0-.15.07-.26.2-.34l2.94-1.43c.11-.06.23-.08.36-.08Z"/>
      <path class="cls-1" d="M616.24,434.57c-1.02-1.01-1.53-2.36-1.53-4.06v-9.02c0-1.68.51-3.02,1.53-4.03,1.02-1.01,2.38-1.51,4.07-1.51s3.06.5,4.09,1.51c1.03,1.01,1.54,2.35,1.54,4.03v9.02c0,1.7-.51,3.05-1.54,4.06-1.03,1.01-2.39,1.51-4.09,1.51s-3.06-.5-4.07-1.51ZM622.44,432.9c.54-.57.81-1.32.81-2.25v-9.27c0-.93-.27-1.68-.81-2.25s-1.25-.85-2.13-.85-1.58.28-2.11.85c-.53.57-.8,1.32-.8,2.25v9.27c0,.93.27,1.68.8,2.25.53.57,1.24.85,2.11.85s1.59-.28,2.13-.85Z"/>
    </g>
  </g>
  <g id="wv_hall_2C_11" data-name="2C/11" class="ds-stand">
    <rect class="cls-3" x="639" y="404" width="34" height="44" rx="4" ry="4"/>
    <g>
      <path class="cls-1" d="M651.77,416.2h2.21c.19,0,.28.09.28.28v19.04c0,.19-.09.28-.28.28h-2.13c-.19,0-.28-.09-.28-.28v-16.41s-.01-.07-.04-.1c-.03-.03-.06-.03-.1-.01l-2.72.87-.11.03c-.11,0-.19-.08-.22-.25l-.11-1.6c0-.15.06-.26.2-.34l2.94-1.43c.11-.06.23-.08.36-.08Z"/>
      <path class="cls-1" d="M660.26,416.2h2.21c.19,0,.28.09.28.28v19.04c0,.19-.09.28-.28.28h-2.13c-.19,0-.28-.09-.28-.28v-16.41s-.01-.07-.04-.1c-.03-.03-.06-.03-.1-.01l-2.72.87-.11.03c-.11,0-.19-.08-.22-.25l-.11-1.6c0-.15.07-.26.2-.34l2.94-1.43c.11-.06.23-.08.36-.08Z"/>
    </g>
  </g>
  <g id="wv_hall_2C_12" data-name="2C/12" class="ds-stand">
    <rect class="cls-3" x="679" y="404" width="34" height="44" rx="4" ry="4"/>
    <g>
      <path class="cls-1" d="M689.28,416.2h2.21c.19,0,.28.09.28.28v19.04c0,.19-.09.28-.28.28h-2.13c-.19,0-.28-.09-.28-.28v-16.41s-.01-.07-.04-.1c-.03-.03-.06-.03-.1-.01l-2.72.87-.11.03c-.11,0-.19-.08-.22-.25l-.11-1.6c0-.15.07-.26.2-.34l2.94-1.43c.11-.06.23-.08.36-.08Z"/>
      <path class="cls-1" d="M698.3,433.48h7.42c.19,0,.28.09.28.28v1.76c0,.19-.09.28-.28.28h-10.56c-.19,0-.28-.09-.28-.28v-1.79c0-.13.04-.24.11-.34,2.41-3.1,4.28-5.59,5.63-7.48,1.44-2,2.16-3.59,2.16-4.79,0-.86-.24-1.54-.73-2.06-.49-.51-1.13-.77-1.93-.77s-1.41.26-1.89.77c-.48.51-.7,1.19-.69,2.03v.98c0,.19-.09.28-.28.28h-2.16c-.19,0-.28-.09-.28-.28v-1.2c.04-1.47.56-2.66,1.55-3.56s2.26-1.34,3.79-1.34c1.06,0,2,.22,2.8.66.8.44,1.42,1.05,1.86,1.83s.66,1.67.66,2.66c0,1.66-.75,3.55-2.24,5.66-.86,1.21-2.26,3.05-4.2,5.52l-.81,1.04c-.06.09-.04.14.06.14Z"/>
    </g>
  </g>
  <g id="wv_hall_2C_13" data-name="2C/13" class="ds-stand">
    <rect class="cls-3" x="719" y="404" width="34" height="44" rx="4" ry="4"/>
    <g>
      <path class="cls-1" d="M729.42,416.2h2.21c.19,0,.28.09.28.28v19.04c0,.19-.09.28-.28.28h-2.13c-.19,0-.28-.09-.28-.28v-16.41s-.01-.07-.04-.1c-.03-.03-.06-.03-.1-.01l-2.72.87-.11.03c-.11,0-.19-.08-.22-.25l-.11-1.6c0-.15.06-.26.2-.34l2.94-1.43c.11-.06.23-.08.36-.08Z"/>
      <path class="cls-1" d="M745.49,429.72c0,1.16-.18,2.19-.53,3.11-.39,1.05-.99,1.84-1.79,2.38-.8.54-1.8.81-3,.81-1.36,0-2.5-.36-3.42-1.08-.92-.72-1.49-1.68-1.74-2.9-.11-.56-.19-1.24-.22-2.04,0-.19.09-.28.28-.28h2.13c.19,0,.28.09.28.28.04.62.09,1.12.17,1.51.15.69.44,1.23.87,1.61.43.38.98.57,1.65.57.62,0,1.13-.16,1.54-.49.41-.33.71-.81.9-1.44.17-.62.25-1.36.25-2.24,0-1.01-.12-1.84-.36-2.49-.21-.58-.5-1.02-.9-1.32-.39-.3-.88-.45-1.46-.45-.28,0-.58.08-.9.25-.08.04-.13.06-.17.06-.08,0-.15-.04-.22-.11l-1.09-1.18c-.06-.06-.08-.12-.08-.2s.03-.14.08-.2l4.26-5.24s.05-.07.03-.1c-.02-.03-.05-.04-.08-.04h-6.66c-.19,0-.28-.09-.28-.28v-1.76c0-.19.09-.28.28-.28h9.83c.19,0,.28.09.28.28v1.85c0,.13-.04.24-.11.34l-3.95,4.96s-.05.07-.03.1c.02.03.05.04.08.04.84.07,1.56.34,2.16.8.6.46,1.05,1.08,1.37,1.86.37.91.56,2.02.56,3.3Z"/>
    </g>
  </g>
  <g id="wv_hall_2C_14" data-name="2C/14" class="ds-stand">
    <rect class="cls-3" x="759" y="404" width="34" height="44" rx="4" ry="4"/>
    <g>
      <path class="cls-1" d="M768.94,416.2h2.21c.19,0,.28.09.28.28v19.04c0,.19-.09.28-.28.28h-2.13c-.19,0-.28-.09-.28-.28v-16.41s-.01-.07-.04-.1-.06-.03-.1-.01l-2.72.87-.11.03c-.11,0-.19-.08-.22-.25l-.11-1.6c0-.15.07-.26.2-.34l2.94-1.43c.11-.06.23-.08.36-.08Z"/>
      <path class="cls-1" d="M786.33,428.41v1.88c0,.19-.09.28-.28.28h-1.04c-.07,0-.11.04-.11.11v4.84c0,.19-.09.28-.28.28h-2.13c-.19,0-.28-.09-.28-.28v-4.84c0-.07-.04-.11-.11-.11h-7.7c-.19,0-.28-.09-.28-.28v-1.54c0-.13.02-.24.06-.34l4.79-11.98c.06-.15.16-.22.31-.22h2.3c.09,0,.16.03.2.1s.04.14,0,.24l-4.51,11.45s-.02.07,0,.1c.02.03.05.04.08.04h4.76c.07,0,.11-.04.11-.11v-3.98c0-.19.09-.28.28-.28h2.13c.19,0,.28.09.28.28v3.98c0,.08.04.11.11.11h1.04c.19,0,.28.09.28.28Z"/>
    </g>
  </g>
  <g id="wv_hall_2C_15" data-name="2C/15" class="ds-stand">
    <rect class="cls-3" x="799" y="404" width="74" height="44" rx="4" ry="4"/>
    <g>
      <path class="cls-1" d="M829.42,416.2h2.21c.19,0,.28.09.28.28v19.04c0,.19-.09.28-.28.28h-2.13c-.19,0-.28-.09-.28-.28v-16.41s-.01-.07-.04-.1c-.03-.03-.06-.03-.1-.01l-2.72.87-.11.03c-.11,0-.19-.08-.22-.25l-.11-1.6c0-.15.07-.26.2-.34l2.94-1.43c.11-.06.23-.08.36-.08Z"/>
      <path class="cls-1" d="M845.86,429.72c0,.97-.08,1.79-.25,2.46-.32,1.23-.92,2.18-1.81,2.84s-1.99.99-3.32.99-2.43-.35-3.32-1.04c-.89-.69-1.48-1.66-1.78-2.91-.11-.48-.18-.86-.2-1.12v-.06c0-.15.08-.22.25-.22h2.16c.19,0,.29.09.31.28.04.3.07.5.11.59.15.69.44,1.22.87,1.58.43.36.96.55,1.6.55s1.17-.19,1.61-.56c.44-.37.73-.91.88-1.6.11-.43.17-1.02.17-1.76s-.07-1.38-.2-1.96c-.15-.63-.44-1.12-.87-1.44-.43-.33-.96-.49-1.6-.49s-1.14.14-1.58.42c-.44.28-.75.7-.94,1.26-.04.15-.14.22-.31.22h-2.18c-.19,0-.28-.09-.28-.28v-11c0-.19.09-.28.28-.28h9.55c.19,0,.28.09.28.28v1.76c0,.19-.09.28-.28.28h-7.03c-.07,0-.11.04-.11.11l-.03,5.96c0,.09.05.11.14.06.37-.37.83-.66,1.36-.85.53-.2,1.1-.29,1.69-.29,1.1,0,2.03.27,2.8.8.77.53,1.3,1.3,1.6,2.31.28.92.42,1.95.42,3.11Z"/>
    </g>
  </g>
  <g id="wv_hall_2C_16" data-name="2C/16" class="ds-stand">
    <rect class="cls-3" x="459" y="474" width="34" height="44" rx="4" ry="4"/>
    <g>
      <path class="cls-1" d="M469.41,486.2h2.21c.19,0,.28.09.28.28v19.04c0,.19-.09.28-.28.28h-2.13c-.19,0-.28-.09-.28-.28v-16.41s-.01-.07-.04-.1c-.03-.03-.06-.03-.1-.01l-2.72.87-.11.03c-.11,0-.19-.08-.22-.25l-.11-1.6c0-.15.07-.26.2-.34l2.94-1.43c.11-.06.23-.08.36-.08Z"/>
      <path class="cls-1" d="M485.87,499.72c0,.95-.1,1.79-.31,2.52-.32,1.21-.91,2.15-1.76,2.8-.86.65-1.95.98-3.28.98-1.21,0-2.24-.29-3.08-.88-.84-.59-1.43-1.43-1.76-2.53-.34-.75-.5-1.68-.5-2.8l-.03-8.88c0-1.49.48-2.69,1.46-3.6.97-.91,2.25-1.36,3.84-1.36,1.49,0,2.71.45,3.65,1.34.94.9,1.41,2.07,1.41,3.53v.59c0,.19-.09.28-.28.28h-2.13c-.19,0-.28-.09-.28-.28v-.39c0-.78-.23-1.43-.69-1.95-.46-.51-1.03-.77-1.72-.77-.75,0-1.36.26-1.83.77-.48.51-.71,1.19-.71,2.03v3.53s.01.07.04.08c.03.02.06,0,.1-.03.73-.84,1.7-1.26,2.91-1.26,1.14,0,2.09.3,2.84.9.76.6,1.31,1.42,1.67,2.46.3.84.45,1.81.45,2.91ZM483.15,499.67c0-.88-.09-1.59-.28-2.13-.17-.58-.46-1.03-.87-1.36-.41-.33-.91-.49-1.51-.49s-1.12.16-1.53.49c-.4.33-.69.79-.85,1.39-.17.52-.25,1.23-.25,2.13,0,.77.07,1.41.2,1.93.15.63.43,1.13.85,1.5.42.36.95.55,1.58.55s1.16-.18,1.58-.55c.42-.36.71-.89.88-1.58.13-.5.2-1.13.2-1.88Z"/>
    </g>
  </g>
  <g id="wv_hall_2C_17" data-name="2C/17" class="ds-stand">
    <rect class="cls-3" x="499" y="474" width="34" height="44" rx="4" ry="4"/>
    <g>
      <path class="cls-1" d="M509.98,486.2h2.21c.19,0,.28.09.28.28v19.04c0,.19-.09.28-.28.28h-2.13c-.19,0-.28-.09-.28-.28v-16.41s-.01-.07-.04-.1c-.03-.03-.06-.03-.1-.01l-2.72.87-.11.03c-.11,0-.19-.08-.22-.25l-.11-1.6c0-.15.06-.26.2-.34l2.94-1.43c.11-.06.23-.08.36-.08Z"/>
      <path class="cls-1" d="M517.48,505.49l5.54-16.83s.01-.07-.01-.1c-.03-.03-.06-.04-.1-.04h-5.6c-.07,0-.11.04-.11.11v1.2c0,.19-.09.28-.28.28h-1.65c-.19,0-.28-.09-.28-.28v-3.36c0-.19.09-.28.28-.28h10.33c.19,0,.28.09.28.28v1.88c0,.07-.02.19-.06.34l-5.52,16.88c-.06.15-.17.22-.34.22h-2.27c-.21,0-.28-.1-.22-.31Z"/>
    </g>
  </g>
  <g id="wv_hall_2C_18" data-name="2C/18" class="ds-stand">
    <rect class="cls-3" x="459" y="524" width="74" height="44" rx="4" ry="4"/>
    <g>
      <path class="cls-1" d="M489.32,536.2h2.21c.19,0,.28.09.28.28v19.04c0,.19-.09.28-.28.28h-2.13c-.19,0-.28-.09-.28-.28v-16.41s-.01-.07-.04-.1-.06-.03-.1-.01l-2.72.87-.11.03c-.11,0-.19-.08-.22-.25l-.11-1.6c0-.15.06-.26.2-.34l2.94-1.43c.11-.06.23-.08.36-.08Z"/>
      <path class="cls-1" d="M505.65,550.26c0,1.16-.21,2.15-.62,2.97-.41.88-1.02,1.56-1.83,2.06-.81.5-1.77.74-2.87.74s-2.06-.25-2.88-.76c-.82-.5-1.44-1.21-1.85-2.13-.41-.88-.62-1.85-.62-2.91s.18-1.95.53-2.77c.37-.88.98-1.52,1.82-1.93.09-.06.09-.11,0-.17-.65-.39-1.16-.91-1.51-1.54-.47-.77-.7-1.67-.7-2.72s.21-1.92.64-2.69c.43-.78,1.05-1.4,1.85-1.85.8-.45,1.71-.67,2.72-.67s1.96.22,2.74.66c.78.44,1.38,1.06,1.79,1.86.45.8.67,1.7.67,2.69s-.23,1.91-.7,2.72c-.35.63-.86,1.15-1.51,1.54-.09.06-.1.1-.03.14.84.41,1.45,1.06,1.82,1.96.35.77.53,1.7.53,2.8ZM502.99,550.09c0-.75-.1-1.38-.31-1.9-.19-.54-.48-.96-.88-1.26-.4-.3-.89-.45-1.47-.45-1.18,0-1.96.55-2.35,1.65-.21.5-.31,1.16-.31,1.96s.13,1.52.39,2.04c.41,1.05,1.17,1.57,2.27,1.57s1.83-.51,2.24-1.54c.28-.56.42-1.25.42-2.07ZM497.78,541.3c0,.67.13,1.25.39,1.74.21.43.49.77.87,1.01.37.24.8.36,1.29.36s.94-.13,1.32-.38c.37-.25.66-.6.87-1.05.24-.47.36-1.04.36-1.71,0-.58-.11-1.09-.34-1.54-.19-.47-.47-.84-.85-1.11-.38-.27-.85-.41-1.39-.41-.5,0-.95.14-1.34.42-.39.28-.68.65-.87,1.12-.21.5-.31,1.02-.31,1.54Z"/>
    </g>
  </g>
  <g id="wv_hall_2C_19" data-name="2C/19" class="ds-stand">
    <rect class="cls-3" x="559" y="474" width="34" height="44" rx="4" ry="4"/>
    <g>
      <path class="cls-1" d="M569.53,486.2h2.21c.19,0,.28.09.28.28v19.04c0,.19-.09.28-.28.28h-2.13c-.19,0-.28-.09-.28-.28v-16.41s-.01-.07-.04-.1-.06-.03-.1-.01l-2.72.87-.11.03c-.11,0-.19-.08-.22-.25l-.11-1.6c0-.15.07-.26.2-.34l2.94-1.43c.11-.06.23-.08.36-.08Z"/>
      <path class="cls-1" d="M585.38,492.19v8.88c0,1.51-.49,2.72-1.46,3.61-.97.9-2.24,1.34-3.81,1.34s-2.73-.45-3.67-1.34c-.93-.9-1.4-2.07-1.4-3.53v-.59c0-.19.09-.28.28-.28h2.13c.19,0,.28.09.28.28v.39c0,.8.22,1.46.67,1.96.45.5,1.02.76,1.71.76.77,0,1.39-.26,1.86-.77.48-.51.71-1.19.71-2.03v-3.56s-.01-.07-.04-.08c-.03-.02-.06,0-.1.03-.73.86-1.7,1.29-2.91,1.29-1.14,0-2.09-.3-2.86-.9-.77-.6-1.32-1.42-1.65-2.46-.3-.77-.45-1.74-.45-2.91,0-1.05.1-1.89.31-2.52.3-1.21.88-2.15,1.74-2.8.86-.65,1.95-.98,3.28-.98,1.21,0,2.24.29,3.08.88.84.59,1.43,1.43,1.76,2.53.35.78.53,1.72.53,2.8ZM581.56,495.82c.4-.33.69-.79.85-1.39.19-.58.28-1.29.28-2.13,0-.77-.07-1.41-.2-1.93-.17-.65-.46-1.16-.88-1.51-.42-.35-.95-.53-1.58-.53s-1.14.18-1.57.55c-.43.36-.73.89-.9,1.58-.13.62-.2,1.24-.2,1.88,0,.8.09,1.51.28,2.13.39,1.23,1.19,1.85,2.38,1.85.62,0,1.12-.16,1.53-.49Z"/>
    </g>
  </g>
  <g id="wv_hall_2C_20" data-name="2C/20" class="ds-stand">
    <rect class="cls-3" x="599" y="474" width="34" height="44" rx="4" ry="4"/>
    <g>
      <path class="cls-1" d="M606.86,503.48h7.42c.19,0,.28.09.28.28v1.76c0,.19-.09.28-.28.28h-10.56c-.19,0-.28-.09-.28-.28v-1.79c0-.13.04-.24.11-.34,2.41-3.1,4.28-5.59,5.63-7.48,1.44-2,2.16-3.59,2.16-4.79,0-.86-.24-1.54-.73-2.06-.49-.51-1.13-.77-1.93-.77s-1.41.26-1.89.77c-.48.51-.71,1.19-.69,2.03v.98c0,.19-.09.28-.28.28h-2.16c-.19,0-.28-.09-.28-.28v-1.2c.04-1.47.56-2.66,1.55-3.56,1-.9,2.26-1.34,3.79-1.34,1.06,0,2,.22,2.8.66.8.44,1.42,1.05,1.86,1.83.44.78.66,1.67.66,2.66,0,1.66-.75,3.55-2.24,5.66-.86,1.21-2.26,3.05-4.2,5.52l-.81,1.04c-.06.09-.04.14.06.14Z"/>
      <path class="cls-1" d="M618.63,504.57c-1.02-1.01-1.53-2.36-1.53-4.06v-9.02c0-1.68.51-3.02,1.53-4.03,1.02-1.01,2.38-1.51,4.07-1.51s3.06.5,4.09,1.51c1.03,1.01,1.54,2.35,1.54,4.03v9.02c0,1.7-.51,3.05-1.54,4.06-1.03,1.01-2.39,1.51-4.09,1.51s-3.06-.5-4.07-1.51ZM624.83,502.9c.54-.57.81-1.32.81-2.25v-9.27c0-.93-.27-1.68-.81-2.25-.54-.57-1.25-.85-2.13-.85s-1.58.28-2.11.85c-.53.57-.8,1.32-.8,2.25v9.27c0,.93.27,1.68.8,2.25.53.57,1.24.85,2.11.85s1.59-.28,2.13-.85Z"/>
    </g>
  </g>
  <g id="wv_hall_2C_21" data-name="2C/21" class="ds-stand">
    <rect class="cls-3" x="559" y="524" width="34" height="44" rx="4" ry="4"/>
    <g>
      <path class="cls-1" d="M569.9,553.48h7.42c.19,0,.28.09.28.28v1.76c0,.19-.09.28-.28.28h-10.56c-.19,0-.28-.09-.28-.28v-1.79c0-.13.04-.24.11-.34,2.41-3.1,4.28-5.59,5.63-7.48,1.44-2,2.16-3.59,2.16-4.79,0-.86-.24-1.54-.73-2.06-.49-.51-1.13-.77-1.93-.77s-1.41.26-1.89.77c-.48.51-.71,1.19-.69,2.03v.98c0,.19-.09.28-.28.28h-2.16c-.19,0-.28-.09-.28-.28v-1.2c.04-1.47.56-2.66,1.55-3.56,1-.9,2.26-1.34,3.79-1.34,1.06,0,2,.22,2.8.66.8.44,1.42,1.05,1.86,1.83.44.78.66,1.67.66,2.66,0,1.66-.75,3.55-2.24,5.66-.86,1.21-2.26,3.05-4.2,5.52l-.81,1.04c-.06.09-.04.14.06.14Z"/>
      <path class="cls-1" d="M582.47,536.2h2.21c.19,0,.28.09.28.28v19.04c0,.19-.09.28-.28.28h-2.13c-.19,0-.28-.09-.28-.28v-16.41s-.01-.07-.04-.1c-.03-.03-.06-.03-.1-.01l-2.72.87-.11.03c-.11,0-.19-.08-.22-.25l-.11-1.6c0-.15.06-.26.2-.34l2.94-1.43c.11-.06.23-.08.36-.08Z"/>
    </g>
  </g>
  <g id="wv_hall_2C_22" data-name="2C/22" class="ds-stand">
    <rect class="cls-3" x="599" y="524" width="34" height="44" rx="4" ry="4"/>
    <g>
      <path class="cls-1" d="M607.24,553.48h7.42c.19,0,.28.09.28.28v1.76c0,.19-.09.28-.28.28h-10.56c-.19,0-.28-.09-.28-.28v-1.79c0-.13.04-.24.11-.34,2.41-3.1,4.28-5.59,5.63-7.48,1.44-2,2.16-3.59,2.16-4.79,0-.86-.24-1.54-.73-2.06-.49-.51-1.13-.77-1.93-.77s-1.41.26-1.89.77c-.48.51-.71,1.19-.69,2.03v.98c0,.19-.09.28-.28.28h-2.16c-.19,0-.28-.09-.28-.28v-1.2c.04-1.47.56-2.66,1.55-3.56,1-.9,2.26-1.34,3.79-1.34,1.06,0,2,.22,2.8.66.8.44,1.42,1.05,1.86,1.83.44.78.66,1.67.66,2.66,0,1.66-.75,3.55-2.24,5.66-.86,1.21-2.26,3.05-4.2,5.52l-.81,1.04c-.06.09-.04.14.06.14Z"/>
      <path class="cls-1" d="M620.68,553.48h7.42c.19,0,.28.09.28.28v1.76c0,.19-.09.28-.28.28h-10.56c-.19,0-.28-.09-.28-.28v-1.79c0-.13.04-.24.11-.34,2.41-3.1,4.28-5.59,5.63-7.48,1.44-2,2.16-3.59,2.16-4.79,0-.86-.24-1.54-.73-2.06-.49-.51-1.13-.77-1.93-.77s-1.41.26-1.89.77c-.48.51-.7,1.19-.69,2.03v.98c0,.19-.09.28-.28.28h-2.16c-.19,0-.28-.09-.28-.28v-1.2c.04-1.47.56-2.66,1.55-3.56s2.26-1.34,3.79-1.34c1.06,0,2,.22,2.8.66.8.44,1.42,1.05,1.86,1.83s.66,1.67.66,2.66c0,1.66-.75,3.55-2.24,5.66-.86,1.21-2.26,3.05-4.2,5.52l-.81,1.04c-.06.09-.04.14.06.14Z"/>
    </g>
  </g>
  <g id="wv_hall_2C_23" data-name="2C/23" class="ds-stand">
    <rect class="cls-3" x="679" y="474" width="74" height="44" rx="4" ry="4"/>
    <g>
      <path class="cls-1" d="M707.42,503.48h7.42c.19,0,.28.09.28.28v1.76c0,.19-.09.28-.28.28h-10.56c-.19,0-.28-.09-.28-.28v-1.79c0-.13.04-.24.11-.34,2.41-3.1,4.28-5.59,5.63-7.48,1.44-2,2.16-3.59,2.16-4.79,0-.86-.24-1.54-.73-2.06-.49-.51-1.13-.77-1.93-.77s-1.41.26-1.89.77c-.48.51-.7,1.19-.69,2.03v.98c0,.19-.09.28-.28.28h-2.16c-.19,0-.28-.09-.28-.28v-1.2c.04-1.47.56-2.66,1.55-3.56s2.26-1.34,3.79-1.34c1.06,0,2,.22,2.8.66.8.44,1.42,1.05,1.86,1.83s.66,1.67.66,2.66c0,1.66-.75,3.55-2.24,5.66-.86,1.21-2.26,3.05-4.2,5.52l-.81,1.04c-.06.09-.04.14.06.14Z"/>
      <path class="cls-1" d="M727.83,499.72c0,1.16-.18,2.19-.53,3.11-.39,1.05-.99,1.84-1.79,2.38-.8.54-1.8.81-3,.81-1.36,0-2.5-.36-3.42-1.08-.92-.72-1.49-1.68-1.74-2.9-.11-.56-.19-1.24-.22-2.04,0-.19.09-.28.28-.28h2.13c.19,0,.28.09.28.28.04.62.09,1.12.17,1.51.15.69.44,1.23.87,1.61.43.38.98.57,1.65.57.62,0,1.13-.16,1.54-.49.41-.33.71-.81.9-1.44.17-.62.25-1.36.25-2.24,0-1.01-.12-1.84-.36-2.49-.21-.58-.5-1.02-.9-1.32-.39-.3-.88-.45-1.46-.45-.28,0-.58.08-.9.25-.07.04-.13.06-.17.06-.07,0-.15-.04-.22-.11l-1.09-1.18c-.06-.06-.08-.12-.08-.2s.03-.14.08-.2l4.26-5.24s.05-.07.03-.1c-.02-.03-.05-.04-.08-.04h-6.66c-.19,0-.28-.09-.28-.28v-1.76c0-.19.09-.28.28-.28h9.83c.19,0,.28.09.28.28v1.85c0,.13-.04.24-.11.34l-3.95,4.96s-.05.07-.03.1.05.04.08.04c.84.07,1.56.34,2.16.8.6.46,1.05,1.08,1.37,1.86.37.91.56,2.02.56,3.3Z"/>
    </g>
  </g>
  <g id="wv_hall_2C_24" data-name="2C/24" class="ds-stand">
    <rect class="cls-3" x="679" y="524" width="34" height="44" rx="4" ry="4"/>
    <g>
      <path class="cls-1" d="M686.89,553.48h7.42c.19,0,.28.09.28.28v1.76c0,.19-.09.28-.28.28h-10.56c-.19,0-.28-.09-.28-.28v-1.79c0-.13.04-.24.11-.34,2.41-3.1,4.28-5.59,5.63-7.48,1.44-2,2.16-3.59,2.16-4.79,0-.86-.24-1.54-.73-2.06-.49-.51-1.13-.77-1.93-.77s-1.41.26-1.89.77c-.48.51-.71,1.19-.69,2.03v.98c0,.19-.09.28-.28.28h-2.16c-.19,0-.28-.09-.28-.28v-1.2c.04-1.47.56-2.66,1.55-3.56s2.26-1.34,3.79-1.34c1.06,0,2,.22,2.8.66.8.44,1.42,1.05,1.86,1.83.44.78.66,1.67.66,2.66,0,1.66-.75,3.55-2.24,5.66-.86,1.21-2.26,3.05-4.2,5.52l-.81,1.04c-.06.09-.04.14.06.14Z"/>
      <path class="cls-1" d="M708.73,548.41v1.88c0,.19-.09.28-.28.28h-1.04c-.07,0-.11.04-.11.11v4.84c0,.19-.09.28-.28.28h-2.13c-.19,0-.28-.09-.28-.28v-4.84c0-.07-.04-.11-.11-.11h-7.7c-.19,0-.28-.09-.28-.28v-1.54c0-.13.02-.24.06-.34l4.79-11.98c.06-.15.16-.22.31-.22h2.3c.09,0,.16.03.2.1.04.07.04.14,0,.24l-4.51,11.45s-.02.07,0,.1c.02.03.05.04.08.04h4.76c.07,0,.11-.04.11-.11v-3.98c0-.19.09-.28.28-.28h2.13c.19,0,.28.09.28.28v3.98c0,.08.04.11.11.11h1.04c.19,0,.28.09.28.28Z"/>
    </g>
  </g>
  <g id="wv_hall_2C_25" data-name="2C/25" class="ds-stand">
    <rect class="cls-3" x="719" y="524" width="34" height="44" rx="4" ry="4"/>
    <g>
      <path class="cls-1" d="M727.36,553.48h7.42c.19,0,.28.09.28.28v1.76c0,.19-.09.28-.28.28h-10.56c-.19,0-.28-.09-.28-.28v-1.79c0-.13.04-.24.11-.34,2.41-3.1,4.28-5.59,5.63-7.48,1.44-2,2.16-3.59,2.16-4.79,0-.86-.24-1.54-.73-2.06-.49-.51-1.13-.77-1.93-.77s-1.41.26-1.89.77c-.48.51-.71,1.19-.69,2.03v.98c0,.19-.09.28-.28.28h-2.16c-.19,0-.28-.09-.28-.28v-1.2c.04-1.47.56-2.66,1.55-3.56,1-.9,2.26-1.34,3.79-1.34,1.06,0,2,.22,2.8.66.8.44,1.42,1.05,1.86,1.83.44.78.66,1.67.66,2.66,0,1.66-.75,3.55-2.24,5.66-.86,1.21-2.26,3.05-4.2,5.52l-.81,1.04c-.06.09-.04.14.06.14Z"/>
      <path class="cls-1" d="M748.25,549.72c0,.97-.08,1.79-.25,2.46-.32,1.23-.92,2.18-1.81,2.84-.89.66-1.99.99-3.32.99s-2.43-.35-3.32-1.04c-.89-.69-1.48-1.66-1.78-2.91-.11-.48-.18-.86-.2-1.12v-.06c0-.15.08-.22.25-.22h2.16c.19,0,.29.09.31.28.04.3.07.5.11.59.15.69.44,1.22.87,1.58.43.36.96.55,1.6.55s1.17-.19,1.61-.56c.44-.37.73-.91.88-1.6.11-.43.17-1.02.17-1.76s-.07-1.38-.2-1.96c-.15-.63-.44-1.12-.87-1.44-.43-.33-.96-.49-1.6-.49s-1.14.14-1.58.42-.75.7-.94,1.26c-.04.15-.14.22-.31.22h-2.18c-.19,0-.28-.09-.28-.28v-11c0-.19.09-.28.28-.28h9.55c.19,0,.28.09.28.28v1.76c0,.19-.09.28-.28.28h-7.03c-.07,0-.11.04-.11.11l-.03,5.96c0,.09.05.11.14.06.37-.37.83-.66,1.36-.85.53-.2,1.1-.29,1.69-.29,1.1,0,2.03.27,2.8.8.77.53,1.3,1.3,1.6,2.31.28.92.42,1.95.42,3.11Z"/>
    </g>
  </g>
  <g id="wv_hall_2C_26" data-name="2C/26" class="ds-stand">
    <rect class="cls-3" x="799" y="474" width="74" height="44" rx="4" ry="4"/>
    <g>
      <path class="cls-1" d="M827.35,503.48h7.42c.19,0,.28.09.28.28v1.76c0,.19-.09.28-.28.28h-10.56c-.19,0-.28-.09-.28-.28v-1.79c0-.13.04-.24.11-.34,2.41-3.1,4.28-5.59,5.63-7.48,1.44-2,2.16-3.59,2.16-4.79,0-.86-.24-1.54-.73-2.06-.49-.51-1.13-.77-1.93-.77s-1.41.26-1.89.77c-.48.51-.71,1.19-.69,2.03v.98c0,.19-.09.28-.28.28h-2.16c-.19,0-.28-.09-.28-.28v-1.2c.04-1.47.56-2.66,1.55-3.56s2.26-1.34,3.79-1.34c1.06,0,2,.22,2.8.66.8.44,1.42,1.05,1.86,1.83.44.78.66,1.67.66,2.66,0,1.66-.75,3.55-2.24,5.66-.86,1.21-2.26,3.05-4.2,5.52l-.81,1.04c-.06.09-.04.14.06.14Z"/>
      <path class="cls-1" d="M848.26,499.72c0,.95-.1,1.79-.31,2.52-.32,1.21-.91,2.15-1.76,2.8-.86.65-1.95.98-3.28.98-1.21,0-2.24-.29-3.08-.88-.84-.59-1.43-1.43-1.76-2.53-.34-.75-.5-1.68-.5-2.8l-.03-8.88c0-1.49.49-2.69,1.46-3.6.97-.91,2.25-1.36,3.84-1.36,1.49,0,2.71.45,3.65,1.34.94.9,1.41,2.07,1.41,3.53v.59c0,.19-.09.28-.28.28h-2.13c-.19,0-.28-.09-.28-.28v-.39c0-.78-.23-1.43-.69-1.95-.46-.51-1.03-.77-1.72-.77-.75,0-1.36.26-1.83.77-.48.51-.71,1.19-.71,2.03v3.53s.01.07.04.08c.03.02.06,0,.1-.03.73-.84,1.7-1.26,2.91-1.26,1.14,0,2.09.3,2.84.9.76.6,1.31,1.42,1.67,2.46.3.84.45,1.81.45,2.91ZM845.55,499.67c0-.88-.09-1.59-.28-2.13-.17-.58-.46-1.03-.87-1.36-.41-.33-.91-.49-1.51-.49s-1.12.16-1.53.49c-.4.33-.69.79-.85,1.39-.17.52-.25,1.23-.25,2.13,0,.77.07,1.41.2,1.93.15.63.43,1.13.85,1.5.42.36.95.55,1.58.55s1.16-.18,1.58-.55c.42-.36.71-.89.88-1.58.13-.5.2-1.13.2-1.88Z"/>
    </g>
  </g>
  <g id="wv_hall_2C_27" data-name="2C/27" class="ds-stand">
    <rect class="cls-3" x="799" y="524" width="34" height="44" rx="4" ry="4"/>
    <g>
      <path class="cls-1" d="M807.92,553.48h7.42c.19,0,.28.09.28.28v1.76c0,.19-.09.28-.28.28h-10.56c-.19,0-.28-.09-.28-.28v-1.79c0-.13.04-.24.11-.34,2.41-3.1,4.28-5.59,5.63-7.48,1.44-2,2.16-3.59,2.16-4.79,0-.86-.24-1.54-.73-2.06-.49-.51-1.13-.77-1.93-.77s-1.41.26-1.89.77c-.48.51-.7,1.19-.69,2.03v.98c0,.19-.09.28-.28.28h-2.16c-.19,0-.28-.09-.28-.28v-1.2c.04-1.47.56-2.66,1.55-3.56s2.26-1.34,3.79-1.34c1.06,0,2,.22,2.8.66.8.44,1.42,1.05,1.86,1.83s.66,1.67.66,2.66c0,1.66-.75,3.55-2.24,5.66-.86,1.21-2.26,3.05-4.2,5.52l-.81,1.04c-.06.09-.04.14.06.14Z"/>
      <path class="cls-1" d="M819.88,555.49l5.54-16.83s.01-.07-.01-.1-.06-.04-.1-.04h-5.6c-.07,0-.11.04-.11.11v1.2c0,.19-.09.28-.28.28h-1.65c-.19,0-.28-.09-.28-.28v-3.36c0-.19.09-.28.28-.28h10.33c.19,0,.28.09.28.28v1.88c0,.07-.02.19-.06.34l-5.52,16.88c-.06.15-.17.22-.34.22h-2.27c-.21,0-.28-.1-.22-.31Z"/>
    </g>
  </g>
  <g id="wv_hall_2C_28" data-name="2C/28" class="ds-stand">
    <rect class="cls-3" x="839" y="524" width="34" height="44" rx="4" ry="4"/>
    <g>
      <path class="cls-1" d="M847.26,553.48h7.42c.19,0,.28.09.28.28v1.76c0,.19-.09.28-.28.28h-10.56c-.19,0-.28-.09-.28-.28v-1.79c0-.13.04-.24.11-.34,2.41-3.1,4.28-5.59,5.63-7.48,1.44-2,2.16-3.59,2.16-4.79,0-.86-.24-1.54-.73-2.06-.49-.51-1.13-.77-1.93-.77s-1.41.26-1.89.77c-.48.51-.71,1.19-.69,2.03v.98c0,.19-.09.28-.28.28h-2.16c-.19,0-.28-.09-.28-.28v-1.2c.04-1.47.56-2.66,1.55-3.56s2.26-1.34,3.79-1.34c1.06,0,2,.22,2.8.66.8.44,1.42,1.05,1.86,1.83.44.78.66,1.67.66,2.66,0,1.66-.75,3.55-2.24,5.66-.86,1.21-2.26,3.05-4.2,5.52l-.81,1.04c-.06.09-.04.14.06.14Z"/>
      <path class="cls-1" d="M868.04,550.26c0,1.16-.21,2.15-.62,2.97-.41.88-1.02,1.56-1.83,2.06-.81.5-1.77.74-2.87.74s-2.06-.25-2.88-.76c-.82-.5-1.44-1.21-1.85-2.13-.41-.88-.62-1.85-.62-2.91s.18-1.95.53-2.77c.37-.88.98-1.52,1.82-1.93.09-.06.09-.11,0-.17-.65-.39-1.16-.91-1.51-1.54-.47-.77-.7-1.67-.7-2.72s.21-1.92.64-2.69c.43-.78,1.04-1.4,1.85-1.85.8-.45,1.71-.67,2.72-.67s1.96.22,2.74.66c.78.44,1.38,1.06,1.79,1.86.45.8.67,1.7.67,2.69s-.23,1.91-.7,2.72c-.35.63-.86,1.15-1.51,1.54-.09.06-.1.1-.03.14.84.41,1.45,1.06,1.82,1.96.35.77.53,1.7.53,2.8ZM865.38,550.09c0-.75-.1-1.38-.31-1.9-.19-.54-.48-.96-.88-1.26-.4-.3-.89-.45-1.47-.45-1.18,0-1.96.55-2.35,1.65-.21.5-.31,1.16-.31,1.96s.13,1.52.39,2.04c.41,1.05,1.17,1.57,2.27,1.57s1.83-.51,2.24-1.54c.28-.56.42-1.25.42-2.07ZM860.17,541.3c0,.67.13,1.25.39,1.74.21.43.49.77.87,1.01.37.24.8.36,1.29.36s.94-.13,1.32-.38c.37-.25.66-.6.87-1.05.24-.47.36-1.04.36-1.71,0-.58-.11-1.09-.34-1.54-.19-.47-.47-.84-.85-1.11-.38-.27-.84-.41-1.39-.41-.5,0-.95.14-1.34.42-.39.28-.68.65-.87,1.12-.21.5-.31,1.02-.31,1.54Z"/>
    </g>
  </g>
  <g id="wv_hall_2C_29" data-name="2C/29" class="ds-stand">
    <rect class="cls-3" x="459" y="630" width="34" height="44" rx="4" ry="4"/>
    <g>
      <path class="cls-1" d="M467.47,659.48h7.42c.19,0,.28.09.28.28v1.76c0,.19-.09.28-.28.28h-10.56c-.19,0-.28-.09-.28-.28v-1.79c0-.13.04-.24.11-.34,2.41-3.1,4.28-5.59,5.63-7.48,1.44-2,2.16-3.59,2.16-4.79,0-.86-.24-1.54-.73-2.06-.49-.51-1.13-.77-1.93-.77s-1.41.26-1.89.77c-.48.51-.71,1.19-.69,2.03v.98c0,.19-.09.28-.28.28h-2.16c-.19,0-.28-.09-.28-.28v-1.2c.04-1.47.56-2.66,1.55-3.56s2.26-1.34,3.79-1.34c1.06,0,2,.22,2.8.66.8.44,1.42,1.05,1.86,1.83.44.78.66,1.67.66,2.66,0,1.66-.75,3.55-2.24,5.66-.86,1.21-2.26,3.05-4.2,5.52l-.81,1.04c-.06.09-.04.14.06.14Z"/>
      <path class="cls-1" d="M487.77,648.19v8.88c0,1.51-.49,2.72-1.46,3.61-.97.9-2.24,1.34-3.81,1.34s-2.73-.45-3.67-1.34-1.4-2.07-1.4-3.53v-.59c0-.19.09-.28.28-.28h2.13c.19,0,.28.09.28.28v.39c0,.8.22,1.46.67,1.96.45.5,1.02.76,1.71.76.77,0,1.39-.26,1.86-.77.48-.51.71-1.19.71-2.03v-3.56s-.01-.07-.04-.08c-.03-.02-.06,0-.1.03-.73.86-1.7,1.29-2.91,1.29-1.14,0-2.09-.3-2.86-.9-.77-.6-1.32-1.42-1.65-2.46-.3-.77-.45-1.74-.45-2.91,0-1.05.1-1.89.31-2.52.3-1.21.88-2.15,1.74-2.8.86-.65,1.95-.98,3.28-.98,1.21,0,2.24.29,3.08.88s1.43,1.43,1.76,2.53c.35.78.53,1.72.53,2.8ZM483.95,651.82c.4-.33.69-.79.85-1.39.19-.58.28-1.29.28-2.13,0-.77-.07-1.41-.2-1.93-.17-.65-.46-1.16-.88-1.51-.42-.35-.95-.53-1.58-.53s-1.14.18-1.57.55c-.43.36-.73.89-.9,1.58-.13.62-.2,1.24-.2,1.88,0,.8.09,1.51.28,2.13.39,1.23,1.19,1.85,2.38,1.85.62,0,1.12-.16,1.53-.49Z"/>
    </g>
  </g>
  <g id="wv_hall_2C_30" data-name="2C/30" class="ds-stand">
    <rect class="cls-3" x="499" y="630" width="34" height="44" rx="4" ry="4"/>
    <g>
      <path class="cls-1" d="M514.07,655.72c0,1.16-.18,2.19-.53,3.11-.39,1.05-.99,1.84-1.79,2.38s-1.8.81-3,.81c-1.36,0-2.5-.36-3.42-1.08-.91-.72-1.49-1.68-1.74-2.9-.11-.56-.19-1.24-.22-2.04,0-.19.09-.28.28-.28h2.13c.19,0,.28.09.28.28.04.62.09,1.12.17,1.51.15.69.44,1.23.87,1.61.43.38.98.57,1.65.57.62,0,1.13-.16,1.54-.49s.71-.81.9-1.44c.17-.62.25-1.36.25-2.24,0-1.01-.12-1.84-.36-2.49-.21-.58-.5-1.02-.9-1.32-.39-.3-.88-.45-1.46-.45-.28,0-.58.08-.9.25-.07.04-.13.06-.17.06-.07,0-.15-.04-.22-.11l-1.09-1.18c-.06-.06-.08-.12-.08-.2s.03-.14.08-.2l4.26-5.24s.05-.07.03-.1c-.02-.03-.05-.04-.08-.04h-6.66c-.19,0-.28-.09-.28-.28v-1.76c0-.19.09-.28.28-.28h9.83c.19,0,.28.09.28.28v1.85c0,.13-.04.24-.11.34l-3.95,4.96s-.05.07-.03.1c.02.03.05.04.08.04.84.07,1.56.34,2.16.8.6.46,1.05,1.08,1.37,1.86.37.91.56,2.02.56,3.3Z"/>
      <path class="cls-1" d="M518.51,660.57c-1.02-1.01-1.53-2.36-1.53-4.06v-9.02c0-1.68.51-3.02,1.53-4.03,1.02-1.01,2.38-1.51,4.07-1.51s3.06.5,4.09,1.51c1.03,1.01,1.54,2.35,1.54,4.03v9.02c0,1.7-.51,3.05-1.54,4.06-1.03,1.01-2.39,1.51-4.09,1.51s-3.06-.5-4.07-1.51ZM524.71,658.9c.54-.57.81-1.32.81-2.25v-9.27c0-.93-.27-1.68-.81-2.25-.54-.57-1.25-.85-2.13-.85s-1.58.28-2.11.85c-.53.57-.8,1.32-.8,2.25v9.27c0,.93.27,1.68.8,2.25.53.57,1.24.85,2.11.85s1.59-.28,2.13-.85Z"/>
    </g>
  </g>
  <g id="wv_hall_2C_31" data-name="2C/31" class="ds-stand">
    <rect class="cls-3" x="459" y="680" width="34" height="44" rx="4" ry="4"/>
    <g>
      <path class="cls-1" d="M477.11,705.72c0,1.16-.18,2.19-.53,3.11-.39,1.05-.99,1.84-1.79,2.38-.8.54-1.8.81-3,.81-1.36,0-2.5-.36-3.42-1.08-.92-.72-1.49-1.68-1.74-2.9-.11-.56-.19-1.24-.22-2.04,0-.19.09-.28.28-.28h2.13c.19,0,.28.09.28.28.04.62.09,1.12.17,1.51.15.69.44,1.23.87,1.61.43.38.98.57,1.65.57.62,0,1.13-.16,1.54-.49.41-.33.71-.81.9-1.44.17-.62.25-1.36.25-2.24,0-1.01-.12-1.84-.36-2.49-.21-.58-.5-1.02-.9-1.32-.39-.3-.88-.45-1.46-.45-.28,0-.58.08-.9.25-.08.04-.13.06-.17.06-.08,0-.15-.04-.22-.11l-1.09-1.18c-.06-.06-.08-.12-.08-.2s.03-.14.08-.2l4.26-5.24s.05-.07.03-.1c-.02-.03-.05-.04-.08-.04h-6.66c-.19,0-.28-.09-.28-.28v-1.76c0-.19.09-.28.28-.28h9.83c.19,0,.28.09.28.28v1.85c0,.13-.04.24-.11.34l-3.95,4.96s-.05.07-.03.1c.02.03.05.04.08.04.84.07,1.56.34,2.16.8.6.46,1.05,1.08,1.37,1.86.37.91.56,2.02.56,3.3Z"/>
      <path class="cls-1" d="M482.34,692.2h2.21c.19,0,.28.09.28.28v19.04c0,.19-.09.28-.28.28h-2.13c-.19,0-.28-.09-.28-.28v-16.41s-.01-.07-.04-.1c-.03-.03-.06-.03-.1-.01l-2.72.87-.11.03c-.11,0-.19-.08-.22-.25l-.11-1.6c0-.15.07-.26.2-.34l2.94-1.43c.11-.06.23-.08.36-.08Z"/>
    </g>
  </g>
  <g id="wv_hall_2C_32" data-name="2C/32" class="ds-stand">
    <rect class="cls-3" x="499" y="680" width="34" height="44" rx="4" ry="4"/>
    <g>
      <path class="cls-1" d="M514.45,705.72c0,1.16-.18,2.19-.53,3.11-.39,1.05-.99,1.84-1.79,2.38-.8.54-1.8.81-3,.81-1.36,0-2.5-.36-3.42-1.08-.92-.72-1.49-1.68-1.74-2.9-.11-.56-.19-1.24-.22-2.04,0-.19.09-.28.28-.28h2.13c.19,0,.28.09.28.28.04.62.09,1.12.17,1.51.15.69.44,1.23.87,1.61.43.38.98.57,1.65.57.62,0,1.13-.16,1.54-.49.41-.33.71-.81.9-1.44.17-.62.25-1.36.25-2.24,0-1.01-.12-1.84-.36-2.49-.21-.58-.5-1.02-.9-1.32-.39-.3-.88-.45-1.46-.45-.28,0-.58.08-.9.25-.08.04-.13.06-.17.06-.08,0-.15-.04-.22-.11l-1.09-1.18c-.06-.06-.08-.12-.08-.2s.03-.14.08-.2l4.26-5.24s.05-.07.03-.1c-.02-.03-.05-.04-.08-.04h-6.66c-.19,0-.28-.09-.28-.28v-1.76c0-.19.09-.28.28-.28h9.83c.19,0,.28.09.28.28v1.85c0,.13-.04.24-.11.34l-3.95,4.96s-.05.07-.03.1c.02.03.05.04.08.04.84.07,1.56.34,2.16.8.6.46,1.05,1.08,1.37,1.86.37.91.56,2.02.56,3.3Z"/>
      <path class="cls-1" d="M520.55,709.48h7.42c.19,0,.28.09.28.28v1.76c0,.19-.09.28-.28.28h-10.56c-.19,0-.28-.09-.28-.28v-1.79c0-.13.04-.24.11-.34,2.41-3.1,4.28-5.59,5.63-7.48,1.44-2,2.16-3.59,2.16-4.79,0-.86-.24-1.54-.73-2.06-.49-.51-1.13-.77-1.93-.77s-1.41.26-1.89.77c-.48.51-.7,1.19-.69,2.03v.98c0,.19-.09.28-.28.28h-2.16c-.19,0-.28-.09-.28-.28v-1.2c.04-1.47.55-2.66,1.55-3.56,1-.9,2.26-1.34,3.79-1.34,1.06,0,2,.22,2.8.66.8.44,1.42,1.05,1.86,1.83.44.78.66,1.67.66,2.66,0,1.66-.75,3.55-2.24,5.66-.86,1.21-2.26,3.05-4.2,5.52l-.81,1.04c-.06.09-.04.14.06.14Z"/>
    </g>
  </g>
  <g id="wv_hall_2C_33" data-name="2C/33" class="ds-stand">
    <rect class="cls-3" x="599" y="630" width="34" height="44" rx="4" ry="4"/>
    <g>
      <path class="cls-1" d="M614.57,655.72c0,1.16-.18,2.19-.53,3.11-.39,1.05-.99,1.84-1.79,2.38s-1.8.81-3,.81c-1.36,0-2.5-.36-3.42-1.08-.91-.72-1.49-1.68-1.74-2.9-.11-.56-.19-1.24-.22-2.04,0-.19.09-.28.28-.28h2.13c.19,0,.28.09.28.28.04.62.09,1.12.17,1.51.15.69.44,1.23.87,1.61.43.38.98.57,1.65.57.62,0,1.13-.16,1.54-.49s.71-.81.9-1.44c.17-.62.25-1.36.25-2.24,0-1.01-.12-1.84-.36-2.49-.21-.58-.5-1.02-.9-1.32-.39-.3-.88-.45-1.46-.45-.28,0-.58.08-.9.25-.07.04-.13.06-.17.06-.07,0-.15-.04-.22-.11l-1.09-1.18c-.06-.06-.08-.12-.08-.2s.03-.14.08-.2l4.26-5.24s.05-.07.03-.1c-.02-.03-.05-.04-.08-.04h-6.66c-.19,0-.28-.09-.28-.28v-1.76c0-.19.09-.28.28-.28h9.83c.19,0,.28.09.28.28v1.85c0,.13-.04.24-.11.34l-3.95,4.96s-.05.07-.03.1c.02.03.05.04.08.04.84.07,1.56.34,2.16.8.6.46,1.05,1.08,1.37,1.86.37.91.56,2.02.56,3.3Z"/>
      <path class="cls-1" d="M627.76,655.72c0,1.16-.18,2.19-.53,3.11-.39,1.05-.99,1.84-1.79,2.38-.8.54-1.8.81-3,.81-1.36,0-2.5-.36-3.42-1.08-.91-.72-1.49-1.68-1.74-2.9-.11-.56-.19-1.24-.22-2.04,0-.19.09-.28.28-.28h2.13c.19,0,.28.09.28.28.04.62.09,1.12.17,1.51.15.69.44,1.23.87,1.61.43.38.98.57,1.65.57.62,0,1.13-.16,1.54-.49s.71-.81.9-1.44c.17-.62.25-1.36.25-2.24,0-1.01-.12-1.84-.36-2.49-.21-.58-.5-1.02-.9-1.32-.39-.3-.88-.45-1.46-.45-.28,0-.58.08-.9.25-.07.04-.13.06-.17.06-.07,0-.15-.04-.22-.11l-1.09-1.18c-.06-.06-.08-.12-.08-.2s.03-.14.08-.2l4.26-5.24s.05-.07.03-.1c-.02-.03-.05-.04-.08-.04h-6.66c-.19,0-.28-.09-.28-.28v-1.76c0-.19.09-.28.28-.28h9.83c.19,0,.28.09.28.28v1.85c0,.13-.04.24-.11.34l-3.95,4.96s-.05.07-.03.1.05.04.08.04c.84.07,1.56.34,2.16.8.6.46,1.05,1.08,1.37,1.86.37.91.56,2.02.56,3.3Z"/>
    </g>
  </g>
  <g id="wv_hall_2C_34" data-name="2C/34" class="ds-stand">
    <rect class="cls-3" x="639" y="630" width="34" height="44" rx="4" ry="4"/>
    <g>
      <path class="cls-1" d="M654.1,655.72c0,1.16-.18,2.19-.53,3.11-.39,1.05-.99,1.84-1.79,2.38-.8.54-1.8.81-3,.81-1.36,0-2.5-.36-3.42-1.08-.92-.72-1.49-1.68-1.74-2.9-.11-.56-.19-1.24-.22-2.04,0-.19.09-.28.28-.28h2.13c.19,0,.28.09.28.28.04.62.09,1.12.17,1.51.15.69.44,1.23.87,1.61.43.38.98.57,1.65.57.62,0,1.13-.16,1.54-.49.41-.33.71-.81.9-1.44.17-.62.25-1.36.25-2.24,0-1.01-.12-1.84-.36-2.49-.21-.58-.5-1.02-.9-1.32-.39-.3-.88-.45-1.46-.45-.28,0-.58.08-.9.25-.08.04-.13.06-.17.06-.07,0-.15-.04-.22-.11l-1.09-1.18c-.06-.06-.08-.12-.08-.2s.03-.14.08-.2l4.26-5.24s.05-.07.03-.1c-.02-.03-.05-.04-.08-.04h-6.66c-.19,0-.28-.09-.28-.28v-1.76c0-.19.09-.28.28-.28h9.83c.19,0,.28.09.28.28v1.85c0,.13-.04.24-.11.34l-3.95,4.96s-.05.07-.03.1.05.04.08.04c.84.07,1.56.34,2.16.8.6.46,1.05,1.08,1.37,1.86.37.91.56,2.02.56,3.3Z"/>
      <path class="cls-1" d="M668.6,654.41v1.88c0,.19-.09.28-.28.28h-1.04c-.08,0-.11.04-.11.11v4.84c0,.19-.09.28-.28.28h-2.13c-.19,0-.28-.09-.28-.28v-4.84c0-.07-.04-.11-.11-.11h-7.7c-.19,0-.28-.09-.28-.28v-1.54c0-.13.02-.24.06-.34l4.79-11.98c.06-.15.16-.22.31-.22h2.3c.09,0,.16.03.2.1.04.07.04.14,0,.24l-4.51,11.45s-.02.07,0,.1c.02.03.05.04.08.04h4.76c.07,0,.11-.04.11-.11v-3.98c0-.19.09-.28.28-.28h2.13c.19,0,.28.09.28.28v3.98c0,.08.04.11.11.11h1.04c.19,0,.28.09.28.28Z"/>
    </g>
  </g>
  <g id="wv_hall_2C_35" data-name="2C/35" class="ds-stand">
    <rect class="cls-3" x="599" y="680" width="34" height="44" rx="4" ry="4"/>
    <g>
      <path class="cls-1" d="M614.57,705.72c0,1.16-.18,2.19-.53,3.11-.39,1.05-.99,1.84-1.79,2.38s-1.8.81-3,.81c-1.36,0-2.5-.36-3.42-1.08-.91-.72-1.49-1.68-1.74-2.9-.11-.56-.19-1.24-.22-2.04,0-.19.09-.28.28-.28h2.13c.19,0,.28.09.28.28.04.62.09,1.12.17,1.51.15.69.44,1.23.87,1.61.43.38.98.57,1.65.57.62,0,1.13-.16,1.54-.49s.71-.81.9-1.44c.17-.62.25-1.36.25-2.24,0-1.01-.12-1.84-.36-2.49-.21-.58-.5-1.02-.9-1.32-.39-.3-.88-.45-1.46-.45-.28,0-.58.08-.9.25-.07.04-.13.06-.17.06-.07,0-.15-.04-.22-.11l-1.09-1.18c-.06-.06-.08-.12-.08-.2s.03-.14.08-.2l4.26-5.24s.05-.07.03-.1c-.02-.03-.05-.04-.08-.04h-6.66c-.19,0-.28-.09-.28-.28v-1.76c0-.19.09-.28.28-.28h9.83c.19,0,.28.09.28.28v1.85c0,.13-.04.24-.11.34l-3.95,4.96s-.05.07-.03.1c.02.03.05.04.08.04.84.07,1.56.34,2.16.8.6.46,1.05,1.08,1.37,1.86.37.91.56,2.02.56,3.3Z"/>
      <path class="cls-1" d="M628.12,705.72c0,.97-.08,1.79-.25,2.46-.32,1.23-.92,2.18-1.81,2.84-.89.66-1.99.99-3.32.99s-2.43-.35-3.32-1.04c-.89-.69-1.48-1.66-1.78-2.91-.11-.48-.18-.86-.2-1.12v-.06c0-.15.08-.22.25-.22h2.16c.19,0,.29.09.31.28.04.3.07.5.11.59.15.69.44,1.22.87,1.58.43.36.96.55,1.6.55s1.17-.19,1.61-.56c.44-.37.73-.91.88-1.6.11-.43.17-1.02.17-1.76s-.07-1.38-.2-1.96c-.15-.63-.44-1.12-.87-1.44-.43-.33-.96-.49-1.6-.49s-1.14.14-1.58.42-.75.7-.94,1.26c-.04.15-.14.22-.31.22h-2.18c-.19,0-.28-.09-.28-.28v-11c0-.19.09-.28.28-.28h9.55c.19,0,.28.09.28.28v1.76c0,.19-.09.28-.28.28h-7.03c-.07,0-.11.04-.11.11l-.03,5.96c0,.09.05.11.14.06.37-.37.83-.66,1.36-.85.53-.2,1.1-.29,1.69-.29,1.1,0,2.03.27,2.8.8.77.53,1.3,1.3,1.6,2.31.28.92.42,1.95.42,3.11Z"/>
    </g>
  </g>
  <g id="wv_hall_2C_36" data-name="2C/36" class="ds-stand">
    <rect class="cls-3" x="639" y="680" width="34" height="44" rx="4" ry="4"/>
    <g>
      <path class="cls-1" d="M654.56,705.72c0,1.16-.18,2.19-.53,3.11-.39,1.05-.99,1.84-1.79,2.38-.8.54-1.8.81-3,.81-1.36,0-2.5-.36-3.42-1.08-.92-.72-1.49-1.68-1.74-2.9-.11-.56-.19-1.24-.22-2.04,0-.19.09-.28.28-.28h2.13c.19,0,.28.09.28.28.04.62.09,1.12.17,1.51.15.69.44,1.23.87,1.61.43.38.98.57,1.65.57.62,0,1.13-.16,1.54-.49.41-.33.71-.81.9-1.44.17-.62.25-1.36.25-2.24,0-1.01-.12-1.84-.36-2.49-.21-.58-.5-1.02-.9-1.32-.39-.3-.88-.45-1.46-.45-.28,0-.58.08-.9.25-.08.04-.13.06-.17.06-.08,0-.15-.04-.22-.11l-1.09-1.18c-.06-.06-.08-.12-.08-.2s.03-.14.08-.2l4.26-5.24s.05-.07.03-.1c-.02-.03-.05-.04-.08-.04h-6.66c-.19,0-.28-.09-.28-.28v-1.76c0-.19.09-.28.28-.28h9.83c.19,0,.28.09.28.28v1.85c0,.13-.04.24-.11.34l-3.95,4.96s-.05.07-.03.1c.02.03.05.04.08.04.84.07,1.56.34,2.16.8.6.46,1.05,1.08,1.37,1.86.37.91.56,2.02.56,3.3Z"/>
      <path class="cls-1" d="M668.14,705.72c0,.95-.1,1.79-.31,2.52-.32,1.21-.91,2.15-1.76,2.8-.86.65-1.95.98-3.28.98-1.21,0-2.24-.29-3.08-.88-.84-.59-1.43-1.43-1.76-2.53-.34-.75-.5-1.68-.5-2.8l-.03-8.88c0-1.49.49-2.69,1.46-3.6s2.25-1.36,3.84-1.36c1.49,0,2.71.45,3.65,1.34.94.9,1.41,2.07,1.41,3.53v.59c0,.19-.09.28-.28.28h-2.13c-.19,0-.28-.09-.28-.28v-.39c0-.78-.23-1.43-.69-1.95-.46-.51-1.03-.77-1.72-.77-.75,0-1.36.26-1.83.77-.48.51-.71,1.19-.71,2.03v3.53s.01.07.04.08c.03.02.06,0,.1-.03.73-.84,1.7-1.26,2.91-1.26,1.14,0,2.09.3,2.84.9.76.6,1.31,1.42,1.67,2.46.3.84.45,1.81.45,2.91ZM665.42,705.67c0-.88-.09-1.59-.28-2.13-.17-.58-.46-1.03-.87-1.36-.41-.33-.92-.49-1.51-.49s-1.12.16-1.53.49c-.4.33-.69.79-.85,1.39-.17.52-.25,1.23-.25,2.13,0,.77.07,1.41.2,1.93.15.63.43,1.13.85,1.5.42.36.95.55,1.58.55s1.16-.18,1.58-.55c.42-.36.71-.89.88-1.58.13-.5.2-1.13.2-1.88Z"/>
    </g>
  </g>
  <g id="wv_hall_2C_37" data-name="2C/37" class="ds-stand">
    <rect class="cls-3" x="722" y="630" width="44" height="34" rx="4" ry="4"/>
    <g>
      <path class="cls-1" d="M743.13,650.72c0,1.16-.18,2.19-.53,3.11-.39,1.05-.99,1.84-1.79,2.38-.8.54-1.8.81-3,.81-1.36,0-2.5-.36-3.42-1.08-.91-.72-1.49-1.68-1.74-2.9-.11-.56-.19-1.24-.22-2.04,0-.19.09-.28.28-.28h2.13c.19,0,.28.09.28.28.04.62.09,1.12.17,1.51.15.69.44,1.23.87,1.61.43.38.98.57,1.65.57.62,0,1.13-.16,1.54-.49s.71-.81.9-1.44c.17-.62.25-1.36.25-2.24,0-1.01-.12-1.84-.36-2.49-.21-.58-.5-1.02-.9-1.32-.39-.3-.88-.45-1.46-.45-.28,0-.58.08-.9.25-.07.04-.13.06-.17.06-.07,0-.15-.04-.22-.11l-1.09-1.18c-.06-.06-.08-.12-.08-.2s.03-.14.08-.2l4.26-5.24s.05-.07.03-.1c-.02-.03-.05-.04-.08-.04h-6.66c-.19,0-.28-.09-.28-.28v-1.76c0-.19.09-.28.28-.28h9.83c.19,0,.28.09.28.28v1.85c0,.13-.04.24-.11.34l-3.95,4.96s-.05.07-.03.1.05.04.08.04c.84.07,1.56.34,2.16.8.6.46,1.05,1.08,1.37,1.86.37.91.56,2.02.56,3.3Z"/>
      <path class="cls-1" d="M747.75,656.49l5.54-16.83s.01-.07-.01-.1c-.03-.03-.06-.04-.1-.04h-5.6c-.08,0-.11.04-.11.11v1.2c0,.19-.09.28-.28.28h-1.65c-.19,0-.28-.09-.28-.28v-3.36c0-.19.09-.28.28-.28h10.33c.19,0,.28.09.28.28v1.88c0,.07-.02.19-.06.34l-5.52,16.88c-.06.15-.17.22-.34.22h-2.27c-.21,0-.28-.1-.22-.31Z"/>
    </g>
  </g>
  <g id="wv_hall_2C_38" data-name="2C/38" class="ds-stand">
    <rect class="cls-3" x="772" y="630" width="44" height="34" rx="4" ry="4"/>
    <g>
      <path class="cls-1" d="M792.47,650.72c0,1.16-.18,2.19-.53,3.11-.39,1.05-.99,1.84-1.79,2.38-.8.54-1.8.81-3,.81-1.36,0-2.5-.36-3.42-1.08-.92-.72-1.49-1.68-1.74-2.9-.11-.56-.19-1.24-.22-2.04,0-.19.09-.28.28-.28h2.13c.19,0,.28.09.28.28.04.62.09,1.12.17,1.51.15.69.44,1.23.87,1.61.43.38.98.57,1.65.57.62,0,1.13-.16,1.54-.49.41-.33.71-.81.9-1.44.17-.62.25-1.36.25-2.24,0-1.01-.12-1.84-.36-2.49-.21-.58-.5-1.02-.9-1.32-.39-.3-.88-.45-1.46-.45-.28,0-.58.08-.9.25-.08.04-.13.06-.17.06-.07,0-.15-.04-.22-.11l-1.09-1.18c-.06-.06-.08-.12-.08-.2s.03-.14.08-.2l4.26-5.24s.05-.07.03-.1c-.02-.03-.05-.04-.08-.04h-6.66c-.19,0-.28-.09-.28-.28v-1.76c0-.19.09-.28.28-.28h9.83c.19,0,.28.09.28.28v1.85c0,.13-.04.24-.11.34l-3.95,4.96s-.05.07-.03.1.05.04.08.04c.84.07,1.56.34,2.16.8.6.46,1.05,1.08,1.37,1.86.37.91.56,2.02.56,3.3Z"/>
      <path class="cls-1" d="M805.91,651.26c0,1.16-.21,2.15-.62,2.97-.41.88-1.02,1.56-1.83,2.06-.81.5-1.77.74-2.87.74s-2.06-.25-2.88-.76c-.82-.5-1.44-1.21-1.85-2.13-.41-.88-.62-1.85-.62-2.91s.18-1.95.53-2.77c.37-.88.98-1.52,1.82-1.93.09-.06.09-.11,0-.17-.65-.39-1.16-.91-1.51-1.54-.47-.77-.7-1.67-.7-2.72s.21-1.92.64-2.69c.43-.78,1.05-1.4,1.85-1.85.8-.45,1.71-.67,2.72-.67s1.96.22,2.74.66c.78.44,1.38,1.06,1.79,1.86.45.8.67,1.7.67,2.69s-.23,1.91-.7,2.72c-.35.63-.86,1.15-1.51,1.54-.09.06-.1.1-.03.14.84.41,1.45,1.06,1.82,1.96.35.77.53,1.7.53,2.8ZM803.25,651.09c0-.75-.1-1.38-.31-1.9-.19-.54-.48-.96-.88-1.26-.4-.3-.89-.45-1.47-.45-1.18,0-1.96.55-2.35,1.65-.21.5-.31,1.16-.31,1.96s.13,1.52.39,2.04c.41,1.05,1.17,1.57,2.27,1.57s1.83-.51,2.24-1.54c.28-.56.42-1.25.42-2.07ZM798.05,642.3c0,.67.13,1.25.39,1.74.21.43.49.77.87,1.01.37.24.8.36,1.29.36s.94-.13,1.32-.38c.37-.25.66-.6.87-1.05.24-.47.36-1.04.36-1.71,0-.58-.11-1.09-.34-1.54-.19-.47-.47-.84-.85-1.11-.38-.27-.85-.41-1.39-.41-.5,0-.95.14-1.34.42-.39.28-.68.65-.87,1.12-.21.5-.31,1.02-.31,1.54Z"/>
    </g>
  </g>
  <g id="wv_hall_2C_39" data-name="2C/39" class="ds-stand">
    <rect class="cls-3" x="822" y="630" width="44" height="34" rx="4" ry="4"/>
    <g>
      <path class="cls-1" d="M842.68,650.72c0,1.16-.18,2.19-.53,3.11-.39,1.05-.99,1.84-1.79,2.38-.8.54-1.8.81-3,.81-1.36,0-2.5-.36-3.42-1.08-.92-.72-1.49-1.68-1.74-2.9-.11-.56-.19-1.24-.22-2.04,0-.19.09-.28.28-.28h2.13c.19,0,.28.09.28.28.04.62.09,1.12.17,1.51.15.69.44,1.23.87,1.61.43.38.98.57,1.65.57.62,0,1.13-.16,1.54-.49.41-.33.71-.81.9-1.44.17-.62.25-1.36.25-2.24,0-1.01-.12-1.84-.36-2.49-.21-.58-.5-1.02-.9-1.32-.39-.3-.88-.45-1.46-.45-.28,0-.58.08-.9.25-.08.04-.13.06-.17.06-.07,0-.15-.04-.22-.11l-1.09-1.18c-.06-.06-.08-.12-.08-.2s.03-.14.08-.2l4.26-5.24s.05-.07.03-.1c-.02-.03-.05-.04-.08-.04h-6.66c-.19,0-.28-.09-.28-.28v-1.76c0-.19.09-.28.28-.28h9.83c.19,0,.28.09.28.28v1.85c0,.13-.04.24-.11.34l-3.95,4.96s-.05.07-.03.1.05.04.08.04c.84.07,1.56.34,2.16.8.6.46,1.05,1.08,1.37,1.86.37.91.56,2.02.56,3.3Z"/>
      <path class="cls-1" d="M855.65,643.19v8.88c0,1.51-.49,2.72-1.46,3.61-.97.9-2.24,1.34-3.81,1.34s-2.73-.45-3.67-1.34c-.93-.9-1.4-2.07-1.4-3.53v-.59c0-.19.09-.28.28-.28h2.13c.19,0,.28.09.28.28v.39c0,.8.22,1.46.67,1.96.45.5,1.02.76,1.71.76.77,0,1.39-.26,1.86-.77.48-.51.71-1.19.71-2.03v-3.56s-.01-.07-.04-.08c-.03-.02-.06,0-.1.03-.73.86-1.7,1.29-2.91,1.29-1.14,0-2.09-.3-2.86-.9-.77-.6-1.32-1.42-1.65-2.46-.3-.77-.45-1.74-.45-2.91,0-1.05.1-1.89.31-2.52.3-1.21.88-2.15,1.74-2.8.86-.65,1.95-.98,3.28-.98,1.21,0,2.24.29,3.08.88.84.59,1.43,1.43,1.76,2.53.35.78.53,1.72.53,2.8ZM851.83,646.82c.4-.33.69-.79.85-1.39.19-.58.28-1.29.28-2.13,0-.77-.07-1.41-.2-1.93-.17-.65-.46-1.16-.88-1.51-.42-.35-.95-.53-1.58-.53s-1.14.18-1.57.55c-.43.36-.73.89-.9,1.58-.13.62-.2,1.24-.2,1.88,0,.8.09,1.51.28,2.13.39,1.23,1.19,1.85,2.38,1.85.62,0,1.12-.16,1.53-.49Z"/>
    </g>
  </g>
  <g id="wv_hall_2C_40" data-name="2C/40" class="ds-stand">
    <rect class="cls-3" x="722" y="670" width="144" height="207" rx="4" ry="4"/>
    <g>
      <path class="cls-1" d="M792.91,775.91v1.88c0,.19-.09.28-.28.28h-1.04c-.07,0-.11.04-.11.11v4.84c0,.19-.09.28-.28.28h-2.13c-.19,0-.28-.09-.28-.28v-4.84c0-.07-.04-.11-.11-.11h-7.7c-.19,0-.28-.09-.28-.28v-1.54c0-.13.02-.24.06-.34l4.79-11.98c.06-.15.16-.22.31-.22h2.3c.09,0,.16.03.2.1.04.07.04.14,0,.24l-4.51,11.45s-.02.07,0,.1c.02.03.05.04.08.04h4.76c.07,0,.11-.04.11-.11v-3.98c0-.19.09-.28.28-.28h2.13c.19,0,.28.09.28.28v3.98c0,.08.04.11.11.11h1.04c.19,0,.28.09.28.28Z"/>
      <path class="cls-1" d="M796.98,782.07c-1.02-1.01-1.53-2.36-1.53-4.06v-9.02c0-1.68.51-3.02,1.53-4.03,1.02-1.01,2.38-1.51,4.07-1.51s3.06.5,4.09,1.51c1.03,1.01,1.54,2.35,1.54,4.03v9.02c0,1.7-.51,3.05-1.54,4.06-1.03,1.01-2.39,1.51-4.09,1.51s-3.06-.5-4.07-1.51ZM803.18,780.4c.54-.57.81-1.32.81-2.25v-9.27c0-.93-.27-1.68-.81-2.25s-1.25-.85-2.13-.85-1.58.28-2.11.85c-.53.57-.8,1.32-.8,2.25v9.27c0,.93.27,1.68.8,2.25.53.57,1.24.85,2.11.85s1.59-.28,2.13-.85Z"/>
    </g>
  </g>
  <g id="wv_hall_2C_41" data-name="2C/41" class="ds-stand">
    <rect class="cls-3" x="419" y="783" width="34" height="44" rx="4" ry="4"/>
    <g>
      <path class="cls-1" d="M438.67,807.41v1.88c0,.19-.09.28-.28.28h-1.04c-.08,0-.11.04-.11.11v4.84c0,.19-.09.28-.28.28h-2.13c-.19,0-.28-.09-.28-.28v-4.84c0-.07-.04-.11-.11-.11h-7.7c-.19,0-.28-.09-.28-.28v-1.54c0-.13.02-.24.06-.34l4.79-11.98c.06-.15.16-.22.31-.22h2.3c.09,0,.16.03.2.1.04.07.04.14,0,.24l-4.51,11.45s-.02.07,0,.1c.02.03.05.04.08.04h4.76c.07,0,.11-.04.11-.11v-3.98c0-.19.09-.28.28-.28h2.13c.19,0,.28.09.28.28v3.98c0,.08.04.11.11.11h1.04c.19,0,.28.09.28.28Z"/>
      <path class="cls-1" d="M442.09,795.2h2.21c.19,0,.28.09.28.28v19.04c0,.19-.09.28-.28.28h-2.13c-.19,0-.28-.09-.28-.28v-16.41s-.01-.07-.04-.1-.06-.03-.1-.01l-2.72.87-.11.03c-.11,0-.19-.08-.22-.25l-.11-1.6c0-.15.07-.26.2-.34l2.94-1.43c.11-.06.23-.08.36-.08Z"/>
    </g>
  </g>
  <g id="wv_hall_2C_42" data-name="2C/42" class="ds-stand">
    <rect class="cls-3" x="459" y="783" width="34" height="44" rx="4" ry="4"/>
    <g>
      <path class="cls-1" d="M475.29,807.41v1.88c0,.19-.09.28-.28.28h-1.04c-.07,0-.11.04-.11.11v4.84c0,.19-.09.28-.28.28h-2.13c-.19,0-.28-.09-.28-.28v-4.84c0-.07-.04-.11-.11-.11h-7.7c-.19,0-.28-.09-.28-.28v-1.54c0-.13.02-.24.06-.34l4.79-11.98c.06-.15.16-.22.31-.22h2.3c.09,0,.16.03.2.1.04.07.04.14,0,.24l-4.51,11.45s-.02.07,0,.1c.02.03.05.04.08.04h4.76c.07,0,.11-.04.11-.11v-3.98c0-.19.09-.28.28-.28h2.13c.19,0,.28.09.28.28v3.98c0,.08.04.11.11.11h1.04c.19,0,.28.09.28.28Z"/>
      <path class="cls-1" d="M481.03,812.48h7.42c.19,0,.28.09.28.28v1.76c0,.19-.09.28-.28.28h-10.56c-.19,0-.28-.09-.28-.28v-1.79c0-.13.04-.24.11-.34,2.41-3.1,4.28-5.59,5.63-7.48,1.44-2,2.16-3.59,2.16-4.79,0-.86-.24-1.54-.73-2.06-.49-.51-1.13-.77-1.93-.77s-1.41.26-1.89.77c-.48.51-.71,1.19-.69,2.03v.98c0,.19-.09.28-.28.28h-2.16c-.19,0-.28-.09-.28-.28v-1.2c.04-1.47.56-2.66,1.55-3.56s2.26-1.34,3.79-1.34c1.06,0,2,.22,2.8.66.8.44,1.42,1.05,1.86,1.83.44.78.66,1.67.66,2.66,0,1.66-.75,3.55-2.24,5.66-.86,1.21-2.26,3.05-4.2,5.52l-.81,1.04c-.06.09-.04.14.06.14Z"/>
    </g>
  </g>
  <g id="wv_hall_2C_43" data-name="2C/43" class="ds-stand">
    <rect class="cls-3" x="499" y="783" width="34" height="44" rx="4" ry="4"/>
    <g>
      <path class="cls-1" d="M515.41,807.41v1.88c0,.19-.09.28-.28.28h-1.04c-.07,0-.11.04-.11.11v4.84c0,.19-.09.28-.28.28h-2.13c-.19,0-.28-.09-.28-.28v-4.84c0-.07-.04-.11-.11-.11h-7.7c-.19,0-.28-.09-.28-.28v-1.54c0-.13.02-.24.06-.34l4.79-11.98c.06-.15.16-.22.31-.22h2.3c.09,0,.16.03.2.1.04.07.04.14,0,.24l-4.51,11.45s-.02.07,0,.1c.02.03.05.04.08.04h4.76c.07,0,.11-.04.11-.11v-3.98c0-.19.09-.28.28-.28h2.13c.19,0,.28.09.28.28v3.98c0,.08.04.11.11.11h1.04c.19,0,.28.09.28.28Z"/>
      <path class="cls-1" d="M528.24,808.72c0,1.16-.18,2.19-.53,3.11-.39,1.05-.99,1.84-1.79,2.38-.8.54-1.8.81-3,.81-1.36,0-2.5-.36-3.42-1.08-.92-.72-1.49-1.68-1.74-2.9-.11-.56-.19-1.24-.22-2.04,0-.19.09-.28.28-.28h2.13c.19,0,.28.09.28.28.04.62.09,1.12.17,1.51.15.69.44,1.23.87,1.61.43.38.98.57,1.65.57.62,0,1.13-.16,1.54-.49.41-.33.71-.81.9-1.44.17-.62.25-1.36.25-2.24,0-1.01-.12-1.84-.36-2.49-.21-.58-.5-1.02-.9-1.32-.39-.3-.88-.45-1.46-.45-.28,0-.58.08-.9.25-.08.04-.13.06-.17.06-.07,0-.15-.04-.22-.11l-1.09-1.18c-.06-.06-.08-.12-.08-.2s.03-.14.08-.2l4.26-5.24s.05-.07.03-.1c-.02-.03-.05-.04-.08-.04h-6.66c-.19,0-.28-.09-.28-.28v-1.76c0-.19.09-.28.28-.28h9.83c.19,0,.28.09.28.28v1.85c0,.13-.04.24-.11.34l-3.95,4.96s-.05.07-.03.1.05.04.08.04c.84.07,1.56.34,2.16.8.6.46,1.05,1.08,1.37,1.86.37.91.56,2.02.56,3.3Z"/>
    </g>
  </g>
  <g id="wv_hall_2C_44" data-name="2C/44" class="ds-stand">
    <rect class="cls-3" x="419" y="833" width="34" height="44" rx="4" ry="4"/>
    <g>
      <path class="cls-1" d="M434.94,857.41v1.88c0,.19-.09.28-.28.28h-1.04c-.07,0-.11.04-.11.11v4.84c0,.19-.09.28-.28.28h-2.13c-.19,0-.28-.09-.28-.28v-4.84c0-.07-.04-.11-.11-.11h-7.7c-.19,0-.28-.09-.28-.28v-1.54c0-.13.02-.24.06-.34l4.79-11.98c.06-.15.16-.22.31-.22h2.3c.09,0,.16.03.2.1s.04.14,0,.24l-4.51,11.45s-.02.07,0,.1c.02.03.05.04.08.04h4.76c.07,0,.11-.04.11-.11v-3.98c0-.19.09-.28.28-.28h2.13c.19,0,.28.09.28.28v3.98c0,.08.04.11.11.11h1.04c.19,0,.28.09.28.28Z"/>
      <path class="cls-1" d="M449.08,857.41v1.88c0,.19-.09.28-.28.28h-1.04c-.07,0-.11.04-.11.11v4.84c0,.19-.09.28-.28.28h-2.13c-.19,0-.28-.09-.28-.28v-4.84c0-.07-.04-.11-.11-.11h-7.7c-.19,0-.28-.09-.28-.28v-1.54c0-.13.02-.24.06-.34l4.79-11.98c.06-.15.16-.22.31-.22h2.3c.09,0,.16.03.2.1s.04.14,0,.24l-4.51,11.45s-.02.07,0,.1c.02.03.05.04.08.04h4.76c.07,0,.11-.04.11-.11v-3.98c0-.19.09-.28.28-.28h2.13c.19,0,.28.09.28.28v3.98c0,.08.04.11.11.11h1.04c.19,0,.28.09.28.28Z"/>
    </g>
  </g>
  <g id="wv_hall_2C_45" data-name="2C/45" class="ds-stand">
    <rect class="cls-3" x="459" y="833" width="34" height="44" rx="4" ry="4"/>
    <g>
      <path class="cls-1" d="M475.41,857.41v1.88c0,.19-.09.28-.28.28h-1.04c-.07,0-.11.04-.11.11v4.84c0,.19-.09.28-.28.28h-2.13c-.19,0-.28-.09-.28-.28v-4.84c0-.07-.04-.11-.11-.11h-7.7c-.19,0-.28-.09-.28-.28v-1.54c0-.13.02-.24.06-.34l4.79-11.98c.06-.15.16-.22.31-.22h2.3c.09,0,.16.03.2.1.04.07.04.14,0,.24l-4.51,11.45s-.02.07,0,.1c.02.03.05.04.08.04h4.76c.07,0,.11-.04.11-.11v-3.98c0-.19.09-.28.28-.28h2.13c.19,0,.28.09.28.28v3.98c0,.08.04.11.11.11h1.04c.19,0,.28.09.28.28Z"/>
      <path class="cls-1" d="M488.6,858.72c0,.97-.08,1.79-.25,2.46-.32,1.23-.92,2.18-1.81,2.84-.89.66-1.99.99-3.32.99s-2.43-.35-3.32-1.04c-.89-.69-1.48-1.66-1.78-2.91-.11-.48-.18-.86-.2-1.12v-.06c0-.15.08-.22.25-.22h2.16c.19,0,.29.09.31.28.04.3.07.5.11.59.15.69.44,1.22.87,1.58.43.36.96.55,1.6.55s1.17-.19,1.61-.56c.44-.37.73-.91.88-1.6.11-.43.17-1.02.17-1.76s-.07-1.38-.2-1.96c-.15-.63-.44-1.12-.87-1.44-.43-.33-.96-.49-1.6-.49s-1.14.14-1.58.42-.75.7-.94,1.26c-.04.15-.14.22-.31.22h-2.18c-.19,0-.28-.09-.28-.28v-11c0-.19.09-.28.28-.28h9.55c.19,0,.28.09.28.28v1.76c0,.19-.09.28-.28.28h-7.03c-.07,0-.11.04-.11.11l-.03,5.96c0,.09.05.11.14.06.37-.37.83-.66,1.36-.85.53-.2,1.1-.29,1.69-.29,1.1,0,2.03.27,2.8.8.77.53,1.3,1.3,1.6,2.31.28.92.42,1.95.42,3.11Z"/>
    </g>
  </g>
  <g id="wv_hall_2C_46" data-name="2C/46" class="ds-stand">
    <rect class="cls-3" x="499" y="833" width="34" height="44" rx="4" ry="4"/>
    <g>
      <path class="cls-1" d="M515.4,857.41v1.88c0,.19-.09.28-.28.28h-1.04c-.07,0-.11.04-.11.11v4.84c0,.19-.09.28-.28.28h-2.13c-.19,0-.28-.09-.28-.28v-4.84c0-.07-.04-.11-.11-.11h-7.7c-.19,0-.28-.09-.28-.28v-1.54c0-.13.02-.24.06-.34l4.79-11.98c.06-.15.16-.22.31-.22h2.3c.09,0,.16.03.2.1s.04.14,0,.24l-4.51,11.45s-.02.07,0,.1c.02.03.05.04.08.04h4.76c.07,0,.11-.04.11-.11v-3.98c0-.19.09-.28.28-.28h2.13c.19,0,.28.09.28.28v3.98c0,.08.04.11.11.11h1.04c.19,0,.28.09.28.28Z"/>
      <path class="cls-1" d="M528.61,858.72c0,.95-.1,1.79-.31,2.52-.32,1.21-.91,2.15-1.76,2.8-.86.65-1.95.98-3.28.98-1.21,0-2.24-.29-3.08-.88-.84-.59-1.43-1.43-1.76-2.53-.34-.75-.5-1.68-.5-2.8l-.03-8.88c0-1.49.49-2.69,1.46-3.6s2.25-1.36,3.84-1.36c1.49,0,2.71.45,3.65,1.34.94.9,1.41,2.07,1.41,3.53v.59c0,.19-.09.28-.28.28h-2.13c-.19,0-.28-.09-.28-.28v-.39c0-.78-.23-1.43-.69-1.95-.46-.51-1.03-.77-1.72-.77-.75,0-1.36.26-1.83.77-.48.51-.71,1.19-.71,2.03v3.53s.01.07.04.08c.03.02.06,0,.1-.03.73-.84,1.7-1.26,2.91-1.26,1.14,0,2.09.3,2.84.9.76.6,1.31,1.42,1.67,2.46.3.84.45,1.81.45,2.91ZM525.9,858.67c0-.88-.09-1.59-.28-2.13-.17-.58-.46-1.03-.87-1.36-.41-.33-.92-.49-1.51-.49s-1.12.16-1.53.49c-.4.33-.69.79-.85,1.39-.17.52-.25,1.23-.25,2.13,0,.77.06,1.41.2,1.93.15.63.43,1.13.85,1.5.42.36.95.55,1.58.55s1.16-.18,1.58-.55c.42-.36.71-.89.88-1.58.13-.5.2-1.13.2-1.88Z"/>
    </g>
  </g>
  <g id="wv_hall_2C_47" data-name="2C/47" class="ds-stand">
    <rect class="cls-3" x="599" y="783" width="34" height="44" rx="4" ry="4"/>
    <g>
      <path class="cls-1" d="M616.63,807.41v1.88c0,.19-.09.28-.28.28h-1.04c-.08,0-.11.04-.11.11v4.84c0,.19-.09.28-.28.28h-2.13c-.19,0-.28-.09-.28-.28v-4.84c0-.07-.04-.11-.11-.11h-7.7c-.19,0-.28-.09-.28-.28v-1.54c0-.13.02-.24.06-.34l4.79-11.98c.06-.15.16-.22.31-.22h2.3c.09,0,.16.03.2.1.04.07.04.14,0,.24l-4.51,11.45s-.02.07,0,.1c.02.03.05.04.08.04h4.76c.07,0,.11-.04.11-.11v-3.98c0-.19.09-.28.28-.28h2.13c.19,0,.28.09.28.28v3.98c0,.08.04.11.11.11h1.04c.19,0,.28.09.28.28Z"/>
      <path class="cls-1" d="M619.57,814.49l5.54-16.83s.01-.07-.01-.1c-.03-.03-.06-.04-.1-.04h-5.6c-.07,0-.11.04-.11.11v1.2c0,.19-.09.28-.28.28h-1.65c-.19,0-.28-.09-.28-.28v-3.36c0-.19.09-.28.28-.28h10.33c.19,0,.28.09.28.28v1.88c0,.07-.02.19-.06.34l-5.52,16.88c-.06.15-.17.22-.34.22h-2.27c-.21,0-.28-.1-.22-.31Z"/>
    </g>
  </g>
  <g id="wv_hall_2C_48" data-name="2C/48" class="ds-stand">
    <rect class="cls-3" x="639" y="783" width="34" height="44" rx="4" ry="4"/>
    <g>
      <path class="cls-1" d="M655.31,807.41v1.88c0,.19-.09.28-.28.28h-1.04c-.07,0-.11.04-.11.11v4.84c0,.19-.09.28-.28.28h-2.13c-.19,0-.28-.09-.28-.28v-4.84c0-.07-.04-.11-.11-.11h-7.7c-.19,0-.28-.09-.28-.28v-1.54c0-.13.02-.24.06-.34l4.79-11.98c.06-.15.16-.22.31-.22h2.3c.09,0,.16.03.2.1s.04.14,0,.24l-4.51,11.45s-.02.07,0,.1c.02.03.05.04.08.04h4.76c.07,0,.11-.04.11-.11v-3.98c0-.19.09-.28.28-.28h2.13c.19,0,.28.09.28.28v3.98c0,.08.04.11.11.11h1.04c.19,0,.28.09.28.28Z"/>
      <path class="cls-1" d="M668.39,809.26c0,1.16-.21,2.15-.62,2.97-.41.88-1.02,1.56-1.83,2.06-.81.5-1.77.74-2.87.74s-2.06-.25-2.88-.76c-.82-.5-1.44-1.21-1.85-2.13-.41-.88-.62-1.85-.62-2.91s.18-1.95.53-2.77c.37-.88.98-1.52,1.82-1.93.09-.06.09-.11,0-.17-.65-.39-1.16-.91-1.51-1.54-.47-.77-.7-1.67-.7-2.72s.21-1.92.64-2.69c.43-.78,1.04-1.4,1.85-1.85.8-.45,1.71-.67,2.72-.67s1.96.22,2.74.66c.78.44,1.38,1.06,1.79,1.86.45.8.67,1.7.67,2.69s-.23,1.91-.7,2.72c-.35.63-.86,1.15-1.51,1.54-.09.06-.1.1-.03.14.84.41,1.45,1.06,1.82,1.96.35.77.53,1.7.53,2.8ZM665.73,809.09c0-.75-.1-1.38-.31-1.9-.19-.54-.48-.96-.88-1.26-.4-.3-.89-.45-1.47-.45-1.18,0-1.96.55-2.35,1.65-.21.5-.31,1.16-.31,1.96s.13,1.52.39,2.04c.41,1.05,1.17,1.57,2.27,1.57s1.83-.51,2.24-1.54c.28-.56.42-1.25.42-2.07ZM660.52,800.3c0,.67.13,1.25.39,1.74.21.43.49.77.87,1.01.37.24.8.36,1.29.36s.94-.13,1.32-.38c.37-.25.66-.6.87-1.05.24-.47.36-1.04.36-1.71,0-.58-.11-1.09-.34-1.54-.19-.47-.47-.84-.85-1.11-.38-.27-.84-.41-1.39-.41-.5,0-.95.14-1.34.42-.39.28-.68.65-.87,1.12-.21.5-.31,1.02-.31,1.54Z"/>
    </g>
  </g>
  <g id="wv_hall_2C_49" data-name="2C/49" class="ds-stand">
    <rect class="cls-3" x="599" y="833" width="34" height="44" rx="4" ry="4"/>
    <g>
      <path class="cls-1" d="M615.52,857.41v1.88c0,.19-.09.28-.28.28h-1.04c-.07,0-.11.04-.11.11v4.84c0,.19-.09.28-.28.28h-2.13c-.19,0-.28-.09-.28-.28v-4.84c0-.07-.04-.11-.11-.11h-7.7c-.19,0-.28-.09-.28-.28v-1.54c0-.13.02-.24.06-.34l4.79-11.98c.06-.15.16-.22.31-.22h2.3c.09,0,.16.03.2.1s.04.14,0,.24l-4.51,11.45s-.02.07,0,.1c.02.03.05.04.08.04h4.76c.07,0,.11-.04.11-.11v-3.98c0-.19.09-.28.28-.28h2.13c.19,0,.28.09.28.28v3.98c0,.08.04.11.11.11h1.04c.19,0,.28.09.28.28Z"/>
      <path class="cls-1" d="M628.12,851.19v8.88c0,1.51-.49,2.72-1.46,3.61-.97.9-2.24,1.34-3.81,1.34s-2.73-.45-3.67-1.34c-.93-.9-1.4-2.07-1.4-3.53v-.59c0-.19.09-.28.28-.28h2.13c.19,0,.28.09.28.28v.39c0,.8.22,1.46.67,1.96.45.5,1.02.76,1.71.76.77,0,1.39-.26,1.86-.77.48-.51.71-1.19.71-2.03v-3.56s-.01-.07-.04-.08c-.03-.02-.06,0-.1.03-.73.86-1.7,1.29-2.91,1.29-1.14,0-2.09-.3-2.86-.9-.77-.6-1.32-1.42-1.65-2.46-.3-.77-.45-1.74-.45-2.91,0-1.05.1-1.89.31-2.52.3-1.21.88-2.15,1.74-2.8.86-.65,1.95-.98,3.28-.98,1.21,0,2.24.29,3.08.88.84.59,1.43,1.43,1.76,2.53.35.78.53,1.72.53,2.8ZM624.3,854.82c.4-.33.69-.79.85-1.39.19-.58.28-1.29.28-2.13,0-.77-.07-1.41-.2-1.93-.17-.65-.46-1.16-.88-1.51-.42-.35-.95-.53-1.58-.53s-1.14.18-1.57.55c-.43.36-.73.89-.9,1.58-.13.62-.2,1.24-.2,1.88,0,.8.09,1.51.28,2.13.39,1.23,1.19,1.85,2.38,1.85.62,0,1.12-.16,1.53-.49Z"/>
    </g>
  </g>
  <g id="wv_hall_2C_50" data-name="2C/50" class="ds-stand">
    <rect class="cls-3" x="639" y="833" width="34" height="44" rx="4" ry="4"/>
    <g>
      <path class="cls-1" d="M654.43,858.72c0,.97-.08,1.79-.25,2.46-.32,1.23-.92,2.18-1.81,2.84s-1.99.99-3.32.99-2.43-.35-3.32-1.04c-.89-.69-1.48-1.66-1.78-2.91-.11-.48-.18-.86-.2-1.12v-.06c0-.15.08-.22.25-.22h2.16c.19,0,.29.09.31.28.04.3.07.5.11.59.15.69.44,1.22.87,1.58.43.36.96.55,1.6.55s1.17-.19,1.61-.56c.44-.37.73-.91.88-1.6.11-.43.17-1.02.17-1.76s-.07-1.38-.2-1.96c-.15-.63-.44-1.12-.87-1.44-.43-.33-.96-.49-1.6-.49s-1.14.14-1.58.42c-.44.28-.75.7-.94,1.26-.04.15-.14.22-.31.22h-2.18c-.19,0-.28-.09-.28-.28v-11c0-.19.09-.28.28-.28h9.55c.19,0,.28.09.28.28v1.76c0,.19-.09.28-.28.28h-7.03c-.08,0-.11.04-.11.11l-.03,5.96c0,.09.05.11.14.06.37-.37.83-.66,1.36-.85.53-.2,1.1-.29,1.69-.29,1.1,0,2.03.27,2.8.8.77.53,1.3,1.3,1.6,2.31.28.92.42,1.95.42,3.11Z"/>
      <path class="cls-1" d="M658.51,863.57c-1.02-1.01-1.53-2.36-1.53-4.06v-9.02c0-1.68.51-3.02,1.53-4.03,1.02-1.01,2.38-1.51,4.07-1.51s3.06.5,4.09,1.51c1.03,1.01,1.54,2.35,1.54,4.03v9.02c0,1.7-.51,3.05-1.54,4.06-1.03,1.01-2.39,1.51-4.09,1.51s-3.06-.5-4.07-1.51ZM664.71,861.9c.54-.57.81-1.32.81-2.25v-9.27c0-.93-.27-1.68-.81-2.25-.54-.57-1.25-.85-2.13-.85s-1.58.28-2.11.85c-.53.57-.8,1.32-.8,2.25v9.27c0,.93.27,1.68.8,2.25.53.57,1.24.85,2.11.85s1.59-.28,2.13-.85Z"/>
    </g>
  </g>
  <g id="wv_hall_2C_51" data-name="2C/51" class="ds-stand">
    <rect class="cls-3" x="359" y="910" width="34" height="44" rx="4" ry="4"/>
    <g>
      <path class="cls-1" d="M377.47,935.72c0,.97-.08,1.79-.25,2.46-.32,1.23-.92,2.18-1.81,2.84s-1.99.99-3.32.99-2.43-.35-3.32-1.04c-.89-.69-1.48-1.66-1.78-2.91-.11-.48-.18-.86-.2-1.12v-.06c0-.15.08-.22.25-.22h2.16c.19,0,.29.09.31.28.04.3.07.5.11.59.15.69.44,1.22.87,1.58.43.36.96.55,1.6.55s1.17-.19,1.61-.56c.44-.37.73-.91.88-1.6.11-.43.17-1.02.17-1.76s-.07-1.38-.2-1.96c-.15-.63-.44-1.12-.87-1.44-.43-.33-.96-.49-1.6-.49s-1.14.14-1.58.42c-.44.28-.75.7-.94,1.26-.04.15-.14.22-.31.22h-2.18c-.19,0-.28-.09-.28-.28v-11c0-.19.09-.28.28-.28h9.55c.19,0,.28.09.28.28v1.76c0,.19-.09.28-.28.28h-7.03c-.08,0-.11.04-.11.11l-.03,5.96c0,.09.05.11.14.06.37-.37.83-.66,1.36-.85.53-.2,1.1-.29,1.69-.29,1.1,0,2.03.27,2.8.8.77.53,1.3,1.3,1.6,2.31.28.92.42,1.95.42,3.11Z"/>
      <path class="cls-1" d="M382.34,922.2h2.21c.19,0,.28.09.28.28v19.04c0,.19-.09.28-.28.28h-2.13c-.19,0-.28-.09-.28-.28v-16.41s-.01-.07-.04-.1c-.03-.03-.06-.03-.1-.01l-2.72.87-.11.03c-.11,0-.19-.08-.22-.25l-.11-1.6c0-.15.07-.26.2-.34l2.94-1.43c.11-.06.23-.08.36-.08Z"/>
    </g>
  </g>
  <g id="wv_hall_2C_52" data-name="2C/52" class="ds-stand">
    <rect class="cls-3" x="399" y="910" width="34" height="44" rx="4" ry="4"/>
    <g>
      <path class="cls-1" d="M414.81,935.72c0,.97-.08,1.79-.25,2.46-.32,1.23-.92,2.18-1.81,2.84s-1.99.99-3.32.99-2.43-.35-3.32-1.04c-.89-.69-1.48-1.66-1.78-2.91-.11-.48-.18-.86-.2-1.12v-.06c0-.15.08-.22.25-.22h2.16c.19,0,.29.09.31.28.04.3.07.5.11.59.15.69.44,1.22.87,1.58.43.36.96.55,1.6.55s1.17-.19,1.61-.56c.44-.37.73-.91.88-1.6.11-.43.17-1.02.17-1.76s-.07-1.38-.2-1.96c-.15-.63-.44-1.12-.87-1.44-.43-.33-.96-.49-1.6-.49s-1.14.14-1.58.42c-.44.28-.75.7-.94,1.26-.04.15-.14.22-.31.22h-2.18c-.19,0-.28-.09-.28-.28v-11c0-.19.09-.28.28-.28h9.55c.19,0,.28.09.28.28v1.76c0,.19-.09.28-.28.28h-7.03c-.08,0-.11.04-.11.11l-.03,5.96c0,.09.05.11.14.06.37-.37.83-.66,1.36-.85.53-.2,1.1-.29,1.69-.29,1.1,0,2.03.27,2.8.8.77.53,1.3,1.3,1.6,2.31.28.92.42,1.95.42,3.11Z"/>
      <path class="cls-1" d="M420.55,939.48h7.42c.19,0,.28.09.28.28v1.76c0,.19-.09.28-.28.28h-10.56c-.19,0-.28-.09-.28-.28v-1.79c0-.13.04-.24.11-.34,2.41-3.1,4.28-5.59,5.63-7.48,1.44-2,2.16-3.59,2.16-4.79,0-.86-.24-1.54-.73-2.06-.49-.51-1.13-.77-1.93-.77s-1.41.26-1.89.77c-.48.51-.7,1.19-.69,2.03v.98c0,.19-.09.28-.28.28h-2.16c-.19,0-.28-.09-.28-.28v-1.2c.04-1.47.55-2.66,1.55-3.56,1-.9,2.26-1.34,3.79-1.34,1.06,0,2,.22,2.8.66.8.44,1.42,1.05,1.86,1.83.44.78.66,1.67.66,2.66,0,1.66-.75,3.55-2.24,5.66-.86,1.21-2.26,3.05-4.2,5.52l-.81,1.04c-.06.09-.04.14.06.14Z"/>
    </g>
  </g>
  <g id="wv_hall_2C_53" data-name="2C/53" class="ds-stand">
    <rect class="cls-3" x="439" y="910" width="34" height="44" rx="4" ry="4"/>
    <g>
      <path class="cls-1" d="M454.94,935.72c0,.97-.08,1.79-.25,2.46-.32,1.23-.92,2.18-1.81,2.84s-1.99.99-3.32.99-2.43-.35-3.32-1.04c-.89-.69-1.48-1.66-1.78-2.91-.11-.48-.18-.86-.2-1.12v-.06c0-.15.08-.22.25-.22h2.16c.19,0,.29.09.31.28.04.3.07.5.11.59.15.69.44,1.22.87,1.58.43.36.96.55,1.6.55s1.17-.19,1.61-.56c.44-.37.73-.91.88-1.6.11-.43.17-1.02.17-1.76s-.07-1.38-.2-1.96c-.15-.63-.44-1.12-.87-1.44-.43-.33-.96-.49-1.6-.49s-1.14.14-1.58.42c-.44.28-.75.7-.94,1.26-.04.15-.14.22-.31.22h-2.18c-.19,0-.28-.09-.28-.28v-11c0-.19.09-.28.28-.28h9.55c.19,0,.28.09.28.28v1.76c0,.19-.09.28-.28.28h-7.03c-.08,0-.11.04-.11.11l-.03,5.96c0,.09.05.11.14.06.37-.37.83-.66,1.36-.85.53-.2,1.1-.29,1.69-.29,1.1,0,2.03.27,2.8.8.77.53,1.3,1.3,1.6,2.31.28.92.42,1.95.42,3.11Z"/>
      <path class="cls-1" d="M467.76,935.72c0,1.16-.18,2.19-.53,3.11-.39,1.05-.99,1.84-1.79,2.38-.8.54-1.8.81-3,.81-1.36,0-2.5-.36-3.42-1.08-.91-.72-1.49-1.68-1.74-2.9-.11-.56-.19-1.24-.22-2.04,0-.19.09-.28.28-.28h2.13c.19,0,.28.09.28.28.04.62.09,1.12.17,1.51.15.69.44,1.23.87,1.61.43.38.98.57,1.65.57.62,0,1.13-.16,1.54-.49s.71-.81.9-1.44c.17-.62.25-1.36.25-2.24,0-1.01-.12-1.84-.36-2.49-.21-.58-.5-1.02-.9-1.32-.39-.3-.88-.45-1.46-.45-.28,0-.58.08-.9.25-.07.04-.13.06-.17.06-.07,0-.15-.04-.22-.11l-1.09-1.18c-.06-.06-.08-.12-.08-.2s.03-.14.08-.2l4.26-5.24s.05-.07.03-.1c-.02-.03-.05-.04-.08-.04h-6.66c-.19,0-.28-.09-.28-.28v-1.76c0-.19.09-.28.28-.28h9.83c.19,0,.28.09.28.28v1.85c0,.13-.04.24-.11.34l-3.95,4.96s-.05.07-.03.1.05.04.08.04c.84.07,1.56.34,2.16.8.6.46,1.05,1.08,1.37,1.86.37.91.56,2.02.56,3.3Z"/>
    </g>
  </g>
  <g id="wv_hall_2C_54" data-name="2C/54" class="ds-stand">
    <rect class="cls-3" x="479" y="910" width="34" height="44" rx="4" ry="4"/>
    <g>
      <path class="cls-1" d="M494.46,935.72c0,.97-.08,1.79-.25,2.46-.32,1.23-.92,2.18-1.81,2.84-.89.66-1.99.99-3.32.99s-2.43-.35-3.32-1.04c-.89-.69-1.48-1.66-1.78-2.91-.11-.48-.18-.86-.2-1.12v-.06c0-.15.08-.22.25-.22h2.16c.19,0,.29.09.31.28.04.3.07.5.11.59.15.69.44,1.22.87,1.58.43.36.96.55,1.6.55s1.17-.19,1.61-.56c.44-.37.73-.91.88-1.6.11-.43.17-1.02.17-1.76s-.07-1.38-.2-1.96c-.15-.63-.44-1.12-.87-1.44-.43-.33-.96-.49-1.6-.49s-1.14.14-1.58.42-.75.7-.94,1.26c-.04.15-.14.22-.31.22h-2.18c-.19,0-.28-.09-.28-.28v-11c0-.19.09-.28.28-.28h9.55c.19,0,.28.09.28.28v1.76c0,.19-.09.28-.28.28h-7.03c-.07,0-.11.04-.11.11l-.03,5.96c0,.09.05.11.14.06.37-.37.83-.66,1.36-.85.53-.2,1.1-.29,1.69-.29,1.1,0,2.03.27,2.8.8.77.53,1.3,1.3,1.6,2.31.28.92.42,1.95.42,3.11Z"/>
      <path class="cls-1" d="M508.6,934.41v1.88c0,.19-.09.28-.28.28h-1.04c-.08,0-.11.04-.11.11v4.84c0,.19-.09.28-.28.28h-2.13c-.19,0-.28-.09-.28-.28v-4.84c0-.07-.04-.11-.11-.11h-7.7c-.19,0-.28-.09-.28-.28v-1.54c0-.13.02-.24.06-.34l4.79-11.98c.06-.15.16-.22.31-.22h2.3c.09,0,.16.03.2.1.04.07.04.14,0,.24l-4.51,11.45s-.02.07,0,.1c.02.03.05.04.08.04h4.76c.07,0,.11-.04.11-.11v-3.98c0-.19.09-.28.28-.28h2.13c.19,0,.28.09.28.28v3.98c0,.08.04.11.11.11h1.04c.19,0,.28.09.28.28Z"/>
    </g>
  </g>
  <g id="wv_hall_2C_55" data-name="2C/55" class="ds-stand">
    <rect class="cls-3" x="539" y="910" width="34" height="44" rx="4" ry="4"/>
    <g>
      <path class="cls-1" d="M554.94,935.72c0,.97-.08,1.79-.25,2.46-.32,1.23-.92,2.18-1.81,2.84s-1.99.99-3.32.99-2.43-.35-3.32-1.04c-.89-.69-1.48-1.66-1.78-2.91-.11-.48-.18-.86-.2-1.12v-.06c0-.15.08-.22.25-.22h2.16c.19,0,.29.09.31.28.04.3.07.5.11.59.15.69.44,1.22.87,1.58.43.36.96.55,1.6.55s1.17-.19,1.61-.56c.44-.37.73-.91.88-1.6.11-.43.17-1.02.17-1.76s-.07-1.38-.2-1.96c-.15-.63-.44-1.12-.87-1.44-.43-.33-.96-.49-1.6-.49s-1.14.14-1.58.42c-.44.28-.75.7-.94,1.26-.04.15-.14.22-.31.22h-2.18c-.19,0-.28-.09-.28-.28v-11c0-.19.09-.28.28-.28h9.55c.19,0,.28.09.28.28v1.76c0,.19-.09.28-.28.28h-7.03c-.08,0-.11.04-.11.11l-.03,5.96c0,.09.05.11.14.06.37-.37.83-.66,1.36-.85.53-.2,1.1-.29,1.69-.29,1.1,0,2.03.27,2.8.8.77.53,1.3,1.3,1.6,2.31.28.92.42,1.95.42,3.11Z"/>
      <path class="cls-1" d="M568.12,935.72c0,.97-.08,1.79-.25,2.46-.32,1.23-.92,2.18-1.81,2.84-.89.66-1.99.99-3.32.99s-2.43-.35-3.32-1.04c-.89-.69-1.48-1.66-1.78-2.91-.11-.48-.18-.86-.2-1.12v-.06c0-.15.08-.22.25-.22h2.16c.19,0,.29.09.31.28.04.3.07.5.11.59.15.69.44,1.22.87,1.58.43.36.96.55,1.6.55s1.17-.19,1.61-.56c.44-.37.73-.91.88-1.6.11-.43.17-1.02.17-1.76s-.07-1.38-.2-1.96c-.15-.63-.44-1.12-.87-1.44-.43-.33-.96-.49-1.6-.49s-1.14.14-1.58.42-.75.7-.94,1.26c-.04.15-.14.22-.31.22h-2.18c-.19,0-.28-.09-.28-.28v-11c0-.19.09-.28.28-.28h9.55c.19,0,.28.09.28.28v1.76c0,.19-.09.28-.28.28h-7.03c-.07,0-.11.04-.11.11l-.03,5.96c0,.09.05.11.14.06.37-.37.83-.66,1.36-.85.53-.2,1.1-.29,1.69-.29,1.1,0,2.03.27,2.8.8.77.53,1.3,1.3,1.6,2.31.28.92.42,1.95.42,3.11Z"/>
    </g>
  </g>
  <g id="wv_hall_2C_56" data-name="2C/56" class="ds-stand">
    <rect class="cls-3" x="579" y="910" width="34" height="44" rx="4" ry="4"/>
    <g>
      <path class="cls-1" d="M594.92,935.72c0,.97-.08,1.79-.25,2.46-.32,1.23-.92,2.18-1.81,2.84s-1.99.99-3.32.99-2.43-.35-3.32-1.04c-.89-.69-1.48-1.66-1.78-2.91-.11-.48-.18-.86-.2-1.12v-.06c0-.15.08-.22.25-.22h2.16c.19,0,.29.09.31.28.04.3.07.5.11.59.15.69.44,1.22.87,1.58.43.36.96.55,1.6.55s1.17-.19,1.61-.56c.44-.37.73-.91.88-1.6.11-.43.17-1.02.17-1.76s-.07-1.38-.2-1.96c-.15-.63-.44-1.12-.87-1.44-.43-.33-.96-.49-1.6-.49s-1.14.14-1.58.42c-.44.28-.75.7-.94,1.26-.04.15-.14.22-.31.22h-2.18c-.19,0-.28-.09-.28-.28v-11c0-.19.09-.28.28-.28h9.55c.19,0,.28.09.28.28v1.76c0,.19-.09.28-.28.28h-7.03c-.08,0-.11.04-.11.11l-.03,5.96c0,.09.05.11.14.06.37-.37.83-.66,1.36-.85.53-.2,1.1-.29,1.69-.29,1.1,0,2.03.27,2.8.8.77.53,1.3,1.3,1.6,2.31.28.92.42,1.95.42,3.11Z"/>
      <path class="cls-1" d="M608.14,935.72c0,.95-.1,1.79-.31,2.52-.32,1.21-.91,2.15-1.76,2.8-.86.65-1.95.98-3.28.98-1.21,0-2.24-.29-3.08-.88-.84-.59-1.43-1.43-1.76-2.53-.34-.75-.5-1.68-.5-2.8l-.03-8.88c0-1.49.49-2.69,1.46-3.6s2.25-1.36,3.84-1.36c1.49,0,2.71.45,3.65,1.34.94.9,1.41,2.07,1.41,3.53v.59c0,.19-.09.28-.28.28h-2.13c-.19,0-.28-.09-.28-.28v-.39c0-.78-.23-1.43-.69-1.95-.46-.51-1.03-.77-1.72-.77-.75,0-1.36.26-1.83.77-.48.51-.71,1.19-.71,2.03v3.53s.01.07.04.08c.03.02.06,0,.1-.03.73-.84,1.7-1.26,2.91-1.26,1.14,0,2.09.3,2.84.9.76.6,1.31,1.42,1.67,2.46.3.84.45,1.81.45,2.91ZM605.42,935.67c0-.88-.09-1.59-.28-2.13-.17-.58-.46-1.03-.87-1.36-.41-.33-.92-.49-1.51-.49s-1.12.16-1.53.49c-.4.33-.69.79-.85,1.39-.17.52-.25,1.23-.25,2.13,0,.77.07,1.41.2,1.93.15.63.43,1.13.85,1.5.42.36.95.55,1.58.55s1.16-.18,1.58-.55c.42-.36.71-.89.88-1.58.13-.5.2-1.13.2-1.88Z"/>
    </g>
  </g>
  <g id="wv_hall_2C_57" data-name="2C/57" class="ds-stand">
    <rect class="cls-3" x="619" y="910" width="34" height="44" rx="4" ry="4"/>
    <g>
      <path class="cls-1" d="M635.5,935.72c0,.97-.08,1.79-.25,2.46-.32,1.23-.92,2.18-1.81,2.84-.89.66-1.99.99-3.32.99s-2.43-.35-3.32-1.04c-.89-.69-1.48-1.66-1.78-2.91-.11-.48-.18-.86-.2-1.12v-.06c0-.15.08-.22.25-.22h2.16c.19,0,.29.09.31.28.04.3.07.5.11.59.15.69.44,1.22.87,1.58.43.36.96.55,1.6.55s1.17-.19,1.61-.56c.44-.37.73-.91.88-1.6.11-.43.17-1.02.17-1.76s-.07-1.38-.2-1.96c-.15-.63-.44-1.12-.87-1.44-.43-.33-.96-.49-1.6-.49s-1.14.14-1.58.42-.75.7-.94,1.26c-.04.15-.14.22-.31.22h-2.18c-.19,0-.28-.09-.28-.28v-11c0-.19.09-.28.28-.28h9.55c.19,0,.28.09.28.28v1.76c0,.19-.09.28-.28.28h-7.03c-.07,0-.11.04-.11.11l-.03,5.96c0,.09.05.11.14.06.37-.37.83-.66,1.36-.85.53-.2,1.1-.29,1.69-.29,1.1,0,2.03.27,2.8.8.77.53,1.3,1.3,1.6,2.31.28.92.42,1.95.42,3.11Z"/>
      <path class="cls-1" d="M639.75,941.49l5.54-16.83s.01-.07-.01-.1c-.03-.03-.06-.04-.1-.04h-5.6c-.08,0-.11.04-.11.11v1.2c0,.19-.09.28-.28.28h-1.65c-.19,0-.28-.09-.28-.28v-3.36c0-.19.09-.28.28-.28h10.33c.19,0,.28.09.28.28v1.88c0,.07-.02.19-.06.34l-5.52,16.88c-.06.15-.17.22-.34.22h-2.27c-.21,0-.28-.1-.22-.31Z"/>
    </g>
  </g>
  <g id="wv_hall_2C_58" data-name="2C/58" class="ds-stand">
    <rect class="cls-3" x="659" y="910" width="34" height="44" rx="4" ry="4"/>
    <g>
      <path class="cls-1" d="M674.84,935.72c0,.97-.08,1.79-.25,2.46-.32,1.23-.92,2.18-1.81,2.84-.89.66-1.99.99-3.32.99s-2.43-.35-3.32-1.04c-.89-.69-1.48-1.66-1.78-2.91-.11-.48-.18-.86-.2-1.12v-.06c0-.15.08-.22.25-.22h2.16c.19,0,.29.09.31.28.04.3.07.5.11.59.15.69.44,1.22.87,1.58.43.36.96.55,1.6.55s1.17-.19,1.61-.56c.44-.37.73-.91.88-1.6.11-.43.17-1.02.17-1.76s-.07-1.38-.2-1.96c-.15-.63-.44-1.12-.87-1.44-.43-.33-.96-.49-1.6-.49s-1.14.14-1.58.42-.75.7-.94,1.26c-.04.15-.14.22-.31.22h-2.18c-.19,0-.28-.09-.28-.28v-11c0-.19.09-.28.28-.28h9.55c.19,0,.28.09.28.28v1.76c0,.19-.09.28-.28.28h-7.03c-.07,0-.11.04-.11.11l-.03,5.96c0,.09.05.11.14.06.37-.37.83-.66,1.36-.85.53-.2,1.1-.29,1.69-.29,1.1,0,2.03.27,2.8.8.77.53,1.3,1.3,1.6,2.31.28.92.42,1.95.42,3.11Z"/>
      <path class="cls-1" d="M687.91,936.26c0,1.16-.21,2.15-.62,2.97-.41.88-1.02,1.56-1.83,2.06-.81.5-1.77.74-2.87.74s-2.06-.25-2.88-.76c-.82-.5-1.44-1.21-1.85-2.13-.41-.88-.62-1.85-.62-2.91s.18-1.95.53-2.77c.37-.88.98-1.52,1.82-1.93.09-.06.09-.11,0-.17-.65-.39-1.16-.91-1.51-1.54-.47-.77-.7-1.67-.7-2.72s.21-1.92.64-2.69c.43-.78,1.05-1.4,1.85-1.85.8-.45,1.71-.67,2.72-.67s1.96.22,2.74.66c.78.44,1.38,1.06,1.79,1.86.45.8.67,1.7.67,2.69s-.23,1.91-.7,2.72c-.35.63-.86,1.15-1.51,1.54-.09.06-.1.1-.03.14.84.41,1.45,1.06,1.82,1.96.35.77.53,1.7.53,2.8ZM685.25,936.09c0-.75-.1-1.38-.31-1.9-.19-.54-.48-.96-.88-1.26-.4-.3-.89-.45-1.47-.45-1.18,0-1.96.55-2.35,1.65-.21.5-.31,1.16-.31,1.96s.13,1.52.39,2.04c.41,1.05,1.17,1.57,2.27,1.57s1.83-.51,2.24-1.54c.28-.56.42-1.25.42-2.07ZM680.05,927.3c0,.67.13,1.25.39,1.74.21.43.49.77.87,1.01.37.24.8.36,1.29.36s.94-.13,1.32-.38c.37-.25.66-.6.87-1.05.24-.47.36-1.04.36-1.71,0-.58-.11-1.09-.34-1.54-.19-.47-.47-.84-.85-1.11-.38-.27-.85-.41-1.39-.41-.5,0-.95.14-1.34.42-.39.28-.68.65-.87,1.12-.21.5-.31,1.02-.31,1.54Z"/>
    </g>
  </g>
  <g id="wv_hall_2C_59" data-name="2C/59" class="ds-stand">
    <rect class="cls-3" x="699" y="910" width="34" height="44" rx="4" ry="4"/>
    <g>
      <path class="cls-1" d="M715.05,935.72c0,.97-.08,1.79-.25,2.46-.32,1.23-.92,2.18-1.81,2.84-.89.66-1.99.99-3.32.99s-2.43-.35-3.32-1.04c-.89-.69-1.48-1.66-1.78-2.91-.11-.48-.18-.86-.2-1.12v-.06c0-.15.08-.22.25-.22h2.16c.19,0,.29.09.31.28.04.3.07.5.11.59.15.69.44,1.22.87,1.58.43.36.96.55,1.6.55s1.17-.19,1.61-.56c.44-.37.73-.91.88-1.6.11-.43.17-1.02.17-1.76s-.07-1.38-.2-1.96c-.15-.63-.44-1.12-.87-1.44-.43-.33-.96-.49-1.6-.49s-1.14.14-1.58.42-.75.7-.94,1.26c-.04.15-.14.22-.31.22h-2.18c-.19,0-.28-.09-.28-.28v-11c0-.19.09-.28.28-.28h9.55c.19,0,.28.09.28.28v1.76c0,.19-.09.28-.28.28h-7.03c-.07,0-.11.04-.11.11l-.03,5.96c0,.09.05.11.14.06.37-.37.83-.66,1.36-.85.53-.2,1.1-.29,1.69-.29,1.1,0,2.03.27,2.8.8.77.53,1.3,1.3,1.6,2.31.28.92.42,1.95.42,3.11Z"/>
      <path class="cls-1" d="M727.65,928.19v8.88c0,1.51-.49,2.72-1.46,3.61-.97.9-2.24,1.34-3.81,1.34s-2.73-.45-3.67-1.34c-.93-.9-1.4-2.07-1.4-3.53v-.59c0-.19.09-.28.28-.28h2.13c.19,0,.28.09.28.28v.39c0,.8.22,1.46.67,1.96.45.5,1.02.76,1.71.76.77,0,1.39-.26,1.86-.77.48-.51.71-1.19.71-2.03v-3.56s-.01-.07-.04-.08c-.03-.02-.06,0-.1.03-.73.86-1.7,1.29-2.91,1.29-1.14,0-2.09-.3-2.86-.9-.77-.6-1.32-1.42-1.65-2.46-.3-.77-.45-1.74-.45-2.91,0-1.05.1-1.89.31-2.52.3-1.21.88-2.15,1.74-2.8.86-.65,1.95-.98,3.28-.98,1.21,0,2.24.29,3.08.88.84.59,1.43,1.43,1.76,2.53.35.78.53,1.72.53,2.8ZM723.83,931.82c.4-.33.69-.79.85-1.39.19-.58.28-1.29.28-2.13,0-.77-.07-1.41-.2-1.93-.17-.65-.46-1.16-.88-1.51-.42-.35-.95-.53-1.58-.53s-1.14.18-1.57.55c-.43.36-.73.89-.9,1.58-.13.62-.2,1.24-.2,1.88,0,.8.09,1.51.28,2.13.39,1.23,1.19,1.85,2.38,1.85.62,0,1.12-.16,1.53-.49Z"/>
    </g>
  </g>
  <g id="wv_hall_2C_60" data-name="2C/60" class="ds-stand">
    <rect class="cls-3" x="739" y="910" width="34" height="44" rx="4" ry="4"/>
    <g>
      <path class="cls-1" d="M754.45,935.72c0,.95-.1,1.79-.31,2.52-.32,1.21-.91,2.15-1.76,2.8-.86.65-1.95.98-3.28.98-1.21,0-2.24-.29-3.08-.88-.84-.59-1.43-1.43-1.76-2.53-.34-.75-.5-1.68-.5-2.8l-.03-8.88c0-1.49.48-2.69,1.46-3.6.97-.91,2.25-1.36,3.84-1.36,1.49,0,2.71.45,3.65,1.34.94.9,1.41,2.07,1.41,3.53v.59c0,.19-.09.28-.28.28h-2.13c-.19,0-.28-.09-.28-.28v-.39c0-.78-.23-1.43-.69-1.95-.46-.51-1.03-.77-1.72-.77-.75,0-1.36.26-1.83.77-.48.51-.71,1.19-.71,2.03v3.53s.01.07.04.08c.03.02.06,0,.1-.03.73-.84,1.7-1.26,2.91-1.26,1.14,0,2.09.3,2.84.9.76.6,1.31,1.42,1.67,2.46.3.84.45,1.81.45,2.91ZM751.73,935.67c0-.88-.09-1.59-.28-2.13-.17-.58-.46-1.03-.87-1.36-.41-.33-.91-.49-1.51-.49s-1.12.16-1.53.49c-.4.33-.69.79-.85,1.39-.17.52-.25,1.23-.25,2.13,0,.77.07,1.41.2,1.93.15.63.43,1.13.85,1.5.42.36.95.55,1.58.55s1.16-.18,1.58-.55c.42-.36.71-.89.88-1.58.13-.5.2-1.13.2-1.88Z"/>
      <path class="cls-1" d="M758.52,940.57c-1.02-1.01-1.53-2.36-1.53-4.06v-9.02c0-1.68.51-3.02,1.53-4.03,1.02-1.01,2.38-1.51,4.07-1.51s3.06.5,4.09,1.51c1.03,1.01,1.54,2.35,1.54,4.03v9.02c0,1.7-.51,3.05-1.54,4.06-1.03,1.01-2.39,1.51-4.09,1.51s-3.06-.5-4.07-1.51ZM764.72,938.9c.54-.57.81-1.32.81-2.25v-9.27c0-.93-.27-1.68-.81-2.25-.54-.57-1.25-.85-2.13-.85s-1.58.28-2.11.85-.8,1.32-.8,2.25v9.27c0,.93.27,1.68.8,2.25s1.24.85,2.11.85,1.59-.28,2.13-.85Z"/>
    </g>
  </g>
  <g id="wv_hall_2C_61" data-name="2C/61" class="ds-stand">
    <rect class="cls-3" x="779" y="910" width="34" height="44" rx="4" ry="4"/>
    <g>
      <path class="cls-1" d="M797.47,935.72c0,.95-.1,1.79-.31,2.52-.32,1.21-.91,2.15-1.76,2.8-.86.65-1.95.98-3.28.98-1.21,0-2.24-.29-3.08-.88-.84-.59-1.43-1.43-1.76-2.53-.34-.75-.5-1.68-.5-2.8l-.03-8.88c0-1.49.49-2.69,1.46-3.6s2.25-1.36,3.84-1.36c1.49,0,2.71.45,3.65,1.34.94.9,1.41,2.07,1.41,3.53v.59c0,.19-.09.28-.28.28h-2.13c-.19,0-.28-.09-.28-.28v-.39c0-.78-.23-1.43-.69-1.95-.46-.51-1.03-.77-1.72-.77-.75,0-1.36.26-1.83.77-.48.51-.71,1.19-.71,2.03v3.53s.01.07.04.08c.03.02.06,0,.1-.03.73-.84,1.7-1.26,2.91-1.26,1.14,0,2.09.3,2.84.9.76.6,1.31,1.42,1.67,2.46.3.84.45,1.81.45,2.91ZM794.75,935.67c0-.88-.09-1.59-.28-2.13-.17-.58-.46-1.03-.87-1.36-.41-.33-.92-.49-1.51-.49s-1.12.16-1.53.49c-.4.33-.69.79-.85,1.39-.17.52-.25,1.23-.25,2.13,0,.77.07,1.41.2,1.93.15.63.43,1.13.85,1.5.42.36.95.55,1.58.55s1.16-.18,1.58-.55c.42-.36.71-.89.88-1.58.13-.5.2-1.13.2-1.88Z"/>
      <path class="cls-1" d="M802.37,922.2h2.21c.19,0,.28.09.28.28v19.04c0,.19-.09.28-.28.28h-2.13c-.19,0-.28-.09-.28-.28v-16.41s-.01-.07-.04-.1-.06-.03-.1-.01l-2.72.87-.11.03c-.11,0-.19-.08-.22-.25l-.11-1.6c0-.15.07-.26.2-.34l2.94-1.43c.11-.06.23-.08.36-.08Z"/>
    </g>
  </g>
  <g id="wv_hall_2C_62" data-name="2C/62" class="ds-stand">
    <rect class="cls-3" x="819" y="910" width="34" height="44" rx="4" ry="4"/>
    <g>
      <path class="cls-1" d="M834.82,935.72c0,.95-.1,1.79-.31,2.52-.32,1.21-.91,2.15-1.76,2.8-.86.65-1.95.98-3.28.98-1.21,0-2.24-.29-3.08-.88-.84-.59-1.43-1.43-1.76-2.53-.34-.75-.5-1.68-.5-2.8l-.03-8.88c0-1.49.48-2.69,1.46-3.6.97-.91,2.25-1.36,3.84-1.36,1.49,0,2.71.45,3.65,1.34.94.9,1.41,2.07,1.41,3.53v.59c0,.19-.09.28-.28.28h-2.13c-.19,0-.28-.09-.28-.28v-.39c0-.78-.23-1.43-.69-1.95-.46-.51-1.03-.77-1.72-.77-.75,0-1.36.26-1.83.77-.48.51-.71,1.19-.71,2.03v3.53s.01.07.04.08c.03.02.06,0,.1-.03.73-.84,1.7-1.26,2.91-1.26,1.14,0,2.09.3,2.84.9.76.6,1.31,1.42,1.67,2.46.3.84.45,1.81.45,2.91ZM832.11,935.67c0-.88-.09-1.59-.28-2.13-.17-.58-.46-1.03-.87-1.36-.41-.33-.91-.49-1.51-.49s-1.12.16-1.53.49c-.4.33-.69.79-.85,1.39-.17.52-.25,1.23-.25,2.13,0,.77.07,1.41.2,1.93.15.63.43,1.13.85,1.5.42.36.95.55,1.58.55s1.16-.18,1.58-.55c.42-.36.71-.89.88-1.58.13-.5.2-1.13.2-1.88Z"/>
      <path class="cls-1" d="M840.56,939.48h7.42c.19,0,.28.09.28.28v1.76c0,.19-.09.28-.28.28h-10.56c-.19,0-.28-.09-.28-.28v-1.79c0-.13.04-.24.11-.34,2.41-3.1,4.28-5.59,5.63-7.48,1.44-2,2.16-3.59,2.16-4.79,0-.86-.24-1.54-.73-2.06-.49-.51-1.13-.77-1.93-.77s-1.41.26-1.89.77c-.48.51-.71,1.19-.69,2.03v.98c0,.19-.09.28-.28.28h-2.16c-.19,0-.28-.09-.28-.28v-1.2c.04-1.47.56-2.66,1.55-3.56s2.26-1.34,3.79-1.34c1.06,0,2,.22,2.8.66.8.44,1.42,1.05,1.86,1.83.44.78.66,1.67.66,2.66,0,1.66-.75,3.55-2.24,5.66-.86,1.21-2.26,3.05-4.2,5.52l-.81,1.04c-.06.09-.04.14.06.14Z"/>
    </g>
  </g>
  <g id="wv_hall_2C_63" data-name="2C/63" class="ds-stand">
    <rect class="cls-3" x="859" y="910" width="34" height="44" rx="4" ry="4"/>
    <g>
      <path class="cls-1" d="M874.95,935.72c0,.95-.1,1.79-.31,2.52-.32,1.21-.91,2.15-1.76,2.8-.86.65-1.95.98-3.28.98-1.21,0-2.24-.29-3.08-.88-.84-.59-1.43-1.43-1.76-2.53-.34-.75-.5-1.68-.5-2.8l-.03-8.88c0-1.49.48-2.69,1.46-3.6.97-.91,2.25-1.36,3.84-1.36,1.49,0,2.71.45,3.65,1.34.94.9,1.41,2.07,1.41,3.53v.59c0,.19-.09.28-.28.28h-2.13c-.19,0-.28-.09-.28-.28v-.39c0-.78-.23-1.43-.69-1.95-.46-.51-1.03-.77-1.72-.77-.75,0-1.36.26-1.83.77-.48.51-.71,1.19-.71,2.03v3.53s.01.07.04.08c.03.02.06,0,.1-.03.73-.84,1.7-1.26,2.91-1.26,1.14,0,2.09.3,2.84.9.76.6,1.31,1.42,1.67,2.46.3.84.45,1.81.45,2.91ZM872.23,935.67c0-.88-.09-1.59-.28-2.13-.17-.58-.46-1.03-.87-1.36-.41-.33-.91-.49-1.51-.49s-1.12.16-1.53.49c-.4.33-.69.79-.85,1.39-.17.52-.25,1.23-.25,2.13,0,.77.07,1.41.2,1.93.15.63.43,1.13.85,1.5.42.36.95.55,1.58.55s1.16-.18,1.58-.55c.42-.36.71-.89.88-1.58.13-.5.2-1.13.2-1.88Z"/>
      <path class="cls-1" d="M887.77,935.72c0,1.16-.18,2.19-.53,3.11-.39,1.05-.99,1.84-1.79,2.38-.8.54-1.8.81-3,.81-1.36,0-2.5-.36-3.42-1.08-.92-.72-1.49-1.68-1.74-2.9-.11-.56-.19-1.24-.22-2.04,0-.19.09-.28.28-.28h2.13c.19,0,.28.09.28.28.04.62.09,1.12.17,1.51.15.69.44,1.23.87,1.61.43.38.98.57,1.65.57.62,0,1.13-.16,1.54-.49.41-.33.71-.81.9-1.44.17-.62.25-1.36.25-2.24,0-1.01-.12-1.84-.36-2.49-.21-.58-.5-1.02-.9-1.32-.39-.3-.88-.45-1.46-.45-.28,0-.58.08-.9.25-.08.04-.13.06-.17.06-.07,0-.15-.04-.22-.11l-1.09-1.18c-.06-.06-.08-.12-.08-.2s.03-.14.08-.2l4.26-5.24s.05-.07.03-.1c-.02-.03-.05-.04-.08-.04h-6.66c-.19,0-.28-.09-.28-.28v-1.76c0-.19.09-.28.28-.28h9.83c.19,0,.28.09.28.28v1.85c0,.13-.04.24-.11.34l-3.95,4.96s-.05.07-.03.1.05.04.08.04c.84.07,1.56.34,2.16.8.6.46,1.05,1.08,1.37,1.86.37.91.56,2.02.56,3.3Z"/>
    </g>
  </g>
</svg>