<?xml version="1.0" encoding="UTF-8"?>
<svg id="wv_hall_3A" data-name="Hall 3A" xmlns="http://www.w3.org/2000/svg" viewBox="0 0 1300 1300" class="hall-svg h-auto">
  <g id="wv_hall_1300" data-name="1300">
    <rect class="cls-2" width="1300" height="1300"/>
  </g>
  <g id="HALL">
    <g>
      <path class="cls-3" d="M703.1,668.15c.78-.26,1.62.15,1.91.94,2.75,7.43,9.93,12.42,17.86,12.42,9.46,0,17.57-7.03,18.87-16.36.17-1.22,1.23-2.14,2.47-2.14l190.52.75c4.7,0,8.52-3.81,8.52-8.5v-9c0-4.69-3.82-8.5-8.52-8.5l-211.52-.75h0c-1.27,0-2.36-.95-2.49-2.17-1.36-13.3-12.51-23.33-25.94-23.33s-24.77,10.18-25.97,23.68c-.01.16-.09.3-.22.38-.13.09-.28.11-.44.07-2.59-.75-5.28-1.13-7.98-1.13-4.01,0-7.89.82-11.54,2.43-.3-11.87-10.08-21.43-22.05-21.43-11.14,0-20.56,8.3-21.9,19.32-.15,1.25-1.22,2.18-2.48,2.18h-224.38c-.53,0-1.02-.26-1.28-.68-3.06-4.99-8.12-8.45-13.87-9.49-1.05-.19-2.12.09-2.93.77-.79.66-1.25,1.64-1.25,2.67v39.46c0,1.03.46,2.01,1.25,2.67.81.68,1.88.96,2.93.77,5.75-1.04,10.8-4.5,13.87-9.49.26-.42.75-.68,1.28-.68h202.34c1.24,0,2.31.92,2.48,2.14,1.3,9.33,9.41,16.36,18.87,16.36s16.96-6.46,18.69-15.37c.07-.36.28-.68.6-.89.35-.23.79-.31,1.21-.22,3.01.64,6.15.64,9.22-.02.16-.03.31,0,.43.12.12.11.17.26.15.42-.14,1.16-.22,2.33-.22,3.47,0,15.71,12.82,28.5,28.58,28.5s28.58-12.79,28.58-28.5c0-.07,0-.13,0-.2,4.73,1.12,9.76.89,14.34-.65ZM688.37,667.67c-.15-.04-.31,0-.44.09-.12.1-.19.25-.19.41v.22c.01.2.02.41.02.61,0,15.16-12.37,27.5-27.58,27.5s-27.58-12.34-27.58-27.5c0-1.1.07-2.23.21-3.35.06-.48-.12-.95-.47-1.28-.28-.25-.64-.39-1-.39-.1,0-.21.01-.31.03-2.93.64-5.93.63-8.8.02-.68-.14-1.4-.01-1.97.37-.54.36-.91.9-1.03,1.53-1.64,8.44-9.08,14.56-17.71,14.56s-16.65-6.66-17.88-15.5c-.24-1.71-1.73-3-3.47-3h-202.34c-.87,0-1.69.44-2.13,1.16-2.92,4.75-7.72,8.04-13.19,9.03-.76.14-1.53-.06-2.11-.55-.57-.47-.89-1.17-.89-1.9v-39.46c0-.74.32-1.43.89-1.9.58-.49,1.36-.69,2.11-.55,5.47.99,10.28,4.28,13.19,9.03.44.72,1.26,1.16,2.13,1.16h224.38c1.77,0,3.26-1.32,3.47-3.06,1.28-10.51,10.27-18.44,20.91-18.44,11.61,0,21.06,9.42,21.06,21,0,.28.22.5.5.5h.44c.07,0,.14-.02.21-.04,3.6-1.63,7.43-2.46,11.39-2.46,2.61,0,5.2.37,7.7,1.09.44.13.91.06,1.28-.2.37-.26.61-.66.65-1.12,1.15-12.98,11.89-22.77,24.97-22.77s23.63,9.64,24.94,22.43c.18,1.75,1.68,3.07,3.48,3.07l211.52.75c4.15,0,7.52,3.36,7.52,7.5v9c0,4.14-3.38,7.5-7.52,7.5l-190.52-.75c-1.74,0-3.23,1.29-3.47,3-1.23,8.84-8.92,15.5-17.88,15.5-7.51,0-14.31-4.73-16.92-11.77-.48-1.3-1.87-1.97-3.16-1.54-4.61,1.55-9.68,1.72-14.41.47Z"/>
      <path class="cls-3" d="M1003,729.5h-30c-.28,0-.5.22-.5.5v29.5H329.5v-76h14.5c.28,0,.5-.22.5-.5,0-7.22-4.97-13.29-11.66-15,6.69-1.71,11.66-7.78,11.66-15,0-.28-.22-.5-.5-.5h-14.5v-4h14.5c.28,0,.5-.22.5-.5,0-7.22-4.97-13.29-11.66-15,6.69-1.71,11.66-7.78,11.66-15,0-.28-.22-.5-.5-.5h-14.5v-77h643v129.5c0,.28.22.5.5.5h30c.28,0,.5-.22.5-.5s-.22-.5-.5-.5h-29.5v-129.5c0-.28-.22-.5-.5-.5H329c-.28,0-.5.22-.5.5v77.5h-14.5c-.28,0-.5.22-.5.5,0,7.22,4.97,13.29,11.66,15-6.69,1.71-11.66,7.78-11.66,15,0,.28.22.5.5.5h14.5v4h-14.5c-.28,0-.5.22-.5.5,0,7.22,4.97,13.29,11.66,15-6.69,1.71-11.66,7.78-11.66,15,0,.28.22.5.5.5h14.5v76.5c0,.28.22.5.5.5h644c.28,0,.5-.22.5-.5v-29.5h29.5c.28,0,.5-.22.5-.5s-.22-.5-.5-.5ZM314.51,618.5h28.98c-.26,7.76-6.66,14-14.49,14s-14.23-6.24-14.49-14ZM329,633.5c7.83,0,14.23,6.24,14.49,14h-28.98c.26-7.76,6.66-14,14.49-14ZM314.51,653.5h28.98c-.26,7.76-6.66,14-14.49,14s-14.23-6.24-14.49-14ZM329,668.5c7.83,0,14.23,6.24,14.49,14h-28.98c.26-7.76,6.66-14,14.49-14Z"/>
    </g>
  </g>
  <g id="Signage">
    <g>
      <path class="cls-3" d="M668.31,653.07c-2.49-3.64-6.98-6.07-12.13-6.07-7.83,0-14.18,5.62-14.18,12.57,0,2.49.81,4.84,2.25,6.81l-1.81,6.46c-.03.34.24.61.55.61.07,0,.15-.02.22-.05l6.62-2.56c1.9.84,4.07,1.33,6.32,1.33.85,0,1.69-.08,2.5-.21,2.27,2.02,5.41,3.27,8.88,3.27,1.98,0,3.9-.43,5.57-1.18l5.84,2.26c.07.03.13.04.2.04.27,0,.51-.24.48-.54l-1.6-5.7c1.27-1.73,1.98-3.81,1.98-6,0-5.88-5.17-10.67-11.69-11.04ZM656.15,671.17c-2.03,0-4.08-.43-5.91-1.25l-.38-.17-.39.15-5.8,2.25,1.55-5.5.13-.47-.29-.39c-1.34-1.83-2.05-3.99-2.05-6.22,0-6.38,5.91-11.57,13.18-11.57,4.52,0,8.51,2.01,10.89,5.06-6.7.2-12.08,5.06-12.08,11.06,0,2.63,1.04,5.05,2.77,6.96-.53.06-1.06.1-1.61.1ZM655.99,664.12c0-5.56,5.16-10.08,11.5-10.08.09,0,.18.01.27.01,1.02,1.64,1.6,3.52,1.6,5.52,0,5.54-4.45,10.18-10.38,11.33-1.85-1.8-3-4.17-3-6.77ZM677.06,670.39l1.3,4.62-4.9-1.89-.39-.15-.38.17c-1.6.71-3.39,1.09-5.17,1.09-2.91,0-5.57-.96-7.6-2.53,6.02-1.47,10.44-6.35,10.44-12.14,0-1.95-.52-3.79-1.41-5.44,5.66.63,10.05,4.87,10.05,9.99,0,1.94-.62,3.82-1.79,5.41l-.29.39.13.47Z"/>
      <path class="cls-3" d="M301.83,650.4c1.96-.78,2.32-1.46,2.32-4.26,0-2.18-.42-3.16-1.62-3.95-1.15-.73-2.97-.92-8.43-.92-1.99,0-5.07.08-5.99.14-1.74.14-2.49.39-3.25,1.04-.95.81-1.18,1.76-1.23,5.07h2.55v-1.01c0-1.57.2-2.16.81-2.49.73-.39,2.97-.56,7.03-.56,3.39,0,5.63.14,6.36.39.92.31,1.29,1.09,1.29,2.69,0,2.38-.67,2.83-4.34,2.83h-5.99v2.13h5.29c1.29,0,3.53.2,3.89.34,1.01.36,1.34.98,1.34,2.49,0,2.52-.42,3.16-2.07,3.33-.95.11-3.84.22-5.24.22-3.5,0-6.8-.17-7.45-.42-.9-.31-1.15-1.01-1.18-3.08v-.73h-2.46c0,2.16.03,2.66.28,3.64.31,1.2,1.4,2.16,2.8,2.41,1.15.22,4.26.36,7.62.36,4.76,0,6.94-.17,7.95-.64,1.62-.73,2.24-2.02,2.24-4.65,0-2.86-.56-3.84-2.52-4.37Z"/>
      <path class="cls-3" d="M974.49,707.23c0-3.08.64-3.67,4.2-3.89,9.6-.5,11.03-.73,12.49-1.99,1.04-.92,1.4-2.04,1.4-4.31,0-1.29-.17-2.44-.45-3.08-.48-1.18-1.65-2.04-3.08-2.3-1.18-.2-5.1-.42-7.73-.42-1.79,0-3.61.11-4.79.25-1.65.25-2.69.76-3.44,1.79-.76.98-.92,1.93-.92,5.18h2.38c0-1.71.03-2.18.08-2.6.14-1.12.64-1.68,1.68-1.96.87-.25,3.67-.45,6.08-.45,3.42,0,5.74.22,6.58.67.9.45,1.32,1.46,1.32,3.19,0,1.6-.45,2.46-1.46,2.91-.84.39-1.93.53-6.22.76-2.8.17-4.45.28-4.98.34-1.46.17-2.63.45-3.33.81-1.74.92-2.27,2.32-2.27,5.85,0,.62.03,1.32.06,2.02h20.64v-2.13h-18.23v-.64Z"/>
      <path class="cls-3" d="M1005.35,696.25c.94-.27,1.26-.81,1.26-2.14,0-1.23-.27-1.85-.95-2.17-.52-.25-.62-.25-3.71-.27h-6.7v9.33h6.72c1.34-.01,2.07-.01,2.18-.01.84-.03,1.37-.1,1.69-.21.78-.31,1.12-.98,1.12-2.28,0-1.5-.38-2.04-1.61-2.25ZM997.95,693.87h4c1.32.01,1.34.01,1.5.06.28.07.41.28.41.66,0,.35-.11.59-.34.67-.18.07-.6.1-1.57.1h-4v-1.48ZM1003.84,698.67q-.21.08-1.88.1h-4.02v-1.55h4.02q1.67,0,1.82.04c.29.08.42.28.42.7s-.11.62-.36.71Z"/>
      <path class="cls-3" d="M1023.71,699.82l-8.18-13.4c-.39-.64-1.53-.6-1.53.48v28.21c0,1.08,1.14,1.11,1.53.48l8.18-13.4c.2-.33.3-.76.29-1.18,0-.43-.09-.86-.29-1.18Z"/>
      <path class="cls-3" d="M273.47,636.42l-8.18,13.4c-.2.33-.3.76-.29,1.18,0,.43.09.86.29,1.18l8.18,13.4c.39.64,1.53.6,1.53-.48v-28.21c0-1.08-1.14-1.11-1.53-.48Z"/>
    </g>
  </g>
  <g id="wv_hall_3A_01" data-name="3A/01" class="ds-stand">
    <rect class="cls-3" x="359" y="570" width="34" height="44" rx="4" ry="4"/>
    <g>
      <path class="cls-1" d="M367.74,600.57c-1.02-1.01-1.53-2.36-1.53-4.06v-9.02c0-1.68.51-3.02,1.53-4.03,1.02-1.01,2.38-1.51,4.07-1.51s3.06.5,4.09,1.51c1.03,1.01,1.54,2.35,1.54,4.03v9.02c0,1.7-.51,3.05-1.54,4.06-1.03,1.01-2.39,1.51-4.09,1.51s-3.06-.5-4.07-1.51ZM373.94,598.9c.54-.57.81-1.32.81-2.25v-9.27c0-.93-.27-1.68-.81-2.25-.54-.57-1.25-.85-2.13-.85s-1.58.28-2.11.85-.8,1.32-.8,2.25v9.27c0,.93.27,1.68.8,2.25s1.24.85,2.11.85,1.59-.28,2.13-.85Z"/>
      <path class="cls-1" d="M382.96,582.2h2.21c.19,0,.28.09.28.28v19.04c0,.19-.09.28-.28.28h-2.13c-.19,0-.28-.09-.28-.28v-16.41s-.01-.07-.04-.1c-.03-.03-.06-.03-.1-.01l-2.72.87-.11.03c-.11,0-.19-.08-.22-.25l-.11-1.6c0-.15.07-.26.2-.34l2.94-1.43c.11-.06.23-.08.36-.08Z"/>
    </g>
  </g>
  <g id="wv_hall_3A_02" data-name="3A/02" class="ds-stand">
    <rect class="cls-3" x="399" y="570" width="34" height="44" rx="4" ry="4"/>
    <g>
      <path class="cls-1" d="M405.19,600.57c-1.02-1.01-1.53-2.36-1.53-4.06v-9.02c0-1.68.51-3.02,1.53-4.03,1.02-1.01,2.38-1.51,4.07-1.51s3.06.5,4.09,1.51c1.03,1.01,1.54,2.35,1.54,4.03v9.02c0,1.7-.51,3.05-1.54,4.06-1.03,1.01-2.39,1.51-4.09,1.51s-3.06-.5-4.07-1.51ZM411.39,598.9c.54-.57.81-1.32.81-2.25v-9.27c0-.93-.27-1.68-.81-2.25-.54-.57-1.25-.85-2.13-.85s-1.58.28-2.11.85-.8,1.32-.8,2.25v9.27c0,.93.27,1.68.8,2.25s1.24.85,2.11.85,1.59-.28,2.13-.85Z"/>
      <path class="cls-1" d="M421.05,599.48h7.42c.19,0,.28.09.28.28v1.76c0,.19-.09.28-.28.28h-10.56c-.19,0-.28-.09-.28-.28v-1.79c0-.13.04-.24.11-.34,2.41-3.1,4.28-5.59,5.63-7.48,1.44-2,2.16-3.59,2.16-4.79,0-.86-.24-1.54-.73-2.06-.49-.51-1.13-.77-1.93-.77s-1.41.26-1.89.77c-.48.51-.7,1.19-.69,2.03v.98c0,.19-.09.28-.28.28h-2.16c-.19,0-.28-.09-.28-.28v-1.2c.04-1.47.56-2.66,1.55-3.56,1-.9,2.26-1.34,3.79-1.34,1.06,0,2,.22,2.8.66.8.44,1.42,1.05,1.86,1.83.44.78.66,1.67.66,2.66,0,1.66-.75,3.55-2.24,5.66-.86,1.21-2.26,3.05-4.2,5.52l-.81,1.04c-.06.09-.04.14.06.14Z"/>
    </g>
  </g>
  <g id="wv_hall_3A_03" data-name="3A/03" class="ds-stand">
    <rect class="cls-3" x="439" y="570" width="34" height="44" rx="4" ry="4"/>
    <g>
      <path class="cls-1" d="M445.32,600.57c-1.02-1.01-1.53-2.36-1.53-4.06v-9.02c0-1.68.51-3.02,1.53-4.03,1.02-1.01,2.38-1.51,4.07-1.51s3.06.5,4.09,1.51c1.03,1.01,1.54,2.35,1.54,4.03v9.02c0,1.7-.51,3.05-1.54,4.06-1.03,1.01-2.39,1.51-4.09,1.51s-3.06-.5-4.07-1.51ZM451.52,598.9c.54-.57.81-1.32.81-2.25v-9.27c0-.93-.27-1.68-.81-2.25-.54-.57-1.25-.85-2.13-.85s-1.58.28-2.11.85-.8,1.32-.8,2.25v9.27c0,.93.27,1.68.8,2.25s1.24.85,2.11.85,1.59-.28,2.13-.85Z"/>
      <path class="cls-1" d="M468.26,595.72c0,1.16-.18,2.19-.53,3.11-.39,1.05-.99,1.84-1.79,2.38-.8.54-1.8.81-3,.81-1.36,0-2.5-.36-3.42-1.08-.91-.72-1.49-1.68-1.74-2.9-.11-.56-.19-1.24-.22-2.04,0-.19.09-.28.28-.28h2.13c.19,0,.28.09.28.28.04.62.09,1.12.17,1.51.15.69.44,1.23.87,1.61.43.38.98.57,1.65.57.62,0,1.13-.16,1.54-.49.41-.33.71-.81.9-1.44.17-.62.25-1.36.25-2.24,0-1.01-.12-1.84-.36-2.49-.21-.58-.5-1.02-.9-1.32-.39-.3-.88-.45-1.46-.45-.28,0-.58.08-.9.25-.07.04-.13.06-.17.06-.07,0-.15-.04-.22-.11l-1.09-1.18c-.06-.06-.08-.12-.08-.2s.03-.14.08-.2l4.26-5.24s.05-.07.03-.1c-.02-.03-.05-.04-.08-.04h-6.66c-.19,0-.28-.09-.28-.28v-1.76c0-.19.09-.28.28-.28h9.83c.19,0,.28.09.28.28v1.85c0,.13-.04.24-.11.34l-3.95,4.96s-.05.07-.03.1c.02.03.05.04.08.04.84.07,1.56.34,2.16.8.6.46,1.05,1.08,1.37,1.86.37.91.56,2.02.56,3.3Z"/>
    </g>
  </g>
  <g id="wv_hall_3A_04" data-name="3A/04" class="ds-stand">
    <rect class="cls-3" x="479" y="570" width="34" height="44" rx="4" ry="4"/>
    <g>
      <path class="cls-1" d="M484.84,600.57c-1.02-1.01-1.53-2.36-1.53-4.06v-9.02c0-1.68.51-3.02,1.53-4.03,1.02-1.01,2.38-1.51,4.07-1.51s3.06.5,4.09,1.51c1.03,1.01,1.54,2.35,1.54,4.03v9.02c0,1.7-.51,3.05-1.54,4.06-1.03,1.01-2.39,1.51-4.09,1.51s-3.06-.5-4.07-1.51ZM491.04,598.9c.54-.57.81-1.32.81-2.25v-9.27c0-.93-.27-1.68-.81-2.25-.54-.57-1.25-.85-2.13-.85s-1.58.28-2.11.85-.8,1.32-.8,2.25v9.27c0,.93.27,1.68.8,2.25s1.24.85,2.11.85,1.59-.28,2.13-.85Z"/>
      <path class="cls-1" d="M509.1,594.41v1.88c0,.19-.09.28-.28.28h-1.04c-.07,0-.11.04-.11.11v4.84c0,.19-.09.28-.28.28h-2.13c-.19,0-.28-.09-.28-.28v-4.84c0-.07-.04-.11-.11-.11h-7.7c-.19,0-.28-.09-.28-.28v-1.54c0-.13.02-.24.06-.34l4.79-11.98c.06-.15.16-.22.31-.22h2.3c.09,0,.16.03.2.1.04.07.04.14,0,.24l-4.51,11.45s-.02.07,0,.1c.02.03.05.04.08.04h4.76c.07,0,.11-.04.11-.11v-3.98c0-.19.09-.28.28-.28h2.13c.19,0,.28.09.28.28v3.98c0,.08.04.11.11.11h1.04c.19,0,.28.09.28.28Z"/>
    </g>
  </g>
  <g id="wv_hall_3A_05" data-name="3A/05" class="ds-stand">
    <rect class="cls-3" x="519" y="570" width="34" height="44" rx="4" ry="4"/>
    <g>
      <path class="cls-1" d="M525.32,600.57c-1.02-1.01-1.53-2.36-1.53-4.06v-9.02c0-1.68.51-3.02,1.53-4.03,1.02-1.01,2.38-1.51,4.07-1.51s3.06.5,4.09,1.51c1.03,1.01,1.54,2.35,1.54,4.03v9.02c0,1.7-.51,3.05-1.54,4.06-1.03,1.01-2.39,1.51-4.09,1.51s-3.06-.5-4.07-1.51ZM531.52,598.9c.54-.57.81-1.32.81-2.25v-9.27c0-.93-.27-1.68-.81-2.25-.54-.57-1.25-.85-2.13-.85s-1.58.28-2.11.85-.8,1.32-.8,2.25v9.27c0,.93.27,1.68.8,2.25s1.24.85,2.11.85,1.59-.28,2.13-.85Z"/>
      <path class="cls-1" d="M548.63,595.72c0,.97-.08,1.79-.25,2.46-.32,1.23-.92,2.18-1.81,2.84-.89.66-1.99.99-3.32.99s-2.43-.35-3.32-1.04c-.89-.69-1.48-1.66-1.78-2.91-.11-.48-.18-.86-.2-1.12v-.06c0-.15.08-.22.25-.22h2.16c.19,0,.29.09.31.28.04.3.07.5.11.59.15.69.44,1.22.87,1.58.43.36.96.55,1.6.55s1.17-.19,1.61-.56c.44-.37.73-.91.88-1.6.11-.43.17-1.02.17-1.76s-.07-1.38-.2-1.96c-.15-.63-.44-1.12-.87-1.44-.43-.33-.96-.49-1.6-.49s-1.14.14-1.58.42c-.44.28-.75.7-.94,1.26-.04.15-.14.22-.31.22h-2.18c-.19,0-.28-.09-.28-.28v-11c0-.19.09-.28.28-.28h9.55c.19,0,.28.09.28.28v1.76c0,.19-.09.28-.28.28h-7.03c-.07,0-.11.04-.11.11l-.03,5.96c0,.09.05.11.14.06.37-.37.83-.66,1.36-.85.53-.2,1.1-.29,1.69-.29,1.1,0,2.03.27,2.8.8.77.53,1.3,1.3,1.6,2.31.28.92.42,1.95.42,3.11Z"/>
    </g>
  </g>
  <g id="wv_hall_3A_06" data-name="3A/06" class="ds-stand">
    <rect class="cls-3" x="559" y="570" width="34" height="44" rx="4" ry="4"/>
    <g>
      <path class="cls-1" d="M565.3,600.57c-1.02-1.01-1.53-2.36-1.53-4.06v-9.02c0-1.68.51-3.02,1.53-4.03,1.02-1.01,2.38-1.51,4.07-1.51s3.06.5,4.09,1.51c1.03,1.01,1.54,2.35,1.54,4.03v9.02c0,1.7-.51,3.05-1.54,4.06-1.03,1.01-2.39,1.51-4.09,1.51s-3.06-.5-4.07-1.51ZM571.51,598.9c.54-.57.81-1.32.81-2.25v-9.27c0-.93-.27-1.68-.81-2.25-.54-.57-1.25-.85-2.13-.85s-1.58.28-2.11.85-.8,1.32-.8,2.25v9.27c0,.93.27,1.68.8,2.25s1.24.85,2.11.85,1.59-.28,2.13-.85Z"/>
      <path class="cls-1" d="M588.64,595.72c0,.95-.1,1.79-.31,2.52-.32,1.21-.91,2.15-1.76,2.8-.86.65-1.95.98-3.28.98-1.21,0-2.24-.29-3.08-.88-.84-.59-1.43-1.43-1.76-2.53-.34-.75-.5-1.68-.5-2.8l-.03-8.88c0-1.49.49-2.69,1.46-3.6.97-.91,2.25-1.36,3.84-1.36,1.49,0,2.71.45,3.65,1.34.94.9,1.41,2.07,1.41,3.53v.59c0,.19-.09.28-.28.28h-2.13c-.19,0-.28-.09-.28-.28v-.39c0-.78-.23-1.43-.69-1.95-.46-.51-1.03-.77-1.72-.77-.75,0-1.36.26-1.83.77-.48.51-.71,1.19-.71,2.03v3.53s.01.07.04.08c.03.02.06,0,.1-.03.73-.84,1.7-1.26,2.91-1.26,1.14,0,2.09.3,2.84.9.76.6,1.31,1.42,1.67,2.46.3.84.45,1.81.45,2.91ZM585.93,595.67c0-.88-.09-1.59-.28-2.13-.17-.58-.46-1.03-.87-1.36-.41-.33-.91-.49-1.51-.49s-1.12.16-1.53.49c-.4.33-.69.79-.85,1.39-.17.52-.25,1.23-.25,2.13,0,.77.07,1.41.2,1.93.15.63.43,1.13.85,1.5.42.36.95.55,1.58.55s1.16-.18,1.58-.55c.42-.36.71-.89.88-1.58.13-.5.2-1.13.2-1.88Z"/>
    </g>
  </g>
  <g id="wv_hall_3A_07" data-name="3A/07" class="ds-stand">
    <rect class="cls-3" x="599" y="553" width="44" height="34" rx="4" ry="4"/>
    <g>
      <path class="cls-1" d="M610.88,578.57c-1.02-1.01-1.53-2.36-1.53-4.06v-9.02c0-1.68.51-3.02,1.53-4.03,1.02-1.01,2.38-1.51,4.07-1.51s3.06.5,4.09,1.51c1.03,1.01,1.54,2.35,1.54,4.03v9.02c0,1.7-.51,3.05-1.54,4.06-1.03,1.01-2.39,1.51-4.09,1.51s-3.06-.5-4.07-1.51ZM617.08,576.9c.54-.57.81-1.32.81-2.25v-9.27c0-.93-.27-1.68-.81-2.25-.54-.57-1.25-.85-2.13-.85s-1.58.28-2.11.85-.8,1.32-.8,2.25v9.27c0,.93.27,1.68.8,2.25s1.24.85,2.11.85,1.59-.28,2.13-.85Z"/>
      <path class="cls-1" d="M625.26,579.49l5.54-16.83s.01-.07-.01-.1c-.03-.03-.06-.04-.1-.04h-5.6c-.07,0-.11.04-.11.11v1.2c0,.19-.09.28-.28.28h-1.65c-.19,0-.28-.09-.28-.28v-3.36c0-.19.09-.28.28-.28h10.33c.19,0,.28.09.28.28v1.88c0,.07-.02.19-.06.34l-5.52,16.88c-.06.15-.17.22-.34.22h-2.27c-.21,0-.28-.1-.22-.31Z"/>
    </g>
  </g>
  <g id="wv_hall_3A_08" data-name="3A/08" class="ds-stand">
    <rect class="cls-3" x="649" y="553" width="44" height="34" rx="4" ry="4"/>
    <g>
      <path class="cls-1" d="M660.22,578.57c-1.02-1.01-1.53-2.36-1.53-4.06v-9.02c0-1.68.51-3.02,1.53-4.03,1.02-1.01,2.38-1.51,4.07-1.51s3.06.5,4.09,1.51c1.03,1.01,1.54,2.35,1.54,4.03v9.02c0,1.7-.51,3.05-1.54,4.06-1.03,1.01-2.39,1.51-4.09,1.51s-3.06-.5-4.07-1.51ZM666.42,576.9c.54-.57.81-1.32.81-2.25v-9.27c0-.93-.27-1.68-.81-2.25-.54-.57-1.25-.85-2.13-.85s-1.58.28-2.11.85-.8,1.32-.8,2.25v9.27c0,.93.27,1.68.8,2.25s1.24.85,2.11.85,1.59-.28,2.13-.85Z"/>
      <path class="cls-1" d="M683.42,574.26c0,1.16-.21,2.15-.62,2.97-.41.88-1.02,1.56-1.83,2.06-.81.5-1.77.74-2.87.74s-2.06-.25-2.88-.76c-.82-.5-1.44-1.21-1.85-2.13-.41-.88-.62-1.85-.62-2.91s.18-1.95.53-2.77c.37-.88.98-1.52,1.82-1.93.09-.06.09-.11,0-.17-.65-.39-1.16-.91-1.51-1.54-.47-.77-.7-1.67-.7-2.72s.21-1.92.64-2.69c.43-.78,1.05-1.4,1.85-1.85.8-.45,1.71-.67,2.72-.67s1.96.22,2.74.66c.78.44,1.38,1.06,1.79,1.86.45.8.67,1.7.67,2.69s-.23,1.91-.7,2.72c-.35.63-.86,1.15-1.51,1.54-.09.06-.1.1-.03.14.84.41,1.45,1.06,1.82,1.96.35.77.53,1.7.53,2.8ZM680.76,574.09c0-.75-.1-1.38-.31-1.9-.19-.54-.48-.96-.88-1.26-.4-.3-.89-.45-1.47-.45-1.18,0-1.96.55-2.35,1.65-.21.5-.31,1.16-.31,1.96s.13,1.52.39,2.04c.41,1.05,1.17,1.57,2.27,1.57s1.83-.51,2.24-1.54c.28-.56.42-1.25.42-2.07ZM675.55,565.3c0,.67.13,1.25.39,1.74.21.43.49.77.87,1.01.37.24.8.36,1.29.36s.94-.13,1.32-.38c.37-.25.66-.6.87-1.05.24-.47.36-1.04.36-1.71,0-.58-.11-1.09-.34-1.54-.19-.47-.47-.84-.85-1.11-.38-.27-.84-.41-1.39-.41-.5,0-.95.14-1.34.42-.39.28-.68.65-.87,1.12-.21.5-.31,1.02-.31,1.54Z"/>
    </g>
  </g>
  <g id="wv_hall_3A_09" data-name="3A/09" class="ds-stand">
    <rect class="cls-3" x="699" y="553" width="44" height="34" rx="4" ry="4"/>
    <g>
      <path class="cls-1" d="M710.43,578.57c-1.02-1.01-1.53-2.36-1.53-4.06v-9.02c0-1.68.51-3.02,1.53-4.03,1.02-1.01,2.38-1.51,4.07-1.51s3.06.5,4.09,1.51c1.03,1.01,1.54,2.35,1.54,4.03v9.02c0,1.7-.51,3.05-1.54,4.06-1.03,1.01-2.39,1.51-4.09,1.51s-3.06-.5-4.07-1.51ZM716.63,576.9c.54-.57.81-1.32.81-2.25v-9.27c0-.93-.27-1.68-.81-2.25-.54-.57-1.25-.85-2.13-.85s-1.58.28-2.11.85-.8,1.32-.8,2.25v9.27c0,.93.27,1.68.8,2.25s1.24.85,2.11.85,1.59-.28,2.13-.85Z"/>
      <path class="cls-1" d="M733.15,566.19v8.88c0,1.51-.49,2.72-1.46,3.61-.97.9-2.24,1.34-3.81,1.34s-2.73-.45-3.67-1.34c-.93-.9-1.4-2.07-1.4-3.53v-.59c0-.19.09-.28.28-.28h2.13c.19,0,.28.09.28.28v.39c0,.8.22,1.46.67,1.96.45.5,1.02.76,1.71.76.77,0,1.39-.26,1.86-.77.48-.51.71-1.19.71-2.03v-3.56s-.01-.07-.04-.08c-.03-.02-.06,0-.1.03-.73.86-1.7,1.29-2.91,1.29-1.14,0-2.09-.3-2.86-.9-.77-.6-1.32-1.42-1.65-2.46-.3-.77-.45-1.74-.45-2.91,0-1.05.1-1.89.31-2.52.3-1.21.88-2.15,1.74-2.8.86-.65,1.95-.98,3.28-.98,1.21,0,2.24.29,3.08.88s1.43,1.43,1.76,2.53c.35.78.53,1.72.53,2.8ZM729.33,569.82c.4-.33.69-.79.85-1.39.19-.58.28-1.29.28-2.13,0-.77-.07-1.41-.2-1.93-.17-.65-.46-1.16-.88-1.51-.42-.35-.95-.53-1.58-.53s-1.14.18-1.57.55c-.43.36-.73.89-.9,1.58-.13.62-.2,1.24-.2,1.88,0,.8.09,1.51.28,2.13.39,1.23,1.19,1.85,2.38,1.85.62,0,1.12-.16,1.53-.49Z"/>
    </g>
  </g>
  <g id="wv_hall_3A_10" data-name="3A/10" class="ds-stand">
    <rect class="cls-3" x="749" y="572" width="34" height="44" rx="4" ry="4"/>
    <g>
      <path class="cls-1" d="M758.92,584.2h2.21c.19,0,.28.09.28.28v19.04c0,.19-.09.28-.28.28h-2.13c-.19,0-.28-.09-.28-.28v-16.41s-.01-.07-.04-.1c-.03-.03-.06-.03-.1-.01l-2.72.87-.11.03c-.11,0-.19-.08-.22-.25l-.11-1.6c0-.15.07-.26.2-.34l2.94-1.43c.11-.06.23-.08.36-.08Z"/>
      <path class="cls-1" d="M766.24,602.57c-1.02-1.01-1.53-2.36-1.53-4.06v-9.02c0-1.68.51-3.02,1.53-4.03,1.02-1.01,2.38-1.51,4.07-1.51s3.06.5,4.09,1.51c1.03,1.01,1.54,2.35,1.54,4.03v9.02c0,1.7-.51,3.05-1.54,4.06-1.03,1.01-2.39,1.51-4.09,1.51s-3.06-.5-4.07-1.51ZM772.44,600.9c.54-.57.81-1.32.81-2.25v-9.27c0-.93-.27-1.68-.81-2.25-.54-.57-1.25-.85-2.13-.85s-1.58.28-2.11.85-.8,1.32-.8,2.25v9.27c0,.93.27,1.68.8,2.25s1.24.85,2.11.85,1.59-.28,2.13-.85Z"/>
    </g>
  </g>
  <g id="wv_hall_3A_11" data-name="3A/11" class="ds-stand">
    <rect class="cls-3" x="789" y="572" width="34" height="44" rx="4" ry="4"/>
    <g>
      <path class="cls-1" d="M801.77,584.2h2.21c.19,0,.28.09.28.28v19.04c0,.19-.09.28-.28.28h-2.13c-.19,0-.28-.09-.28-.28v-16.41s-.01-.07-.04-.1c-.03-.03-.06-.03-.1-.01l-2.72.87-.11.03c-.11,0-.19-.08-.22-.25l-.11-1.6c0-.15.07-.26.2-.34l2.94-1.43c.11-.06.23-.08.36-.08Z"/>
      <path class="cls-1" d="M810.26,584.2h2.21c.19,0,.28.09.28.28v19.04c0,.19-.09.28-.28.28h-2.13c-.19,0-.28-.09-.28-.28v-16.41s-.01-.07-.04-.1c-.03-.03-.06-.03-.1-.01l-2.72.87-.11.03c-.11,0-.19-.08-.22-.25l-.11-1.6c0-.15.07-.26.2-.34l2.94-1.43c.11-.06.23-.08.36-.08Z"/>
    </g>
  </g>
  <g id="wv_hall_3A_12" data-name="3A/12" class="ds-stand">
    <rect class="cls-3" x="829" y="572" width="34" height="44" rx="4" ry="4"/>
    <g>
      <path class="cls-1" d="M839.28,584.2h2.21c.19,0,.28.09.28.28v19.04c0,.19-.09.28-.28.28h-2.13c-.19,0-.28-.09-.28-.28v-16.41s-.01-.07-.04-.1c-.03-.03-.06-.03-.1-.01l-2.72.87-.11.03c-.11,0-.19-.08-.22-.25l-.11-1.6c0-.15.07-.26.2-.34l2.94-1.43c.11-.06.23-.08.36-.08Z"/>
      <path class="cls-1" d="M848.3,601.48h7.42c.19,0,.28.09.28.28v1.76c0,.19-.09.28-.28.28h-10.56c-.19,0-.28-.09-.28-.28v-1.79c0-.13.04-.24.11-.34,2.41-3.1,4.28-5.59,5.63-7.48,1.44-2,2.16-3.59,2.16-4.79,0-.86-.24-1.54-.73-2.06-.49-.51-1.13-.77-1.93-.77s-1.41.26-1.89.77c-.48.51-.7,1.19-.69,2.03v.98c0,.19-.09.28-.28.28h-2.16c-.19,0-.28-.09-.28-.28v-1.2c.04-1.47.56-2.66,1.55-3.56,1-.9,2.26-1.34,3.79-1.34,1.06,0,2,.22,2.8.66.8.44,1.42,1.05,1.86,1.83.44.78.66,1.67.66,2.66,0,1.66-.75,3.55-2.24,5.66-.86,1.21-2.26,3.05-4.2,5.52l-.81,1.04c-.06.09-.04.14.06.14Z"/>
    </g>
  </g>
  <g id="wv_hall_3A_13" data-name="3A/13" class="ds-stand">
    <rect class="cls-3" x="869" y="572" width="34" height="44" rx="4" ry="4"/>
    <g>
      <path class="cls-1" d="M879.42,584.2h2.21c.19,0,.28.09.28.28v19.04c0,.19-.09.28-.28.28h-2.13c-.19,0-.28-.09-.28-.28v-16.41s-.01-.07-.04-.1c-.03-.03-.06-.03-.1-.01l-2.72.87-.11.03c-.11,0-.19-.08-.22-.25l-.11-1.6c0-.15.07-.26.2-.34l2.94-1.43c.11-.06.23-.08.36-.08Z"/>
      <path class="cls-1" d="M895.49,597.72c0,1.16-.18,2.19-.53,3.11-.39,1.05-.99,1.84-1.79,2.38-.8.54-1.8.81-3,.81-1.36,0-2.5-.36-3.42-1.08-.91-.72-1.49-1.68-1.74-2.9-.11-.56-.19-1.24-.22-2.04,0-.19.09-.28.28-.28h2.13c.19,0,.28.09.28.28.04.62.09,1.12.17,1.51.15.69.44,1.23.87,1.61.43.38.98.57,1.65.57.62,0,1.13-.16,1.54-.49.41-.33.71-.81.9-1.44.17-.62.25-1.36.25-2.24,0-1.01-.12-1.84-.36-2.49-.21-.58-.5-1.02-.9-1.32-.39-.3-.88-.45-1.46-.45-.28,0-.58.08-.9.25-.07.04-.13.06-.17.06-.07,0-.15-.04-.22-.11l-1.09-1.18c-.06-.06-.08-.12-.08-.2s.03-.14.08-.2l4.26-5.24s.05-.07.03-.1c-.02-.03-.05-.04-.08-.04h-6.66c-.19,0-.28-.09-.28-.28v-1.76c0-.19.09-.28.28-.28h9.83c.19,0,.28.09.28.28v1.85c0,.13-.04.24-.11.34l-3.95,4.96s-.05.07-.03.1c.02.03.05.04.08.04.84.07,1.56.34,2.16.8.6.46,1.05,1.08,1.37,1.86.37.91.56,2.02.56,3.3Z"/>
    </g>
  </g>
  <g id="wv_hall_3A_14" data-name="3A/14" class="ds-stand">
    <rect class="cls-3" x="909" y="572" width="34" height="44" rx="4" ry="4"/>
    <g>
      <path class="cls-1" d="M918.94,584.2h2.21c.19,0,.28.09.28.28v19.04c0,.19-.09.28-.28.28h-2.13c-.19,0-.28-.09-.28-.28v-16.41s-.01-.07-.04-.1c-.03-.03-.06-.03-.1-.01l-2.72.87-.11.03c-.11,0-.19-.08-.22-.25l-.11-1.6c0-.15.07-.26.2-.34l2.94-1.43c.11-.06.23-.08.36-.08Z"/>
      <path class="cls-1" d="M936.33,596.41v1.88c0,.19-.09.28-.28.28h-1.04c-.07,0-.11.04-.11.11v4.84c0,.19-.09.28-.28.28h-2.13c-.19,0-.28-.09-.28-.28v-4.84c0-.07-.04-.11-.11-.11h-7.7c-.19,0-.28-.09-.28-.28v-1.54c0-.13.02-.24.06-.34l4.79-11.98c.06-.15.16-.22.31-.22h2.3c.09,0,.16.03.2.1.04.07.04.14,0,.24l-4.51,11.45s-.02.07,0,.1c.02.03.05.04.08.04h4.76c.07,0,.11-.04.11-.11v-3.98c0-.19.09-.28.28-.28h2.13c.19,0,.28.09.28.28v3.98c0,.08.04.11.11.11h1.04c.19,0,.28.09.28.28Z"/>
    </g>
  </g>
  <g id="wv_hall_3A_15" data-name="3A/15" class="ds-stand">
    <rect class="cls-3" x="359" y="686" width="74" height="44" rx="4" ry="4"/>
    <g>
      <path class="cls-1" d="M389.42,698.2h2.21c.19,0,.28.09.28.28v19.04c0,.19-.09.28-.28.28h-2.13c-.19,0-.28-.09-.28-.28v-16.41s-.01-.07-.04-.1c-.03-.03-.06-.03-.1-.01l-2.72.87-.11.03c-.11,0-.19-.08-.22-.25l-.11-1.6c0-.15.07-.26.2-.34l2.94-1.43c.11-.06.23-.08.36-.08Z"/>
      <path class="cls-1" d="M405.86,711.72c0,.97-.08,1.79-.25,2.46-.32,1.23-.92,2.18-1.81,2.84-.89.66-1.99.99-3.32.99s-2.43-.35-3.32-1.04c-.89-.69-1.48-1.66-1.78-2.91-.11-.48-.18-.86-.2-1.12v-.06c0-.15.08-.22.25-.22h2.16c.19,0,.29.09.31.28.04.3.07.5.11.59.15.69.44,1.22.87,1.58.43.36.96.55,1.6.55s1.17-.19,1.61-.56c.44-.37.73-.91.88-1.6.11-.43.17-1.02.17-1.76s-.07-1.38-.2-1.96c-.15-.63-.44-1.12-.87-1.44-.43-.33-.96-.49-1.6-.49s-1.14.14-1.58.42c-.44.28-.75.7-.94,1.26-.04.15-.14.22-.31.22h-2.18c-.19,0-.28-.09-.28-.28v-11c0-.19.09-.28.28-.28h9.55c.19,0,.28.09.28.28v1.76c0,.19-.09.28-.28.28h-7.03c-.07,0-.11.04-.11.11l-.03,5.96c0,.09.05.11.14.06.37-.37.83-.66,1.36-.85.53-.2,1.1-.29,1.69-.29,1.1,0,2.03.27,2.8.8.77.53,1.3,1.3,1.6,2.31.28.92.42,1.95.42,3.11Z"/>
    </g>
  </g>
  <g id="wv_hall_3A_16" data-name="3A/16" class="ds-stand">
    <rect class="cls-3" x="439" y="686" width="34" height="44" rx="4" ry="4"/>
    <g>
      <path class="cls-1" d="M449.41,698.2h2.21c.19,0,.28.09.28.28v19.04c0,.19-.09.28-.28.28h-2.13c-.19,0-.28-.09-.28-.28v-16.41s-.01-.07-.04-.1c-.03-.03-.06-.03-.1-.01l-2.72.87-.11.03c-.11,0-.19-.08-.22-.25l-.11-1.6c0-.15.07-.26.2-.34l2.94-1.43c.11-.06.23-.08.36-.08Z"/>
      <path class="cls-1" d="M465.87,711.72c0,.95-.1,1.79-.31,2.52-.32,1.21-.91,2.15-1.76,2.8-.86.65-1.95.98-3.28.98-1.21,0-2.24-.29-3.08-.88-.84-.59-1.43-1.43-1.76-2.53-.34-.75-.5-1.68-.5-2.8l-.03-8.88c0-1.49.49-2.69,1.46-3.6.97-.91,2.25-1.36,3.84-1.36,1.49,0,2.71.45,3.65,1.34.94.9,1.41,2.07,1.41,3.53v.59c0,.19-.09.28-.28.28h-2.13c-.19,0-.28-.09-.28-.28v-.39c0-.78-.23-1.43-.69-1.95-.46-.51-1.03-.77-1.72-.77-.75,0-1.36.26-1.83.77-.48.51-.71,1.19-.71,2.03v3.53s.01.07.04.08c.03.02.06,0,.1-.03.73-.84,1.7-1.26,2.91-1.26,1.14,0,2.09.3,2.84.9.76.6,1.31,1.42,1.67,2.46.3.84.45,1.81.45,2.91ZM463.15,711.67c0-.88-.09-1.59-.28-2.13-.17-.58-.46-1.03-.87-1.36-.41-.33-.91-.49-1.51-.49s-1.12.16-1.53.49c-.4.33-.69.79-.85,1.39-.17.52-.25,1.23-.25,2.13,0,.77.07,1.41.2,1.93.15.63.43,1.13.85,1.5.42.36.95.55,1.58.55s1.16-.18,1.58-.55c.42-.36.71-.89.88-1.58.13-.5.2-1.13.2-1.88Z"/>
    </g>
  </g>
  <g id="wv_hall_3A_17" data-name="3A/17" class="ds-stand">
    <rect class="cls-3" x="479" y="686" width="34" height="44" rx="4" ry="4"/>
    <g>
      <path class="cls-1" d="M489.98,698.2h2.21c.19,0,.28.09.28.28v19.04c0,.19-.09.28-.28.28h-2.13c-.19,0-.28-.09-.28-.28v-16.41s-.01-.07-.04-.1c-.03-.03-.06-.03-.1-.01l-2.72.87-.11.03c-.11,0-.19-.08-.22-.25l-.11-1.6c0-.15.07-.26.2-.34l2.94-1.43c.11-.06.23-.08.36-.08Z"/>
      <path class="cls-1" d="M497.48,717.49l5.54-16.83s.01-.07-.01-.1c-.03-.03-.06-.04-.1-.04h-5.6c-.07,0-.11.04-.11.11v1.2c0,.19-.09.28-.28.28h-1.65c-.19,0-.28-.09-.28-.28v-3.36c0-.19.09-.28.28-.28h10.33c.19,0,.28.09.28.28v1.88c0,.07-.02.19-.06.34l-5.52,16.88c-.06.15-.17.22-.34.22h-2.27c-.21,0-.28-.1-.22-.31Z"/>
    </g>
  </g>
  <g id="wv_hall_3A_18" data-name="3A/18" class="ds-stand">
    <rect class="cls-3" x="519" y="686" width="34" height="44" rx="4" ry="4"/>
    <g>
      <path class="cls-1" d="M529.32,698.2h2.21c.19,0,.28.09.28.28v19.04c0,.19-.09.28-.28.28h-2.13c-.19,0-.28-.09-.28-.28v-16.41s-.01-.07-.04-.1c-.03-.03-.06-.03-.1-.01l-2.72.87-.11.03c-.11,0-.19-.08-.22-.25l-.11-1.6c0-.15.07-.26.2-.34l2.94-1.43c.11-.06.23-.08.36-.08Z"/>
      <path class="cls-1" d="M545.65,712.26c0,1.16-.21,2.15-.62,2.97-.41.88-1.02,1.56-1.83,2.06-.81.5-1.77.74-2.87.74s-2.06-.25-2.88-.76c-.82-.5-1.44-1.21-1.85-2.13-.41-.88-.62-1.85-.62-2.91s.18-1.95.53-2.77c.37-.88.98-1.52,1.82-1.93.09-.06.09-.11,0-.17-.65-.39-1.16-.91-1.51-1.54-.47-.77-.7-1.67-.7-2.72s.21-1.92.64-2.69c.43-.78,1.05-1.4,1.85-1.85.8-.45,1.71-.67,2.72-.67s1.96.22,2.74.66c.78.44,1.38,1.06,1.79,1.86.45.8.67,1.7.67,2.69s-.23,1.91-.7,2.72c-.35.63-.86,1.15-1.51,1.54-.09.06-.1.1-.03.14.84.41,1.45,1.06,1.82,1.96.35.77.53,1.7.53,2.8ZM542.99,712.09c0-.75-.1-1.38-.31-1.9-.19-.54-.48-.96-.88-1.26-.4-.3-.89-.45-1.47-.45-1.18,0-1.96.55-2.35,1.65-.21.5-.31,1.16-.31,1.96s.13,1.52.39,2.04c.41,1.05,1.17,1.57,2.27,1.57s1.83-.51,2.24-1.54c.28-.56.42-1.25.42-2.07ZM537.78,703.3c0,.67.13,1.25.39,1.74.21.43.49.77.87,1.01.37.24.8.36,1.29.36s.94-.13,1.32-.38c.37-.25.66-.6.87-1.05.24-.47.36-1.04.36-1.71,0-.58-.11-1.09-.34-1.54-.19-.47-.47-.84-.85-1.11-.38-.27-.84-.41-1.39-.41-.5,0-.95.14-1.34.42-.39.28-.68.65-.87,1.12-.21.5-.31,1.02-.31,1.54Z"/>
    </g>
  </g>
  <g id="wv_hall_3A_19" data-name="3A/19" class="ds-stand">
    <rect class="cls-3" x="559" y="686" width="34" height="44" rx="4" ry="4"/>
    <g>
      <path class="cls-1" d="M569.53,698.2h2.21c.19,0,.28.09.28.28v19.04c0,.19-.09.28-.28.28h-2.13c-.19,0-.28-.09-.28-.28v-16.41s-.01-.07-.04-.1c-.03-.03-.06-.03-.1-.01l-2.72.87-.11.03c-.11,0-.19-.08-.22-.25l-.11-1.6c0-.15.07-.26.2-.34l2.94-1.43c.11-.06.23-.08.36-.08Z"/>
      <path class="cls-1" d="M585.38,704.19v8.88c0,1.51-.49,2.72-1.46,3.61-.97.9-2.24,1.34-3.81,1.34s-2.73-.45-3.67-1.34c-.93-.9-1.4-2.07-1.4-3.53v-.59c0-.19.09-.28.28-.28h2.13c.19,0,.28.09.28.28v.39c0,.8.22,1.46.67,1.96.45.5,1.02.76,1.71.76.77,0,1.39-.26,1.86-.77.48-.51.71-1.19.71-2.03v-3.56s-.01-.07-.04-.08c-.03-.02-.06,0-.1.03-.73.86-1.7,1.29-2.91,1.29-1.14,0-2.09-.3-2.86-.9-.77-.6-1.32-1.42-1.65-2.46-.3-.77-.45-1.74-.45-2.91,0-1.05.1-1.89.31-2.52.3-1.21.88-2.15,1.74-2.8.86-.65,1.95-.98,3.28-.98,1.21,0,2.24.29,3.08.88s1.43,1.43,1.76,2.53c.35.78.53,1.72.53,2.8ZM581.56,707.82c.4-.33.69-.79.85-1.39.19-.58.28-1.29.28-2.13,0-.77-.07-1.41-.2-1.93-.17-.65-.46-1.16-.88-1.51-.42-.35-.95-.53-1.58-.53s-1.14.18-1.57.55c-.43.36-.73.89-.9,1.58-.13.62-.2,1.24-.2,1.88,0,.8.09,1.51.28,2.13.39,1.23,1.19,1.85,2.38,1.85.62,0,1.12-.16,1.53-.49Z"/>
    </g>
  </g>
  <g id="wv_hall_3A_20" data-name="3A/20" class="ds-stand">
    <rect class="cls-3" x="599" y="713" width="44" height="34" rx="4" ry="4"/>
    <g>
      <path class="cls-1" d="M611.86,737.48h7.42c.19,0,.28.09.28.28v1.76c0,.19-.09.28-.28.28h-10.56c-.19,0-.28-.09-.28-.28v-1.79c0-.13.04-.24.11-.34,2.41-3.1,4.28-5.59,5.63-7.48,1.44-2,2.16-3.59,2.16-4.79,0-.86-.24-1.54-.73-2.06-.49-.51-1.13-.77-1.93-.77s-1.41.26-1.89.77c-.48.51-.7,1.19-.69,2.03v.98c0,.19-.09.28-.28.28h-2.16c-.19,0-.28-.09-.28-.28v-1.2c.04-1.47.56-2.66,1.55-3.56,1-.9,2.26-1.34,3.79-1.34,1.06,0,2,.22,2.8.66.8.44,1.42,1.05,1.86,1.83.44.78.66,1.67.66,2.66,0,1.66-.75,3.55-2.24,5.66-.86,1.21-2.26,3.05-4.2,5.52l-.81,1.04c-.06.09-.04.14.06.14Z"/>
      <path class="cls-1" d="M623.63,738.57c-1.02-1.01-1.53-2.36-1.53-4.06v-9.02c0-1.68.51-3.02,1.53-4.03,1.02-1.01,2.38-1.51,4.07-1.51s3.06.5,4.09,1.51c1.03,1.01,1.54,2.35,1.54,4.03v9.02c0,1.7-.51,3.05-1.54,4.06-1.03,1.01-2.39,1.51-4.09,1.51s-3.06-.5-4.07-1.51ZM629.83,736.9c.54-.57.81-1.32.81-2.25v-9.27c0-.93-.27-1.68-.81-2.25-.54-.57-1.25-.85-2.13-.85s-1.58.28-2.11.85-.8,1.32-.8,2.25v9.27c0,.93.27,1.68.8,2.25s1.24.85,2.11.85,1.59-.28,2.13-.85Z"/>
    </g>
  </g>
  <g id="wv_hall_3A_21" data-name="3A/21" class="ds-stand">
    <rect class="cls-3" x="649" y="713" width="44" height="34" rx="4" ry="4"/>
    <g>
      <path class="cls-1" d="M664.9,737.48h7.42c.19,0,.28.09.28.28v1.76c0,.19-.09.28-.28.28h-10.56c-.19,0-.28-.09-.28-.28v-1.79c0-.13.04-.24.11-.34,2.41-3.1,4.28-5.59,5.63-7.48,1.44-2,2.16-3.59,2.16-4.79,0-.86-.24-1.54-.73-2.06-.49-.51-1.13-.77-1.93-.77s-1.41.26-1.89.77c-.48.51-.7,1.19-.69,2.03v.98c0,.19-.09.28-.28.28h-2.16c-.19,0-.28-.09-.28-.28v-1.2c.04-1.47.56-2.66,1.55-3.56,1-.9,2.26-1.34,3.79-1.34,1.06,0,2,.22,2.8.66.8.44,1.42,1.05,1.86,1.83.44.78.66,1.67.66,2.66,0,1.66-.75,3.55-2.24,5.66-.86,1.21-2.26,3.05-4.2,5.52l-.81,1.04c-.06.09-.04.14.06.14Z"/>
      <path class="cls-1" d="M677.47,720.2h2.21c.19,0,.28.09.28.28v19.04c0,.19-.09.28-.28.28h-2.13c-.19,0-.28-.09-.28-.28v-16.41s-.01-.07-.04-.1c-.03-.03-.06-.03-.1-.01l-2.72.87-.11.03c-.11,0-.19-.08-.22-.25l-.11-1.6c0-.15.07-.26.2-.34l2.94-1.43c.11-.06.23-.08.36-.08Z"/>
    </g>
  </g>
  <g id="wv_hall_3A_22" data-name="3A/22" class="ds-stand">
    <rect class="cls-3" x="699" y="713" width="44" height="34" rx="4" ry="4"/>
    <g>
      <path class="cls-1" d="M712.24,737.48h7.42c.19,0,.28.09.28.28v1.76c0,.19-.09.28-.28.28h-10.56c-.19,0-.28-.09-.28-.28v-1.79c0-.13.04-.24.11-.34,2.41-3.1,4.28-5.59,5.63-7.48,1.44-2,2.16-3.59,2.16-4.79,0-.86-.24-1.54-.73-2.06-.49-.51-1.13-.77-1.93-.77s-1.41.26-1.89.77c-.48.51-.7,1.19-.69,2.03v.98c0,.19-.09.28-.28.28h-2.16c-.19,0-.28-.09-.28-.28v-1.2c.04-1.47.56-2.66,1.55-3.56,1-.9,2.26-1.34,3.79-1.34,1.06,0,2,.22,2.8.66.8.44,1.42,1.05,1.86,1.83.44.78.66,1.67.66,2.66,0,1.66-.75,3.55-2.24,5.66-.86,1.21-2.26,3.05-4.2,5.52l-.81,1.04c-.06.09-.04.14.06.14Z"/>
      <path class="cls-1" d="M725.68,737.48h7.42c.19,0,.28.09.28.28v1.76c0,.19-.09.28-.28.28h-10.56c-.19,0-.28-.09-.28-.28v-1.79c0-.13.04-.24.11-.34,2.41-3.1,4.28-5.59,5.63-7.48,1.44-2,2.16-3.59,2.16-4.79,0-.86-.24-1.54-.73-2.06-.49-.51-1.13-.77-1.93-.77s-1.41.26-1.89.77c-.48.51-.7,1.19-.69,2.03v.98c0,.19-.09.28-.28.28h-2.16c-.19,0-.28-.09-.28-.28v-1.2c.04-1.47.56-2.66,1.55-3.56,1-.9,2.26-1.34,3.79-1.34,1.06,0,2,.22,2.8.66.8.44,1.42,1.05,1.86,1.83.44.78.66,1.67.66,2.66,0,1.66-.75,3.55-2.24,5.66-.86,1.21-2.26,3.05-4.2,5.52l-.81,1.04c-.06.09-.04.14.06.14Z"/>
    </g>
  </g>
  <g id="wv_hall_3A_23" data-name="3A/23" class="ds-stand">
    <rect class="cls-3" x="749" y="686" width="34" height="44" rx="4" ry="4"/>
    <g>
      <path class="cls-1" d="M757.42,715.48h7.42c.19,0,.28.09.28.28v1.76c0,.19-.09.28-.28.28h-10.56c-.19,0-.28-.09-.28-.28v-1.79c0-.13.04-.24.11-.34,2.41-3.1,4.28-5.59,5.63-7.48,1.44-2,2.16-3.59,2.16-4.79,0-.86-.24-1.54-.73-2.06-.49-.51-1.13-.77-1.93-.77s-1.41.26-1.89.77c-.48.51-.7,1.19-.69,2.03v.98c0,.19-.09.28-.28.28h-2.16c-.19,0-.28-.09-.28-.28v-1.2c.04-1.47.56-2.66,1.55-3.56,1-.9,2.26-1.34,3.79-1.34,1.06,0,2,.22,2.8.66.8.44,1.42,1.05,1.86,1.83.44.78.66,1.67.66,2.66,0,1.66-.75,3.55-2.24,5.66-.86,1.21-2.26,3.05-4.2,5.52l-.81,1.04c-.06.09-.04.14.06.14Z"/>
      <path class="cls-1" d="M777.83,711.72c0,1.16-.18,2.19-.53,3.11-.39,1.05-.99,1.84-1.79,2.38-.8.54-1.8.81-3,.81-1.36,0-2.5-.36-3.42-1.08-.91-.72-1.49-1.68-1.74-2.9-.11-.56-.19-1.24-.22-2.04,0-.19.09-.28.28-.28h2.13c.19,0,.28.09.28.28.04.62.09,1.12.17,1.51.15.69.44,1.23.87,1.61.43.38.98.57,1.65.57.62,0,1.13-.16,1.54-.49.41-.33.71-.81.9-1.44.17-.62.25-1.36.25-2.24,0-1.01-.12-1.84-.36-2.49-.21-.58-.5-1.02-.9-1.32-.39-.3-.88-.45-1.46-.45-.28,0-.58.08-.9.25-.07.04-.13.06-.17.06-.07,0-.15-.04-.22-.11l-1.09-1.18c-.06-.06-.08-.12-.08-.2s.03-.14.08-.2l4.26-5.24s.05-.07.03-.1c-.02-.03-.05-.04-.08-.04h-6.66c-.19,0-.28-.09-.28-.28v-1.76c0-.19.09-.28.28-.28h9.83c.19,0,.28.09.28.28v1.85c0,.13-.04.24-.11.34l-3.95,4.96s-.05.07-.03.1c.02.03.05.04.08.04.84.07,1.56.34,2.16.8.6.46,1.05,1.08,1.37,1.86.37.91.56,2.02.56,3.3Z"/>
    </g>
  </g>
  <g id="wv_hall_3A_24" data-name="3A/24" class="ds-stand">
    <rect class="cls-3" x="789" y="686" width="34" height="44" rx="4" ry="4"/>
    <g>
      <path class="cls-1" d="M796.89,715.48h7.42c.19,0,.28.09.28.28v1.76c0,.19-.09.28-.28.28h-10.56c-.19,0-.28-.09-.28-.28v-1.79c0-.13.04-.24.11-.34,2.41-3.1,4.28-5.59,5.63-7.48,1.44-2,2.16-3.59,2.16-4.79,0-.86-.24-1.54-.73-2.06-.49-.51-1.13-.77-1.93-.77s-1.41.26-1.89.77c-.48.51-.7,1.19-.69,2.03v.98c0,.19-.09.28-.28.28h-2.16c-.19,0-.28-.09-.28-.28v-1.2c.04-1.47.56-2.66,1.55-3.56,1-.9,2.26-1.34,3.79-1.34,1.06,0,2,.22,2.8.66.8.44,1.42,1.05,1.86,1.83.44.78.66,1.67.66,2.66,0,1.66-.75,3.55-2.24,5.66-.86,1.21-2.26,3.05-4.2,5.52l-.81,1.04c-.06.09-.04.14.06.14Z"/>
      <path class="cls-1" d="M818.73,710.41v1.88c0,.19-.09.28-.28.28h-1.04c-.07,0-.11.04-.11.11v4.84c0,.19-.09.28-.28.28h-2.13c-.19,0-.28-.09-.28-.28v-4.84c0-.07-.04-.11-.11-.11h-7.7c-.19,0-.28-.09-.28-.28v-1.54c0-.13.02-.24.06-.34l4.79-11.98c.06-.15.16-.22.31-.22h2.3c.09,0,.16.03.2.1.04.07.04.14,0,.24l-4.51,11.45s-.02.07,0,.1c.02.03.05.04.08.04h4.76c.07,0,.11-.04.11-.11v-3.98c0-.19.09-.28.28-.28h2.13c.19,0,.28.09.28.28v3.98c0,.08.04.11.11.11h1.04c.19,0,.28.09.28.28Z"/>
    </g>
  </g>
  <g id="wv_hall_3A_25" data-name="3A/25" class="ds-stand">
    <rect class="cls-3" x="829" y="686" width="34" height="44" rx="4" ry="4"/>
    <g>
      <path class="cls-1" d="M837.36,715.48h7.42c.19,0,.28.09.28.28v1.76c0,.19-.09.28-.28.28h-10.56c-.19,0-.28-.09-.28-.28v-1.79c0-.13.04-.24.11-.34,2.41-3.1,4.28-5.59,5.63-7.48,1.44-2,2.16-3.59,2.16-4.79,0-.86-.24-1.54-.73-2.06-.49-.51-1.13-.77-1.93-.77s-1.41.26-1.89.77c-.48.51-.7,1.19-.69,2.03v.98c0,.19-.09.28-.28.28h-2.16c-.19,0-.28-.09-.28-.28v-1.2c.04-1.47.56-2.66,1.55-3.56,1-.9,2.26-1.34,3.79-1.34,1.06,0,2,.22,2.8.66.8.44,1.42,1.05,1.86,1.83.44.78.66,1.67.66,2.66,0,1.66-.75,3.55-2.24,5.66-.86,1.21-2.26,3.05-4.2,5.52l-.81,1.04c-.06.09-.04.14.06.14Z"/>
      <path class="cls-1" d="M858.25,711.72c0,.97-.08,1.79-.25,2.46-.32,1.23-.92,2.18-1.81,2.84-.89.66-1.99.99-3.32.99s-2.43-.35-3.32-1.04c-.89-.69-1.48-1.66-1.78-2.91-.11-.48-.18-.86-.2-1.12v-.06c0-.15.08-.22.25-.22h2.16c.19,0,.29.09.31.28.04.3.07.5.11.59.15.69.44,1.22.87,1.58.43.36.96.55,1.6.55s1.17-.19,1.61-.56c.44-.37.73-.91.88-1.6.11-.43.17-1.02.17-1.76s-.07-1.38-.2-1.96c-.15-.63-.44-1.12-.87-1.44-.43-.33-.96-.49-1.6-.49s-1.14.14-1.58.42c-.44.28-.75.7-.94,1.26-.04.15-.14.22-.31.22h-2.18c-.19,0-.28-.09-.28-.28v-11c0-.19.09-.28.28-.28h9.55c.19,0,.28.09.28.28v1.76c0,.19-.09.28-.28.28h-7.03c-.07,0-.11.04-.11.11l-.03,5.96c0,.09.05.11.14.06.37-.37.83-.66,1.36-.85.53-.2,1.1-.29,1.69-.29,1.1,0,2.03.27,2.8.8.77.53,1.3,1.3,1.6,2.31.28.92.42,1.95.42,3.11Z"/>
    </g>
  </g>
  <g id="wv_hall_3A_26" data-name="3A/26" class="ds-stand">
    <rect class="cls-3" x="869" y="686" width="34" height="44" rx="4" ry="4"/>
    <g>
      <path class="cls-1" d="M877.35,715.48h7.42c.19,0,.28.09.28.28v1.76c0,.19-.09.28-.28.28h-10.56c-.19,0-.28-.09-.28-.28v-1.79c0-.13.04-.24.11-.34,2.41-3.1,4.28-5.59,5.63-7.48,1.44-2,2.16-3.59,2.16-4.79,0-.86-.24-1.54-.73-2.06-.49-.51-1.13-.77-1.93-.77s-1.41.26-1.89.77c-.48.51-.7,1.19-.69,2.03v.98c0,.19-.09.28-.28.28h-2.16c-.19,0-.28-.09-.28-.28v-1.2c.04-1.47.56-2.66,1.55-3.56,1-.9,2.26-1.34,3.79-1.34,1.06,0,2,.22,2.8.66.8.44,1.42,1.05,1.86,1.83.44.78.66,1.67.66,2.66,0,1.66-.75,3.55-2.24,5.66-.86,1.21-2.26,3.05-4.2,5.52l-.81,1.04c-.06.09-.04.14.06.14Z"/>
      <path class="cls-1" d="M898.26,711.72c0,.95-.1,1.79-.31,2.52-.32,1.21-.91,2.15-1.76,2.8-.86.65-1.95.98-3.28.98-1.21,0-2.24-.29-3.08-.88-.84-.59-1.43-1.43-1.76-2.53-.34-.75-.5-1.68-.5-2.8l-.03-8.88c0-1.49.49-2.69,1.46-3.6.97-.91,2.25-1.36,3.84-1.36,1.49,0,2.71.45,3.65,1.34.94.9,1.41,2.07,1.41,3.53v.59c0,.19-.09.28-.28.28h-2.13c-.19,0-.28-.09-.28-.28v-.39c0-.78-.23-1.43-.69-1.95-.46-.51-1.03-.77-1.72-.77-.75,0-1.36.26-1.83.77-.48.51-.71,1.19-.71,2.03v3.53s.01.07.04.08c.03.02.06,0,.1-.03.73-.84,1.7-1.26,2.91-1.26,1.14,0,2.09.3,2.84.9.76.6,1.31,1.42,1.67,2.46.3.84.45,1.81.45,2.91ZM895.55,711.67c0-.88-.09-1.59-.28-2.13-.17-.58-.46-1.03-.87-1.36-.41-.33-.91-.49-1.51-.49s-1.12.16-1.53.49c-.4.33-.69.79-.85,1.39-.17.52-.25,1.23-.25,2.13,0,.77.07,1.41.2,1.93.15.63.43,1.13.85,1.5.42.36.95.55,1.58.55s1.16-.18,1.58-.55c.42-.36.71-.89.88-1.58.13-.5.2-1.13.2-1.88Z"/>
    </g>
  </g>
</svg>