<?xml version="1.0" encoding="UTF-8"?>
<svg id="wv_hall_3" data-name="Hall 3" xmlns="http://www.w3.org/2000/svg" viewBox="0 0 1300 1300" class="hall-svg h-auto">
  <g id="wv_hall_1300" data-name="1300">
    <rect class="cls-2" width="1300" height="1300"/>
  </g>
  <g id="HALL">
    <g>
      <path class="cls-3" d="M554,799.5c-2.48,0-4.5,2.02-4.5,4.5v82c0,2.48,2.02,4.5,4.5,4.5h32c2.48,0,4.5-2.02,4.5-4.5v-82c0-2.48-2.02-4.5-4.5-4.5h-32ZM589.5,804v82c0,1.93-1.57,3.5-3.5,3.5h-32c-1.93,0-3.5-1.57-3.5-3.5v-82c0-1.93,1.57-3.5,3.5-3.5h32c1.93,0,3.5,1.57,3.5,3.5Z"/>
      <path class="cls-3" d="M402.79,787.31c2.36,0,5.27-1.65,6.49-3.67l10.88-18.14c1.22-2.03,1.22-5.34,0-7.37l-10.88-18.14h0c-1.22-2.02-4.12-3.67-6.49-3.67h-22c-2.36,0-5.27,1.65-6.49,3.67l-10.88,18.14c-1.22,2.03-1.22,5.34,0,7.37l10.88,18.14c1.22,2.03,4.12,3.67,6.49,3.67h22ZM375.16,783.12l-10.88-18.14c-1.03-1.72-1.03-4.63,0-6.35l10.88-18.14c1.04-1.73,3.61-3.19,5.63-3.19h22c2.01,0,4.59,1.46,5.63,3.19l10.88,18.14c1.03,1.72,1.03,4.63,0,6.35l-10.88,18.14c-1.04,1.73-3.61,3.19-5.63,3.19h-22c-2.01,0-4.59-1.46-5.63-3.19Z"/>
      <path class="cls-3" d="M314.82,443.71c-.94,1.48-1.85,2.97-2.77,4.46-.02.02-.04.04-.06.06-.02.03-.02.05-.03.08-.9,1.47-1.8,2.94-2.68,4.41-.02.02-.04.04-.06.07-.02.03-.02.06-.03.09-.9,1.5-1.8,2.99-2.68,4.5,0,0,0,0-.01.01,0,0,0,.01,0,.02-.88,1.51-1.73,3.02-2.59,4.54-.02.02-.05.04-.06.07-.02.03-.02.06-.03.09-.85,1.49-1.69,2.99-2.52,4.5-.02.02-.05.04-.06.07-.02.03-.02.06-.03.1-.84,1.52-1.69,3.05-2.51,4.58,0,0-.01.01-.01.02,0,0,0,.01,0,.02-.82,1.54-1.62,3.08-2.43,4.63-.02.03-.05.05-.06.08-.02.03-.02.06-.03.09-.79,1.53-1.58,3.06-2.36,4.59-.02.02-.04.04-.06.07-.02.03-.02.06-.03.09-.79,1.56-1.58,3.12-2.35,4.69,0,0,0,0,0,0,0,0,0,0,0,0-.77,1.57-1.52,3.15-2.27,4.73-.02.02-.04.04-.05.07-.01.03-.01.06-.02.08-.74,1.56-1.48,3.13-2.2,4.7-.02.02-.04.04-.05.06-.01.03-.01.05-.02.08-.74,1.6-1.48,3.19-2.19,4.79-.11.25,0,.55.25.66l23.74,10.6c.07.03.14.04.2.04.19,0,.37-.11.46-.3,8.17-18.28,17.73-36.14,28.44-53.06.15-.23.08-.54-.16-.69l-10.99-6.95s0,0,0,0c0,0,0,0,0,0l-10.98-6.95c-.23-.15-.54-.08-.69.16ZM315.39,444.67l10.14,6.42c-.74,1.18-1.47,2.37-2.2,3.56l-10.21-6.29c.76-1.23,1.51-2.46,2.28-3.68ZM331.78,465.75l-10.29-6.17c.72-1.19,1.44-2.38,2.17-3.57l10.22,6.29c-.7,1.14-1.4,2.29-2.09,3.44ZM329.21,470.07l-10.37-6.05c.7-1.2,1.42-2.39,2.13-3.59l10.29,6.17c-.69,1.15-1.38,2.3-2.06,3.46ZM326.71,474.43l-10.44-5.92c.69-1.21,1.37-2.42,2.07-3.62l10.36,6.05c-.67,1.16-1.33,2.33-2,3.5ZM324.25,478.82l-10.51-5.8c.67-1.22,1.35-2.43,2.04-3.64l10.44,5.92c-.66,1.17-1.32,2.34-1.97,3.52ZM321.83,483.23l-10.58-5.67c.66-1.23,1.33-2.44,2.01-3.66l10.51,5.8c-.65,1.18-1.3,2.35-1.94,3.54ZM319.49,487.69l-10.64-5.54c.64-1.23,1.28-2.47,1.94-3.7l10.58,5.67c-.63,1.19-1.25,2.38-1.87,3.57ZM317.18,492.16l-10.71-5.41c.63-1.24,1.27-2.48,1.91-3.72l10.64,5.54c-.62,1.19-1.23,2.39-1.84,3.59ZM314.92,496.66l-10.77-5.28c.61-1.25,1.25-2.49,1.87-3.74l10.71,5.41c-.61,1.2-1.22,2.4-1.81,3.61ZM312.73,501.2l-10.84-5.16c.6-1.26,1.19-2.52,1.81-3.77l10.78,5.29c-.59,1.21-1.17,2.42-1.75,3.64ZM310.59,505.76l-10.9-5.03c.59-1.27,1.18-2.53,1.78-3.79l10.83,5.16c-.58,1.22-1.15,2.44-1.71,3.66ZM289.73,491.36l10.84,5.16c-.6,1.26-1.19,2.53-1.78,3.8l-10.89-5.02c.61-1.31,1.22-2.62,1.84-3.93ZM292.04,486.55l10.77,5.28c-.61,1.26-1.21,2.52-1.81,3.78l-10.83-5.16c.62-1.3,1.24-2.61,1.88-3.91ZM294.42,481.77l10.71,5.41c-.63,1.25-1.26,2.49-1.88,3.75l-10.77-5.29c.64-1.3,1.3-2.58,1.95-3.87ZM296.85,477.03l10.64,5.54c-.64,1.24-1.28,2.48-1.91,3.73l-10.71-5.41c.65-1.29,1.31-2.57,1.98-3.86ZM299.33,472.3l10.57,5.67c-.66,1.23-1.3,2.47-1.95,3.71l-10.64-5.54c.67-1.28,1.33-2.56,2.01-3.84ZM301.88,467.62l10.51,5.79c-.67,1.22-1.35,2.44-2.01,3.67l-10.57-5.67c.68-1.27,1.38-2.53,2.08-3.8ZM304.47,462.97l10.44,5.92c-.69,1.21-1.37,2.43-2.04,3.65l-10.51-5.8c.7-1.26,1.4-2.52,2.11-3.78ZM307.11,458.34l10.37,6.05c-.7,1.21-1.39,2.42-2.07,3.63l-10.44-5.92c.71-1.25,1.42-2.51,2.14-3.76ZM309.83,453.76l10.29,6.17c-.72,1.2-1.44,2.39-2.14,3.6l-10.36-6.04c.73-1.25,1.47-2.48,2.21-3.72ZM320.63,459.07l-10.29-6.17c.74-1.24,1.49-2.47,2.25-3.7l10.21,6.29c-.73,1.19-1.45,2.38-2.17,3.58ZM287.47,496.2l10.89,5.02c-.58,1.27-1.18,2.54-1.75,3.82l-10.96-4.89c.59-1.32,1.21-2.63,1.81-3.95ZM308.49,510.34l-10.95-4.89c.57-1.27,1.16-2.54,1.74-3.81l10.9,5.03c-.56,1.22-1.14,2.45-1.69,3.67ZM334.4,461.46l-10.22-6.29c.73-1.18,1.46-2.37,2.2-3.55l10.14,6.41c-.72,1.13-1.41,2.28-2.12,3.43Z"/>
      <path class="cls-3" d="M331.58,442.66h0s10.82,7.21,10.82,7.21c.08.06.18.08.28.08.03,0,.07,0,.1,0,.13-.03.24-.1.32-.21,11.1-16.66,23.52-32.66,36.9-47.56.09-.1.13-.23.13-.36s-.07-.26-.17-.35l-19.34-17.37c-.1-.09-.23-.13-.36-.13-.13,0-.26.07-.35.17-1.17,1.31-2.33,2.63-3.49,3.95-.02.02-.05.03-.07.05-.02.02-.03.05-.04.07-1.14,1.3-2.27,2.6-3.39,3.92-.02.02-.05.03-.07.05-.02.02-.03.05-.04.08-1.14,1.33-2.28,2.65-3.4,4,0,0,0,0,0,0,0,0,0,0,0,.01-1.12,1.34-2.22,2.7-3.32,4.05-.02.02-.05.03-.07.06-.02.02-.03.05-.04.08-1.09,1.33-2.17,2.67-3.24,4.02-.02.02-.05.03-.07.06-.02.03-.03.06-.04.09-1.08,1.36-2.17,2.73-3.24,4.1,0,0-.01,0-.01.01,0,0,0,.01,0,.02-1.07,1.38-2.12,2.77-3.17,4.16-.02.02-.05.04-.07.06-.02.03-.03.06-.04.09-1.04,1.37-2.06,2.75-3.09,4.13-.02.02-.05.04-.07.06-.02.03-.03.06-.04.09-1.04,1.4-2.08,2.81-3.1,4.22,0,0,0,0,0,0,0,0,0,0,0,0-1.02,1.42-2.02,2.85-3.03,4.28-.02.02-.05.04-.06.06-.02.02-.02.05-.03.08-.99,1.41-1.97,2.83-2.95,4.25-.02.02-.04.03-.06.06-.02.02-.02.05-.03.08-.99,1.45-1.98,2.89-2.96,4.35-.15.23-.09.54.14.69l10.81,7.21s0,0,0,0ZM342.54,448.76l-9.98-6.65c.77-1.16,1.56-2.3,2.35-3.45l9.91,6.78c-.76,1.11-1.52,2.21-2.27,3.33ZM327.2,426.94l9.82,6.89c-.8,1.14-1.59,2.29-2.38,3.44l-9.9-6.77c.82-1.19,1.63-2.38,2.46-3.56ZM330.28,422.59l9.74,7.01c-.81,1.13-1.61,2.28-2.41,3.42l-9.82-6.89c.83-1.18,1.66-2.36,2.5-3.53ZM333.42,418.28l9.65,7.12c-.83,1.12-1.66,2.24-2.48,3.37l-9.74-7.01c.84-1.17,1.71-2.33,2.56-3.49ZM336.61,414.01l9.57,7.24c-.84,1.11-1.68,2.23-2.51,3.35l-9.65-7.12c.86-1.16,1.72-2.32,2.59-3.47ZM339.84,409.77l9.48,7.35c-.85,1.1-1.69,2.22-2.54,3.33l-9.57-7.24c.87-1.15,1.74-2.3,2.62-3.44ZM343.14,405.58l9.39,7.47c-.87,1.09-1.74,2.18-2.6,3.29l-9.48-7.35c.89-1.14,1.79-2.27,2.69-3.4ZM346.47,401.42l9.3,7.58c-.88,1.08-1.76,2.17-2.63,3.26l-9.39-7.47c.9-1.13,1.81-2.25,2.72-3.38ZM349.85,397.29l9.21,7.69c-.89,1.07-1.77,2.16-2.66,3.24l-9.3-7.58c.91-1.12,1.82-2.24,2.75-3.35ZM353.3,393.22l9.12,7.8c-.91,1.06-1.82,2.12-2.72,3.19l-9.21-7.69c.93-1.11,1.87-2.21,2.81-3.31ZM356.79,389.18l9.02,7.91c-.92,1.05-1.83,2.11-2.75,3.17l-9.12-7.8c.94-1.1,1.89-2.19,2.84-3.28ZM372.95,408.71l-9.12-7.8c.91-1.06,1.82-2.11,2.74-3.16l9.02,7.91c-.89,1.01-1.77,2.03-2.65,3.05ZM369.69,412.55l-9.21-7.69c.9-1.07,1.8-2.13,2.71-3.19l9.12,7.8c-.87,1.02-1.75,2.04-2.61,3.08ZM366.49,416.44l-9.3-7.58c.88-1.08,1.76-2.16,2.65-3.23l9.21,7.69c-.86,1.03-1.71,2.08-2.56,3.12ZM363.32,420.35l-9.39-7.47c.87-1.09,1.74-2.17,2.62-3.25l9.3,7.58c-.85,1.04-1.69,2.09-2.53,3.14ZM360.2,424.3l-9.48-7.36c.85-1.1,1.72-2.19,2.59-3.28l9.39,7.47c-.84,1.05-1.67,2.1-2.5,3.16ZM357.15,428.3l-9.57-7.24c.84-1.11,1.68-2.22,2.53-3.32l9.48,7.36c-.82,1.06-1.63,2.14-2.44,3.21ZM354.13,432.32l-9.66-7.13c.83-1.12,1.66-2.23,2.5-3.34l9.57,7.24c-.81,1.07-1.61,2.15-2.41,3.23ZM351.15,436.38l-9.74-7.01c.81-1.13,1.64-2.24,2.47-3.36l9.66,7.13c-.8,1.08-1.6,2.16-2.38,3.25ZM348.24,440.48l-9.82-6.89c.8-1.14,1.6-2.28,2.41-3.41l9.74,7.01c-.78,1.09-1.55,2.19-2.33,3.29ZM337.84,434.4l9.82,6.89c-.77,1.1-1.53,2.21-2.29,3.31l-9.91-6.78c.79-1.15,1.58-2.29,2.38-3.43ZM376.25,404.91l-9.02-7.91c.92-1.05,1.84-2.1,2.77-3.14l8.93,8.02c-.9,1-1.78,2.02-2.67,3.03ZM360.32,385.17l8.93,8.02c-.93,1.04-1.85,2.1-2.78,3.15l-9.02-7.91c.96-1.09,1.9-2.18,2.87-3.26ZM324.18,431.32l9.9,6.77c-.79,1.15-1.58,2.3-2.35,3.46l-9.99-6.66c.8-1.2,1.62-2.38,2.44-3.58Z"/>
      <path class="cls-3" d="M284.54,799.81c.72,1.6,1.46,3.2,2.19,4.79,0,.03,0,.05.02.08,0,.02.03.03.04.04.73,1.58,1.46,3.15,2.21,4.72,0,.03,0,.06.02.08,0,.02.03.03.04.05.76,1.59,1.51,3.18,2.28,4.76,0,0,0,0,0,0,0,0,0,0,0,0,.77,1.57,1.56,3.13,2.35,4.69,0,.03.01.06.03.09.01.02.03.03.05.05.78,1.54,1.57,3.08,2.37,4.61,0,.03.01.06.03.09.01.02.03.03.05.05.81,1.55,1.61,3.11,2.44,4.65,0,0,0,.01,0,.02,0,0,0,0,.01.01.82,1.54,1.67,3.06,2.51,4.59,0,.03.01.07.03.1.01.02.04.03.05.05.83,1.51,1.68,3.02,2.53,4.52.01.03.01.06.03.09.01.02.04.03.05.05.86,1.52,1.72,3.05,2.61,4.56,0,0,0,.01,0,.02,0,0,0,0,0,0,.88,1.51,1.78,3,2.68,4.5.01.03.01.06.03.09.01.02.03.03.05.05.89,1.48,1.79,2.96,2.69,4.43.01.03.01.05.03.08.01.02.03.03.05.05.92,1.5,1.84,3,2.78,4.48.1.15.26.23.42.23.09,0,.18-.02.27-.08l10.98-6.95s0,0,0,0c0,0,0,0,0,0l10.99-6.95c.23-.15.3-.46.16-.69-10.7-16.92-20.27-34.77-28.44-53.06-.11-.25-.41-.37-.66-.25l-23.74,10.6c-.25.11-.37.41-.25.66ZM312.3,797.9l-10.83,5.16c-.6-1.26-1.19-2.52-1.78-3.79l10.9-5.03c.57,1.22,1.13,2.44,1.71,3.66ZM314.48,802.44l-10.78,5.29c-.61-1.25-1.21-2.51-1.81-3.77l10.84-5.16c.58,1.21,1.16,2.43,1.75,3.64ZM316.73,806.95l-10.71,5.41c-.63-1.24-1.26-2.49-1.87-3.74l10.77-5.28c.59,1.21,1.21,2.4,1.81,3.61ZM319.02,811.43l-10.64,5.54c-.64-1.24-1.28-2.47-1.91-3.72l10.71-5.41c.61,1.2,1.22,2.4,1.84,3.59ZM321.36,815.89l-10.58,5.67c-.66-1.23-1.3-2.46-1.94-3.7l10.64-5.54c.62,1.19,1.24,2.39,1.87,3.57ZM323.77,820.3l-10.51,5.8c-.67-1.22-1.35-2.44-2.01-3.66l10.58-5.67c.64,1.18,1.29,2.36,1.94,3.54ZM326.22,824.7l-10.44,5.92c-.69-1.21-1.36-2.42-2.04-3.64l10.51-5.8c.65,1.18,1.31,2.35,1.97,3.52ZM328.71,829.06l-10.36,6.05c-.7-1.2-1.38-2.41-2.07-3.62l10.44-5.92c.66,1.17,1.32,2.34,2,3.5ZM331.27,833.39l-10.29,6.17c-.71-1.19-1.43-2.38-2.13-3.59l10.37-6.05c.68,1.16,1.37,2.31,2.06,3.46ZM333.88,837.69l-10.22,6.29c-.73-1.18-1.45-2.37-2.17-3.57l10.29-6.17c.69,1.15,1.39,2.3,2.09,3.44ZM310.34,847.1l10.29-6.17c.72,1.2,1.44,2.39,2.17,3.58l-10.21,6.29c-.75-1.23-1.51-2.46-2.25-3.7ZM307.62,842.52l10.36-6.04c.7,1.2,1.42,2.4,2.14,3.6l-10.29,6.17c-.74-1.24-1.48-2.47-2.21-3.72ZM304.97,837.9l10.44-5.92c.69,1.21,1.37,2.43,2.07,3.63l-10.37,6.05c-.72-1.25-1.43-2.51-2.14-3.76ZM302.36,833.25l10.51-5.8c.68,1.22,1.36,2.44,2.04,3.65l-10.44,5.92c-.71-1.26-1.42-2.51-2.11-3.78ZM299.8,828.58l10.57-5.67c.66,1.23,1.34,2.45,2.01,3.67l-10.51,5.79c-.7-1.26-1.4-2.53-2.08-3.8ZM297.31,823.86l10.64-5.54c.65,1.24,1.29,2.48,1.95,3.71l-10.57,5.67c-.68-1.27-1.34-2.56-2.01-3.84ZM294.87,819.12l10.71-5.41c.63,1.25,1.27,2.49,1.91,3.73l-10.64,5.54c-.67-1.28-1.32-2.57-1.98-3.86ZM292.48,814.35l10.77-5.29c.62,1.25,1.25,2.5,1.88,3.75l-10.71,5.41c-.65-1.29-1.31-2.58-1.95-3.87ZM290.16,809.54l10.83-5.16c.6,1.26,1.2,2.52,1.81,3.78l-10.77,5.28c-.64-1.3-1.26-2.6-1.88-3.91ZM300.56,803.49l-10.84,5.16c-.62-1.31-1.23-2.62-1.84-3.93l10.89-5.02c.59,1.27,1.18,2.53,1.78,3.8ZM315.39,855.33c-.77-1.22-1.52-2.45-2.28-3.68l10.21-6.29c.73,1.19,1.46,2.38,2.2,3.56l-10.14,6.42ZM326.38,848.38c-.74-1.18-1.47-2.36-2.2-3.55l10.22-6.29c.71,1.14,1.4,2.29,2.12,3.43l-10.14,6.41ZM310.17,793.33l-10.9,5.03c-.58-1.27-1.17-2.53-1.74-3.81l10.95-4.89c.55,1.23,1.12,2.45,1.69,3.67ZM296.62,794.96c.57,1.28,1.16,2.55,1.75,3.82l-10.89,5.02c-.6-1.32-1.22-2.63-1.81-3.95l10.96-4.89Z"/>
      <path class="cls-3" d="M323.59,869.59s.02.05.03.08c.01.02.03.03.05.04.98,1.43,1.96,2.85,2.96,4.27.01.03.02.05.03.08.01.02.04.03.05.05,1.01,1.43,2.01,2.87,3.04,4.3,0,0,0,0,0,0,0,0,0,0,0,0,1.02,1.42,2.06,2.82,3.1,4.22.01.03.02.06.04.09.02.02.04.03.06.05,1.02,1.39,2.05,2.77,3.09,4.14.01.03.02.06.04.09.02.02.04.03.06.05,1.05,1.39,2.1,2.79,3.18,4.17,0,0,0,.01,0,.02,0,0,0,0,.01.01,1.07,1.38,2.16,2.74,3.24,4.11.02.03.02.06.04.09.02.02.04.03.06.05,1.07,1.35,2.16,2.69,3.24,4.03.01.03.02.06.04.08.02.02.04.03.07.05,1.11,1.36,2.21,2.72,3.33,4.06,0,0,0,0,0,.01,0,0,0,0,0,0,1.12,1.34,2.26,2.67,3.4,4,.02.03.02.06.04.08.02.02.04.03.07.05,1.13,1.32,2.26,2.62,3.4,3.92.01.02.02.05.04.07.02.02.04.03.06.05,1.16,1.32,2.32,2.65,3.49,3.96.09.1.21.16.35.17,0,0,.02,0,.03,0,.12,0,.24-.05.33-.13l19.34-17.37c.1-.09.16-.21.17-.35s-.04-.26-.13-.36c-13.38-14.9-25.8-30.9-36.9-47.56-.07-.11-.19-.19-.32-.21s-.27,0-.38.07l-10.82,7.21h0s0,0,0,0l-10.81,7.21c-.23.15-.29.46-.14.69.97,1.46,1.97,2.9,2.96,4.35ZM347.67,858.71l-9.82,6.89c-.8-1.14-1.59-2.28-2.38-3.43l9.91-6.78c.76,1.11,1.52,2.21,2.29,3.31ZM350.57,862.81l-9.74,7.01c-.81-1.13-1.61-2.27-2.41-3.41l9.82-6.89c.77,1.1,1.54,2.2,2.33,3.29ZM353.54,866.87l-9.66,7.13c-.83-1.12-1.65-2.24-2.47-3.36l9.74-7.01c.79,1.09,1.59,2.17,2.38,3.25ZM356.54,870.91l-9.57,7.24c-.84-1.11-1.67-2.22-2.5-3.34l9.66-7.13c.8,1.08,1.6,2.16,2.41,3.23ZM359.59,874.91l-9.48,7.36c-.85-1.1-1.69-2.21-2.53-3.32l9.57-7.24c.81,1.07,1.62,2.14,2.44,3.21ZM362.7,878.86l-9.39,7.47c-.86-1.09-1.73-2.18-2.59-3.28l9.48-7.36c.83,1.06,1.66,2.11,2.5,3.16ZM365.85,882.79l-9.3,7.58c-.88-1.08-1.75-2.17-2.62-3.25l9.39-7.47c.84,1.05,1.68,2.1,2.53,3.14ZM369.04,886.68l-9.21,7.69c-.89-1.07-1.77-2.15-2.65-3.23l9.3-7.58c.85,1.04,1.7,2.09,2.56,3.12ZM372.3,890.53l-9.12,7.8c-.9-1.06-1.81-2.12-2.71-3.19l9.21-7.69c.86,1.03,1.74,2.05,2.61,3.08ZM375.59,894.34l-9.02,7.91c-.92-1.05-1.83-2.1-2.74-3.16l9.12-7.8c.88,1.02,1.76,2.04,2.65,3.05ZM353.95,907.54l9.12-7.8c.91,1.06,1.83,2.12,2.75,3.17l-9.02,7.91c-.95-1.09-1.9-2.18-2.84-3.28ZM350.5,903.47l9.21-7.69c.9,1.07,1.81,2.13,2.72,3.19l-9.12,7.8c-.94-1.1-1.88-2.2-2.81-3.31ZM347.11,899.35l9.3-7.58c.88,1.08,1.76,2.17,2.66,3.24l-9.21,7.69c-.92-1.11-1.83-2.23-2.75-3.35ZM343.75,895.21l9.39-7.47c.87,1.09,1.75,2.18,2.63,3.26l-9.3,7.58c-.91-1.12-1.82-2.25-2.72-3.38ZM340.45,891.02l9.48-7.35c.86,1.1,1.73,2.19,2.6,3.29l-9.39,7.47c-.9-1.13-1.8-2.26-2.69-3.4ZM337.21,886.79l9.57-7.24c.84,1.11,1.68,2.23,2.54,3.33l-9.48,7.35c-.88-1.14-1.75-2.29-2.62-3.44ZM334.02,882.52l9.65-7.12c.83,1.12,1.67,2.24,2.51,3.35l-9.57,7.24c-.87-1.15-1.73-2.31-2.59-3.47ZM330.86,878.23l9.74-7.01c.82,1.13,1.65,2.25,2.48,3.37l-9.65,7.12c-.86-1.16-1.72-2.32-2.56-3.49ZM327.78,873.88l9.82-6.89c.8,1.14,1.6,2.28,2.41,3.42l-9.74,7.01c-.84-1.17-1.67-2.35-2.5-3.53ZM337.02,866.17l-9.82,6.89c-.83-1.18-1.65-2.37-2.46-3.56l9.9-6.77c.79,1.15,1.58,2.3,2.38,3.44ZM360.32,914.83c-.97-1.08-1.91-2.17-2.87-3.26l9.02-7.91c.92,1.05,1.84,2.11,2.78,3.15l-8.93,8.02ZM370,906.14c-.93-1.04-1.85-2.09-2.77-3.14l9.02-7.91c.89,1.01,1.77,2.03,2.67,3.03l-8.93,8.02ZM342.54,851.24c.75,1.12,1.51,2.22,2.27,3.33l-9.91,6.78c-.78-1.15-1.57-2.29-2.35-3.45l9.98-6.65ZM331.73,858.45c.77,1.16,1.57,2.31,2.35,3.46l-9.9,6.77c-.81-1.19-1.64-2.38-2.44-3.58l9.99-6.66Z"/>
      <path class="cls-3" d="M984.76,856.52s.07,0,.11-.01c.13-.03.24-.11.31-.22.94-1.48,1.86-2.99,2.78-4.48.01-.02.04-.03.05-.05.02-.03.02-.05.03-.08.91-1.47,1.8-2.95,2.69-4.43.02-.02.04-.03.05-.05.02-.03.02-.06.03-.09.9-1.5,1.8-2.99,2.68-4.5,0,0,0,0,0,0,0,0,0-.01,0-.01.88-1.51,1.74-3.04,2.61-4.56.02-.02.04-.03.05-.05.02-.03.02-.06.03-.09.85-1.5,1.69-3.01,2.53-4.52.02-.02.04-.03.05-.05.02-.03.02-.06.03-.1.84-1.53,1.69-3.05,2.51-4.59,0,0,0,0,.01-.01,0,0,0-.01,0-.02.83-1.54,1.63-3.1,2.44-4.65.01-.02.04-.03.05-.05.02-.03.02-.06.03-.09.8-1.53,1.59-3.07,2.37-4.61.01-.02.03-.03.04-.05.02-.03.02-.06.03-.09.79-1.56,1.58-3.12,2.35-4.69,0,0,0,0,0,0,0,0,0,0,0,0,.78-1.58,1.53-3.17,2.28-4.76.01-.02.03-.03.04-.05.01-.03.01-.06.02-.08.75-1.57,1.48-3.14,2.21-4.72.01-.02.03-.02.04-.04.01-.03.01-.05.02-.08.74-1.6,1.48-3.19,2.19-4.79.11-.25,0-.55-.25-.66l-23.74-10.6c-.25-.11-.55,0-.66.25-8.17,18.28-17.73,36.14-28.44,53.06-.15.23-.08.54.16.69l21.97,13.9c.08.05.17.08.27.08ZM984.61,855.33l-10.14-6.42c.74-1.18,1.47-2.37,2.2-3.56l10.21,6.29c-.76,1.23-1.51,2.46-2.28,3.68ZM968.22,834.25l10.29,6.17c-.72,1.19-1.44,2.38-2.17,3.57l-10.22-6.29c.7-1.14,1.4-2.29,2.09-3.44ZM970.78,829.93l10.37,6.05c-.7,1.2-1.42,2.39-2.13,3.59l-10.29-6.17c.69-1.15,1.38-2.3,2.06-3.46ZM973.29,825.57l10.44,5.92c-.69,1.21-1.37,2.42-2.07,3.62l-10.36-6.05c.67-1.16,1.33-2.33,2-3.5ZM975.75,821.18l10.51,5.8c-.67,1.22-1.35,2.43-2.04,3.64l-10.44-5.92c.66-1.17,1.32-2.34,1.97-3.52ZM978.17,816.77l10.58,5.67c-.66,1.23-1.33,2.44-2.01,3.66l-10.51-5.8c.65-1.18,1.3-2.35,1.94-3.54ZM980.51,812.31l10.64,5.54c-.64,1.23-1.28,2.47-1.94,3.7l-10.58-5.67c.63-1.19,1.25-2.38,1.87-3.57ZM982.82,807.84l10.71,5.41c-.63,1.24-1.27,2.48-1.91,3.72l-10.64-5.54c.62-1.19,1.23-2.39,1.84-3.59ZM985.08,803.34l10.77,5.28c-.61,1.25-1.25,2.49-1.87,3.74l-10.71-5.41c.61-1.2,1.22-2.4,1.81-3.61ZM987.27,798.8l10.84,5.16c-.6,1.26-1.19,2.52-1.81,3.77l-10.78-5.29c.59-1.21,1.17-2.42,1.75-3.64ZM989.41,794.24l10.9,5.03c-.59,1.27-1.18,2.53-1.78,3.79l-10.83-5.16c.58-1.22,1.15-2.44,1.71-3.66ZM1010.27,808.64l-10.84-5.16c.6-1.26,1.19-2.53,1.78-3.8l10.89,5.02c-.61,1.31-1.22,2.62-1.84,3.93ZM1007.96,813.45l-10.77-5.28c.61-1.26,1.21-2.52,1.81-3.78l10.83,5.16c-.62,1.3-1.24,2.61-1.88,3.91ZM1005.58,818.23l-10.71-5.41c.63-1.25,1.26-2.49,1.88-3.75l10.77,5.29c-.64,1.3-1.3,2.58-1.95,3.87ZM1003.15,822.97l-10.64-5.54c.64-1.24,1.28-2.48,1.91-3.73l10.71,5.41c-.65,1.29-1.31,2.57-1.98,3.86ZM1000.67,827.7l-10.57-5.67c.66-1.23,1.3-2.47,1.95-3.71l10.64,5.54c-.67,1.28-1.33,2.56-2.01,3.84ZM998.12,832.38l-10.51-5.79c.67-1.22,1.35-2.44,2.01-3.67l10.57,5.67c-.68,1.27-1.38,2.53-2.08,3.8ZM995.53,837.03l-10.43-5.92c.69-1.21,1.37-2.43,2.04-3.65l10.51,5.8c-.7,1.26-1.4,2.52-2.11,3.78ZM992.89,841.66l-10.37-6.05c.7-1.21,1.39-2.42,2.08-3.63l10.43,5.92c-.71,1.25-1.42,2.51-2.14,3.76ZM990.17,846.24l-10.29-6.17c.71-1.2,1.44-2.39,2.14-3.6l10.36,6.04c-.73,1.25-1.47,2.48-2.21,3.72ZM979.37,840.93l10.29,6.17c-.74,1.24-1.49,2.47-2.25,3.7l-10.21-6.29c.73-1.19,1.45-2.38,2.17-3.58ZM1012.53,803.8l-10.89-5.02c.58-1.27,1.18-2.54,1.75-3.82l10.96,4.89c-.59,1.32-1.21,2.63-1.81,3.95ZM991.51,789.66l10.95,4.89c-.57,1.27-1.16,2.54-1.74,3.81l-10.9-5.03c.56-1.22,1.13-2.45,1.69-3.67ZM965.6,838.54l10.22,6.29c-.73,1.18-1.46,2.37-2.2,3.55l-10.14-6.41c.72-1.13,1.41-2.28,2.12-3.43Z"/>
      <path class="cls-3" d="M920.04,898.54l19.34,17.37c.1.09.21.13.33.13.14,0,.27-.06.37-.17,1.17-1.31,2.33-2.63,3.49-3.96.02-.02.05-.03.06-.05.02-.02.03-.05.04-.07,1.14-1.3,2.27-2.61,3.4-3.92.02-.02.05-.03.07-.05.02-.02.03-.05.04-.08,1.14-1.33,2.28-2.65,3.4-4,0,0,0,0,0,0,0,0,0,0,0-.01,1.12-1.34,2.22-2.7,3.33-4.06.02-.02.05-.03.07-.05.02-.02.03-.05.04-.08,1.09-1.34,2.17-2.68,3.24-4.03.02-.02.05-.03.06-.05.02-.03.03-.06.04-.09,1.08-1.37,2.18-2.73,3.24-4.11,0,0,0,0,.01-.01,0,0,0-.01,0-.02,1.07-1.38,2.12-2.78,3.18-4.17.02-.02.05-.03.06-.05.02-.03.03-.06.04-.09,1.04-1.37,2.07-2.75,3.1-4.14.02-.02.04-.03.06-.05.02-.03.03-.06.04-.09,1.04-1.4,2.08-2.81,3.1-4.22,0,0,0,0,0,0,0,0,0,0,0,0,1.03-1.42,2.03-2.86,3.03-4.3.02-.02.04-.03.05-.05.02-.02.02-.05.03-.08.99-1.42,1.98-2.84,2.96-4.27.02-.02.04-.02.05-.04.02-.02.02-.05.03-.08.99-1.45,1.98-2.89,2.96-4.35.15-.23.09-.54-.14-.69l-21.63-14.42c-.11-.07-.25-.1-.38-.07s-.24.1-.32.21c-11.1,16.66-23.52,32.66-36.9,47.56-.09.1-.13.23-.13.36s.07.26.17.35ZM939.68,914.83l-8.93-8.02c.93-1.04,1.85-2.1,2.78-3.15l9.02,7.91c-.96,1.09-1.9,2.18-2.87,3.26ZM927.05,891.29l9.12,7.8c-.91,1.06-1.82,2.11-2.74,3.16l-9.02-7.91c.89-1.01,1.77-2.03,2.65-3.05ZM930.31,887.45l9.21,7.69c-.9,1.07-1.8,2.13-2.71,3.19l-9.12-7.8c.87-1.02,1.75-2.04,2.61-3.08ZM933.51,883.56l9.3,7.58c-.88,1.08-1.76,2.16-2.65,3.23l-9.21-7.69c.86-1.03,1.71-2.08,2.56-3.12ZM936.68,879.65l9.39,7.47c-.87,1.09-1.74,2.17-2.62,3.25l-9.3-7.58c.85-1.04,1.69-2.09,2.53-3.14ZM939.8,875.7l9.48,7.36c-.85,1.1-1.72,2.19-2.59,3.28l-9.39-7.47c.84-1.05,1.67-2.1,2.5-3.16ZM942.85,871.7l9.57,7.24c-.84,1.11-1.68,2.22-2.53,3.32l-9.48-7.36c.82-1.06,1.63-2.14,2.44-3.21ZM945.87,867.68l9.66,7.13c-.83,1.12-1.66,2.23-2.5,3.34l-9.57-7.24c.81-1.07,1.61-2.15,2.41-3.23ZM948.85,863.62l9.74,7.01c-.81,1.13-1.64,2.24-2.47,3.36l-9.66-7.13c.8-1.08,1.6-2.16,2.39-3.25ZM951.76,859.52l9.82,6.89c-.8,1.14-1.6,2.28-2.41,3.41l-9.74-7.01c.78-1.09,1.55-2.19,2.33-3.29ZM954.63,855.39l9.91,6.78c-.79,1.15-1.58,2.29-2.38,3.43l-9.82-6.89c.77-1.1,1.53-2.21,2.29-3.31ZM972.8,873.06l-9.82-6.89c.8-1.14,1.59-2.29,2.38-3.44l9.9,6.77c-.82,1.19-1.63,2.38-2.46,3.56ZM969.72,877.41l-9.74-7.01c.81-1.13,1.61-2.28,2.41-3.42l9.82,6.89c-.83,1.18-1.66,2.36-2.5,3.53ZM966.58,881.72l-9.65-7.12c.83-1.12,1.66-2.24,2.48-3.37l9.74,7.01c-.84,1.17-1.71,2.33-2.56,3.49ZM963.39,885.99l-9.57-7.24c.84-1.11,1.68-2.23,2.51-3.35l9.65,7.12c-.86,1.16-1.72,2.32-2.59,3.47ZM960.16,890.23l-9.48-7.35c.85-1.1,1.69-2.22,2.54-3.33l9.57,7.24c-.87,1.15-1.74,2.3-2.62,3.44ZM956.86,894.42l-9.39-7.47c.87-1.09,1.74-2.18,2.6-3.29l9.48,7.35c-.89,1.14-1.79,2.27-2.69,3.4ZM953.53,898.58l-9.3-7.58c.88-1.08,1.76-2.17,2.63-3.26l9.39,7.47c-.9,1.13-1.81,2.25-2.72,3.38ZM950.15,902.71l-9.21-7.69c.89-1.07,1.77-2.16,2.66-3.24l9.3,7.58c-.91,1.12-1.82,2.24-2.75,3.35ZM946.7,906.78l-9.12-7.8c.91-1.06,1.82-2.12,2.72-3.19l9.21,7.69c-.93,1.11-1.87,2.21-2.81,3.31ZM936.93,899.74l9.12,7.8c-.94,1.1-1.89,2.19-2.84,3.28l-9.02-7.91c.92-1.05,1.83-2.11,2.75-3.17ZM975.82,868.68l-9.9-6.77c.79-1.15,1.58-2.3,2.35-3.46l9.99,6.66c-.8,1.2-1.62,2.38-2.44,3.58ZM957.46,851.24l9.98,6.65c-.77,1.16-1.56,2.3-2.34,3.45l-9.91-6.78c.76-1.11,1.52-2.21,2.27-3.33ZM923.75,895.09l9.02,7.91c-.92,1.05-1.84,2.1-2.77,3.14l-8.93-8.02c.9-1,1.78-2.02,2.67-3.03Z"/>
      <path class="cls-3" d="M1015.46,500.19c-.72-1.6-1.46-3.2-2.19-4.79,0-.03,0-.05-.02-.08-.01-.03-.03-.04-.05-.07-.72-1.57-1.46-3.14-2.2-4.7,0-.03,0-.06-.02-.08-.01-.03-.04-.05-.05-.07-.75-1.58-1.5-3.16-2.27-4.74,0,0,0,0,0,0,0,0,0,0,0,0-.77-1.57-1.56-3.13-2.35-4.69,0-.03-.01-.06-.03-.09-.01-.03-.04-.05-.06-.07-.78-1.53-1.56-3.06-2.36-4.59,0-.03-.01-.06-.03-.09-.02-.03-.04-.05-.06-.08-.81-1.55-1.61-3.09-2.43-4.63,0,0,0-.01,0-.02,0,0-.01-.01-.01-.02-.82-1.53-1.67-3.06-2.51-4.58,0-.03-.01-.07-.03-.1-.02-.03-.04-.05-.06-.07-.83-1.5-1.67-3-2.52-4.5-.01-.03-.01-.06-.03-.09-.02-.03-.04-.05-.06-.07-.86-1.52-1.72-3.04-2.59-4.54,0,0,0-.01,0-.01s0,0-.01-.01c-.88-1.51-1.78-3-2.68-4.5-.01-.03-.01-.06-.03-.09-.02-.03-.04-.04-.06-.07-.89-1.48-1.78-2.95-2.68-4.42-.01-.03-.01-.05-.03-.08-.02-.03-.04-.04-.06-.06-.92-1.49-1.83-2.99-2.77-4.47-.07-.11-.18-.19-.31-.22-.13-.03-.27,0-.38.07l-21.97,13.9c-.23.15-.3.46-.16.69,10.7,16.92,20.27,34.77,28.44,53.06.08.19.27.3.46.3.07,0,.14-.01.2-.04l23.74-10.6c.25-.11.37-.41.25-.66ZM987.7,502.1l10.83-5.16c.6,1.26,1.19,2.52,1.78,3.79l-10.9,5.03c-.57-1.22-1.13-2.44-1.71-3.66ZM985.52,497.56l10.78-5.29c.61,1.25,1.21,2.51,1.81,3.77l-10.84,5.16c-.58-1.21-1.16-2.43-1.75-3.64ZM983.27,493.05l10.71-5.41c.63,1.24,1.26,2.49,1.87,3.74l-10.77,5.28c-.59-1.21-1.21-2.4-1.81-3.61ZM980.98,488.57l10.64-5.54c.64,1.24,1.28,2.47,1.91,3.72l-10.71,5.41c-.61-1.2-1.22-2.4-1.84-3.59ZM978.64,484.11l10.58-5.67c.66,1.23,1.3,2.46,1.94,3.7l-10.64,5.54c-.62-1.19-1.24-2.39-1.87-3.57ZM976.23,479.7l10.51-5.8c.67,1.22,1.35,2.44,2.01,3.66l-10.58,5.67c-.64-1.18-1.29-2.36-1.94-3.54ZM973.78,475.3l10.44-5.92c.69,1.21,1.36,2.42,2.04,3.64l-10.51,5.8c-.65-1.18-1.31-2.35-1.97-3.52ZM971.29,470.94l10.36-6.05c.7,1.2,1.38,2.41,2.07,3.62l-10.44,5.92c-.66-1.17-1.32-2.34-2-3.5ZM968.73,466.61l10.29-6.17c.71,1.19,1.43,2.38,2.13,3.59l-10.37,6.05c-.68-1.16-1.37-2.31-2.06-3.46ZM966.12,462.31l10.22-6.29c.73,1.18,1.45,2.37,2.17,3.57l-10.29,6.17c-.69-1.15-1.39-2.3-2.09-3.44ZM989.66,452.9l-10.29,6.17c-.72-1.2-1.44-2.39-2.17-3.58l10.21-6.29c.75,1.23,1.51,2.46,2.25,3.7ZM992.38,457.48l-10.36,6.04c-.7-1.2-1.42-2.4-2.14-3.6l10.29-6.17c.74,1.24,1.48,2.47,2.21,3.72ZM995.03,462.1l-10.43,5.92c-.69-1.21-1.37-2.43-2.08-3.63l10.37-6.05c.72,1.25,1.43,2.51,2.14,3.76ZM997.64,466.75l-10.51,5.8c-.68-1.22-1.36-2.44-2.04-3.65l10.43-5.92c.71,1.26,1.42,2.51,2.11,3.78ZM1000.2,471.42l-10.57,5.67c-.66-1.23-1.34-2.45-2.01-3.67l10.51-5.79c.7,1.26,1.4,2.53,2.08,3.8ZM1002.69,476.14l-10.64,5.54c-.65-1.24-1.29-2.48-1.95-3.71l10.57-5.67c.68,1.27,1.34,2.56,2.01,3.84ZM1005.13,480.88l-10.71,5.41c-.63-1.25-1.27-2.49-1.91-3.73l10.64-5.54c.67,1.28,1.32,2.57,1.98,3.86ZM1007.52,485.65l-10.77,5.29c-.62-1.25-1.25-2.5-1.88-3.75l10.71-5.41c.65,1.29,1.31,2.58,1.95,3.87ZM1009.84,490.46l-10.83,5.16c-.6-1.26-1.2-2.52-1.81-3.78l10.77-5.28c.64,1.3,1.25,2.6,1.88,3.91ZM999.44,496.51l10.84-5.16c.62,1.31,1.23,2.62,1.84,3.93l-10.89,5.02c-.59-1.27-1.18-2.53-1.78-3.8ZM984.61,444.67c.77,1.22,1.52,2.45,2.28,3.68l-10.21,6.29c-.73-1.19-1.46-2.38-2.2-3.56l10.14-6.42ZM973.62,451.62c.74,1.18,1.47,2.36,2.2,3.55l-10.22,6.29c-.71-1.14-1.4-2.29-2.12-3.43l10.14-6.41ZM989.83,506.67l10.9-5.03c.58,1.27,1.17,2.53,1.74,3.81l-10.95,4.89c-.55-1.23-1.12-2.45-1.69-3.67ZM1003.38,505.04c-.57-1.28-1.16-2.55-1.75-3.82l10.89-5.02c.6,1.32,1.22,2.63,1.81,3.95l-10.96,4.89Z"/>
      <path class="cls-3" d="M956.9,449.73c.07.11.19.19.32.21.03,0,.07,0,.1,0,.1,0,.19-.03.28-.08l21.63-14.42c.23-.15.29-.46.14-.69-.97-1.46-1.97-2.9-2.96-4.35-.01-.03-.02-.05-.03-.08-.02-.02-.04-.04-.06-.06-.97-1.42-1.96-2.84-2.95-4.25-.01-.03-.02-.05-.03-.08-.02-.03-.04-.04-.06-.06-1-1.43-2-2.86-3.03-4.28,0,0,0,0,0,0s0,0,0,0c-1.02-1.42-2.06-2.82-3.1-4.22-.01-.03-.02-.06-.04-.09-.02-.03-.05-.04-.07-.06-1.02-1.38-2.05-2.76-3.09-4.13-.01-.03-.02-.06-.04-.09-.02-.03-.05-.04-.07-.06-1.05-1.39-2.1-2.78-3.17-4.16,0,0,0-.01,0-.02,0,0,0,0-.01-.01-1.07-1.38-2.16-2.74-3.24-4.1-.02-.03-.02-.06-.04-.09-.02-.03-.05-.04-.07-.06-1.07-1.35-2.15-2.69-3.24-4.02-.01-.03-.02-.06-.04-.08-.02-.03-.05-.04-.07-.06-1.1-1.35-2.2-2.71-3.32-4.05,0,0,0,0,0-.01,0,0,0,0,0,0-1.12-1.34-2.26-2.67-3.4-4-.02-.03-.02-.06-.04-.08-.02-.02-.05-.04-.07-.05-1.12-1.31-2.25-2.62-3.39-3.92-.01-.02-.02-.05-.04-.07-.02-.02-.05-.03-.07-.05-1.16-1.32-2.31-2.65-3.49-3.95-.18-.21-.5-.22-.71-.04l-19.34,17.37c-.1.09-.16.21-.17.35s.04.26.13.36c13.38,14.9,25.8,30.9,36.9,47.56ZM946.05,392.46l-9.12,7.8c-.91-1.06-1.83-2.12-2.75-3.17l9.02-7.91c.95,1.09,1.9,2.18,2.84,3.28ZM949.5,396.53l-9.21,7.69c-.9-1.07-1.81-2.13-2.72-3.19l9.12-7.8c.94,1.1,1.88,2.2,2.81,3.31ZM952.89,400.65l-9.3,7.58c-.88-1.08-1.76-2.17-2.66-3.24l9.21-7.69c.92,1.11,1.83,2.23,2.75,3.35ZM956.25,404.79l-9.39,7.47c-.87-1.09-1.75-2.18-2.63-3.26l9.3-7.58c.91,1.12,1.82,2.25,2.72,3.38ZM959.55,408.98l-9.48,7.35c-.86-1.1-1.73-2.19-2.6-3.29l9.39-7.47c.9,1.13,1.8,2.26,2.69,3.4ZM962.79,413.21l-9.57,7.24c-.84-1.11-1.68-2.23-2.54-3.33l9.48-7.35c.88,1.14,1.75,2.29,2.62,3.44ZM965.98,417.48l-9.65,7.12c-.83-1.12-1.67-2.24-2.51-3.35l9.57-7.24c.87,1.15,1.73,2.31,2.59,3.47ZM969.14,421.77l-9.74,7.01c-.82-1.13-1.65-2.25-2.48-3.37l9.65-7.12c.86,1.16,1.72,2.32,2.56,3.49ZM972.22,426.12l-9.82,6.89c-.8-1.14-1.6-2.28-2.41-3.42l9.74-7.01c.84,1.17,1.67,2.35,2.5,3.53ZM975.26,430.49l-9.9,6.77c-.79-1.15-1.58-2.3-2.38-3.44l9.82-6.89c.83,1.18,1.65,2.37,2.46,3.56ZM952.33,441.29l9.82-6.89c.8,1.14,1.59,2.28,2.38,3.43l-9.91,6.78c-.76-1.11-1.52-2.21-2.29-3.31ZM949.43,437.19l9.74-7.01c.81,1.13,1.61,2.27,2.41,3.41l-9.82,6.89c-.77-1.1-1.54-2.2-2.33-3.29ZM946.46,433.13l9.66-7.13c.83,1.12,1.65,2.24,2.47,3.36l-9.74,7.01c-.79-1.09-1.59-2.17-2.39-3.25ZM943.46,429.09l9.57-7.24c.84,1.11,1.67,2.22,2.5,3.34l-9.66,7.13c-.8-1.08-1.6-2.16-2.41-3.23ZM940.41,425.09l9.48-7.36c.85,1.1,1.69,2.21,2.53,3.32l-9.57,7.24c-.81-1.07-1.62-2.14-2.44-3.21ZM937.3,421.14l9.39-7.47c.87,1.09,1.73,2.18,2.59,3.28l-9.48,7.36c-.83-1.06-1.66-2.11-2.5-3.16ZM934.15,417.21l9.3-7.58c.88,1.08,1.75,2.17,2.62,3.25l-9.39,7.47c-.84-1.05-1.68-2.1-2.53-3.14ZM930.96,413.32l9.21-7.69c.89,1.07,1.77,2.15,2.65,3.23l-9.3,7.58c-.85-1.04-1.7-2.09-2.56-3.12ZM927.7,409.47l9.12-7.8c.9,1.06,1.81,2.12,2.71,3.19l-9.21,7.69c-.86-1.03-1.74-2.05-2.61-3.08ZM936.17,400.91l-9.12,7.8c-.88-1.02-1.76-2.04-2.65-3.05l9.02-7.91c.92,1.05,1.83,2.1,2.74,3.16ZM957.46,448.76c-.75-1.12-1.51-2.22-2.27-3.33l9.91-6.78c.78,1.15,1.57,2.29,2.34,3.45l-9.98,6.65ZM968.27,441.55c-.77-1.16-1.57-2.31-2.35-3.46l9.9-6.77c.81,1.19,1.64,2.38,2.44,3.58l-9.99,6.66ZM939.68,385.17c.97,1.08,1.91,2.17,2.87,3.26l-9.02,7.91c-.92-1.05-1.84-2.11-2.78-3.15l8.93-8.02ZM930,393.86c.93,1.04,1.85,2.09,2.77,3.14l-9.02,7.91c-.89-1.01-1.77-2.03-2.67-3.03l8.93-8.02Z"/>
      <path class="cls-3" d="M1080.48,545.87c-.07-.27-.34-.43-.61-.36l-31.61,8.23c-.26.07-.42.34-.36.6,7.7,31.54,11.6,63.72,11.6,95.65,0,54.02-10.84,107.26-32.23,158.23-20.55,48.98-50.72,94.29-87.27,131.06l-29.65-29.65c-.09-.09-.22-.15-.35-.15h-364.5v-14.5c0-.13-.05-.26-.15-.35s-.22-.15-.35-.15c-7.22,0-13.28,4.96-15,11.65-.68-2.67-2.05-5.12-4.04-7.11-2.93-2.93-6.82-4.54-10.96-4.54-.28,0-.5.22-.5.5v14.5h-4v-14.5c0-.13-.05-.26-.15-.35s-.22-.15-.35-.15c-7.22,0-13.28,4.96-15,11.65-.68-2.67-2.05-5.12-4.04-7.11-2.93-2.93-6.82-4.54-10.96-4.54-.28,0-.5.22-.5.5v14.5h-4v-14.5c0-.13-.05-.26-.15-.35s-.22-.15-.35-.15c-7.22,0-13.28,4.96-15,11.65-.68-2.67-2.05-5.12-4.04-7.11-2.93-2.93-6.82-4.54-10.96-4.54-.28,0-.5.22-.5.5v14.5h-4v-14.5c0-.13-.05-.26-.15-.35s-.22-.15-.35-.15c-7.22,0-13.28,4.96-15,11.65-.68-2.67-2.05-5.12-4.04-7.11-2.93-2.93-6.82-4.54-10.96-4.54-.28,0-.5.22-.5.5v14.5h-19.5c-.13,0-.26.05-.35.15l-29.65,29.65c-36.55-36.77-66.72-82.08-87.27-131.06-21.39-50.98-32.23-104.21-32.23-158.23s10.84-107.26,32.23-158.23c20.55-48.98,50.72-94.29,87.27-131.06l29.65,29.65c.09.09.22.15.35.15h520c.13,0,.26-.05.35-.15l29.65-29.65c39.15,39.39,70.75,88.21,91.38,141.23.1.25.38.38.64.29l32.16-11.76c.26-.09.39-.38.3-.64-.09-.26-.38-.39-.64-.3l-31.7,11.59c-20.75-53.13-52.48-102.04-91.78-141.47-.09-.09-.22-.15-.35-.15h0c-.13,0-.26.05-.35.15l-29.85,29.85H390.21l-29.85-29.85c-.19-.19-.52-.19-.71,0-36.8,36.92-67.17,82.47-87.84,131.73-21.44,51.1-32.31,104.47-32.31,158.62s10.87,107.52,32.31,158.62c20.67,49.26,51.04,94.81,87.84,131.73.09.09.22.15.35.15h0c.13,0,.26-.05.35-.15l29.85-29.85h19.29v14.5c0,.13.05.26.15.35s.22.15.35.15c7.22,0,13.28-4.96,15-11.65.68,2.67,2.05,5.12,4.04,7.11,2.93,2.93,6.82,4.54,10.96,4.54.28,0,.5-.22.5-.5v-14.5h4v14.5c0,.13.05.26.15.35s.22.15.35.15c7.22,0,13.28-4.96,15-11.65.68,2.67,2.05,5.12,4.04,7.11,2.93,2.93,6.82,4.54,10.96,4.54.28,0,.5-.22.5-.5v-14.5h4v14.5c0,.13.05.26.15.35s.22.15.35.15c7.22,0,13.28-4.96,15-11.65.68,2.67,2.05,5.12,4.04,7.11,2.93,2.93,6.82,4.54,10.96,4.54.28,0,.5-.22.5-.5v-14.5h4v14.5c0,.13.05.26.15.35s.22.15.35.15c7.22,0,13.29-4.97,15-11.66,1.71,6.69,7.78,11.66,15,11.66.28,0,.5-.22.5-.5v-14.5h364.29l29.85,29.85c.09.09.22.15.35.15s.26-.05.35-.15c36.8-36.92,67.17-82.47,87.84-131.73,21.44-51.1,32.31-104.47,32.31-158.62,0-31.84-3.87-63.94-11.51-95.41l31.14-8.11c.27-.07.43-.34.36-.61ZM410.5,924.49v-28.98c3.69.12,7.13,1.62,9.75,4.24s4.25,6.38,4.25,10.25c0,7.83-6.24,14.23-14,14.49ZM429.75,920.25c-2.74-2.74-4.25-6.38-4.25-10.25,0-7.83,6.24-14.23,14-14.49v14.49s0,0,0,0h0v14.49c-3.69-.12-7.13-1.62-9.75-4.24ZM445.5,924.49v-28.98c3.69.12,7.13,1.62,9.75,4.24s4.25,6.38,4.25,10.25c0,7.83-6.24,14.23-14,14.49ZM464.75,920.25c-2.74-2.74-4.25-6.38-4.25-10.25,0-7.83,6.24-14.23,14-14.49v28.98c-3.69-.12-7.13-1.62-9.75-4.24ZM480.5,924.49v-14.49h0s0-14.49,0-14.49c3.69.12,7.13,1.62,9.75,4.24s4.25,6.38,4.25,10.25c0,7.83-6.24,14.23-14,14.49ZM499.75,920.25c-2.74-2.74-4.25-6.38-4.25-10.25,0-7.83,6.24-14.23,14-14.49v28.98c-3.69-.12-7.13-1.62-9.75-4.24ZM515.5,924.49v-28.98c3.69.12,7.13,1.62,9.75,4.24s4.25,6.38,4.25,10.25c0,7.83-6.24,14.23-14,14.49ZM530.5,910c0-7.83,6.24-14.23,14-14.49v14.49s0,0,0,0h0v14.49c-7.76-.26-14-6.66-14-14.49Z"/>
    </g>
  </g>
  <g id="Signage">
    <g>
      <path class="cls-3" d="M572.68,841.6c-.4-.4-1.17-1.16-2.21-1.36.08-1.12.81-1.67,1.66-2.29.93-.69,1.99-1.46,1.99-3.1,0-1.04-.42-2.03-1.18-2.77-1.51-1.47-4.13-1.47-5.65,0-.76.74-1.18,1.72-1.18,2.77h1c0-.77.31-1.5.87-2.05,1.14-1.1,3.12-1.1,4.25,0,.56.55.87,1.28.87,2.05,0,1.13-.7,1.64-1.59,2.29-.94.69-1.99,1.48-2.07,3.11-1,.21-1.76.96-2.15,1.35l-9.36,9.26c-1.24,1.13-1.76,2.84-1.25,4.15.29.75,1.17,2.01,3.79,2.01h19c2.62,0,3.5-1.26,3.79-2.01.51-1.31,0-3.01-1.23-4.13l-9.38-9.28ZM582.36,854.65c-.34.88-1.36,1.37-2.85,1.37h-19c-1.5,0-2.51-.49-2.85-1.37-.36-.92.06-2.2,1.01-3.06l9.37-9.28c.39-.39,1.12-1.11,1.98-1.12.86.01,1.58.73,1.98,1.12l9.39,9.29c.93.85,1.35,2.13.99,3.05Z"/>
      <path class="cls-3" d="M403.29,747.81h-8.7c-.26-.7-.54-1.37-.82-2,0,0-.48-1-1.48-1h-12c-1,0-1.48,1-1.48,1-1.35,2.94-2.52,6.87-2.52,10,0,6.94,4.59,10.73,9.5,10.98v11.02h-3.5c-.28,0-.5.22-.5.5s.22.5.5.5h8c.28,0,.5-.22.5-.5s-.22-.5-.5-.5h-3.5v-11.02c.99-.05,1.96-.25,2.89-.58,1.8,2.23,4.4,3.45,7.11,3.58v8.02h-3.5c-.28,0-.5.22-.5.5s.22.5.5.5h8c.28,0,.5-.22.5-.5s-.22-.5-.5-.5h-3.5v-8.02c4.91-.24,9.5-4.03,9.5-10.98,0-3.13-1.17-7.06-2.52-10,0,0-.48-1-1.48-1ZM386.29,765.81c-4.33,0-9-3.13-9-10,0-3.16,1.25-7.02,2.42-9.55,0,0,.23-.45.58-.45h12c.34,0,.57.42.57.42h0c.22.48.44,1.02.66,1.58h-2.23c-1,0-1.48,1-1.48,1-1.35,2.94-2.52,6.87-2.52,10,0,2.65.67,4.84,1.78,6.55-.91.29-1.85.45-2.78.45ZM390,765c-1.05-1.56-1.71-3.61-1.71-6.19,0-3.16,1.25-7.02,2.42-9.55,0,0,.23-.45.58-.45h2.6c.78,2.22,1.4,4.78,1.4,7,0,4.89-2.36,7.87-5.29,9.19ZM397.29,768.81c-2.41,0-4.91-.97-6.67-3,3.23-1.56,5.67-4.93,5.67-10,0-2.15-.56-4.67-1.34-7h8.34c.34,0,.57.42.57.42h0c1.17,2.56,2.43,6.43,2.43,9.58,0,6.87-4.67,10-9,10Z"/>
      <path class="cls-3" d="M1048.66,526.4c1.96-.78,2.32-1.46,2.32-4.26,0-2.18-.42-3.16-1.62-3.95-1.15-.73-2.97-.92-8.43-.92-1.99,0-5.07.08-5.99.14-1.74.14-2.49.39-3.25,1.04-.95.81-1.18,1.76-1.23,5.07h2.55v-1.01c0-1.57.2-2.16.81-2.49.73-.39,2.97-.56,7.03-.56,3.39,0,5.63.14,6.36.39.92.31,1.29,1.09,1.29,2.69,0,2.38-.67,2.83-4.34,2.83h-5.99v2.13h5.29c1.29,0,3.53.2,3.89.34,1.01.36,1.34.98,1.34,2.49,0,2.52-.42,3.16-2.07,3.33-.95.11-3.84.22-5.24.22-3.5,0-6.8-.17-7.45-.42-.9-.31-1.15-1.01-1.18-3.08v-.73h-2.46c0,2.16.03,2.66.28,3.64.31,1.2,1.4,2.16,2.8,2.41,1.15.22,4.26.36,7.62.36,4.76,0,6.94-.17,7.95-.64,1.62-.73,2.24-2.02,2.24-4.65,0-2.86-.56-3.84-2.52-4.37Z"/>
      <path class="cls-3" d="M1057.76,517.67l-4.94,9.33h3.25l.8-1.58h6.17l.8,1.58h3.23l-4.88-9.33h-4.42ZM1057.87,523.38l1.8-3.54h.56l1.8,3.54h-4.17Z"/>
      <path class="cls-3" d="M491.58,940.47l-13.4-8.18c-.33-.2-.76-.3-1.18-.29-.43,0-.86.09-1.18.29l-13.4,8.18c-.64.39-.6,1.53.48,1.53h28.21c1.08,0,1.11-1.14.48-1.53Z"/>
      <path class="cls-3" d="M1082.88,514.97c-.12-.41-.33-.8-.62-1.05l-11.66-10.54c-.56-.5-1.65-.14-1.34.89l7.93,27.05c.3,1.03,1.41.75,1.61.02l4.13-15.16c.1-.37.07-.81-.05-1.22Z"/>
      <path class="cls-3" d="M481.53,970.86c.38.58,1,.89,1.64.89.37,0,.74-.11,1.07-.32.91-.6,1.16-1.82.56-2.73l-4.06-6.23c-.37,1.75-.7,3.95-.84,5.9l1.62,2.49Z"/>
      <path class="cls-3" d="M471.54,974.95s0,.09-.01.13c-.01.8-.06,1.6-.09,2.4l-.08,1.88-5.02,8.08c-.62,1-.36,2.32.61,3.01,1,.71,2.39.46,3.09-.55l5.64-8.09-.15-.4-3.99-6.47Z"/>
      <path class="cls-3" d="M476.63,947.21c-1.8.66-2.72,2.67-2.06,4.48.66,1.81,2.66,2.74,4.46,2.07,1.8-.66,2.72-2.67,2.06-4.48-.66-1.81-2.66-2.74-4.46-2.07Z"/>
      <path class="cls-3" d="M482.57,978.21c-.04-.11-.09-.22-.14-.32l-.08-.15-4.52-7.92c0-.24,0-.46.01-.7.02-.49.06-.99.1-1.49.09-1.01.22-2.02.37-3.04.15-1.01.34-2.02.55-3,.11-.49.22-.97.35-1.42l.1-.34.08-.26c.03-.14.16-.44.24-.68l.02-.05h0c.58-1.58-.22-3.31-1.78-3.89-1.36-.5-2.85.04-3.59,1.23l-5,5.44c-.18.2-.32.42-.41.68l-2.35,6.63c-.36,1.02.17,2.15,1.19,2.52.22.08.44.12.66.12.81,0,1.56-.5,1.85-1.31l2.01-5.67c-.11.83-.22,1.67-.29,2.52-.05.58-.09,1.16-.12,1.75-.03.59-.04,1.2-.03,1.83h0s0,.16,0,.16c.02.47.17.94.45,1.36l5.46,8.22,3.71,9.09c.48,1.16,1.78,1.77,2.98,1.35,1.24-.43,1.9-1.79,1.48-3.04l-3.3-9.61Z"/>
    </g>
  </g>
  <g id="wv_hall_3_01" data-name="3/01" class="ds-stand">
    <rect class="cls-3" x="319" y="640" width="74" height="74" rx="4" ry="4"/>
    <g>
      <path class="cls-1" d="M347.74,685.57c-1.02-1.01-1.53-2.36-1.53-4.06v-9.02c0-1.68.51-3.02,1.53-4.03,1.02-1.01,2.38-1.51,4.07-1.51s3.06.5,4.09,1.51c1.03,1.01,1.54,2.35,1.54,4.03v9.02c0,1.7-.51,3.05-1.54,4.06-1.03,1.01-2.39,1.51-4.09,1.51s-3.06-.5-4.07-1.51ZM353.94,683.9c.54-.57.81-1.32.81-2.25v-9.27c0-.93-.27-1.68-.81-2.25-.54-.57-1.25-.85-2.13-.85s-1.58.28-2.11.85-.8,1.32-.8,2.25v9.27c0,.93.27,1.68.8,2.25s1.24.85,2.11.85,1.59-.28,2.13-.85Z"/>
      <path class="cls-1" d="M362.96,667.2h2.21c.19,0,.28.09.28.28v19.04c0,.19-.09.28-.28.28h-2.13c-.19,0-.28-.09-.28-.28v-16.41s-.01-.07-.04-.1c-.03-.03-.06-.03-.1-.01l-2.72.87-.11.03c-.11,0-.19-.08-.22-.25l-.11-1.6c0-.15.07-.26.2-.34l2.94-1.43c.11-.06.23-.08.36-.08Z"/>
    </g>
  </g>
  <g id="wv_hall_3_02" data-name="3/02" class="ds-stand">
    <rect class="cls-3" x="319" y="570" width="74" height="44" rx="4" ry="4"/>
    <g>
      <path class="cls-1" d="M345.19,600.57c-1.02-1.01-1.53-2.36-1.53-4.06v-9.02c0-1.68.51-3.02,1.53-4.03,1.02-1.01,2.38-1.51,4.07-1.51s3.06.5,4.09,1.51c1.03,1.01,1.54,2.35,1.54,4.03v9.02c0,1.7-.51,3.05-1.54,4.06-1.03,1.01-2.39,1.51-4.09,1.51s-3.06-.5-4.07-1.51ZM351.39,598.9c.54-.57.81-1.32.81-2.25v-9.27c0-.93-.27-1.68-.81-2.25-.54-.57-1.25-.85-2.13-.85s-1.58.28-2.11.85-.8,1.32-.8,2.25v9.27c0,.93.27,1.68.8,2.25s1.24.85,2.11.85,1.59-.28,2.13-.85Z"/>
      <path class="cls-1" d="M361.05,599.48h7.42c.19,0,.28.09.28.28v1.76c0,.19-.09.28-.28.28h-10.56c-.19,0-.28-.09-.28-.28v-1.79c0-.13.04-.24.11-.34,2.41-3.1,4.28-5.59,5.63-7.48,1.44-2,2.16-3.59,2.16-4.79,0-.86-.24-1.54-.73-2.06-.49-.51-1.13-.77-1.93-.77s-1.41.26-1.89.77c-.48.51-.7,1.19-.69,2.03v.98c0,.19-.09.28-.28.28h-2.16c-.19,0-.28-.09-.28-.28v-1.2c.04-1.47.56-2.66,1.55-3.56,1-.9,2.26-1.34,3.79-1.34,1.06,0,2,.22,2.8.66.8.44,1.42,1.05,1.86,1.83.44.78.66,1.67.66,2.66,0,1.66-.75,3.55-2.24,5.66-.86,1.21-2.26,3.05-4.2,5.52l-.81,1.04c-.06.09-.04.14.06.14Z"/>
    </g>
  </g>
  <g id="wv_hall_3_03" data-name="3/03" class="ds-stand">
    <rect class="cls-3" x="349" y="470" width="74" height="74" rx="4" ry="4"/>
    <g>
      <path class="cls-1" d="M375.32,515.57c-1.02-1.01-1.53-2.36-1.53-4.06v-9.02c0-1.68.51-3.02,1.53-4.03,1.02-1.01,2.38-1.51,4.07-1.51s3.06.5,4.09,1.51c1.03,1.01,1.54,2.35,1.54,4.03v9.02c0,1.7-.51,3.05-1.54,4.06-1.03,1.01-2.39,1.51-4.09,1.51s-3.06-.5-4.07-1.51ZM381.52,513.9c.54-.57.81-1.32.81-2.25v-9.27c0-.93-.27-1.68-.81-2.25-.54-.57-1.25-.85-2.13-.85s-1.58.28-2.11.85-.8,1.32-.8,2.25v9.27c0,.93.27,1.68.8,2.25s1.24.85,2.11.85,1.59-.28,2.13-.85Z"/>
      <path class="cls-1" d="M398.26,510.72c0,1.16-.18,2.19-.53,3.11-.39,1.05-.99,1.84-1.79,2.38-.8.54-1.8.81-3,.81-1.36,0-2.5-.36-3.42-1.08-.91-.72-1.49-1.68-1.74-2.9-.11-.56-.19-1.24-.22-2.04,0-.19.09-.28.28-.28h2.13c.19,0,.28.09.28.28.04.62.09,1.12.17,1.51.15.69.44,1.23.87,1.61.43.38.98.57,1.65.57.62,0,1.13-.16,1.54-.49.41-.33.71-.81.9-1.44.17-.62.25-1.36.25-2.24,0-1.01-.12-1.84-.36-2.49-.21-.58-.5-1.02-.9-1.32-.39-.3-.88-.45-1.46-.45-.28,0-.58.08-.9.25-.07.04-.13.06-.17.06-.07,0-.15-.04-.22-.11l-1.09-1.18c-.06-.06-.08-.12-.08-.2s.03-.14.08-.2l4.26-5.24s.05-.07.03-.1c-.02-.03-.05-.04-.08-.04h-6.66c-.19,0-.28-.09-.28-.28v-1.76c0-.19.09-.28.28-.28h9.83c.19,0,.28.09.28.28v1.85c0,.13-.04.24-.11.34l-3.95,4.96s-.05.07-.03.1c.02.03.05.04.08.04.84.07,1.56.34,2.16.8.6.46,1.05,1.08,1.37,1.86.37.91.56,2.02.56,3.3Z"/>
    </g>
  </g>
  <g id="wv_hall_3_04" data-name="3/04" class="ds-stand">
    <rect class="cls-3" x="439" y="410" width="44" height="34" rx="4" ry="4"/>
    <g>
      <path class="cls-1" d="M449.84,435.57c-1.02-1.01-1.53-2.36-1.53-4.06v-9.02c0-1.68.51-3.02,1.53-4.03,1.02-1.01,2.38-1.51,4.07-1.51s3.06.5,4.09,1.51c1.03,1.01,1.54,2.35,1.54,4.03v9.02c0,1.7-.51,3.05-1.54,4.06-1.03,1.01-2.39,1.51-4.09,1.51s-3.06-.5-4.07-1.51ZM456.04,433.9c.54-.57.81-1.32.81-2.25v-9.27c0-.93-.27-1.68-.81-2.25-.54-.57-1.25-.85-2.13-.85s-1.58.28-2.11.85-.8,1.32-.8,2.25v9.27c0,.93.27,1.68.8,2.25s1.24.85,2.11.85,1.59-.28,2.13-.85Z"/>
      <path class="cls-1" d="M474.1,429.41v1.88c0,.19-.09.28-.28.28h-1.04c-.07,0-.11.04-.11.11v4.84c0,.19-.09.28-.28.28h-2.13c-.19,0-.28-.09-.28-.28v-4.84c0-.07-.04-.11-.11-.11h-7.7c-.19,0-.28-.09-.28-.28v-1.54c0-.13.02-.24.06-.34l4.79-11.98c.06-.15.16-.22.31-.22h2.3c.09,0,.16.03.2.1.04.07.04.14,0,.24l-4.51,11.45s-.02.07,0,.1c.02.03.05.04.08.04h4.76c.07,0,.11-.04.11-.11v-3.98c0-.19.09-.28.28-.28h2.13c.19,0,.28.09.28.28v3.98c0,.08.04.11.11.11h1.04c.19,0,.28.09.28.28Z"/>
    </g>
  </g>
  <g id="wv_hall_3_05" data-name="3/05" class="ds-stand">
    <rect class="cls-3" x="489" y="410" width="44" height="34" rx="4" ry="4"/>
    <g>
      <path class="cls-1" d="M500.32,435.57c-1.02-1.01-1.53-2.36-1.53-4.06v-9.02c0-1.68.51-3.02,1.53-4.03,1.02-1.01,2.38-1.51,4.07-1.51s3.06.5,4.09,1.51c1.03,1.01,1.54,2.35,1.54,4.03v9.02c0,1.7-.51,3.05-1.54,4.06-1.03,1.01-2.39,1.51-4.09,1.51s-3.06-.5-4.07-1.51ZM506.52,433.9c.54-.57.81-1.32.81-2.25v-9.27c0-.93-.27-1.68-.81-2.25-.54-.57-1.25-.85-2.13-.85s-1.58.28-2.11.85-.8,1.32-.8,2.25v9.27c0,.93.27,1.68.8,2.25s1.24.85,2.11.85,1.59-.28,2.13-.85Z"/>
      <path class="cls-1" d="M523.63,430.72c0,.97-.08,1.79-.25,2.46-.32,1.23-.92,2.18-1.81,2.84-.89.66-1.99.99-3.32.99s-2.43-.35-3.32-1.04c-.89-.69-1.48-1.66-1.78-2.91-.11-.48-.18-.86-.2-1.12v-.06c0-.15.08-.22.25-.22h2.16c.19,0,.29.09.31.28.04.3.07.5.11.59.15.69.44,1.22.87,1.58.43.36.96.55,1.6.55s1.17-.19,1.61-.56c.44-.37.73-.91.88-1.6.11-.43.17-1.02.17-1.76s-.07-1.38-.2-1.96c-.15-.63-.44-1.12-.87-1.44-.43-.33-.96-.49-1.6-.49s-1.14.14-1.58.42c-.44.28-.75.7-.94,1.26-.04.15-.14.22-.31.22h-2.18c-.19,0-.28-.09-.28-.28v-11c0-.19.09-.28.28-.28h9.55c.19,0,.28.09.28.28v1.76c0,.19-.09.28-.28.28h-7.03c-.07,0-.11.04-.11.11l-.03,5.96c0,.09.05.11.14.06.37-.37.83-.66,1.36-.85.53-.2,1.1-.29,1.69-.29,1.1,0,2.03.27,2.8.8.77.53,1.3,1.3,1.6,2.31.28.92.42,1.95.42,3.11Z"/>
    </g>
  </g>
  <g id="wv_hall_3_06" data-name="3/06" class="ds-stand">
    <rect class="cls-3" x="539" y="410" width="44" height="34" rx="4" ry="4"/>
    <g>
      <path class="cls-1" d="M550.3,435.57c-1.02-1.01-1.53-2.36-1.53-4.06v-9.02c0-1.68.51-3.02,1.53-4.03,1.02-1.01,2.38-1.51,4.07-1.51s3.06.5,4.09,1.51c1.03,1.01,1.54,2.35,1.54,4.03v9.02c0,1.7-.51,3.05-1.54,4.06-1.03,1.01-2.39,1.51-4.09,1.51s-3.06-.5-4.07-1.51ZM556.51,433.9c.54-.57.81-1.32.81-2.25v-9.27c0-.93-.27-1.68-.81-2.25-.54-.57-1.25-.85-2.13-.85s-1.58.28-2.11.85-.8,1.32-.8,2.25v9.27c0,.93.27,1.68.8,2.25s1.24.85,2.11.85,1.59-.28,2.13-.85Z"/>
      <path class="cls-1" d="M573.64,430.72c0,.95-.1,1.79-.31,2.52-.32,1.21-.91,2.15-1.76,2.8-.86.65-1.95.98-3.28.98-1.21,0-2.24-.29-3.08-.88-.84-.59-1.43-1.43-1.76-2.53-.34-.75-.5-1.68-.5-2.8l-.03-8.88c0-1.49.49-2.69,1.46-3.6.97-.91,2.25-1.36,3.84-1.36,1.49,0,2.71.45,3.65,1.34.94.9,1.41,2.07,1.41,3.53v.59c0,.19-.09.28-.28.28h-2.13c-.19,0-.28-.09-.28-.28v-.39c0-.78-.23-1.43-.69-1.95-.46-.51-1.03-.77-1.72-.77-.75,0-1.36.26-1.83.77-.48.51-.71,1.19-.71,2.03v3.53s.01.07.04.08c.03.02.06,0,.1-.03.73-.84,1.7-1.26,2.91-1.26,1.14,0,2.09.3,2.84.9.76.6,1.31,1.42,1.67,2.46.3.84.45,1.81.45,2.91ZM570.93,430.67c0-.88-.09-1.59-.28-2.13-.17-.58-.46-1.03-.87-1.36-.41-.33-.91-.49-1.51-.49s-1.12.16-1.53.49c-.4.33-.69.79-.85,1.39-.17.52-.25,1.23-.25,2.13,0,.77.07,1.41.2,1.93.15.63.43,1.13.85,1.5.42.36.95.55,1.58.55s1.16-.18,1.58-.55c.42-.36.71-.89.88-1.58.13-.5.2-1.13.2-1.88Z"/>
    </g>
  </g>
  <g id="wv_hall_3_07" data-name="3/07" class="ds-stand">
    <rect class="cls-3" x="609" y="410" width="44" height="34" rx="4" ry="4"/>
    <g>
      <path class="cls-1" d="M620.88,435.57c-1.02-1.01-1.53-2.36-1.53-4.06v-9.02c0-1.68.51-3.02,1.53-4.03,1.02-1.01,2.38-1.51,4.07-1.51s3.06.5,4.09,1.51c1.03,1.01,1.54,2.35,1.54,4.03v9.02c0,1.7-.51,3.05-1.54,4.06-1.03,1.01-2.39,1.51-4.09,1.51s-3.06-.5-4.07-1.51ZM627.08,433.9c.54-.57.81-1.32.81-2.25v-9.27c0-.93-.27-1.68-.81-2.25-.54-.57-1.25-.85-2.13-.85s-1.58.28-2.11.85-.8,1.32-.8,2.25v9.27c0,.93.27,1.68.8,2.25s1.24.85,2.11.85,1.59-.28,2.13-.85Z"/>
      <path class="cls-1" d="M635.26,436.49l5.54-16.83s.01-.07-.01-.1c-.03-.03-.06-.04-.1-.04h-5.6c-.07,0-.11.04-.11.11v1.2c0,.19-.09.28-.28.28h-1.65c-.19,0-.28-.09-.28-.28v-3.36c0-.19.09-.28.28-.28h10.33c.19,0,.28.09.28.28v1.88c0,.07-.02.19-.06.34l-5.52,16.88c-.06.15-.17.22-.34.22h-2.27c-.21,0-.28-.1-.22-.31Z"/>
    </g>
  </g>
  <g id="wv_hall_3_08" data-name="3/08" class="ds-stand">
    <rect class="cls-3" x="659" y="410" width="44" height="34" rx="4" ry="4"/>
    <g>
      <path class="cls-1" d="M670.22,435.57c-1.02-1.01-1.53-2.36-1.53-4.06v-9.02c0-1.68.51-3.02,1.53-4.03,1.02-1.01,2.38-1.51,4.07-1.51s3.06.5,4.09,1.51c1.03,1.01,1.54,2.35,1.54,4.03v9.02c0,1.7-.51,3.05-1.54,4.06-1.03,1.01-2.39,1.51-4.09,1.51s-3.06-.5-4.07-1.51ZM676.42,433.9c.54-.57.81-1.32.81-2.25v-9.27c0-.93-.27-1.68-.81-2.25-.54-.57-1.25-.85-2.13-.85s-1.58.28-2.11.85-.8,1.32-.8,2.25v9.27c0,.93.27,1.68.8,2.25s1.24.85,2.11.85,1.59-.28,2.13-.85Z"/>
      <path class="cls-1" d="M693.42,431.26c0,1.16-.21,2.15-.62,2.97-.41.88-1.02,1.56-1.83,2.06-.81.5-1.77.74-2.87.74s-2.06-.25-2.88-.76c-.82-.5-1.44-1.21-1.85-2.13-.41-.88-.62-1.85-.62-2.91s.18-1.95.53-2.77c.37-.88.98-1.52,1.82-1.93.09-.06.09-.11,0-.17-.65-.39-1.16-.91-1.51-1.54-.47-.77-.7-1.67-.7-2.72s.21-1.92.64-2.69c.43-.78,1.05-1.4,1.85-1.85.8-.45,1.71-.67,2.72-.67s1.96.22,2.74.66c.78.44,1.38,1.06,1.79,1.86.45.8.67,1.7.67,2.69s-.23,1.91-.7,2.72c-.35.63-.86,1.15-1.51,1.54-.09.06-.1.1-.03.14.84.41,1.45,1.06,1.82,1.96.35.77.53,1.7.53,2.8ZM690.76,431.09c0-.75-.1-1.38-.31-1.9-.19-.54-.48-.96-.88-1.26-.4-.3-.89-.45-1.47-.45-1.18,0-1.96.55-2.35,1.65-.21.5-.31,1.16-.31,1.96s.13,1.52.39,2.04c.41,1.05,1.17,1.57,2.27,1.57s1.83-.51,2.24-1.54c.28-.56.42-1.25.42-2.07ZM685.55,422.3c0,.67.13,1.25.39,1.74.21.43.49.77.87,1.01.37.24.8.36,1.29.36s.94-.13,1.32-.38c.37-.25.66-.6.87-1.05.24-.47.36-1.04.36-1.71,0-.58-.11-1.09-.34-1.54-.19-.47-.47-.84-.85-1.11-.38-.27-.84-.41-1.39-.41-.5,0-.95.14-1.34.42-.39.28-.68.65-.87,1.12-.21.5-.31,1.02-.31,1.54Z"/>
    </g>
  </g>
  <g id="wv_hall_3_09" data-name="3/09" class="ds-stand">
    <rect class="cls-3" x="709" y="410" width="44" height="34" rx="4" ry="4"/>
    <g>
      <path class="cls-1" d="M720.43,435.57c-1.02-1.01-1.53-2.36-1.53-4.06v-9.02c0-1.68.51-3.02,1.53-4.03,1.02-1.01,2.38-1.51,4.07-1.51s3.06.5,4.09,1.51c1.03,1.01,1.54,2.35,1.54,4.03v9.02c0,1.7-.51,3.05-1.54,4.06-1.03,1.01-2.39,1.51-4.09,1.51s-3.06-.5-4.07-1.51ZM726.63,433.9c.54-.57.81-1.32.81-2.25v-9.27c0-.93-.27-1.68-.81-2.25-.54-.57-1.25-.85-2.13-.85s-1.58.28-2.11.85-.8,1.32-.8,2.25v9.27c0,.93.27,1.68.8,2.25s1.24.85,2.11.85,1.59-.28,2.13-.85Z"/>
      <path class="cls-1" d="M743.15,423.19v8.88c0,1.51-.49,2.72-1.46,3.61-.97.9-2.24,1.34-3.81,1.34s-2.73-.45-3.67-1.34c-.93-.9-1.4-2.07-1.4-3.53v-.59c0-.19.09-.28.28-.28h2.13c.19,0,.28.09.28.28v.39c0,.8.22,1.46.67,1.96.45.5,1.02.76,1.71.76.77,0,1.39-.26,1.86-.77.48-.51.71-1.19.71-2.03v-3.56s-.01-.07-.04-.08c-.03-.02-.06,0-.1.03-.73.86-1.7,1.29-2.91,1.29-1.14,0-2.09-.3-2.86-.9-.77-.6-1.32-1.42-1.65-2.46-.3-.77-.45-1.74-.45-2.91,0-1.05.1-1.89.31-2.52.3-1.21.88-2.15,1.74-2.8.86-.65,1.95-.98,3.28-.98,1.21,0,2.24.29,3.08.88s1.43,1.43,1.76,2.53c.35.78.53,1.72.53,2.8ZM739.33,426.82c.4-.33.69-.79.85-1.39.19-.58.28-1.29.28-2.13,0-.77-.07-1.41-.2-1.93-.17-.65-.46-1.16-.88-1.51-.42-.35-.95-.53-1.58-.53s-1.14.18-1.57.55c-.43.36-.73.89-.9,1.58-.13.62-.2,1.24-.2,1.88,0,.8.09,1.51.28,2.13.39,1.23,1.19,1.85,2.38,1.85.62,0,1.12-.16,1.53-.49Z"/>
    </g>
  </g>
  <g id="wv_hall_3_10" data-name="3/10" class="ds-stand">
    <rect class="cls-3" x="759" y="410" width="44" height="34" rx="4" ry="4"/>
    <g>
      <path class="cls-1" d="M773.92,417.2h2.21c.19,0,.28.09.28.28v19.04c0,.19-.09.28-.28.28h-2.13c-.19,0-.28-.09-.28-.28v-16.41s-.01-.07-.04-.1c-.03-.03-.06-.03-.1-.01l-2.72.87-.11.03c-.11,0-.19-.08-.22-.25l-.11-1.6c0-.15.07-.26.2-.34l2.94-1.43c.11-.06.23-.08.36-.08Z"/>
      <path class="cls-1" d="M781.24,435.57c-1.02-1.01-1.53-2.36-1.53-4.06v-9.02c0-1.68.51-3.02,1.53-4.03,1.02-1.01,2.38-1.51,4.07-1.51s3.06.5,4.09,1.51c1.03,1.01,1.54,2.35,1.54,4.03v9.02c0,1.7-.51,3.05-1.54,4.06-1.03,1.01-2.39,1.51-4.09,1.51s-3.06-.5-4.07-1.51ZM787.44,433.9c.54-.57.81-1.32.81-2.25v-9.27c0-.93-.27-1.68-.81-2.25-.54-.57-1.25-.85-2.13-.85s-1.58.28-2.11.85-.8,1.32-.8,2.25v9.27c0,.93.27,1.68.8,2.25s1.24.85,2.11.85,1.59-.28,2.13-.85Z"/>
    </g>
  </g>
  <g id="wv_hall_3_11" data-name="3/11" class="ds-stand">
    <rect class="cls-3" x="809" y="410" width="44" height="34" rx="4" ry="4"/>
    <g>
      <path class="cls-1" d="M826.77,417.2h2.21c.19,0,.28.09.28.28v19.04c0,.19-.09.28-.28.28h-2.13c-.19,0-.28-.09-.28-.28v-16.41s-.01-.07-.04-.1c-.03-.03-.06-.03-.1-.01l-2.72.87-.11.03c-.11,0-.19-.08-.22-.25l-.11-1.6c0-.15.07-.26.2-.34l2.94-1.43c.11-.06.23-.08.36-.08Z"/>
      <path class="cls-1" d="M835.26,417.2h2.21c.19,0,.28.09.28.28v19.04c0,.19-.09.28-.28.28h-2.13c-.19,0-.28-.09-.28-.28v-16.41s-.01-.07-.04-.1c-.03-.03-.06-.03-.1-.01l-2.72.87-.11.03c-.11,0-.19-.08-.22-.25l-.11-1.6c0-.15.07-.26.2-.34l2.94-1.43c.11-.06.23-.08.36-.08Z"/>
    </g>
  </g>
  <g id="wv_hall_3_12" data-name="3/12" class="ds-stand">
    <rect class="cls-3" x="859" y="410" width="44" height="34" rx="4" ry="4"/>
    <g>
      <path class="cls-1" d="M874.28,417.2h2.21c.19,0,.28.09.28.28v19.04c0,.19-.09.28-.28.28h-2.13c-.19,0-.28-.09-.28-.28v-16.41s-.01-.07-.04-.1c-.03-.03-.06-.03-.1-.01l-2.72.87-.11.03c-.11,0-.19-.08-.22-.25l-.11-1.6c0-.15.07-.26.2-.34l2.94-1.43c.11-.06.23-.08.36-.08Z"/>
      <path class="cls-1" d="M883.3,434.48h7.42c.19,0,.28.09.28.28v1.76c0,.19-.09.28-.28.28h-10.56c-.19,0-.28-.09-.28-.28v-1.79c0-.13.04-.24.11-.34,2.41-3.1,4.28-5.59,5.63-7.48,1.44-2,2.16-3.59,2.16-4.79,0-.86-.24-1.54-.73-2.06-.49-.51-1.13-.77-1.93-.77s-1.41.26-1.89.77c-.48.51-.7,1.19-.69,2.03v.98c0,.19-.09.28-.28.28h-2.16c-.19,0-.28-.09-.28-.28v-1.2c.04-1.47.56-2.66,1.55-3.56,1-.9,2.26-1.34,3.79-1.34,1.06,0,2,.22,2.8.66.8.44,1.42,1.05,1.86,1.83.44.78.66,1.67.66,2.66,0,1.66-.75,3.55-2.24,5.66-.86,1.21-2.26,3.05-4.2,5.52l-.81,1.04c-.06.09-.04.14.06.14Z"/>
    </g>
  </g>
  <g id="wv_hall_3_13" data-name="3/13" class="ds-stand">
    <rect class="cls-3" x="449" y="470" width="74" height="74" rx="4" ry="4"/>
    <g>
      <path class="cls-1" d="M479.42,497.2h2.21c.19,0,.28.09.28.28v19.04c0,.19-.09.28-.28.28h-2.13c-.19,0-.28-.09-.28-.28v-16.41s-.01-.07-.04-.1c-.03-.03-.06-.03-.1-.01l-2.72.87-.11.03c-.11,0-.19-.08-.22-.25l-.11-1.6c0-.15.07-.26.2-.34l2.94-1.43c.11-.06.23-.08.36-.08Z"/>
      <path class="cls-1" d="M495.49,510.72c0,1.16-.18,2.19-.53,3.11-.39,1.05-.99,1.84-1.79,2.38-.8.54-1.8.81-3,.81-1.36,0-2.5-.36-3.42-1.08-.91-.72-1.49-1.68-1.74-2.9-.11-.56-.19-1.24-.22-2.04,0-.19.09-.28.28-.28h2.13c.19,0,.28.09.28.28.04.62.09,1.12.17,1.51.15.69.44,1.23.87,1.61.43.38.98.57,1.65.57.62,0,1.13-.16,1.54-.49.41-.33.71-.81.9-1.44.17-.62.25-1.36.25-2.24,0-1.01-.12-1.84-.36-2.49-.21-.58-.5-1.02-.9-1.32-.39-.3-.88-.45-1.46-.45-.28,0-.58.08-.9.25-.07.04-.13.06-.17.06-.07,0-.15-.04-.22-.11l-1.09-1.18c-.06-.06-.08-.12-.08-.2s.03-.14.08-.2l4.26-5.24s.05-.07.03-.1c-.02-.03-.05-.04-.08-.04h-6.66c-.19,0-.28-.09-.28-.28v-1.76c0-.19.09-.28.28-.28h9.83c.19,0,.28.09.28.28v1.85c0,.13-.04.24-.11.34l-3.95,4.96s-.05.07-.03.1c.02.03.05.04.08.04.84.07,1.56.34,2.16.8.6.46,1.05,1.08,1.37,1.86.37.91.56,2.02.56,3.3Z"/>
    </g>
  </g>
  <g id="wv_hall_3_14" data-name="3/14" class="ds-stand">
    <rect class="cls-3" x="549" y="470" width="44" height="34" rx="4" ry="4"/>
    <g>
      <path class="cls-1" d="M563.94,477.2h2.21c.19,0,.28.09.28.28v19.04c0,.19-.09.28-.28.28h-2.13c-.19,0-.28-.09-.28-.28v-16.41s-.01-.07-.04-.1c-.03-.03-.06-.03-.1-.01l-2.72.87-.11.03c-.11,0-.19-.08-.22-.25l-.11-1.6c0-.15.07-.26.2-.34l2.94-1.43c.11-.06.23-.08.36-.08Z"/>
      <path class="cls-1" d="M581.33,489.41v1.88c0,.19-.09.28-.28.28h-1.04c-.07,0-.11.04-.11.11v4.84c0,.19-.09.28-.28.28h-2.13c-.19,0-.28-.09-.28-.28v-4.84c0-.07-.04-.11-.11-.11h-7.7c-.19,0-.28-.09-.28-.28v-1.54c0-.13.02-.24.06-.34l4.79-11.98c.06-.15.16-.22.31-.22h2.3c.09,0,.16.03.2.1.04.07.04.14,0,.24l-4.51,11.45s-.02.07,0,.1c.02.03.05.04.08.04h4.76c.07,0,.11-.04.11-.11v-3.98c0-.19.09-.28.28-.28h2.13c.19,0,.28.09.28.28v3.98c0,.08.04.11.11.11h1.04c.19,0,.28.09.28.28Z"/>
    </g>
  </g>
  <g id="wv_hall_3_15" data-name="3/15" class="ds-stand">
    <rect class="cls-3" x="549" y="510" width="44" height="34" rx="4" ry="4"/>
    <g>
      <path class="cls-1" d="M564.42,517.2h2.21c.19,0,.28.09.28.28v19.04c0,.19-.09.28-.28.28h-2.13c-.19,0-.28-.09-.28-.28v-16.41s-.01-.07-.04-.1c-.03-.03-.06-.03-.1-.01l-2.72.87-.11.03c-.11,0-.19-.08-.22-.25l-.11-1.6c0-.15.07-.26.2-.34l2.94-1.43c.11-.06.23-.08.36-.08Z"/>
      <path class="cls-1" d="M580.86,530.72c0,.97-.08,1.79-.25,2.46-.32,1.23-.92,2.18-1.81,2.84-.89.66-1.99.99-3.32.99s-2.43-.35-3.32-1.04c-.89-.69-1.48-1.66-1.78-2.91-.11-.48-.18-.86-.2-1.12v-.06c0-.15.08-.22.25-.22h2.16c.19,0,.29.09.31.28.04.3.07.5.11.59.15.69.44,1.22.87,1.58.43.36.96.55,1.6.55s1.17-.19,1.61-.56c.44-.37.73-.91.88-1.6.11-.43.17-1.02.17-1.76s-.07-1.38-.2-1.96c-.15-.63-.44-1.12-.87-1.44-.43-.33-.96-.49-1.6-.49s-1.14.14-1.58.42c-.44.28-.75.7-.94,1.26-.04.15-.14.22-.31.22h-2.18c-.19,0-.28-.09-.28-.28v-11c0-.19.09-.28.28-.28h9.55c.19,0,.28.09.28.28v1.76c0,.19-.09.28-.28.28h-7.03c-.07,0-.11.04-.11.11l-.03,5.96c0,.09.05.11.14.06.37-.37.83-.66,1.36-.85.53-.2,1.1-.29,1.69-.29,1.1,0,2.03.27,2.8.8.77.53,1.3,1.3,1.6,2.31.28.92.42,1.95.42,3.11Z"/>
    </g>
  </g>
  <g id="wv_hall_3_16" data-name="3/16" class="ds-stand">
    <rect class="cls-3" x="619" y="470" width="44" height="74" rx="4" ry="4"/>
    <g>
      <path class="cls-1" d="M634.41,497.2h2.21c.19,0,.28.09.28.28v19.04c0,.19-.09.28-.28.28h-2.13c-.19,0-.28-.09-.28-.28v-16.41s-.01-.07-.04-.1c-.03-.03-.06-.03-.1-.01l-2.72.87-.11.03c-.11,0-.19-.08-.22-.25l-.11-1.6c0-.15.07-.26.2-.34l2.94-1.43c.11-.06.23-.08.36-.08Z"/>
      <path class="cls-1" d="M650.87,510.72c0,.95-.1,1.79-.31,2.52-.32,1.21-.91,2.15-1.76,2.8-.86.65-1.95.98-3.28.98-1.21,0-2.24-.29-3.08-.88-.84-.59-1.43-1.43-1.76-2.53-.34-.75-.5-1.68-.5-2.8l-.03-8.88c0-1.49.49-2.69,1.46-3.6.97-.91,2.25-1.36,3.84-1.36,1.49,0,2.71.45,3.65,1.34.94.9,1.41,2.07,1.41,3.53v.59c0,.19-.09.28-.28.28h-2.13c-.19,0-.28-.09-.28-.28v-.39c0-.78-.23-1.43-.69-1.95-.46-.51-1.03-.77-1.72-.77-.75,0-1.36.26-1.83.77-.48.51-.71,1.19-.71,2.03v3.53s.01.07.04.08c.03.02.06,0,.1-.03.73-.84,1.7-1.26,2.91-1.26,1.14,0,2.09.3,2.84.9.76.6,1.31,1.42,1.67,2.46.3.84.45,1.81.45,2.91ZM648.15,510.67c0-.88-.09-1.59-.28-2.13-.17-.58-.46-1.03-.87-1.36-.41-.33-.91-.49-1.51-.49s-1.12.16-1.53.49c-.4.33-.69.79-.85,1.39-.17.52-.25,1.23-.25,2.13,0,.77.07,1.41.2,1.93.15.63.43,1.13.85,1.5.42.36.95.55,1.58.55s1.16-.18,1.58-.55c.42-.36.71-.89.88-1.58.13-.5.2-1.13.2-1.88Z"/>
    </g>
  </g>
  <g id="wv_hall_3_17" data-name="3/17" class="ds-stand">
    <rect class="cls-3" x="669" y="470" width="44" height="74" rx="4" ry="4"/>
    <g>
      <path class="cls-1" d="M684.98,497.2h2.21c.19,0,.28.09.28.28v19.04c0,.19-.09.28-.28.28h-2.13c-.19,0-.28-.09-.28-.28v-16.41s-.01-.07-.04-.1c-.03-.03-.06-.03-.1-.01l-2.72.87-.11.03c-.11,0-.19-.08-.22-.25l-.11-1.6c0-.15.07-.26.2-.34l2.94-1.43c.11-.06.23-.08.36-.08Z"/>
      <path class="cls-1" d="M692.48,516.49l5.54-16.83s.01-.07-.01-.1c-.03-.03-.06-.04-.1-.04h-5.6c-.07,0-.11.04-.11.11v1.2c0,.19-.09.28-.28.28h-1.65c-.19,0-.28-.09-.28-.28v-3.36c0-.19.09-.28.28-.28h10.33c.19,0,.28.09.28.28v1.88c0,.07-.02.19-.06.34l-5.52,16.88c-.06.15-.17.22-.34.22h-2.27c-.21,0-.28-.1-.22-.31Z"/>
    </g>
  </g>
  <g id="wv_hall_3_18" data-name="3/18" class="ds-stand">
    <rect class="cls-3" x="739" y="470" width="44" height="34" rx="4" ry="4"/>
    <g>
      <path class="cls-1" d="M754.32,477.2h2.21c.19,0,.28.09.28.28v19.04c0,.19-.09.28-.28.28h-2.13c-.19,0-.28-.09-.28-.28v-16.41s-.01-.07-.04-.1c-.03-.03-.06-.03-.1-.01l-2.72.87-.11.03c-.11,0-.19-.08-.22-.25l-.11-1.6c0-.15.07-.26.2-.34l2.94-1.43c.11-.06.23-.08.36-.08Z"/>
      <path class="cls-1" d="M770.65,491.26c0,1.16-.21,2.15-.62,2.97-.41.88-1.02,1.56-1.83,2.06-.81.5-1.77.74-2.87.74s-2.06-.25-2.88-.76c-.82-.5-1.44-1.21-1.85-2.13-.41-.88-.62-1.85-.62-2.91s.18-1.95.53-2.77c.37-.88.98-1.52,1.82-1.93.09-.06.09-.11,0-.17-.65-.39-1.16-.91-1.51-1.54-.47-.77-.7-1.67-.7-2.72s.21-1.92.64-2.69c.43-.78,1.05-1.4,1.85-1.85.8-.45,1.71-.67,2.72-.67s1.96.22,2.74.66c.78.44,1.38,1.06,1.79,1.86.45.8.67,1.7.67,2.69s-.23,1.91-.7,2.72c-.35.63-.86,1.15-1.51,1.54-.09.06-.1.1-.03.14.84.41,1.45,1.06,1.82,1.96.35.77.53,1.7.53,2.8ZM767.99,491.09c0-.75-.1-1.38-.31-1.9-.19-.54-.48-.96-.88-1.26-.4-.3-.89-.45-1.47-.45-1.18,0-1.96.55-2.35,1.65-.21.5-.31,1.16-.31,1.96s.13,1.52.39,2.04c.41,1.05,1.17,1.57,2.27,1.57s1.83-.51,2.24-1.54c.28-.56.42-1.25.42-2.07ZM762.78,482.3c0,.67.13,1.25.39,1.74.21.43.49.77.87,1.01.37.24.8.36,1.29.36s.94-.13,1.32-.38c.37-.25.66-.6.87-1.05.24-.47.36-1.04.36-1.71,0-.58-.11-1.09-.34-1.54-.19-.47-.47-.84-.85-1.11-.38-.27-.84-.41-1.39-.41-.5,0-.95.14-1.34.42-.39.28-.68.65-.87,1.12-.21.5-.31,1.02-.31,1.54Z"/>
    </g>
  </g>
  <g id="wv_hall_3_19" data-name="3/19" class="ds-stand">
    <rect class="cls-3" x="789" y="470" width="44" height="34" rx="4" ry="4"/>
    <g>
      <path class="cls-1" d="M804.53,477.2h2.21c.19,0,.28.09.28.28v19.04c0,.19-.09.28-.28.28h-2.13c-.19,0-.28-.09-.28-.28v-16.41s-.01-.07-.04-.1c-.03-.03-.06-.03-.1-.01l-2.72.87-.11.03c-.11,0-.19-.08-.22-.25l-.11-1.6c0-.15.07-.26.2-.34l2.94-1.43c.11-.06.23-.08.36-.08Z"/>
      <path class="cls-1" d="M820.38,483.19v8.88c0,1.51-.49,2.72-1.46,3.61-.97.9-2.24,1.34-3.81,1.34s-2.73-.45-3.67-1.34c-.93-.9-1.4-2.07-1.4-3.53v-.59c0-.19.09-.28.28-.28h2.13c.19,0,.28.09.28.28v.39c0,.8.22,1.46.67,1.96.45.5,1.02.76,1.71.76.77,0,1.39-.26,1.86-.77.48-.51.71-1.19.71-2.03v-3.56s-.01-.07-.04-.08c-.03-.02-.06,0-.1.03-.73.86-1.7,1.29-2.91,1.29-1.14,0-2.09-.3-2.86-.9-.77-.6-1.32-1.42-1.65-2.46-.3-.77-.45-1.74-.45-2.91,0-1.05.1-1.89.31-2.52.3-1.21.88-2.15,1.74-2.8.86-.65,1.95-.98,3.28-.98,1.21,0,2.24.29,3.08.88s1.43,1.43,1.76,2.53c.35.78.53,1.72.53,2.8ZM816.56,486.82c.4-.33.69-.79.85-1.39.19-.58.28-1.29.28-2.13,0-.77-.07-1.41-.2-1.93-.17-.65-.46-1.16-.88-1.51-.42-.35-.95-.53-1.58-.53s-1.14.18-1.57.55c-.43.36-.73.89-.9,1.58-.13.62-.2,1.24-.2,1.88,0,.8.09,1.51.28,2.13.39,1.23,1.19,1.85,2.38,1.85.62,0,1.12-.16,1.53-.49Z"/>
    </g>
  </g>
  <g id="wv_hall_3_20" data-name="3/20" class="ds-stand">
    <rect class="cls-3" x="739" y="510" width="44" height="34" rx="4" ry="4"/>
    <g>
      <path class="cls-1" d="M751.86,534.48h7.42c.19,0,.28.09.28.28v1.76c0,.19-.09.28-.28.28h-10.56c-.19,0-.28-.09-.28-.28v-1.79c0-.13.04-.24.11-.34,2.41-3.1,4.28-5.59,5.63-7.48,1.44-2,2.16-3.59,2.16-4.79,0-.86-.24-1.54-.73-2.06-.49-.51-1.13-.77-1.93-.77s-1.41.26-1.89.77c-.48.51-.7,1.19-.69,2.03v.98c0,.19-.09.28-.28.28h-2.16c-.19,0-.28-.09-.28-.28v-1.2c.04-1.47.56-2.66,1.55-3.56,1-.9,2.26-1.34,3.79-1.34,1.06,0,2,.22,2.8.66.8.44,1.42,1.05,1.86,1.83.44.78.66,1.67.66,2.66,0,1.66-.75,3.55-2.24,5.66-.86,1.21-2.26,3.05-4.2,5.52l-.81,1.04c-.06.09-.04.14.06.14Z"/>
      <path class="cls-1" d="M763.63,535.57c-1.02-1.01-1.53-2.36-1.53-4.06v-9.02c0-1.68.51-3.02,1.53-4.03,1.02-1.01,2.38-1.51,4.07-1.51s3.06.5,4.09,1.51c1.03,1.01,1.54,2.35,1.54,4.03v9.02c0,1.7-.51,3.05-1.54,4.06-1.03,1.01-2.39,1.51-4.09,1.51s-3.06-.5-4.07-1.51ZM769.83,533.9c.54-.57.81-1.32.81-2.25v-9.27c0-.93-.27-1.68-.81-2.25-.54-.57-1.25-.85-2.13-.85s-1.58.28-2.11.85-.8,1.32-.8,2.25v9.27c0,.93.27,1.68.8,2.25s1.24.85,2.11.85,1.59-.28,2.13-.85Z"/>
    </g>
  </g>
  <g id="wv_hall_3_21" data-name="3/21" class="ds-stand">
    <rect class="cls-3" x="789" y="510" width="44" height="34" rx="4" ry="4"/>
    <rect class="cls-3" x="789" y="510" width="44" height="34" rx="4" ry="4"/>
    <g>
      <path class="cls-1" d="M804.9,534.48h7.42c.19,0,.28.09.28.28v1.76c0,.19-.09.28-.28.28h-10.56c-.19,0-.28-.09-.28-.28v-1.79c0-.13.04-.24.11-.34,2.41-3.1,4.28-5.59,5.63-7.48,1.44-2,2.16-3.59,2.16-4.79,0-.86-.24-1.54-.73-2.06-.49-.51-1.13-.77-1.93-.77s-1.41.26-1.89.77c-.48.51-.7,1.19-.69,2.03v.98c0,.19-.09.28-.28.28h-2.16c-.19,0-.28-.09-.28-.28v-1.2c.04-1.47.56-2.66,1.55-3.56,1-.9,2.26-1.34,3.79-1.34,1.06,0,2,.22,2.8.66.8.44,1.42,1.05,1.86,1.83.44.78.66,1.67.66,2.66,0,1.66-.75,3.55-2.24,5.66-.86,1.21-2.26,3.05-4.2,5.52l-.81,1.04c-.06.09-.04.14.06.14Z"/>
      <path class="cls-1" d="M817.47,517.2h2.21c.19,0,.28.09.28.28v19.04c0,.19-.09.28-.28.28h-2.13c-.19,0-.28-.09-.28-.28v-16.41s-.01-.07-.04-.1c-.03-.03-.06-.03-.1-.01l-2.72.87-.11.03c-.11,0-.19-.08-.22-.25l-.11-1.6c0-.15.07-.26.2-.34l2.94-1.43c.11-.06.23-.08.36-.08Z"/>
    </g>
  </g>
  <g id="wv_hall_3_22" data-name="3/22" class="ds-stand">
    <rect class="cls-3" x="859" y="470" width="44" height="74" rx="4" ry="4"/>
    <rect class="cls-3" x="859" y="470" width="44" height="74" rx="4" ry="4"/>
    <g>
      <path class="cls-1" d="M872.24,514.47h7.42c.19,0,.28.09.28.28v1.76c0,.19-.09.28-.28.28h-10.56c-.19,0-.28-.09-.28-.28v-1.79c0-.13.04-.24.11-.34,2.41-3.1,4.28-5.59,5.63-7.48,1.44-2,2.16-3.59,2.16-4.79,0-.86-.24-1.54-.73-2.06-.49-.51-1.13-.77-1.93-.77s-1.41.26-1.89.77c-.48.51-.7,1.19-.69,2.03v.98c0,.19-.09.28-.28.28h-2.16c-.19,0-.28-.09-.28-.28v-1.2c.04-1.47.56-2.66,1.55-3.56,1-.9,2.26-1.34,3.79-1.34,1.06,0,2,.22,2.8.66.8.44,1.42,1.05,1.86,1.83.44.78.66,1.67.66,2.66,0,1.66-.75,3.55-2.24,5.66-.86,1.21-2.26,3.05-4.2,5.52l-.81,1.04c-.06.09-.04.14.06.14Z"/>
      <path class="cls-1" d="M885.68,514.47h7.42c.19,0,.28.09.28.28v1.76c0,.19-.09.28-.28.28h-10.56c-.19,0-.28-.09-.28-.28v-1.79c0-.13.04-.24.11-.34,2.41-3.1,4.28-5.59,5.63-7.48,1.44-2,2.16-3.59,2.16-4.79,0-.86-.24-1.54-.73-2.06-.49-.51-1.13-.77-1.93-.77s-1.41.26-1.89.77c-.48.51-.7,1.19-.69,2.03v.98c0,.19-.09.28-.28.28h-2.16c-.19,0-.28-.09-.28-.28v-1.2c.04-1.47.56-2.66,1.55-3.56,1-.9,2.26-1.34,3.79-1.34,1.06,0,2,.22,2.8.66.8.44,1.42,1.05,1.86,1.83.44.78.66,1.67.66,2.66,0,1.66-.75,3.55-2.24,5.66-.86,1.21-2.26,3.05-4.2,5.52l-.81,1.04c-.06.09-.04.14.06.14Z"/>
    </g>
  </g>
  <g id="wv_hall_3_23" data-name="3/23" class="ds-stand">
    <rect class="cls-3" x="909" y="470" width="44" height="74" rx="4" ry="4"/>
    <rect class="cls-3" x="909" y="470" width="44" height="74" rx="4" ry="4"/>
    <g>
      <path class="cls-1" d="M922.42,514.47h7.42c.19,0,.28.09.28.28v1.76c0,.19-.09.28-.28.28h-10.56c-.19,0-.28-.09-.28-.28v-1.79c0-.13.04-.24.11-.34,2.41-3.1,4.28-5.59,5.63-7.48,1.44-2,2.16-3.59,2.16-4.79,0-.86-.24-1.54-.73-2.06-.49-.51-1.13-.77-1.93-.77s-1.41.26-1.89.77c-.48.51-.7,1.19-.69,2.03v.98c0,.19-.09.28-.28.28h-2.16c-.19,0-.28-.09-.28-.28v-1.2c.04-1.47.56-2.66,1.55-3.56,1-.9,2.26-1.34,3.79-1.34,1.06,0,2,.22,2.8.66.8.44,1.42,1.05,1.86,1.83.44.78.66,1.67.66,2.66,0,1.66-.75,3.55-2.24,5.66-.86,1.21-2.26,3.05-4.2,5.52l-.81,1.04c-.06.09-.04.14.06.14Z"/>
      <path class="cls-1" d="M942.83,510.72c0,1.16-.18,2.19-.53,3.11-.39,1.05-.99,1.84-1.79,2.38-.8.54-1.8.81-3,.81-1.36,0-2.5-.36-3.42-1.08-.91-.72-1.49-1.68-1.74-2.9-.11-.56-.19-1.24-.22-2.04,0-.19.09-.28.28-.28h2.13c.19,0,.28.09.28.28.04.62.09,1.12.17,1.51.15.69.44,1.23.87,1.61.43.38.98.57,1.65.57.62,0,1.13-.16,1.54-.49.41-.33.71-.81.9-1.44.17-.62.25-1.36.25-2.24,0-1.01-.12-1.84-.36-2.49-.21-.58-.5-1.02-.9-1.32-.39-.3-.88-.45-1.46-.45-.28,0-.58.08-.9.25-.07.04-.13.06-.17.06-.07,0-.15-.04-.22-.11l-1.09-1.18c-.06-.06-.08-.12-.08-.2s.03-.14.08-.2l4.26-5.24s.05-.07.03-.1c-.02-.03-.05-.04-.08-.04h-6.66c-.19,0-.28-.09-.28-.28v-1.76c0-.19.09-.28.28-.28h9.83c.19,0,.28.09.28.28v1.85c0,.13-.04.24-.11.34l-3.95,4.96s-.05.07-.03.1c.02.03.05.04.08.04.84.07,1.56.34,2.16.8.6.46,1.05,1.08,1.37,1.86.37.91.56,2.02.56,3.3Z"/>
    </g>
  </g>
  <g id="wv_hall_3_24" data-name="3/24" class="ds-stand">
    <rect class="cls-3" x="419" y="570" width="74" height="74" rx="4" ry="4"/>
    <rect class="cls-3" x="419" y="570" width="74" height="74" rx="4" ry="4"/>
    <g>
      <path class="cls-1" d="M446.89,614.47h7.42c.19,0,.28.09.28.28v1.76c0,.19-.09.28-.28.28h-10.56c-.19,0-.28-.09-.28-.28v-1.79c0-.13.04-.24.11-.34,2.41-3.1,4.28-5.59,5.63-7.48,1.44-2,2.16-3.59,2.16-4.79,0-.86-.24-1.54-.73-2.06-.49-.51-1.13-.77-1.93-.77s-1.41.26-1.89.77c-.48.51-.7,1.19-.69,2.03v.98c0,.19-.09.28-.28.28h-2.16c-.19,0-.28-.09-.28-.28v-1.2c.04-1.47.56-2.66,1.55-3.56,1-.9,2.26-1.34,3.79-1.34,1.06,0,2,.22,2.8.66.8.44,1.42,1.05,1.86,1.83.44.78.66,1.67.66,2.66,0,1.66-.75,3.55-2.24,5.66-.86,1.21-2.26,3.05-4.2,5.52l-.81,1.04c-.06.09-.04.14.06.14Z"/>
      <path class="cls-1" d="M468.73,609.41v1.88c0,.19-.09.28-.28.28h-1.04c-.07,0-.11.04-.11.11v4.84c0,.19-.09.28-.28.28h-2.13c-.19,0-.28-.09-.28-.28v-4.84c0-.07-.04-.11-.11-.11h-7.7c-.19,0-.28-.09-.28-.28v-1.54c0-.13.02-.24.06-.34l4.79-11.98c.06-.15.16-.22.31-.22h2.3c.09,0,.16.03.2.1.04.07.04.14,0,.24l-4.51,11.45s-.02.07,0,.1c.02.03.05.04.08.04h4.76c.07,0,.11-.04.11-.11v-3.98c0-.19.09-.28.28-.28h2.13c.19,0,.28.09.28.28v3.98c0,.08.04.11.11.11h1.04c.19,0,.28.09.28.28Z"/>
    </g>
  </g>
  <g id="wv_hall_3_25" data-name="3/25" class="ds-stand">
    <rect class="cls-3" x="519" y="570" width="74" height="74" rx="4" ry="4"/>
    <rect class="cls-3" x="519" y="570" width="74" height="74" rx="4" ry="4"/>
    <g>
      <path class="cls-1" d="M547.36,614.47h7.42c.19,0,.28.09.28.28v1.76c0,.19-.09.28-.28.28h-10.56c-.19,0-.28-.09-.28-.28v-1.79c0-.13.04-.24.11-.34,2.41-3.1,4.28-5.59,5.63-7.48,1.44-2,2.16-3.59,2.16-4.79,0-.86-.24-1.54-.73-2.06-.49-.51-1.13-.77-1.93-.77s-1.41.26-1.89.77c-.48.51-.7,1.19-.69,2.03v.98c0,.19-.09.28-.28.28h-2.16c-.19,0-.28-.09-.28-.28v-1.2c.04-1.47.56-2.66,1.55-3.56,1-.9,2.26-1.34,3.79-1.34,1.06,0,2,.22,2.8.66.8.44,1.42,1.05,1.86,1.83.44.78.66,1.67.66,2.66,0,1.66-.75,3.55-2.24,5.66-.86,1.21-2.26,3.05-4.2,5.52l-.81,1.04c-.06.09-.04.14.06.14Z"/>
      <path class="cls-1" d="M568.25,610.72c0,.97-.08,1.79-.25,2.46-.32,1.23-.92,2.18-1.81,2.84-.89.66-1.99.99-3.32.99s-2.43-.35-3.32-1.04c-.89-.69-1.48-1.66-1.78-2.91-.11-.48-.18-.86-.2-1.12v-.06c0-.15.08-.22.25-.22h2.16c.19,0,.29.09.31.28.04.3.07.5.11.59.15.69.44,1.22.87,1.58.43.36.96.55,1.6.55s1.17-.19,1.61-.56c.44-.37.73-.91.88-1.6.11-.43.17-1.02.17-1.76s-.07-1.38-.2-1.96c-.15-.63-.44-1.12-.87-1.44-.43-.33-.96-.49-1.6-.49s-1.14.14-1.58.42c-.44.28-.75.7-.94,1.26-.04.15-.14.22-.31.22h-2.18c-.19,0-.28-.09-.28-.28v-11c0-.19.09-.28.28-.28h9.55c.19,0,.28.09.28.28v1.76c0,.19-.09.28-.28.28h-7.03c-.07,0-.11.04-.11.11l-.03,5.96c0,.09.05.11.14.06.37-.37.83-.66,1.36-.85.53-.2,1.1-.29,1.69-.29,1.1,0,2.03.27,2.8.8.77.53,1.3,1.3,1.6,2.31.28.92.42,1.95.42,3.11Z"/>
    </g>
  </g>
  <g id="wv_hall_3_26" data-name="3/26" class="ds-stand">
    <rect class="cls-3" x="619" y="570" width="44" height="34" rx="4" ry="4"/>
    <rect class="cls-3" x="619" y="570" width="44" height="34" rx="4" ry="4"/>
    <g>
      <path class="cls-1" d="M632.35,594.47h7.42c.19,0,.28.09.28.28v1.76c0,.19-.09.28-.28.28h-10.56c-.19,0-.28-.09-.28-.28v-1.79c0-.13.04-.24.11-.34,2.41-3.1,4.28-5.59,5.63-7.48,1.44-2,2.16-3.59,2.16-4.79,0-.86-.24-1.54-.73-2.06-.49-.51-1.13-.77-1.93-.77s-1.41.26-1.89.77c-.48.51-.7,1.19-.69,2.03v.98c0,.19-.09.28-.28.28h-2.16c-.19,0-.28-.09-.28-.28v-1.2c.04-1.47.56-2.66,1.55-3.56,1-.9,2.26-1.34,3.79-1.34,1.06,0,2,.22,2.8.66.8.44,1.42,1.05,1.86,1.83.44.78.66,1.67.66,2.66,0,1.66-.75,3.55-2.24,5.66-.86,1.21-2.26,3.05-4.2,5.52l-.81,1.04c-.06.09-.04.14.06.14Z"/>
      <path class="cls-1" d="M653.26,590.72c0,.95-.1,1.79-.31,2.52-.32,1.21-.91,2.15-1.76,2.8-.86.65-1.95.98-3.28.98-1.21,0-2.24-.29-3.08-.88-.84-.59-1.43-1.43-1.76-2.53-.34-.75-.5-1.68-.5-2.8l-.03-8.88c0-1.49.49-2.69,1.46-3.6.97-.91,2.25-1.36,3.84-1.36,1.49,0,2.71.45,3.65,1.34.94.9,1.41,2.07,1.41,3.53v.59c0,.19-.09.28-.28.28h-2.13c-.19,0-.28-.09-.28-.28v-.39c0-.78-.23-1.43-.69-1.95-.46-.51-1.03-.77-1.72-.77-.75,0-1.36.26-1.83.77-.48.51-.71,1.19-.71,2.03v3.53s.01.07.04.08c.03.02.06,0,.1-.03.73-.84,1.7-1.26,2.91-1.26,1.14,0,2.09.3,2.84.9.76.6,1.31,1.42,1.67,2.46.3.84.45,1.81.45,2.91ZM650.55,590.67c0-.88-.09-1.59-.28-2.13-.17-.58-.46-1.03-.87-1.36-.41-.33-.91-.49-1.51-.49s-1.12.16-1.53.49c-.4.33-.69.79-.85,1.39-.17.52-.25,1.23-.25,2.13,0,.77.07,1.41.2,1.93.15.63.43,1.13.85,1.5.42.36.95.55,1.58.55s1.16-.18,1.58-.55c.42-.36.71-.89.88-1.58.13-.5.2-1.13.2-1.88Z"/>
    </g>
  </g>
  <g id="wv_hall_3_27" data-name="3/27" class="ds-stand">
    <rect class="cls-3" x="669" y="570" width="44" height="34" rx="4" ry="4"/>
    <rect class="cls-3" x="669" y="570" width="44" height="34" rx="4" ry="4"/>
    <g>
      <path class="cls-1" d="M682.92,594.47h7.42c.19,0,.28.09.28.28v1.76c0,.19-.09.28-.28.28h-10.56c-.19,0-.28-.09-.28-.28v-1.79c0-.13.04-.24.11-.34,2.41-3.1,4.28-5.59,5.63-7.48,1.44-2,2.16-3.59,2.16-4.79,0-.86-.24-1.54-.73-2.06-.49-.51-1.13-.77-1.93-.77s-1.41.26-1.89.77c-.48.51-.7,1.19-.69,2.03v.98c0,.19-.09.28-.28.28h-2.16c-.19,0-.28-.09-.28-.28v-1.2c.04-1.47.56-2.66,1.55-3.56,1-.9,2.26-1.34,3.79-1.34,1.06,0,2,.22,2.8.66.8.44,1.42,1.05,1.86,1.83.44.78.66,1.67.66,2.66,0,1.66-.75,3.55-2.24,5.66-.86,1.21-2.26,3.05-4.2,5.52l-.81,1.04c-.06.09-.04.14.06.14Z"/>
      <path class="cls-1" d="M694.88,596.49l5.54-16.83s.01-.07-.01-.1c-.03-.03-.06-.04-.1-.04h-5.6c-.07,0-.11.04-.11.11v1.2c0,.19-.09.28-.28.28h-1.65c-.19,0-.28-.09-.28-.28v-3.36c0-.19.09-.28.28-.28h10.33c.19,0,.28.09.28.28v1.88c0,.07-.02.19-.06.34l-5.52,16.88c-.06.15-.17.22-.34.22h-2.27c-.21,0-.28-.1-.22-.31Z"/>
    </g>
  </g>
  <g id="wv_hall_3_28" data-name="3/28" class="ds-stand">
    <rect class="cls-3" x="619" y="610" width="44" height="34" rx="4" ry="4"/>
    <rect class="cls-3" x="619" y="610" width="44" height="34" rx="4" ry="4"/>
    <g>
      <path class="cls-1" d="M632.26,634.48h7.42c.19,0,.28.09.28.28v1.76c0,.19-.09.28-.28.28h-10.56c-.19,0-.28-.09-.28-.28v-1.79c0-.13.04-.24.11-.34,2.41-3.1,4.28-5.59,5.63-7.48,1.44-2,2.16-3.59,2.16-4.79,0-.86-.24-1.54-.73-2.06-.49-.51-1.13-.77-1.93-.77s-1.41.26-1.89.77c-.48.51-.7,1.19-.69,2.03v.98c0,.19-.09.28-.28.28h-2.16c-.19,0-.28-.09-.28-.28v-1.2c.04-1.47.56-2.66,1.55-3.56,1-.9,2.26-1.34,3.79-1.34,1.06,0,2,.22,2.8.66.8.44,1.42,1.05,1.86,1.83.44.78.66,1.67.66,2.66,0,1.66-.75,3.55-2.24,5.66-.86,1.21-2.26,3.05-4.2,5.52l-.81,1.04c-.06.09-.04.14.06.14Z"/>
      <path class="cls-1" d="M653.04,631.26c0,1.16-.21,2.15-.62,2.97-.41.88-1.02,1.56-1.83,2.06-.81.5-1.77.74-2.87.74s-2.06-.25-2.88-.76c-.82-.5-1.44-1.21-1.85-2.13-.41-.88-.62-1.85-.62-2.91s.18-1.95.53-2.77c.37-.88.98-1.52,1.82-1.93.09-.06.09-.11,0-.17-.65-.39-1.16-.91-1.51-1.54-.47-.77-.7-1.67-.7-2.72s.21-1.92.64-2.69c.43-.78,1.05-1.4,1.85-1.85.8-.45,1.71-.67,2.72-.67s1.96.22,2.74.66c.78.44,1.38,1.06,1.79,1.86.45.8.67,1.7.67,2.69s-.23,1.91-.7,2.72c-.35.63-.86,1.15-1.51,1.54-.09.06-.1.1-.03.14.84.41,1.45,1.06,1.82,1.96.35.77.53,1.7.53,2.8ZM650.38,631.09c0-.75-.1-1.38-.31-1.9-.19-.54-.48-.96-.88-1.26-.4-.3-.89-.45-1.47-.45-1.18,0-1.96.55-2.35,1.65-.21.5-.31,1.16-.31,1.96s.13,1.52.39,2.04c.41,1.05,1.17,1.57,2.27,1.57s1.83-.51,2.24-1.54c.28-.56.42-1.25.42-2.07ZM645.17,622.3c0,.67.13,1.25.39,1.74.21.43.49.77.87,1.01.37.24.8.36,1.29.36s.94-.13,1.32-.38c.37-.25.66-.6.87-1.05.24-.47.36-1.04.36-1.71,0-.58-.11-1.09-.34-1.54-.19-.47-.47-.84-.85-1.11-.38-.27-.84-.41-1.39-.41-.5,0-.95.14-1.34.42-.39.28-.68.65-.87,1.12-.21.5-.31,1.02-.31,1.54Z"/>
    </g>
  </g>
  <g id="wv_hall_3_29" data-name="3/29" class="ds-stand">
    <rect class="cls-3" x="669" y="610" width="44" height="34" rx="4" ry="4"/>
    <rect class="cls-3" x="669" y="610" width="44" height="34" rx="4" ry="4"/>
    <g>
      <path class="cls-1" d="M682.47,634.48h7.42c.19,0,.28.09.28.28v1.76c0,.19-.09.28-.28.28h-10.56c-.19,0-.28-.09-.28-.28v-1.79c0-.13.04-.24.11-.34,2.41-3.1,4.28-5.59,5.63-7.48,1.44-2,2.16-3.59,2.16-4.79,0-.86-.24-1.54-.73-2.06-.49-.51-1.13-.77-1.93-.77s-1.41.26-1.89.77c-.48.51-.7,1.19-.69,2.03v.98c0,.19-.09.28-.28.28h-2.16c-.19,0-.28-.09-.28-.28v-1.2c.04-1.47.56-2.66,1.55-3.56,1-.9,2.26-1.34,3.79-1.34,1.06,0,2,.22,2.8.66.8.44,1.42,1.05,1.86,1.83.44.78.66,1.67.66,2.66,0,1.66-.75,3.55-2.24,5.66-.86,1.21-2.26,3.05-4.2,5.52l-.81,1.04c-.06.09-.04.14.06.14Z"/>
      <path class="cls-1" d="M702.77,623.19v8.88c0,1.51-.49,2.72-1.46,3.61-.97.9-2.24,1.34-3.81,1.34s-2.73-.45-3.67-1.34c-.93-.9-1.4-2.07-1.4-3.53v-.59c0-.19.09-.28.28-.28h2.13c.19,0,.28.09.28.28v.39c0,.8.22,1.46.67,1.96.45.5,1.02.76,1.71.76.77,0,1.39-.26,1.86-.77.48-.51.71-1.19.71-2.03v-3.56s-.01-.07-.04-.08c-.03-.02-.06,0-.1.03-.73.86-1.7,1.29-2.91,1.29-1.14,0-2.09-.3-2.86-.9-.77-.6-1.32-1.42-1.65-2.46-.3-.77-.45-1.74-.45-2.91,0-1.05.1-1.89.31-2.52.3-1.21.88-2.15,1.74-2.8.86-.65,1.95-.98,3.28-.98,1.21,0,2.24.29,3.08.88s1.43,1.43,1.76,2.53c.35.78.53,1.72.53,2.8ZM698.95,626.82c.4-.33.69-.79.85-1.39.19-.58.28-1.29.28-2.13,0-.77-.07-1.41-.2-1.93-.17-.65-.46-1.16-.88-1.51-.42-.35-.95-.53-1.58-.53s-1.14.18-1.57.55c-.43.36-.73.89-.9,1.58-.13.62-.2,1.24-.2,1.88,0,.8.09,1.51.28,2.13.39,1.23,1.19,1.85,2.38,1.85.62,0,1.12-.16,1.53-.49Z"/>
    </g>
  </g>
  <g id="wv_hall_3_30" data-name="3/30" class="ds-stand">
    <rect class="cls-3" x="739" y="570" width="44" height="34" rx="4" ry="4"/>
    <rect class="cls-3" x="739" y="570" width="44" height="34" rx="4" ry="4"/>
    <g>
      <path class="cls-1" d="M759.07,590.72c0,1.16-.18,2.19-.53,3.11-.39,1.05-.99,1.84-1.79,2.38-.8.54-1.8.81-3,.81-1.36,0-2.5-.36-3.42-1.08-.91-.72-1.49-1.68-1.74-2.9-.11-.56-.19-1.24-.22-2.04,0-.19.09-.28.28-.28h2.13c.19,0,.28.09.28.28.04.62.09,1.12.17,1.51.15.69.44,1.23.87,1.61.43.38.98.57,1.65.57.62,0,1.13-.16,1.54-.49.41-.33.71-.81.9-1.44.17-.62.25-1.36.25-2.24,0-1.01-.12-1.84-.36-2.49-.21-.58-.5-1.02-.9-1.32-.39-.3-.88-.45-1.46-.45-.28,0-.58.08-.9.25-.07.04-.13.06-.17.06-.07,0-.15-.04-.22-.11l-1.09-1.18c-.06-.06-.08-.12-.08-.2s.03-.14.08-.2l4.26-5.24s.05-.07.03-.1c-.02-.03-.05-.04-.08-.04h-6.66c-.19,0-.28-.09-.28-.28v-1.76c0-.19.09-.28.28-.28h9.83c.19,0,.28.09.28.28v1.85c0,.13-.04.24-.11.34l-3.95,4.96s-.05.07-.03.1c.02.03.05.04.08.04.84.07,1.56.34,2.16.8.6.46,1.05,1.08,1.37,1.86.37.91.56,2.02.56,3.3Z"/>
      <path class="cls-1" d="M763.51,595.57c-1.02-1.01-1.53-2.36-1.53-4.06v-9.02c0-1.68.51-3.02,1.53-4.03,1.02-1.01,2.38-1.51,4.07-1.51s3.06.5,4.09,1.51c1.03,1.01,1.54,2.35,1.54,4.03v9.02c0,1.7-.51,3.05-1.54,4.06-1.03,1.01-2.39,1.51-4.09,1.51s-3.06-.5-4.07-1.51ZM769.71,593.9c.54-.57.81-1.32.81-2.25v-9.27c0-.93-.27-1.68-.81-2.25-.54-.57-1.25-.85-2.13-.85s-1.58.28-2.11.85-.8,1.32-.8,2.25v9.27c0,.93.27,1.68.8,2.25s1.24.85,2.11.85,1.59-.28,2.13-.85Z"/>
    </g>
  </g>
  <g id="wv_hall_3_31" data-name="3/31" class="ds-stand">
    <rect class="cls-3" x="789" y="570" width="44" height="34" rx="4" ry="4"/>
    <rect class="cls-3" x="789" y="570" width="44" height="34" rx="4" ry="4"/>
    <g>
      <path class="cls-1" d="M812.11,590.72c0,1.16-.18,2.19-.53,3.11-.39,1.05-.99,1.84-1.79,2.38-.8.54-1.8.81-3,.81-1.36,0-2.5-.36-3.42-1.08-.91-.72-1.49-1.68-1.74-2.9-.11-.56-.19-1.24-.22-2.04,0-.19.09-.28.28-.28h2.13c.19,0,.28.09.28.28.04.62.09,1.12.17,1.51.15.69.44,1.23.87,1.61.43.38.98.57,1.65.57.62,0,1.13-.16,1.54-.49.41-.33.71-.81.9-1.44.17-.62.25-1.36.25-2.24,0-1.01-.12-1.84-.36-2.49-.21-.58-.5-1.02-.9-1.32-.39-.3-.88-.45-1.46-.45-.28,0-.58.08-.9.25-.07.04-.13.06-.17.06-.07,0-.15-.04-.22-.11l-1.09-1.18c-.06-.06-.08-.12-.08-.2s.03-.14.08-.2l4.26-5.24s.05-.07.03-.1c-.02-.03-.05-.04-.08-.04h-6.66c-.19,0-.28-.09-.28-.28v-1.76c0-.19.09-.28.28-.28h9.83c.19,0,.28.09.28.28v1.85c0,.13-.04.24-.11.34l-3.95,4.96s-.05.07-.03.1c.02.03.05.04.08.04.84.07,1.56.34,2.16.8.6.46,1.05,1.08,1.37,1.86.37.91.56,2.02.56,3.3Z"/>
      <path class="cls-1" d="M817.34,577.2h2.21c.19,0,.28.09.28.28v19.04c0,.19-.09.28-.28.28h-2.13c-.19,0-.28-.09-.28-.28v-16.41s-.01-.07-.04-.1c-.03-.03-.06-.03-.1-.01l-2.72.87-.11.03c-.11,0-.19-.08-.22-.25l-.11-1.6c0-.15.07-.26.2-.34l2.94-1.43c.11-.06.23-.08.36-.08Z"/>
    </g>
  </g>
  <g id="wv_hall_3_32" data-name="3/32" class="ds-stand">
    <rect class="cls-3" x="739" y="610" width="44" height="34" rx="4" ry="4"/>
    <rect class="cls-3" x="739" y="610" width="44" height="34" rx="4" ry="4"/>
    <g>
      <path class="cls-1" d="M759.45,630.72c0,1.16-.18,2.19-.53,3.11-.39,1.05-.99,1.84-1.79,2.38-.8.54-1.8.81-3,.81-1.36,0-2.5-.36-3.42-1.08-.91-.72-1.49-1.68-1.74-2.9-.11-.56-.19-1.24-.22-2.04,0-.19.09-.28.28-.28h2.13c.19,0,.28.09.28.28.04.62.09,1.12.17,1.51.15.69.44,1.23.87,1.61.43.38.98.57,1.65.57.62,0,1.13-.16,1.54-.49.41-.33.71-.81.9-1.44.17-.62.25-1.36.25-2.24,0-1.01-.12-1.84-.36-2.49-.21-.58-.5-1.02-.9-1.32-.39-.3-.88-.45-1.46-.45-.28,0-.58.08-.9.25-.07.04-.13.06-.17.06-.07,0-.15-.04-.22-.11l-1.09-1.18c-.06-.06-.08-.12-.08-.2s.03-.14.08-.2l4.26-5.24s.05-.07.03-.1c-.02-.03-.05-.04-.08-.04h-6.66c-.19,0-.28-.09-.28-.28v-1.76c0-.19.09-.28.28-.28h9.83c.19,0,.28.09.28.28v1.85c0,.13-.04.24-.11.34l-3.95,4.96s-.05.07-.03.1c.02.03.05.04.08.04.84.07,1.56.34,2.16.8.6.46,1.05,1.08,1.37,1.86.37.91.56,2.02.56,3.3Z"/>
      <path class="cls-1" d="M765.55,634.48h7.42c.19,0,.28.09.28.28v1.76c0,.19-.09.28-.28.28h-10.56c-.19,0-.28-.09-.28-.28v-1.79c0-.13.04-.24.11-.34,2.41-3.1,4.28-5.59,5.63-7.48,1.44-2,2.16-3.59,2.16-4.79,0-.86-.24-1.54-.73-2.06-.49-.51-1.13-.77-1.93-.77s-1.41.26-1.89.77c-.48.51-.7,1.19-.69,2.03v.98c0,.19-.09.28-.28.28h-2.16c-.19,0-.28-.09-.28-.28v-1.2c.04-1.47.56-2.66,1.55-3.56,1-.9,2.26-1.34,3.79-1.34,1.06,0,2,.22,2.8.66.8.44,1.42,1.05,1.86,1.83.44.78.66,1.67.66,2.66,0,1.66-.75,3.55-2.24,5.66-.86,1.21-2.26,3.05-4.2,5.52l-.81,1.04c-.06.09-.04.14.06.14Z"/>
    </g>
  </g>
  <g id="wv_hall_3_33" data-name="3/33" class="ds-stand">
    <rect class="cls-3" x="789" y="610" width="44" height="34" rx="4" ry="4"/>
    <rect class="cls-3" x="789" y="610" width="44" height="34" rx="4" ry="4"/>
    <g>
      <path class="cls-1" d="M809.57,630.72c0,1.16-.18,2.19-.53,3.11-.39,1.05-.99,1.84-1.79,2.38-.8.54-1.8.81-3,.81-1.36,0-2.5-.36-3.42-1.08-.91-.72-1.49-1.68-1.74-2.9-.11-.56-.19-1.24-.22-2.04,0-.19.09-.28.28-.28h2.13c.19,0,.28.09.28.28.04.62.09,1.12.17,1.51.15.69.44,1.23.87,1.61.43.38.98.57,1.65.57.62,0,1.13-.16,1.54-.49.41-.33.71-.81.9-1.44.17-.62.25-1.36.25-2.24,0-1.01-.12-1.84-.36-2.49-.21-.58-.5-1.02-.9-1.32-.39-.3-.88-.45-1.46-.45-.28,0-.58.08-.9.25-.07.04-.13.06-.17.06-.07,0-.15-.04-.22-.11l-1.09-1.18c-.06-.06-.08-.12-.08-.2s.03-.14.08-.2l4.26-5.24s.05-.07.03-.1c-.02-.03-.05-.04-.08-.04h-6.66c-.19,0-.28-.09-.28-.28v-1.76c0-.19.09-.28.28-.28h9.83c.19,0,.28.09.28.28v1.85c0,.13-.04.24-.11.34l-3.95,4.96s-.05.07-.03.1c.02.03.05.04.08.04.84.07,1.56.34,2.16.8.6.46,1.05,1.08,1.37,1.86.37.91.56,2.02.56,3.3Z"/>
      <path class="cls-1" d="M822.76,630.72c0,1.16-.18,2.19-.53,3.11-.39,1.05-.99,1.84-1.79,2.38-.8.54-1.8.81-3,.81-1.36,0-2.5-.36-3.42-1.08-.91-.72-1.49-1.68-1.74-2.9-.11-.56-.19-1.24-.22-2.04,0-.19.09-.28.28-.28h2.13c.19,0,.28.09.28.28.04.62.09,1.12.17,1.51.15.69.44,1.23.87,1.61.43.38.98.57,1.65.57.62,0,1.13-.16,1.54-.49.41-.33.71-.81.9-1.44.17-.62.25-1.36.25-2.24,0-1.01-.12-1.84-.36-2.49-.21-.58-.5-1.02-.9-1.32-.39-.3-.88-.45-1.46-.45-.28,0-.58.08-.9.25-.07.04-.13.06-.17.06-.07,0-.15-.04-.22-.11l-1.09-1.18c-.06-.06-.08-.12-.08-.2s.03-.14.08-.2l4.26-5.24s.05-.07.03-.1c-.02-.03-.05-.04-.08-.04h-6.66c-.19,0-.28-.09-.28-.28v-1.76c0-.19.09-.28.28-.28h9.83c.19,0,.28.09.28.28v1.85c0,.13-.04.24-.11.34l-3.95,4.96s-.05.07-.03.1c.02.03.05.04.08.04.84.07,1.56.34,2.16.8.6.46,1.05,1.08,1.37,1.86.37.91.56,2.02.56,3.3Z"/>
    </g>
  </g>
  <g id="wv_hall_3_34" data-name="3/34" class="ds-stand">
    <rect class="cls-3" x="859" y="570" width="44" height="74" rx="4" ry="4"/>
    <rect class="cls-3" x="859" y="570" width="44" height="74" rx="4" ry="4"/>
    <g>
      <path class="cls-1" d="M879.1,610.72c0,1.16-.18,2.19-.53,3.11-.39,1.05-.99,1.84-1.79,2.38-.8.54-1.8.81-3,.81-1.36,0-2.5-.36-3.42-1.08-.91-.72-1.49-1.68-1.74-2.9-.11-.56-.19-1.24-.22-2.04,0-.19.09-.28.28-.28h2.13c.19,0,.28.09.28.28.04.62.09,1.12.17,1.51.15.69.44,1.23.87,1.61.43.38.98.57,1.65.57.62,0,1.13-.16,1.54-.49.41-.33.71-.81.9-1.44.17-.62.25-1.36.25-2.24,0-1.01-.12-1.84-.36-2.49-.21-.58-.5-1.02-.9-1.32-.39-.3-.88-.45-1.46-.45-.28,0-.58.08-.9.25-.07.04-.13.06-.17.06-.07,0-.15-.04-.22-.11l-1.09-1.18c-.06-.06-.08-.12-.08-.2s.03-.14.08-.2l4.26-5.24s.05-.07.03-.1c-.02-.03-.05-.04-.08-.04h-6.66c-.19,0-.28-.09-.28-.28v-1.76c0-.19.09-.28.28-.28h9.83c.19,0,.28.09.28.28v1.85c0,.13-.04.24-.11.34l-3.95,4.96s-.05.07-.03.1c.02.03.05.04.08.04.84.07,1.56.34,2.16.8.6.46,1.05,1.08,1.37,1.86.37.91.56,2.02.56,3.3Z"/>
      <path class="cls-1" d="M893.6,609.41v1.88c0,.19-.09.28-.28.28h-1.04c-.07,0-.11.04-.11.11v4.84c0,.19-.09.28-.28.28h-2.13c-.19,0-.28-.09-.28-.28v-4.84c0-.07-.04-.11-.11-.11h-7.7c-.19,0-.28-.09-.28-.28v-1.54c0-.13.02-.24.06-.34l4.79-11.98c.06-.15.16-.22.31-.22h2.3c.09,0,.16.03.2.1.04.07.04.14,0,.24l-4.51,11.45s-.02.07,0,.1c.02.03.05.04.08.04h4.76c.07,0,.11-.04.11-.11v-3.98c0-.19.09-.28.28-.28h2.13c.19,0,.28.09.28.28v3.98c0,.08.04.11.11.11h1.04c.19,0,.28.09.28.28Z"/>
    </g>
  </g>
  <g id="wv_hall_3_35" data-name="3/35" class="ds-stand">
    <rect class="cls-3" x="929" y="570" width="74" height="44" rx="4" ry="4"/>
    <rect class="cls-3" x="929" y="570" width="74" height="44" rx="4" ry="4"/>
    <g>
      <path class="cls-1" d="M964.57,595.72c0,1.16-.18,2.19-.53,3.11-.39,1.05-.99,1.84-1.79,2.38-.8.54-1.8.81-3,.81-1.36,0-2.5-.36-3.42-1.08-.91-.72-1.49-1.68-1.74-2.9-.11-.56-.19-1.24-.22-2.04,0-.19.09-.28.28-.28h2.13c.19,0,.28.09.28.28.04.62.09,1.12.17,1.51.15.69.44,1.23.87,1.61.43.38.98.57,1.65.57.62,0,1.13-.16,1.54-.49.41-.33.71-.81.9-1.44.17-.62.25-1.36.25-2.24,0-1.01-.12-1.84-.36-2.49-.21-.58-.5-1.02-.9-1.32-.39-.3-.88-.45-1.46-.45-.28,0-.58.08-.9.25-.07.04-.13.06-.17.06-.07,0-.15-.04-.22-.11l-1.09-1.18c-.06-.06-.08-.12-.08-.2s.03-.14.08-.2l4.26-5.24s.05-.07.03-.1c-.02-.03-.05-.04-.08-.04h-6.66c-.19,0-.28-.09-.28-.28v-1.76c0-.19.09-.28.28-.28h9.83c.19,0,.28.09.28.28v1.85c0,.13-.04.24-.11.34l-3.95,4.96s-.05.07-.03.1c.02.03.05.04.08.04.84.07,1.56.34,2.16.8.6.46,1.05,1.08,1.37,1.86.37.91.56,2.02.56,3.3Z"/>
      <path class="cls-1" d="M978.12,595.72c0,.97-.08,1.79-.25,2.46-.32,1.23-.92,2.18-1.81,2.84-.89.66-1.99.99-3.32.99s-2.43-.35-3.32-1.04c-.89-.69-1.48-1.66-1.78-2.91-.11-.48-.18-.86-.2-1.12v-.06c0-.15.08-.22.25-.22h2.16c.19,0,.29.09.31.28.04.3.07.5.11.59.15.69.44,1.22.87,1.58.43.36.96.55,1.6.55s1.17-.19,1.61-.56c.44-.37.73-.91.88-1.6.11-.43.17-1.02.17-1.76s-.07-1.38-.2-1.96c-.15-.63-.44-1.12-.87-1.44-.43-.33-.96-.49-1.6-.49s-1.14.14-1.58.42c-.44.28-.75.7-.94,1.26-.04.15-.14.22-.31.22h-2.18c-.19,0-.28-.09-.28-.28v-11c0-.19.09-.28.28-.28h9.55c.19,0,.28.09.28.28v1.76c0,.19-.09.28-.28.28h-7.03c-.07,0-.11.04-.11.11l-.03,5.96c0,.09.05.11.14.06.37-.37.83-.66,1.36-.85.53-.2,1.1-.29,1.69-.29,1.1,0,2.03.27,2.8.8.77.53,1.3,1.3,1.6,2.31.28.92.42,1.95.42,3.11Z"/>
    </g>
  </g>
  <g id="wv_hall_3_36" data-name="3/36" class="ds-stand">
    <rect class="cls-3" x="929" y="620" width="74" height="44" rx="4" ry="4"/>
    <rect class="cls-3" x="929" y="620" width="74" height="44" rx="4" ry="4"/>
    <g>
      <path class="cls-1" d="M964.56,645.72c0,1.16-.18,2.19-.53,3.11-.39,1.05-.99,1.84-1.79,2.38-.8.54-1.8.81-3,.81-1.36,0-2.5-.36-3.42-1.08-.91-.72-1.49-1.68-1.74-2.9-.11-.56-.19-1.24-.22-2.04,0-.19.09-.28.28-.28h2.13c.19,0,.28.09.28.28.04.62.09,1.12.17,1.51.15.69.44,1.23.87,1.61.43.38.98.57,1.65.57.62,0,1.13-.16,1.54-.49.41-.33.71-.81.9-1.44.17-.62.25-1.36.25-2.24,0-1.01-.12-1.84-.36-2.49-.21-.58-.5-1.02-.9-1.32-.39-.3-.88-.45-1.46-.45-.28,0-.58.08-.9.25-.07.04-.13.06-.17.06-.07,0-.15-.04-.22-.11l-1.09-1.18c-.06-.06-.08-.12-.08-.2s.03-.14.08-.2l4.26-5.24s.05-.07.03-.1c-.02-.03-.05-.04-.08-.04h-6.66c-.19,0-.28-.09-.28-.28v-1.76c0-.19.09-.28.28-.28h9.83c.19,0,.28.09.28.28v1.85c0,.13-.04.24-.11.34l-3.95,4.96s-.05.07-.03.1c.02.03.05.04.08.04.84.07,1.56.34,2.16.8.6.46,1.05,1.08,1.37,1.86.37.91.56,2.02.56,3.3Z"/>
      <path class="cls-1" d="M978.14,645.72c0,.95-.1,1.79-.31,2.52-.32,1.21-.91,2.15-1.76,2.8-.86.65-1.95.98-3.28.98-1.21,0-2.24-.29-3.08-.88-.84-.59-1.43-1.43-1.76-2.53-.34-.75-.5-1.68-.5-2.8l-.03-8.88c0-1.49.49-2.69,1.46-3.6.97-.91,2.25-1.36,3.84-1.36,1.49,0,2.71.45,3.65,1.34.94.9,1.41,2.07,1.41,3.53v.59c0,.19-.09.28-.28.28h-2.13c-.19,0-.28-.09-.28-.28v-.39c0-.78-.23-1.43-.69-1.95-.46-.51-1.03-.77-1.72-.77-.75,0-1.36.26-1.83.77-.48.51-.71,1.19-.71,2.03v3.53s.01.07.04.08c.03.02.06,0,.1-.03.73-.84,1.7-1.26,2.91-1.26,1.14,0,2.09.3,2.84.9.76.6,1.31,1.42,1.67,2.46.3.84.45,1.81.45,2.91ZM975.42,645.67c0-.88-.09-1.59-.28-2.13-.17-.58-.46-1.03-.87-1.36-.41-.33-.91-.49-1.51-.49s-1.12.16-1.53.49c-.4.33-.69.79-.85,1.39-.17.52-.25,1.23-.25,2.13,0,.77.07,1.41.2,1.93.15.63.43,1.13.85,1.5.42.36.95.55,1.58.55s1.16-.18,1.58-.55c.42-.36.71-.89.88-1.58.13-.5.2-1.13.2-1.88Z"/>
    </g>
  </g>
  <g id="wv_hall_3_37" data-name="3/37" class="ds-stand">
    <rect class="cls-3" x="519" y="680" width="44" height="74" rx="4" ry="4"/>
    <rect class="cls-3" x="519" y="680" width="44" height="74" rx="4" ry="4"/>
    <g>
      <path class="cls-1" d="M540.13,720.72c0,1.16-.18,2.19-.53,3.11-.39,1.05-.99,1.84-1.79,2.38-.8.54-1.8.81-3,.81-1.36,0-2.5-.36-3.42-1.08-.91-.72-1.49-1.68-1.74-2.9-.11-.56-.19-1.24-.22-2.04,0-.19.09-.28.28-.28h2.13c.19,0,.28.09.28.28.04.62.09,1.12.17,1.51.15.69.44,1.23.87,1.61.43.38.98.57,1.65.57.62,0,1.13-.16,1.54-.49.41-.33.71-.81.9-1.44.17-.62.25-1.36.25-2.24,0-1.01-.12-1.84-.36-2.49-.21-.58-.5-1.02-.9-1.32-.39-.3-.88-.45-1.46-.45-.28,0-.58.08-.9.25-.07.04-.13.06-.17.06-.07,0-.15-.04-.22-.11l-1.09-1.18c-.06-.06-.08-.12-.08-.2s.03-.14.08-.2l4.26-5.24s.05-.07.03-.1c-.02-.03-.05-.04-.08-.04h-6.66c-.19,0-.28-.09-.28-.28v-1.76c0-.19.09-.28.28-.28h9.83c.19,0,.28.09.28.28v1.85c0,.13-.04.24-.11.34l-3.95,4.96s-.05.07-.03.1c.02.03.05.04.08.04.84.07,1.56.34,2.16.8.6.46,1.05,1.08,1.37,1.86.37.91.56,2.02.56,3.3Z"/>
      <path class="cls-1" d="M544.75,726.49l5.54-16.83s.01-.07-.01-.1c-.03-.03-.06-.04-.1-.04h-5.6c-.07,0-.11.04-.11.11v1.2c0,.19-.09.28-.28.28h-1.65c-.19,0-.28-.09-.28-.28v-3.36c0-.19.09-.28.28-.28h10.33c.19,0,.28.09.28.28v1.88c0,.07-.02.19-.06.34l-5.52,16.88c-.06.15-.17.22-.34.22h-2.27c-.21,0-.28-.1-.22-.31Z"/>
    </g>
  </g>
  <g id="wv_hall_3_38" data-name="3/38" class="ds-stand">
    <rect class="cls-3" x="569" y="680" width="44" height="74" rx="4" ry="4"/>
    <rect class="cls-3" x="569" y="680" width="44" height="74" rx="4" ry="4"/>
    <g>
      <path class="cls-1" d="M589.47,720.72c0,1.16-.18,2.19-.53,3.11-.39,1.05-.99,1.84-1.79,2.38-.8.54-1.8.81-3,.81-1.36,0-2.5-.36-3.42-1.08-.91-.72-1.49-1.68-1.74-2.9-.11-.56-.19-1.24-.22-2.04,0-.19.09-.28.28-.28h2.13c.19,0,.28.09.28.28.04.62.09,1.12.17,1.51.15.69.44,1.23.87,1.61.43.38.98.57,1.65.57.62,0,1.13-.16,1.54-.49.41-.33.71-.81.9-1.44.17-.62.25-1.36.25-2.24,0-1.01-.12-1.84-.36-2.49-.21-.58-.5-1.02-.9-1.32-.39-.3-.88-.45-1.46-.45-.28,0-.58.08-.9.25-.07.04-.13.06-.17.06-.07,0-.15-.04-.22-.11l-1.09-1.18c-.06-.06-.08-.12-.08-.2s.03-.14.08-.2l4.26-5.24s.05-.07.03-.1c-.02-.03-.05-.04-.08-.04h-6.66c-.19,0-.28-.09-.28-.28v-1.76c0-.19.09-.28.28-.28h9.83c.19,0,.28.09.28.28v1.85c0,.13-.04.24-.11.34l-3.95,4.96s-.05.07-.03.1c.02.03.05.04.08.04.84.07,1.56.34,2.16.8.6.46,1.05,1.08,1.37,1.86.37.91.56,2.02.56,3.3Z"/>
      <path class="cls-1" d="M602.91,721.25c0,1.16-.21,2.15-.62,2.97-.41.88-1.02,1.56-1.83,2.06-.81.5-1.77.74-2.87.74s-2.06-.25-2.88-.76c-.82-.5-1.44-1.21-1.85-2.13-.41-.88-.62-1.85-.62-2.91s.18-1.95.53-2.77c.37-.88.98-1.52,1.82-1.93.09-.06.09-.11,0-.17-.65-.39-1.16-.91-1.51-1.54-.47-.77-.7-1.67-.7-2.72s.21-1.92.64-2.69c.43-.78,1.05-1.4,1.85-1.85.8-.45,1.71-.67,2.72-.67s1.96.22,2.74.66c.78.44,1.38,1.06,1.79,1.86.45.8.67,1.7.67,2.69s-.23,1.91-.7,2.72c-.35.63-.86,1.15-1.51,1.54-.09.06-.1.1-.03.14.84.41,1.45,1.06,1.82,1.96.35.77.53,1.7.53,2.8ZM600.25,721.09c0-.75-.1-1.38-.31-1.9-.19-.54-.48-.96-.88-1.26-.4-.3-.89-.45-1.47-.45-1.18,0-1.96.55-2.35,1.65-.21.5-.31,1.16-.31,1.96s.13,1.52.39,2.04c.41,1.05,1.17,1.57,2.27,1.57s1.83-.51,2.24-1.54c.28-.56.42-1.25.42-2.07ZM595.05,712.29c0,.67.13,1.25.39,1.74.21.43.49.77.87,1.01.37.24.8.36,1.29.36s.94-.13,1.32-.38c.37-.25.66-.6.87-1.05.24-.47.36-1.04.36-1.71,0-.58-.11-1.09-.34-1.54-.19-.47-.47-.84-.85-1.11-.38-.27-.84-.41-1.39-.41-.5,0-.95.14-1.34.42-.39.28-.68.65-.87,1.12-.21.5-.31,1.02-.31,1.54Z"/>
    </g>
  </g>
  <g id="wv_hall_3_39" data-name="3/39" class="ds-stand">
    <rect class="cls-3" x="639" y="680" width="74" height="44" rx="4" ry="4"/>
    <rect class="cls-3" x="639" y="680" width="74" height="44" rx="4" ry="4"/>
    <g>
      <path class="cls-1" d="M674.68,705.72c0,1.16-.18,2.19-.53,3.11-.39,1.05-.99,1.84-1.79,2.38-.8.54-1.8.81-3,.81-1.36,0-2.5-.36-3.42-1.08-.91-.72-1.49-1.68-1.74-2.9-.11-.56-.19-1.24-.22-2.04,0-.19.09-.28.28-.28h2.13c.19,0,.28.09.28.28.04.62.09,1.12.17,1.51.15.69.44,1.23.87,1.61.43.38.98.57,1.65.57.62,0,1.13-.16,1.54-.49.41-.33.71-.81.9-1.44.17-.62.25-1.36.25-2.24,0-1.01-.12-1.84-.36-2.49-.21-.58-.5-1.02-.9-1.32-.39-.3-.88-.45-1.46-.45-.28,0-.58.08-.9.25-.07.04-.13.06-.17.06-.07,0-.15-.04-.22-.11l-1.09-1.18c-.06-.06-.08-.12-.08-.2s.03-.14.08-.2l4.26-5.24s.05-.07.03-.1c-.02-.03-.05-.04-.08-.04h-6.66c-.19,0-.28-.09-.28-.28v-1.76c0-.19.09-.28.28-.28h9.83c.19,0,.28.09.28.28v1.85c0,.13-.04.24-.11.34l-3.95,4.96s-.05.07-.03.1c.02.03.05.04.08.04.84.07,1.56.34,2.16.8.6.46,1.05,1.08,1.37,1.86.37.91.56,2.02.56,3.3Z"/>
      <path class="cls-1" d="M687.65,698.19v8.88c0,1.51-.49,2.72-1.46,3.61-.97.9-2.24,1.34-3.81,1.34s-2.73-.45-3.67-1.34c-.93-.9-1.4-2.07-1.4-3.53v-.59c0-.19.09-.28.28-.28h2.13c.19,0,.28.09.28.28v.39c0,.8.22,1.46.67,1.96.45.5,1.02.76,1.71.76.77,0,1.39-.26,1.86-.77.48-.51.71-1.19.71-2.03v-3.56s-.01-.07-.04-.08c-.03-.02-.06,0-.1.03-.73.86-1.7,1.29-2.91,1.29-1.14,0-2.09-.3-2.86-.9-.77-.6-1.32-1.42-1.65-2.46-.3-.77-.45-1.74-.45-2.91,0-1.05.1-1.89.31-2.52.3-1.21.88-2.15,1.74-2.8.86-.65,1.95-.98,3.28-.98,1.21,0,2.24.29,3.08.88s1.43,1.43,1.76,2.53c.35.78.53,1.72.53,2.8ZM683.83,701.82c.4-.33.69-.79.85-1.39.19-.58.28-1.29.28-2.13,0-.77-.07-1.41-.2-1.93-.17-.65-.46-1.16-.88-1.51-.42-.35-.95-.53-1.58-.53s-1.14.18-1.57.55c-.43.36-.73.89-.9,1.58-.13.62-.2,1.24-.2,1.88,0,.8.09,1.51.28,2.13.39,1.23,1.19,1.85,2.38,1.85.62,0,1.12-.16,1.53-.49Z"/>
    </g>
  </g>
  <g id="wv_hall_3_40" data-name="3/40" class="ds-stand">
    <rect class="cls-3" x="739" y="680" width="74" height="44" rx="4" ry="4"/>
    <rect class="cls-3" x="739" y="680" width="74" height="44" rx="4" ry="4"/>
    <g>
      <path class="cls-1" d="M774.91,704.41v1.88c0,.19-.09.28-.28.28h-1.04c-.07,0-.11.04-.11.11v4.84c0,.19-.09.28-.28.28h-2.13c-.19,0-.28-.09-.28-.28v-4.84c0-.07-.04-.11-.11-.11h-7.7c-.19,0-.28-.09-.28-.28v-1.54c0-.13.02-.24.06-.34l4.79-11.98c.06-.15.16-.22.31-.22h2.3c.09,0,.16.03.2.1.04.07.04.14,0,.24l-4.51,11.45s-.02.07,0,.1c.02.03.05.04.08.04h4.76c.07,0,.11-.04.11-.11v-3.98c0-.19.09-.28.28-.28h2.13c.19,0,.28.09.28.28v3.98c0,.08.04.11.11.11h1.04c.19,0,.28.09.28.28Z"/>
      <path class="cls-1" d="M778.98,710.57c-1.02-1.01-1.53-2.36-1.53-4.06v-9.02c0-1.68.51-3.02,1.53-4.03,1.02-1.01,2.38-1.51,4.07-1.51s3.06.5,4.09,1.51c1.03,1.01,1.54,2.35,1.54,4.03v9.02c0,1.7-.51,3.05-1.54,4.06-1.03,1.01-2.39,1.51-4.09,1.51s-3.06-.5-4.07-1.51ZM785.18,708.9c.54-.57.81-1.32.81-2.25v-9.27c0-.93-.27-1.68-.81-2.25-.54-.57-1.25-.85-2.13-.85s-1.58.28-2.11.85-.8,1.32-.8,2.25v9.27c0,.93.27,1.68.8,2.25s1.24.85,2.11.85,1.59-.28,2.13-.85Z"/>
    </g>
  </g>
  <g id="wv_hall_3_41" data-name="3/41" class="ds-stand">
    <rect class="cls-3" x="839" y="680" width="44" height="74" rx="4" ry="4"/>
    <rect class="cls-3" x="839" y="680" width="44" height="74" rx="4" ry="4"/>
    <g>
      <path class="cls-1" d="M863.67,719.41v1.88c0,.19-.09.28-.28.28h-1.04c-.07,0-.11.04-.11.11v4.84c0,.19-.09.28-.28.28h-2.13c-.19,0-.28-.09-.28-.28v-4.84c0-.07-.04-.11-.11-.11h-7.7c-.19,0-.28-.09-.28-.28v-1.54c0-.13.02-.24.06-.34l4.79-11.98c.06-.15.16-.22.31-.22h2.3c.09,0,.16.03.2.1.04.07.04.14,0,.24l-4.51,11.45s-.02.07,0,.1c.02.03.05.04.08.04h4.76c.07,0,.11-.04.11-.11v-3.98c0-.19.09-.28.28-.28h2.13c.19,0,.28.09.28.28v3.98c0,.08.04.11.11.11h1.04c.19,0,.28.09.28.28Z"/>
      <path class="cls-1" d="M867.09,707.2h2.21c.19,0,.28.09.28.28v19.04c0,.19-.09.28-.28.28h-2.13c-.19,0-.28-.09-.28-.28v-16.41s-.01-.07-.04-.1c-.03-.03-.06-.03-.1-.01l-2.72.87-.11.03c-.11,0-.19-.08-.22-.25l-.11-1.6c0-.15.07-.26.2-.34l2.94-1.43c.11-.06.23-.08.36-.08Z"/>
    </g>
  </g>
  <g id="wv_hall_3_42" data-name="3/42" class="ds-stand">
    <rect class="cls-3" x="909" y="680" width="74" height="44" rx="4" ry="4"/>
    <rect class="cls-3" x="909" y="680" width="74" height="44" rx="4" ry="4"/>
    <g>
      <path class="cls-1" d="M945.29,704.41v1.88c0,.19-.09.28-.28.28h-1.04c-.07,0-.11.04-.11.11v4.84c0,.19-.09.28-.28.28h-2.13c-.19,0-.28-.09-.28-.28v-4.84c0-.07-.04-.11-.11-.11h-7.7c-.19,0-.28-.09-.28-.28v-1.54c0-.13.02-.24.06-.34l4.79-11.98c.06-.15.16-.22.31-.22h2.3c.09,0,.16.03.2.1.04.07.04.14,0,.24l-4.51,11.45s-.02.07,0,.1c.02.03.05.04.08.04h4.76c.07,0,.11-.04.11-.11v-3.98c0-.19.09-.28.28-.28h2.13c.19,0,.28.09.28.28v3.98c0,.08.04.11.11.11h1.04c.19,0,.28.09.28.28Z"/>
      <path class="cls-1" d="M951.03,709.48h7.42c.19,0,.28.09.28.28v1.76c0,.19-.09.28-.28.28h-10.56c-.19,0-.28-.09-.28-.28v-1.79c0-.13.04-.24.11-.34,2.41-3.1,4.28-5.59,5.63-7.48,1.44-2,2.16-3.59,2.16-4.79,0-.86-.24-1.54-.73-2.06-.49-.51-1.13-.77-1.93-.77s-1.41.26-1.89.77c-.48.51-.7,1.19-.69,2.03v.98c0,.19-.09.28-.28.28h-2.16c-.19,0-.28-.09-.28-.28v-1.2c.04-1.47.56-2.66,1.55-3.56,1-.9,2.26-1.34,3.79-1.34,1.06,0,2,.22,2.8.66.8.44,1.42,1.05,1.86,1.83.44.78.66,1.67.66,2.66,0,1.66-.75,3.55-2.24,5.66-.86,1.21-2.26,3.05-4.2,5.52l-.81,1.04c-.06.09-.04.14.06.14Z"/>
    </g>
  </g>
  <g id="wv_hall_3_43" data-name="3/43" class="ds-stand">
    <rect class="cls-3" x="909" y="730" width="74" height="44" rx="4" ry="4"/>
    <rect class="cls-3" x="909" y="730" width="74" height="44" rx="4" ry="4"/>
    <g>
      <path class="cls-1" d="M945.41,754.41v1.88c0,.19-.09.28-.28.28h-1.04c-.07,0-.11.04-.11.11v4.84c0,.19-.09.28-.28.28h-2.13c-.19,0-.28-.09-.28-.28v-4.84c0-.07-.04-.11-.11-.11h-7.7c-.19,0-.28-.09-.28-.28v-1.54c0-.13.02-.24.06-.34l4.79-11.98c.06-.15.16-.22.31-.22h2.3c.09,0,.16.03.2.1.04.07.04.14,0,.24l-4.51,11.45s-.02.07,0,.1c.02.03.05.04.08.04h4.76c.07,0,.11-.04.11-.11v-3.98c0-.19.09-.28.28-.28h2.13c.19,0,.28.09.28.28v3.98c0,.08.04.11.11.11h1.04c.19,0,.28.09.28.28Z"/>
      <path class="cls-1" d="M958.24,755.72c0,1.16-.18,2.19-.53,3.11-.39,1.05-.99,1.84-1.79,2.38-.8.54-1.8.81-3,.81-1.36,0-2.5-.36-3.42-1.08-.91-.72-1.49-1.68-1.74-2.9-.11-.56-.19-1.24-.22-2.04,0-.19.09-.28.28-.28h2.13c.19,0,.28.09.28.28.04.62.09,1.12.17,1.51.15.69.44,1.23.87,1.61.43.38.98.57,1.65.57.62,0,1.13-.16,1.54-.49.41-.33.71-.81.9-1.44.17-.62.25-1.36.25-2.24,0-1.01-.12-1.84-.36-2.49-.21-.58-.5-1.02-.9-1.32-.39-.3-.88-.45-1.46-.45-.28,0-.58.08-.9.25-.07.04-.13.06-.17.06-.07,0-.15-.04-.22-.11l-1.09-1.18c-.06-.06-.08-.12-.08-.2s.03-.14.08-.2l4.26-5.24s.05-.07.03-.1c-.02-.03-.05-.04-.08-.04h-6.66c-.19,0-.28-.09-.28-.28v-1.76c0-.19.09-.28.28-.28h9.83c.19,0,.28.09.28.28v1.85c0,.13-.04.24-.11.34l-3.95,4.96s-.05.07-.03.1c.02.03.05.04.08.04.84.07,1.56.34,2.16.8.6.46,1.05,1.08,1.37,1.86.37.91.56,2.02.56,3.3Z"/>
    </g>
  </g>
  <g id="wv_hall_3_44" data-name="3/44" class="ds-stand">
    <rect class="cls-3" x="596" y="785" width="147" height="105" rx="4" ry="4"/>
    <rect class="cls-3" x="596" y="785" width="147" height="105" rx="4" ry="4"/>
    <g>
      <path class="cls-1" d="M668.44,839.91v1.88c0,.19-.09.28-.28.28h-1.04c-.07,0-.11.04-.11.11v4.84c0,.19-.09.28-.28.28h-2.13c-.19,0-.28-.09-.28-.28v-4.84c0-.07-.04-.11-.11-.11h-7.7c-.19,0-.28-.09-.28-.28v-1.54c0-.13.02-.24.06-.34l4.79-11.98c.06-.15.16-.22.31-.22h2.3c.09,0,.16.03.2.1.04.07.04.14,0,.24l-4.51,11.45s-.02.07,0,.1c.02.03.05.04.08.04h4.76c.07,0,.11-.04.11-.11v-3.98c0-.19.09-.28.28-.28h2.13c.19,0,.28.09.28.28v3.98c0,.08.04.11.11.11h1.04c.19,0,.28.09.28.28Z"/>
      <path class="cls-1" d="M682.58,839.91v1.88c0,.19-.09.28-.28.28h-1.04c-.07,0-.11.04-.11.11v4.84c0,.19-.09.28-.28.28h-2.13c-.19,0-.28-.09-.28-.28v-4.84c0-.07-.04-.11-.11-.11h-7.7c-.19,0-.28-.09-.28-.28v-1.54c0-.13.02-.24.06-.34l4.79-11.98c.06-.15.16-.22.31-.22h2.3c.09,0,.16.03.2.1.04.07.04.14,0,.24l-4.51,11.45s-.02.07,0,.1c.02.03.05.04.08.04h4.76c.07,0,.11-.04.11-.11v-3.98c0-.19.09-.28.28-.28h2.13c.19,0,.28.09.28.28v3.98c0,.08.04.11.11.11h1.04c.19,0,.28.09.28.28Z"/>
    </g>
  </g>
  <g id="wv_hall_3_45" data-name="3/45" class="ds-stand">
    <rect class="cls-3" x="749" y="785" width="84" height="105" rx="4" ry="4"/>
    <rect class="cls-3" x="749" y="785" width="84" height="105" rx="4" ry="4"/>
    <g>
      <path class="cls-1" d="M790.41,839.91v1.88c0,.19-.09.28-.28.28h-1.04c-.07,0-.11.04-.11.11v4.84c0,.19-.09.28-.28.28h-2.13c-.19,0-.28-.09-.28-.28v-4.84c0-.07-.04-.11-.11-.11h-7.7c-.19,0-.28-.09-.28-.28v-1.54c0-.13.02-.24.06-.34l4.79-11.98c.06-.15.16-.22.31-.22h2.3c.09,0,.16.03.2.1.04.07.04.14,0,.24l-4.51,11.45s-.02.07,0,.1c.02.03.05.04.08.04h4.76c.07,0,.11-.04.11-.11v-3.98c0-.19.09-.28.28-.28h2.13c.19,0,.28.09.28.28v3.98c0,.08.04.11.11.11h1.04c.19,0,.28.09.28.28Z"/>
      <path class="cls-1" d="M803.6,841.22c0,.97-.08,1.79-.25,2.46-.32,1.23-.92,2.18-1.81,2.84-.89.66-1.99.99-3.32.99s-2.43-.35-3.32-1.04c-.89-.69-1.48-1.66-1.78-2.91-.11-.48-.18-.86-.2-1.12v-.06c0-.15.08-.22.25-.22h2.16c.19,0,.29.09.31.28.04.3.07.5.11.59.15.69.44,1.22.87,1.58.43.36.96.55,1.6.55s1.17-.19,1.61-.56c.44-.37.73-.91.88-1.6.11-.43.17-1.02.17-1.76s-.07-1.38-.2-1.96c-.15-.63-.44-1.12-.87-1.44-.43-.33-.96-.49-1.6-.49s-1.14.14-1.58.42c-.44.28-.75.7-.94,1.26-.04.15-.14.22-.31.22h-2.18c-.19,0-.28-.09-.28-.28v-11c0-.19.09-.28.28-.28h9.55c.19,0,.28.09.28.28v1.76c0,.19-.09.28-.28.28h-7.03c-.07,0-.11.04-.11.11l-.03,5.96c0,.09.05.11.14.06.37-.37.83-.66,1.36-.85.53-.2,1.1-.29,1.69-.29,1.1,0,2.03.27,2.8.8.77.53,1.3,1.3,1.6,2.31.28.92.42,1.95.42,3.11Z"/>
    </g>
  </g>
  <g id="wv_hall_3_46" data-name="3/46" class="ds-stand">
    <rect class="cls-3" x="839" y="785" width="44" height="74" rx="4" ry="4"/>
    <rect class="cls-3" x="839" y="785" width="44" height="74" rx="4" ry="4"/>
    <g>
      <path class="cls-1" d="M860.4,824.41v1.88c0,.19-.09.28-.28.28h-1.04c-.07,0-.11.04-.11.11v4.84c0,.19-.09.28-.28.28h-2.13c-.19,0-.28-.09-.28-.28v-4.84c0-.07-.04-.11-.11-.11h-7.7c-.19,0-.28-.09-.28-.28v-1.54c0-.13.02-.24.06-.34l4.79-11.98c.06-.15.16-.22.31-.22h2.3c.09,0,.16.03.2.1.04.07.04.14,0,.24l-4.51,11.45s-.02.07,0,.1c.02.03.05.04.08.04h4.76c.07,0,.11-.04.11-.11v-3.98c0-.19.09-.28.28-.28h2.13c.19,0,.28.09.28.28v3.98c0,.08.04.11.11.11h1.04c.19,0,.28.09.28.28Z"/>
      <path class="cls-1" d="M873.61,825.72c0,.95-.1,1.79-.31,2.52-.32,1.21-.91,2.15-1.76,2.8-.86.65-1.95.98-3.28.98-1.21,0-2.24-.29-3.08-.88-.84-.59-1.43-1.43-1.76-2.53-.34-.75-.5-1.68-.5-2.8l-.03-8.88c0-1.49.49-2.69,1.46-3.6.97-.91,2.25-1.36,3.84-1.36,1.49,0,2.71.45,3.65,1.34.94.9,1.41,2.07,1.41,3.53v.59c0,.19-.09.28-.28.28h-2.13c-.19,0-.28-.09-.28-.28v-.39c0-.78-.23-1.43-.69-1.95-.46-.51-1.03-.77-1.72-.77-.75,0-1.36.26-1.83.77-.48.51-.71,1.19-.71,2.03v3.53s.01.07.04.08c.03.02.06,0,.1-.03.73-.84,1.7-1.26,2.91-1.26,1.14,0,2.09.3,2.84.9.76.6,1.31,1.42,1.67,2.46.3.84.45,1.81.45,2.91ZM870.9,825.67c0-.88-.09-1.59-.28-2.13-.17-.58-.46-1.03-.87-1.36-.41-.33-.91-.49-1.51-.49s-1.12.16-1.53.49c-.4.33-.69.79-.85,1.39-.17.52-.25,1.23-.25,2.13,0,.77.07,1.41.2,1.93.15.63.43,1.13.85,1.5.42.36.95.55,1.58.55s1.16-.18,1.58-.55c.42-.36.71-.89.88-1.58.13-.5.2-1.13.2-1.88Z"/>
    </g>
  </g>
</svg>