<?xml version="1.0" encoding="UTF-8"?>
<svg id="wv_hall_2A" data-name="Hall 2A" xmlns="http://www.w3.org/2000/svg" viewBox="0 0 1300 1300" class="hall-svg h-auto">
  <g id="wv_hall_1300" data-name="1300">
    <rect class="cls-2" width="1300" height="1300"/>
  </g>
  <g id="HALL">
    <g>
      <path class="cls-3" d="M672,607.5c-20.68,0-37.5,16.82-37.5,37.5s16.82,37.5,37.5,37.5,37.5-16.82,37.5-37.5-16.82-37.5-37.5-37.5ZM672,681.5c-20.13,0-36.5-16.37-36.5-36.5s16.37-36.5,36.5-36.5,36.5,16.37,36.5,36.5-16.37,36.5-36.5,36.5Z"/>
      <path class="cls-3" d="M414,879.5h-5s0,0,0,0,0,0,0,0h-5s0,0,0,0,0,0,0,0h-5s0,0,0,0,0,0,0,0h-5s0,0,0,0,0,0,0,0h-5s0,0,0,0,0,0,0,0h-5s0,0,0,0,0,0,0,0h-5s0,0,0,0,0,0,0,0h-5s0,0,0,0,0,0,0,0h-20c-.28,0-.5.22-.5.5v40c0,.28.22.5.5.5h5s0,0,0,0,0,0,0,0h5s0,0,0,0,0,0,0,0h5s0,0,0,0,0,0,0,0h45c.28,0,.5-.22.5-.5v-40c0-.28-.22-.5-.5-.5ZM413.5,899.5h-4v-19h4v19ZM398.5,899.5h-4v-19h4v19ZM399.5,880.5h4v19h-4v-19ZM393.5,899.5h-4v-19h4v19ZM388.5,899.5h-4v-19h4v19ZM383.5,899.5h-4v-19h4v19ZM378.5,899.5h-4v-19h4v19ZM373.5,899.5h-4v-19h4v19ZM368.5,899.5h-4v-19h4v19ZM363.5,899.5h-4v-19h4v19ZM363.5,900.5v19h-4v-19h4ZM364.5,900.5h4v19h-4v-19ZM369.5,900.5h4v19h-4v-19ZM374.5,900.5h4v19h-4v-19ZM379.5,900.5h4v19h-4v-19ZM384.5,900.5h4v19h-4v-19ZM389.5,900.5h4v19h-4v-19ZM394.5,900.5h4v19h-4v-19ZM399.5,900.5h4v19h-4v-19ZM404.5,900.5h4v19h-4v-19ZM404.5,899.5v-19h4v19h-4ZM358.5,880.5v19h-4v-19h4ZM354.5,900.5h4v19h-4v-19ZM409.5,919.5v-19h4v19h-4Z"/>
      <path class="cls-3" d="M714,920.5h5s0,0,0,0,0,0,0,0h5s0,0,0,0,0,0,0,0h5s0,0,0,0,0,0,0,0h45c.28,0,.5-.22.5-.5v-40c0-.28-.22-.5-.5-.5h-5s0,0,0,0,0,0,0,0h-5s0,0,0,0,0,0,0,0h-5s0,0,0,0,0,0,0,0h-5s0,0,0,0,0,0,0,0h-5s0,0,0,0,0,0,0,0h-5s0,0,0,0,0,0,0,0h-5s0,0,0,0,0,0,0,0h-5s0,0,0,0,0,0,0,0h-20c-.28,0-.5.22-.5.5v40c0,.28.22.5.5.5ZM714.5,900.5h4v19h-4v-19ZM729.5,900.5h4v19h-4v-19ZM728.5,919.5h-4v-19h4v19ZM734.5,900.5h4v19h-4v-19ZM739.5,900.5h4v19h-4v-19ZM744.5,900.5h4v19h-4v-19ZM749.5,900.5h4v19h-4v-19ZM754.5,900.5h4v19h-4v-19ZM759.5,900.5h4v19h-4v-19ZM764.5,900.5h4v19h-4v-19ZM764.5,899.5v-19h4v19h-4ZM763.5,899.5h-4v-19h4v19ZM758.5,899.5h-4v-19h4v19ZM753.5,899.5h-4v-19h4v19ZM748.5,899.5h-4v-19h4v19ZM743.5,899.5h-4v-19h4v19ZM738.5,899.5h-4v-19h4v19ZM733.5,899.5h-4v-19h4v19ZM728.5,899.5h-4v-19h4v19ZM723.5,899.5h-4v-19h4v19ZM723.5,900.5v19h-4v-19h4ZM769.5,919.5v-19h4v19h-4ZM773.5,899.5h-4v-19h4v19ZM718.5,880.5v19h-4v-19h4Z"/>
      <path class="cls-3" d="M939,744.5s0,0,0,0,0,0,0,0h-5s0,0,0,0,0,0,0,0h-5s0,0,0,0,0,0,0,0h-5s0,0,0,0,0,0,0,0h-5s0,0,0,0,0,0,0,0h-5c-.28,0-.5.22-.5.5v40c0,.28.22.5.5.5h30c.28,0,.5-.22.5-.5v-40c0-.28-.22-.5-.5-.5h-5ZM943.5,764.5h-4v-19h4v19ZM928.5,764.5h-4v-19h4v19ZM929.5,745.5h4v19h-4v-19ZM923.5,764.5h-4v-19h4v19ZM923.5,765.5v19h-4v-19h4ZM924.5,765.5h4v19h-4v-19ZM929.5,765.5h4v19h-4v-19ZM934.5,765.5h4v19h-4v-19ZM934.5,764.5v-19h4v19h-4ZM918.5,745.5v19h-4v-19h4ZM914.5,765.5h4v19h-4v-19ZM939.5,784.5v-19h4v19h-4Z"/>
      <path class="cls-3" d="M819,879.5s0,0,0,0,0,0,0,0h-4.99s0,0,0,0,0,0,0,0h-4.99s0,0,0,0,0,0,0,0h-4.99s0,0,0,0,0,0,0,0h-4.99s0,0,0,0,0,0,0,0h-5c-.28,0-.5.22-.5.5v40c0,.28.22.5.5.5h30c.28,0,.5-.22.5-.5v-40c0-.28-.22-.5-.5-.5h-5ZM823.5,899.5h-4v-19h4v19ZM808.5,899.5h-4v-19h4v19ZM809.5,880.5h4v19h-4v-19ZM803.5,899.5h-4v-19h4v19ZM803.5,900.5v19h-4v-19h4ZM804.5,900.5h4v19h-4v-19ZM809.5,900.5h4v19h-4v-19ZM814.5,900.5h4v19h-4v-19ZM814.5,899.5v-19h4v19h-4ZM798.5,880.5v19h-4v-19h4ZM794.5,900.5h4v19h-4v-19ZM819.5,919.5v-19h4v19h-4Z"/>
      <path class="cls-3" d="M414.5,810c0-.28-.22-.5-.5-.5h-5s0,0,0,0,0,0,0,0h-5s0,0,0,0,0,0,0,0h-5s0,0,0,0,0,0,0,0h-5s0,0,0,0,0,0,0,0h-5s0,0,0,0,0,0,0,0h-5s0,0,0,0,0,0,0,0h-5s0,0,0,0,0,0,0,0h-5s0,0,0,0,0,0,0,0h-20c-.28,0-.5.22-.5.5v40c0,.28.22.5.5.5h5s0,0,0,0,0,0,0,0h5s0,0,0,0,0,0,0,0h5s0,0,0,0,0,0,0,0h45c.28,0,.5-.22.5-.5v-40ZM413.5,829.5h-4v-19h4v19ZM398.5,829.5h-4v-19h4v19ZM399.5,810.5h4v19h-4v-19ZM393.5,829.5h-4v-19h4v19ZM388.5,829.5h-4v-19h4v19ZM383.5,829.5h-4v-19h4v19ZM378.5,829.5h-4v-19h4v19ZM373.5,829.5h-4v-19h4v19ZM368.5,829.5h-4v-19h4v19ZM363.5,829.5h-4v-19h4v19ZM363.5,830.5v19h-4v-19h4ZM364.5,830.5h4v19h-4v-19ZM369.5,830.5h4v19h-4v-19ZM374.5,830.5h4v19h-4v-19ZM379.5,830.5h4v19h-4v-19ZM384.5,830.5h4v19h-4v-19ZM389.5,830.5h4v19h-4v-19ZM394.5,830.5h4v19h-4v-19ZM399.5,830.5h4v19h-4v-19ZM404.5,830.5h4v19h-4v-19ZM404.5,829.5v-19h4v19h-4ZM358.5,810.5v19h-4v-19h4ZM354.5,830.5h4v19h-4v-19ZM409.5,849.5v-19h4v19h-4Z"/>
      <path class="cls-3" d="M414.5,630c0-.28-.22-.5-.5-.5h-5s0,0,0,0,0,0,0,0h-5s0,0,0,0,0,0,0,0h-5s0,0,0,0,0,0,0,0h-5s0,0,0,0,0,0,0,0h-5s0,0,0,0,0,0,0,0h-5s0,0,0,0,0,0,0,0h-5s0,0,0,0,0,0,0,0h-5s0,0,0,0,0,0,0,0h-20c-.28,0-.5.22-.5.5v40c0,.28.22.5.5.5h5s0,0,0,0,0,0,0,0h5s0,0,0,0,0,0,0,0h5s0,0,0,0,0,0,0,0h45c.28,0,.5-.22.5-.5v-40ZM413.5,649.5h-4v-19h4v19ZM398.5,649.5h-4v-19h4v19ZM399.5,630.5h4v19h-4v-19ZM393.5,649.5h-4v-19h4v19ZM388.5,649.5h-4v-19h4v19ZM383.5,649.5h-4v-19h4v19ZM378.5,649.5h-4v-19h4v19ZM373.5,649.5h-4v-19h4v19ZM368.5,649.5h-4v-19h4v19ZM363.5,649.5h-4v-19h4v19ZM363.5,650.5v19h-4v-19h4ZM364.5,650.5h4v19h-4v-19ZM369.5,650.5h4v19h-4v-19ZM374.5,650.5h4v19h-4v-19ZM379.5,650.5h4v19h-4v-19ZM384.5,650.5h4v19h-4v-19ZM389.5,650.5h4v19h-4v-19ZM394.5,650.5h4v19h-4v-19ZM399.5,650.5h4v19h-4v-19ZM404.5,650.5h4v19h-4v-19ZM404.5,649.5v-19h4v19h-4ZM358.5,630.5v19h-4v-19h4ZM354.5,650.5h4v19h-4v-19ZM409.5,669.5v-19h4v19h-4Z"/>
      <path class="cls-3" d="M414.5,450c0-.28-.22-.5-.5-.5h-5s0,0,0,0,0,0,0,0h-5s0,0,0,0,0,0,0,0h-5s0,0,0,0,0,0,0,0h-5s0,0,0,0,0,0,0,0h-5s0,0,0,0,0,0,0,0h-5s0,0,0,0,0,0,0,0h-5s0,0,0,0,0,0,0,0h-5s0,0,0,0,0,0,0,0h-20c-.28,0-.5.22-.5.5v40c0,.28.22.5.5.5h5s0,0,0,0,0,0,0,0h5s0,0,0,0,0,0,0,0h5s0,0,0,0,0,0,0,0h45c.28,0,.5-.22.5-.5v-40ZM413.5,469.5h-4v-19h4v19ZM398.5,469.5h-4v-19h4v19ZM399.5,450.5h4v19h-4v-19ZM393.5,469.5h-4v-19h4v19ZM388.5,469.5h-4v-19h4v19ZM383.5,469.5h-4v-19h4v19ZM378.5,469.5h-4v-19h4v19ZM373.5,469.5h-4v-19h4v19ZM368.5,469.5h-4v-19h4v19ZM363.5,469.5h-4v-19h4v19ZM363.5,470.5v19h-4v-19h4ZM364.5,470.5h4v19h-4v-19ZM369.5,470.5h4v19h-4v-19ZM374.5,470.5h4v19h-4v-19ZM379.5,470.5h4v19h-4v-19ZM384.5,470.5h4v19h-4v-19ZM389.5,470.5h4v19h-4v-19ZM394.5,470.5h4v19h-4v-19ZM399.5,470.5h4v19h-4v-19ZM404.5,470.5h4v19h-4v-19ZM404.5,469.5v-19h4v19h-4ZM358.5,450.5v19h-4v-19h4ZM354.5,470.5h4v19h-4v-19ZM409.5,489.5v-19h4v19h-4Z"/>
      <path class="cls-3" d="M414.5,380c0-.28-.22-.5-.5-.5h-5s0,0,0,0,0,0,0,0h-5s0,0,0,0,0,0,0,0h-5s0,0,0,0,0,0,0,0h-5s0,0,0,0,0,0,0,0h-5s0,0,0,0,0,0,0,0h-5s0,0,0,0,0,0,0,0h-5s0,0,0,0,0,0,0,0h-5s0,0,0,0,0,0,0,0h-20c-.28,0-.5.22-.5.5v40c0,.28.22.5.5.5h5s0,0,0,0,0,0,0,0h5s0,0,0,0,0,0,0,0h5s0,0,0,0,0,0,0,0h45c.28,0,.5-.22.5-.5v-40ZM413.5,399.5h-4v-19h4v19ZM398.5,399.5h-4v-19h4v19ZM399.5,380.5h4v19h-4v-19ZM393.5,399.5h-4v-19h4v19ZM388.5,399.5h-4v-19h4v19ZM383.5,399.5h-4v-19h4v19ZM378.5,399.5h-4v-19h4v19ZM373.5,399.5h-4v-19h4v19ZM368.5,399.5h-4v-19h4v19ZM363.5,399.5h-4v-19h4v19ZM363.5,400.5v19h-4v-19h4ZM364.5,400.5h4v19h-4v-19ZM369.5,400.5h4v19h-4v-19ZM374.5,400.5h4v19h-4v-19ZM379.5,400.5h4v19h-4v-19ZM384.5,400.5h4v19h-4v-19ZM389.5,400.5h4v19h-4v-19ZM394.5,400.5h4v19h-4v-19ZM399.5,400.5h4v19h-4v-19ZM404.5,400.5h4v19h-4v-19ZM404.5,399.5v-19h4v19h-4ZM358.5,380.5v19h-4v-19h4ZM354.5,400.5h4v19h-4v-19ZM409.5,419.5v-19h4v19h-4Z"/>
      <path class="cls-3" d="M714,390.5s0,0,0,0h5s0,0,0,0,0,0,0,0h45c.28,0,.5-.22.5-.5v-40c0-.28-.22-.5-.5-.5h-5s0,0,0,0,0,0,0,0h-5s0,0,0,0,0,0,0,0h-5s0,0,0,0,0,0,0,0h-5s0,0,0,0,0,0,0,0h-5s0,0,0,0,0,0,0,0h-5s0,0,0,0,0,0,0,0h-5s0,0,0,0,0,0,0,0h-5s0,0,0,0,0,0,0,0h-20c-.28,0-.5.22-.5.5v40c0,.28.22.5.5.5h5s0,0,0,0,0,0,0,0h5s0,0,0,0ZM724.5,370.5h4v19h-4v-19ZM723.5,389.5h-4v-19h4v19ZM729.5,370.5h4v19h-4v-19ZM734.5,370.5h4v19h-4v-19ZM739.5,370.5h4v19h-4v-19ZM744.5,370.5h4v19h-4v-19ZM749.5,370.5h4v19h-4v-19ZM754.5,370.5h4v19h-4v-19ZM754.5,369.5v-19h4v19h-4ZM753.5,369.5h-4v-19h4v19ZM748.5,369.5h-4v-19h4v19ZM743.5,369.5h-4v-19h4v19ZM738.5,369.5h-4v-19h4v19ZM733.5,369.5h-4v-19h4v19ZM728.5,369.5h-4v-19h4v19ZM723.5,369.5h-4v-19h4v19ZM718.5,369.5h-4v-19h4v19ZM713.5,369.5h-4v-19h4v19ZM713.5,370.5v19h-4v-19h4ZM714.5,370.5h4v19h-4v-19ZM759.5,389.5v-19h4v19h-4ZM763.5,369.5h-4v-19h4v19ZM708.5,350.5v19h-4v-19h4ZM704.5,370.5h4v19h-4v-19Z"/>
      <path class="cls-3" d="M844,390.5c.28,0,.5-.22.5-.5v-40c0-.28-.22-.5-.5-.5h-5s0,0,0,0,0,0,0,0h-5s0,0,0,0,0,0,0,0h-5s0,0,0,0,0,0,0,0h-5s0,0,0,0,0,0,0,0h-5s0,0,0,0,0,0,0,0h-5s0,0,0,0,0,0,0,0h-5s0,0,0,0,0,0,0,0h-5s0,0,0,0,0,0,0,0h-20c-.28,0-.5.22-.5.5v40c0,.28.22.5.5.5h5s0,0,0,0,0,0,0,0h5s0,0,0,0,0,0,0,0h5s0,0,0,0,0,0,0,0h45ZM834.5,369.5v-19h4v19h-4ZM838.5,370.5v19h-4v-19h4ZM833.5,369.5h-4v-19h4v19ZM828.5,369.5h-4v-19h4v19ZM823.5,369.5h-4v-19h4v19ZM818.5,369.5h-4v-19h4v19ZM813.5,369.5h-4v-19h4v19ZM808.5,369.5h-4v-19h4v19ZM803.5,369.5h-4v-19h4v19ZM798.5,369.5h-4v-19h4v19ZM793.5,369.5h-4v-19h4v19ZM793.5,370.5v19h-4v-19h4ZM794.5,370.5h4v19h-4v-19ZM799.5,370.5h4v19h-4v-19ZM804.5,370.5h4v19h-4v-19ZM809.5,370.5h4v19h-4v-19ZM814.5,370.5h4v19h-4v-19ZM819.5,370.5h4v19h-4v-19ZM824.5,370.5h4v19h-4v-19ZM829.5,370.5h4v19h-4v-19ZM839.5,389.5v-19h4v19h-4ZM843.5,369.5h-4v-19h4v19ZM788.5,350.5v19h-4v-19h4ZM784.5,370.5h4v19h-4v-19Z"/>
      <path class="cls-3" d="M324,370.5h30c.28,0,.5-.22.5-.5v-29.5h589v394.5c0,.28.22.5.5.5h30c.28,0,.5-.22.5-.5s-.22-.5-.5-.5h-29.5v-394.5c0-.28-.22-.5-.5-.5H354c-.28,0-.5.22-.5.5v29.5h-29.5c-.28,0-.5.22-.5.5s.22.5.5.5Z"/>
      <path class="cls-3" d="M974,794.5h-30c-.28,0-.5.22-.5.5v164.5h-454v-14.5c0-.28-.22-.5-.5-.5-7.22,0-13.29,4.97-15,11.66-1.71-6.69-7.78-11.66-15-11.66-.28,0-.5.22-.5.5v14.5h-4v-14.5c0-.28-.22-.5-.5-.5-7.22,0-13.29,4.97-15,11.66-1.71-6.69-7.78-11.66-15-11.66-.28,0-.5.22-.5.5v14.5h-69v-29.5c0-.28-.22-.5-.5-.5h-30c-.28,0-.5.22-.5.5s.22.5.5.5h29.5v29.5c0,.28.22.5.5.5h69.5v14.5c0,.28.22.5.5.5,7.22,0,13.29-4.97,15-11.66,1.71,6.69,7.78,11.66,15,11.66.28,0,.5-.22.5-.5v-14.5h4v14.5c0,.28.22.5.5.5,7.22,0,13.29-4.97,15-11.66,1.71,6.69,7.78,11.66,15,11.66.28,0,.5-.22.5-.5v-14.5h454.5c.28,0,.5-.22.5-.5v-164.5h29.5c.28,0,.5-.22.5-.5s-.22-.5-.5-.5ZM424.5,974.49v-28.98c7.76.26,14,6.66,14,14.49s-6.24,14.23-14,14.49ZM453.5,974.49c-7.76-.26-14-6.66-14-14.49s6.24-14.23,14-14.49v28.98ZM459.5,974.49v-28.98c7.76.26,14,6.66,14,14.49s-6.24,14.23-14,14.49ZM488.5,974.49c-7.76-.26-14-6.66-14-14.49s6.24-14.23,14-14.49v28.98Z"/>
      <path class="cls-3" d="M324,869.5c-.28,0-.5.22-.5.5s.22.5.5.5h30c.28,0,.5-.22.5-.5v-10c0-.28-.22-.5-.5-.5h-30c-.28,0-.5.22-.5.5s.22.5.5.5h29.5v9h-29.5Z"/>
      <path class="cls-3" d="M324,799.5c-.28,0-.5.22-.5.5s.22.5.5.5h30c.28,0,.5-.22.5-.5v-120c0-.28-.22-.5-.5-.5h-30c-.28,0-.5.22-.5.5s.22.5.5.5h29.5v119h-29.5Z"/>
      <path class="cls-3" d="M324,619.5c-.28,0-.5.22-.5.5s.22.5.5.5h30c.28,0,.5-.22.5-.5v-120c0-.28-.22-.5-.5-.5h-30c-.28,0-.5.22-.5.5s.22.5.5.5h29.5v119h-29.5Z"/>
      <path class="cls-3" d="M324,439.5c-.28,0-.5.22-.5.5s.22.5.5.5h30c.28,0,.5-.22.5-.5v-10c0-.28-.22-.5-.5-.5h-30c-.28,0-.5.22-.5.5s.22.5.5.5h29.5v9h-29.5Z"/>
    </g>
  </g>
  <g id="Signage">
    <g>
      <path class="cls-3" d="M679.31,636.4c-2.49-3.64-6.98-6.07-12.13-6.07-7.83,0-14.18,5.62-14.18,12.57,0,2.49.81,4.84,2.25,6.81l-1.82,6.46c-.03.34.24.61.55.61.07,0,.15-.02.22-.05l6.62-2.56c1.9.84,4.07,1.33,6.32,1.33.85,0,1.69-.08,2.5-.21,2.27,2.02,5.41,3.27,8.88,3.27,1.98,0,3.9-.43,5.57-1.18l5.84,2.26c.07.03.13.04.2.04.27,0,.51-.24.48-.54l-1.6-5.7c1.27-1.73,1.98-3.81,1.98-6,0-5.88-5.17-10.67-11.69-11.04ZM667.15,654.49c-2.03,0-4.08-.43-5.91-1.25l-.38-.17-.39.15-5.8,2.25,1.55-5.5.13-.47-.29-.39c-1.34-1.83-2.05-3.99-2.05-6.22,0-6.38,5.91-11.57,13.18-11.57,4.52,0,8.51,2.01,10.89,5.06-6.7.2-12.08,5.06-12.08,11.06,0,2.63,1.04,5.05,2.77,6.96-.53.06-1.06.1-1.61.1ZM666.99,647.44c0-5.56,5.16-10.08,11.5-10.08.09,0,.18.01.27.01,1.02,1.64,1.6,3.52,1.6,5.52,0,5.54-4.45,10.18-10.38,11.33-1.85-1.8-3-4.17-3-6.77ZM688.06,653.72l1.3,4.62-4.9-1.89-.39-.15-.38.17c-1.6.71-3.39,1.09-5.17,1.09-2.91,0-5.57-.96-7.6-2.53,6.02-1.47,10.44-6.35,10.44-12.14,0-1.95-.52-3.79-1.41-5.44,5.66.63,10.05,4.87,10.05,9.99,0,1.94-.62,3.82-1.79,5.41l-.29.39.13.47Z"/>
      <path class="cls-3" d="M320.81,399.23c-.84.39-1.93.53-6.22.76-2.8.17-4.45.28-4.98.34-1.46.17-2.63.45-3.33.81-1.74.92-2.27,2.32-2.27,5.85,0,.62.03,1.32.06,2.02h20.64v-2.13h-18.23v-.64c0-3.08.64-3.67,4.2-3.89,9.6-.5,11.03-.73,12.49-1.99,1.04-.92,1.4-2.04,1.4-4.31,0-1.29-.17-2.44-.45-3.08-.48-1.18-1.65-2.04-3.08-2.3-1.18-.2-5.1-.42-7.73-.42-1.79,0-3.61.11-4.79.25-1.65.25-2.69.76-3.44,1.79-.76.98-.92,1.93-.92,5.18h2.38c0-1.71.03-2.18.08-2.6.14-1.12.64-1.68,1.68-1.96.87-.25,3.67-.45,6.08-.45,3.42,0,5.74.22,6.58.67.9.45,1.32,1.46,1.32,3.19,0,1.6-.45,2.46-1.46,2.91Z"/>
      <path class="cls-3" d="M328.21,399.64c.77.39,1.94.5,5.5.5,2.14,0,3.18-.1,3.93-.35.97-.35,1.34-1.04,1.34-2.5,0-.14-.01-.35-.03-.88h-2.85c-.01,1.39-.06,1.4-3.16,1.4s-3.05-.04-3.05-2.42c0-1.4.11-1.96.45-2.22.29-.24.81-.29,2.57-.29.64,0,1.48.03,1.93.06.62.04.84.11.95.27.11.15.14.28.17.83h2.84v-.46c0-1.54-.31-2.22-1.16-2.63-.63-.31-1.52-.39-3.92-.39-4.79,0-5.85.24-6.38,1.41-.22.53-.29,1.32-.29,3.46,0,1.08.03,1.88.06,2.29.11,1.05.42,1.6,1.11,1.94Z"/>
      <path class="cls-3" d="M310.68,650.34c9.6-.5,11.03-.73,12.49-1.99,1.04-.92,1.4-2.04,1.4-4.31,0-1.29-.17-2.44-.45-3.08-.48-1.18-1.65-2.04-3.08-2.3-1.18-.2-5.1-.42-7.73-.42-1.79,0-3.61.11-4.79.25-1.65.25-2.69.76-3.44,1.79-.76.98-.92,1.93-.92,5.18h2.38c0-1.71.03-2.18.08-2.6.14-1.12.64-1.68,1.68-1.96.87-.25,3.67-.45,6.08-.45,3.42,0,5.74.22,6.58.67.9.45,1.32,1.46,1.32,3.19,0,1.6-.45,2.46-1.46,2.91-.84.39-1.93.53-6.22.76-2.8.17-4.45.28-4.98.34-1.46.17-2.63.45-3.33.81-1.74.92-2.27,2.32-2.27,5.85,0,.62.03,1.32.06,2.02h20.64v-2.13h-18.23v-.64c0-3.08.64-3.67,4.2-3.89Z"/>
      <path class="cls-3" d="M328.21,647.64c.77.39,1.94.5,5.5.5,2.14,0,3.18-.1,3.93-.35.97-.35,1.34-1.04,1.34-2.5,0-.14-.01-.35-.03-.88h-2.85c-.01,1.39-.06,1.4-3.16,1.4s-3.05-.04-3.05-2.42c0-1.4.11-1.96.45-2.22.29-.24.81-.29,2.57-.29.64,0,1.48.03,1.93.06.62.04.84.11.95.27.11.15.14.28.17.83h2.84v-.46c0-1.54-.31-2.22-1.16-2.63-.63-.31-1.52-.39-3.92-.39-4.79,0-5.85.24-6.38,1.41-.22.53-.29,1.32-.29,3.46,0,1.08.03,1.88.06,2.29.11,1.05.42,1.6,1.11,1.94Z"/>
      <path class="cls-3" d="M291.09,462.28c-.76.98-.92,1.93-.92,5.18h2.38c0-1.71.03-2.18.08-2.6.14-1.12.64-1.68,1.68-1.96.87-.25,3.67-.45,6.08-.45,3.42,0,5.74.22,6.58.67.9.45,1.32,1.46,1.32,3.19,0,1.6-.45,2.46-1.46,2.91-.84.39-1.93.53-6.22.76-2.8.17-4.45.28-4.98.34-1.46.17-2.63.45-3.33.81-1.74.92-2.27,2.32-2.27,5.85,0,.62.03,1.32.06,2.02h20.64v-2.13h-18.23v-.64c0-3.08.64-3.67,4.2-3.89,9.6-.5,11.03-.73,12.49-1.99,1.04-.92,1.4-2.04,1.4-4.31,0-1.29-.17-2.44-.45-3.08-.48-1.18-1.65-2.04-3.08-2.3-1.18-.2-5.1-.42-7.73-.42-1.79,0-3.61.11-4.79.25-1.65.25-2.69.76-3.44,1.79Z"/>
      <path class="cls-3" d="M323.35,465.25c.94-.27,1.26-.81,1.26-2.14,0-1.23-.27-1.85-.95-2.17-.52-.25-.62-.25-3.71-.27h-6.7v9.33h6.72c1.34-.01,2.07-.01,2.18-.01.84-.03,1.37-.1,1.69-.21.78-.31,1.12-.98,1.12-2.28,0-1.5-.38-2.04-1.61-2.25ZM315.95,462.87h4c1.32.01,1.34.01,1.5.06.28.07.41.28.41.66,0,.35-.11.59-.34.67-.18.07-.6.1-1.57.1h-4v-1.48ZM321.84,467.67q-.21.08-1.88.1h-4.02v-1.55h4.02q1.67,0,1.82.04c.29.08.42.28.42.7s-.11.62-.36.71Z"/>
      <path class="cls-3" d="M320.81,829.23c-.84.39-1.93.53-6.22.76-2.8.17-4.45.28-4.98.34-1.46.17-2.63.45-3.33.81-1.74.92-2.27,2.32-2.27,5.85,0,.62.03,1.32.06,2.02h20.64v-2.13h-18.23v-.64c0-3.08.64-3.67,4.2-3.89,9.6-.5,11.03-.73,12.49-1.99,1.04-.92,1.4-2.04,1.4-4.31,0-1.29-.17-2.44-.45-3.08-.48-1.18-1.65-2.04-3.08-2.3-1.18-.2-5.1-.42-7.73-.42-1.79,0-3.61.11-4.79.25-1.65.25-2.69.76-3.44,1.79-.76.98-.92,1.93-.92,5.18h2.38c0-1.71.03-2.18.08-2.6.14-1.12.64-1.68,1.68-1.96.87-.25,3.67-.45,6.08-.45,3.42,0,5.74.22,6.58.67.9.45,1.32,1.46,1.32,3.19,0,1.6-.45,2.46-1.46,2.91Z"/>
      <path class="cls-3" d="M338.98,827.29c0-.14-.01-.35-.03-.88h-2.85c-.01,1.39-.06,1.4-3.16,1.4s-3.05-.04-3.05-2.42c0-1.4.11-1.96.45-2.22.29-.24.81-.29,2.57-.29.64,0,1.48.03,1.93.06.62.04.84.11.95.27.11.15.14.28.17.83h2.84v-.46c0-1.54-.31-2.22-1.16-2.63-.63-.31-1.52-.39-3.92-.39-4.79,0-5.85.24-6.38,1.41-.22.53-.29,1.32-.29,3.46,0,1.08.03,1.88.06,2.29.11,1.05.42,1.6,1.11,1.94.77.39,1.94.5,5.5.5,2.14,0,3.18-.1,3.93-.35.97-.35,1.34-1.04,1.34-2.5Z"/>
      <path class="cls-3" d="M292.49,906.23c0-3.08.64-3.67,4.2-3.89,9.6-.5,11.03-.73,12.49-1.99,1.04-.92,1.4-2.04,1.4-4.31,0-1.29-.17-2.44-.45-3.08-.48-1.18-1.65-2.04-3.08-2.3-1.18-.2-5.1-.42-7.73-.42-1.79,0-3.61.11-4.79.25-1.65.25-2.69.76-3.44,1.79-.76.98-.92,1.93-.92,5.18h2.38c0-1.71.03-2.18.08-2.6.14-1.12.64-1.68,1.68-1.96.87-.25,3.67-.45,6.08-.45,3.42,0,5.74.22,6.58.67.9.45,1.32,1.46,1.32,3.19,0,1.6-.45,2.46-1.46,2.91-.84.39-1.93.53-6.22.76-2.8.17-4.45.28-4.98.34-1.46.17-2.63.45-3.33.81-1.74.92-2.27,2.32-2.27,5.85,0,.62.03,1.32.06,2.02h20.64v-2.13h-18.23v-.64Z"/>
      <path class="cls-3" d="M323.35,895.25c.94-.27,1.26-.81,1.26-2.14,0-1.23-.27-1.85-.95-2.17-.52-.25-.62-.25-3.71-.27h-6.7v9.33h6.72c1.34-.01,2.07-.01,2.18-.01.84-.03,1.37-.1,1.69-.21.78-.31,1.12-.98,1.12-2.28,0-1.5-.38-2.04-1.61-2.25ZM315.95,892.87h4c1.32.01,1.34.01,1.5.06.28.07.41.28.41.66,0,.35-.11.59-.34.67-.18.07-.6.1-1.57.1h-4v-1.48ZM321.84,897.67q-.21.08-1.88.1h-4.02v-1.55h4.02q1.67,0,1.82.04c.29.08.42.28.42.7s-.11.62-.36.71Z"/>
      <polygon class="cls-3" points="953.94 761.62 955.42 763.3 961.44 757.65 962.31 757.65 962.31 774 964.74 774 964.74 755.32 960.57 755.32 953.94 761.62"/>
      <path class="cls-3" d="M973.37,755.67l-4.94,9.33h3.25l.8-1.58h6.17l.8,1.58h3.23l-4.88-9.33h-4.42ZM973.48,761.38l1.8-3.54h.56l1.8,3.54h-4.17Z"/>
      <path class="cls-3" d="M292.47,414.58c.39.64,1.53.6,1.53-.48v-28.21c0-1.08-1.14-1.11-1.53-.48l-8.18,13.4c-.2.33-.3.76-.29,1.18,0,.43.09.86.29,1.18l8.18,13.4Z"/>
      <path class="cls-3" d="M292.47,664.58c.39.64,1.53.6,1.53-.48v-28.21c0-1.08-1.14-1.11-1.53-.48l-8.18,13.4c-.2.33-.3.76-.29,1.18,0,.43.09.86.29,1.18l8.18,13.4Z"/>
      <path class="cls-3" d="M294,844.1v-28.21c0-1.08-1.14-1.11-1.53-.48l-8.18,13.4c-.2.33-.3.76-.29,1.18,0,.43.09.86.29,1.18l8.18,13.4c.39.64,1.53.6,1.53-.48Z"/>
      <path class="cls-3" d="M335.53,455.42c-.39-.64-1.53-.6-1.53.48v28.21c0,1.08,1.14,1.11,1.53.48l8.18-13.4c.2-.33.3-.76.29-1.18,0-.43-.09-.86-.29-1.18l-8.18-13.4Z"/>
      <path class="cls-3" d="M335.53,885.42c-.39-.64-1.53-.6-1.53.48v28.21c0,1.08,1.14,1.11,1.53.48l8.18-13.4c.2-.33.3-.76.29-1.18,0-.43-.09-.86-.29-1.18l-8.18-13.4Z"/>
      <path class="cls-3" d="M1000.71,763.82l-8.18-13.4c-.39-.64-1.53-.6-1.53.48v28.21c0,1.08,1.14,1.11,1.53.48l8.18-13.4c.2-.33.3-.76.29-1.18,0-.43-.09-.86-.29-1.18Z"/>
    </g>
  </g>
  <g id="wv_hall_2A_01" data-name="2A/01" class="ds-stand">
    <rect class="cls-3" x="445" y="778" width="44" height="74" rx="4" ry="4"/>
    <g>
      <path class="cls-1" d="M458.74,823.57c-1.02-1.01-1.53-2.36-1.53-4.06v-9.02c0-1.68.51-3.02,1.53-4.03,1.02-1.01,2.38-1.51,4.07-1.51s3.06.5,4.09,1.51c1.03,1.01,1.54,2.35,1.54,4.03v9.02c0,1.7-.51,3.05-1.54,4.06-1.03,1.01-2.39,1.51-4.09,1.51s-3.06-.5-4.07-1.51ZM464.94,821.9c.54-.57.81-1.32.81-2.25v-9.27c0-.93-.27-1.68-.81-2.25-.54-.57-1.25-.85-2.13-.85s-1.58.28-2.11.85c-.53.57-.8,1.32-.8,2.25v9.27c0,.93.27,1.68.8,2.25.53.57,1.24.85,2.11.85s1.59-.28,2.13-.85Z"/>
      <path class="cls-1" d="M473.96,805.2h2.21c.19,0,.28.09.28.28v19.04c0,.19-.09.28-.28.28h-2.13c-.19,0-.28-.09-.28-.28v-16.41s-.01-.07-.04-.1c-.03-.03-.06-.03-.1-.01l-2.72.87-.11.03c-.11,0-.19-.08-.22-.25l-.11-1.6c0-.15.06-.26.2-.34l2.94-1.43c.11-.06.23-.08.36-.08Z"/>
    </g>
  </g>
  <g id="wv_hall_2A_02" data-name="2A/02" class="ds-stand">
    <rect class="cls-3" x="445" y="698" width="44" height="74" rx="4" ry="4"/>
    <g>
      <path class="cls-1" d="M456.19,743.57c-1.02-1.01-1.53-2.36-1.53-4.06v-9.02c0-1.68.51-3.02,1.53-4.03,1.02-1.01,2.38-1.51,4.07-1.51s3.06.5,4.09,1.51c1.03,1.01,1.54,2.35,1.54,4.03v9.02c0,1.7-.51,3.05-1.54,4.06-1.03,1.01-2.39,1.51-4.09,1.51s-3.06-.5-4.07-1.51ZM462.39,741.9c.54-.57.81-1.32.81-2.25v-9.27c0-.93-.27-1.68-.81-2.25-.54-.57-1.25-.85-2.13-.85s-1.58.28-2.11.85-.8,1.32-.8,2.25v9.27c0,.93.27,1.68.8,2.25s1.24.85,2.11.85,1.59-.28,2.13-.85Z"/>
      <path class="cls-1" d="M472.05,742.47h7.42c.19,0,.28.09.28.28v1.76c0,.19-.09.28-.28.28h-10.56c-.19,0-.28-.09-.28-.28v-1.79c0-.13.04-.24.11-.34,2.41-3.1,4.28-5.59,5.63-7.48,1.44-2,2.16-3.59,2.16-4.79,0-.86-.24-1.54-.73-2.06-.49-.51-1.13-.77-1.93-.77s-1.41.26-1.89.77c-.48.51-.7,1.19-.69,2.03v.98c0,.19-.09.28-.28.28h-2.16c-.19,0-.28-.09-.28-.28v-1.2c.04-1.47.56-2.66,1.55-3.56s2.26-1.34,3.79-1.34c1.06,0,2,.22,2.8.66.8.44,1.42,1.05,1.86,1.83s.66,1.67.66,2.66c0,1.66-.75,3.55-2.24,5.66-.86,1.21-2.26,3.05-4.2,5.52l-.81,1.04c-.06.09-.04.14.06.14Z"/>
    </g>
  </g>
  <g id="wv_hall_2A_03" data-name="2A/03" class="ds-stand">
    <rect class="cls-3" x="445" y="548" width="44" height="74" rx="4" ry="4"/>
    <g>
      <path class="cls-1" d="M456.32,593.57c-1.02-1.01-1.53-2.36-1.53-4.06v-9.02c0-1.68.51-3.02,1.53-4.03,1.02-1.01,2.38-1.51,4.07-1.51s3.06.5,4.09,1.51c1.03,1.01,1.54,2.35,1.54,4.03v9.02c0,1.7-.51,3.05-1.54,4.06-1.03,1.01-2.39,1.51-4.09,1.51s-3.06-.5-4.07-1.51ZM462.52,591.9c.54-.57.81-1.32.81-2.25v-9.27c0-.93-.27-1.68-.81-2.25-.54-.57-1.25-.85-2.13-.85s-1.58.28-2.11.85c-.53.57-.8,1.32-.8,2.25v9.27c0,.93.27,1.68.8,2.25.53.57,1.24.85,2.11.85s1.59-.28,2.13-.85Z"/>
      <path class="cls-1" d="M479.26,588.72c0,1.16-.18,2.19-.53,3.11-.39,1.05-.99,1.84-1.79,2.38-.8.54-1.8.81-3,.81-1.36,0-2.5-.36-3.42-1.08-.92-.72-1.49-1.68-1.74-2.9-.11-.56-.19-1.24-.22-2.04,0-.19.09-.28.28-.28h2.13c.19,0,.28.09.28.28.04.62.09,1.12.17,1.51.15.69.44,1.23.87,1.61.43.38.98.57,1.65.57.62,0,1.13-.16,1.54-.49.41-.33.71-.81.9-1.44.17-.62.25-1.36.25-2.24,0-1.01-.12-1.84-.36-2.49-.21-.58-.5-1.02-.9-1.32-.39-.3-.88-.45-1.46-.45-.28,0-.58.08-.9.25-.08.04-.13.06-.17.06-.08,0-.15-.04-.22-.11l-1.09-1.18c-.06-.06-.08-.12-.08-.2s.03-.14.08-.2l4.26-5.24s.05-.07.03-.1c-.02-.03-.05-.04-.08-.04h-6.66c-.19,0-.28-.09-.28-.28v-1.76c0-.19.09-.28.28-.28h9.83c.19,0,.28.09.28.28v1.85c0,.13-.04.24-.11.34l-3.95,4.96s-.05.07-.03.1c.02.03.05.04.08.04.84.07,1.56.34,2.16.8.6.46,1.05,1.08,1.37,1.86.37.91.56,2.02.56,3.3Z"/>
    </g>
  </g>
  <g id="wv_hall_2A_04" data-name="2A/04" class="ds-stand">
    <rect class="cls-3" x="445" y="508" width="44" height="34" rx="4" ry="4"/>
    <g>
      <path class="cls-1" d="M455.84,533.57c-1.02-1.01-1.53-2.36-1.53-4.06v-9.02c0-1.68.51-3.02,1.53-4.03,1.02-1.01,2.38-1.51,4.07-1.51s3.06.5,4.09,1.51c1.03,1.01,1.54,2.35,1.54,4.03v9.02c0,1.7-.51,3.05-1.54,4.06-1.03,1.01-2.39,1.51-4.09,1.51s-3.06-.5-4.07-1.51ZM462.04,531.9c.54-.57.81-1.32.81-2.25v-9.27c0-.93-.27-1.68-.81-2.25s-1.25-.85-2.13-.85-1.58.28-2.11.85c-.53.57-.8,1.32-.8,2.25v9.27c0,.93.27,1.68.8,2.25.53.57,1.24.85,2.11.85s1.59-.28,2.13-.85Z"/>
      <path class="cls-1" d="M480.1,527.41v1.88c0,.19-.09.28-.28.28h-1.04c-.07,0-.11.04-.11.11v4.84c0,.19-.09.28-.28.28h-2.13c-.19,0-.28-.09-.28-.28v-4.84c0-.07-.04-.11-.11-.11h-7.7c-.19,0-.28-.09-.28-.28v-1.54c0-.13.02-.24.06-.34l4.79-11.98c.06-.15.16-.22.31-.22h2.3c.09,0,.16.03.2.1s.04.14,0,.24l-4.51,11.45s-.02.07,0,.1c.02.03.05.04.08.04h4.76c.07,0,.11-.04.11-.11v-3.98c0-.19.09-.28.28-.28h2.13c.19,0,.28.09.28.28v3.98c0,.08.04.11.11.11h1.04c.19,0,.28.09.28.28Z"/>
    </g>
  </g>
  <g id="wv_hall_2A_05" data-name="2A/05" class="ds-stand">
    <rect class="cls-3" x="445" y="468" width="44" height="34" rx="4" ry="4"/>
    <g>
      <path class="cls-1" d="M456.32,493.57c-1.02-1.01-1.53-2.36-1.53-4.06v-9.02c0-1.68.51-3.02,1.53-4.03,1.02-1.01,2.38-1.51,4.07-1.51s3.06.5,4.09,1.51c1.03,1.01,1.54,2.35,1.54,4.03v9.02c0,1.7-.51,3.05-1.54,4.06-1.03,1.01-2.39,1.51-4.09,1.51s-3.06-.5-4.07-1.51ZM462.52,491.9c.54-.57.81-1.32.81-2.25v-9.27c0-.93-.27-1.68-.81-2.25-.54-.57-1.25-.85-2.13-.85s-1.58.28-2.11.85c-.53.57-.8,1.32-.8,2.25v9.27c0,.93.27,1.68.8,2.25.53.57,1.24.85,2.11.85s1.59-.28,2.13-.85Z"/>
      <path class="cls-1" d="M479.63,488.72c0,.97-.08,1.79-.25,2.46-.32,1.23-.92,2.18-1.81,2.84s-1.99.99-3.32.99-2.43-.35-3.32-1.04c-.89-.69-1.48-1.66-1.78-2.91-.11-.48-.18-.86-.2-1.12v-.06c0-.15.08-.22.25-.22h2.16c.19,0,.29.09.31.28.04.3.07.5.11.59.15.69.44,1.22.87,1.58.43.36.96.55,1.6.55s1.17-.19,1.61-.56c.44-.37.73-.91.88-1.6.11-.43.17-1.02.17-1.76s-.07-1.38-.2-1.96c-.15-.63-.44-1.12-.87-1.44-.43-.33-.96-.49-1.6-.49s-1.14.14-1.58.42c-.44.28-.75.7-.94,1.26-.04.15-.14.22-.31.22h-2.18c-.19,0-.28-.09-.28-.28v-11c0-.19.09-.28.28-.28h9.55c.19,0,.28.09.28.28v1.76c0,.19-.09.28-.28.28h-7.03c-.08,0-.11.04-.11.11l-.03,5.96c0,.09.05.11.14.06.37-.37.83-.66,1.36-.85.53-.2,1.1-.29,1.69-.29,1.1,0,2.03.27,2.8.8.77.53,1.3,1.3,1.6,2.31.28.92.42,1.95.42,3.11Z"/>
    </g>
  </g>
  <g id="wv_hall_2A_06" data-name="2A/06" class="ds-stand">
    <rect class="cls-3" x="575" y="400" width="74" height="44" rx="4" ry="4"/>
    <g>
      <path class="cls-1" d="M601.3,430.57c-1.02-1.01-1.53-2.36-1.53-4.06v-9.02c0-1.68.51-3.02,1.53-4.03,1.02-1.01,2.38-1.51,4.07-1.51s3.06.5,4.09,1.51c1.03,1.01,1.54,2.35,1.54,4.03v9.02c0,1.7-.51,3.05-1.54,4.06-1.03,1.01-2.39,1.51-4.09,1.51s-3.06-.5-4.07-1.51ZM607.51,428.9c.54-.57.81-1.32.81-2.25v-9.27c0-.93-.27-1.68-.81-2.25-.54-.57-1.25-.85-2.13-.85s-1.58.28-2.11.85-.8,1.32-.8,2.25v9.27c0,.93.27,1.68.8,2.25s1.24.85,2.11.85,1.59-.28,2.13-.85Z"/>
      <path class="cls-1" d="M624.64,425.72c0,.95-.1,1.79-.31,2.52-.32,1.21-.91,2.15-1.76,2.8-.86.65-1.95.98-3.28.98-1.21,0-2.24-.29-3.08-.88-.84-.59-1.43-1.43-1.76-2.53-.34-.75-.5-1.68-.5-2.8l-.03-8.88c0-1.49.48-2.69,1.46-3.6.97-.91,2.25-1.36,3.84-1.36,1.49,0,2.71.45,3.65,1.34.94.9,1.41,2.07,1.41,3.53v.59c0,.19-.09.28-.28.28h-2.13c-.19,0-.28-.09-.28-.28v-.39c0-.78-.23-1.43-.69-1.95-.46-.51-1.03-.77-1.72-.77-.75,0-1.36.26-1.83.77-.48.51-.71,1.19-.71,2.03v3.53s.01.07.04.08c.03.02.06,0,.1-.03.73-.84,1.7-1.26,2.91-1.26,1.14,0,2.09.3,2.84.9.76.6,1.31,1.42,1.67,2.46.3.84.45,1.81.45,2.91ZM621.93,425.67c0-.88-.09-1.59-.28-2.13-.17-.58-.46-1.03-.87-1.36-.41-.33-.92-.49-1.51-.49s-1.12.16-1.53.49c-.4.33-.69.79-.85,1.39-.17.52-.25,1.23-.25,2.13,0,.77.07,1.41.2,1.93.15.63.43,1.13.85,1.5.42.36.95.55,1.58.55s1.16-.18,1.58-.55c.42-.36.71-.89.88-1.58.13-.5.2-1.13.2-1.88Z"/>
    </g>
  </g>
  <g id="wv_hall_2A_07" data-name="2A/07" class="ds-stand">
    <rect class="cls-3" x="655" y="400" width="74" height="44" rx="4" ry="4"/>
    <g>
      <path class="cls-1" d="M681.88,430.57c-1.02-1.01-1.53-2.36-1.53-4.06v-9.02c0-1.68.51-3.02,1.53-4.03,1.02-1.01,2.38-1.51,4.07-1.51s3.06.5,4.09,1.51c1.03,1.01,1.54,2.35,1.54,4.03v9.02c0,1.7-.51,3.05-1.54,4.06-1.03,1.01-2.39,1.51-4.09,1.51s-3.06-.5-4.07-1.51ZM688.08,428.9c.54-.57.81-1.32.81-2.25v-9.27c0-.93-.27-1.68-.81-2.25-.54-.57-1.25-.85-2.13-.85s-1.58.28-2.11.85c-.53.57-.8,1.32-.8,2.25v9.27c0,.93.27,1.68.8,2.25.53.57,1.24.85,2.11.85s1.59-.28,2.13-.85Z"/>
      <path class="cls-1" d="M696.26,431.49l5.54-16.83s.01-.07-.01-.1c-.03-.03-.06-.04-.1-.04h-5.6c-.07,0-.11.04-.11.11v1.2c0,.19-.09.28-.28.28h-1.65c-.19,0-.28-.09-.28-.28v-3.36c0-.19.09-.28.28-.28h10.33c.19,0,.28.09.28.28v1.88c0,.07-.02.19-.06.34l-5.52,16.88c-.06.15-.17.22-.34.22h-2.27c-.21,0-.28-.1-.22-.31Z"/>
    </g>
  </g>
  <g id="wv_hall_2A_08" data-name="2A/08" class="ds-stand">
    <rect class="cls-3" x="735" y="400" width="74" height="44" rx="4" ry="4"/>
    <g>
      <path class="cls-1" d="M761.22,430.57c-1.02-1.01-1.53-2.36-1.53-4.06v-9.02c0-1.68.51-3.02,1.53-4.03,1.02-1.01,2.38-1.51,4.07-1.51s3.06.5,4.09,1.51c1.03,1.01,1.54,2.35,1.54,4.03v9.02c0,1.7-.51,3.05-1.54,4.06-1.03,1.01-2.39,1.51-4.09,1.51s-3.06-.5-4.07-1.51ZM767.42,428.9c.54-.57.81-1.32.81-2.25v-9.27c0-.93-.27-1.68-.81-2.25-.54-.57-1.25-.85-2.13-.85s-1.58.28-2.11.85c-.53.57-.8,1.32-.8,2.25v9.27c0,.93.27,1.68.8,2.25.53.57,1.24.85,2.11.85s1.59-.28,2.13-.85Z"/>
      <path class="cls-1" d="M784.42,426.26c0,1.16-.21,2.15-.62,2.97-.41.88-1.02,1.56-1.83,2.06-.81.5-1.77.74-2.87.74s-2.06-.25-2.88-.76c-.82-.5-1.44-1.21-1.85-2.13-.41-.88-.62-1.85-.62-2.91s.18-1.95.53-2.77c.37-.88.98-1.52,1.82-1.93.09-.06.09-.11,0-.17-.65-.39-1.16-.91-1.51-1.54-.47-.77-.7-1.67-.7-2.72s.21-1.92.64-2.69c.43-.78,1.05-1.4,1.85-1.85.8-.45,1.71-.67,2.72-.67s1.96.22,2.74.66c.78.44,1.38,1.06,1.79,1.86.45.8.67,1.7.67,2.69s-.23,1.91-.7,2.72c-.35.63-.86,1.15-1.51,1.54-.09.06-.1.1-.03.14.84.41,1.45,1.06,1.82,1.96.35.77.53,1.7.53,2.8ZM781.76,426.09c0-.75-.1-1.38-.31-1.9-.19-.54-.48-.96-.88-1.26-.4-.3-.89-.45-1.47-.45-1.18,0-1.96.55-2.35,1.65-.21.5-.31,1.16-.31,1.96s.13,1.52.39,2.04c.41,1.05,1.17,1.57,2.27,1.57s1.83-.51,2.24-1.54c.28-.56.42-1.25.42-2.07ZM776.55,417.3c0,.67.13,1.25.39,1.74.21.43.49.77.87,1.01.37.24.8.36,1.29.36s.94-.13,1.32-.38.66-.6.87-1.05c.24-.47.36-1.04.36-1.71,0-.58-.11-1.09-.34-1.54-.19-.47-.47-.84-.85-1.11-.38-.27-.84-.41-1.39-.41-.5,0-.95.14-1.34.42-.39.28-.68.65-.87,1.12-.21.5-.31,1.02-.31,1.54Z"/>
    </g>
  </g>
  <g id="wv_hall_2A_09" data-name="2A/09" class="ds-stand">
    <rect class="cls-3" x="535" y="468" width="74" height="74" rx="4" ry="4"/>
    <g>
      <path class="cls-1" d="M561.43,513.57c-1.02-1.01-1.53-2.36-1.53-4.06v-9.02c0-1.68.51-3.02,1.53-4.03,1.02-1.01,2.38-1.51,4.07-1.51s3.06.5,4.09,1.51c1.03,1.01,1.54,2.35,1.54,4.03v9.02c0,1.7-.51,3.05-1.54,4.06-1.03,1.01-2.39,1.51-4.09,1.51s-3.06-.5-4.07-1.51ZM567.63,511.9c.54-.57.81-1.32.81-2.25v-9.27c0-.93-.27-1.68-.81-2.25s-1.25-.85-2.13-.85-1.58.28-2.11.85c-.53.57-.8,1.32-.8,2.25v9.27c0,.93.27,1.68.8,2.25.53.57,1.24.85,2.11.85s1.59-.28,2.13-.85Z"/>
      <path class="cls-1" d="M584.15,501.19v8.88c0,1.51-.49,2.72-1.46,3.61-.97.9-2.24,1.34-3.81,1.34s-2.73-.45-3.67-1.34c-.93-.9-1.4-2.07-1.4-3.53v-.59c0-.19.09-.28.28-.28h2.13c.19,0,.28.09.28.28v.39c0,.8.22,1.46.67,1.96.45.5,1.02.76,1.71.76.77,0,1.39-.26,1.86-.77.48-.51.71-1.19.71-2.03v-3.56s-.01-.07-.04-.08c-.03-.02-.06,0-.1.03-.73.86-1.7,1.29-2.91,1.29-1.14,0-2.09-.3-2.86-.9-.77-.6-1.32-1.42-1.65-2.46-.3-.77-.45-1.74-.45-2.91,0-1.05.1-1.89.31-2.52.3-1.21.88-2.15,1.74-2.8.86-.65,1.95-.98,3.28-.98,1.21,0,2.24.29,3.08.88.84.59,1.43,1.43,1.76,2.53.35.78.53,1.72.53,2.8ZM580.33,504.82c.4-.33.69-.79.85-1.39.19-.58.28-1.29.28-2.13,0-.77-.07-1.41-.2-1.93-.17-.65-.46-1.16-.88-1.51-.42-.35-.95-.53-1.58-.53s-1.14.18-1.57.55c-.43.36-.73.89-.9,1.58-.13.62-.2,1.24-.2,1.88,0,.8.09,1.51.28,2.13.39,1.23,1.19,1.85,2.38,1.85.62,0,1.12-.16,1.53-.49Z"/>
    </g>
  </g>
  <g id="wv_hall_2A_10" data-name="2A/10" class="ds-stand">
    <rect class="cls-3" x="635" y="468" width="74" height="44" rx="4" ry="4"/>
    <g>
      <path class="cls-1" d="M664.92,480.2h2.21c.19,0,.28.09.28.28v19.04c0,.19-.09.28-.28.28h-2.13c-.19,0-.28-.09-.28-.28v-16.41s-.01-.07-.04-.1c-.03-.03-.06-.03-.1-.01l-2.72.87-.11.03c-.11,0-.19-.08-.22-.25l-.11-1.6c0-.15.07-.26.2-.34l2.94-1.43c.11-.06.23-.08.36-.08Z"/>
      <path class="cls-1" d="M672.24,498.57c-1.02-1.01-1.53-2.36-1.53-4.06v-9.02c0-1.68.51-3.02,1.53-4.03,1.02-1.01,2.38-1.51,4.07-1.51s3.06.5,4.09,1.51c1.03,1.01,1.54,2.35,1.54,4.03v9.02c0,1.7-.51,3.05-1.54,4.06-1.03,1.01-2.39,1.51-4.09,1.51s-3.06-.5-4.07-1.51ZM678.44,496.9c.54-.57.81-1.32.81-2.25v-9.27c0-.93-.27-1.68-.81-2.25-.54-.57-1.25-.85-2.13-.85s-1.58.28-2.11.85c-.53.57-.8,1.32-.8,2.25v9.27c0,.93.27,1.68.8,2.25.53.57,1.24.85,2.11.85s1.59-.28,2.13-.85Z"/>
    </g>
  </g>
  <g id="wv_hall_2A_11" data-name="2A/11" class="ds-stand">
    <rect class="cls-3" x="735" y="468" width="74" height="74" rx="4" ry="4"/>
    <g>
      <path class="cls-1" d="M767.77,495.2h2.21c.19,0,.28.09.28.28v19.04c0,.19-.09.28-.28.28h-2.13c-.19,0-.28-.09-.28-.28v-16.41s-.01-.07-.04-.1c-.03-.03-.06-.03-.1-.01l-2.72.87-.11.03c-.11,0-.19-.08-.22-.25l-.11-1.6c0-.15.07-.26.2-.34l2.94-1.43c.11-.06.23-.08.36-.08Z"/>
      <path class="cls-1" d="M776.26,495.2h2.21c.19,0,.28.09.28.28v19.04c0,.19-.09.28-.28.28h-2.13c-.19,0-.28-.09-.28-.28v-16.41s-.01-.07-.04-.1c-.03-.03-.06-.03-.1-.01l-2.72.87-.11.03c-.11,0-.19-.08-.22-.25l-.11-1.6c0-.15.06-.26.2-.34l2.94-1.43c.11-.06.23-.08.36-.08Z"/>
    </g>
  </g>
  <g id="wv_hall_2A_12" data-name="2A/12" class="ds-stand">
    <rect class="cls-3" x="535" y="548" width="74" height="74" rx="4" ry="4"/>
    <g>
      <path class="cls-1" d="M565.28,575.2h2.21c.19,0,.28.09.28.28v19.04c0,.19-.09.28-.28.28h-2.13c-.19,0-.28-.09-.28-.28v-16.41s-.01-.07-.04-.1c-.03-.03-.06-.03-.1-.01l-2.72.87-.11.03c-.11,0-.19-.08-.22-.25l-.11-1.6c0-.15.07-.26.2-.34l2.94-1.43c.11-.06.23-.08.36-.08Z"/>
      <path class="cls-1" d="M574.3,592.48h7.42c.19,0,.28.09.28.28v1.76c0,.19-.09.28-.28.28h-10.56c-.19,0-.28-.09-.28-.28v-1.79c0-.13.04-.24.11-.34,2.41-3.1,4.28-5.59,5.63-7.48,1.44-2,2.16-3.59,2.16-4.79,0-.86-.24-1.54-.73-2.06-.49-.51-1.13-.77-1.93-.77s-1.41.26-1.89.77c-.48.51-.7,1.19-.69,2.03v.98c0,.19-.09.28-.28.28h-2.16c-.19,0-.28-.09-.28-.28v-1.2c.04-1.47.56-2.66,1.55-3.56s2.26-1.34,3.79-1.34c1.06,0,2,.22,2.8.66.8.44,1.42,1.05,1.86,1.83s.66,1.67.66,2.66c0,1.66-.75,3.55-2.24,5.66-.86,1.21-2.26,3.05-4.2,5.52l-.81,1.04c-.06.09-.04.14.06.14Z"/>
    </g>
  </g>
  <g id="wv_hall_2A_13" data-name="2A/13" class="ds-stand">
    <rect class="cls-3" x="635" y="518" width="74" height="74" rx="4" ry="4"/>
    <g>
      <path class="cls-1" d="M665.42,545.2h2.21c.19,0,.28.09.28.28v19.04c0,.19-.09.28-.28.28h-2.13c-.19,0-.28-.09-.28-.28v-16.41s-.01-.07-.04-.1c-.03-.03-.06-.03-.1-.01l-2.72.87-.11.03c-.11,0-.19-.08-.22-.25l-.11-1.6c0-.15.06-.26.2-.34l2.94-1.43c.11-.06.23-.08.36-.08Z"/>
      <path class="cls-1" d="M681.49,558.72c0,1.16-.18,2.19-.53,3.11-.39,1.05-.99,1.84-1.79,2.38s-1.8.81-3,.81c-1.36,0-2.5-.36-3.42-1.08-.92-.72-1.49-1.68-1.74-2.9-.11-.56-.19-1.24-.22-2.04,0-.19.09-.28.28-.28h2.13c.19,0,.28.09.28.28.04.62.09,1.12.17,1.51.15.69.44,1.23.87,1.61.43.38.98.57,1.65.57.62,0,1.13-.16,1.54-.49s.71-.81.9-1.44c.17-.62.25-1.36.25-2.24,0-1.01-.12-1.84-.36-2.49-.21-.58-.5-1.02-.9-1.32-.39-.3-.88-.45-1.46-.45-.28,0-.58.08-.9.25-.07.04-.13.06-.17.06-.07,0-.15-.04-.22-.11l-1.09-1.18c-.06-.06-.08-.12-.08-.2s.03-.14.08-.2l4.26-5.24s.05-.07.03-.1c-.02-.03-.05-.04-.08-.04h-6.66c-.19,0-.28-.09-.28-.28v-1.76c0-.19.09-.28.28-.28h9.83c.19,0,.28.09.28.28v1.85c0,.13-.04.24-.11.34l-3.95,4.96s-.05.07-.03.1c.02.03.05.04.08.04.84.07,1.56.34,2.16.8.6.46,1.05,1.08,1.37,1.86.37.91.56,2.02.56,3.3Z"/>
    </g>
  </g>
  <g id="wv_hall_2A_14" data-name="2A/14" class="ds-stand">
    <rect class="cls-3" x="735" y="548" width="74" height="74" rx="4" ry="4"/>
    <g>
      <path class="cls-1" d="M764.94,575.2h2.21c.19,0,.28.09.28.28v19.04c0,.19-.09.28-.28.28h-2.13c-.19,0-.28-.09-.28-.28v-16.41s-.01-.07-.04-.1c-.03-.03-.06-.03-.1-.01l-2.72.87-.11.03c-.11,0-.19-.08-.22-.25l-.11-1.6c0-.15.07-.26.2-.34l2.94-1.43c.11-.06.23-.08.36-.08Z"/>
      <path class="cls-1" d="M782.33,587.41v1.88c0,.19-.09.28-.28.28h-1.04c-.07,0-.11.04-.11.11v4.84c0,.19-.09.28-.28.28h-2.13c-.19,0-.28-.09-.28-.28v-4.84c0-.07-.04-.11-.11-.11h-7.7c-.19,0-.28-.09-.28-.28v-1.54c0-.13.02-.24.06-.34l4.79-11.98c.06-.15.16-.22.31-.22h2.3c.09,0,.16.03.2.1s.04.14,0,.24l-4.51,11.45s-.02.07,0,.1c.02.03.05.04.08.04h4.76c.07,0,.11-.04.11-.11v-3.98c0-.19.09-.28.28-.28h2.13c.19,0,.28.09.28.28v3.98c0,.08.04.11.11.11h1.04c.19,0,.28.09.28.28Z"/>
    </g>
  </g>
  <g id="wv_hall_2A_15" data-name="2A/15" class="ds-stand">
    <rect class="cls-3" x="835" y="417" width="44" height="34" rx="4" ry="4"/>
    <g>
      <path class="cls-1" d="M850.42,424.2h2.21c.19,0,.28.09.28.28v19.04c0,.19-.09.28-.28.28h-2.13c-.19,0-.28-.09-.28-.28v-16.41s-.01-.07-.04-.1c-.03-.03-.06-.03-.1-.01l-2.71.87-.11.03c-.11,0-.19-.08-.22-.25l-.11-1.6c0-.15.07-.26.2-.34l2.94-1.43c.11-.06.23-.08.36-.08Z"/>
      <path class="cls-1" d="M866.86,437.72c0,.97-.08,1.79-.25,2.46-.32,1.23-.92,2.18-1.81,2.84-.89.66-1.99.99-3.32.99s-2.43-.35-3.32-1.04c-.89-.69-1.48-1.66-1.78-2.91-.11-.48-.18-.86-.2-1.12v-.06c0-.15.08-.22.25-.22h2.16c.19,0,.29.09.31.28.04.3.07.5.11.59.15.69.44,1.22.87,1.58.43.36.96.55,1.6.55s1.17-.19,1.61-.56c.44-.37.73-.91.88-1.6.11-.43.17-1.02.17-1.76s-.07-1.38-.2-1.96c-.15-.63-.44-1.12-.87-1.44-.43-.33-.96-.49-1.6-.49s-1.14.14-1.58.42-.75.7-.94,1.26c-.04.15-.14.22-.31.22h-2.18c-.19,0-.28-.09-.28-.28v-11c0-.19.09-.28.28-.28h9.55c.19,0,.28.09.28.28v1.76c0,.19-.09.28-.28.28h-7.03c-.07,0-.11.04-.11.11l-.03,5.96c0,.09.05.11.14.06.37-.37.83-.66,1.36-.85.53-.2,1.1-.29,1.69-.29,1.1,0,2.03.27,2.8.8.77.53,1.3,1.3,1.6,2.31.28.92.42,1.95.42,3.11Z"/>
    </g>
  </g>
  <g id="wv_hall_2A_16" data-name="2A/16" class="ds-stand">
    <rect class="cls-3" x="835" y="457" width="44" height="34" rx="4" ry="4"/>
    <g>
      <path class="cls-1" d="M850.41,464.2h2.21c.19,0,.28.09.28.28v19.04c0,.19-.09.28-.28.28h-2.13c-.19,0-.28-.09-.28-.28v-16.41s-.01-.07-.04-.1c-.03-.03-.06-.03-.1-.01l-2.72.87-.11.03c-.11,0-.19-.08-.22-.25l-.11-1.6c0-.15.07-.26.2-.34l2.94-1.43c.11-.06.23-.08.36-.08Z"/>
      <path class="cls-1" d="M866.87,477.72c0,.95-.1,1.79-.31,2.52-.32,1.21-.91,2.15-1.76,2.8-.86.65-1.95.98-3.28.98-1.21,0-2.24-.29-3.08-.88-.84-.59-1.43-1.43-1.76-2.53-.34-.75-.5-1.68-.5-2.8l-.03-8.88c0-1.49.48-2.69,1.46-3.6.97-.91,2.25-1.36,3.84-1.36,1.49,0,2.71.45,3.65,1.34.94.9,1.41,2.07,1.41,3.53v.59c0,.19-.09.28-.28.28h-2.13c-.19,0-.28-.09-.28-.28v-.39c0-.78-.23-1.43-.69-1.95-.46-.51-1.03-.77-1.72-.77-.75,0-1.36.26-1.83.77-.48.51-.71,1.19-.71,2.03v3.53s.01.07.04.08c.03.02.06,0,.1-.03.73-.84,1.7-1.26,2.91-1.26,1.14,0,2.09.3,2.84.9.76.6,1.31,1.42,1.67,2.46.3.84.45,1.81.45,2.91ZM864.15,477.67c0-.88-.09-1.59-.28-2.13-.17-.58-.46-1.03-.87-1.36-.41-.33-.91-.49-1.51-.49s-1.12.16-1.53.49c-.4.33-.69.79-.85,1.39-.17.52-.25,1.23-.25,2.13,0,.77.07,1.41.2,1.93.15.63.43,1.13.85,1.5.42.36.95.55,1.58.55s1.16-.18,1.58-.55c.42-.36.71-.89.88-1.58.13-.5.2-1.13.2-1.88Z"/>
    </g>
  </g>
  <g id="wv_hall_2A_17" data-name="2A/17" class="ds-stand">
    <rect class="cls-3" x="835" y="497" width="44" height="34" rx="4" ry="4"/>
    <g>
      <path class="cls-1" d="M850.98,504.2h2.21c.19,0,.28.09.28.28v19.04c0,.19-.09.28-.28.28h-2.13c-.19,0-.28-.09-.28-.28v-16.41s-.01-.07-.04-.1c-.03-.03-.06-.03-.1-.01l-2.72.87-.11.03c-.11,0-.19-.08-.22-.25l-.11-1.6c0-.15.07-.26.2-.34l2.94-1.43c.11-.06.23-.08.36-.08Z"/>
      <path class="cls-1" d="M858.48,523.49l5.54-16.83s.01-.07-.01-.1c-.03-.03-.06-.04-.1-.04h-5.6c-.08,0-.11.04-.11.11v1.2c0,.19-.09.28-.28.28h-1.65c-.19,0-.28-.09-.28-.28v-3.36c0-.19.09-.28.28-.28h10.33c.19,0,.28.09.28.28v1.88c0,.07-.02.19-.06.34l-5.52,16.88c-.06.15-.17.22-.34.22h-2.27c-.21,0-.28-.1-.22-.31Z"/>
    </g>
  </g>
  <g id="wv_hall_2A_18" data-name="2A/18" class="ds-stand">
    <rect class="cls-3" x="835" y="537" width="44" height="34" rx="4" ry="4"/>
    <g>
      <path class="cls-1" d="M850.32,544.2h2.21c.19,0,.28.09.28.28v19.04c0,.19-.09.28-.28.28h-2.13c-.19,0-.28-.09-.28-.28v-16.41s-.01-.07-.04-.1c-.03-.03-.06-.03-.1-.01l-2.72.87-.11.03c-.11,0-.19-.08-.22-.25l-.11-1.6c0-.15.07-.26.2-.34l2.94-1.43c.11-.06.23-.08.36-.08Z"/>
      <path class="cls-1" d="M866.65,558.26c0,1.16-.21,2.15-.62,2.97-.41.88-1.02,1.56-1.83,2.06-.81.5-1.77.74-2.87.74s-2.06-.25-2.88-.76c-.82-.5-1.44-1.21-1.85-2.13-.41-.88-.62-1.85-.62-2.91s.18-1.95.53-2.77c.37-.88.98-1.52,1.82-1.93.09-.06.09-.11,0-.17-.65-.39-1.16-.91-1.51-1.54-.47-.77-.7-1.67-.7-2.72s.21-1.92.64-2.69c.43-.78,1.05-1.4,1.85-1.85.8-.45,1.71-.67,2.72-.67s1.96.22,2.74.66c.78.44,1.38,1.06,1.79,1.86.45.8.67,1.7.67,2.69s-.23,1.91-.7,2.72c-.35.63-.86,1.15-1.51,1.54-.09.06-.1.1-.03.14.84.41,1.45,1.06,1.82,1.96.35.77.53,1.7.53,2.8ZM863.99,558.09c0-.75-.1-1.38-.31-1.9-.19-.54-.48-.96-.88-1.26-.4-.3-.89-.45-1.47-.45-1.18,0-1.96.55-2.35,1.65-.21.5-.31,1.16-.31,1.96s.13,1.52.39,2.04c.41,1.05,1.17,1.57,2.27,1.57s1.83-.51,2.24-1.54c.28-.56.42-1.25.42-2.07ZM858.78,549.3c0,.67.13,1.25.39,1.74.21.43.49.77.87,1.01.37.24.8.36,1.29.36s.94-.13,1.32-.38c.37-.25.66-.6.87-1.05.24-.47.36-1.04.36-1.71,0-.58-.11-1.09-.34-1.54-.19-.47-.47-.84-.85-1.11-.38-.27-.84-.41-1.39-.41-.5,0-.95.14-1.34.42-.39.28-.68.65-.87,1.12-.21.5-.31,1.02-.31,1.54Z"/>
    </g>
  </g>
  <g id="wv_hall_2A_19" data-name="2A/19" class="ds-stand">
    <rect class="cls-3" x="835" y="577" width="44" height="34" rx="4" ry="4"/>
    <g>
      <path class="cls-1" d="M850.53,584.2h2.21c.19,0,.28.09.28.28v19.04c0,.19-.09.28-.28.28h-2.13c-.19,0-.28-.09-.28-.28v-16.41s-.01-.07-.04-.1c-.03-.03-.06-.03-.1-.01l-2.72.87-.11.03c-.11,0-.19-.08-.22-.25l-.11-1.6c0-.15.07-.26.2-.34l2.94-1.43c.11-.06.23-.08.36-.08Z"/>
      <path class="cls-1" d="M866.38,590.19v8.88c0,1.51-.49,2.72-1.46,3.61s-2.24,1.34-3.81,1.34-2.74-.45-3.67-1.34c-.93-.9-1.4-2.07-1.4-3.53v-.59c0-.19.09-.28.28-.28h2.13c.19,0,.28.09.28.28v.39c0,.8.22,1.46.67,1.96.45.5,1.02.76,1.71.76.76,0,1.39-.26,1.86-.77.48-.51.71-1.19.71-2.03v-3.56s-.01-.07-.04-.08c-.03-.02-.06,0-.1.03-.73.86-1.7,1.29-2.91,1.29-1.14,0-2.09-.3-2.86-.9-.77-.6-1.32-1.42-1.65-2.46-.3-.77-.45-1.74-.45-2.91,0-1.05.1-1.89.31-2.52.3-1.21.88-2.15,1.74-2.8.86-.65,1.95-.98,3.28-.98,1.21,0,2.24.29,3.08.88s1.43,1.43,1.76,2.53c.36.78.53,1.72.53,2.8ZM862.56,593.82c.4-.33.69-.79.85-1.39.19-.58.28-1.29.28-2.13,0-.77-.07-1.41-.2-1.93-.17-.65-.46-1.16-.88-1.51-.42-.35-.95-.53-1.58-.53s-1.14.18-1.57.55c-.43.36-.73.89-.9,1.58-.13.62-.2,1.24-.2,1.88,0,.8.09,1.51.28,2.13.39,1.23,1.19,1.85,2.38,1.85.62,0,1.12-.16,1.53-.49Z"/>
    </g>
  </g>
  <g id="wv_hall_2A_20" data-name="2A/20" class="ds-stand">
    <rect class="cls-3" x="835" y="617" width="44" height="34" rx="4" ry="4"/>
    <g>
      <path class="cls-1" d="M847.86,641.48h7.42c.19,0,.28.09.28.28v1.76c0,.19-.09.28-.28.28h-10.56c-.19,0-.28-.09-.28-.28v-1.79c0-.13.04-.24.11-.34,2.41-3.1,4.28-5.59,5.63-7.48,1.44-2,2.16-3.59,2.16-4.79,0-.86-.24-1.54-.73-2.06-.49-.51-1.13-.77-1.93-.77s-1.41.26-1.89.77c-.48.51-.7,1.19-.69,2.03v.98c0,.19-.09.28-.28.28h-2.16c-.19,0-.28-.09-.28-.28v-1.2c.04-1.47.55-2.66,1.55-3.56,1-.9,2.26-1.34,3.79-1.34,1.06,0,2,.22,2.8.66.8.44,1.42,1.05,1.86,1.83.44.78.66,1.67.66,2.66,0,1.66-.75,3.55-2.24,5.66-.86,1.21-2.26,3.05-4.2,5.52l-.81,1.04c-.06.09-.04.14.06.14Z"/>
      <path class="cls-1" d="M859.63,642.57c-1.02-1.01-1.53-2.36-1.53-4.06v-9.02c0-1.68.51-3.02,1.53-4.03,1.02-1.01,2.38-1.51,4.07-1.51s3.06.5,4.09,1.51c1.03,1.01,1.54,2.35,1.54,4.03v9.02c0,1.7-.51,3.05-1.54,4.06-1.03,1.01-2.39,1.51-4.09,1.51s-3.06-.5-4.07-1.51ZM865.83,640.9c.54-.57.81-1.32.81-2.25v-9.27c0-.93-.27-1.68-.81-2.25s-1.25-.85-2.13-.85-1.58.28-2.11.85c-.53.57-.8,1.32-.8,2.25v9.27c0,.93.27,1.68.8,2.25.53.57,1.24.85,2.11.85s1.59-.28,2.13-.85Z"/>
    </g>
  </g>
  <g id="wv_hall_2A_21" data-name="2A/21" class="ds-stand">
    <rect class="cls-3" x="835" y="657" width="44" height="34" rx="4" ry="4"/>
    <g>
      <path class="cls-1" d="M850.9,681.48h7.42c.19,0,.28.09.28.28v1.76c0,.19-.09.28-.28.28h-10.56c-.19,0-.28-.09-.28-.28v-1.79c0-.13.04-.24.11-.34,2.41-3.1,4.28-5.59,5.63-7.48,1.44-2,2.16-3.59,2.16-4.79,0-.86-.24-1.54-.73-2.06-.49-.51-1.13-.77-1.93-.77s-1.41.26-1.89.77c-.48.51-.71,1.19-.69,2.03v.98c0,.19-.09.28-.28.28h-2.16c-.19,0-.28-.09-.28-.28v-1.2c.04-1.47.55-2.66,1.55-3.56,1-.9,2.26-1.34,3.79-1.34,1.06,0,2,.22,2.8.66.8.44,1.42,1.05,1.86,1.83s.66,1.67.66,2.66c0,1.66-.75,3.55-2.24,5.66-.86,1.21-2.26,3.05-4.2,5.52l-.81,1.04c-.06.09-.04.14.06.14Z"/>
      <path class="cls-1" d="M863.47,664.2h2.21c.19,0,.28.09.28.28v19.04c0,.19-.09.28-.28.28h-2.13c-.19,0-.28-.09-.28-.28v-16.41s-.01-.07-.04-.1c-.03-.03-.06-.03-.1-.01l-2.72.87-.11.03c-.11,0-.19-.08-.22-.25l-.11-1.6c0-.15.06-.26.2-.34l2.94-1.43c.11-.06.23-.08.36-.08Z"/>
    </g>
  </g>
  <g id="wv_hall_2A_22" data-name="2A/22" class="ds-stand">
    <rect class="cls-3" x="835" y="698" width="74" height="44" rx="4" ry="4"/>
    <g>
      <path class="cls-1" d="M863.24,727.48h7.42c.19,0,.28.09.28.28v1.76c0,.19-.09.28-.28.28h-10.56c-.19,0-.28-.09-.28-.28v-1.79c0-.13.04-.24.11-.34,2.41-3.1,4.28-5.59,5.63-7.48,1.44-2,2.16-3.59,2.16-4.79,0-.86-.24-1.54-.73-2.06-.49-.51-1.13-.77-1.93-.77s-1.41.26-1.89.77c-.48.51-.71,1.19-.69,2.03v.98c0,.19-.09.28-.28.28h-2.16c-.19,0-.28-.09-.28-.28v-1.2c.04-1.47.55-2.66,1.55-3.56s2.26-1.34,3.79-1.34c1.06,0,2,.22,2.8.66.8.44,1.42,1.05,1.86,1.83s.66,1.67.66,2.66c0,1.66-.75,3.55-2.24,5.66-.86,1.21-2.26,3.05-4.2,5.52l-.81,1.04c-.06.09-.04.14.06.14Z"/>
      <path class="cls-1" d="M876.68,727.48h7.42c.19,0,.28.09.28.28v1.76c0,.19-.09.28-.28.28h-10.56c-.19,0-.28-.09-.28-.28v-1.79c0-.13.04-.24.11-.34,2.41-3.1,4.28-5.59,5.63-7.48,1.44-2,2.16-3.59,2.16-4.79,0-.86-.24-1.54-.73-2.06-.49-.51-1.13-.77-1.93-.77s-1.41.26-1.89.77c-.48.51-.71,1.19-.69,2.03v.98c0,.19-.09.28-.28.28h-2.16c-.19,0-.28-.09-.28-.28v-1.2c.04-1.47.56-2.66,1.55-3.56,1-.9,2.26-1.34,3.79-1.34,1.06,0,2,.22,2.8.66.8.44,1.42,1.05,1.86,1.83.44.78.66,1.67.66,2.66,0,1.66-.75,3.55-2.24,5.66-.86,1.21-2.26,3.05-4.2,5.52l-.81,1.04c-.06.09-.04.14.06.14Z"/>
    </g>
  </g>
  <g id="wv_hall_2A_23" data-name="2A/23" class="ds-stand">
    <rect class="cls-3" x="535" y="698" width="74" height="74" rx="4" ry="4"/>
    <g>
      <path class="cls-1" d="M563.42,742.48h7.42c.19,0,.28.09.28.28v1.76c0,.19-.09.28-.28.28h-10.56c-.19,0-.28-.09-.28-.28v-1.79c0-.13.04-.24.11-.34,2.41-3.1,4.28-5.59,5.63-7.48,1.44-2,2.16-3.59,2.16-4.79,0-.86-.24-1.54-.73-2.06-.49-.51-1.13-.77-1.93-.77s-1.41.26-1.89.77c-.48.51-.71,1.19-.69,2.03v.98c0,.19-.09.28-.28.28h-2.16c-.19,0-.28-.09-.28-.28v-1.2c.04-1.47.56-2.66,1.55-3.56,1-.9,2.26-1.34,3.79-1.34,1.06,0,2,.22,2.8.66.8.44,1.42,1.05,1.86,1.83.44.78.66,1.67.66,2.66,0,1.66-.75,3.55-2.24,5.66-.86,1.21-2.26,3.05-4.2,5.52l-.81,1.04c-.06.09-.04.14.06.14Z"/>
      <path class="cls-1" d="M583.83,738.72c0,1.16-.18,2.19-.53,3.11-.39,1.05-.99,1.84-1.79,2.38-.8.54-1.8.81-3,.81-1.36,0-2.5-.36-3.42-1.08-.92-.72-1.49-1.68-1.74-2.9-.11-.56-.19-1.24-.22-2.04,0-.19.09-.28.28-.28h2.13c.19,0,.28.09.28.28.04.62.09,1.12.17,1.51.15.69.44,1.23.87,1.61.43.38.98.57,1.65.57.62,0,1.13-.16,1.54-.49s.71-.81.9-1.44c.17-.62.25-1.36.25-2.24,0-1.01-.12-1.84-.36-2.49-.21-.58-.5-1.02-.9-1.32-.39-.3-.88-.45-1.46-.45-.28,0-.58.08-.9.25-.07.04-.13.06-.17.06-.07,0-.15-.04-.22-.11l-1.09-1.18c-.06-.06-.08-.12-.08-.2s.03-.14.08-.2l4.26-5.24s.05-.07.03-.1c-.02-.03-.05-.04-.08-.04h-6.66c-.19,0-.28-.09-.28-.28v-1.76c0-.19.09-.28.28-.28h9.83c.19,0,.28.09.28.28v1.85c0,.13-.04.24-.11.34l-3.95,4.96s-.05.07-.03.1.05.04.08.04c.84.07,1.56.34,2.16.8.6.46,1.05,1.08,1.37,1.86.37.91.56,2.02.56,3.3Z"/>
    </g>
  </g>
  <g id="wv_hall_2A_24" data-name="2A/24" class="ds-stand">
    <rect class="cls-3" x="635" y="698" width="74" height="74" rx="4" ry="4"/>
    <g>
      <path class="cls-1" d="M662.89,742.48h7.42c.19,0,.28.09.28.28v1.76c0,.19-.09.28-.28.28h-10.56c-.19,0-.28-.09-.28-.28v-1.79c0-.13.04-.24.11-.34,2.41-3.1,4.28-5.59,5.63-7.48,1.44-2,2.16-3.59,2.16-4.79,0-.86-.24-1.54-.73-2.06-.49-.51-1.13-.77-1.93-.77s-1.41.26-1.89.77c-.48.51-.7,1.19-.69,2.03v.98c0,.19-.09.28-.28.28h-2.16c-.19,0-.28-.09-.28-.28v-1.2c.04-1.47.56-2.66,1.55-3.56,1-.9,2.26-1.34,3.79-1.34,1.06,0,2,.22,2.8.66.8.44,1.42,1.05,1.86,1.83.44.78.66,1.67.66,2.66,0,1.66-.75,3.55-2.24,5.66-.86,1.21-2.26,3.05-4.2,5.52l-.81,1.04c-.06.09-.04.14.06.14Z"/>
      <path class="cls-1" d="M684.73,737.41v1.88c0,.19-.09.28-.28.28h-1.04c-.07,0-.11.04-.11.11v4.84c0,.19-.09.28-.28.28h-2.13c-.19,0-.28-.09-.28-.28v-4.84c0-.07-.04-.11-.11-.11h-7.7c-.19,0-.28-.09-.28-.28v-1.54c0-.13.02-.24.06-.34l4.79-11.98c.06-.15.16-.22.31-.22h2.3c.09,0,.16.03.2.1.04.07.04.14,0,.24l-4.51,11.45s-.02.07,0,.1c.02.03.05.04.08.04h4.76c.07,0,.11-.04.11-.11v-3.98c0-.19.09-.28.28-.28h2.13c.19,0,.28.09.28.28v3.98c0,.08.04.11.11.11h1.04c.19,0,.28.09.28.28Z"/>
    </g>
  </g>
  <g id="wv_hall_2A_25" data-name="2A/25" class="ds-stand">
    <rect class="cls-3" x="735" y="698" width="74" height="74" rx="4" ry="4"/>
    <g>
      <path class="cls-1" d="M763.36,742.48h7.42c.19,0,.28.09.28.28v1.76c0,.19-.09.28-.28.28h-10.56c-.19,0-.28-.09-.28-.28v-1.79c0-.13.04-.24.11-.34,2.41-3.1,4.28-5.59,5.63-7.48,1.44-2,2.16-3.59,2.16-4.79,0-.86-.24-1.54-.73-2.06-.49-.51-1.13-.77-1.93-.77s-1.41.26-1.89.77c-.48.51-.7,1.19-.69,2.03v.98c0,.19-.09.28-.28.28h-2.16c-.19,0-.28-.09-.28-.28v-1.2c.04-1.47.55-2.66,1.55-3.56,1-.9,2.26-1.34,3.79-1.34,1.06,0,2,.22,2.8.66.8.44,1.42,1.05,1.86,1.83.44.78.66,1.67.66,2.66,0,1.66-.75,3.55-2.24,5.66-.86,1.21-2.26,3.05-4.2,5.52l-.81,1.04c-.06.09-.04.14.06.14Z"/>
      <path class="cls-1" d="M784.25,738.72c0,.97-.08,1.79-.25,2.46-.32,1.23-.92,2.18-1.81,2.84-.89.66-1.99.99-3.32.99s-2.43-.35-3.32-1.04c-.89-.69-1.48-1.66-1.78-2.91-.11-.48-.18-.86-.2-1.12v-.06c0-.15.08-.22.25-.22h2.16c.19,0,.29.09.31.28.04.3.07.5.11.59.15.69.44,1.22.87,1.58.43.36.96.55,1.6.55s1.17-.19,1.61-.56c.44-.37.73-.91.88-1.6.11-.43.17-1.02.17-1.76s-.07-1.38-.2-1.96c-.15-.63-.44-1.12-.87-1.44-.43-.33-.96-.49-1.6-.49s-1.14.14-1.58.42-.75.7-.94,1.26c-.04.15-.14.22-.31.22h-2.18c-.19,0-.28-.09-.28-.28v-11c0-.19.09-.28.28-.28h9.55c.19,0,.28.09.28.28v1.76c0,.19-.09.28-.28.28h-7.03c-.07,0-.11.04-.11.11l-.03,5.96c0,.09.05.11.14.06.37-.37.83-.66,1.36-.85.53-.2,1.1-.29,1.69-.29,1.1,0,2.03.27,2.8.8.77.53,1.3,1.3,1.6,2.31.28.92.42,1.95.42,3.11Z"/>
    </g>
  </g>
  <g id="wv_hall_2A_26" data-name="2A/26" class="ds-stand">
    <rect class="cls-3" x="535" y="778" width="74" height="74" rx="4" ry="4"/>
    <g>
      <path class="cls-1" d="M563.35,822.48h7.42c.19,0,.28.09.28.28v1.76c0,.19-.09.28-.28.28h-10.56c-.19,0-.28-.09-.28-.28v-1.79c0-.13.04-.24.11-.34,2.41-3.1,4.28-5.59,5.63-7.48,1.44-2,2.16-3.59,2.16-4.79,0-.86-.24-1.54-.73-2.06-.49-.51-1.13-.77-1.93-.77s-1.41.26-1.89.77c-.48.51-.7,1.19-.69,2.03v.98c0,.19-.09.28-.28.28h-2.16c-.19,0-.28-.09-.28-.28v-1.2c.04-1.47.56-2.66,1.55-3.56,1-.9,2.26-1.34,3.79-1.34,1.06,0,2,.22,2.8.66.8.44,1.42,1.05,1.86,1.83.44.78.66,1.67.66,2.66,0,1.66-.75,3.55-2.24,5.66-.86,1.21-2.26,3.05-4.2,5.52l-.81,1.04c-.06.09-.04.14.06.14Z"/>
      <path class="cls-1" d="M584.26,818.72c0,.95-.1,1.79-.31,2.52-.32,1.21-.91,2.15-1.76,2.8-.86.65-1.95.98-3.28.98-1.21,0-2.24-.29-3.08-.88-.84-.59-1.43-1.43-1.76-2.53-.34-.75-.5-1.68-.5-2.8l-.03-8.88c0-1.49.49-2.69,1.46-3.6s2.25-1.36,3.84-1.36c1.49,0,2.71.45,3.65,1.34.94.9,1.41,2.07,1.41,3.53v.59c0,.19-.09.28-.28.28h-2.13c-.19,0-.28-.09-.28-.28v-.39c0-.78-.23-1.43-.69-1.95-.46-.51-1.03-.77-1.72-.77-.75,0-1.36.26-1.83.77-.48.51-.71,1.19-.71,2.03v3.53s.01.07.04.08c.03.02.06,0,.1-.03.73-.84,1.7-1.26,2.91-1.26,1.14,0,2.09.3,2.84.9.76.6,1.31,1.42,1.67,2.46.3.84.45,1.81.45,2.91ZM581.55,818.67c0-.88-.09-1.59-.28-2.13-.17-.58-.46-1.03-.87-1.36-.41-.33-.92-.49-1.51-.49s-1.12.16-1.53.49c-.4.33-.69.79-.85,1.39-.17.52-.25,1.23-.25,2.13,0,.77.06,1.41.2,1.93.15.63.43,1.13.85,1.5.42.36.95.55,1.58.55s1.16-.18,1.58-.55c.42-.36.71-.89.88-1.58.13-.5.2-1.13.2-1.88Z"/>
    </g>
  </g>
  <g id="wv_hall_2A_27" data-name="2A/27" class="ds-stand">
    <rect class="cls-3" x="635" y="778" width="74" height="74" rx="4" ry="4"/>
    <g>
      <path class="cls-1" d="M663.92,822.48h7.42c.19,0,.28.09.28.28v1.76c0,.19-.09.28-.28.28h-10.56c-.19,0-.28-.09-.28-.28v-1.79c0-.13.04-.24.11-.34,2.41-3.1,4.28-5.59,5.63-7.48,1.44-2,2.16-3.59,2.16-4.79,0-.86-.24-1.54-.73-2.06-.49-.51-1.13-.77-1.93-.77s-1.41.26-1.89.77c-.48.51-.71,1.19-.69,2.03v.98c0,.19-.09.28-.28.28h-2.16c-.19,0-.28-.09-.28-.28v-1.2c.04-1.47.56-2.66,1.55-3.56,1-.9,2.26-1.34,3.79-1.34,1.06,0,2,.22,2.8.66.8.44,1.42,1.05,1.86,1.83.44.78.66,1.67.66,2.66,0,1.66-.75,3.55-2.24,5.66-.86,1.21-2.26,3.05-4.2,5.52l-.81,1.04c-.06.09-.04.14.06.14Z"/>
      <path class="cls-1" d="M675.88,824.49l5.54-16.83s.01-.07-.01-.1c-.03-.03-.06-.04-.1-.04h-5.6c-.07,0-.11.04-.11.11v1.2c0,.19-.09.28-.28.28h-1.65c-.19,0-.28-.09-.28-.28v-3.36c0-.19.09-.28.28-.28h10.33c.19,0,.28.09.28.28v1.88c0,.07-.02.19-.06.34l-5.52,16.88c-.06.15-.17.22-.34.22h-2.27c-.21,0-.28-.1-.22-.31Z"/>
    </g>
  </g>
  <g id="wv_hall_2A_28" data-name="2A/28" class="ds-stand">
    <rect class="cls-3" x="735" y="778" width="74" height="74" rx="4" ry="4"/>
    <g>
      <path class="cls-1" d="M763.26,822.48h7.42c.19,0,.28.09.28.28v1.76c0,.19-.09.28-.28.28h-10.56c-.19,0-.28-.09-.28-.28v-1.79c0-.13.04-.24.11-.34,2.41-3.1,4.28-5.59,5.63-7.48,1.44-2,2.16-3.59,2.16-4.79,0-.86-.24-1.54-.73-2.06-.49-.51-1.13-.77-1.93-.77s-1.41.26-1.89.77c-.48.51-.7,1.19-.69,2.03v.98c0,.19-.09.28-.28.28h-2.16c-.19,0-.28-.09-.28-.28v-1.2c.04-1.47.56-2.66,1.55-3.56,1-.9,2.26-1.34,3.79-1.34,1.06,0,2,.22,2.8.66.8.44,1.42,1.05,1.86,1.83.44.78.66,1.67.66,2.66,0,1.66-.75,3.55-2.24,5.66-.86,1.21-2.26,3.05-4.2,5.52l-.81,1.04c-.06.09-.04.14.06.14Z"/>
      <path class="cls-1" d="M784.04,819.26c0,1.16-.21,2.15-.62,2.97-.41.88-1.02,1.56-1.83,2.06-.81.5-1.77.74-2.87.74s-2.06-.25-2.88-.76c-.82-.5-1.44-1.21-1.85-2.13-.41-.88-.62-1.85-.62-2.91s.18-1.95.53-2.77c.37-.88.98-1.52,1.82-1.93.09-.06.09-.11,0-.17-.65-.39-1.16-.91-1.51-1.54-.47-.77-.7-1.67-.7-2.72s.21-1.92.64-2.69c.43-.78,1.05-1.4,1.85-1.85.8-.45,1.71-.67,2.72-.67s1.96.22,2.74.66c.78.44,1.38,1.06,1.79,1.86.45.8.67,1.7.67,2.69s-.23,1.91-.7,2.72c-.35.63-.86,1.15-1.51,1.54-.09.06-.1.1-.03.14.84.41,1.45,1.06,1.82,1.96.35.77.53,1.7.53,2.8ZM781.38,819.09c0-.75-.1-1.38-.31-1.9-.19-.54-.48-.96-.88-1.26-.4-.3-.89-.45-1.47-.45-1.18,0-1.96.55-2.35,1.65-.21.5-.31,1.16-.31,1.96s.13,1.52.39,2.04c.41,1.05,1.17,1.57,2.27,1.57s1.83-.51,2.24-1.54c.28-.56.42-1.25.42-2.07ZM776.17,810.3c0,.67.13,1.25.39,1.74.21.43.49.77.87,1.01.37.24.8.36,1.29.36s.94-.13,1.32-.38.66-.6.87-1.05c.24-.47.36-1.04.36-1.71,0-.58-.11-1.09-.34-1.54-.19-.47-.47-.84-.85-1.11-.38-.27-.84-.41-1.39-.41-.5,0-.95.14-1.34.42-.39.28-.68.65-.87,1.12-.21.5-.31,1.02-.31,1.54Z"/>
    </g>
  </g>
  <g id="wv_hall_2A_29" data-name="2A/29" class="ds-stand">
    <rect class="cls-3" x="835" y="786" width="74" height="90" rx="4" ry="4"/>
    <g>
      <path class="cls-1" d="M863.47,838.48h7.42c.19,0,.28.09.28.28v1.76c0,.19-.09.28-.28.28h-10.56c-.19,0-.28-.09-.28-.28v-1.79c0-.13.04-.24.11-.34,2.41-3.1,4.28-5.59,5.63-7.48,1.44-2,2.16-3.59,2.16-4.79,0-.86-.24-1.54-.73-2.06-.49-.51-1.13-.77-1.93-.77s-1.41.26-1.89.77c-.48.51-.71,1.19-.69,2.03v.98c0,.19-.09.28-.28.28h-2.16c-.19,0-.28-.09-.28-.28v-1.2c.04-1.47.56-2.66,1.55-3.56,1-.9,2.26-1.34,3.79-1.34,1.06,0,2,.22,2.8.66.8.44,1.42,1.05,1.86,1.83s.66,1.67.66,2.66c0,1.66-.75,3.55-2.24,5.66-.86,1.21-2.26,3.05-4.2,5.52l-.81,1.04c-.06.09-.04.14.06.14Z"/>
      <path class="cls-1" d="M883.77,827.19v8.88c0,1.51-.49,2.72-1.46,3.61-.97.9-2.24,1.34-3.81,1.34s-2.73-.45-3.67-1.34-1.4-2.07-1.4-3.53v-.59c0-.19.09-.28.28-.28h2.13c.19,0,.28.09.28.28v.39c0,.8.22,1.46.67,1.96.45.5,1.02.76,1.71.76.77,0,1.39-.26,1.86-.77.48-.51.71-1.19.71-2.03v-3.56s-.01-.07-.04-.08-.06,0-.1.03c-.73.86-1.7,1.29-2.91,1.29-1.14,0-2.09-.3-2.86-.9-.77-.6-1.32-1.42-1.65-2.46-.3-.77-.45-1.74-.45-2.91,0-1.05.1-1.89.31-2.52.3-1.21.88-2.15,1.74-2.8.86-.65,1.95-.98,3.28-.98,1.21,0,2.24.29,3.08.88.84.59,1.43,1.43,1.76,2.53.35.78.53,1.72.53,2.8ZM879.95,830.82c.4-.33.69-.79.85-1.39.19-.58.28-1.29.28-2.13,0-.77-.07-1.41-.2-1.93-.17-.65-.46-1.16-.88-1.51-.42-.35-.95-.53-1.58-.53s-1.14.18-1.57.55c-.43.36-.73.89-.9,1.58-.13.62-.2,1.24-.2,1.88,0,.8.09,1.51.28,2.13.39,1.23,1.19,1.85,2.38,1.85.62,0,1.12-.16,1.53-.49Z"/>
    </g>
  </g>
  <g id="wv_hall_2A_30" data-name="2A/30" class="ds-stand">
    <rect class="cls-3" x="505" y="878" width="34" height="44" rx="4" ry="4"/>
    <g>
      <path class="cls-1" d="M520.07,903.72c0,1.16-.18,2.19-.53,3.11-.39,1.05-.99,1.84-1.79,2.38s-1.8.81-3,.81c-1.36,0-2.5-.36-3.42-1.08-.91-.72-1.49-1.68-1.74-2.9-.11-.56-.19-1.24-.22-2.04,0-.19.09-.28.28-.28h2.13c.19,0,.28.09.28.28.04.62.09,1.12.17,1.51.15.69.44,1.23.87,1.61.43.38.98.57,1.65.57.62,0,1.13-.16,1.54-.49s.71-.81.9-1.44c.17-.62.25-1.36.25-2.24,0-1.01-.12-1.84-.36-2.49-.21-.58-.5-1.02-.9-1.32-.39-.3-.88-.45-1.46-.45-.28,0-.58.08-.9.25-.07.04-.13.06-.17.06-.07,0-.15-.04-.22-.11l-1.09-1.18c-.06-.06-.08-.12-.08-.2s.03-.14.08-.2l4.26-5.24s.05-.07.03-.1c-.02-.03-.05-.04-.08-.04h-6.66c-.19,0-.28-.09-.28-.28v-1.76c0-.19.09-.28.28-.28h9.83c.19,0,.28.09.28.28v1.85c0,.13-.04.24-.11.34l-3.95,4.96s-.05.07-.03.1c.02.03.05.04.08.04.84.07,1.56.34,2.16.8.6.46,1.05,1.08,1.37,1.86.37.91.56,2.02.56,3.3Z"/>
      <path class="cls-1" d="M524.51,908.57c-1.02-1.01-1.53-2.36-1.53-4.06v-9.02c0-1.68.51-3.02,1.53-4.03,1.02-1.01,2.38-1.51,4.07-1.51s3.06.5,4.09,1.51c1.03,1.01,1.54,2.35,1.54,4.03v9.02c0,1.7-.51,3.05-1.54,4.06-1.03,1.01-2.39,1.51-4.09,1.51s-3.06-.5-4.07-1.51ZM530.71,906.9c.54-.57.81-1.32.81-2.25v-9.27c0-.93-.27-1.68-.81-2.25-.54-.57-1.25-.85-2.13-.85s-1.58.28-2.11.85c-.53.57-.8,1.32-.8,2.25v9.27c0,.93.27,1.68.8,2.25.53.57,1.24.85,2.11.85s1.59-.28,2.13-.85Z"/>
    </g>
  </g>
  <g id="wv_hall_2A_31" data-name="2A/31" class="ds-stand">
    <rect class="cls-3" x="545" y="878" width="34" height="44" rx="4" ry="4"/>
    <g>
      <path class="cls-1" d="M563.11,903.72c0,1.16-.18,2.19-.53,3.11-.39,1.05-.99,1.84-1.79,2.38-.8.54-1.8.81-3,.81-1.36,0-2.5-.36-3.42-1.08-.92-.72-1.49-1.68-1.74-2.9-.11-.56-.19-1.24-.22-2.04,0-.19.09-.28.28-.28h2.13c.19,0,.28.09.28.28.04.62.09,1.12.17,1.51.15.69.44,1.23.87,1.61.43.38.98.57,1.65.57.62,0,1.13-.16,1.54-.49.41-.33.71-.81.9-1.44.17-.62.25-1.36.25-2.24,0-1.01-.12-1.84-.36-2.49-.21-.58-.5-1.02-.9-1.32-.39-.3-.88-.45-1.46-.45-.28,0-.58.08-.9.25-.08.04-.13.06-.17.06-.08,0-.15-.04-.22-.11l-1.09-1.18c-.06-.06-.08-.12-.08-.2s.03-.14.08-.2l4.26-5.24s.05-.07.03-.1c-.02-.03-.05-.04-.08-.04h-6.66c-.19,0-.28-.09-.28-.28v-1.76c0-.19.09-.28.28-.28h9.83c.19,0,.28.09.28.28v1.85c0,.13-.04.24-.11.34l-3.95,4.96s-.05.07-.03.1c.02.03.05.04.08.04.84.07,1.56.34,2.16.8.6.46,1.05,1.08,1.37,1.86.37.91.56,2.02.56,3.3Z"/>
      <path class="cls-1" d="M568.34,890.2h2.21c.19,0,.28.09.28.28v19.04c0,.19-.09.28-.28.28h-2.13c-.19,0-.28-.09-.28-.28v-16.41s-.01-.07-.04-.1c-.03-.03-.06-.03-.1-.01l-2.72.87-.11.03c-.11,0-.19-.08-.22-.25l-.11-1.6c0-.15.07-.26.2-.34l2.94-1.43c.11-.06.23-.08.36-.08Z"/>
    </g>
  </g>
  <g id="wv_hall_2A_32" data-name="2A/32" class="ds-stand">
    <rect class="cls-3" x="585" y="878" width="34" height="44" rx="4" ry="4"/>
    <g>
      <path class="cls-1" d="M600.45,903.72c0,1.16-.18,2.19-.53,3.11-.39,1.05-.99,1.84-1.79,2.38-.8.54-1.8.81-3,.81-1.36,0-2.5-.36-3.42-1.08-.92-.72-1.49-1.68-1.74-2.9-.11-.56-.19-1.24-.22-2.04,0-.19.09-.28.28-.28h2.13c.19,0,.28.09.28.28.04.62.09,1.12.17,1.51.15.69.44,1.23.87,1.61.43.38.98.57,1.65.57.62,0,1.13-.16,1.54-.49.41-.33.71-.81.9-1.44.17-.62.25-1.36.25-2.24,0-1.01-.12-1.84-.36-2.49-.21-.58-.5-1.02-.9-1.32-.39-.3-.88-.45-1.46-.45-.28,0-.58.08-.9.25-.08.04-.13.06-.17.06-.08,0-.15-.04-.22-.11l-1.09-1.18c-.06-.06-.08-.12-.08-.2s.03-.14.08-.2l4.26-5.24s.05-.07.03-.1c-.02-.03-.05-.04-.08-.04h-6.66c-.19,0-.28-.09-.28-.28v-1.76c0-.19.09-.28.28-.28h9.83c.19,0,.28.09.28.28v1.85c0,.13-.04.24-.11.34l-3.95,4.96s-.05.07-.03.1c.02.03.05.04.08.04.84.07,1.56.34,2.16.8.6.46,1.05,1.08,1.37,1.86.37.91.56,2.02.56,3.3Z"/>
      <path class="cls-1" d="M606.55,907.48h7.42c.19,0,.28.09.28.28v1.76c0,.19-.09.28-.28.28h-10.56c-.19,0-.28-.09-.28-.28v-1.79c0-.13.04-.24.11-.34,2.41-3.1,4.28-5.59,5.63-7.48,1.44-2,2.16-3.59,2.16-4.79,0-.86-.24-1.54-.73-2.06-.49-.51-1.13-.77-1.93-.77s-1.41.26-1.89.77c-.48.51-.7,1.19-.69,2.03v.98c0,.19-.09.28-.28.28h-2.16c-.19,0-.28-.09-.28-.28v-1.2c.04-1.47.55-2.66,1.55-3.56,1-.9,2.26-1.34,3.79-1.34,1.06,0,2,.22,2.8.66.8.44,1.42,1.05,1.86,1.83.44.78.66,1.67.66,2.66,0,1.66-.75,3.55-2.24,5.66-.86,1.21-2.26,3.05-4.2,5.52l-.81,1.04c-.06.09-.04.14.06.14Z"/>
    </g>
  </g>
  <g id="wv_hall_2A_33" data-name="2A/33" class="ds-stand">
    <rect class="cls-3" x="625" y="878" width="34" height="44" rx="4" ry="4"/>
    <g>
      <path class="cls-1" d="M640.57,903.72c0,1.16-.18,2.19-.53,3.11-.39,1.05-.99,1.84-1.79,2.38s-1.8.81-3,.81c-1.36,0-2.5-.36-3.42-1.08-.91-.72-1.49-1.68-1.74-2.9-.11-.56-.19-1.24-.22-2.04,0-.19.09-.28.28-.28h2.13c.19,0,.28.09.28.28.04.62.09,1.12.17,1.51.15.69.44,1.23.87,1.61.43.38.98.57,1.65.57.62,0,1.13-.16,1.54-.49s.71-.81.9-1.44c.17-.62.25-1.36.25-2.24,0-1.01-.12-1.84-.36-2.49-.21-.58-.5-1.02-.9-1.32-.39-.3-.88-.45-1.46-.45-.28,0-.58.08-.9.25-.07.04-.13.06-.17.06-.07,0-.15-.04-.22-.11l-1.09-1.18c-.06-.06-.08-.12-.08-.2s.03-.14.08-.2l4.26-5.24s.05-.07.03-.1c-.02-.03-.05-.04-.08-.04h-6.66c-.19,0-.28-.09-.28-.28v-1.76c0-.19.09-.28.28-.28h9.83c.19,0,.28.09.28.28v1.85c0,.13-.04.24-.11.34l-3.95,4.96s-.05.07-.03.1c.02.03.05.04.08.04.84.07,1.56.34,2.16.8.6.46,1.05,1.08,1.37,1.86.37.91.56,2.02.56,3.3Z"/>
      <path class="cls-1" d="M653.76,903.72c0,1.16-.18,2.19-.53,3.11-.39,1.05-.99,1.84-1.79,2.38-.8.54-1.8.81-3,.81-1.36,0-2.5-.36-3.42-1.08-.91-.72-1.49-1.68-1.74-2.9-.11-.56-.19-1.24-.22-2.04,0-.19.09-.28.28-.28h2.13c.19,0,.28.09.28.28.04.62.09,1.12.17,1.51.15.69.44,1.23.87,1.61.43.38.98.57,1.65.57.62,0,1.13-.16,1.54-.49s.71-.81.9-1.44c.17-.62.25-1.36.25-2.24,0-1.01-.12-1.84-.36-2.49-.21-.58-.5-1.02-.9-1.32-.39-.3-.88-.45-1.46-.45-.28,0-.58.08-.9.25-.07.04-.13.06-.17.06-.07,0-.15-.04-.22-.11l-1.09-1.18c-.06-.06-.08-.12-.08-.2s.03-.14.08-.2l4.26-5.24s.05-.07.03-.1c-.02-.03-.05-.04-.08-.04h-6.66c-.19,0-.28-.09-.28-.28v-1.76c0-.19.09-.28.28-.28h9.83c.19,0,.28.09.28.28v1.85c0,.13-.04.24-.11.34l-3.95,4.96s-.05.07-.03.1.05.04.08.04c.84.07,1.56.34,2.16.8.6.46,1.05,1.08,1.37,1.86.37.91.56,2.02.56,3.3Z"/>
    </g>
  </g>
  <g id="wv_hall_2A_34" data-name="2A/34" class="ds-stand">
    <rect class="cls-3" x="665" y="878" width="34" height="44" rx="4" ry="4"/>
    <g>
      <path class="cls-1" d="M680.1,903.72c0,1.16-.18,2.19-.53,3.11-.39,1.05-.99,1.84-1.79,2.38-.8.54-1.8.81-3,.81-1.36,0-2.5-.36-3.42-1.08-.92-.72-1.49-1.68-1.74-2.9-.11-.56-.19-1.24-.22-2.04,0-.19.09-.28.28-.28h2.13c.19,0,.28.09.28.28.04.62.09,1.12.17,1.51.15.69.44,1.23.87,1.61.43.38.98.57,1.65.57.62,0,1.13-.16,1.54-.49.41-.33.71-.81.9-1.44.17-.62.25-1.36.25-2.24,0-1.01-.12-1.84-.36-2.49-.21-.58-.5-1.02-.9-1.32-.39-.3-.88-.45-1.46-.45-.28,0-.58.08-.9.25-.08.04-.13.06-.17.06-.07,0-.15-.04-.22-.11l-1.09-1.18c-.06-.06-.08-.12-.08-.2s.03-.14.08-.2l4.26-5.24s.05-.07.03-.1c-.02-.03-.05-.04-.08-.04h-6.66c-.19,0-.28-.09-.28-.28v-1.76c0-.19.09-.28.28-.28h9.83c.19,0,.28.09.28.28v1.85c0,.13-.04.24-.11.34l-3.95,4.96s-.05.07-.03.1.05.04.08.04c.84.07,1.56.34,2.16.8.6.46,1.05,1.08,1.37,1.86.37.91.56,2.02.56,3.3Z"/>
      <path class="cls-1" d="M694.6,902.41v1.88c0,.19-.09.28-.28.28h-1.04c-.08,0-.11.04-.11.11v4.84c0,.19-.09.28-.28.28h-2.13c-.19,0-.28-.09-.28-.28v-4.84c0-.07-.04-.11-.11-.11h-7.7c-.19,0-.28-.09-.28-.28v-1.54c0-.13.02-.24.06-.34l4.79-11.98c.06-.15.16-.22.31-.22h2.3c.09,0,.16.03.2.1.04.07.04.14,0,.24l-4.51,11.45s-.02.07,0,.1c.02.03.05.04.08.04h4.76c.07,0,.11-.04.11-.11v-3.98c0-.19.09-.28.28-.28h2.13c.19,0,.28.09.28.28v3.98c0,.08.04.11.11.11h1.04c.19,0,.28.09.28.28Z"/>
    </g>
  </g>
</svg>