<?xml version="1.0" encoding="UTF-8"?>
<svg id="wv_hall_nav" data-name="Layer 2" xmlns="http://www.w3.org/2000/svg" viewBox="0 0 1068 180" class="hall-nav-svg">
  <g id="Frame">
    <path class="cls-2" d="M1068,144V36c0-3.31-2.69-6-6-6h-148c-3.31,0-6,2.69-6,6v34h-8.26C890.64,29.93,854.83,0,812,0s-78.64,29.93-87.74,70h-8.26v-19c0-3.31-2.69-6-6-6h-88c-3.31,0-6,2.69-6,6v19h-10v-34c0-3.31-2.69-6-6-6h-88c-3.31,0-6,2.69-6,6v34h-10v-34c0-3.31-2.69-6-6-6h-88c-3.31,0-6,2.69-6,6v34h-10v-34c0-3.31-2.69-6-6-6h-88c-3.31,0-6,2.69-6,6v34h-10v-19c0-3.31-2.69-6-6-6h-88c-3.31,0-6,2.69-6,6v19h-8.34c-3.01-12.58-8.82-24.06-17.01-34-3.32-4.03-7.64-6-14.64-6H34c-7,0-11.32,1.97-14.64,6C7,51,0,69.49,0,90s7,39,19.36,54c3.32,4.03,7.64,6,14.64,6h102c7,0,11.32-1.97,14.64-6,8.19-9.94,14.01-21.42,17.01-34h8.34v19c0,3.31,2.69,6,6,6h88c3.31,0,6-2.69,6-6v-19h10v34c0,3.31,2.69,6,6,6h88c3.31,0,6-2.69,6-6v-34h10v34c0,3.31,2.69,6,6,6h88c3.31,0,6-2.69,6-6v-34h10v34c0,3.31,2.69,6,6,6h88c3.31,0,6-2.69,6-6v-34h10v19c0,3.31,2.69,6,6,6h88c3.31,0,6-2.69,6-6v-19h8.26c9.1,40.08,44.91,70,87.74,70s78.64-29.93,87.74-70h8.26v34c0,3.31,2.69,6,6,6h148c3.31,0,6-2.69,6-6h0Z"/>
  </g>
  <g id="wv-nav-hall_4B" data-name="4B" class="wv-nav-hall wv-nav-hall-zones">
    <path class="cls-3" d="M996,40c-1.66,0-3,1.34-3,3v94c0,1.66,1.34,3,3,3h59c1.66,0,3-1.34,3-3V43c0-1.66-1.34-3-3-3h-59Z"/>
    <path class="cls-1" d="M1014.25,101.4h9.35v6.6h3.6v-6.6h2.45v-3.5h-2.45v-24.9h-4.95l-8,24.8v3.6h0ZM1023.6,97.9h-5.85l5.85-18.55v18.55h0Z"/>
    <path class="cls-1" d="M1040.11,85.11c1.44-.54,2.19-1.69,2.19-3.92v-3.71c0-3.13-1.54-4.68-4.68-4.68h-5.25v25.2h5.33c3.13,0,4.68-1.55,4.68-4.68v-4.25c0-2.23-.8-3.38-2.27-3.96h0ZM1039.46,77.3v4.43c0,1.44-.68,2.12-2.12,2.12h-2.13v-8.46h2.34c1.3,0,1.91.61,1.91,1.91h0ZM1035.21,86.41h2.2c1.44,0,2.12.68,2.12,2.12v4.97c0,1.3-.61,1.91-1.91,1.91h-2.41v-9h0Z"/>
  </g>
  <g id="wv-nav-hall_4A" data-name="4A" class="wv-nav-hall wv-nav-hall-zones">
    <path class="cls-3" d="M921,40c-1.66,0-3,1.34-3,3v94c0,1.66,1.34,3,3,3h59c1.66,0,3-1.34,3-3V43c0-1.66-1.34-3-3-3h-59Z"/>
    <path class="cls-1" d="M939.25,101.4h9.35v6.6h3.6v-6.6h2.45v-3.5h-2.45v-24.9h-4.95l-8,24.8v3.6h0ZM948.6,97.9h-5.85l5.85-18.55v18.55h0Z"/>
    <path class="cls-1" d="M968.06,98l-3.89-25.27h-3.67l-3.89,25.27h2.77l.58-4.21h4.64l.61,4.21h2.84ZM962.26,77.23l1.98,13.97h-3.92l1.94-13.97h0Z"/>
  </g>
  <g id="wv-nav-hall_1" data-name="1" class="wv-nav-hall wv-nav-hall-zones">
    <path class="cls-3" d="M812,125c19.33,0,35-15.67,35-35s-15.67-35-35-35-35,15.67-35,35,15.67,35,35,35h0Z"/>
    <path class="cls-1" d="M814.55,72.85h-2.05l-.6.8c-1.15,1.55-2.15,2.2-4.05,2.45l-.4.05v3.1h3.3v28.75h3.8v-35.15h0Z"/>
  </g>
  <g id="wv-nav-hall_1G" data-name="1G" class="wv-nav-hall wv-nav-hall-zones">
    <path class="cls-3" d="M892,90c0-44.18-35.82-80-80-80s-80,35.82-80,80,35.82,80,80,80,80-35.82,80-80h0ZM856.44,90c0,24.55-19.9,44.45-44.44,44.45s-44.44-19.9-44.44-44.45,19.9-44.44,44.44-44.44,44.44,19.9,44.44,44.44h0Z"/>
    <path class="cls-1" d="M868.6,72.85h-2.05l-.6.8c-1.15,1.55-2.15,2.2-4.05,2.45l-.4.05v3.1h3.3v28.75h3.8v-35.15h0Z"/>
    <path class="cls-1" d="M880.93,87.24v6.44c0,1.3-.61,1.91-1.91,1.91h-.94c-1.3,0-1.91-.61-1.91-1.91v-16.56c0-1.3.61-1.91,1.91-1.91h.86c1.3,0,1.91.61,1.91,1.91v3.53h2.81v-3.46c0-3.06-1.51-4.61-4.61-4.61h-1.08c-3.13,0-4.68,1.55-4.68,4.68v16.27c0,3.13,1.55,4.68,4.68,4.68h1.08c3.13,0,4.68-1.55,4.68-4.68v-8.93h-5.15v2.63h2.34Z"/>
  </g>
  <g id="wv-nav-hall_1A" data-name="1A" class="wv-nav-hall wv-nav-hall-zones">
    <path class="cls-3" d="M629,55c-1.66,0-3,1.34-3,3v64c0,1.66,1.34,3,3,3h74c1.66,0,3-1.34,3-3V58c0-1.66-1.34-3-3-3h-74Z"/>
    <path class="cls-1" d="M667.6,72.85h-2.05l-.6.8c-1.15,1.55-2.15,2.2-4.05,2.45l-.4.05v3.1h3.3v28.75h3.8v-35.15h0Z"/>
    <path class="cls-1" d="M683.06,98l-3.89-25.27h-3.67l-3.89,25.27h2.77l.58-4.21h4.64l.61,4.21h2.84ZM677.26,77.23l1.98,13.97h-3.92l1.94-13.97h0Z"/>
  </g>
  <g id="wv-nav-hall_2C" data-name="2C" class="wv-nav-hall wv-nav-hall-zones">
    <path class="cls-3" d="M519,40c-1.66,0-3,1.34-3,3v94c0,1.66,1.34,3,3,3h74c1.66,0,3-1.34,3-3V43c0-1.66-1.34-3-3-3h-74Z"/>
    <path class="cls-1" d="M547.3,95.2c-2.1,2.6-2.7,4.3-2.7,6.8v6h13.9v-3.7h-9.9v-2.05c0-2.1.3-3,1.65-4.65l5.65-7.1c2.1-2.6,2.6-4.4,2.6-6.8v-4.5c0-4.35-2.15-6.5-6.4-6.5h-1c-4.25,0-6.4,2.15-6.4,6.5v6.4h3.9v-6.6c0-1.8.85-2.65,2.55-2.65h.8c1.7,0,2.55.85,2.55,2.65v5.3c0,1.45-.35,2.3-1.55,3.8l-5.65,7.1h0Z"/>
    <path class="cls-1" d="M569.78,88.32v5.36c0,1.3-.61,1.91-1.91,1.91h-.79c-1.3,0-1.91-.61-1.91-1.91v-16.56c0-1.3.61-1.91,1.91-1.91h.72c1.3,0,1.91.61,1.91,1.91v4.61h2.81v-4.54c0-3.1-1.51-4.61-4.61-4.61h-.94c-3.13,0-4.68,1.55-4.68,4.68v16.27c0,3.13,1.55,4.68,4.68,4.68h.94c3.13,0,4.68-1.55,4.68-4.68v-5.22h-2.81Z"/>
  </g>
  <g id="wv-nav-hall_2A" data-name="2A" class="wv-nav-hall wv-nav-hall-zones">
    <path class="cls-3" d="M409,40c-1.66,0-3,1.34-3,3v94c0,1.66,1.34,3,3,3h74c1.66,0,3-1.34,3-3V43c0-1.66-1.34-3-3-3h-74Z"/>
    <path class="cls-1" d="M437.3,95.2c-2.1,2.6-2.7,4.3-2.7,6.8v6h13.9v-3.7h-9.9v-2.05c0-2.1.3-3,1.65-4.65l5.65-7.1c2.1-2.6,2.6-4.4,2.6-6.8v-4.5c0-4.35-2.15-6.5-6.4-6.5h-1c-4.25,0-6.4,2.15-6.4,6.5v6.4h3.9v-6.6c0-1.8.85-2.65,2.55-2.65h.8c1.7,0,2.55.85,2.55,2.65v5.3c0,1.45-.35,2.3-1.55,3.8l-5.65,7.1h0Z"/>
    <path class="cls-1" d="M463.06,98l-3.89-25.27h-3.67l-3.89,25.27h2.77l.58-4.21h4.64l.61,4.21h2.84ZM457.26,77.23l1.98,13.97h-3.92l1.94-13.97h0Z"/>
  </g>
  <g id="wv-nav-hall_2B" data-name="2B" class="wv-nav-hall wv-nav-hall-zones">
    <path class="cls-3" d="M299,40c-1.66,0-3,1.34-3,3v94c0,1.66,1.34,3,3,3h74c1.66,0,3-1.34,3-3V43c0-1.66-1.34-3-3-3h-74Z"/>
    <path class="cls-1" d="M327.3,95.2c-2.1,2.6-2.7,4.3-2.7,6.8v6h13.9v-3.7h-9.9v-2.05c0-2.1.3-3,1.65-4.65l5.65-7.1c2.1-2.6,2.6-4.4,2.6-6.8v-4.5c0-4.35-2.15-6.5-6.4-6.5h-1c-4.25,0-6.4,2.15-6.4,6.5v6.4h3.9v-6.6c0-1.8.85-2.65,2.55-2.65h.8c1.7,0,2.55.85,2.55,2.65v5.3c0,1.45-.35,2.3-1.55,3.8l-5.65,7.1h0Z"/>
    <path class="cls-1" d="M350.11,85.11c1.44-.54,2.2-1.69,2.2-3.92v-3.71c0-3.13-1.55-4.68-4.68-4.68h-5.26v25.2h5.33c3.13,0,4.68-1.55,4.68-4.68v-4.25c0-2.23-.79-3.38-2.27-3.96h0ZM349.46,77.3v4.43c0,1.44-.68,2.12-2.12,2.12h-2.12v-8.46h2.34c1.3,0,1.91.61,1.91,1.91h0ZM345.21,86.41h2.2c1.44,0,2.12.68,2.12,2.12v4.97c0,1.3-.61,1.91-1.91,1.91h-2.41v-9h0Z"/>
  </g>
  <g id="wv-nav-hall_3A" data-name="3A" class="wv-nav-hall wv-nav-hall-zones">
    <path class="cls-3" d="M189,55c-1.66,0-3,1.34-3,3v64c0,1.66,1.34,3,3,3h74c1.66,0,3-1.34,3-3V58c0-1.66-1.34-3-3-3h-74Z"/>
    <path class="cls-1" d="M224.25,102c0,1.8-.85,2.65-2.65,2.65h-1c-1.8,0-2.65-.85-2.65-2.65v-5.65h-3.9v5.55c0,4.3,2.1,6.4,6.4,6.4h1.3c4.35,0,6.5-2.15,6.5-6.5v-7.4c0-2.55-.9-3.9-3-4.5,1.85-.7,2.9-2.2,2.9-5.2v-5.5c0-4.35-2.15-6.5-6.5-6.5h-1c-4.35,0-6.5,2.15-6.5,6.5v4.8h3.9v-5c0-1.8.85-2.65,2.55-2.65h1c1.7,0,2.55.85,2.55,2.65v6.7c0,1.8-.85,2.65-2.55,2.65h-3.95v3.7h4.05c1.7,0,2.55.85,2.55,2.65v7.3h0Z"/>
    <path class="cls-1" d="M243.06,98l-3.89-25.27h-3.67l-3.89,25.27h2.77l.58-4.21h4.64l.61,4.21h2.84ZM237.26,77.23l1.98,13.97h-3.92l1.94-13.97h0Z"/>
  </g>
  <g id="wv-nav-hall_3" data-name="3" class="wv-nav-hall wv-nav-hall-zones">
    <path class="cls-3" d="M160,90c0-17.09-5.83-32.5-16.13-45-2.77-3.36-4.7-5-10.54-5H36.67c-5.83,0-7.77,1.64-10.53,5-10.3,12.5-16.13,27.91-16.13,45s5.83,32.5,16.13,45c2.77,3.36,4.7,5,10.53,5h96.67c5.83,0,7.77-1.64,10.54-5,10.3-12.5,16.13-27.91,16.13-45h0Z"/>
    <path class="cls-1" d="M87.93,102c0,1.8-.85,2.65-2.65,2.65h-1c-1.8,0-2.65-.85-2.65-2.65v-5.65h-3.9v5.55c0,4.3,2.1,6.4,6.4,6.4h1.3c4.35,0,6.5-2.15,6.5-6.5v-7.4c0-2.55-.9-3.9-3-4.5,1.85-.7,2.9-2.2,2.9-5.2v-5.5c0-4.35-2.15-6.5-6.5-6.5h-1c-4.35,0-6.5,2.15-6.5,6.5v4.8h3.9v-5c0-1.8.85-2.65,2.55-2.65h1c1.7,0,2.55.85,2.55,2.65v6.7c0,1.8-.85,2.65-2.55,2.65h-3.95v3.7h4.05c1.7,0,2.55.85,2.55,2.65v7.3h0Z"/>
  </g>
</svg>