<?xml version="1.0" encoding="UTF-8"?>
<svg id="wv_hall_4A" data-name="Hall 4A" xmlns="http://www.w3.org/2000/svg" viewBox="0 0 1300 1300" class="hall-svg h-auto">
  <g id="wv_hall_1300" data-name="1300">
    <rect class="cls-2" width="1300" height="1300"/>
  </g>
  <g id="HALL">
    <g>
      <path class="cls-3" d="M236.25,540.5h30c.28,0,.5-.22.5-.5v-9.5h129.5c.28,0,.5-.22.5-.5V220.5h550v379.5c0,.28.22.5.5.5h30c.28,0,.5-.22.5-.5s-.22-.5-.5-.5h-29.5V220c0-.28-.22-.5-.5-.5H396.25c-.28,0-.5.22-.5.5v309.5h-129.5c-.28,0-.5.22-.5.5v9.5h-29.5c-.28,0-.5.22-.5.5s.22.5.5.5Z"/>
      <path class="cls-3" d="M977.25,709.5h-30c-.28,0-.5.22-.5.5v369.5H396.75v-309.5c0-.28-.22-.5-.5-.5h-159.28c16.64-43.89,26.93-92.1,29.77-139.47,0-.14-.04-.27-.13-.37-.09-.1-.23-.16-.36-.16h-30c-.28,0-.5.22-.5.5s.22.5.5.5h29.47c-2.9,47.34-13.24,95.5-29.94,139.32-.06.15-.04.33.05.46.09.14.25.22.41.22h159.5v309.5c0,.28.22.5.5.5h551c.28,0,.5-.22.5-.5v-369.5h29.5c.28,0,.5-.22.5-.5s-.22-.5-.5-.5Z"/>
      <path class="cls-3" d="M620.25,359.5c-16.82,0-30.5,13.68-30.5,30.5s13.68,30.5,30.5,30.5,30.5-13.68,30.5-30.5-13.68-30.5-30.5-30.5ZM620.25,419.5c-16.27,0-29.5-13.23-29.5-29.5s13.23-29.5,29.5-29.5,29.5,13.23,29.5,29.5-13.23,29.5-29.5,29.5Z"/>
      <path class="cls-3" d="M620.25,879.5c-16.82,0-30.5,13.68-30.5,30.5s13.68,30.5,30.5,30.5,30.5-13.68,30.5-30.5-13.68-30.5-30.5-30.5ZM620.25,939.5c-16.27,0-29.5-13.23-29.5-29.5s13.23-29.5,29.5-29.5,29.5,13.23,29.5,29.5-13.23,29.5-29.5,29.5Z"/>
      <path class="cls-3" d="M396.75,554c0-2.48-2.02-4.5-4.5-4.5h-82c-2.48,0-4.5,2.02-4.5,4.5v32c0,2.48,2.02,4.5,4.5,4.5h82c2.48,0,4.5-2.02,4.5-4.5v-32ZM395.75,586c0,1.93-1.57,3.5-3.5,3.5h-82c-1.93,0-3.5-1.57-3.5-3.5v-32c0-1.93,1.57-3.5,3.5-3.5h82c1.93,0,3.5,1.57,3.5,3.5v32Z"/>
      <path class="cls-3" d="M305.75,674v72c0,2.48,2.02,4.5,4.5,4.5h82c2.48,0,4.5-2.02,4.5-4.5v-72c0-2.48-2.02-4.5-4.5-4.5h-82c-2.48,0-4.5,2.02-4.5,4.5ZM395.75,674v72c0,1.93-1.57,3.5-3.5,3.5h-82c-1.93,0-3.5-1.57-3.5-3.5v-72c0-1.93,1.57-3.5,3.5-3.5h82c1.93,0,3.5,1.57,3.5,3.5Z"/>
      <path class="cls-3" d="M457.25,604.5h-22c-2.36,0-5.27,1.65-6.49,3.67l-10.88,18.14c-1.22,2.03-1.22,5.34,0,7.37l10.88,18.14c1.21,2.03,4.12,3.67,6.49,3.67h22c2.36,0,5.27-1.65,6.49-3.67l10.88-18.14c1.22-2.03,1.22-5.34,0-7.37l-10.88-18.14c-1.21-2.02-4.12-3.67-6.49-3.67ZM473.76,633.17l-10.88,18.14c-1.04,1.73-3.61,3.19-5.63,3.19h-22c-2.01,0-4.59-1.46-5.63-3.19l-10.88-18.14c-1.03-1.72-1.03-4.63,0-6.35l10.88-18.14c1.04-1.73,3.61-3.19,5.63-3.19h22c2.01,0,4.59,1.46,5.63,3.19l10.88,18.14c1.03,1.72,1.03,4.63,0,6.35Z"/>
      <path class="cls-3" d="M326.25,650.5s0,0,0,0,0,0,0,0h5s0,0,0,0,0,0,0,0h5s0,0,0,0,0,0,0,0h45c.28,0,.5-.22.5-.5v-40c0-.28-.22-.5-.5-.5h-5s0,0,0,0,0,0,0,0h-5s0,0,0,0,0,0,0,0h-5s0,0,0,0,0,0,0,0h-5s0,0,0,0,0,0,0,0h-5s0,0,0,0,0,0,0,0h-5s0,0,0,0,0,0,0,0h-5s0,0,0,0,0,0,0,0h-5s0,0,0,0,0,0,0,0h-20c-.28,0-.5.22-.5.5v40c0,.28.22.5.5.5h5ZM321.75,630.5h4v19h-4v-19ZM336.75,630.5h4v19h-4v-19ZM335.75,649.5h-4v-19h4v19ZM341.75,630.5h4v19h-4v-19ZM346.75,630.5h4v19h-4v-19ZM351.75,630.5h4v19h-4v-19ZM356.75,630.5h4v19h-4v-19ZM361.75,630.5h4v19h-4v-19ZM366.75,630.5h4v19h-4v-19ZM371.75,630.5h4v19h-4v-19ZM371.75,629.5v-19h4v19h-4ZM370.75,629.5h-4v-19h4v19ZM365.75,629.5h-4v-19h4v19ZM360.75,629.5h-4v-19h4v19ZM355.75,629.5h-4v-19h4v19ZM350.75,629.5h-4v-19h4v19ZM345.75,629.5h-4v-19h4v19ZM340.75,629.5h-4v-19h4v19ZM335.75,629.5h-4v-19h4v19ZM330.75,629.5h-4v-19h4v19ZM330.75,630.5v19h-4v-19h4ZM376.75,649.5v-19h4v19h-4ZM380.75,629.5h-4v-19h4v19ZM325.75,610.5v19h-4v-19h4Z"/>
    </g>
  </g>
  <g id="Signage">
    <g>
      <path class="cls-3" d="M461.75,627c0-3.13-1.17-7.06-2.52-10,0,0-.48-1-1.48-1h-8.7c-.26-.7-.54-1.37-.82-2,0,0-.48-1-1.48-1h-12c-1,0-1.48,1-1.48,1-1.35,2.94-2.52,6.87-2.52,10,0,6.94,4.59,10.73,9.5,10.98v11.02h-3.5c-.28,0-.5.22-.5.5s.22.5.5.5h8c.28,0,.5-.22.5-.5s-.22-.5-.5-.5h-3.5v-11.02c.99-.05,1.96-.25,2.89-.58,1.8,2.23,4.4,3.45,7.11,3.58v8.02h-3.5c-.28,0-.5.22-.5.5s.22.5.5.5h8c.28,0,.5-.22.5-.5s-.22-.5-.5-.5h-3.5v-8.02c4.91-.24,9.5-4.03,9.5-10.98ZM440.75,634c-4.33,0-9-3.13-9-10,0-3.16,1.25-7.02,2.42-9.55,0,0,.23-.45.58-.45h12c.34,0,.57.42.57.42h0c.22.48.44,1.02.66,1.58h-2.23c-1,0-1.48,1-1.48,1-1.35,2.94-2.52,6.87-2.52,10,0,2.65.67,4.84,1.78,6.55-.91.29-1.85.45-2.78.45ZM444.46,633.19c-1.05-1.56-1.71-3.61-1.71-6.19,0-3.16,1.25-7.02,2.42-9.55,0,0,.23-.45.58-.45h2.6c.78,2.22,1.4,4.78,1.4,7,0,4.89-2.36,7.87-5.29,9.19ZM451.75,637c-2.41,0-4.91-.97-6.67-3,3.23-1.56,5.67-4.93,5.67-10,0-2.15-.56-4.67-1.34-7h8.34c.34,0,.57.42.57.42h0c1.17,2.56,2.43,6.43,2.43,9.58,0,6.87-4.67,10-9,10Z"/>
      <polygon class="cls-3" points="256.32 583.62 257.81 585.3 263.83 579.65 264.69 579.65 264.69 596 267.13 596 267.13 577.32 262.96 577.32 256.32 583.62"/>
      <path class="cls-3" d="M244.72,571.42l-8.18,13.4c-.2.33-.3.76-.29,1.18,0,.43.09.86.29,1.18l8.18,13.4c.39.64,1.53.6,1.53-.48v-28.21c0-1.08-1.14-1.11-1.53-.48Z"/>
    </g>
    <g>
      <path class="cls-3" d="M963.44,661.08h-3.33v3.92h-2.44v-3.92h-15.85v-4.31l13.94-10.44h4.34v12.63h3.33v2.13ZM957.67,648.45h-1.04l-12.38,9.44v1.06h13.41v-10.5Z"/>
      <path class="cls-3" d="M965.5,646.68h6.7c3.09.01,3.19.01,3.71.27.69.32.95.94.95,2.17,0,1.33-.32,1.88-1.26,2.14,1.23.21,1.61.76,1.61,2.25,0,1.3-.34,1.97-1.12,2.28-.32.11-.85.18-1.69.21-.11,0-.84,0-2.18.01h-6.72v-9.33ZM972.2,650.36c.97,0,1.39-.03,1.57-.1.22-.08.33-.32.33-.67,0-.38-.13-.59-.41-.66-.15-.04-.18-.04-1.5-.06h-4v1.48h4ZM972.21,653.77q1.67-.01,1.88-.1c.25-.1.36-.31.36-.71s-.13-.62-.42-.7q-.15-.04-1.82-.04h-4.02v1.55h4.02Z"/>
    </g>
    <path class="cls-3" d="M989.78,669.58l8.18-13.4c.2-.33.3-.76.29-1.18,0-.43-.09-.86-.29-1.18l-8.18-13.4c-.39-.64-1.53-.6-1.53.48v28.21c0,1.08,1.14,1.11,1.53.48Z"/>
  </g>
  <g id="wv_hall_4A_01" data-name="4/01" class="ds-stand">
    <rect class="cls-3" x="424.25" y="443" width="44" height="74" rx="4" ry="4"/>
    <g>
      <path class="cls-1" d="M437.99,488.57c-1.02-1.01-1.53-2.36-1.53-4.06v-9.02c0-1.68.51-3.02,1.53-4.03,1.02-1.01,2.38-1.51,4.07-1.51s3.06.5,4.09,1.51c1.03,1.01,1.54,2.35,1.54,4.03v9.02c0,1.7-.51,3.05-1.54,4.06-1.03,1.01-2.39,1.51-4.09,1.51s-3.06-.5-4.07-1.51ZM444.19,486.9c.54-.57.81-1.32.81-2.25v-9.27c0-.93-.27-1.68-.81-2.25-.54-.57-1.25-.85-2.13-.85s-1.58.28-2.11.85-.8,1.32-.8,2.25v9.27c0,.93.27,1.68.8,2.25s1.24.85,2.11.85,1.59-.28,2.13-.85Z"/>
      <path class="cls-1" d="M453.21,470.2h2.21c.19,0,.28.09.28.28v19.04c0,.19-.09.28-.28.28h-2.13c-.19,0-.28-.09-.28-.28v-16.41s-.01-.07-.04-.1c-.03-.03-.06-.03-.1-.01l-2.72.87-.11.03c-.11,0-.19-.08-.22-.25l-.11-1.6c0-.15.06-.26.2-.34l2.94-1.43c.11-.06.23-.08.36-.08Z"/>
    </g>
  </g>
  <g id="wv_hall_4A_02" data-name="4/02" class="ds-stand">
    <rect class="cls-3" x="424.25" y="403" width="44" height="34" rx="4" ry="4"/>
    <g>
      <path class="cls-1" d="M435.44,428.57c-1.02-1.01-1.53-2.36-1.53-4.06v-9.02c0-1.68.51-3.02,1.53-4.03,1.02-1.01,2.38-1.51,4.07-1.51s3.06.5,4.09,1.51c1.03,1.01,1.54,2.35,1.54,4.03v9.02c0,1.7-.51,3.05-1.54,4.06-1.03,1.01-2.39,1.51-4.09,1.51s-3.06-.5-4.07-1.51ZM441.64,426.9c.54-.57.81-1.32.81-2.25v-9.27c0-.93-.27-1.68-.81-2.25-.54-.57-1.25-.85-2.13-.85s-1.58.28-2.11.85-.8,1.32-.8,2.25v9.27c0,.93.27,1.68.8,2.25s1.24.85,2.11.85,1.59-.28,2.13-.85Z"/>
      <path class="cls-1" d="M451.3,427.48h7.42c.19,0,.28.09.28.28v1.76c0,.19-.09.28-.28.28h-10.56c-.19,0-.28-.09-.28-.28v-1.79c0-.13.04-.24.11-.34,2.41-3.1,4.28-5.59,5.63-7.48,1.44-2,2.16-3.59,2.16-4.79,0-.86-.24-1.54-.73-2.06-.49-.51-1.13-.77-1.93-.77s-1.41.26-1.89.77c-.48.51-.71,1.19-.69,2.03v.98c0,.19-.09.28-.28.28h-2.16c-.19,0-.28-.09-.28-.28v-1.2c.04-1.47.55-2.66,1.55-3.56s2.26-1.34,3.79-1.34c1.06,0,2,.22,2.8.66.8.44,1.42,1.05,1.86,1.83s.66,1.67.66,2.66c0,1.66-.75,3.55-2.24,5.66-.86,1.21-2.26,3.05-4.2,5.52l-.81,1.04c-.06.09-.04.14.06.14Z"/>
    </g>
  </g>
  <g id="wv_hall_4A_03" data-name="4/03" class="ds-stand">
    <rect class="cls-3" x="424.25" y="363" width="44" height="34" rx="4" ry="4"/>
    <g>
      <path class="cls-1" d="M435.57,388.57c-1.02-1.01-1.53-2.36-1.53-4.06v-9.02c0-1.68.51-3.02,1.53-4.03,1.02-1.01,2.38-1.51,4.07-1.51s3.06.5,4.09,1.51c1.03,1.01,1.54,2.35,1.54,4.03v9.02c0,1.7-.51,3.05-1.54,4.06-1.03,1.01-2.39,1.51-4.09,1.51s-3.06-.5-4.07-1.51ZM441.77,386.9c.54-.57.81-1.32.81-2.25v-9.27c0-.93-.27-1.68-.81-2.25-.54-.57-1.25-.85-2.13-.85s-1.58.28-2.11.85-.8,1.32-.8,2.25v9.27c0,.93.27,1.68.8,2.25s1.24.85,2.11.85,1.59-.28,2.13-.85Z"/>
      <path class="cls-1" d="M458.51,383.72c0,1.16-.18,2.19-.53,3.11-.39,1.05-.99,1.84-1.79,2.38-.8.54-1.8.81-3,.81-1.36,0-2.5-.36-3.42-1.08-.92-.72-1.49-1.68-1.74-2.9-.11-.56-.19-1.24-.22-2.04,0-.19.09-.28.28-.28h2.13c.19,0,.28.09.28.28.04.62.09,1.12.17,1.51.15.69.44,1.23.87,1.61.43.38.98.57,1.65.57.62,0,1.13-.16,1.54-.49.41-.33.71-.81.9-1.44.17-.62.25-1.36.25-2.24,0-1.01-.12-1.84-.36-2.49-.21-.58-.5-1.02-.9-1.32-.39-.3-.88-.45-1.46-.45-.28,0-.58.08-.9.25-.08.04-.13.06-.17.06-.08,0-.15-.04-.22-.11l-1.09-1.18c-.06-.06-.08-.12-.08-.2s.03-.14.08-.2l4.26-5.24s.05-.07.03-.1c-.02-.03-.05-.04-.08-.04h-6.66c-.19,0-.28-.09-.28-.28v-1.76c0-.19.09-.28.28-.28h9.83c.19,0,.28.09.28.28v1.85c0,.13-.04.24-.11.34l-3.95,4.96s-.05.07-.03.1c.02.03.05.04.08.04.84.07,1.56.34,2.16.8.6.46,1.05,1.08,1.37,1.86.37.91.56,2.02.56,3.3Z"/>
    </g>
  </g>
  <g id="wv_hall_4A_04" data-name="4/04" class="ds-stand">
    <rect class="cls-3" x="424.25" y="323" width="44" height="34" rx="4" ry="4"/>
    <g>
      <path class="cls-1" d="M435.09,348.57c-1.02-1.01-1.53-2.36-1.53-4.06v-9.02c0-1.68.51-3.02,1.53-4.03,1.02-1.01,2.38-1.51,4.07-1.51s3.06.5,4.09,1.51c1.03,1.01,1.54,2.35,1.54,4.03v9.02c0,1.7-.51,3.05-1.54,4.06-1.03,1.01-2.39,1.51-4.09,1.51s-3.06-.5-4.07-1.51ZM441.29,346.9c.54-.57.81-1.32.81-2.25v-9.27c0-.93-.27-1.68-.81-2.25-.54-.57-1.25-.85-2.13-.85s-1.58.28-2.11.85c-.53.57-.8,1.32-.8,2.25v9.27c0,.93.27,1.68.8,2.25.53.57,1.24.85,2.11.85s1.59-.28,2.13-.85Z"/>
      <path class="cls-1" d="M459.35,342.41v1.88c0,.19-.09.28-.28.28h-1.04c-.07,0-.11.04-.11.11v4.84c0,.19-.09.28-.28.28h-2.13c-.19,0-.28-.09-.28-.28v-4.84c0-.07-.04-.11-.11-.11h-7.7c-.19,0-.28-.09-.28-.28v-1.54c0-.13.02-.24.06-.34l4.79-11.98c.06-.15.16-.22.31-.22h2.29c.09,0,.16.03.2.1s.04.14,0,.24l-4.51,11.45s-.02.07,0,.1c.02.03.05.04.08.04h4.76c.08,0,.11-.04.11-.11v-3.98c0-.19.09-.28.28-.28h2.13c.19,0,.28.09.28.28v3.98c0,.08.04.11.11.11h1.04c.19,0,.28.09.28.28Z"/>
    </g>
  </g>
  <g id="wv_hall_4A_05" data-name="4/05" class="ds-stand">
    <rect class="cls-3" x="424.25" y="283" width="44" height="34" rx="4" ry="4"/>
    <g>
      <path class="cls-1" d="M435.57,308.57c-1.02-1.01-1.53-2.36-1.53-4.06v-9.02c0-1.68.51-3.02,1.53-4.03,1.02-1.01,2.38-1.51,4.07-1.51s3.06.5,4.09,1.51c1.03,1.01,1.54,2.35,1.54,4.03v9.02c0,1.7-.51,3.05-1.54,4.06-1.03,1.01-2.39,1.51-4.09,1.51s-3.06-.5-4.07-1.51ZM441.77,306.9c.54-.57.81-1.32.81-2.25v-9.27c0-.93-.27-1.68-.81-2.25-.54-.57-1.25-.85-2.13-.85s-1.58.28-2.11.85-.8,1.32-.8,2.25v9.27c0,.93.27,1.68.8,2.25s1.24.85,2.11.85,1.59-.28,2.13-.85Z"/>
      <path class="cls-1" d="M458.88,303.72c0,.97-.08,1.79-.25,2.46-.32,1.23-.92,2.18-1.81,2.84s-1.99.99-3.32.99-2.43-.35-3.32-1.04c-.89-.69-1.48-1.66-1.78-2.91-.11-.48-.18-.86-.2-1.12v-.06c0-.15.08-.22.25-.22h2.16c.19,0,.29.09.31.28.04.3.07.5.11.59.15.69.44,1.22.87,1.58.43.36.96.55,1.6.55s1.17-.19,1.61-.56c.44-.37.73-.91.88-1.6.11-.43.17-1.02.17-1.76s-.07-1.38-.2-1.96c-.15-.63-.44-1.12-.87-1.44-.43-.33-.96-.49-1.6-.49s-1.14.14-1.58.42c-.44.28-.75.7-.94,1.26-.04.15-.14.22-.31.22h-2.18c-.19,0-.28-.09-.28-.28v-11c0-.19.09-.28.28-.28h9.55c.19,0,.28.09.28.28v1.76c0,.19-.09.28-.28.28h-7.03c-.08,0-.11.04-.11.11l-.03,5.96c0,.09.05.11.14.06.37-.37.83-.66,1.36-.85.53-.2,1.1-.29,1.69-.29,1.1,0,2.03.27,2.8.8.77.53,1.3,1.3,1.6,2.31.28.92.42,1.95.42,3.11Z"/>
    </g>
  </g>
  <g id="wv_hall_4A_06" data-name="4/06" class="ds-stand">
    <rect class="cls-3" x="474.25" y="248" width="74" height="44" rx="4" ry="4"/>
    <g>
      <path class="cls-1" d="M500.55,278.57c-1.02-1.01-1.53-2.36-1.53-4.06v-9.02c0-1.68.51-3.02,1.53-4.03,1.02-1.01,2.38-1.51,4.07-1.51s3.06.5,4.09,1.51c1.03,1.01,1.54,2.35,1.54,4.03v9.02c0,1.7-.51,3.05-1.54,4.06-1.03,1.01-2.39,1.51-4.09,1.51s-3.06-.5-4.07-1.51ZM506.76,276.9c.54-.57.81-1.32.81-2.25v-9.27c0-.93-.27-1.68-.81-2.25s-1.25-.85-2.13-.85-1.58.28-2.11.85c-.53.57-.8,1.32-.8,2.25v9.27c0,.93.27,1.68.8,2.25.53.57,1.24.85,2.11.85s1.59-.28,2.13-.85Z"/>
      <path class="cls-1" d="M523.89,273.72c0,.95-.1,1.79-.31,2.52-.32,1.21-.91,2.15-1.76,2.8-.86.65-1.95.98-3.28.98-1.21,0-2.24-.29-3.08-.88-.84-.59-1.43-1.43-1.76-2.53-.34-.75-.5-1.68-.5-2.8l-.03-8.88c0-1.49.48-2.69,1.46-3.6.97-.91,2.25-1.36,3.84-1.36,1.49,0,2.71.45,3.65,1.34.94.9,1.41,2.07,1.41,3.53v.59c0,.19-.09.28-.28.28h-2.13c-.19,0-.28-.09-.28-.28v-.39c0-.78-.23-1.43-.69-1.95-.46-.51-1.03-.77-1.72-.77-.75,0-1.36.26-1.83.77-.48.51-.71,1.19-.71,2.03v3.53s.01.07.04.08c.03.02.06,0,.1-.03.73-.84,1.7-1.26,2.91-1.26,1.14,0,2.09.3,2.84.9.76.6,1.31,1.42,1.67,2.46.3.84.45,1.81.45,2.91ZM521.18,273.67c0-.88-.09-1.59-.28-2.13-.17-.58-.46-1.03-.87-1.36-.41-.33-.91-.49-1.51-.49s-1.12.16-1.53.49c-.4.33-.69.79-.85,1.39-.17.52-.25,1.23-.25,2.13,0,.77.07,1.41.2,1.93.15.63.43,1.13.85,1.5.42.36.95.55,1.58.55s1.16-.18,1.58-.55c.42-.36.71-.89.88-1.58.13-.5.2-1.13.2-1.88Z"/>
    </g>
  </g>
  <g id="wv_hall_4A_07" data-name="4/07" class="ds-stand">
    <rect class="cls-3" x="554.25" y="248" width="34" height="44" rx="4" ry="4"/>
    <g>
      <path class="cls-1" d="M561.13,278.57c-1.02-1.01-1.53-2.36-1.53-4.06v-9.02c0-1.68.51-3.02,1.53-4.03,1.02-1.01,2.38-1.51,4.07-1.51s3.06.5,4.09,1.51c1.03,1.01,1.54,2.35,1.54,4.03v9.02c0,1.7-.51,3.05-1.54,4.06-1.03,1.01-2.39,1.51-4.09,1.51s-3.06-.5-4.07-1.51ZM567.33,276.9c.54-.57.81-1.32.81-2.25v-9.27c0-.93-.27-1.68-.81-2.25s-1.25-.85-2.13-.85-1.58.28-2.11.85c-.53.57-.8,1.32-.8,2.25v9.27c0,.93.27,1.68.8,2.25.53.57,1.24.85,2.11.85s1.59-.28,2.13-.85Z"/>
      <path class="cls-1" d="M575.51,279.49l5.54-16.83s.01-.07-.01-.1c-.03-.03-.06-.04-.1-.04h-5.6c-.07,0-.11.04-.11.11v1.2c0,.19-.09.28-.28.28h-1.65c-.19,0-.28-.09-.28-.28v-3.36c0-.19.09-.28.28-.28h10.33c.19,0,.28.09.28.28v1.88c0,.07-.02.19-.06.34l-5.52,16.88c-.06.15-.17.22-.34.22h-2.27c-.21,0-.28-.1-.22-.31Z"/>
    </g>
  </g>
  <g id="wv_hall_4A_08" data-name="4/08" class="ds-stand">
    <rect class="cls-3" x="594.25" y="248" width="34" height="44" rx="4" ry="4"/>
    <g>
      <path class="cls-1" d="M600.47,278.57c-1.02-1.01-1.53-2.36-1.53-4.06v-9.02c0-1.68.51-3.02,1.53-4.03,1.02-1.01,2.38-1.51,4.07-1.51s3.06.5,4.09,1.51c1.03,1.01,1.54,2.35,1.54,4.03v9.02c0,1.7-.51,3.05-1.54,4.06-1.03,1.01-2.39,1.51-4.09,1.51s-3.06-.5-4.07-1.51ZM606.67,276.9c.54-.57.81-1.32.81-2.25v-9.27c0-.93-.27-1.68-.81-2.25s-1.25-.85-2.13-.85-1.58.28-2.11.85c-.53.57-.8,1.32-.8,2.25v9.27c0,.93.27,1.68.8,2.25.53.57,1.24.85,2.11.85s1.59-.28,2.13-.85Z"/>
      <path class="cls-1" d="M623.67,274.26c0,1.16-.21,2.15-.62,2.97-.41.88-1.02,1.56-1.83,2.06-.81.5-1.77.74-2.87.74s-2.06-.25-2.88-.76c-.82-.5-1.44-1.21-1.85-2.13-.41-.88-.62-1.85-.62-2.91s.18-1.95.53-2.77c.37-.88.98-1.52,1.82-1.93.09-.06.09-.11,0-.17-.65-.39-1.16-.91-1.51-1.54-.47-.77-.7-1.67-.7-2.72s.21-1.92.64-2.69c.43-.78,1.05-1.4,1.85-1.85.8-.45,1.71-.67,2.72-.67s1.96.22,2.74.66c.78.44,1.38,1.06,1.79,1.86.45.8.67,1.7.67,2.69s-.23,1.91-.7,2.72c-.35.63-.86,1.15-1.51,1.54-.09.06-.1.1-.03.14.84.41,1.45,1.06,1.82,1.96.35.77.53,1.7.53,2.8ZM621.01,274.09c0-.75-.1-1.38-.31-1.9-.19-.54-.48-.96-.88-1.26-.4-.3-.89-.45-1.47-.45-1.18,0-1.96.55-2.35,1.65-.21.5-.31,1.16-.31,1.96s.13,1.52.39,2.04c.41,1.05,1.17,1.57,2.27,1.57s1.83-.51,2.24-1.54c.28-.56.42-1.25.42-2.07ZM615.8,265.3c0,.67.13,1.25.39,1.74.21.43.49.77.87,1.01.37.24.8.36,1.29.36s.94-.13,1.32-.38c.37-.25.66-.6.87-1.05.24-.47.36-1.04.36-1.71,0-.58-.11-1.09-.34-1.54-.19-.47-.47-.84-.85-1.11-.38-.27-.84-.41-1.39-.41-.5,0-.95.14-1.34.42-.39.28-.68.65-.87,1.12-.21.5-.31,1.02-.31,1.54Z"/>
    </g>
  </g>
  <g id="wv_hall_4A_09" data-name="4/09" class="ds-stand">
    <rect class="cls-3" x="634.25" y="248" width="34" height="44" rx="4" ry="4"/>
    <g>
      <path class="cls-1" d="M640.68,278.57c-1.02-1.01-1.53-2.36-1.53-4.06v-9.02c0-1.68.51-3.02,1.53-4.03,1.02-1.01,2.38-1.51,4.07-1.51s3.06.5,4.09,1.51c1.03,1.01,1.54,2.35,1.54,4.03v9.02c0,1.7-.51,3.05-1.54,4.06-1.03,1.01-2.39,1.51-4.09,1.51s-3.06-.5-4.07-1.51ZM646.88,276.9c.54-.57.81-1.32.81-2.25v-9.27c0-.93-.27-1.68-.81-2.25-.54-.57-1.25-.85-2.13-.85s-1.58.28-2.11.85c-.53.57-.8,1.32-.8,2.25v9.27c0,.93.27,1.68.8,2.25.53.57,1.24.85,2.11.85s1.59-.28,2.13-.85Z"/>
      <path class="cls-1" d="M663.4,266.19v8.88c0,1.51-.49,2.72-1.46,3.61s-2.24,1.34-3.81,1.34-2.74-.45-3.67-1.34c-.93-.9-1.4-2.07-1.4-3.53v-.59c0-.19.09-.28.28-.28h2.13c.19,0,.28.09.28.28v.39c0,.8.22,1.46.67,1.96.45.5,1.02.76,1.71.76.76,0,1.39-.26,1.86-.77.48-.51.71-1.19.71-2.03v-3.56s-.01-.07-.04-.08c-.03-.02-.06,0-.1.03-.73.86-1.7,1.29-2.91,1.29-1.14,0-2.09-.3-2.86-.9-.77-.6-1.32-1.42-1.65-2.46-.3-.77-.45-1.74-.45-2.91,0-1.05.1-1.89.31-2.52.3-1.21.88-2.15,1.74-2.8.86-.65,1.95-.98,3.28-.98,1.21,0,2.24.29,3.08.88s1.43,1.43,1.76,2.53c.36.78.53,1.72.53,2.8ZM659.58,269.82c.4-.33.69-.79.85-1.39.19-.58.28-1.29.28-2.13,0-.77-.07-1.41-.2-1.93-.17-.65-.46-1.16-.88-1.51-.42-.35-.95-.53-1.58-.53s-1.14.18-1.57.55c-.43.36-.73.89-.9,1.58-.13.62-.2,1.24-.2,1.88,0,.8.09,1.51.28,2.13.39,1.23,1.19,1.85,2.38,1.85.62,0,1.12-.16,1.53-.49Z"/>
    </g>
  </g>
  <g id="wv_hall_4A_10" data-name="4/10" class="ds-stand">
    <rect class="cls-3" x="674.25" y="248" width="34" height="44" rx="4" ry="4"/>
    <g>
      <path class="cls-1" d="M684.17,260.2h2.21c.19,0,.28.09.28.28v19.04c0,.19-.09.28-.28.28h-2.13c-.19,0-.28-.09-.28-.28v-16.41s-.01-.07-.04-.1c-.03-.03-.06-.03-.1-.01l-2.72.87-.11.03c-.11,0-.19-.08-.22-.25l-.11-1.6c0-.15.07-.26.2-.34l2.94-1.43c.11-.06.23-.08.36-.08Z"/>
      <path class="cls-1" d="M691.49,278.57c-1.02-1.01-1.53-2.36-1.53-4.06v-9.02c0-1.68.51-3.02,1.53-4.03,1.02-1.01,2.38-1.51,4.07-1.51s3.06.5,4.09,1.51c1.03,1.01,1.54,2.35,1.54,4.03v9.02c0,1.7-.51,3.05-1.54,4.06-1.03,1.01-2.39,1.51-4.09,1.51s-3.06-.5-4.07-1.51ZM697.69,276.9c.54-.57.81-1.32.81-2.25v-9.27c0-.93-.27-1.68-.81-2.25-.54-.57-1.25-.85-2.13-.85s-1.58.28-2.11.85-.8,1.32-.8,2.25v9.27c0,.93.27,1.68.8,2.25s1.24.85,2.11.85,1.59-.28,2.13-.85Z"/>
    </g>
  </g>
  <g id="wv_hall_4A_11" data-name="4/11" class="ds-stand">
    <rect class="cls-3" x="714.25" y="248" width="34" height="44" rx="4" ry="4"/>
    <g>
      <path class="cls-1" d="M727.02,260.2h2.21c.19,0,.28.09.28.28v19.04c0,.19-.09.28-.28.28h-2.13c-.19,0-.28-.09-.28-.28v-16.41s-.01-.07-.04-.1c-.03-.03-.06-.03-.1-.01l-2.71.87-.11.03c-.11,0-.19-.08-.22-.25l-.11-1.6c0-.15.07-.26.2-.34l2.94-1.43c.11-.06.23-.08.36-.08Z"/>
      <path class="cls-1" d="M735.51,260.2h2.21c.19,0,.28.09.28.28v19.04c0,.19-.09.28-.28.28h-2.13c-.19,0-.28-.09-.28-.28v-16.41s-.01-.07-.04-.1c-.03-.03-.06-.03-.1-.01l-2.72.87-.11.03c-.11,0-.19-.08-.22-.25l-.11-1.6c0-.15.07-.26.2-.34l2.94-1.43c.11-.06.23-.08.36-.08Z"/>
    </g>
  </g>
  <g id="wv_hall_4A_12" data-name="4/12" class="ds-stand">
    <rect class="cls-3" x="754.25" y="248" width="34" height="44" rx="4" ry="4"/>
    <g>
      <path class="cls-1" d="M764.53,260.2h2.21c.19,0,.28.09.28.28v19.04c0,.19-.09.28-.28.28h-2.13c-.19,0-.28-.09-.28-.28v-16.41s-.01-.07-.04-.1c-.03-.03-.06-.03-.1-.01l-2.72.87-.11.03c-.11,0-.19-.08-.22-.25l-.11-1.6c0-.15.07-.26.2-.34l2.94-1.43c.11-.06.23-.08.36-.08Z"/>
      <path class="cls-1" d="M773.55,277.48h7.42c.19,0,.28.09.28.28v1.76c0,.19-.09.28-.28.28h-10.56c-.19,0-.28-.09-.28-.28v-1.79c0-.13.04-.24.11-.34,2.41-3.1,4.28-5.59,5.63-7.48,1.44-2,2.16-3.59,2.16-4.79,0-.86-.24-1.54-.73-2.06-.49-.51-1.13-.77-1.93-.77s-1.41.26-1.89.77c-.48.51-.71,1.19-.69,2.03v.98c0,.19-.09.28-.28.28h-2.16c-.19,0-.28-.09-.28-.28v-1.2c.04-1.47.55-2.66,1.55-3.56s2.26-1.34,3.79-1.34c1.06,0,2,.22,2.8.66.8.44,1.42,1.05,1.86,1.83s.66,1.67.66,2.66c0,1.66-.75,3.55-2.24,5.66-.86,1.21-2.26,3.05-4.2,5.52l-.81,1.04c-.06.09-.04.14.06.14Z"/>
    </g>
  </g>
  <g id="wv_hall_4A_13" data-name="4/13" class="ds-stand">
    <rect class="cls-3" x="794.25" y="248" width="74" height="44" rx="4" ry="4"/>
    <g>
      <path class="cls-1" d="M824.67,260.2h2.21c.19,0,.28.09.28.28v19.04c0,.19-.09.28-.28.28h-2.13c-.19,0-.28-.09-.28-.28v-16.41s-.01-.07-.04-.1c-.03-.03-.06-.03-.1-.01l-2.72.87-.11.03c-.11,0-.19-.08-.22-.25l-.11-1.6c0-.15.07-.26.2-.34l2.94-1.43c.11-.06.23-.08.36-.08Z"/>
      <path class="cls-1" d="M840.74,273.72c0,1.16-.18,2.19-.53,3.11-.39,1.05-.99,1.84-1.79,2.38s-1.8.81-3,.81c-1.36,0-2.5-.36-3.42-1.08-.92-.72-1.49-1.68-1.74-2.9-.11-.56-.19-1.24-.22-2.04,0-.19.09-.28.28-.28h2.13c.19,0,.28.09.28.28.04.62.09,1.12.17,1.51.15.69.44,1.23.87,1.61.43.38.98.57,1.65.57.62,0,1.13-.16,1.54-.49.41-.33.71-.81.9-1.44.17-.62.25-1.36.25-2.24,0-1.01-.12-1.84-.36-2.49-.21-.58-.5-1.02-.9-1.32-.39-.3-.88-.45-1.46-.45-.28,0-.58.08-.9.25-.08.04-.13.06-.17.06-.08,0-.15-.04-.22-.11l-1.09-1.18c-.06-.06-.08-.12-.08-.2s.03-.14.08-.2l4.26-5.24s.05-.07.03-.1c-.02-.03-.05-.04-.08-.04h-6.66c-.19,0-.28-.09-.28-.28v-1.76c0-.19.09-.28.28-.28h9.83c.19,0,.28.09.28.28v1.85c0,.13-.04.24-.11.34l-3.95,4.96s-.05.07-.03.1c.02.03.05.04.08.04.84.07,1.56.34,2.16.8.6.46,1.05,1.08,1.37,1.86.37.91.56,2.02.56,3.3Z"/>
    </g>
  </g>
  <g id="wv_hall_4A_14" data-name="4/14" class="ds-stand">
    <rect class="cls-3" x="523.25" y="318" width="34" height="44" rx="4" ry="4"/>
    <g>
      <path class="cls-1" d="M533.19,330.2h2.21c.19,0,.28.09.28.28v19.04c0,.19-.09.28-.28.28h-2.13c-.19,0-.28-.09-.28-.28v-16.41s-.01-.07-.04-.1c-.03-.03-.06-.03-.1-.01l-2.72.87-.11.03c-.11,0-.19-.08-.22-.25l-.11-1.6c0-.15.07-.26.2-.34l2.94-1.43c.11-.06.23-.08.36-.08Z"/>
      <path class="cls-1" d="M550.58,342.41v1.88c0,.19-.09.28-.28.28h-1.04c-.07,0-.11.04-.11.11v4.84c0,.19-.09.28-.28.28h-2.13c-.19,0-.28-.09-.28-.28v-4.84c0-.07-.04-.11-.11-.11h-7.7c-.19,0-.28-.09-.28-.28v-1.54c0-.13.02-.24.06-.34l4.79-11.98c.06-.15.16-.22.31-.22h2.3c.09,0,.16.03.2.1s.04.14,0,.24l-4.51,11.45s-.02.07,0,.1c.02.03.05.04.08.04h4.76c.07,0,.11-.04.11-.11v-3.98c0-.19.09-.28.28-.28h2.13c.19,0,.28.09.28.28v3.98c0,.08.04.11.11.11h1.04c.19,0,.28.09.28.28Z"/>
    </g>
  </g>
  <g id="wv_hall_4A_15" data-name="4/15" class="ds-stand">
    <rect class="cls-3" x="541.25" y="368" width="34" height="44" rx="4" ry="4"/>
    <g>
      <path class="cls-1" d="M551.67,380.2h2.21c.19,0,.28.09.28.28v19.04c0,.19-.09.28-.28.28h-2.13c-.19,0-.28-.09-.28-.28v-16.41s-.01-.07-.04-.1c-.03-.03-.06-.03-.1-.01l-2.72.87-.11.03c-.11,0-.19-.08-.22-.25l-.11-1.6c0-.15.07-.26.2-.34l2.94-1.43c.11-.06.23-.08.36-.08Z"/>
      <path class="cls-1" d="M568.11,393.72c0,.97-.08,1.79-.25,2.46-.32,1.23-.92,2.18-1.81,2.84s-1.99.99-3.32.99-2.43-.35-3.32-1.04c-.89-.69-1.48-1.66-1.78-2.91-.11-.48-.18-.86-.2-1.12v-.06c0-.15.08-.22.25-.22h2.16c.19,0,.29.09.31.28.04.3.07.5.11.59.15.69.44,1.22.87,1.58.43.36.96.55,1.6.55s1.17-.19,1.61-.56c.44-.37.73-.91.88-1.6.11-.43.17-1.02.17-1.76s-.07-1.38-.2-1.96c-.15-.63-.44-1.12-.87-1.44-.43-.33-.96-.49-1.6-.49s-1.14.14-1.58.42c-.44.28-.75.7-.94,1.26-.04.15-.14.22-.31.22h-2.18c-.19,0-.28-.09-.28-.28v-11c0-.19.09-.28.28-.28h9.55c.19,0,.28.09.28.28v1.76c0,.19-.09.28-.28.28h-7.03c-.08,0-.11.04-.11.11l-.03,5.96c0,.09.05.11.14.06.37-.37.83-.66,1.36-.85.53-.2,1.1-.29,1.69-.29,1.1,0,2.03.27,2.8.8.77.53,1.3,1.3,1.6,2.31.28.92.42,1.95.42,3.11Z"/>
    </g>
  </g>
  <g id="wv_hall_4A_16" data-name="4/16" class="ds-stand">
    <rect class="cls-3" x="564.25" y="318" width="44" height="34" rx="4" ry="4"/>
    <g>
      <path class="cls-1" d="M579.66,325.2h2.21c.19,0,.28.09.28.28v19.04c0,.19-.09.28-.28.28h-2.13c-.19,0-.28-.09-.28-.28v-16.41s-.01-.07-.04-.1c-.03-.03-.06-.03-.1-.01l-2.72.87-.11.03c-.11,0-.19-.08-.22-.25l-.11-1.6c0-.15.07-.26.2-.34l2.94-1.43c.11-.06.23-.08.36-.08Z"/>
      <path class="cls-1" d="M596.12,338.72c0,.95-.1,1.79-.31,2.52-.32,1.21-.91,2.15-1.76,2.8-.86.65-1.95.98-3.28.98-1.21,0-2.24-.29-3.08-.88-.84-.59-1.43-1.43-1.76-2.53-.34-.75-.5-1.68-.5-2.8l-.03-8.88c0-1.49.48-2.69,1.46-3.6.97-.91,2.25-1.36,3.84-1.36,1.49,0,2.71.45,3.65,1.34.94.9,1.41,2.07,1.41,3.53v.59c0,.19-.09.28-.28.28h-2.13c-.19,0-.28-.09-.28-.28v-.39c0-.78-.23-1.43-.69-1.95-.46-.51-1.03-.77-1.72-.77-.75,0-1.36.26-1.83.77-.48.51-.71,1.19-.71,2.03v3.53s.01.07.04.08c.03.02.06,0,.1-.03.73-.84,1.7-1.26,2.91-1.26,1.14,0,2.09.3,2.84.9.76.6,1.31,1.42,1.67,2.46.3.84.45,1.81.45,2.91ZM593.4,338.67c0-.88-.09-1.59-.28-2.13-.17-.58-.46-1.03-.87-1.36-.41-.33-.91-.49-1.51-.49s-1.12.16-1.53.49c-.4.33-.69.79-.85,1.39-.17.52-.25,1.23-.25,2.13,0,.77.07,1.41.2,1.93.15.63.43,1.13.85,1.5.42.36.95.55,1.58.55s1.16-.18,1.58-.55c.42-.36.71-.89.88-1.58.13-.5.2-1.13.2-1.88Z"/>
    </g>
  </g>
  <g id="wv_hall_4A_17" data-name="4/17" class="ds-stand">
    <rect class="cls-3" x="614.25" y="318" width="44" height="34" rx="4" ry="4"/>
    <g>
      <path class="cls-1" d="M630.23,325.2h2.21c.19,0,.28.09.28.28v19.04c0,.19-.09.28-.28.28h-2.13c-.19,0-.28-.09-.28-.28v-16.41s-.01-.07-.04-.1c-.03-.03-.06-.03-.1-.01l-2.72.87-.11.03c-.11,0-.19-.08-.22-.25l-.11-1.6c0-.15.07-.26.2-.34l2.94-1.43c.11-.06.23-.08.36-.08Z"/>
      <path class="cls-1" d="M637.73,344.49l5.54-16.83s.01-.07-.01-.1c-.03-.03-.06-.04-.1-.04h-5.6c-.08,0-.11.04-.11.11v1.2c0,.19-.09.28-.28.28h-1.65c-.19,0-.28-.09-.28-.28v-3.36c0-.19.09-.28.28-.28h10.33c.19,0,.28.09.28.28v1.88c0,.07-.02.19-.06.34l-5.52,16.88c-.06.15-.17.22-.34.22h-2.27c-.21,0-.28-.1-.22-.31Z"/>
    </g>
  </g>
  <g id="wv_hall_4A_18" data-name="4/18" class="ds-stand">
    <rect class="cls-3" x="664.25" y="318" width="34" height="44" rx="4" ry="4"/>
    <g>
      <path class="cls-1" d="M674.57,330.2h2.21c.19,0,.28.09.28.28v19.04c0,.19-.09.28-.28.28h-2.13c-.19,0-.28-.09-.28-.28v-16.41s-.01-.07-.04-.1c-.03-.03-.06-.03-.1-.01l-2.72.87-.11.03c-.11,0-.19-.08-.22-.25l-.11-1.6c0-.15.07-.26.2-.34l2.94-1.43c.11-.06.23-.08.36-.08Z"/>
      <path class="cls-1" d="M690.9,344.26c0,1.16-.21,2.15-.62,2.97-.41.88-1.02,1.56-1.83,2.06-.81.5-1.77.74-2.87.74s-2.06-.25-2.88-.76c-.82-.5-1.44-1.21-1.85-2.13-.41-.88-.62-1.85-.62-2.91s.18-1.95.53-2.77c.37-.88.98-1.52,1.82-1.93.09-.06.09-.11,0-.17-.65-.39-1.16-.91-1.51-1.54-.47-.77-.7-1.67-.7-2.72s.21-1.92.64-2.69c.43-.78,1.04-1.4,1.85-1.85.8-.45,1.71-.67,2.72-.67s1.96.22,2.74.66c.78.44,1.38,1.06,1.79,1.86.45.8.67,1.7.67,2.69s-.23,1.91-.7,2.72c-.36.63-.86,1.15-1.51,1.54-.09.06-.1.1-.03.14.84.41,1.45,1.06,1.82,1.96.36.77.53,1.7.53,2.8ZM688.24,344.09c0-.75-.1-1.38-.31-1.9-.19-.54-.48-.96-.88-1.26-.4-.3-.89-.45-1.47-.45-1.18,0-1.96.55-2.35,1.65-.21.5-.31,1.16-.31,1.96s.13,1.52.39,2.04c.41,1.05,1.17,1.57,2.27,1.57s1.83-.51,2.24-1.54c.28-.56.42-1.25.42-2.07ZM683.03,335.3c0,.67.13,1.25.39,1.74.21.43.49.77.87,1.01.37.24.8.36,1.29.36s.94-.13,1.32-.38c.37-.25.66-.6.87-1.05.24-.47.36-1.04.36-1.71,0-.58-.11-1.09-.34-1.54-.19-.47-.47-.84-.85-1.11-.38-.27-.84-.41-1.39-.41-.5,0-.95.14-1.34.42-.39.28-.68.65-.87,1.12-.21.5-.31,1.02-.31,1.54Z"/>
    </g>
  </g>
  <g id="wv_hall_4A_19" data-name="4/19" class="ds-stand">
    <rect class="cls-3" x="704.25" y="318" width="34" height="44" rx="4" ry="4"/>
    <g>
      <path class="cls-1" d="M714.78,330.2h2.21c.19,0,.28.09.28.28v19.04c0,.19-.09.28-.28.28h-2.13c-.19,0-.28-.09-.28-.28v-16.41s-.01-.07-.04-.1c-.03-.03-.06-.03-.1-.01l-2.72.87-.11.03c-.11,0-.19-.08-.22-.25l-.11-1.6c0-.15.07-.26.2-.34l2.94-1.43c.11-.06.23-.08.36-.08Z"/>
      <path class="cls-1" d="M730.63,336.19v8.88c0,1.51-.49,2.72-1.46,3.61s-2.24,1.34-3.81,1.34-2.73-.45-3.67-1.34-1.4-2.07-1.4-3.53v-.59c0-.19.09-.28.28-.28h2.13c.19,0,.28.09.28.28v.39c0,.8.22,1.46.67,1.96.45.5,1.02.76,1.71.76.77,0,1.39-.26,1.86-.77.48-.51.71-1.19.71-2.03v-3.56s-.01-.07-.04-.08c-.03-.02-.06,0-.1.03-.73.86-1.7,1.29-2.91,1.29-1.14,0-2.09-.3-2.86-.9-.77-.6-1.32-1.42-1.65-2.46-.3-.77-.45-1.74-.45-2.91,0-1.05.1-1.89.31-2.52.3-1.21.88-2.15,1.74-2.8.86-.65,1.95-.98,3.28-.98,1.21,0,2.24.29,3.08.88s1.43,1.43,1.76,2.53c.35.78.53,1.72.53,2.8ZM726.81,339.82c.4-.33.69-.79.85-1.39.19-.58.28-1.29.28-2.13,0-.77-.07-1.41-.2-1.93-.17-.65-.46-1.16-.88-1.51-.42-.35-.95-.53-1.58-.53s-1.14.18-1.57.55c-.43.36-.73.89-.9,1.58-.13.62-.2,1.24-.2,1.88,0,.8.09,1.51.28,2.13.39,1.23,1.18,1.85,2.38,1.85.62,0,1.12-.16,1.53-.49Z"/>
    </g>
  </g>
  <g id="wv_hall_4A_20" data-name="4/20" class="ds-stand">
    <rect class="cls-3" x="744.25" y="318" width="74" height="44" rx="4" ry="4"/>
    <g>
      <path class="cls-1" d="M772.11,347.48h7.42c.19,0,.28.09.28.28v1.76c0,.19-.09.28-.28.28h-10.56c-.19,0-.28-.09-.28-.28v-1.79c0-.13.04-.24.11-.34,2.41-3.1,4.28-5.59,5.63-7.48,1.44-2,2.16-3.59,2.16-4.79,0-.86-.24-1.54-.73-2.06-.49-.51-1.13-.77-1.93-.77s-1.41.26-1.89.77c-.48.51-.71,1.19-.69,2.03v.98c0,.19-.09.28-.28.28h-2.16c-.19,0-.28-.09-.28-.28v-1.2c.04-1.47.56-2.66,1.55-3.56,1-.9,2.26-1.34,3.79-1.34,1.06,0,2,.22,2.8.66.8.44,1.42,1.05,1.86,1.83.44.78.66,1.67.66,2.66,0,1.66-.75,3.55-2.24,5.66-.86,1.21-2.26,3.05-4.2,5.52l-.81,1.04c-.06.09-.04.14.06.14Z"/>
      <path class="cls-1" d="M783.88,348.57c-1.02-1.01-1.53-2.36-1.53-4.06v-9.02c0-1.68.51-3.02,1.53-4.03,1.02-1.01,2.38-1.51,4.07-1.51s3.06.5,4.09,1.51c1.03,1.01,1.54,2.35,1.54,4.03v9.02c0,1.7-.51,3.05-1.54,4.06-1.03,1.01-2.39,1.51-4.09,1.51s-3.06-.5-4.07-1.51ZM790.08,346.9c.54-.57.81-1.32.81-2.25v-9.27c0-.93-.27-1.68-.81-2.25-.54-.57-1.25-.85-2.13-.85s-1.58.28-2.11.85-.8,1.32-.8,2.25v9.27c0,.93.27,1.68.8,2.25s1.24.85,2.11.85,1.59-.28,2.13-.85Z"/>
    </g>
  </g>
  <g id="wv_hall_4A_21" data-name="4/21" class="ds-stand">
    <rect class="cls-3" x="664.25" y="368" width="34" height="44" rx="4" ry="4"/>
    <g>
      <path class="cls-1" d="M675.15,397.48h7.42c.19,0,.28.09.28.28v1.76c0,.19-.09.28-.28.28h-10.56c-.19,0-.28-.09-.28-.28v-1.79c0-.13.04-.24.11-.34,2.41-3.1,4.28-5.59,5.63-7.48,1.44-2,2.16-3.59,2.16-4.79,0-.86-.24-1.54-.73-2.06-.49-.51-1.13-.77-1.93-.77s-1.41.26-1.89.77c-.48.51-.71,1.19-.69,2.03v.98c0,.19-.09.28-.28.28h-2.16c-.19,0-.28-.09-.28-.28v-1.2c.04-1.47.56-2.66,1.55-3.56,1-.9,2.26-1.34,3.79-1.34,1.06,0,2,.22,2.8.66.8.44,1.42,1.05,1.86,1.83.44.78.66,1.67.66,2.66,0,1.66-.75,3.55-2.24,5.66-.86,1.21-2.26,3.05-4.2,5.52l-.81,1.04c-.06.09-.04.14.06.14Z"/>
      <path class="cls-1" d="M687.72,380.2h2.21c.19,0,.28.09.28.28v19.04c0,.19-.09.28-.28.28h-2.13c-.19,0-.28-.09-.28-.28v-16.41s-.01-.07-.04-.1c-.03-.03-.06-.03-.1-.01l-2.72.87-.11.03c-.11,0-.19-.08-.22-.25l-.11-1.6c0-.15.06-.26.2-.34l2.94-1.43c.11-.06.23-.08.36-.08Z"/>
    </g>
  </g>
  <g id="wv_hall_4A_22" data-name="4/22" class="ds-stand">
    <rect class="cls-3" x="704.25" y="368" width="34" height="44" rx="4" ry="4"/>
    <g>
      <path class="cls-1" d="M712.49,397.48h7.42c.19,0,.28.09.28.28v1.76c0,.19-.09.28-.28.28h-10.56c-.19,0-.28-.09-.28-.28v-1.79c0-.13.04-.24.11-.34,2.41-3.1,4.28-5.59,5.63-7.48,1.44-2,2.16-3.59,2.16-4.79,0-.86-.24-1.54-.73-2.06-.49-.51-1.13-.77-1.93-.77s-1.41.26-1.89.77c-.48.51-.71,1.19-.69,2.03v.98c0,.19-.09.28-.28.28h-2.16c-.19,0-.28-.09-.28-.28v-1.2c.04-1.47.56-2.66,1.55-3.56,1-.9,2.26-1.34,3.79-1.34,1.06,0,2,.22,2.8.66.8.44,1.42,1.05,1.86,1.83.44.78.66,1.67.66,2.66,0,1.66-.75,3.55-2.24,5.66-.86,1.21-2.26,3.05-4.2,5.52l-.81,1.04c-.06.09-.04.14.06.14Z"/>
      <path class="cls-1" d="M725.93,397.48h7.42c.19,0,.28.09.28.28v1.76c0,.19-.09.28-.28.28h-10.56c-.19,0-.28-.09-.28-.28v-1.79c0-.13.04-.24.11-.34,2.41-3.1,4.28-5.59,5.63-7.48,1.44-2,2.16-3.59,2.16-4.79,0-.86-.24-1.54-.73-2.06-.49-.51-1.13-.77-1.93-.77s-1.41.26-1.89.77c-.48.51-.7,1.19-.69,2.03v.98c0,.19-.09.28-.28.28h-2.16c-.19,0-.28-.09-.28-.28v-1.2c.04-1.47.56-2.66,1.55-3.56s2.26-1.34,3.79-1.34c1.06,0,2,.22,2.8.66.8.44,1.42,1.05,1.86,1.83s.66,1.67.66,2.66c0,1.66-.75,3.55-2.24,5.66-.86,1.21-2.26,3.05-4.2,5.52l-.81,1.04c-.06.09-.04.14.06.14Z"/>
    </g>
  </g>
  <g id="wv_hall_4A_23" data-name="4/23" class="ds-stand">
    <rect class="cls-3" x="744.25" y="368" width="74" height="44" rx="4" ry="4"/>
    <g>
      <path class="cls-1" d="M772.67,397.48h7.42c.19,0,.28.09.28.28v1.76c0,.19-.09.28-.28.28h-10.56c-.19,0-.28-.09-.28-.28v-1.79c0-.13.04-.24.11-.34,2.41-3.1,4.28-5.59,5.63-7.48,1.44-2,2.16-3.59,2.16-4.79,0-.86-.24-1.54-.73-2.06-.49-.51-1.13-.77-1.93-.77s-1.41.26-1.89.77c-.48.51-.71,1.19-.69,2.03v.98c0,.19-.09.28-.28.28h-2.16c-.19,0-.28-.09-.28-.28v-1.2c.04-1.47.55-2.66,1.55-3.56,1-.9,2.26-1.34,3.79-1.34,1.06,0,2,.22,2.8.66.8.44,1.42,1.05,1.86,1.83s.66,1.67.66,2.66c0,1.66-.75,3.55-2.24,5.66-.86,1.21-2.26,3.05-4.2,5.52l-.81,1.04c-.06.09-.04.14.06.14Z"/>
      <path class="cls-1" d="M793.08,393.72c0,1.16-.18,2.19-.53,3.11-.39,1.05-.99,1.84-1.79,2.38s-1.8.81-3,.81c-1.36,0-2.5-.36-3.42-1.08-.92-.72-1.49-1.68-1.74-2.9-.11-.56-.19-1.24-.22-2.04,0-.19.09-.28.28-.28h2.13c.19,0,.28.09.28.28.04.62.09,1.12.17,1.51.15.69.44,1.23.87,1.61.43.38.98.57,1.65.57.62,0,1.13-.16,1.54-.49.41-.33.71-.81.9-1.44.17-.62.25-1.36.25-2.24,0-1.01-.12-1.84-.36-2.49-.21-.58-.5-1.02-.9-1.32-.39-.3-.88-.45-1.46-.45-.28,0-.58.08-.9.25-.08.04-.13.06-.17.06-.08,0-.15-.04-.22-.11l-1.09-1.18c-.06-.06-.08-.12-.08-.2s.03-.14.08-.2l4.26-5.24s.05-.07.03-.1c-.02-.03-.05-.04-.08-.04h-6.66c-.19,0-.28-.09-.28-.28v-1.76c0-.19.09-.28.28-.28h9.83c.19,0,.28.09.28.28v1.85c0,.13-.04.24-.11.34l-3.95,4.96s-.05.07-.03.1c.02.03.05.04.08.04.84.07,1.56.34,2.16.8.6.46,1.05,1.08,1.37,1.86.37.91.56,2.02.56,3.3Z"/>
    </g>
  </g>
  <g id="wv_hall_4A_24" data-name="4/24" class="ds-stand">
    <rect class="cls-3" x="874.25" y="283" width="44" height="34" rx="4" ry="4"/>
    <g>
      <path class="cls-1" d="M887.14,307.48h7.42c.19,0,.28.09.28.28v1.76c0,.19-.09.28-.28.28h-10.56c-.19,0-.28-.09-.28-.28v-1.79c0-.13.04-.24.11-.34,2.41-3.1,4.28-5.59,5.63-7.48,1.44-2,2.16-3.59,2.16-4.79,0-.86-.24-1.54-.73-2.06-.49-.51-1.13-.77-1.93-.77s-1.41.26-1.89.77c-.48.51-.71,1.19-.69,2.03v.98c0,.19-.09.28-.28.28h-2.16c-.19,0-.28-.09-.28-.28v-1.2c.04-1.47.56-2.66,1.55-3.56,1-.9,2.26-1.34,3.79-1.34,1.06,0,2,.22,2.8.66.8.44,1.42,1.05,1.86,1.83.44.78.66,1.67.66,2.66,0,1.66-.75,3.55-2.24,5.66-.86,1.21-2.26,3.05-4.2,5.52l-.81,1.04c-.06.09-.04.14.06.14Z"/>
      <path class="cls-1" d="M908.98,302.41v1.88c0,.19-.09.28-.28.28h-1.04c-.07,0-.11.04-.11.11v4.84c0,.19-.09.28-.28.28h-2.13c-.19,0-.28-.09-.28-.28v-4.84c0-.07-.04-.11-.11-.11h-7.7c-.19,0-.28-.09-.28-.28v-1.54c0-.13.02-.24.06-.34l4.79-11.98c.06-.15.16-.22.31-.22h2.3c.09,0,.16.03.2.1s.04.14,0,.24l-4.51,11.45s-.02.07,0,.1c.02.03.05.04.08.04h4.76c.07,0,.11-.04.11-.11v-3.98c0-.19.09-.28.28-.28h2.13c.19,0,.28.09.28.28v3.98c0,.08.04.11.11.11h1.04c.19,0,.28.09.28.28Z"/>
    </g>
  </g>
  <g id="wv_hall_4A_25" data-name="4/25" class="ds-stand">
    <rect class="cls-3" x="874.25" y="323" width="44" height="34" rx="4" ry="4"/>
    <g>
      <path class="cls-1" d="M887.61,347.48h7.42c.19,0,.28.09.28.28v1.76c0,.19-.09.28-.28.28h-10.56c-.19,0-.28-.09-.28-.28v-1.79c0-.13.04-.24.11-.34,2.41-3.1,4.28-5.59,5.63-7.48,1.44-2,2.16-3.59,2.16-4.79,0-.86-.24-1.54-.73-2.06-.49-.51-1.13-.77-1.93-.77s-1.41.26-1.89.77c-.48.51-.71,1.19-.69,2.03v.98c0,.19-.09.28-.28.28h-2.16c-.19,0-.28-.09-.28-.28v-1.2c.04-1.47.55-2.66,1.55-3.56s2.26-1.34,3.79-1.34c1.06,0,2,.22,2.8.66.8.44,1.42,1.05,1.86,1.83s.66,1.67.66,2.66c0,1.66-.75,3.55-2.24,5.66-.86,1.21-2.26,3.05-4.2,5.52l-.81,1.04c-.06.09-.04.14.06.14Z"/>
      <path class="cls-1" d="M908.5,343.72c0,.97-.08,1.79-.25,2.46-.32,1.23-.92,2.18-1.81,2.84s-1.99.99-3.32.99-2.43-.35-3.32-1.04c-.89-.69-1.48-1.66-1.78-2.91-.11-.48-.18-.86-.2-1.12v-.06c0-.15.08-.22.25-.22h2.16c.19,0,.29.09.31.28.04.3.07.5.11.59.15.69.44,1.22.87,1.58.43.36.96.55,1.6.55s1.17-.19,1.61-.56c.44-.37.73-.91.88-1.6.11-.43.17-1.02.17-1.76s-.07-1.38-.2-1.96c-.15-.63-.44-1.12-.87-1.44-.43-.33-.96-.49-1.6-.49s-1.14.14-1.58.42c-.44.28-.75.7-.94,1.26-.04.15-.14.22-.31.22h-2.18c-.19,0-.28-.09-.28-.28v-11c0-.19.09-.28.28-.28h9.55c.19,0,.28.09.28.28v1.76c0,.19-.09.28-.28.28h-7.03c-.08,0-.11.04-.11.11l-.03,5.96c0,.09.05.11.14.06.37-.37.83-.66,1.36-.85.53-.2,1.1-.29,1.69-.29,1.1,0,2.03.27,2.8.8.77.53,1.3,1.3,1.6,2.31.28.92.42,1.95.42,3.11Z"/>
    </g>
  </g>
  <g id="wv_hall_4A_26" data-name="4/26" class="ds-stand">
    <rect class="cls-3" x="874.25" y="363" width="44" height="34" rx="4" ry="4"/>
    <g>
      <path class="cls-1" d="M887.6,387.48h7.42c.19,0,.28.09.28.28v1.76c0,.19-.09.28-.28.28h-10.56c-.19,0-.28-.09-.28-.28v-1.79c0-.13.04-.24.11-.34,2.41-3.1,4.28-5.59,5.63-7.48,1.44-2,2.16-3.59,2.16-4.79,0-.86-.24-1.54-.73-2.06-.49-.51-1.13-.77-1.93-.77s-1.41.26-1.89.77c-.48.51-.7,1.19-.69,2.03v.98c0,.19-.09.28-.28.28h-2.16c-.19,0-.28-.09-.28-.28v-1.2c.04-1.47.55-2.66,1.55-3.56,1-.9,2.26-1.34,3.79-1.34,1.06,0,2,.22,2.8.66.8.44,1.42,1.05,1.86,1.83.44.78.66,1.67.66,2.66,0,1.66-.75,3.55-2.24,5.66-.86,1.21-2.26,3.05-4.2,5.52l-.81,1.04c-.06.09-.04.14.06.14Z"/>
      <path class="cls-1" d="M908.51,383.72c0,.95-.1,1.79-.31,2.52-.32,1.21-.91,2.15-1.76,2.8s-1.95.98-3.28.98c-1.21,0-2.24-.29-3.08-.88-.84-.59-1.43-1.43-1.76-2.53-.34-.75-.5-1.68-.5-2.8l-.03-8.88c0-1.49.48-2.69,1.46-3.6s2.25-1.36,3.84-1.36c1.49,0,2.71.45,3.65,1.34s1.41,2.07,1.41,3.53v.59c0,.19-.09.28-.28.28h-2.13c-.19,0-.28-.09-.28-.28v-.39c0-.78-.23-1.43-.69-1.95-.46-.51-1.03-.77-1.72-.77-.75,0-1.36.26-1.83.77-.48.51-.71,1.19-.71,2.03v3.53s.01.07.04.08c.03.02.06,0,.1-.03.73-.84,1.7-1.26,2.91-1.26,1.14,0,2.09.3,2.84.9.76.6,1.31,1.42,1.67,2.46.3.84.45,1.81.45,2.91ZM905.8,383.67c0-.88-.09-1.59-.28-2.13-.17-.58-.46-1.03-.87-1.36-.41-.33-.91-.49-1.51-.49s-1.12.16-1.53.49c-.4.33-.69.79-.85,1.39-.17.52-.25,1.23-.25,2.13,0,.77.07,1.41.2,1.93.15.63.43,1.13.85,1.5.42.36.95.55,1.58.55s1.16-.18,1.58-.55c.42-.36.71-.89.88-1.58.13-.5.2-1.13.2-1.88Z"/>
    </g>
  </g>
  <g id="wv_hall_4A_27" data-name="4/27" class="ds-stand">
    <rect class="cls-3" x="874.25" y="403" width="44" height="34" rx="4" ry="4"/>
    <g>
      <path class="cls-1" d="M888.17,427.48h7.42c.19,0,.28.09.28.28v1.76c0,.19-.09.28-.28.28h-10.56c-.19,0-.28-.09-.28-.28v-1.79c0-.13.04-.24.11-.34,2.41-3.1,4.28-5.59,5.63-7.48,1.44-2,2.16-3.59,2.16-4.79,0-.86-.24-1.54-.73-2.06-.49-.51-1.13-.77-1.93-.77s-1.41.26-1.89.77c-.48.51-.71,1.19-.69,2.03v.98c0,.19-.09.28-.28.28h-2.16c-.19,0-.28-.09-.28-.28v-1.2c.04-1.47.56-2.66,1.55-3.56,1-.9,2.26-1.34,3.79-1.34,1.06,0,2,.22,2.8.66.8.44,1.42,1.05,1.86,1.83.44.78.66,1.67.66,2.66,0,1.66-.75,3.55-2.24,5.66-.86,1.21-2.26,3.05-4.2,5.52l-.81,1.04c-.06.09-.04.14.06.14Z"/>
      <path class="cls-1" d="M900.13,429.49l5.54-16.83s.01-.07-.01-.1c-.03-.03-.06-.04-.1-.04h-5.6c-.07,0-.11.04-.11.11v1.2c0,.19-.09.28-.28.28h-1.65c-.19,0-.28-.09-.28-.28v-3.36c0-.19.09-.28.28-.28h10.33c.19,0,.28.09.28.28v1.88c0,.07-.02.19-.06.34l-5.52,16.88c-.06.15-.17.22-.34.22h-2.27c-.21,0-.28-.1-.22-.31Z"/>
    </g>
  </g>
  <g id="wv_hall_4A_28" data-name="4/28" class="ds-stand">
    <rect class="cls-3" x="874.25" y="443" width="44" height="34" rx="4" ry="4"/>
    <g>
      <path class="cls-1" d="M887.51,467.48h7.42c.19,0,.28.09.28.28v1.76c0,.19-.09.28-.28.28h-10.56c-.19,0-.28-.09-.28-.28v-1.79c0-.13.04-.24.11-.34,2.41-3.1,4.28-5.59,5.63-7.48,1.44-2,2.16-3.59,2.16-4.79,0-.86-.24-1.54-.73-2.06-.49-.51-1.13-.77-1.93-.77s-1.41.26-1.89.77c-.48.51-.71,1.19-.69,2.03v.98c0,.19-.09.28-.28.28h-2.16c-.19,0-.28-.09-.28-.28v-1.2c.04-1.47.55-2.66,1.55-3.56,1-.9,2.26-1.34,3.79-1.34,1.06,0,2,.22,2.8.66.8.44,1.42,1.05,1.86,1.83.44.78.66,1.67.66,2.66,0,1.66-.75,3.55-2.24,5.66-.86,1.21-2.26,3.05-4.2,5.52l-.81,1.04c-.06.09-.04.14.06.14Z"/>
      <path class="cls-1" d="M908.29,464.26c0,1.16-.21,2.15-.62,2.97-.41.88-1.02,1.56-1.83,2.06-.81.5-1.77.74-2.87.74s-2.06-.25-2.88-.76c-.82-.5-1.44-1.21-1.85-2.13-.41-.88-.62-1.85-.62-2.91s.18-1.95.53-2.77c.37-.88.98-1.52,1.82-1.93.09-.06.09-.11,0-.17-.65-.39-1.16-.91-1.51-1.54-.47-.77-.7-1.67-.7-2.72s.21-1.92.64-2.69c.43-.78,1.04-1.4,1.85-1.85.8-.45,1.71-.67,2.72-.67s1.96.22,2.74.66c.78.44,1.38,1.06,1.79,1.86.45.8.67,1.7.67,2.69s-.23,1.91-.7,2.72c-.36.63-.86,1.15-1.51,1.54-.09.06-.1.1-.03.14.84.41,1.45,1.06,1.82,1.96.36.77.53,1.7.53,2.8ZM905.63,464.09c0-.75-.1-1.38-.31-1.9-.19-.54-.48-.96-.88-1.26-.4-.3-.89-.45-1.47-.45-1.18,0-1.96.55-2.35,1.65-.21.5-.31,1.16-.31,1.96s.13,1.52.39,2.04c.41,1.05,1.17,1.57,2.27,1.57s1.83-.51,2.24-1.54c.28-.56.42-1.25.42-2.07ZM900.42,455.3c0,.67.13,1.25.39,1.74.21.43.49.77.87,1.01.37.24.8.36,1.29.36s.94-.13,1.32-.38c.37-.25.66-.6.87-1.05.24-.47.36-1.04.36-1.71,0-.58-.11-1.09-.34-1.54-.19-.47-.47-.84-.85-1.11-.38-.27-.84-.41-1.39-.41-.5,0-.95.14-1.34.42-.39.28-.68.65-.87,1.12-.21.5-.31,1.02-.31,1.54Z"/>
    </g>
  </g>
  <g id="wv_hall_4A_29" data-name="4/29" class="ds-stand">
    <rect class="cls-3" x="874.25" y="483" width="44" height="74" rx="4" ry="4"/>
    <g>
      <path class="cls-1" d="M887.72,527.47h7.42c.19,0,.28.09.28.28v1.76c0,.19-.09.28-.28.28h-10.56c-.19,0-.28-.09-.28-.28v-1.79c0-.13.04-.24.11-.34,2.41-3.1,4.28-5.59,5.63-7.48,1.44-2,2.16-3.59,2.16-4.79,0-.86-.24-1.54-.73-2.06-.49-.51-1.13-.77-1.93-.77s-1.41.26-1.89.77c-.48.51-.71,1.19-.69,2.03v.98c0,.19-.09.28-.28.28h-2.16c-.19,0-.28-.09-.28-.28v-1.2c.04-1.47.56-2.66,1.55-3.56,1-.9,2.26-1.34,3.79-1.34,1.06,0,2,.22,2.8.66.8.44,1.42,1.05,1.86,1.83.44.78.66,1.67.66,2.66,0,1.66-.75,3.55-2.24,5.66-.86,1.21-2.26,3.05-4.2,5.52l-.81,1.04c-.06.09-.04.14.06.14Z"/>
      <path class="cls-1" d="M908.02,516.19v8.88c0,1.51-.49,2.72-1.46,3.61s-2.24,1.34-3.81,1.34-2.73-.45-3.67-1.34-1.4-2.07-1.4-3.53v-.59c0-.19.09-.28.28-.28h2.13c.19,0,.28.09.28.28v.39c0,.8.22,1.46.67,1.96.45.5,1.02.76,1.71.76.77,0,1.39-.26,1.86-.77.48-.51.71-1.19.71-2.03v-3.56s-.01-.07-.04-.08c-.03-.02-.06,0-.1.03-.73.86-1.7,1.29-2.91,1.29-1.14,0-2.09-.3-2.86-.9-.77-.6-1.32-1.42-1.65-2.46-.3-.77-.45-1.74-.45-2.91,0-1.05.1-1.89.31-2.52.3-1.21.88-2.15,1.74-2.8.86-.65,1.95-.98,3.28-.98,1.21,0,2.24.29,3.08.88s1.43,1.43,1.76,2.53c.35.78.53,1.72.53,2.8ZM904.2,519.82c.4-.33.69-.79.85-1.39.19-.58.28-1.29.28-2.13,0-.77-.07-1.41-.2-1.93-.17-.65-.46-1.16-.88-1.51-.42-.35-.95-.53-1.58-.53s-1.14.18-1.57.55c-.43.36-.73.89-.9,1.58-.13.62-.2,1.24-.2,1.88,0,.8.09,1.51.28,2.13.39,1.23,1.18,1.85,2.38,1.85.62,0,1.12-.16,1.53-.49Z"/>
    </g>
  </g>
  <g id="wv_hall_4A_30" data-name="4/30" class="ds-stand">
    <rect class="cls-3" x="874.25" y="563" width="44" height="74" rx="4" ry="4"/>
    <g>
      <path class="cls-1" d="M894.32,603.72c0,1.16-.18,2.19-.53,3.11-.39,1.05-.99,1.84-1.79,2.38s-1.8.81-3,.81c-1.36,0-2.5-.36-3.42-1.08-.91-.72-1.49-1.68-1.74-2.9-.11-.56-.19-1.24-.22-2.04,0-.19.09-.28.28-.28h2.13c.19,0,.28.09.28.28.04.62.09,1.12.17,1.51.15.69.44,1.23.87,1.61.43.38.98.57,1.65.57.62,0,1.13-.16,1.54-.49.41-.33.71-.81.9-1.44.17-.62.25-1.36.25-2.24,0-1.01-.12-1.84-.36-2.49-.21-.58-.5-1.02-.9-1.32-.39-.3-.88-.45-1.46-.45-.28,0-.58.08-.9.25-.07.04-.13.06-.17.06-.07,0-.15-.04-.22-.11l-1.09-1.18c-.06-.06-.08-.12-.08-.2s.03-.14.08-.2l4.26-5.24s.05-.07.03-.1c-.02-.03-.05-.04-.08-.04h-6.66c-.19,0-.28-.09-.28-.28v-1.76c0-.19.09-.28.28-.28h9.83c.19,0,.28.09.28.28v1.85c0,.13-.04.24-.11.34l-3.95,4.96s-.05.07-.03.1.05.04.08.04c.84.07,1.56.34,2.16.8.6.46,1.05,1.08,1.37,1.86.37.91.56,2.02.56,3.3Z"/>
      <path class="cls-1" d="M898.76,608.57c-1.02-1.01-1.53-2.36-1.53-4.06v-9.02c0-1.68.51-3.02,1.53-4.03,1.02-1.01,2.38-1.51,4.07-1.51s3.06.5,4.09,1.51c1.03,1.01,1.54,2.35,1.54,4.03v9.02c0,1.7-.51,3.05-1.54,4.06-1.03,1.01-2.39,1.51-4.09,1.51s-3.06-.5-4.07-1.51ZM904.96,606.9c.54-.57.81-1.32.81-2.25v-9.27c0-.93-.27-1.68-.81-2.25-.54-.57-1.25-.85-2.13-.85s-1.58.28-2.11.85c-.53.57-.8,1.32-.8,2.25v9.27c0,.93.27,1.68.8,2.25.53.57,1.24.85,2.11.85s1.59-.28,2.13-.85Z"/>
    </g>
  </g>
  <g id="wv_hall_4A_31" data-name="4/31" class="ds-stand">
    <rect class="cls-3" x="744.25" y="483" width="74" height="74" rx="4" ry="4"/>
    <g>
      <path class="cls-1" d="M782.36,523.72c0,1.16-.18,2.19-.53,3.11-.39,1.05-.99,1.84-1.79,2.38-.8.54-1.8.81-3,.81-1.36,0-2.5-.36-3.42-1.08-.92-.72-1.49-1.68-1.74-2.9-.11-.56-.19-1.24-.22-2.04,0-.19.09-.28.28-.28h2.13c.19,0,.28.09.28.28.04.62.09,1.12.17,1.51.15.69.44,1.23.87,1.61.43.38.98.57,1.65.57.62,0,1.13-.16,1.54-.49.41-.33.71-.81.9-1.44.17-.62.25-1.36.25-2.24,0-1.01-.12-1.84-.36-2.49-.21-.58-.5-1.02-.9-1.32-.39-.3-.88-.45-1.46-.45-.28,0-.58.08-.9.25-.08.04-.13.06-.17.06-.08,0-.15-.04-.22-.11l-1.09-1.18c-.06-.06-.08-.12-.08-.2s.03-.14.08-.2l4.26-5.24s.05-.07.03-.1c-.02-.03-.05-.04-.08-.04h-6.66c-.19,0-.28-.09-.28-.28v-1.76c0-.19.09-.28.28-.28h9.83c.19,0,.28.09.28.28v1.85c0,.13-.04.24-.11.34l-3.95,4.96s-.05.07-.03.1c.02.03.05.04.08.04.84.07,1.56.34,2.16.8.6.46,1.05,1.08,1.37,1.86.37.91.56,2.02.56,3.3Z"/>
      <path class="cls-1" d="M787.59,510.2h2.21c.19,0,.28.09.28.28v19.04c0,.19-.09.28-.28.28h-2.13c-.19,0-.28-.09-.28-.28v-16.41s-.01-.07-.04-.1c-.03-.03-.06-.03-.1-.01l-2.72.87-.11.03c-.11,0-.19-.08-.22-.25l-.11-1.6c0-.15.07-.26.2-.34l2.94-1.43c.11-.06.23-.08.36-.08Z"/>
    </g>
  </g>
  <g id="wv_hall_4A_32" data-name="4/32" class="ds-stand">
    <rect class="cls-3" x="664.25" y="483" width="74" height="74" rx="4" ry="4"/>
    <g>
      <path class="cls-1" d="M699.7,523.72c0,1.16-.18,2.19-.53,3.11-.39,1.05-.99,1.84-1.79,2.38-.8.54-1.8.81-3,.81-1.36,0-2.5-.36-3.42-1.08-.92-.72-1.49-1.68-1.74-2.9-.11-.56-.19-1.24-.22-2.04,0-.19.09-.28.28-.28h2.13c.19,0,.28.09.28.28.04.62.09,1.12.17,1.51.15.69.44,1.23.87,1.61.43.38.98.57,1.65.57.62,0,1.13-.16,1.54-.49.41-.33.71-.81.9-1.44.17-.62.25-1.36.25-2.24,0-1.01-.12-1.84-.36-2.49-.21-.58-.5-1.02-.9-1.32-.39-.3-.88-.45-1.46-.45-.28,0-.58.08-.9.25-.08.04-.13.06-.17.06-.08,0-.15-.04-.22-.11l-1.09-1.18c-.06-.06-.08-.12-.08-.2s.03-.14.08-.2l4.26-5.24s.05-.07.03-.1c-.02-.03-.05-.04-.08-.04h-6.66c-.19,0-.28-.09-.28-.28v-1.76c0-.19.09-.28.28-.28h9.83c.19,0,.28.09.28.28v1.85c0,.13-.04.24-.11.34l-3.95,4.96s-.05.07-.03.1c.02.03.05.04.08.04.84.07,1.56.34,2.16.8.6.46,1.05,1.08,1.37,1.86.37.91.56,2.02.56,3.3Z"/>
      <path class="cls-1" d="M705.8,527.48h7.42c.19,0,.28.09.28.28v1.76c0,.19-.09.28-.28.28h-10.56c-.19,0-.28-.09-.28-.28v-1.79c0-.13.04-.24.11-.34,2.41-3.1,4.28-5.59,5.63-7.48,1.44-2,2.16-3.59,2.16-4.79,0-.86-.24-1.54-.73-2.06-.49-.51-1.13-.77-1.93-.77s-1.41.26-1.89.77c-.48.51-.7,1.19-.69,2.03v.98c0,.19-.09.28-.28.28h-2.16c-.19,0-.28-.09-.28-.28v-1.2c.04-1.47.55-2.66,1.55-3.56,1-.9,2.26-1.34,3.79-1.34,1.06,0,2,.22,2.8.66.8.44,1.42,1.05,1.86,1.83.44.78.66,1.67.66,2.66,0,1.66-.75,3.55-2.24,5.66-.86,1.21-2.26,3.05-4.2,5.52l-.81,1.04c-.06.09-.04.14.06.14Z"/>
    </g>
  </g>
  <g id="wv_hall_4A_33" data-name="4/33" class="ds-stand">
    <rect class="cls-3" x="424.25" y="663" width="44" height="74" rx="4" ry="4"/>
    <g>
      <path class="cls-1" d="M444.82,703.72c0,1.16-.18,2.19-.53,3.11-.39,1.05-.99,1.84-1.79,2.38s-1.8.81-3,.81c-1.36,0-2.5-.36-3.42-1.08-.91-.72-1.49-1.68-1.74-2.9-.11-.56-.19-1.24-.22-2.04,0-.19.09-.28.28-.28h2.13c.19,0,.28.09.28.28.04.62.09,1.12.17,1.51.15.69.44,1.23.87,1.61.43.38.98.57,1.65.57.62,0,1.13-.16,1.54-.49.41-.33.71-.81.9-1.44.17-.62.25-1.36.25-2.24,0-1.01-.12-1.84-.36-2.49-.21-.58-.5-1.02-.9-1.32-.39-.3-.88-.45-1.46-.45-.28,0-.58.08-.9.25-.07.04-.13.06-.17.06-.07,0-.15-.04-.22-.11l-1.09-1.18c-.06-.06-.08-.12-.08-.2s.03-.14.08-.2l4.26-5.24s.05-.07.03-.1c-.02-.03-.05-.04-.08-.04h-6.66c-.19,0-.28-.09-.28-.28v-1.76c0-.19.09-.28.28-.28h9.83c.19,0,.28.09.28.28v1.85c0,.13-.04.24-.11.34l-3.95,4.96s-.05.07-.03.1.05.04.08.04c.84.07,1.56.34,2.16.8.6.46,1.05,1.08,1.37,1.86.37.91.56,2.02.56,3.3Z"/>
      <path class="cls-1" d="M458.01,703.72c0,1.16-.18,2.19-.53,3.11-.39,1.05-.99,1.84-1.79,2.38-.8.54-1.8.81-3,.81-1.36,0-2.5-.36-3.42-1.08-.92-.72-1.49-1.68-1.74-2.9-.11-.56-.19-1.24-.22-2.04,0-.19.09-.28.28-.28h2.13c.19,0,.28.09.28.28.04.62.09,1.12.17,1.51.15.69.44,1.23.87,1.61.43.38.98.57,1.65.57.62,0,1.13-.16,1.54-.49.41-.33.71-.81.9-1.44.17-.62.25-1.36.25-2.24,0-1.01-.12-1.84-.36-2.49-.21-.58-.5-1.02-.9-1.32-.39-.3-.88-.45-1.46-.45-.28,0-.58.08-.9.25-.08.04-.13.06-.17.06-.07,0-.15-.04-.22-.11l-1.09-1.18c-.06-.06-.08-.12-.08-.2s.03-.14.08-.2l4.26-5.24s.05-.07.03-.1c-.02-.03-.05-.04-.08-.04h-6.66c-.19,0-.28-.09-.28-.28v-1.76c0-.19.09-.28.28-.28h9.83c.19,0,.28.09.28.28v1.85c0,.13-.04.24-.11.34l-3.95,4.96s-.05.07-.03.1.05.04.08.04c.84.07,1.56.34,2.16.8.6.46,1.05,1.08,1.37,1.86.37.91.56,2.02.56,3.3Z"/>
    </g>
  </g>
  <g id="wv_hall_4A_34" data-name="4/34" class="ds-stand">
    <rect class="cls-3" x="424.25" y="743" width="44" height="34" rx="4" ry="4"/>
    <g>
      <path class="cls-1" d="M444.35,763.72c0,1.16-.18,2.19-.53,3.11-.39,1.05-.99,1.84-1.79,2.38-.8.54-1.8.81-3,.81-1.36,0-2.5-.36-3.42-1.08-.92-.72-1.49-1.68-1.74-2.9-.11-.56-.19-1.24-.22-2.04,0-.19.09-.28.28-.28h2.13c.19,0,.28.09.28.28.04.62.09,1.12.17,1.51.15.69.44,1.23.87,1.61.43.38.98.57,1.65.57.62,0,1.13-.16,1.54-.49.41-.33.71-.81.9-1.44.17-.62.25-1.36.25-2.24,0-1.01-.12-1.84-.36-2.49-.21-.58-.5-1.02-.9-1.32-.39-.3-.88-.45-1.46-.45-.28,0-.58.08-.9.25-.08.04-.13.06-.17.06-.08,0-.15-.04-.22-.11l-1.09-1.18c-.06-.06-.08-.12-.08-.2s.03-.14.08-.2l4.26-5.24s.05-.07.03-.1c-.02-.03-.05-.04-.08-.04h-6.66c-.19,0-.28-.09-.28-.28v-1.76c0-.19.09-.28.28-.28h9.83c.19,0,.28.09.28.28v1.85c0,.13-.04.24-.11.34l-3.95,4.96s-.05.07-.03.1c.02.03.05.04.08.04.84.07,1.56.34,2.16.8.6.46,1.05,1.08,1.37,1.86.37.91.56,2.02.56,3.3Z"/>
      <path class="cls-1" d="M458.85,762.41v1.88c0,.19-.09.28-.28.28h-1.04c-.08,0-.11.04-.11.11v4.84c0,.19-.09.28-.28.28h-2.13c-.19,0-.28-.09-.28-.28v-4.84c0-.07-.04-.11-.11-.11h-7.7c-.19,0-.28-.09-.28-.28v-1.54c0-.13.02-.24.06-.34l4.79-11.98c.06-.15.16-.22.31-.22h2.3c.09,0,.16.03.2.1.04.07.04.14,0,.24l-4.51,11.45s-.02.07,0,.1c.02.03.05.04.08.04h4.76c.07,0,.11-.04.11-.11v-3.98c0-.19.09-.28.28-.28h2.13c.19,0,.28.09.28.28v3.98c0,.08.04.11.11.11h1.04c.19,0,.28.09.28.28Z"/>
    </g>
  </g>
  <g id="wv_hall_4A_35" data-name="4/35" class="ds-stand">
    <rect class="cls-3" x="424.25" y="783" width="44" height="34" rx="4" ry="4"/>
    <g>
      <path class="cls-1" d="M444.82,803.72c0,1.16-.18,2.19-.53,3.11-.39,1.05-.99,1.84-1.79,2.38s-1.8.81-3,.81c-1.36,0-2.5-.36-3.42-1.08-.91-.72-1.49-1.68-1.74-2.9-.11-.56-.19-1.24-.22-2.04,0-.19.09-.28.28-.28h2.13c.19,0,.28.09.28.28.04.62.09,1.12.17,1.51.15.69.44,1.23.87,1.61.43.38.98.57,1.65.57.62,0,1.13-.16,1.54-.49.41-.33.71-.81.9-1.44.17-.62.25-1.36.25-2.24,0-1.01-.12-1.84-.36-2.49-.21-.58-.5-1.02-.9-1.32-.39-.3-.88-.45-1.46-.45-.28,0-.58.08-.9.25-.07.04-.13.06-.17.06-.07,0-.15-.04-.22-.11l-1.09-1.18c-.06-.06-.08-.12-.08-.2s.03-.14.08-.2l4.26-5.24s.05-.07.03-.1c-.02-.03-.05-.04-.08-.04h-6.66c-.19,0-.28-.09-.28-.28v-1.76c0-.19.09-.28.28-.28h9.83c.19,0,.28.09.28.28v1.85c0,.13-.04.24-.11.34l-3.95,4.96s-.05.07-.03.1.05.04.08.04c.84.07,1.56.34,2.16.8.6.46,1.05,1.08,1.37,1.86.37.91.56,2.02.56,3.3Z"/>
      <path class="cls-1" d="M458.37,803.72c0,.97-.08,1.79-.25,2.46-.32,1.23-.92,2.18-1.81,2.84s-1.99.99-3.32.99-2.43-.35-3.32-1.04c-.89-.69-1.48-1.66-1.78-2.91-.11-.48-.18-.86-.2-1.12v-.06c0-.15.08-.22.25-.22h2.16c.19,0,.29.09.31.28.04.3.07.5.11.59.15.69.44,1.22.87,1.58.43.36.96.55,1.6.55s1.17-.19,1.61-.56c.44-.37.73-.91.88-1.6.11-.43.17-1.02.17-1.76s-.07-1.38-.2-1.96c-.15-.63-.44-1.12-.87-1.44-.43-.33-.96-.49-1.6-.49s-1.14.14-1.58.42-.75.7-.94,1.26c-.04.15-.14.22-.31.22h-2.18c-.19,0-.28-.09-.28-.28v-11c0-.19.09-.28.28-.28h9.55c.19,0,.28.09.28.28v1.76c0,.19-.09.28-.28.28h-7.03c-.07,0-.11.04-.11.11l-.03,5.96c0,.09.05.11.14.06.37-.37.83-.66,1.36-.85.53-.2,1.1-.29,1.69-.29,1.1,0,2.03.27,2.8.8.76.53,1.3,1.3,1.6,2.31.28.92.42,1.95.42,3.11Z"/>
    </g>
  </g>
  <g id="wv_hall_4A_36" data-name="4/36" class="ds-stand">
    <rect class="cls-3" x="424.25" y="823" width="44" height="34" rx="4" ry="4"/>
    <g>
      <path class="cls-1" d="M444.81,843.72c0,1.16-.18,2.19-.53,3.11-.39,1.05-.99,1.84-1.79,2.38s-1.8.81-3,.81c-1.36,0-2.5-.36-3.42-1.08-.91-.72-1.49-1.68-1.74-2.9-.11-.56-.19-1.24-.22-2.04,0-.19.09-.28.28-.28h2.13c.19,0,.28.09.28.28.04.62.09,1.12.17,1.51.15.69.44,1.23.87,1.61.43.38.98.57,1.65.57.62,0,1.13-.16,1.54-.49s.71-.81.9-1.44c.17-.62.25-1.36.25-2.24,0-1.01-.12-1.84-.36-2.49-.21-.58-.5-1.02-.9-1.32-.39-.3-.88-.45-1.46-.45-.28,0-.58.08-.9.25-.07.04-.13.06-.17.06-.07,0-.15-.04-.22-.11l-1.09-1.18c-.06-.06-.08-.12-.08-.2s.03-.14.08-.2l4.26-5.24s.05-.07.03-.1c-.02-.03-.05-.04-.08-.04h-6.66c-.19,0-.28-.09-.28-.28v-1.76c0-.19.09-.28.28-.28h9.83c.19,0,.28.09.28.28v1.85c0,.13-.04.24-.11.34l-3.95,4.96s-.05.07-.03.1c.02.03.05.04.08.04.84.07,1.56.34,2.16.8.6.46,1.05,1.08,1.37,1.86.37.91.56,2.02.56,3.3Z"/>
      <path class="cls-1" d="M458.39,843.72c0,.95-.1,1.79-.31,2.52-.32,1.21-.91,2.15-1.76,2.8-.86.65-1.95.98-3.28.98-1.21,0-2.24-.29-3.08-.88-.84-.59-1.43-1.43-1.76-2.53-.34-.75-.5-1.68-.5-2.8l-.03-8.88c0-1.49.49-2.69,1.46-3.6s2.25-1.36,3.84-1.36c1.49,0,2.71.45,3.65,1.34s1.41,2.07,1.41,3.53v.59c0,.19-.09.28-.28.28h-2.13c-.19,0-.28-.09-.28-.28v-.39c0-.78-.23-1.43-.69-1.95-.46-.51-1.03-.77-1.72-.77-.75,0-1.36.26-1.83.77-.48.51-.71,1.19-.71,2.03v3.53s.01.07.04.08c.03.02.06,0,.1-.03.73-.84,1.7-1.26,2.91-1.26,1.14,0,2.09.3,2.84.9.76.6,1.31,1.42,1.67,2.46.3.84.45,1.81.45,2.91ZM455.67,843.67c0-.88-.09-1.59-.28-2.13-.17-.58-.46-1.03-.87-1.36-.41-.33-.92-.49-1.51-.49s-1.12.16-1.53.49c-.4.33-.69.79-.85,1.39-.17.52-.25,1.23-.25,2.13,0,.77.06,1.41.2,1.93.15.63.43,1.13.85,1.5.42.36.95.55,1.58.55s1.16-.18,1.58-.55c.42-.36.71-.89.88-1.58.13-.5.2-1.13.2-1.88Z"/>
    </g>
  </g>
  <g id="wv_hall_4A_37" data-name="4/37" class="ds-stand">
    <rect class="cls-3" x="424.25" y="863" width="44" height="34" rx="4" ry="4"/>
    <g>
      <path class="cls-1" d="M445.38,883.72c0,1.16-.18,2.19-.53,3.11-.39,1.05-.99,1.84-1.79,2.38-.8.54-1.8.81-3,.81-1.36,0-2.5-.36-3.42-1.08-.92-.72-1.49-1.68-1.74-2.9-.11-.56-.19-1.24-.22-2.04,0-.19.09-.28.28-.28h2.13c.19,0,.28.09.28.28.04.62.09,1.12.17,1.51.15.69.44,1.23.87,1.61.43.38.98.57,1.65.57.62,0,1.13-.16,1.54-.49.41-.33.71-.81.9-1.44.17-.62.25-1.36.25-2.24,0-1.01-.12-1.84-.36-2.49-.21-.58-.5-1.02-.9-1.32-.39-.3-.88-.45-1.46-.45-.28,0-.58.08-.9.25-.08.04-.13.06-.17.06-.08,0-.15-.04-.22-.11l-1.09-1.18c-.06-.06-.08-.12-.08-.2s.03-.14.08-.2l4.26-5.24s.05-.07.03-.1c-.02-.03-.05-.04-.08-.04h-6.66c-.19,0-.28-.09-.28-.28v-1.76c0-.19.09-.28.28-.28h9.83c.19,0,.28.09.28.28v1.85c0,.13-.04.24-.11.34l-3.95,4.96s-.05.07-.03.1.05.04.08.04c.84.07,1.56.34,2.16.8.6.46,1.05,1.08,1.37,1.86.37.91.56,2.02.56,3.3Z"/>
      <path class="cls-1" d="M450,889.49l5.54-16.83s.01-.07-.01-.1c-.03-.03-.06-.04-.1-.04h-5.6c-.07,0-.11.04-.11.11v1.2c0,.19-.09.28-.28.28h-1.65c-.19,0-.28-.09-.28-.28v-3.36c0-.19.09-.28.28-.28h10.33c.19,0,.28.09.28.28v1.88c0,.07-.02.19-.06.34l-5.52,16.88c-.06.15-.17.22-.34.22h-2.27c-.21,0-.28-.1-.22-.31Z"/>
    </g>
  </g>
  <g id="wv_hall_4A_38" data-name="4/38" class="ds-stand">
    <rect class="cls-3" x="524.25" y="743" width="74" height="74" rx="4" ry="4"/>
    <g>
      <path class="cls-1" d="M559.72,783.72c0,1.16-.18,2.19-.53,3.11-.39,1.05-.99,1.84-1.79,2.38-.8.54-1.8.81-3,.81-1.36,0-2.5-.36-3.42-1.08-.92-.72-1.49-1.68-1.74-2.9-.11-.56-.19-1.24-.22-2.04,0-.19.09-.28.28-.28h2.13c.19,0,.28.09.28.28.04.62.09,1.12.17,1.51.15.69.44,1.23.87,1.61.43.38.98.57,1.65.57.62,0,1.13-.16,1.54-.49.41-.33.71-.81.9-1.44.17-.62.25-1.36.25-2.24,0-1.01-.12-1.84-.36-2.49-.21-.58-.5-1.02-.9-1.32-.39-.3-.88-.45-1.46-.45-.28,0-.58.08-.9.25-.08.04-.13.06-.17.06-.08,0-.15-.04-.22-.11l-1.09-1.18c-.06-.06-.08-.12-.08-.2s.03-.14.08-.2l4.26-5.24s.05-.07.03-.1c-.02-.03-.05-.04-.08-.04h-6.66c-.19,0-.28-.09-.28-.28v-1.76c0-.19.09-.28.28-.28h9.83c.19,0,.28.09.28.28v1.85c0,.13-.04.24-.11.34l-3.95,4.96s-.05.07-.03.1.05.04.08.04c.84.07,1.56.34,2.16.8.6.46,1.05,1.08,1.37,1.86.37.91.56,2.02.56,3.3Z"/>
      <path class="cls-1" d="M573.16,784.26c0,1.16-.21,2.15-.62,2.97-.41.88-1.02,1.56-1.83,2.06-.81.5-1.77.74-2.87.74s-2.06-.25-2.88-.76c-.82-.5-1.44-1.21-1.85-2.13-.41-.88-.62-1.85-.62-2.91s.18-1.95.53-2.77c.37-.88.98-1.52,1.82-1.93.09-.06.09-.11,0-.17-.65-.39-1.16-.91-1.51-1.54-.47-.77-.7-1.67-.7-2.72s.21-1.92.64-2.69c.43-.78,1.05-1.4,1.85-1.85.8-.45,1.71-.67,2.72-.67s1.96.22,2.74.66c.78.44,1.38,1.06,1.79,1.86.45.8.67,1.7.67,2.69s-.23,1.91-.7,2.72c-.35.63-.86,1.15-1.51,1.54-.09.06-.1.1-.03.14.84.41,1.45,1.06,1.82,1.96.35.77.53,1.7.53,2.8ZM570.5,784.09c0-.75-.1-1.38-.31-1.9-.19-.54-.48-.96-.88-1.26-.4-.3-.89-.45-1.47-.45-1.18,0-1.96.55-2.35,1.65-.21.5-.31,1.16-.31,1.96s.13,1.52.39,2.04c.41,1.05,1.17,1.57,2.27,1.57s1.83-.51,2.24-1.54c.28-.56.42-1.25.42-2.07ZM565.3,775.3c0,.67.13,1.25.39,1.74.21.43.49.77.87,1.01.37.24.8.36,1.29.36s.94-.13,1.32-.38c.37-.25.66-.6.87-1.05.24-.47.36-1.04.36-1.71,0-.58-.11-1.09-.34-1.54-.19-.47-.47-.84-.85-1.11-.38-.27-.84-.41-1.39-.41-.5,0-.95.14-1.34.42-.39.28-.68.65-.87,1.12-.21.5-.31,1.02-.31,1.54Z"/>
    </g>
  </g>
  <g id="wv_hall_4A_39" data-name="4/39" class="ds-stand">
    <rect class="cls-3" x="664.25" y="723" width="74" height="44" rx="4" ry="4"/>
    <g>
      <path class="cls-1" d="M699.93,748.72c0,1.16-.18,2.19-.53,3.11-.39,1.05-.99,1.84-1.79,2.38s-1.8.81-3,.81c-1.36,0-2.5-.36-3.42-1.08-.91-.72-1.49-1.68-1.74-2.9-.11-.56-.19-1.24-.22-2.04,0-.19.09-.28.28-.28h2.13c.19,0,.28.09.28.28.04.62.09,1.12.17,1.51.15.69.44,1.23.87,1.61.43.38.98.57,1.65.57.62,0,1.13-.16,1.54-.49.41-.33.71-.81.9-1.44.17-.62.25-1.36.25-2.24,0-1.01-.12-1.84-.36-2.49-.21-.58-.5-1.02-.9-1.32-.39-.3-.88-.45-1.46-.45-.28,0-.58.08-.9.25-.07.04-.13.06-.17.06-.07,0-.15-.04-.22-.11l-1.09-1.18c-.06-.06-.08-.12-.08-.2s.03-.14.08-.2l4.26-5.24s.05-.07.03-.1c-.02-.03-.05-.04-.08-.04h-6.66c-.19,0-.28-.09-.28-.28v-1.76c0-.19.09-.28.28-.28h9.83c.19,0,.28.09.28.28v1.85c0,.13-.04.24-.11.34l-3.95,4.96s-.05.07-.03.1.05.04.08.04c.84.07,1.56.34,2.16.8.6.46,1.05,1.08,1.37,1.86.37.91.56,2.02.56,3.3Z"/>
      <path class="cls-1" d="M712.9,741.19v8.88c0,1.51-.49,2.72-1.46,3.61s-2.24,1.34-3.81,1.34-2.74-.45-3.67-1.34c-.93-.9-1.4-2.07-1.4-3.53v-.59c0-.19.09-.28.28-.28h2.13c.19,0,.28.09.28.28v.39c0,.8.22,1.46.67,1.96.45.5,1.02.76,1.71.76.76,0,1.39-.26,1.86-.77.48-.51.71-1.19.71-2.03v-3.56s-.01-.07-.04-.08c-.03-.02-.06,0-.1.03-.73.86-1.7,1.29-2.91,1.29-1.14,0-2.09-.3-2.86-.9-.77-.6-1.32-1.42-1.65-2.46-.3-.77-.45-1.74-.45-2.91,0-1.05.1-1.89.31-2.52.3-1.21.88-2.15,1.74-2.8.86-.65,1.95-.98,3.28-.98,1.21,0,2.24.29,3.08.88s1.43,1.43,1.76,2.53c.35.78.53,1.72.53,2.8ZM709.08,744.82c.4-.33.69-.79.85-1.39.19-.58.28-1.29.28-2.13,0-.77-.06-1.41-.2-1.93-.17-.65-.46-1.16-.88-1.51-.42-.35-.95-.53-1.58-.53s-1.14.18-1.57.55c-.43.36-.73.89-.9,1.58-.13.62-.2,1.24-.2,1.88,0,.8.09,1.51.28,2.13.39,1.23,1.18,1.85,2.38,1.85.62,0,1.12-.16,1.53-.49Z"/>
    </g>
  </g>
  <g id="wv_hall_4A_40" data-name="4/40" class="ds-stand">
    <rect class="cls-3" x="744.25" y="723" width="74" height="44" rx="4" ry="4"/>
    <g>
      <path class="cls-1" d="M780.16,747.41v1.88c0,.19-.09.28-.28.28h-1.04c-.07,0-.11.04-.11.11v4.84c0,.19-.09.28-.28.28h-2.13c-.19,0-.28-.09-.28-.28v-4.84c0-.07-.04-.11-.11-.11h-7.7c-.19,0-.28-.09-.28-.28v-1.54c0-.13.02-.24.06-.34l4.79-11.98c.06-.15.16-.22.31-.22h2.3c.09,0,.16.03.2.1s.04.14,0,.24l-4.51,11.45s-.02.07,0,.1c.02.03.05.04.08.04h4.76c.07,0,.11-.04.11-.11v-3.98c0-.19.09-.28.28-.28h2.13c.19,0,.28.09.28.28v3.98c0,.08.04.11.11.11h1.04c.19,0,.28.09.28.28Z"/>
      <path class="cls-1" d="M784.23,753.57c-1.02-1.01-1.53-2.36-1.53-4.06v-9.02c0-1.68.51-3.02,1.53-4.03,1.02-1.01,2.38-1.51,4.07-1.51s3.06.5,4.09,1.51c1.03,1.01,1.54,2.35,1.54,4.03v9.02c0,1.7-.51,3.05-1.54,4.06-1.03,1.01-2.39,1.51-4.09,1.51s-3.06-.5-4.07-1.51ZM790.43,751.9c.54-.57.81-1.32.81-2.25v-9.27c0-.93-.27-1.68-.81-2.25s-1.25-.85-2.13-.85-1.58.28-2.11.85c-.53.57-.8,1.32-.8,2.25v9.27c0,.93.27,1.68.8,2.25.53.57,1.24.85,2.11.85s1.59-.28,2.13-.85Z"/>
    </g>
  </g>
  <g id="wv_hall_4A_41" data-name="4/41" class="ds-stand">
    <rect class="cls-3" x="664.25" y="773" width="74" height="44" rx="4" ry="4"/>
    <g>
      <path class="cls-1" d="M703.92,797.41v1.88c0,.19-.09.28-.28.28h-1.04c-.08,0-.11.04-.11.11v4.84c0,.19-.09.28-.28.28h-2.13c-.19,0-.28-.09-.28-.28v-4.84c0-.07-.04-.11-.11-.11h-7.7c-.19,0-.28-.09-.28-.28v-1.54c0-.13.02-.24.06-.34l4.79-11.98c.06-.15.16-.22.31-.22h2.3c.09,0,.16.03.2.1.04.07.04.14,0,.24l-4.51,11.45s-.02.07,0,.1c.02.03.05.04.08.04h4.76c.07,0,.11-.04.11-.11v-3.98c0-.19.09-.28.28-.28h2.13c.19,0,.28.09.28.28v3.98c0,.08.04.11.11.11h1.04c.19,0,.28.09.28.28Z"/>
      <path class="cls-1" d="M707.34,785.2h2.21c.19,0,.28.09.28.28v19.04c0,.19-.09.28-.28.28h-2.13c-.19,0-.28-.09-.28-.28v-16.41s-.01-.07-.04-.1c-.03-.03-.06-.03-.1-.01l-2.72.87-.11.03c-.11,0-.19-.08-.22-.25l-.11-1.6c0-.15.07-.26.2-.34l2.94-1.43c.11-.06.23-.08.36-.08Z"/>
    </g>
  </g>
  <g id="wv_hall_4A_42" data-name="4/42" class="ds-stand">
    <rect class="cls-3" x="744.25" y="773" width="74" height="44" rx="4" ry="4"/>
    <g>
      <path class="cls-1" d="M780.54,797.41v1.88c0,.19-.09.28-.28.28h-1.04c-.07,0-.11.04-.11.11v4.84c0,.19-.09.28-.28.28h-2.13c-.19,0-.28-.09-.28-.28v-4.84c0-.07-.04-.11-.11-.11h-7.7c-.19,0-.28-.09-.28-.28v-1.54c0-.13.02-.24.06-.34l4.79-11.98c.06-.15.16-.22.31-.22h2.29c.09,0,.16.03.2.1s.04.14,0,.24l-4.51,11.45s-.02.07,0,.1c.02.03.05.04.08.04h4.76c.08,0,.11-.04.11-.11v-3.98c0-.19.09-.28.28-.28h2.13c.19,0,.28.09.28.28v3.98c0,.08.04.11.11.11h1.04c.19,0,.28.09.28.28Z"/>
      <path class="cls-1" d="M786.27,802.48h7.42c.19,0,.28.09.28.28v1.76c0,.19-.09.28-.28.28h-10.56c-.19,0-.28-.09-.28-.28v-1.79c0-.13.04-.24.11-.34,2.41-3.1,4.28-5.59,5.63-7.48,1.44-2,2.16-3.59,2.16-4.79,0-.86-.24-1.54-.73-2.06-.49-.51-1.13-.77-1.93-.77s-1.41.26-1.89.77c-.48.51-.7,1.19-.69,2.03v.98c0,.19-.09.28-.28.28h-2.16c-.19,0-.28-.09-.28-.28v-1.2c.04-1.47.56-2.66,1.55-3.56s2.26-1.34,3.79-1.34c1.06,0,2,.22,2.8.66.8.44,1.42,1.05,1.86,1.83s.66,1.67.66,2.66c0,1.66-.75,3.55-2.24,5.66-.86,1.21-2.26,3.05-4.2,5.52l-.81,1.04c-.06.09-.04.14.06.14Z"/>
    </g>
  </g>
  <g id="wv_hall_4A_43" data-name="4/43" class="ds-stand">
    <rect class="cls-3" x="541.25" y="888" width="34" height="44" rx="4" ry="4"/>
    <g>
      <path class="cls-1" d="M557.66,912.41v1.88c0,.19-.09.28-.28.28h-1.04c-.07,0-.11.04-.11.11v4.84c0,.19-.09.28-.28.28h-2.13c-.19,0-.28-.09-.28-.28v-4.84c0-.07-.04-.11-.11-.11h-7.7c-.19,0-.28-.09-.28-.28v-1.54c0-.13.02-.24.06-.34l4.79-11.98c.06-.15.16-.22.31-.22h2.3c.09,0,.16.03.2.1s.04.14,0,.24l-4.51,11.45s-.02.07,0,.1c.02.03.05.04.08.04h4.76c.08,0,.11-.04.11-.11v-3.98c0-.19.09-.28.28-.28h2.13c.19,0,.28.09.28.28v3.98c0,.08.04.11.11.11h1.04c.19,0,.28.09.28.28Z"/>
      <path class="cls-1" d="M570.49,913.72c0,1.16-.18,2.19-.53,3.11-.39,1.05-.99,1.84-1.79,2.38-.8.54-1.8.81-3,.81-1.36,0-2.5-.36-3.42-1.08-.92-.72-1.49-1.68-1.74-2.9-.11-.56-.19-1.24-.22-2.04,0-.19.09-.28.28-.28h2.13c.19,0,.28.09.28.28.04.62.09,1.12.17,1.51.15.69.44,1.23.87,1.61.43.38.98.57,1.65.57.62,0,1.13-.16,1.54-.49.41-.33.71-.81.9-1.44.17-.62.25-1.36.25-2.24,0-1.01-.12-1.84-.36-2.49-.21-.58-.5-1.02-.9-1.32-.39-.3-.88-.45-1.46-.45-.28,0-.58.08-.9.25-.08.04-.13.06-.17.06-.08,0-.15-.04-.22-.11l-1.09-1.18c-.06-.06-.08-.12-.08-.2s.03-.14.08-.2l4.26-5.24s.05-.07.03-.1c-.02-.03-.05-.04-.08-.04h-6.66c-.19,0-.28-.09-.28-.28v-1.76c0-.19.09-.28.28-.28h9.83c.19,0,.28.09.28.28v1.85c0,.13-.04.24-.11.34l-3.95,4.96s-.05.07-.03.1.05.04.08.04c.84.07,1.56.34,2.16.8.6.46,1.05,1.08,1.37,1.86.37.91.56,2.02.56,3.3Z"/>
    </g>
  </g>
  <g id="wv_hall_4A_44" data-name="4/44" class="ds-stand">
    <rect class="cls-3" x="664.25" y="888" width="74" height="44" rx="4" ry="4"/>
    <g>
      <path class="cls-1" d="M700.19,912.41v1.88c0,.19-.09.28-.28.28h-1.04c-.08,0-.11.04-.11.11v4.84c0,.19-.09.28-.28.28h-2.13c-.19,0-.28-.09-.28-.28v-4.84c0-.07-.04-.11-.11-.11h-7.7c-.19,0-.28-.09-.28-.28v-1.54c0-.13.02-.24.06-.34l4.79-11.98c.06-.15.16-.22.31-.22h2.3c.09,0,.16.03.2.1.04.07.04.14,0,.24l-4.51,11.45s-.02.07,0,.1c.02.03.05.04.08.04h4.76c.07,0,.11-.04.11-.11v-3.98c0-.19.09-.28.28-.28h2.13c.19,0,.28.09.28.28v3.98c0,.08.04.11.11.11h1.04c.19,0,.28.09.28.28Z"/>
      <path class="cls-1" d="M714.33,912.41v1.88c0,.19-.09.28-.28.28h-1.04c-.07,0-.11.04-.11.11v4.84c0,.19-.09.28-.28.28h-2.13c-.19,0-.28-.09-.28-.28v-4.84c0-.07-.04-.11-.11-.11h-7.7c-.19,0-.28-.09-.28-.28v-1.54c0-.13.02-.24.06-.34l4.79-11.98c.06-.15.16-.22.31-.22h2.3c.09,0,.16.03.2.1s.04.14,0,.24l-4.51,11.45s-.02.07,0,.1c.02.03.05.04.08.04h4.76c.07,0,.11-.04.11-.11v-3.98c0-.19.09-.28.28-.28h2.13c.19,0,.28.09.28.28v3.98c0,.08.04.11.11.11h1.04c.19,0,.28.09.28.28Z"/>
    </g>
  </g>
  <g id="wv_hall_4A_45" data-name="4/45" class="ds-stand">
    <rect class="cls-3" x="744.25" y="888" width="74" height="44" rx="4" ry="4"/>
    <g>
      <path class="cls-1" d="M780.66,912.41v1.88c0,.19-.09.28-.28.28h-1.04c-.07,0-.11.04-.11.11v4.84c0,.19-.09.28-.28.28h-2.13c-.19,0-.28-.09-.28-.28v-4.84c0-.07-.04-.11-.11-.11h-7.7c-.19,0-.28-.09-.28-.28v-1.54c0-.13.02-.24.06-.34l4.79-11.98c.06-.15.16-.22.31-.22h2.3c.09,0,.16.03.2.1s.04.14,0,.24l-4.51,11.45s-.02.07,0,.1c.02.03.05.04.08.04h4.76c.07,0,.11-.04.11-.11v-3.98c0-.19.09-.28.28-.28h2.13c.19,0,.28.09.28.28v3.98c0,.08.04.11.11.11h1.04c.19,0,.28.09.28.28Z"/>
      <path class="cls-1" d="M793.85,913.72c0,.97-.08,1.79-.25,2.46-.32,1.23-.92,2.18-1.81,2.84s-1.99.99-3.32.99-2.43-.35-3.32-1.04c-.89-.69-1.48-1.66-1.78-2.91-.11-.48-.18-.86-.2-1.12v-.06c0-.15.08-.22.25-.22h2.16c.19,0,.29.09.31.28.04.3.07.5.11.59.15.69.44,1.22.87,1.58.43.36.96.55,1.6.55s1.17-.19,1.61-.56c.44-.37.73-.91.88-1.6.11-.43.17-1.02.17-1.76s-.07-1.38-.2-1.96c-.15-.63-.44-1.12-.87-1.44-.43-.33-.96-.49-1.6-.49s-1.14.14-1.58.42-.75.7-.94,1.26c-.04.15-.14.22-.31.22h-2.18c-.19,0-.28-.09-.28-.28v-11c0-.19.09-.28.28-.28h9.55c.19,0,.28.09.28.28v1.76c0,.19-.09.28-.28.28h-7.03c-.08,0-.11.04-.11.11l-.03,5.96c0,.09.05.11.14.06.37-.37.83-.66,1.36-.85.53-.2,1.1-.29,1.69-.29,1.1,0,2.04.27,2.8.8.76.53,1.3,1.3,1.6,2.31.28.92.42,1.95.42,3.11Z"/>
    </g>
  </g>
  <g id="wv_hall_4A_46" data-name="4/46" class="ds-stand">
    <rect class="cls-3" x="524.25" y="938" width="34" height="44" rx="4" ry="4"/>
    <g>
      <path class="cls-1" d="M540.65,962.41v1.88c0,.19-.09.28-.28.28h-1.04c-.07,0-.11.04-.11.11v4.84c0,.19-.09.28-.28.28h-2.13c-.19,0-.28-.09-.28-.28v-4.84c0-.07-.04-.11-.11-.11h-7.7c-.19,0-.28-.09-.28-.28v-1.54c0-.13.02-.24.06-.34l4.79-11.98c.06-.15.16-.22.31-.22h2.3c.09,0,.16.03.2.1s.04.14,0,.24l-4.51,11.45s-.02.07,0,.1c.02.03.05.04.08.04h4.76c.07,0,.11-.04.11-.11v-3.98c0-.19.09-.28.28-.28h2.13c.19,0,.28.09.28.28v3.98c0,.08.04.11.11.11h1.04c.19,0,.28.09.28.28Z"/>
      <path class="cls-1" d="M553.86,963.72c0,.95-.1,1.79-.31,2.52-.32,1.21-.91,2.15-1.76,2.8s-1.95.98-3.28.98c-1.21,0-2.24-.29-3.08-.88-.84-.59-1.43-1.43-1.76-2.53-.34-.75-.5-1.68-.5-2.8l-.03-8.88c0-1.49.49-2.69,1.46-3.6s2.25-1.36,3.84-1.36c1.49,0,2.71.45,3.65,1.34.94.9,1.41,2.07,1.41,3.53v.59c0,.19-.09.28-.28.28h-2.13c-.19,0-.28-.09-.28-.28v-.39c0-.78-.23-1.43-.69-1.95-.46-.51-1.03-.77-1.72-.77-.75,0-1.36.26-1.83.77-.48.51-.71,1.19-.71,2.03v3.53s.01.07.04.08c.03.02.06,0,.1-.03.73-.84,1.7-1.26,2.91-1.26,1.14,0,2.09.3,2.84.9.76.6,1.31,1.42,1.67,2.46.3.84.45,1.81.45,2.91ZM551.15,963.67c0-.88-.09-1.59-.28-2.13-.17-.58-.46-1.03-.87-1.36-.41-.33-.92-.49-1.51-.49s-1.12.16-1.53.49c-.4.33-.69.79-.85,1.39-.17.52-.25,1.23-.25,2.13,0,.77.07,1.41.2,1.93.15.63.43,1.13.85,1.5.42.36.95.55,1.58.55s1.16-.18,1.58-.55c.42-.36.71-.89.88-1.58.13-.5.2-1.13.2-1.88Z"/>
    </g>
  </g>
  <g id="wv_hall_4A_47" data-name="4/47" class="ds-stand">
    <rect class="cls-3" x="564.25" y="948" width="44" height="34" rx="4" ry="4"/>
    <g>
      <path class="cls-1" d="M586.88,967.41v1.88c0,.19-.09.28-.28.28h-1.04c-.07,0-.11.04-.11.11v4.84c0,.19-.09.28-.28.28h-2.13c-.19,0-.28-.09-.28-.28v-4.84c0-.07-.04-.11-.11-.11h-7.7c-.19,0-.28-.09-.28-.28v-1.54c0-.13.02-.24.06-.34l4.79-11.98c.06-.15.16-.22.31-.22h2.3c.09,0,.16.03.2.1s.04.14,0,.24l-4.51,11.45s-.02.07,0,.1c.02.03.05.04.08.04h4.76c.07,0,.11-.04.11-.11v-3.98c0-.19.09-.28.28-.28h2.13c.19,0,.28.09.28.28v3.98c0,.08.04.11.11.11h1.04c.19,0,.28.09.28.28Z"/>
      <path class="cls-1" d="M589.82,974.49l5.54-16.83s.01-.07-.01-.1c-.03-.03-.06-.04-.1-.04h-5.6c-.08,0-.11.04-.11.11v1.2c0,.19-.09.28-.28.28h-1.65c-.19,0-.28-.09-.28-.28v-3.36c0-.19.09-.28.28-.28h10.33c.19,0,.28.09.28.28v1.88c0,.07-.02.19-.06.34l-5.52,16.88c-.06.15-.17.22-.34.22h-2.27c-.21,0-.28-.1-.22-.31Z"/>
    </g>
  </g>
  <g id="wv_hall_4A_48" data-name="4/48" class="ds-stand">
    <rect class="cls-3" x="614.25" y="948" width="44" height="34" rx="4" ry="4"/>
    <g>
      <path class="cls-1" d="M635.56,967.41v1.88c0,.19-.09.28-.28.28h-1.04c-.07,0-.11.04-.11.11v4.84c0,.19-.09.28-.28.28h-2.13c-.19,0-.28-.09-.28-.28v-4.84c0-.07-.04-.11-.11-.11h-7.7c-.19,0-.28-.09-.28-.28v-1.54c0-.13.02-.24.06-.34l4.79-11.98c.06-.15.16-.22.31-.22h2.3c.09,0,.16.03.2.1s.04.14,0,.24l-4.51,11.45s-.02.07,0,.1c.02.03.05.04.08.04h4.76c.08,0,.11-.04.11-.11v-3.98c0-.19.09-.28.28-.28h2.13c.19,0,.28.09.28.28v3.98c0,.08.04.11.11.11h1.04c.19,0,.28.09.28.28Z"/>
      <path class="cls-1" d="M648.64,969.26c0,1.16-.21,2.15-.62,2.97-.41.88-1.02,1.56-1.83,2.06-.81.5-1.77.74-2.87.74s-2.06-.25-2.88-.76c-.82-.5-1.44-1.21-1.85-2.13-.41-.88-.62-1.85-.62-2.91s.18-1.95.53-2.77c.37-.88.98-1.52,1.82-1.93.09-.06.09-.11,0-.17-.65-.39-1.16-.91-1.51-1.54-.47-.77-.7-1.67-.7-2.72s.21-1.92.64-2.69c.43-.78,1.04-1.4,1.85-1.85.8-.45,1.71-.67,2.72-.67s1.96.22,2.74.66c.78.44,1.38,1.06,1.79,1.86.45.8.67,1.7.67,2.69s-.23,1.91-.7,2.72c-.35.63-.86,1.15-1.51,1.54-.09.06-.1.1-.03.14.84.41,1.45,1.06,1.82,1.96.35.77.53,1.7.53,2.8ZM645.98,969.09c0-.75-.1-1.38-.31-1.9-.19-.54-.48-.96-.88-1.26-.4-.3-.89-.45-1.47-.45-1.18,0-1.96.55-2.35,1.65-.21.5-.31,1.16-.31,1.96s.13,1.52.39,2.04c.41,1.05,1.17,1.57,2.27,1.57s1.83-.51,2.24-1.54c.28-.56.42-1.25.42-2.07ZM640.77,960.3c0,.67.13,1.25.39,1.74.21.43.49.77.87,1.01.37.24.8.36,1.29.36s.94-.13,1.32-.38c.37-.25.66-.6.87-1.05.24-.47.36-1.04.36-1.71,0-.58-.11-1.09-.34-1.54-.19-.47-.47-.84-.85-1.11-.38-.27-.84-.41-1.39-.41-.5,0-.95.14-1.34.42-.39.28-.68.65-.87,1.12-.21.5-.31,1.02-.31,1.54Z"/>
    </g>
  </g>
  <g id="wv_hall_4A_49" data-name="4/49" class="ds-stand">
    <rect class="cls-3" x="664.25" y="938" width="34" height="44" rx="4" ry="4"/>
    <g>
      <path class="cls-1" d="M680.77,962.41v1.88c0,.19-.09.28-.28.28h-1.04c-.07,0-.11.04-.11.11v4.84c0,.19-.09.28-.28.28h-2.13c-.19,0-.28-.09-.28-.28v-4.84c0-.07-.04-.11-.11-.11h-7.7c-.19,0-.28-.09-.28-.28v-1.54c0-.13.02-.24.06-.34l4.79-11.98c.06-.15.16-.22.31-.22h2.29c.09,0,.16.03.2.1s.04.14,0,.24l-4.51,11.45s-.02.07,0,.1c.02.03.05.04.08.04h4.76c.08,0,.11-.04.11-.11v-3.98c0-.19.09-.28.28-.28h2.13c.19,0,.28.09.28.28v3.98c0,.08.04.11.11.11h1.04c.19,0,.28.09.28.28Z"/>
      <path class="cls-1" d="M693.37,956.19v8.88c0,1.51-.49,2.72-1.46,3.61s-2.24,1.34-3.81,1.34-2.73-.45-3.67-1.34-1.4-2.07-1.4-3.53v-.59c0-.19.09-.28.28-.28h2.13c.19,0,.28.09.28.28v.39c0,.8.22,1.46.67,1.96.45.5,1.02.76,1.71.76.77,0,1.39-.26,1.86-.77.48-.51.71-1.19.71-2.03v-3.56s-.01-.07-.04-.08c-.03-.02-.06,0-.1.03-.73.86-1.7,1.29-2.91,1.29-1.14,0-2.09-.3-2.86-.9-.77-.6-1.32-1.42-1.65-2.46-.3-.77-.45-1.74-.45-2.91,0-1.05.1-1.89.31-2.52.3-1.21.88-2.15,1.74-2.8.86-.65,1.95-.98,3.28-.98,1.21,0,2.24.29,3.08.88s1.43,1.43,1.76,2.53c.35.78.53,1.72.53,2.8ZM689.55,959.82c.4-.33.69-.79.85-1.39.19-.58.28-1.29.28-2.13,0-.77-.07-1.41-.2-1.93-.17-.65-.46-1.16-.88-1.51-.42-.35-.95-.53-1.58-.53s-1.14.18-1.57.55c-.43.36-.73.89-.9,1.58-.13.62-.2,1.24-.2,1.88,0,.8.09,1.51.28,2.13.39,1.23,1.18,1.85,2.38,1.85.62,0,1.12-.16,1.53-.49Z"/>
    </g>
  </g>
  <g id="wv_hall_4A_50" data-name="4/50" class="ds-stand">
    <rect class="cls-3" x="704.25" y="938" width="34" height="44" rx="4" ry="4"/>
    <g>
      <path class="cls-1" d="M719.68,963.72c0,.97-.08,1.79-.25,2.46-.32,1.23-.92,2.18-1.81,2.84s-1.99.99-3.32.99-2.43-.35-3.32-1.04c-.89-.69-1.48-1.66-1.78-2.91-.11-.48-.18-.86-.2-1.12v-.06c0-.15.08-.22.25-.22h2.16c.19,0,.29.09.31.28.04.3.07.5.11.59.15.69.44,1.22.87,1.58.43.36.96.55,1.6.55s1.17-.19,1.61-.56c.44-.37.73-.91.88-1.6.11-.43.17-1.02.17-1.76s-.07-1.38-.2-1.96c-.15-.63-.44-1.12-.87-1.44-.43-.33-.96-.49-1.6-.49s-1.14.14-1.58.42c-.44.28-.75.7-.94,1.26-.04.15-.14.22-.31.22h-2.18c-.19,0-.28-.09-.28-.28v-11c0-.19.09-.28.28-.28h9.55c.19,0,.28.09.28.28v1.76c0,.19-.09.28-.28.28h-7.03c-.08,0-.11.04-.11.11l-.03,5.96c0,.09.05.11.14.06.37-.37.83-.66,1.36-.85.53-.2,1.1-.29,1.69-.29,1.1,0,2.03.27,2.8.8.77.53,1.3,1.3,1.6,2.31.28.92.42,1.95.42,3.11Z"/>
      <path class="cls-1" d="M723.76,968.57c-1.02-1.01-1.53-2.36-1.53-4.06v-9.02c0-1.68.51-3.02,1.53-4.03,1.02-1.01,2.38-1.51,4.07-1.51s3.06.5,4.09,1.51c1.03,1.01,1.54,2.35,1.54,4.03v9.02c0,1.7-.51,3.05-1.54,4.06-1.03,1.01-2.39,1.51-4.09,1.51s-3.06-.5-4.07-1.51ZM729.96,966.9c.54-.57.81-1.32.81-2.25v-9.27c0-.93-.27-1.68-.81-2.25-.54-.57-1.25-.85-2.13-.85s-1.58.28-2.11.85-.8,1.32-.8,2.25v9.27c0,.93.27,1.68.8,2.25s1.24.85,2.11.85,1.59-.28,2.13-.85Z"/>
    </g>
  </g>
  <g id="wv_hall_4A_51" data-name="4/51" class="ds-stand">
    <rect class="cls-3" x="744.25" y="938" width="74" height="44" rx="4" ry="4"/>
    <g>
      <path class="cls-1" d="M782.72,963.72c0,.97-.08,1.79-.25,2.46-.32,1.23-.92,2.18-1.81,2.84s-1.99.99-3.32.99-2.43-.35-3.32-1.04c-.89-.69-1.48-1.66-1.78-2.91-.11-.48-.18-.86-.2-1.12v-.06c0-.15.08-.22.25-.22h2.16c.19,0,.29.09.31.28.04.3.07.5.11.59.15.69.44,1.22.87,1.58.43.36.96.55,1.6.55s1.17-.19,1.61-.56c.44-.37.73-.91.88-1.6.11-.43.17-1.02.17-1.76s-.07-1.38-.2-1.96c-.15-.63-.44-1.12-.87-1.44-.43-.33-.96-.49-1.6-.49s-1.14.14-1.58.42-.75.7-.94,1.26c-.04.15-.14.22-.31.22h-2.18c-.19,0-.28-.09-.28-.28v-11c0-.19.09-.28.28-.28h9.55c.19,0,.28.09.28.28v1.76c0,.19-.09.28-.28.28h-7.03c-.07,0-.11.04-.11.11l-.03,5.96c0,.09.05.11.14.06.37-.37.83-.66,1.36-.85.53-.2,1.1-.29,1.69-.29,1.1,0,2.03.27,2.8.8.76.53,1.3,1.3,1.6,2.31.28.92.42,1.95.42,3.11Z"/>
      <path class="cls-1" d="M787.59,950.2h2.21c.19,0,.28.09.28.28v19.04c0,.19-.09.28-.28.28h-2.13c-.19,0-.28-.09-.28-.28v-16.41s-.01-.07-.04-.1c-.03-.03-.06-.03-.1-.01l-2.72.87-.11.03c-.11,0-.19-.08-.22-.25l-.11-1.6c0-.15.07-.26.2-.34l2.94-1.43c.11-.06.23-.08.36-.08Z"/>
    </g>
  </g>
  <g id="wv_hall_4A_52" data-name="4/52" class="ds-stand">
    <rect class="cls-3" x="424.25" y="983" width="44" height="34" rx="4" ry="4"/>
    <g>
      <path class="cls-1" d="M445.06,1003.72c0,.97-.08,1.79-.25,2.46-.32,1.23-.92,2.18-1.81,2.84s-1.99.99-3.32.99-2.43-.35-3.32-1.04c-.89-.69-1.48-1.66-1.78-2.91-.11-.48-.18-.86-.2-1.12v-.06c0-.15.08-.22.25-.22h2.16c.19,0,.29.09.31.28.04.3.07.5.11.59.15.69.44,1.22.87,1.58.43.36.96.55,1.6.55s1.17-.19,1.61-.56c.44-.37.73-.91.88-1.6.11-.43.17-1.02.17-1.76s-.07-1.38-.2-1.96c-.15-.63-.44-1.12-.87-1.44-.43-.33-.96-.49-1.6-.49s-1.14.14-1.58.42-.75.7-.94,1.26c-.04.15-.14.22-.31.22h-2.18c-.19,0-.28-.09-.28-.28v-11c0-.19.09-.28.28-.28h9.55c.19,0,.28.09.28.28v1.76c0,.19-.09.28-.28.28h-7.03c-.08,0-.11.04-.11.11l-.03,5.96c0,.09.05.11.14.06.37-.37.83-.66,1.36-.85.53-.2,1.1-.29,1.69-.29,1.1,0,2.04.27,2.8.8.76.53,1.3,1.3,1.6,2.31.28.92.42,1.95.42,3.11Z"/>
      <path class="cls-1" d="M450.8,1007.48h7.42c.19,0,.28.09.28.28v1.76c0,.19-.09.28-.28.28h-10.56c-.19,0-.28-.09-.28-.28v-1.79c0-.13.04-.24.11-.34,2.41-3.1,4.28-5.59,5.63-7.48,1.44-2,2.16-3.59,2.16-4.79,0-.86-.24-1.54-.73-2.06-.49-.51-1.13-.77-1.93-.77s-1.41.26-1.89.77c-.48.51-.71,1.19-.69,2.03v.98c0,.19-.09.28-.28.28h-2.16c-.19,0-.28-.09-.28-.28v-1.2c.04-1.47.56-2.66,1.55-3.56,1-.9,2.26-1.34,3.79-1.34,1.06,0,2,.22,2.8.66.8.44,1.42,1.05,1.86,1.83s.66,1.67.66,2.66c0,1.66-.75,3.55-2.24,5.66-.86,1.21-2.26,3.05-4.2,5.52l-.81,1.04c-.06.09-.04.14.06.14Z"/>
    </g>
  </g>
  <g id="wv_hall_4A_53" data-name="4/53" class="ds-stand">
    <rect class="cls-3" x="474.25" y="1008" width="74" height="44" rx="4" ry="4"/>
    <g>
      <path class="cls-1" d="M510.19,1033.72c0,.97-.08,1.79-.25,2.46-.32,1.23-.92,2.18-1.81,2.84s-1.99.99-3.32.99-2.43-.35-3.32-1.04c-.89-.69-1.48-1.66-1.78-2.91-.11-.48-.18-.86-.2-1.12v-.06c0-.15.08-.22.25-.22h2.16c.19,0,.29.09.31.28.04.3.07.5.11.59.15.69.44,1.22.87,1.58.43.36.96.55,1.6.55s1.17-.19,1.61-.56c.44-.37.73-.91.88-1.6.11-.43.17-1.02.17-1.76s-.07-1.38-.2-1.96c-.15-.63-.44-1.12-.87-1.44-.43-.33-.96-.49-1.6-.49s-1.14.14-1.58.42c-.44.28-.75.7-.94,1.26-.04.15-.14.22-.31.22h-2.18c-.19,0-.28-.09-.28-.28v-11c0-.19.09-.28.28-.28h9.55c.19,0,.28.09.28.28v1.76c0,.19-.09.28-.28.28h-7.03c-.08,0-.11.04-.11.11l-.03,5.96c0,.09.05.11.14.06.37-.37.83-.66,1.36-.85.53-.2,1.1-.29,1.69-.29,1.1,0,2.03.27,2.8.8.77.53,1.3,1.3,1.6,2.31.28.92.42,1.95.42,3.11Z"/>
      <path class="cls-1" d="M523.01,1033.72c0,1.16-.18,2.19-.53,3.11-.39,1.05-.99,1.84-1.79,2.38s-1.8.81-3,.81c-1.36,0-2.5-.36-3.42-1.08-.91-.72-1.49-1.68-1.74-2.9-.11-.56-.19-1.24-.22-2.04,0-.19.09-.28.28-.28h2.13c.19,0,.28.09.28.28.04.62.09,1.12.17,1.51.15.69.44,1.23.87,1.61.43.38.98.57,1.65.57.62,0,1.13-.16,1.54-.49s.71-.81.9-1.44c.17-.62.25-1.36.25-2.24,0-1.01-.12-1.84-.36-2.49-.21-.58-.5-1.02-.9-1.32-.39-.3-.88-.45-1.46-.45-.28,0-.58.08-.9.25-.07.04-.13.06-.17.06-.07,0-.15-.04-.22-.11l-1.09-1.18c-.06-.06-.08-.12-.08-.2s.03-.14.08-.2l4.26-5.24s.05-.07.03-.1c-.02-.03-.05-.04-.08-.04h-6.66c-.19,0-.28-.09-.28-.28v-1.76c0-.19.09-.28.28-.28h9.83c.19,0,.28.09.28.28v1.85c0,.13-.04.24-.11.34l-3.95,4.96s-.05.07-.03.1c.02.03.05.04.08.04.84.07,1.56.34,2.16.8.6.46,1.05,1.08,1.37,1.86.37.91.56,2.02.56,3.3Z"/>
    </g>
  </g>
  <g id="wv_hall_4A_54" data-name="4/54" class="ds-stand">
    <rect class="cls-3" x="554.25" y="1008" width="34" height="44" rx="4" ry="4"/>
    <g>
      <path class="cls-1" d="M569.71,1033.72c0,.97-.08,1.79-.25,2.46-.32,1.23-.92,2.18-1.81,2.84s-1.99.99-3.32.99-2.43-.35-3.32-1.04c-.89-.69-1.48-1.66-1.78-2.91-.11-.48-.18-.86-.2-1.12v-.06c0-.15.08-.22.25-.22h2.16c.19,0,.29.09.31.28.04.3.07.5.11.59.15.69.44,1.22.87,1.58.43.36.96.55,1.6.55s1.17-.19,1.61-.56c.44-.37.73-.91.88-1.6.11-.43.17-1.02.17-1.76s-.07-1.38-.2-1.96c-.15-.63-.44-1.12-.87-1.44-.43-.33-.96-.49-1.6-.49s-1.14.14-1.58.42-.75.7-.94,1.26c-.04.15-.14.22-.31.22h-2.18c-.19,0-.28-.09-.28-.28v-11c0-.19.09-.28.28-.28h9.55c.19,0,.28.09.28.28v1.76c0,.19-.09.28-.28.28h-7.03c-.07,0-.11.04-.11.11l-.03,5.96c0,.09.05.11.14.06.37-.37.83-.66,1.36-.85.53-.2,1.1-.29,1.69-.29,1.1,0,2.03.27,2.8.8.76.53,1.3,1.3,1.6,2.31.28.92.42,1.95.42,3.11Z"/>
      <path class="cls-1" d="M583.85,1032.41v1.88c0,.19-.09.28-.28.28h-1.04c-.08,0-.11.04-.11.11v4.84c0,.19-.09.28-.28.28h-2.13c-.19,0-.28-.09-.28-.28v-4.84c0-.07-.04-.11-.11-.11h-7.7c-.19,0-.28-.09-.28-.28v-1.54c0-.13.02-.24.06-.34l4.79-11.98c.06-.15.16-.22.31-.22h2.3c.09,0,.16.03.2.1.04.07.04.14,0,.24l-4.51,11.45s-.02.07,0,.1c.02.03.05.04.08.04h4.76c.07,0,.11-.04.11-.11v-3.98c0-.19.09-.28.28-.28h2.13c.19,0,.28.09.28.28v3.98c0,.08.04.11.11.11h1.04c.19,0,.28.09.28.28Z"/>
    </g>
  </g>
  <g id="wv_hall_4A_55" data-name="4/55" class="ds-stand">
    <rect class="cls-3" x="594.25" y="1008" width="34" height="44" rx="4" ry="4"/>
    <g>
      <path class="cls-1" d="M610.19,1033.72c0,.97-.08,1.79-.25,2.46-.32,1.23-.92,2.18-1.81,2.84s-1.99.99-3.32.99-2.43-.35-3.32-1.04c-.89-.69-1.48-1.66-1.78-2.91-.11-.48-.18-.86-.2-1.12v-.06c0-.15.08-.22.25-.22h2.16c.19,0,.29.09.31.28.04.3.07.5.11.59.15.69.44,1.22.87,1.58.43.36.96.55,1.6.55s1.17-.19,1.61-.56c.44-.37.73-.91.88-1.6.11-.43.17-1.02.17-1.76s-.07-1.38-.2-1.96c-.15-.63-.44-1.12-.87-1.44-.43-.33-.96-.49-1.6-.49s-1.14.14-1.58.42c-.44.28-.75.7-.94,1.26-.04.15-.14.22-.31.22h-2.18c-.19,0-.28-.09-.28-.28v-11c0-.19.09-.28.28-.28h9.55c.19,0,.28.09.28.28v1.76c0,.19-.09.28-.28.28h-7.03c-.08,0-.11.04-.11.11l-.03,5.96c0,.09.05.11.14.06.37-.37.83-.66,1.36-.85.53-.2,1.1-.29,1.69-.29,1.1,0,2.03.27,2.8.8.77.53,1.3,1.3,1.6,2.31.28.92.42,1.95.42,3.11Z"/>
      <path class="cls-1" d="M623.37,1033.72c0,.97-.08,1.79-.25,2.46-.32,1.23-.92,2.18-1.81,2.84-.89.66-1.99.99-3.32.99s-2.43-.35-3.32-1.04c-.89-.69-1.48-1.66-1.78-2.91-.11-.48-.18-.86-.2-1.12v-.06c0-.15.08-.22.25-.22h2.16c.19,0,.29.09.31.28.04.3.07.5.11.59.15.69.44,1.22.87,1.58.43.36.96.55,1.6.55s1.17-.19,1.61-.56c.44-.37.73-.91.88-1.6.11-.43.17-1.02.17-1.76s-.07-1.38-.2-1.96c-.15-.63-.44-1.12-.87-1.44-.43-.33-.96-.49-1.6-.49s-1.14.14-1.58.42-.75.7-.94,1.26c-.04.15-.14.22-.31.22h-2.18c-.19,0-.28-.09-.28-.28v-11c0-.19.09-.28.28-.28h9.55c.19,0,.28.09.28.28v1.76c0,.19-.09.28-.28.28h-7.03c-.07,0-.11.04-.11.11l-.03,5.96c0,.09.05.11.14.06.37-.37.83-.66,1.36-.85.53-.2,1.1-.29,1.69-.29,1.1,0,2.03.27,2.8.8.77.53,1.3,1.3,1.6,2.31.28.92.42,1.95.42,3.11Z"/>
    </g>
  </g>
  <g id="wv_hall_4A_56" data-name="4/56" class="ds-stand">
    <rect class="cls-3" x="634.25" y="1008" width="34" height="44" rx="4" ry="4"/>
    <g>
      <path class="cls-1" d="M650.17,1033.72c0,.97-.08,1.79-.25,2.46-.32,1.23-.92,2.18-1.81,2.84s-1.99.99-3.32.99-2.43-.35-3.32-1.04c-.89-.69-1.48-1.66-1.78-2.91-.11-.48-.18-.86-.2-1.12v-.06c0-.15.08-.22.25-.22h2.16c.19,0,.29.09.31.28.04.3.07.5.11.59.15.69.44,1.22.87,1.58.43.36.96.55,1.6.55s1.17-.19,1.61-.56c.44-.37.73-.91.88-1.6.11-.43.17-1.02.17-1.76s-.07-1.38-.2-1.96c-.15-.63-.44-1.12-.87-1.44-.43-.33-.96-.49-1.6-.49s-1.14.14-1.58.42c-.44.28-.75.7-.94,1.26-.04.15-.14.22-.31.22h-2.18c-.19,0-.28-.09-.28-.28v-11c0-.19.09-.28.28-.28h9.55c.19,0,.28.09.28.28v1.76c0,.19-.09.28-.28.28h-7.03c-.08,0-.11.04-.11.11l-.03,5.96c0,.09.05.11.14.06.37-.37.83-.66,1.36-.85.53-.2,1.1-.29,1.69-.29,1.1,0,2.03.27,2.8.8.77.53,1.3,1.3,1.6,2.31.28.92.42,1.95.42,3.11Z"/>
      <path class="cls-1" d="M663.39,1033.72c0,.95-.1,1.79-.31,2.52-.32,1.21-.91,2.15-1.76,2.8-.86.65-1.95.98-3.28.98-1.21,0-2.24-.29-3.08-.88-.84-.59-1.43-1.43-1.76-2.53-.34-.75-.5-1.68-.5-2.8l-.03-8.88c0-1.49.49-2.69,1.46-3.6s2.25-1.36,3.84-1.36c1.49,0,2.71.45,3.65,1.34.94.9,1.41,2.07,1.41,3.53v.59c0,.19-.09.28-.28.28h-2.13c-.19,0-.28-.09-.28-.28v-.39c0-.78-.23-1.43-.69-1.95-.46-.51-1.03-.77-1.72-.77-.75,0-1.36.26-1.83.77-.48.51-.71,1.19-.71,2.03v3.53s.01.07.04.08c.03.02.06,0,.1-.03.73-.84,1.7-1.26,2.91-1.26,1.14,0,2.09.3,2.84.9.76.6,1.31,1.42,1.67,2.46.3.84.45,1.81.45,2.91ZM660.67,1033.67c0-.88-.09-1.59-.28-2.13-.17-.58-.46-1.03-.87-1.36-.41-.33-.92-.49-1.51-.49s-1.12.16-1.53.49c-.4.33-.69.79-.85,1.39-.17.52-.25,1.23-.25,2.13,0,.77.07,1.41.2,1.93.15.63.43,1.13.85,1.5.42.36.95.55,1.58.55s1.16-.18,1.58-.55c.42-.36.71-.89.88-1.58.13-.5.2-1.13.2-1.88Z"/>
    </g>
  </g>
  <g id="wv_hall_4A_57" data-name="4/57" class="ds-stand">
    <rect class="cls-3" x="674.25" y="1008" width="34" height="44" rx="4" ry="4"/>
    <g>
      <path class="cls-1" d="M690.75,1033.72c0,.97-.08,1.79-.25,2.46-.32,1.23-.92,2.18-1.81,2.84s-1.99.99-3.32.99-2.43-.35-3.32-1.04c-.89-.69-1.48-1.66-1.78-2.91-.11-.48-.18-.86-.2-1.12v-.06c0-.15.08-.22.25-.22h2.16c.19,0,.29.09.31.28.04.3.07.5.11.59.15.69.44,1.22.87,1.58.43.36.96.55,1.6.55s1.17-.19,1.61-.56c.44-.37.73-.91.88-1.6.11-.43.17-1.02.17-1.76s-.07-1.38-.2-1.96c-.15-.63-.44-1.12-.87-1.44-.43-.33-.96-.49-1.6-.49s-1.14.14-1.58.42-.75.7-.94,1.26c-.04.15-.14.22-.31.22h-2.18c-.19,0-.28-.09-.28-.28v-11c0-.19.09-.28.28-.28h9.55c.19,0,.28.09.28.28v1.76c0,.19-.09.28-.28.28h-7.03c-.08,0-.11.04-.11.11l-.03,5.96c0,.09.05.11.14.06.37-.37.83-.66,1.36-.85.53-.2,1.1-.29,1.69-.29,1.1,0,2.04.27,2.8.8.76.53,1.3,1.3,1.6,2.31.28.92.42,1.95.42,3.11Z"/>
      <path class="cls-1" d="M695,1039.49l5.54-16.83s.01-.07-.01-.1c-.03-.03-.06-.04-.1-.04h-5.6c-.08,0-.11.04-.11.11v1.2c0,.19-.09.28-.28.28h-1.65c-.19,0-.28-.09-.28-.28v-3.36c0-.19.09-.28.28-.28h10.33c.19,0,.28.09.28.28v1.88c0,.07-.02.19-.06.34l-5.52,16.88c-.06.15-.17.22-.34.22h-2.27c-.21,0-.28-.1-.22-.31Z"/>
    </g>
  </g>
  <g id="wv_hall_4A_58" data-name="4/58" class="ds-stand">
    <rect class="cls-3" x="714.25" y="1008" width="34" height="44" rx="4" ry="4"/>
    <g>
      <path class="cls-1" d="M730.09,1033.72c0,.97-.08,1.79-.25,2.46-.32,1.23-.92,2.18-1.81,2.84-.89.66-1.99.99-3.32.99s-2.43-.35-3.32-1.04c-.89-.69-1.48-1.66-1.78-2.91-.11-.48-.18-.86-.2-1.12v-.06c0-.15.08-.22.25-.22h2.16c.19,0,.29.09.31.28.04.3.07.5.11.59.15.69.44,1.22.87,1.58.43.36.96.55,1.6.55s1.17-.19,1.61-.56c.44-.37.73-.91.88-1.6.11-.43.17-1.02.17-1.76s-.07-1.38-.2-1.96c-.15-.63-.44-1.12-.87-1.44-.43-.33-.96-.49-1.6-.49s-1.14.14-1.58.42-.75.7-.94,1.26c-.04.15-.14.22-.31.22h-2.18c-.19,0-.28-.09-.28-.28v-11c0-.19.09-.28.28-.28h9.55c.19,0,.28.09.28.28v1.76c0,.19-.09.28-.28.28h-7.03c-.08,0-.11.04-.11.11l-.03,5.96c0,.09.05.11.14.06.37-.37.83-.66,1.36-.85.53-.2,1.1-.29,1.69-.29,1.1,0,2.03.27,2.8.8.77.53,1.3,1.3,1.6,2.31.28.92.42,1.95.42,3.11Z"/>
      <path class="cls-1" d="M743.16,1034.26c0,1.16-.21,2.15-.62,2.97-.41.88-1.02,1.56-1.83,2.06-.81.5-1.77.74-2.87.74s-2.06-.25-2.88-.76c-.82-.5-1.44-1.21-1.85-2.13-.41-.88-.62-1.85-.62-2.91s.18-1.95.53-2.77c.37-.88.98-1.52,1.82-1.93.09-.06.09-.11,0-.17-.65-.39-1.16-.91-1.51-1.54-.47-.77-.7-1.67-.7-2.72s.21-1.92.64-2.69c.43-.78,1.05-1.4,1.85-1.85.8-.45,1.71-.67,2.72-.67s1.96.22,2.74.66c.78.44,1.38,1.06,1.79,1.86.45.8.67,1.7.67,2.69s-.23,1.91-.7,2.72c-.35.63-.86,1.15-1.51,1.54-.09.06-.1.1-.03.14.84.41,1.45,1.06,1.82,1.96.35.77.53,1.7.53,2.8ZM740.5,1034.09c0-.75-.1-1.38-.31-1.9-.19-.54-.48-.96-.88-1.26-.4-.3-.89-.45-1.47-.45-1.18,0-1.96.55-2.35,1.65-.21.5-.31,1.16-.31,1.96s.13,1.52.39,2.04c.41,1.05,1.17,1.57,2.27,1.57s1.83-.51,2.24-1.54c.28-.56.42-1.25.42-2.07ZM735.3,1025.3c0,.67.13,1.25.39,1.74.21.43.49.77.87,1.01.37.24.8.36,1.29.36s.94-.13,1.32-.38c.37-.25.66-.6.87-1.05.24-.47.36-1.04.36-1.71,0-.58-.11-1.09-.34-1.54-.19-.47-.47-.84-.85-1.11-.38-.27-.84-.41-1.39-.41-.5,0-.95.14-1.34.42-.39.28-.68.65-.87,1.12-.21.5-.31,1.02-.31,1.54Z"/>
    </g>
  </g>
  <g id="wv_hall_4A_59" data-name="4/59" class="ds-stand">
    <rect class="cls-3" x="754.25" y="1008" width="34" height="44" rx="4" ry="4"/>
    <g>
      <path class="cls-1" d="M770.3,1033.72c0,.97-.08,1.79-.25,2.46-.32,1.23-.92,2.18-1.81,2.84s-1.99.99-3.32.99-2.43-.35-3.32-1.04c-.89-.69-1.48-1.66-1.78-2.91-.11-.48-.18-.86-.2-1.12v-.06c0-.15.08-.22.25-.22h2.16c.19,0,.29.09.31.28.04.3.07.5.11.59.15.69.44,1.22.87,1.58.43.36.96.55,1.6.55s1.17-.19,1.61-.56c.44-.37.73-.91.88-1.6.11-.43.17-1.02.17-1.76s-.07-1.38-.2-1.96c-.15-.63-.44-1.12-.87-1.44-.43-.33-.96-.49-1.6-.49s-1.14.14-1.58.42-.75.7-.94,1.26c-.04.15-.14.22-.31.22h-2.18c-.19,0-.28-.09-.28-.28v-11c0-.19.09-.28.28-.28h9.55c.19,0,.28.09.28.28v1.76c0,.19-.09.28-.28.28h-7.03c-.07,0-.11.04-.11.11l-.03,5.96c0,.09.05.11.14.06.37-.37.83-.66,1.36-.85.53-.2,1.1-.29,1.69-.29,1.1,0,2.03.27,2.8.8.76.53,1.3,1.3,1.6,2.31.28.92.42,1.95.42,3.11Z"/>
      <path class="cls-1" d="M782.9,1026.19v8.88c0,1.51-.49,2.72-1.46,3.61s-2.24,1.34-3.81,1.34-2.74-.45-3.67-1.34c-.93-.9-1.4-2.07-1.4-3.53v-.59c0-.19.09-.28.28-.28h2.13c.19,0,.28.09.28.28v.39c0,.8.22,1.46.67,1.96.45.5,1.02.76,1.71.76.76,0,1.39-.26,1.86-.77.48-.51.71-1.19.71-2.03v-3.56s-.01-.07-.04-.08c-.03-.02-.06,0-.1.03-.73.86-1.7,1.29-2.91,1.29-1.14,0-2.09-.3-2.86-.9-.77-.6-1.32-1.42-1.65-2.46-.3-.77-.45-1.74-.45-2.91,0-1.05.1-1.89.31-2.52.3-1.21.88-2.15,1.74-2.8.86-.65,1.95-.98,3.28-.98,1.21,0,2.24.29,3.08.88s1.43,1.43,1.76,2.53c.36.78.53,1.72.53,2.8ZM779.08,1029.82c.4-.33.69-.79.85-1.39.19-.58.28-1.29.28-2.13,0-.77-.07-1.41-.2-1.93-.17-.65-.46-1.16-.88-1.51-.42-.35-.95-.53-1.58-.53s-1.14.18-1.57.55c-.43.36-.73.89-.9,1.58-.13.62-.2,1.24-.2,1.88,0,.8.09,1.51.28,2.13.39,1.23,1.19,1.85,2.38,1.85.62,0,1.12-.16,1.53-.49Z"/>
    </g>
  </g>
  <g id="wv_hall_4A_60" data-name="4/60" class="ds-stand">
    <rect class="cls-3" x="794.25" y="1008" width="74" height="44" rx="4" ry="4"/>
    <g>
      <path class="cls-1" d="M829.7,1033.72c0,.95-.1,1.79-.31,2.52-.32,1.21-.91,2.15-1.76,2.8s-1.95.98-3.28.98c-1.21,0-2.24-.29-3.08-.88-.84-.59-1.43-1.43-1.76-2.53-.34-.75-.5-1.68-.5-2.8l-.03-8.88c0-1.49.48-2.69,1.46-3.6s2.25-1.36,3.84-1.36c1.49,0,2.71.45,3.65,1.34s1.41,2.07,1.41,3.53v.59c0,.19-.09.28-.28.28h-2.13c-.19,0-.28-.09-.28-.28v-.39c0-.78-.23-1.43-.69-1.95-.46-.51-1.03-.77-1.72-.77-.75,0-1.36.26-1.83.77-.48.51-.71,1.19-.71,2.03v3.53s.01.07.04.08c.03.02.06,0,.1-.03.73-.84,1.7-1.26,2.91-1.26,1.14,0,2.09.3,2.84.9.76.6,1.31,1.42,1.67,2.46.3.84.45,1.81.45,2.91ZM826.98,1033.67c0-.88-.09-1.59-.28-2.13-.17-.58-.46-1.03-.87-1.36-.41-.33-.91-.49-1.51-.49s-1.12.16-1.53.49c-.4.33-.69.79-.85,1.39-.17.52-.25,1.23-.25,2.13,0,.77.07,1.41.2,1.93.15.63.43,1.13.85,1.5.42.36.95.55,1.58.55s1.16-.18,1.58-.55c.42-.36.71-.89.88-1.58.13-.5.2-1.13.2-1.88Z"/>
      <path class="cls-1" d="M833.77,1038.57c-1.02-1.01-1.53-2.36-1.53-4.06v-9.02c0-1.68.51-3.02,1.53-4.03,1.02-1.01,2.38-1.51,4.07-1.51s3.06.5,4.09,1.51c1.03,1.01,1.54,2.35,1.54,4.03v9.02c0,1.7-.51,3.05-1.54,4.06-1.03,1.01-2.39,1.51-4.09,1.51s-3.06-.5-4.07-1.51ZM839.97,1036.9c.54-.57.81-1.32.81-2.25v-9.27c0-.93-.27-1.68-.81-2.25-.54-.57-1.25-.85-2.13-.85s-1.58.28-2.11.85-.8,1.32-.8,2.25v9.27c0,.93.27,1.68.8,2.25s1.24.85,2.11.85,1.59-.28,2.13-.85Z"/>
    </g>
  </g>
  <g id="wv_hall_4A_61" data-name="4/61" class="ds-stand">
    <rect class="cls-3" x="874.25" y="983" width="44" height="34" rx="4" ry="4"/>
    <g>
      <path class="cls-1" d="M897.72,1003.72c0,.95-.1,1.79-.31,2.52-.32,1.21-.91,2.15-1.76,2.8-.86.65-1.95.98-3.28.98-1.21,0-2.24-.29-3.08-.88-.84-.59-1.43-1.43-1.76-2.53-.34-.75-.5-1.68-.5-2.8l-.03-8.88c0-1.49.49-2.69,1.46-3.6s2.25-1.36,3.84-1.36c1.49,0,2.71.45,3.65,1.34s1.41,2.07,1.41,3.53v.59c0,.19-.09.28-.28.28h-2.13c-.19,0-.28-.09-.28-.28v-.39c0-.78-.23-1.43-.69-1.95-.46-.51-1.03-.77-1.72-.77-.75,0-1.36.26-1.83.77-.48.51-.71,1.19-.71,2.03v3.53s.01.07.04.08c.03.02.06,0,.1-.03.73-.84,1.7-1.26,2.91-1.26,1.14,0,2.09.3,2.84.9.76.6,1.31,1.42,1.67,2.46.3.84.45,1.81.45,2.91ZM895,1003.67c0-.88-.09-1.59-.28-2.13-.17-.58-.46-1.03-.87-1.36-.41-.33-.92-.49-1.51-.49s-1.12.16-1.53.49c-.4.33-.69.79-.85,1.39-.17.52-.25,1.23-.25,2.13,0,.77.06,1.41.2,1.93.15.63.43,1.13.85,1.5.42.36.95.55,1.58.55s1.16-.18,1.58-.55c.42-.36.71-.89.88-1.58.13-.5.2-1.13.2-1.88Z"/>
      <path class="cls-1" d="M902.62,990.2h2.21c.19,0,.28.09.28.28v19.04c0,.19-.09.28-.28.28h-2.13c-.19,0-.28-.09-.28-.28v-16.41s-.01-.07-.04-.1c-.03-.03-.06-.03-.1-.01l-2.72.87-.11.03c-.11,0-.19-.08-.22-.25l-.11-1.6c0-.15.07-.26.2-.34l2.94-1.43c.11-.06.23-.08.36-.08Z"/>
    </g>
  </g>
  <g id="wv_hall_4A_62" data-name="4/62" class="ds-stand">
    <rect class="cls-3" x="874.25" y="943" width="44" height="34" rx="4" ry="4"/>
    <g>
      <path class="cls-1" d="M895.07,963.72c0,.95-.1,1.79-.31,2.52-.32,1.21-.91,2.15-1.76,2.8-.86.65-1.95.98-3.28.98-1.21,0-2.24-.29-3.08-.88-.84-.59-1.43-1.43-1.76-2.53-.34-.75-.5-1.68-.5-2.8l-.03-8.88c0-1.49.49-2.69,1.46-3.6s2.25-1.36,3.84-1.36c1.49,0,2.71.45,3.65,1.34.94.9,1.41,2.07,1.41,3.53v.59c0,.19-.09.28-.28.28h-2.13c-.19,0-.28-.09-.28-.28v-.39c0-.78-.23-1.43-.69-1.95-.46-.51-1.03-.77-1.72-.77-.75,0-1.36.26-1.83.77-.48.51-.71,1.19-.71,2.03v3.53s.01.07.04.08c.03.02.06,0,.1-.03.73-.84,1.7-1.26,2.91-1.26,1.14,0,2.09.3,2.84.9.76.6,1.31,1.42,1.67,2.46.3.84.45,1.81.45,2.91ZM892.36,963.67c0-.88-.09-1.59-.28-2.13-.17-.58-.46-1.03-.87-1.36-.41-.33-.92-.49-1.51-.49s-1.12.16-1.53.49c-.4.33-.69.79-.85,1.39-.17.52-.25,1.23-.25,2.13,0,.77.07,1.41.2,1.93.15.63.43,1.13.85,1.5.42.36.95.55,1.58.55s1.16-.18,1.58-.55c.42-.36.71-.89.88-1.58.13-.5.2-1.13.2-1.88Z"/>
      <path class="cls-1" d="M900.81,967.48h7.42c.19,0,.28.09.28.28v1.76c0,.19-.09.28-.28.28h-10.56c-.19,0-.28-.09-.28-.28v-1.79c0-.13.04-.24.11-.34,2.41-3.1,4.28-5.59,5.63-7.48,1.44-2,2.16-3.59,2.16-4.79,0-.86-.24-1.54-.73-2.06-.49-.51-1.13-.77-1.93-.77s-1.41.26-1.89.77c-.48.51-.71,1.19-.69,2.03v.98c0,.19-.09.28-.28.28h-2.16c-.19,0-.28-.09-.28-.28v-1.2c.04-1.47.56-2.66,1.55-3.56,1-.9,2.26-1.34,3.79-1.34,1.06,0,2,.22,2.8.66.8.44,1.42,1.05,1.86,1.83.44.78.66,1.67.66,2.66,0,1.66-.75,3.55-2.24,5.66-.86,1.21-2.26,3.05-4.2,5.52l-.81,1.04c-.06.09-.04.14.06.14Z"/>
    </g>
  </g>
  <g id="wv_hall_4A_63" data-name="4/63" class="ds-stand">
    <rect class="cls-3" x="874.25" y="903" width="44" height="34" rx="4" ry="4"/>
    <g>
      <path class="cls-1" d="M895.2,923.72c0,.95-.1,1.79-.31,2.52-.32,1.21-.91,2.15-1.76,2.8-.86.65-1.95.98-3.28.98-1.21,0-2.24-.29-3.08-.88-.84-.59-1.43-1.43-1.76-2.53-.34-.75-.5-1.68-.5-2.8l-.03-8.88c0-1.49.49-2.69,1.46-3.6s2.25-1.36,3.84-1.36c1.49,0,2.71.45,3.65,1.34.94.9,1.41,2.07,1.41,3.53v.59c0,.19-.09.28-.28.28h-2.13c-.19,0-.28-.09-.28-.28v-.39c0-.78-.23-1.43-.69-1.95-.46-.51-1.03-.77-1.72-.77-.75,0-1.36.26-1.83.77-.48.51-.71,1.19-.71,2.03v3.53s.01.07.04.08c.03.02.06,0,.1-.03.73-.84,1.7-1.26,2.91-1.26,1.14,0,2.09.3,2.84.9.76.6,1.31,1.42,1.67,2.46.3.84.45,1.81.45,2.91ZM892.48,923.67c0-.88-.09-1.59-.28-2.13-.17-.58-.46-1.03-.87-1.36-.41-.33-.92-.49-1.51-.49s-1.12.16-1.53.49c-.4.33-.69.79-.85,1.39-.17.52-.25,1.23-.25,2.13,0,.77.07,1.41.2,1.93.15.63.43,1.13.85,1.5.42.36.95.55,1.58.55s1.16-.18,1.58-.55c.42-.36.71-.89.88-1.58.13-.5.2-1.13.2-1.88Z"/>
      <path class="cls-1" d="M908.02,923.72c0,1.16-.18,2.19-.53,3.11-.39,1.05-.99,1.84-1.79,2.38-.8.54-1.8.81-3,.81-1.36,0-2.5-.36-3.42-1.08-.92-.72-1.49-1.68-1.74-2.9-.11-.56-.19-1.24-.22-2.04,0-.19.09-.28.28-.28h2.13c.19,0,.28.09.28.28.04.62.09,1.12.17,1.51.15.69.44,1.23.87,1.61.43.38.98.57,1.65.57.62,0,1.13-.16,1.54-.49.41-.33.71-.81.9-1.44.17-.62.25-1.36.25-2.24,0-1.01-.12-1.84-.36-2.49-.21-.58-.5-1.02-.9-1.32-.39-.3-.88-.45-1.46-.45-.28,0-.58.08-.9.25-.08.04-.13.06-.17.06-.08,0-.15-.04-.22-.11l-1.09-1.18c-.06-.06-.08-.12-.08-.2s.03-.14.08-.2l4.26-5.24s.05-.07.03-.1c-.02-.03-.05-.04-.08-.04h-6.66c-.19,0-.28-.09-.28-.28v-1.76c0-.19.09-.28.28-.28h9.83c.19,0,.28.09.28.28v1.85c0,.13-.04.24-.11.34l-3.95,4.96s-.05.07-.03.1c.02.03.05.04.08.04.84.07,1.56.34,2.16.8.6.46,1.05,1.08,1.37,1.86.37.91.56,2.02.56,3.3Z"/>
    </g>
  </g>
  <g id="wv_hall_4A_64" data-name="4/64" class="ds-stand">
    <rect class="cls-3" x="874.25" y="863" width="44" height="34" rx="4" ry="4"/>
    <g>
      <path class="cls-1" d="M894.72,883.72c0,.95-.1,1.79-.31,2.52-.32,1.21-.91,2.15-1.76,2.8s-1.95.98-3.28.98c-1.21,0-2.24-.29-3.08-.88-.84-.59-1.43-1.43-1.76-2.53-.34-.75-.5-1.68-.5-2.8l-.03-8.88c0-1.49.49-2.69,1.46-3.6.97-.91,2.25-1.36,3.84-1.36,1.49,0,2.71.45,3.65,1.34s1.41,2.07,1.41,3.53v.59c0,.19-.09.28-.28.28h-2.13c-.19,0-.28-.09-.28-.28v-.39c0-.78-.23-1.43-.69-1.95-.46-.51-1.03-.77-1.72-.77-.75,0-1.36.26-1.83.77-.48.51-.71,1.19-.71,2.03v3.53s.01.07.04.08c.03.02.06,0,.1-.03.73-.84,1.7-1.26,2.91-1.26,1.14,0,2.09.3,2.84.9.76.6,1.31,1.42,1.67,2.46.3.84.45,1.81.45,2.91ZM892.01,883.67c0-.88-.09-1.59-.28-2.13-.17-.58-.46-1.03-.87-1.36-.41-.33-.92-.49-1.51-.49s-1.12.16-1.53.49c-.4.33-.69.79-.85,1.39-.17.52-.25,1.23-.25,2.13,0,.77.06,1.41.2,1.93.15.63.43,1.13.85,1.5.42.36.95.55,1.58.55s1.16-.18,1.58-.55c.42-.36.71-.89.88-1.58.13-.5.2-1.13.2-1.88Z"/>
      <path class="cls-1" d="M908.86,882.41v1.88c0,.19-.09.28-.28.28h-1.04c-.07,0-.11.04-.11.11v4.84c0,.19-.09.28-.28.28h-2.13c-.19,0-.28-.09-.28-.28v-4.84c0-.07-.04-.11-.11-.11h-7.7c-.19,0-.28-.09-.28-.28v-1.54c0-.13.02-.24.06-.34l4.79-11.98c.06-.15.16-.22.31-.22h2.29c.09,0,.16.03.2.1s.04.14,0,.24l-4.51,11.45s-.02.07,0,.1c.02.03.05.04.08.04h4.76c.08,0,.11-.04.11-.11v-3.98c0-.19.09-.28.28-.28h2.13c.19,0,.28.09.28.28v3.98c0,.08.04.11.11.11h1.04c.19,0,.28.09.28.28Z"/>
    </g>
  </g>
  <g id="wv_hall_4A_65" data-name="4/65" class="ds-stand">
    <rect class="cls-3" x="874.25" y="783" width="44" height="74" rx="4" ry="4"/>
    <g>
      <path class="cls-1" d="M895.2,823.72c0,.95-.1,1.79-.31,2.52-.32,1.21-.91,2.15-1.76,2.8-.86.65-1.95.98-3.28.98-1.21,0-2.24-.29-3.08-.88-.84-.59-1.43-1.43-1.76-2.53-.34-.75-.5-1.68-.5-2.8l-.03-8.88c0-1.49.49-2.69,1.46-3.6s2.25-1.36,3.84-1.36c1.49,0,2.71.45,3.65,1.34.94.9,1.41,2.07,1.41,3.53v.59c0,.19-.09.28-.28.28h-2.13c-.19,0-.28-.09-.28-.28v-.39c0-.78-.23-1.43-.69-1.95-.46-.51-1.03-.77-1.72-.77-.75,0-1.36.26-1.83.77-.48.51-.71,1.19-.71,2.03v3.53s.01.07.04.08c.03.02.06,0,.1-.03.73-.84,1.7-1.26,2.91-1.26,1.14,0,2.09.3,2.84.9.76.6,1.31,1.42,1.67,2.46.3.84.45,1.81.45,2.91ZM892.48,823.67c0-.88-.09-1.59-.28-2.13-.17-.58-.46-1.03-.87-1.36-.41-.33-.92-.49-1.51-.49s-1.12.16-1.53.49c-.4.33-.69.79-.85,1.39-.17.52-.25,1.23-.25,2.13,0,.77.07,1.41.2,1.93.15.63.43,1.13.85,1.5.42.36.95.55,1.58.55s1.16-.18,1.58-.55c.42-.36.71-.89.88-1.58.13-.5.2-1.13.2-1.88Z"/>
      <path class="cls-1" d="M908.39,823.72c0,.97-.08,1.79-.25,2.46-.32,1.23-.92,2.18-1.81,2.84s-1.99.99-3.32.99-2.43-.35-3.32-1.04c-.89-.69-1.48-1.66-1.78-2.91-.11-.48-.18-.86-.2-1.12v-.06c0-.15.08-.22.25-.22h2.16c.19,0,.29.09.31.28.04.3.07.5.11.59.15.69.44,1.22.87,1.58.43.36.96.55,1.6.55s1.17-.19,1.61-.56c.44-.37.73-.91.88-1.6.11-.43.17-1.02.17-1.76s-.07-1.38-.2-1.96c-.15-.63-.44-1.12-.87-1.44-.43-.33-.96-.49-1.6-.49s-1.14.14-1.58.42c-.44.28-.75.7-.94,1.26-.04.15-.14.22-.31.22h-2.18c-.19,0-.28-.09-.28-.28v-11c0-.19.09-.28.28-.28h9.55c.19,0,.28.09.28.28v1.76c0,.19-.09.28-.28.28h-7.03c-.08,0-.11.04-.11.11l-.03,5.96c0,.09.05.11.14.06.37-.37.83-.66,1.36-.85.53-.2,1.1-.29,1.69-.29,1.1,0,2.03.27,2.8.8.77.53,1.3,1.3,1.6,2.31.28.92.42,1.95.42,3.11Z"/>
    </g>
  </g>
  <g id="wv_hall_4A_66" data-name="4/66" class="ds-stand">
    <rect class="cls-3" x="874.25" y="743" width="44" height="34" rx="4" ry="4"/>
    <g>
      <path class="cls-1" d="M895.19,763.72c0,.95-.1,1.79-.31,2.52-.32,1.21-.91,2.15-1.76,2.8-.86.65-1.95.98-3.28.98-1.21,0-2.24-.29-3.08-.88-.84-.59-1.43-1.43-1.76-2.53-.34-.75-.5-1.68-.5-2.8l-.03-8.88c0-1.49.48-2.69,1.46-3.6.97-.91,2.25-1.36,3.84-1.36,1.49,0,2.71.45,3.65,1.34.94.9,1.41,2.07,1.41,3.53v.59c0,.19-.09.28-.28.28h-2.13c-.19,0-.28-.09-.28-.28v-.39c0-.78-.23-1.43-.69-1.95-.46-.51-1.03-.77-1.72-.77-.75,0-1.36.26-1.83.77-.48.51-.71,1.19-.71,2.03v3.53s.01.07.04.08c.03.02.06,0,.1-.03.73-.84,1.7-1.26,2.91-1.26,1.14,0,2.09.3,2.84.9.76.6,1.31,1.42,1.67,2.46.3.84.45,1.81.45,2.91ZM892.47,763.67c0-.88-.09-1.59-.28-2.13-.17-.58-.46-1.03-.87-1.36-.41-.33-.91-.49-1.51-.49s-1.12.16-1.53.49c-.4.33-.69.79-.85,1.39-.17.52-.25,1.23-.25,2.13,0,.77.07,1.41.2,1.93.15.63.43,1.13.85,1.5.42.36.95.55,1.58.55s1.16-.18,1.58-.55c.42-.36.71-.89.88-1.58.13-.5.2-1.13.2-1.88Z"/>
      <path class="cls-1" d="M908.4,763.72c0,.95-.1,1.79-.31,2.52-.32,1.21-.91,2.15-1.76,2.8s-1.95.98-3.28.98c-1.21,0-2.24-.29-3.08-.88-.84-.59-1.43-1.43-1.76-2.53-.34-.75-.5-1.68-.5-2.8l-.03-8.88c0-1.49.49-2.69,1.46-3.6.97-.91,2.25-1.36,3.84-1.36,1.49,0,2.71.45,3.65,1.34s1.41,2.07,1.41,3.53v.59c0,.19-.09.28-.28.28h-2.13c-.19,0-.28-.09-.28-.28v-.39c0-.78-.23-1.43-.69-1.95-.46-.51-1.03-.77-1.72-.77-.75,0-1.36.26-1.83.77-.48.51-.71,1.19-.71,2.03v3.53s.01.07.04.08c.03.02.06,0,.1-.03.73-.84,1.7-1.26,2.91-1.26,1.14,0,2.09.3,2.84.9.76.6,1.31,1.42,1.67,2.46.3.84.45,1.81.45,2.91ZM905.69,763.67c0-.88-.09-1.59-.28-2.13-.17-.58-.46-1.03-.87-1.36-.41-.33-.92-.49-1.51-.49s-1.12.16-1.53.49c-.4.33-.69.79-.85,1.39-.17.52-.25,1.23-.25,2.13,0,.77.06,1.41.2,1.93.15.63.43,1.13.85,1.5.42.36.95.55,1.58.55s1.16-.18,1.58-.55c.42-.36.71-.89.88-1.58.13-.5.2-1.13.2-1.88Z"/>
    </g>
  </g>
  <g id="wv_hall_4A_67" data-name="4/67" class="ds-stand">
    <rect class="cls-3" x="874.25" y="663" width="44" height="74" rx="4" ry="4"/>
    <g>
      <path class="cls-1" d="M895.76,703.72c0,.95-.1,1.79-.31,2.52-.32,1.21-.91,2.15-1.76,2.8s-1.95.98-3.28.98c-1.21,0-2.24-.29-3.08-.88-.84-.59-1.43-1.43-1.76-2.53-.34-.75-.5-1.68-.5-2.8l-.03-8.88c0-1.49.49-2.69,1.46-3.6s2.25-1.36,3.84-1.36c1.49,0,2.71.45,3.65,1.34.94.9,1.41,2.07,1.41,3.53v.59c0,.19-.09.28-.28.28h-2.13c-.19,0-.28-.09-.28-.28v-.39c0-.78-.23-1.43-.69-1.95-.46-.51-1.03-.77-1.72-.77-.75,0-1.36.26-1.83.77-.48.51-.71,1.19-.71,2.03v3.53s.01.07.04.08c.03.02.06,0,.1-.03.73-.84,1.7-1.26,2.91-1.26,1.14,0,2.09.3,2.84.9.76.6,1.31,1.42,1.67,2.46.3.84.45,1.81.45,2.91ZM893.04,703.67c0-.88-.09-1.59-.28-2.13-.17-.58-.46-1.03-.87-1.36-.41-.33-.92-.49-1.51-.49s-1.12.16-1.53.49c-.4.33-.69.79-.85,1.39-.17.52-.25,1.23-.25,2.13,0,.77.07,1.41.2,1.93.15.63.43,1.13.85,1.5.42.36.95.55,1.58.55s1.16-.18,1.58-.55c.42-.36.71-.89.88-1.58.13-.5.2-1.13.2-1.88Z"/>
      <path class="cls-1" d="M900.02,709.49l5.54-16.83s.01-.07-.01-.1c-.03-.03-.06-.04-.1-.04h-5.6c-.07,0-.11.04-.11.11v1.2c0,.19-.09.28-.28.28h-1.65c-.19,0-.28-.09-.28-.28v-3.36c0-.19.09-.28.28-.28h10.33c.19,0,.28.09.28.28v1.88c0,.07-.02.19-.06.34l-5.52,16.88c-.06.15-.17.22-.34.22h-2.27c-.21,0-.28-.1-.22-.31Z"/>
    </g>
  </g>
</svg>