<?xml version="1.0" encoding="UTF-8"?>
<svg id="wv_hall_4B" data-name="Hall 4B" xmlns="http://www.w3.org/2000/svg" viewBox="0 0 1300 1300" class="hall-svg h-auto">
  <g id="wv_hall_1300" data-name="1300">
    <rect class="cls-2" width="1300" height="1300"/>
  </g>
  <g id="HALL">
    <path class="cls-3" d="M445.143,717.414h130.44c-5.477-44.724-31.333-62.954-47.854-75.286,14.212-9.248,34.344-22.142,38.939-53.543h-112.61c4.595,31.401,24.728,44.295,38.938,53.543-16.521,12.331-42.377,30.562-47.853,75.286ZM555.934,705.873h-35.934c-3.746-16.57-6.835-39.098-6.835-48.332,0-4.529,3.743-8.038,9.266-11.887,12.676,11.09,33.029,29.273,33.503,60.218ZM510.362,649.729c-1.91-2.653-4.664-5.181-7.84-7.811.154-.14.306-.278.455-.415,2.227-2.048,4.749-4.021,7.386-6.081,2.638,2.06,5.16,4.033,7.387,6.081.149.137.301.275.455.415-3.177,2.63-5.93,5.158-7.841,7.811ZM549.427,596.18c-1.344,21.661-15.294,32.994-26.729,42.114-2.357-1.837-5.049-3.988-7.788-6.474,9.325-7.601,18.806-17.3,21.095-35.64h13.422ZM524.159,596.18c.037,13.165-6.469,23.445-13.797,31.199-7.327-7.754-13.833-18.034-13.796-31.199h27.593ZM471.299,596.18h13.422c2.289,18.341,11.77,28.04,21.095,35.64-2.739,2.485-5.431,4.637-7.788,6.474-11.434-9.12-25.385-20.453-26.729-42.114ZM498.295,645.655c5.523,3.848,9.267,7.357,9.267,11.887,0,9.233-3.089,31.762-6.836,48.332h-35.934c.474-30.945,20.827-49.128,33.503-60.218ZM311.891,665.001h2.436v-3.92h3.332v-2.128h-3.332v-12.628h-4.34l-13.943,10.443v4.312h15.848v3.92ZM298.479,658.953v-1.064l12.376-9.436h1.036v10.5h-13.412ZM811.655,645.693h3.798c1.864,0,2.795-.932,2.795-2.795v-7.776c0-1.254-.466-1.863-1.326-2.186.824-.322,1.29-.967,1.29-2.293v-7.238c0-1.935-.825-2.795-2.831-2.795h-3.727v25.082ZM813.948,622.618h1.075c.609,0,.86.287.86.86v7.632c0,.609-.287.931-.931.931h-1.003v-9.424ZM813.948,634.012h1.039c.681,0,.932.287.932.932v7.883c0,.573-.251.86-.86.86h-1.111v-9.675ZM980,219.5H320c-.276,0-.5.224-.5.5v379.5h-17.5c-.276,0-.5.224-.5.5s.224.5.5.5h18c.276,0,.5-.224.5-.5V220.5h659v859H320.5v-369.5c0-.276-.224-.5-.5-.5h-18c-.276,0-.5.224-.5.5s.224.5.5.5h17.5v369.5c0,.276.224.5.5.5h660c.276,0,.5-.224.5-.5V220c0-.276-.224-.5-.5-.5ZM288.471,641.42l-8.178,13.397c-.199.326-.297.755-.293,1.183-.004.428.094.857.293,1.183l8.178,13.397c.391.639,1.53.599,1.53-.476v-28.209c0-1.075-1.14-1.115-1.53-.476ZM484.845,752.792c-2.025,2.025-2.885,4.603-2.885,7.669s.859,5.646,2.885,7.672c2.087,2.087,5.92,3.867,15.003,3.867s12.917-1.78,15.003-3.867c2.025-2.025,2.885-4.603,2.885-7.672s-.859-5.644-2.885-7.669c-2.086-2.087-5.92-3.866-15.003-3.866s-12.917,1.78-15.003,3.866ZM511.509,760.462c0,2.302-.706,3.652-1.626,4.572-1.258,1.258-3.897,2.332-10.035,2.332s-8.776-1.074-10.035-2.332c-.92-.921-1.624-2.271-1.624-4.572s.704-3.649,1.624-4.57c1.258-1.258,3.897-2.332,10.035-2.332s8.777,1.074,10.035,2.332c.921.921,1.626,2.271,1.626,4.57ZM820.238,596.511l-.693-7.89h-2.176l1.756,11.625v5.689h2.078v-5.837l1.756-11.476h-1.979l-.742,7.89ZM579.789,749.724v21.476h6.104v-21.476h-6.104ZM446.821,768.197c2.053,2.023,6.227,3.803,13.898,3.803,6.444,0,11.017-.982,13.656-2.179v-5.153c-3.13,1.442-8.071,2.547-13.717,2.547-4.695,0-7.519-.982-8.777-2.24-1.013-1.013-1.657-2.271-1.657-4.514,0-2.209.613-3.468,1.657-4.511,1.258-1.258,4.082-2.24,8.777-2.24,5.646,0,10.587,1.227,13.717,2.762v-5.368c-2.639-1.166-7.212-2.179-13.656-2.179-7.671,0-11.845,1.78-13.898,3.803-1.872,1.872-2.821,4.48-2.821,7.733s.949,5.864,2.821,7.736ZM816.652,595.547v-4.996c0-1.286-.643-1.929-1.929-1.929h-3.067v17.313h3.091c1.286,0,1.929-.643,1.929-1.929v-5.565c0-.767-.271-1.162-.89-1.336.544-.222.866-.668.866-1.558ZM813.709,590.402h.495c.248,0,.371.124.371.371v5.194c0,.247-.124.371-.371.371h-.495v-5.936ZM814.6,603.783c0,.247-.099.371-.371.371h-.52v-6.084h.52c.272,0,.371.124.371.371v5.343ZM322.864,654.428h6.171l.797,1.581h3.232l-4.883-9.333h-4.422l-4.939,9.333h3.246l.798-1.581ZM325.676,648.845h.561l1.805,3.54h-4.17l1.805-3.54ZM536.548,749.724h-9.846v21.479h5.795v-17.308l11.479,17.308h7.979l11.357-17.216.092,17.216h6.04v-21.479h-9.878l-11.477,17.86-11.541-17.86ZM827.886,620.611v25.082h4.658v-2.078h-2.33v-23.004h-2.329ZM751.788,772c9.083,0,12.919-1.78,15.006-3.867,2.025-2.025,2.884-4.603,2.884-7.672s-.859-5.644-2.884-7.669c-2.087-2.087-5.923-3.866-15.006-3.866s-12.917,1.78-15.003,3.866c-2.025,2.025-2.884,4.603-2.884,7.669s.859,5.646,2.884,7.672c2.087,2.087,5.923,3.867,15.003,3.867ZM741.756,755.892c1.258-1.258,3.897-2.332,10.032-2.332s8.777,1.074,10.035,2.332c.92.921,1.626,2.271,1.626,4.57s-.706,3.652-1.626,4.572c-1.258,1.258-3.897,2.332-10.035,2.332s-8.774-1.074-10.032-2.332c-.92-.921-1.626-2.271-1.626-4.572s.706-3.649,1.626-4.57ZM661.017,587.056c-19.291,0-27.715,10.963-27.881,30.083-.167,19.206,8.065,30.084,27.356,30.084s27.629-10.878,27.797-30.084c.167-19.121-8.066-30.083-27.271-30.083ZM660.548,640.765c-10.113,0-14.295-7.648-14.156-23.625.14-15.976,4.455-23.54,14.567-23.54,10.028,0,14.211,7.563,14.071,23.54-.139,15.977-4.455,23.625-14.483,23.625ZM680.347,675.688c-.1,11.387,9.982,14.872,17.519,18.101,4.402,1.955,10.329,4.419,10.273,10.708-.049,5.694-4.914,7.988-10.438,7.988-7.563,0-11.193-2.719-15.58-6.459-.622,3.059-1.243,6.119-1.864,9.093,6.011,2.55,11.354,3.824,17.643,3.824,10.538,0,20.629-7.224,20.727-18.526.07-7.988-5.585-12.407-11.763-15.382-5.67-2.719-16.434-6.119-16.376-12.662.038-4.249,4.566-7.053,9.24-7.053,5.949,0,9.503,1.785,13.896,4.759.621-2.889,1.239-5.694,1.86-8.583-5.592-1.87-10.599-2.719-16.123-2.719-10.113,0-18.924,6.629-19.013,16.911ZM721.515,587.056c-19.291,0-27.715,10.963-27.882,30.083-.167,19.206,8.066,30.084,27.356,30.084s27.629-10.878,27.797-30.084c.167-19.121-8.066-30.083-27.271-30.083ZM721.046,640.765c-10.113,0-14.295-7.648-14.156-23.625.139-15.976,4.455-23.54,14.567-23.54,10.028,0,14.211,7.563,14.071,23.54-.139,15.977-4.455,23.625-14.483,23.625ZM821.508,645.693l.251-3.798h2.293l.287,3.798h2.258l-2.078-25.118h-3.046l-2.114,25.118h2.149ZM822.906,625.843l1.003,14.046h-2.006l1.003-14.046ZM711.744,766.97c-5.312,0-12.183-1.32-15.344-2.731v5.03c3.283,1.381,9.204,2.332,15.344,2.332,8.316,0,11.814-1.258,13.408-2.851,1.197-1.197,1.534-2.793,1.534-4.45,0-1.534-.491-2.977-1.381-3.869-1.716-1.719-5.276-2.424-13.5-2.608-5.587-.123-8.012-.307-8.656-.951-.246-.245-.368-.552-.368-.982,0-.399.153-.706.399-.951.675-.675,2.915-.982,8.104-.982,4.695,0,10.372,1.013,13.623,2.394v-5.03c-2.852-1.135-8.283-1.995-13.684-1.995-7.245,0-10.804.89-12.582,2.667-1.351,1.35-1.657,2.823-1.657,4.45,0,1.565.491,2.915,1.319,3.744,1.811,1.813,5.675,2.58,13.533,2.795,7.396.215,8.224.552,8.715,1.043.246.245.337.522.337.921,0,.338-.062.675-.368.982-.89.89-4.143,1.043-8.776,1.043ZM670.454,692.685c.089-10.198.434-20.481.877-32.378h-13.937c1.624,8.668,1.818,15.637,1.758,22.52l-.302,34.588h13.002c-1.363-9.348-1.466-17.081-1.399-24.73ZM598.798,611.106l-.302,34.587h13.002c-.946-8.413-1.479-15.467-1.417-22.605.003-.425.092-.85.096-1.275l.014-1.53h2.804c4.164,0,7.901.17,12.229,1.02.957-2.549,1.913-5.014,2.87-7.563h-17.931c.125-4.674.377-14.022.588-18.696,2.21-.085,4.505-.17,6.8-.17,3.994,0,9.257.68,14.773,1.615.873-2.634,1.915-5.269,2.789-7.903h-38.072c1.623,8.668,1.818,15.637,1.758,22.52ZM596.24,771.202h5.917v-16.909l18.108,16.909h8.958v-21.479h-5.917v16.602l-17.804-16.602h-9.262v21.479ZM774.534,718.944c19.206,0,27.629-10.878,27.797-30.083.167-19.121-8.066-30.083-27.271-30.083s-27.715,10.963-27.882,30.083c-.167,19.206,8.066,30.083,27.356,30.083ZM775.002,665.32c10.028,0,14.21,7.563,14.071,23.54-.14,15.977-4.455,23.625-14.483,23.625-10.113,0-14.295-7.648-14.156-23.625.14-15.977,4.455-23.54,14.568-23.54ZM655.678,772c6.782,0,10.956-.951,13.533-3.526,1.409-1.412,2.146-3.409,2.146-6.846v-2.851h-18.901v4.294h13.26c.03.491.03,1.626-.739,2.396-1.381,1.381-4.787,1.841-9.298,1.841-5.526,0-8.411-1.013-9.761-2.365-.982-1.013-1.503-2.455-1.503-4.478,0-1.964.552-3.498,1.626-4.575,1.197-1.197,4.112-2.179,9.792-2.179,6.26,0,10.71.921,13.899,2.148v-5.153c-2.698-.859-6.963-1.78-13.776-1.78-8.687,0-12.83,1.749-14.883,3.803-1.903,1.903-2.882,4.452-2.882,7.736s.979,5.831,2.882,7.733c2.084,2.115,6.135,3.803,14.607,3.803ZM642.703,660.306c-1.091,8.073-11.712,37.137-15.191,46.315h-.255c-4.734-12.662-10.354-30.848-15.062-46.315h-13.853c8.921,19.631,15.294,39.262,21.597,57.108h10.708c8.016-22.605,11.537-36.542,21.403-57.108h-9.347ZM727.059,717.414h13.002c-1.363-9.348-1.465-17.081-1.398-24.73.089-10.198.434-20.481.877-32.378h-13.937c1.625,8.668,1.818,15.637,1.758,22.52l-.302,34.588ZM848.275,590.662v-2.078h-5.124v25.082h5.16v-2.078h-2.831v-9.567h2.687v-2.079h-2.687v-9.28h2.795ZM838.887,588.584h-3.69v25.082h2.329v-9.853h1.361c1.863,0,2.795-.932,2.795-2.795v-9.639c0-1.97-.789-2.795-2.795-2.795ZM839.354,600.91c0,.573-.287.86-.86.86h-.968v-11.144h.968c.573,0,.86.251.86.86v9.424ZM843.33,645.693l.251-3.798h2.293l.287,3.798h2.258l-2.079-25.118h-3.046l-2.114,25.118h2.15ZM844.727,625.843l1.003,14.046h-2.007l1.003-14.046ZM833.513,611.05v-19.886c0-1.863-.932-2.795-2.795-2.795h-1.254c-1.863,0-2.795.932-2.795,2.795v19.886c0,1.863.932,2.831,2.795,2.831h1.254c1.863,0,2.795-.968,2.795-2.831ZM831.184,610.943c0,.609-.287.86-.86.86h-.501c-.573,0-.824-.251-.824-.86v-19.672c0-.609.25-.859.824-.859h.501c.574,0,.86.251.86.859v19.672ZM809.927,697.783c-.053,6.034-.191,12.237-1.531,19.631h7.988c-.225-3.399-.217-4.334-.205-5.779.105-12.067.125-23.965.229-36.032h.255c4.622,5.949,15.371,20.821,21.081,28.639,2.267,3.144,7.22,10.113,9.148,13.172h7.818c-.152-2.125-.135-3.994-.121-5.694.022-2.549.125-4.674.145-6.798l.201-22.945c.068-7.903.464-14.362,1.378-21.67h-9.348c1.869,9.773,1.479,25.24,1.389,35.692-.009,1.02-.016,1.785-.02,2.125h-.255c-7.14-9.518-18.22-25.24-27.034-37.817h-12.747c2.378,9.858,1.78,20.056,1.627,37.477ZM849.708,645.693h2.078l-.036-11.466-.214-7.059,2.58,18.525h2.472v-25.082h-2.042l.036,11.359.215,6.019-2.4-17.378h-2.688v25.082ZM833.87,645.693h2.33v-12.075l2.042,12.075h2.401l-2.293-12.684,2.436-12.398h-2.401l-2.186,11.968v-11.968h-2.33v25.082ZM780.299,752.792c-2.025,2.025-2.885,4.603-2.885,7.669s.859,5.646,2.885,7.672c2.087,2.087,5.922,3.867,15.003,3.867s12.919-1.78,15.006-3.867c2.025-2.025,2.884-4.603,2.884-7.672s-.859-5.644-2.884-7.669c-2.087-2.087-5.923-3.866-15.006-3.866s-12.917,1.78-15.003,3.866ZM806.964,760.462c0,2.302-.706,3.652-1.626,4.572-1.258,1.258-3.897,2.332-10.035,2.332s-8.774-1.074-10.032-2.332c-.92-.921-1.626-2.271-1.626-4.572s.706-3.649,1.626-4.57c1.258-1.258,3.897-2.332,10.032-2.332s8.776,1.074,10.035,2.332c.921.921,1.626,2.271,1.626,4.57ZM849.223,766.325l-17.801-16.602h-9.265v21.479h5.917v-16.909l18.111,16.909h8.958v-21.479h-5.92v16.602ZM849.708,588.584v25.082h2.078l-.036-11.466-.214-7.059,2.58,18.526h2.472v-25.082h-2.042l.036,11.358.215,6.02-2.4-17.379h-2.688ZM754.468,639.83c-.012,1.36-.113,3.229-.391,5.864h20.226c20.65,0,28.582-13.002,28.718-28.554.152-17.506-7.739-28.554-28.305-28.554h-22.095c2.054,7.988,2.175,13.682,2.123,19.631l-.276,31.613ZM766.04,618.754c.064-7.308.314-16.571.631-23.625h7.988c12.577,0,15.628,10.708,15.529,22.01-.098,11.303-3.252,22.095-15.83,22.095h-7.733c-.542-6.119-.641-14.192-.586-20.481Z"/>
  </g>
</svg>