<?xml version="1.0" encoding="UTF-8"?>
<svg id="ICONS" xmlns="http://www.w3.org/2000/svg" width="430" height="214" version="1.1" viewBox="0 0 430 214">
  <!-- Generator: Adobe Illustrator 29.5.0, SVG Export Plug-In . SVG Version: 2.1.0 Build 137)  -->
  <defs>
    <style>
      .st0 {
        fill: #85828e;
      }

      .st1 {
        fill: #fff;
      }

      .st2 {
        fill: #cecdd2;
      }
    </style>
  </defs>
  <path class="st1" d="M352.737,91.377h-1.371v14.765h1.371v-7.108l1.202,7.108h1.414l-1.35-7.467,1.434-7.298h-1.413l-1.287,7.045v-7.045ZM349.425,91.377h-1.371v14.765h2.742v-1.223h-1.371v-13.542ZM96.301,86.773c.88-3.594,1.725-8.886,3.917-14.177h-5.591c.048.199.046.499.043.848-.036,4.144-2.59,16.524-4.082,21.566h-.15c-2.247-5.641-4.959-15.176-6.361-20.467h-4.792c-2.153,6.489-5.739,16.972-7.267,20.467h-.15c-1.014-3.944-2.117-9.185-3.173-13.928-.626-2.696-.907-4.842-1.124-8.486h-7.888c3.089,12.18,5.491,22.963,7.795,33.546h4.343c1.941-5.142,5.776-15.475,8.274-21.516h.1c1.367,3.545,5.879,18.521,6.851,21.516h4.842c1.613-7.438,2.912-13.279,4.413-19.369M111.424,106.142c-.801-5.491-.861-10.034-.822-14.527.053-5.99.255-12.03.516-19.019h-8.187c.954,5.092,1.068,9.185,1.032,13.229l-.177,20.317h7.638ZM143.196,85.325c.041-4.642.273-8.436.81-12.729h-5.491c1.098,5.741.869,14.826.815,20.966-.005.599-.009,1.049-.011,1.248h-.149c-4.195-5.591-10.704-14.826-15.881-22.214h-7.488c1.397,5.79,1.046,11.781.956,22.015-.031,3.544-.112,7.188-.899,11.531h4.692c-.132-1.997-.127-2.546-.12-3.395.062-7.088.073-14.077.135-21.166h.15c2.715,3.495,9.028,12.231,12.383,16.823,1.332,1.847,4.241,5.941,5.374,7.738h4.592c-.089-1.248-.079-2.346-.07-3.345.013-1.497.074-2.745.085-3.993l.117-13.479ZM155.696,102.398c-.221-3.245-.273-8.786-.245-11.981h1.348c2.446,0,4.243.05,7.532.649l1.687-4.493h-10.533c.072-2.595.215-7.538.338-10.183,1.298-.05,2.098-.1,3.995-.1,2.446,0,5.338.349,8.677.948.513-1.547,1.126-3.095,1.638-4.642h-22.364c.954,5.092,1.068,9.185,1.033,13.229l-.178,20.317h20.618c.614-1.797,1.279-3.594,1.944-5.391-3.903,1.048-7.704,1.797-10.15,1.797-1.997,0-3.294-.1-5.34-.15M200.716,106.142c4.708-13.279,6.777-21.466,12.573-33.546h-5.491c-.641,4.742-6.88,21.815-8.924,27.206h-.149c-2.781-7.438-6.082-18.121-8.848-27.206h-8.137c5.24,11.531,8.984,23.063,12.686,33.546h6.29ZM224.546,106.142c-.8-5.491-.861-10.034-.821-14.527.052-5.99.254-12.03.515-19.019h-8.187c.954,5.092,1.068,9.185,1.033,13.229l-.178,20.317h7.638ZM235.044,79.684c.021-2.496,2.682-4.143,5.427-4.143,3.495,0,5.582,1.048,8.163,2.796.364-1.698.728-3.345,1.092-5.042-3.285-1.099-6.226-1.598-9.471-1.598-5.94,0-11.116,3.894-11.169,9.934-.058,6.69,5.864,8.736,10.291,10.633,2.586,1.148,6.067,2.596,6.035,6.29-.029,3.345-2.886,4.693-6.131,4.693-4.443,0-6.576-1.598-9.152-3.794-.365,1.797-.731,3.594-1.095,5.341,3.531,1.498,6.669,2.247,10.364,2.247,6.19,0,12.117-4.244,12.175-10.883.041-4.693-3.281-7.288-6.91-9.036-3.33-1.597-9.653-3.594-9.619-7.438M263.363,106.142c-.801-5.491-.861-10.034-.822-14.527.052-5.99.255-12.03.516-19.019h-8.187c.954,5.092,1.068,9.185,1.032,13.229l-.177,20.317h7.638ZM291.425,89.369c-.082,9.385-2.617,13.878-8.508,13.878-5.94,0-8.397-4.493-8.315-13.878.082-9.385,2.617-13.828,8.557-13.828,5.891,0,8.348,4.443,8.266,13.828M299.213,89.369c.098-11.232-4.738-17.672-16.02-17.672s-16.28,6.44-16.379,17.672c-.098,11.282,4.739,17.672,16.07,17.672s16.23-6.39,16.329-17.672M329.375,85.325c.041-4.642.274-8.436.81-12.729h-5.491c1.098,5.741.869,14.826.816,20.966-.006.599-.01,1.049-.011,1.248h-.15c-4.195-5.591-10.703-14.826-15.881-22.214h-7.488c1.398,5.79,1.046,11.781.956,22.015-.03,3.544-.112,7.188-.899,11.531h4.693c-.133-1.997-.128-2.546-.121-3.395.062-7.088.073-14.077.135-21.166h.15c2.715,3.495,9.029,12.231,12.383,16.823,1.332,1.847,4.241,5.941,5.374,7.738h4.593c-.089-1.248-.08-2.346-.071-3.345.013-1.497.074-2.745.085-3.993l.117-13.479ZM340.904,92.558c.359,0,.506.169.506.506v4.493c0,.359-.168.549-.548.549h-.591v-5.548h.633ZM340.271,99.266h.612c.401,0,.549.168.549.548v4.641c0,.337-.148.506-.507.506h-.654v-5.695ZM341.115,91.377h-2.194v14.765h2.236c1.097,0,1.646-.548,1.646-1.645v-4.577c0-.739-.275-1.097-.781-1.287.485-.19.759-.57.759-1.35v-4.261c0-1.139-.485-1.645-1.666-1.645M340.641,81.412c0,.144-.058.216-.216.216h-.303v-3.546h.303c.158,0,.216.073.216.217v3.113ZM340.626,76.857c0,.144-.072.217-.216.217h-.288v-3.46h.288c.144,0,.216.072.216.216v3.027ZM341.852,81.542v-3.243c0-.447-.159-.678-.519-.779.317-.129.504-.389.504-.908v-2.911c0-.75-.375-1.124-1.124-1.124h-1.787v10.089h1.801c.75,0,1.125-.375,1.125-1.124M344.489,79.264l1.024-6.687h-1.153l-.433,4.597-.403-4.597h-1.269l1.024,6.774v3.315h1.21v-3.402ZM345.924,102.725h-1.181l.591-8.268.59,8.268ZM347.506,106.142l-1.223-14.786h-1.793l-1.245,14.786h1.266l.148-2.236h1.35l.168,2.236h1.329ZM349.996,85.742c0,.359-.169.506-.507.506h-.295c-.338,0-.485-.147-.485-.506v-11.58c0-.359.147-.506.485-.506h.295c.338,0,.507.147.507.506v11.58ZM351.367,85.805v-11.706c0-1.097-.549-1.646-1.646-1.646h-.738c-1.097,0-1.645.549-1.645,1.646v11.706c0,1.097.548,1.667,1.645,1.667h.738c1.097,0,1.646-.57,1.646-1.667M354.594,79.836c0,.337-.169.506-.507.506h-.569v-6.56h.569c.338,0,.507.148.507.506v5.548ZM355.965,79.899v-5.674c0-1.16-.464-1.645-1.646-1.645h-2.172v14.765h1.371v-5.801h.801c1.097,0,1.646-.548,1.646-1.645M356.618,87.345h3.038v-1.223h-1.667v-5.632h1.582v-1.223h-1.582v-5.464h1.646v-1.223h-3.017v14.765ZM358.137,102.725h-1.181l.59-8.268.591,8.268ZM358.39,106.142h1.329l-1.223-14.786h-1.793l-1.245,14.786h1.266l.147-2.236h1.35l.169,2.236ZM362.862,87.345h1.455v-14.765h-1.202l.021,6.687.126,3.543-1.413-10.23h-1.582v14.765h1.224l-.022-6.75-.126-4.155,1.519,10.905ZM364.317,106.142v-14.765h-1.202l.021,6.686.126,3.544-1.413-10.23h-1.582v14.765h1.224l-.022-6.75-.126-4.155,1.519,10.905h1.455Z"/>
  <path class="st2" d="M345.775,124.995h8.736v-1.894h-10.93v5.267c2.086-.144,4.523-.193,5.819-.193,1.776,0,2.664.049,3.013.397.131.132.167.276.167.432s-.036.276-.167.409c-.421.42-1.585.54-3.445.54-2.149,0-4.308-.24-5.483-.709v1.956c1.247.384,3.25.623,5.495.623,3.469,0,4.656-.575,5.255-1.175.408-.407.624-1.091.624-1.728,0-.828-.216-1.368-.564-1.716-.611-.611-1.703-.911-4.835-.911-1.32,0-2.893.108-3.685.192v-1.49ZM328.988,125.884c1.668-.708,3.552-1.189,5.796-1.189,1.2,0,2.473.121,2.809.457.083.084.131.18.131.336,0,.132-.048.24-.12.312-.144.144-.276.228-2.316.456-5.304.576-6.876,1.933-7.092,5.243h11.675v-1.93l-8.819.036c.193-.468.684-1.104,3.732-1.476,3.384-.409,4.116-.589,4.679-1.153.312-.312.528-.804.528-1.512,0-.672-.192-1.176-.636-1.62-.575-.575-2.027-1.055-4.583-1.055-2.424,0-4.284.396-5.772,1.007l-.012,2.088ZM322.807,127.3c0,.9-.276,1.428-.636,1.788-.492.492-1.523.912-3.923.912s-3.432-.42-3.924-.912c-.36-.36-.636-.888-.636-1.788s.276-1.428.636-1.787c.492-.492,1.524-.912,3.924-.912s3.431.42,3.923.912c.36.359.636.887.636,1.787M311.253,127.3c0,1.2.336,2.208,1.127,3,.816.816,2.316,1.511,5.868,1.511s5.051-.695,5.867-1.511c.792-.792,1.128-1.8,1.128-3s-.336-2.207-1.128-2.999c-.816-.816-2.316-1.512-5.867-1.512s-5.052.696-5.868,1.512c-.791.792-1.127,1.799-1.127,2.999M297.092,125.884c1.668-.708,3.552-1.189,5.796-1.189,1.201,0,2.473.121,2.809.457.084.084.132.18.132.336,0,.132-.048.24-.12.312-.144.144-.276.228-2.316.456-5.304.576-6.876,1.933-7.092,5.243h11.674v-1.93l-8.818.036c.192-.468.684-1.104,3.732-1.476,3.383-.409,4.115-.589,4.678-1.153.312-.312.528-.804.528-1.512,0-.672-.192-1.176-.636-1.62-.575-.575-2.026-1.055-4.582-1.055-2.424,0-4.284.396-5.772,1.007l-.013,2.088ZM283.736,133.539l3.143-3.97h-2.495l-2.831,3.97h2.183ZM270.727,124.995h8.737v-1.894h-10.931v5.267c2.086-.144,4.523-.193,5.819-.193,1.777,0,2.665.049,3.013.397.132.132.168.276.168.432s-.036.276-.168.409c-.42.42-1.585.54-3.445.54-2.148,0-4.308-.24-5.483-.709v1.956c1.247.384,3.251.623,5.495.623,3.469,0,4.656-.575,5.256-1.175.407-.407.623-1.091.623-1.728,0-.828-.216-1.368-.563-1.716-.612-.611-1.703-.911-4.836-.911-1.32,0-2.893.108-3.685.192v-1.49ZM253.941,125.884c1.667-.708,3.551-1.189,5.795-1.189,1.201,0,2.473.121,2.809.457.084.084.132.18.132.336,0,.132-.048.24-.12.312-.144.144-.276.228-2.316.456-5.304.576-6.876,1.933-7.092,5.243h11.674v-1.93l-8.818.036c.192-.468.684-1.104,3.732-1.476,3.383-.409,4.115-.589,4.679-1.153.311-.312.527-.804.527-1.512,0-.672-.192-1.176-.635-1.62-.576-.575-2.027-1.055-4.583-1.055-2.424,0-4.284.396-5.772,1.007l-.012,2.088ZM249.907,126.101h-6.755v1.895h6.755v-1.895ZM228.585,125.884c1.668-.708,3.551-1.189,5.795-1.189,1.201,0,2.473.121,2.809.457.084.084.132.18.132.336,0,.132-.048.24-.12.312-.144.144-.276.228-2.316.456-5.304.576-6.876,1.933-7.092,5.243h11.674v-1.93l-8.818.036c.192-.468.684-1.104,3.732-1.476,3.384-.409,4.115-.589,4.679-1.153.311-.312.527-.804.527-1.512,0-.672-.192-1.176-.635-1.62-.576-.575-2.027-1.055-4.583-1.055-2.424,0-4.284.396-5.772,1.007l-.012,2.088ZM213.825,125.884c1.667-.708,3.551-1.189,5.795-1.189,1.201,0,2.473.121,2.809.457.084.084.132.18.132.336,0,.132-.048.24-.12.312-.144.144-.276.228-2.316.456-5.304.576-6.876,1.933-7.092,5.243h11.674v-1.93l-8.818.036c.192-.468.684-1.104,3.732-1.476,3.383-.409,4.115-.589,4.679-1.153.311-.312.527-.804.527-1.512,0-.672-.192-1.176-.635-1.62-.576-.575-2.027-1.055-4.583-1.055-2.424,0-4.284.396-5.772,1.007l-.012,2.088ZM200.637,125.344c.18.18.252.384.252.66,0,.24-.084.481-.24.637-.312.312-.96.396-2.064.396h-4.898v-2.006h4.898c1.224,0,1.788.049,2.052.313M203.287,125.932c0-.66-.143-1.392-.671-1.92-.612-.611-1.463-.911-3.995-.911h-7.32v8.398h2.386v-2.7h3.001l4.045,2.7h3.49v-.036l-4.234-2.699c1.44-.108,2.111-.42,2.591-.9.576-.575.707-1.295.707-1.932M178.532,126.365v-1.358h8.964v-1.906h-11.303v8.398h11.303v-1.906h-8.964v-1.442h8.736v-1.786h-8.736ZM168.489,124.887c.732,0,1.272.061,1.524.313.132.132.168.288.168.456,0,.228-.072.373-.168.469-.252.252-.792.288-1.512.288h-5.449v-1.526h5.437ZM163.052,129.737v-1.646h5.413c.792,0,1.38.037,1.656.313.096.096.18.252.18.504,0,.18-.036.349-.18.493-.276.276-.864.336-1.656.336h-5.413ZM160.797,131.499h7.464c2.436,0,3.335-.395,3.887-.947.408-.407.528-.911.528-1.416,0-1.116-.684-1.668-2.027-1.908,1.391-.287,1.907-.947,1.907-1.92,0-.528-.132-.984-.516-1.368-.564-.563-1.379-.839-3.695-.839h-7.548v8.398ZM152.949,123.101l-4.489,6.984-4.512-6.984h-3.851v8.398h2.267v-6.768l4.488,6.768h3.12l4.441-6.732.036,6.732h2.363v-8.398h-3.863ZM127.328,126.365v-1.358h8.964v-1.906h-11.303v8.398h11.303v-1.906h-8.964v-1.442h8.736v-1.786h-8.736ZM122.228,123.101h-2.772l-4.44,6.612-4.427-6.612h-2.892l5.795,8.398h2.94l5.796-8.398ZM103.52,127.3c0,.9-.276,1.428-.636,1.788-.492.492-1.524.912-3.924.912s-3.431-.42-3.923-.912c-.36-.36-.636-.888-.636-1.788s.276-1.428.636-1.787c.492-.492,1.524-.912,3.923-.912s3.432.42,3.924.912c.36.359.636.887.636,1.787M91.965,127.3c0,1.2.336,2.208,1.128,3,.816.816,2.316,1.511,5.867,1.511s5.052-.695,5.868-1.511c.792-.792,1.128-1.8,1.128-3s-.336-2.207-1.128-2.999c-.816-.816-2.316-1.512-5.868-1.512s-5.051.696-5.867,1.512c-.792.792-1.128,1.799-1.128,2.999M79.184,123.101h-3.623v8.398h2.315v-6.612l7.081,6.612h3.503v-8.398h-2.315v6.492l-6.961-6.492Z"/>
  <path class="st0" d="M339.453,142.426l2.937,4.159h-5.896l2.959-4.159ZM338.672,141.756l-5.554,7.743h1.319l1.364-1.936h7.282l1.374,1.936h1.386l-5.554-7.743h-1.617ZM329.86,141.8h-1.187v7.699h1.187v-7.699ZM323.152,143.251c.198.198.253.441.253.694,0,.286-.077.517-.253.682-.33.341-.847.506-2.531.506h-5.325v-2.366h5.325c1.541,0,2.168.121,2.531.484M323.273,146.595c.198.198.264.43.264.727,0,.264-.055.517-.286.748-.374.374-1.034.484-2.531.484h-5.424v-2.476h5.325c1.475,0,2.267.132,2.652.517M314.121,149.499h6.544c2.014,0,3.048-.264,3.608-.835.374-.363.483-.847.483-1.276,0-1.035-.659-1.585-1.989-1.804,1.286-.242,1.868-.825,1.868-1.771,0-.474-.099-.87-.461-1.233-.571-.571-1.451-.78-3.465-.78h-6.588v7.699ZM300.842,142.789h5.149c1.574,0,2.146.154,2.476.484.264.253.374.583.374,1.013,0,.44-.11.748-.352.99-.33.33-.957.539-2.498.539h-5.149v-3.026ZM299.656,141.8v7.699h1.186v-2.728h3.818l4.477,2.728h1.825v-.033l-4.498-2.695c1.805-.055,2.498-.406,2.959-.868.44-.429.604-1.001.604-1.65s-.164-1.222-.582-1.64c-.527-.527-1.242-.813-3.465-.813h-6.324ZM287.115,145.122v-2.333h8.712v-.989h-9.888v7.699h9.888v-.989h-8.712v-2.421h8.558v-.967h-8.558ZM277.171,148.719c-1.958,0-4.257-.44-5.444-.968v1.034c1.22.506,3.244.868,5.444.868,2.993,0,4.005-.472,4.499-.978.385-.385.517-.891.517-1.419,0-.495-.132-.957-.451-1.265-.494-.495-1.319-.748-4.631-.913-2.728-.132-3.421-.298-3.718-.595-.143-.143-.22-.352-.22-.627s.077-.517.253-.693c.33-.33,1.089-.583,3.344-.583,1.75,0,3.609.352,4.807.814v-1.034c-1.022-.373-2.694-.703-4.807-.703-2.64,0-3.751.374-4.279.901-.384.385-.505.88-.505,1.408,0,.484.121.913.428,1.211.495.495,1.485.759,4.554.913,2.971.143,3.521.308,3.796.583.187.187.242.429.242.693,0,.275-.077.528-.286.737-.319.319-1.056.616-3.543.616M258.098,145.518c0,.406.088.703.308.923s.627.407,1.484.407c.869,0,1.276-.187,1.496-.407.22-.22.308-.517.308-.923s-.088-.704-.308-.924c-.22-.22-.627-.407-1.496-.407-.857,0-1.264.187-1.484.407s-.308.517-.308.924M238.616,142.789h5.149c1.573,0,2.145.154,2.475.484.264.253.374.583.374,1.013,0,.44-.11.748-.352.99-.33.33-.957.539-2.497.539h-5.149v-3.026ZM237.429,141.8v7.699h1.187v-2.728h3.818l4.477,2.728h1.825v-.033l-4.498-2.695c1.804-.055,2.497-.406,2.959-.868.439-.429.604-1.001.604-1.65s-.165-1.222-.582-1.64c-.528-.527-1.243-.813-3.465-.813h-6.325ZM232.995,141.8h-1.187v7.699h1.187v-7.699ZM222.172,142.426l2.936,4.159h-5.895l2.959-4.159ZM221.391,141.756l-5.555,7.743h1.32l1.364-1.936h7.281l1.375,1.936h1.386l-5.554-7.743h-1.617ZM205.528,145.265v-2.476h8.47v-.989h-9.657v7.699h1.187v-3.267h8.316v-.967h-8.316ZM185.75,145.122v-2.333h8.712v-.989h-9.888v7.699h9.888v-.989h-8.712v-2.421h8.558v-.967h-8.558ZM171.098,148.51v-5.721h4.159c2.09,0,3.179.396,3.686.902.462.451.715,1.067.715,1.959s-.253,1.507-.715,1.958c-.507.506-1.596.902-3.686.902h-4.159ZM180.855,145.65c0-1.046-.307-1.926-1-2.619-.626-.626-1.892-1.231-4.576-1.231h-5.367v7.699h5.367c2.684,0,3.95-.604,4.576-1.231.693-.693,1-1.573,1-2.618M160.418,142.426l2.937,4.159h-5.896l2.959-4.159ZM159.637,141.756l-5.554,7.743h1.32l1.363-1.936h7.282l1.374,1.936h1.386l-5.554-7.743h-1.617ZM141.981,142.789h5.149c1.573,0,2.146.154,2.476.484.264.253.374.583.374,1.013,0,.44-.11.748-.352.99-.33.33-.958.539-2.498.539h-5.149v-3.026ZM140.795,141.8v7.699h1.186v-2.728h3.818l4.477,2.728h1.825v-.033l-4.498-2.695c1.805-.055,2.498-.406,2.959-.868.44-.429.604-1.001.604-1.65s-.164-1.222-.582-1.64c-.527-.527-1.242-.813-3.465-.813h-6.324ZM130.531,145.408v.967h5.248c0,.473-.066,1.002-.506,1.453-.572.572-1.838.891-3.829.891-2.508,0-3.553-.473-4.125-1.034-.452-.462-.727-1.112-.727-2.035,0-.902.275-1.562.738-2.036.583-.572,1.683-1.012,4.004-1.012,2.112,0,3.972.429,5.071,1.012v-1.111c-.934-.45-2.75-.879-5.071-.879-2.871,0-4.225.637-4.95,1.363-.671.672-.989,1.607-.989,2.663,0,1.099.351,2.013.989,2.662.725.726,2.002,1.363,5.049,1.363,2.564,0,4.005-.461,4.763-1.22.594-.594.802-1.343.802-2.344v-.703h-6.467ZM114.657,148.499v-6.699h-1.186v7.699h9.392v-1h-8.206ZM100.93,145.122v-2.333h8.712v-.989h-9.888v7.699h9.888v-.989h-8.712v-2.421h8.558v-.967h-8.558ZM94.375,143.251c.198.198.253.441.253.694,0,.286-.077.517-.253.682-.33.341-.847.506-2.53.506h-5.325v-2.366h5.325c1.54,0,2.167.121,2.53.484M94.496,146.595c.198.198.264.43.264.727,0,.264-.055.517-.286.748-.374.374-1.034.484-2.53.484h-5.424v-2.476h5.325c1.474,0,2.266.132,2.651.517M85.344,149.499h6.545c2.013,0,3.047-.264,3.607-.835.374-.363.484-.847.484-1.276,0-1.035-.66-1.585-1.99-1.804,1.286-.242,1.869-.825,1.869-1.771,0-.474-.099-.87-.462-1.233-.571-.571-1.451-.78-3.464-.78h-6.589v7.699Z"/>
</svg>