<?xml version="1.0" encoding="UTF-8"?>
<svg id="Layer_1" xmlns="http://www.w3.org/2000/svg" width="480" height="210" xmlns:xlink="http://www.w3.org/1999/xlink" version="1.1" viewBox="0 0 480 210">
  <!-- Generator: Adobe Illustrator 29.5.0, SVG Export Plug-In . SVG Version: 2.1.0 Build 137)  -->
  <defs>
    <style>
      .st0 {
        fill: none;
      }

      .st1 {
        fill: #231f20;
      }

      .st2 {
        clip-path: url(#clippath);
      }
    </style>
    <clipPath id="clippath">
      <rect class="st0" width="480" height="210"/>
    </clipPath>
  </defs>
  <g class="st2">
    <path class="st1" d="M309.962,110.709c0-7.217-5.884-13.051-13.161-13.051s-13.161,5.834-13.161,13.051,5.883,13.05,13.161,13.05,13.161-5.854,13.161-13.05M340,176.249c0,4.778-3.948,8.751-8.826,8.751h-122.804c-1.954,0-3.715-.652-5.186-1.688-2.226-1.575-3.639-4.204-3.639-7.063v-22.263c2.051-.383,4.006-1.363,5.574-2.84l8.013-7.581,4.18,7.753-.135.135v16.044h105.172v-6.929l-33.406-27.54-13.935,14.471-20.651-21.897-2.091-3.609,10.723-2.744c4.18-1.075,7.354-4.452,8.109-8.675.755-4.203-1.026-8.464-4.548-10.9l-36.367-25.142h100.991c4.878,0,8.826,3.915,8.826,8.751v92.966ZM276.747,63.597h-10.238v-10.287h10.238v10.287ZM276.755,42.554h-10.244v-7.396h-7.458v-10.158h17.702v17.554ZM244.427,35.158h-28.735v-10.158h28.735v10.158ZM201.067,35.158h-28.737v-10.158h28.737v10.158ZM157.703,134.654h-17.703v-17.553h10.245v7.395h7.458v10.158ZM157.703,35.158h-7.458v7.396h-10.245v-17.554h17.703v10.158ZM140,53.312h10.244v21.138h-10.244v-21.138ZM140,85.207h10.244v21.136h-10.244v-21.136ZM172.33,124.492h13.122l.542,10.172h-13.664v-10.172ZM193.21,62.325l67.022,46.322-24.779,6.36,12.374,21.24-20.144,11.103-11.658-21.636-18.529,17.509-4.286-80.898ZM480,202V8c0-4.418-3.582-8-8-8H8C3.582,0,0,3.582,0,8v194c0,4.418,3.582,8,8,8h464c4.418,0,8-3.582,8-8"/>
  </g>
</svg>