<?xml version="1.0" encoding="UTF-8"?>
<svg id="Layer_1" xmlns="http://www.w3.org/2000/svg" width="1000" height="1000" xmlns:xlink="http://www.w3.org/1999/xlink" version="1.1" viewBox="0 0 1000 1000">
  <!-- Generator: Adobe Illustrator 29.5.0, SVG Export Plug-In . SVG Version: 2.1.0 Build 137)  -->
  <defs>
    <style>
      .st0 {
        fill: none;
      }

      .st1 {
        fill: #fff;
      }

      .st2 {
        clip-path: url(#clippath);
      }
    </style>
    <clipPath id="clippath">
      <rect class="st0" width="1000" height="1000"/>
    </clipPath>
  </defs>
  <g class="st2">
    <path class="st1" d="M761.278,622.551l-15.264-12.084c-4.028-3.18-5.3-5.724-5.3-11.872v-29.044c0-4.24,1.908-6.36,6.148-6.36h2.12c4.24,0,5.936,2.12,5.936,6.36v37.312h16.536v-38.16c0-13.356-6.572-19.928-20.14-19.928h-6.996c-13.568,0-20.14,6.572-20.14,20.14v31.588c0,10.6,2.332,15.9,9.964,22.048l15.688,12.508c4.028,3.18,5.3,5.724,5.3,11.872v31.588c0,4.24-1.908,6.148-6.148,6.148h-2.332c-4.24,0-6.148-1.908-6.148-6.148v-39.856h-16.324v40.704c0,13.356,6.572,19.928,19.928,19.928h7.42c13.568,0,20.14-6.572,20.14-20.14v-34.344c0-10.6-2.12-15.9-10.388-22.26M697.617,698.235h18.02v-148.4h-14.84v67.204l.848,28.832-16.324-96.036h-19.292v148.4h14.84l-.212-69.748-.848-35.404,17.808,105.152ZM640.654,569.551v108.968c0,4.24-2.12,6.148-6.36,6.148h-3.392c-4.24,0-6.148-1.908-6.148-6.148v-108.968c0-4.452,1.908-6.36,6.148-6.36h3.392c4.24,0,6.36,1.908,6.36,6.36M657.19,679.155v-110.452c0-13.356-6.572-20.14-20.14-20.14h-8.904c-13.356,0-20.14,6.784-20.14,20.14v110.452c0,13.568,6.784,20.352,20.14,20.352h8.904c13.568,0,20.14-6.784,20.14-20.352M599.294,549.835h-16.536v148.4h16.536v-148.4ZM561.156,698.235v-133.348h14.204v-15.052h-44.944v15.052h14.204v133.348h16.536ZM504.957,580.575l7.208,80.348h-14.416l7.208-80.348ZM516.617,549.623h-22.048l-15.264,148.612h15.264l1.908-22.684h16.96l2.12,22.684h16.324l-15.264-148.612ZM465.272,698.447l15.9-148.612h-15.9l-9.964,111.512-9.752-111.512h-16.96l15.9,148.612h20.776ZM405.32,569.551v108.968c0,4.24-2.12,6.148-6.36,6.148h-3.392c-4.24,0-6.148-1.908-6.148-6.148v-108.968c0-4.452,1.908-6.36,6.148-6.36h3.392c4.24,0,6.36,1.908,6.36,6.36M421.856,679.155v-110.452c0-13.356-6.572-20.14-20.14-20.14h-8.904c-13.356,0-20.14,6.784-20.14,20.14v110.452c0,13.568,6.784,20.352,20.14,20.352h8.904c13.568,0,20.14-6.784,20.14-20.352M346.004,698.235h18.02v-148.4h-14.84v67.204l.848,28.832-16.324-96.036h-19.292v148.4h14.84l-.212-69.748-.848-35.404,17.808,105.152ZM287.516,698.235h18.019v-148.4h-14.84v67.204l.848,28.832-16.324-96.036h-19.292v148.4h14.84l-.212-69.748-.848-35.404,17.809,105.152ZM246.983,549.835h-16.536v148.4h16.536v-148.4Z"/>
    <path class="st1" d="M666.155,370.229v91.414h12.145v-40.484h13.712v-10.969h-13.712v-28.992h14.234v-10.969h-26.379ZM647.678,384.724v62.423c0,3.135-1.567,4.571-4.702,4.571h-2.481c-3.134,0-4.571-1.436-4.571-4.571v-62.423c0-3.134,1.437-4.57,4.571-4.57h2.481c3.135,0,4.702,1.436,4.702,4.57M659.692,447.67v-63.468c0-9.925-4.832-14.757-14.626-14.757h-6.53c-9.925,0-14.757,4.832-14.757,14.757v63.468c0,9.794,4.832,14.757,14.757,14.757h6.53c9.794,0,14.626-4.963,14.626-14.757M557.424,369.835v148.4h37.1v-15.052h-20.564v-52.788h19.504v-14.84h-19.504v-50.668h20.352v-15.052h-36.888ZM530.524,518.235h18.02v-148.4h-14.84v67.204l.847,28.832-16.324-96.036h-19.291v148.4h14.839l-.212-69.748-.847-35.404,17.808,105.152ZM473.561,389.551v108.968c0,4.24-2.12,6.148-6.36,6.148h-3.392c-4.24,0-6.148-1.908-6.148-6.148v-108.968c0-4.452,1.908-6.36,6.148-6.36h3.392c4.24,0,6.36,1.908,6.36,6.36M490.097,499.155v-110.452c0-13.356-6.572-20.14-20.14-20.14h-8.904c-13.356,0-20.14,6.784-20.14,20.14v110.452c0,13.568,6.784,20.352,20.14,20.352h8.904c13.568,0,20.14-6.784,20.14-20.352M416.577,384.887l-23.108,117.024v16.324h39.856v-15.052h-23.744l23.32-117.024v-16.324h-39.008v15.052h22.684ZM327.542,369.835v148.4h37.1v-15.052h-20.564v-52.788h19.504v-14.84h-19.504v-50.668h20.352v-15.052h-36.888ZM286.013,435.343v-65.508h-16.536v148.4h16.536v-67.628h15.9v67.628h16.748v-148.4h-16.748v65.508h-15.9ZM247.959,518.235v-133.348h14.204v-15.052h-44.944v15.052h14.204v133.348h16.536Z"/>
  </g>
  <path class="st1" d="M501.821,316.195l7.942,11.362h-15.922l7.98-11.362ZM478.033,338.235h8.36l3.61-5.168h23.636l3.61,5.168h8.74l-19.114-26.752h-9.728l-19.114,26.752ZM441.972,327.367l15.922-11.058v11.058h-15.922ZM465.418,338.235v-5.662h9.044v-5.282h-9.044v-15.656h-11.21l-25.916,18.316v2.622h29.564v5.662h7.562ZM378.132,332.117v-20.482h-7.562v26.6h33.82v-6.118h-26.258ZM336.888,332.117v-20.482h-7.562v26.6h33.82v-6.118h-26.258ZM298.272,316.195l7.942,11.362h-15.922l7.98-11.362ZM274.484,338.235h8.36l3.61-5.168h23.636l3.61,5.168h8.74l-19.114-26.752h-9.728l-19.114,26.752ZM235.47,321.781v-10.146h-7.562v26.6h7.562v-10.412h24.586v10.412h7.562v-26.6h-7.562v10.146h-24.586Z"/>
</svg>