<?xml version="1.0" encoding="UTF-8"?>
<svg id="Layer_1" xmlns="http://www.w3.org/2000/svg" width="1000" height="1000" xmlns:xlink="http://www.w3.org/1999/xlink" version="1.1" viewBox="0 0 1000 1000">
  <!-- Generator: Adobe Illustrator 29.5.0, SVG Export Plug-In . SVG Version: 2.1.0 Build 137)  -->
  <defs>
    <style>
      .st0 {
        fill: none;
      }

      .st1 {
        fill: #fff;
      }

      .st2 {
        clip-path: url(#clippath);
      }
    </style>
    <clipPath id="clippath">
      <rect class="st0" width="1000" height="1000"/>
    </clipPath>
  </defs>
  <g class="st2">
    <path class="st1" d="M804.968,698.235h18.02v-148.4h-14.84v67.204l.848,28.832-16.324-96.036h-19.292v148.4h14.84l-.212-69.748-.848-35.404,17.808,105.152ZM748.005,569.551v108.968c0,4.24-2.12,6.148-6.36,6.148h-3.392c-4.24,0-6.148-1.908-6.148-6.148v-108.968c0-4.452,1.908-6.36,6.148-6.36h3.392c4.24,0,6.36,1.908,6.36,6.36M764.541,679.155v-110.452c0-13.356-6.572-20.14-20.14-20.14h-8.904c-13.356,0-20.14,6.784-20.14,20.14v110.452c0,13.568,6.784,20.352,20.14,20.352h8.904c13.568,0,20.14-6.784,20.14-20.352M706.646,549.835h-16.536v148.4h16.536v-148.4ZM668.508,698.235v-133.348h14.204v-15.052h-44.944v15.052h14.204v133.348h16.536ZM612.308,580.575l7.208,80.348h-14.416l7.208-80.348ZM623.968,549.623h-22.048l-15.264,148.612h15.264l1.908-22.684h16.96l2.12,22.684h16.324l-15.264-148.612ZM562.597,570.823v43.248c0,4.664-2.12,6.784-6.784,6.784h-7.42v-56.18h7.844c4.452,0,6.36,1.908,6.36,6.148M569.805,627.639c5.936-2.332,9.328-7.208,9.328-16.748v-40.916c0-13.568-5.936-20.14-20.14-20.14h-27.136v148.4h16.536v-62.964h7.42c4.664,0,6.996,2.12,6.996,6.996v55.968h16.536v-56.392c0-8.056-2.968-12.296-9.54-14.204M506.482,569.551v108.968c0,4.24-2.12,6.148-6.36,6.148h-3.392c-4.24,0-6.148-1.908-6.148-6.148v-108.968c0-4.452,1.908-6.36,6.148-6.36h3.392c4.24,0,6.36,1.908,6.36,6.36M523.018,679.155v-110.452c0-13.356-6.572-20.14-20.14-20.14h-8.904c-13.356,0-20.14,6.784-20.14,20.14v110.452c0,13.568,6.784,20.352,20.14,20.352h8.904c13.568,0,20.14-6.784,20.14-20.352M432.197,549.835v148.4h34.132v-15.052h-17.596v-133.348h-16.536ZM407.373,570.823v49.608c0,4.24-1.908,6.36-6.148,6.36h-6.996v-62.328h6.996c4.24,0,6.148,1.908,6.148,6.36M394.229,641.419h9.752c13.356,0,20.14-6.784,20.14-20.14v-51.304c0-13.992-6.148-20.14-20.14-20.14h-26.288v148.4h16.536v-56.816ZM370.085,549.835h-15.9l-9.54,54.484-8.904-54.484h-16.96l15.052,74.624-15.476,73.776h15.9l9.964-54.696,9.116,54.696h16.96l-15.476-74.624,15.264-73.776ZM274.708,549.835v148.4h37.1v-15.052h-20.564v-52.788h19.504v-14.84h-19.504v-50.668h20.352v-15.052h-36.888ZM219.154,550.229v91.414h12.145v-40.483h13.712v-10.97h-13.712v-28.991h14.234v-10.97h-26.379ZM200.677,564.725v62.423c0,3.134-1.568,4.57-4.702,4.57h-2.481c-3.134,0-4.571-1.436-4.571-4.57v-62.423c0-3.135,1.437-4.571,4.571-4.571h2.481c3.134,0,4.702,1.436,4.702,4.571M212.691,627.67v-63.468c0-9.925-4.832-14.757-14.626-14.757h-6.53c-9.925,0-14.757,4.832-14.757,14.757v63.468c0,9.794,4.832,14.757,14.757,14.757h6.53c9.794,0,14.626-4.963,14.626-14.757"/>
    <path class="st1" d="M772.241,369.835h-15.9l-9.964,67.628-9.328-67.628h-17.172l17.808,95.612v52.788h16.748v-54.06l17.808-94.34ZM697.662,390.823v43.248c0,4.664-2.12,6.784-6.784,6.784h-7.42v-56.18h7.844c4.452,0,6.36,1.908,6.36,6.148M704.87,447.639c5.936-2.332,9.328-7.208,9.328-16.748v-40.916c0-13.568-5.936-20.14-20.14-20.14h-27.136v148.4h16.536v-62.964h7.42c4.664,0,6.996,2.12,6.996,6.996v55.968h16.536v-56.392c0-8.056-2.968-12.296-9.54-14.204M658.042,369.835h-16.536v128.472c0,4.24-1.908,6.36-6.36,6.36h-2.544c-4.452,0-6.36-2.12-6.36-6.36v-128.472h-16.536v129.108c0,13.568,6.572,20.352,20.14,20.352h8.056c13.568,0,20.14-6.784,20.14-20.352v-129.108ZM590.968,442.551l-15.264-12.084c-4.028-3.18-5.3-5.724-5.3-11.872v-29.044c0-4.24,1.908-6.36,6.148-6.36h2.12c4.24,0,5.936,2.12,5.936,6.36v37.312h16.536v-38.16c0-13.356-6.572-19.928-20.14-19.928h-6.996c-13.568,0-20.14,6.572-20.14,20.14v31.588c0,10.6,2.332,15.9,9.964,22.048l15.688,12.508c4.028,3.18,5.3,5.724,5.3,11.872v31.588c0,4.24-1.908,6.148-6.148,6.148h-2.332c-4.24,0-6.148-1.908-6.148-6.148v-39.856h-16.324v40.704c0,13.356,6.572,19.928,19.928,19.928h7.42c13.568,0,20.14-6.572,20.14-20.14v-34.344c0-10.6-2.12-15.9-10.388-22.26M520.437,400.575l7.208,80.348h-14.416l7.208-80.348ZM532.096,369.623h-22.048l-15.264,148.612h15.264l1.908-22.684h16.96l2.12,22.684h16.324l-15.264-148.612ZM451.052,369.835v148.4h37.1v-15.052h-20.564v-52.788h19.504v-14.84h-19.504v-50.668h20.352v-15.052h-36.888ZM425.572,390.823v43.248c0,4.664-2.12,6.784-6.784,6.784h-7.42v-56.18h7.844c4.452,0,6.36,1.908,6.36,6.148M432.779,447.639c5.936-2.332,9.328-7.208,9.328-16.748v-40.916c0-13.568-5.936-20.14-20.14-20.14h-27.136v148.4h16.536v-62.964h7.42c4.664,0,6.996,2.12,6.996,6.996v55.968h16.536v-56.392c0-8.056-2.968-12.296-9.54-14.204M373.314,518.235v-133.348h14.204v-15.052h-44.944v15.052h14.204v133.348h16.536ZM278.13,369.835v148.4h37.1v-15.052h-20.564v-52.788h19.504v-14.84h-19.504v-50.668h20.352v-15.052h-36.888ZM236.602,435.343v-65.508h-16.536v148.4h16.536v-67.628h15.9v67.628h16.748v-148.4h-16.748v65.508h-15.9ZM198.548,518.235v-133.348h14.204v-15.052h-44.944v15.052h14.204v133.348h16.536Z"/>
    <path class="st1" d="M449.689,317.297c2.318,0,4.028.19,4.826.988.418.418.532.912.532,1.444,0,.722-.228,1.178-.532,1.482-.798.798-2.508.912-4.788.912h-17.252v-4.826h17.214ZM432.475,332.649v-5.206h17.138c2.508,0,4.37.114,5.244.988.304.304.57.798.57,1.596,0,.57-.114,1.102-.57,1.558-.874.874-2.736,1.064-5.244,1.064h-17.138ZM425.331,338.235h23.636c7.714,0,10.564-1.254,12.312-3.002,1.292-1.292,1.672-2.888,1.672-4.484,0-3.534-2.166-5.282-6.422-6.042,4.408-.912,6.042-3.002,6.042-6.08,0-1.672-.418-3.116-1.634-4.332-1.786-1.786-4.37-2.66-11.704-2.66h-23.902v26.6ZM381.206,320.451c5.282-2.242,11.248-3.762,18.354-3.762,3.8,0,7.828.38,8.892,1.444.266.266.418.57.418,1.064,0,.418-.152.76-.38.988-.456.456-.874.722-7.334,1.444-16.796,1.824-21.774,6.118-22.458,16.606h36.974v-6.118l-27.93.114c.608-1.482,2.166-3.496,11.818-4.674,10.716-1.292,13.034-1.862,14.82-3.648.988-.988,1.672-2.546,1.672-4.788,0-2.128-.608-3.724-2.014-5.13-1.824-1.824-6.422-3.344-14.516-3.344-7.676,0-13.566,1.254-18.278,3.192l-.038,6.612ZM327.132,332.117v-20.482h-7.562v26.6h33.82v-6.118h-26.258ZM285.888,332.117v-20.482h-7.562v26.6h33.82v-6.118h-26.258ZM247.272,316.195l7.942,11.362h-15.922l7.98-11.362ZM223.484,338.235h8.36l3.61-5.168h23.636l3.61,5.168h8.74l-19.114-26.752h-9.728l-19.114,26.752ZM184.47,321.781v-10.146h-7.562v26.6h7.562v-10.412h24.586v10.412h7.562v-26.6h-7.562v10.146h-24.586Z"/>
  </g>
</svg>