<?xml version="1.0" encoding="UTF-8"?>
<svg id="Layer_1" xmlns="http://www.w3.org/2000/svg" width="1000" height="1000" xmlns:xlink="http://www.w3.org/1999/xlink" version="1.1" viewBox="0 0 1000 1000">
  <!-- Generator: Adobe Illustrator 29.5.0, SVG Export Plug-In . SVG Version: 2.1.0 Build 137)  -->
  <defs>
    <style>
      .st0 {
        fill: none;
      }

      .st1 {
        fill: #fff;
      }

      .st2 {
        clip-path: url(#clippath);
      }
    </style>
    <clipPath id="clippath">
      <rect class="st0" width="1000" height="1000"/>
    </clipPath>
  </defs>
  <g class="st2">
    <path class="st1" d="M737.321,698.235h18.02v-148.4h-14.84v67.204l.848,28.832-16.324-96.036h-19.292v148.4h14.84l-.212-69.748-.848-35.404,17.808,105.152ZM680.358,569.551v108.968c0,4.24-2.12,6.148-6.36,6.148h-3.392c-4.24,0-6.148-1.908-6.148-6.148v-108.968c0-4.452,1.908-6.36,6.148-6.36h3.392c4.24,0,6.36,1.908,6.36,6.36M696.894,679.155v-110.452c0-13.356-6.572-20.14-20.14-20.14h-8.904c-13.356,0-20.14,6.784-20.14,20.14v110.452c0,13.568,6.784,20.352,20.14,20.352h8.904c13.568,0,20.14-6.784,20.14-20.352M638.999,549.835h-16.536v148.4h16.536v-148.4ZM600.86,698.235v-133.348h14.204v-15.052h-44.944v15.052h14.204v133.348h16.536ZM544.661,580.575l7.208,80.348h-14.416l7.208-80.348ZM556.321,549.623h-22.048l-15.264,148.612h15.264l1.908-22.684h16.96l2.12,22.684h16.324l-15.264-148.612ZM494.949,570.823v43.248c0,4.664-2.12,6.784-6.784,6.784h-7.42v-56.18h7.844c4.452,0,6.36,1.908,6.36,6.148M502.157,627.639c5.936-2.332,9.328-7.208,9.328-16.748v-40.916c0-13.568-5.936-20.14-20.14-20.14h-27.136v148.4h16.536v-62.964h7.42c4.664,0,6.996,2.12,6.996,6.996v55.968h16.536v-56.392c0-8.056-2.968-12.296-9.54-14.204M455.265,549.835h-16.536v148.4h16.536v-148.4ZM413.82,570.823v49.608c0,4.24-1.908,6.36-6.148,6.36h-6.996v-62.328h6.996c4.24,0,6.148,1.908,6.148,6.36M400.676,641.419h9.752c13.356,0,20.14-6.784,20.14-20.14v-51.304c0-13.992-6.148-20.14-20.14-20.14h-26.288v148.4h16.536v-56.816ZM365.295,622.551l-15.264-12.084c-4.028-3.18-5.3-5.724-5.3-11.872v-29.044c0-4.24,1.908-6.36,6.148-6.36h2.12c4.24,0,5.936,2.12,5.936,6.36v37.312h16.536v-38.16c0-13.356-6.572-19.928-20.14-19.928h-6.996c-13.568,0-20.14,6.572-20.14,20.14v31.588c0,10.6,2.332,15.9,9.964,22.048l15.688,12.508c4.028,3.18,5.3,5.724,5.3,11.872v31.588c0,4.24-1.908,6.148-6.148,6.148h-2.332c-4.24,0-6.148-1.908-6.148-6.148v-39.856h-16.324v40.704c0,13.356,6.572,19.928,19.928,19.928h7.42c13.568,0,20.14-6.572,20.14-20.14v-34.344c0-10.6-2.12-15.9-10.388-22.26M301.633,698.235h18.02v-148.4h-14.84v67.204l.848,28.832-16.324-96.036h-19.292v148.4h14.84l-.212-69.748-.848-35.404,17.808,105.152ZM261.101,549.835h-16.536v148.4h16.536v-148.4Z"/>
    <path class="st1" d="M725.386,370.229v91.414h12.145v-40.484h13.712v-10.969h-13.712v-28.992h14.234v-10.969h-26.379ZM706.909,384.724v62.423c0,3.135-1.567,4.571-4.702,4.571h-2.481c-3.134,0-4.571-1.436-4.571-4.571v-62.423c0-3.134,1.437-4.57,4.571-4.57h2.481c3.135,0,4.702,1.436,4.702,4.57M718.923,447.67v-63.468c0-9.925-4.832-14.757-14.626-14.757h-6.53c-9.925,0-14.757,4.832-14.757,14.757v63.468c0,9.794,4.832,14.757,14.757,14.757h6.53c9.794,0,14.626-4.963,14.626-14.757M642.519,442.551l-15.264-12.084c-4.028-3.18-5.3-5.724-5.3-11.872v-29.044c0-4.24,1.908-6.36,6.148-6.36h2.12c4.24,0,5.936,2.12,5.936,6.36v37.312h16.536v-38.16c0-13.356-6.572-19.928-20.14-19.928h-6.996c-13.568,0-20.14,6.572-20.14,20.14v31.588c0,10.6,2.332,15.9,9.964,22.048l15.688,12.508c4.028,3.18,5.3,5.724,5.3,11.872v31.588c0,4.24-1.908,6.148-6.148,6.148h-2.332c-4.24,0-6.148-1.908-6.148-6.148v-39.856h-16.324v40.704c0,13.356,6.572,19.928,19.928,19.928h7.42c13.568,0,20.14-6.572,20.14-20.14v-34.344c0-10.6-2.12-15.9-10.388-22.26M596.813,369.835h-16.536v148.4h16.536v-148.4ZM561.347,442.551l-15.263-12.084c-4.029-3.18-5.3-5.724-5.3-11.872v-29.044c0-4.24,1.907-6.36,6.148-6.36h2.12c4.24,0,5.935,2.12,5.935,6.36v37.312h16.537v-38.16c0-13.356-6.573-19.928-20.141-19.928h-6.995c-13.568,0-20.14,6.572-20.14,20.14v31.588c0,10.6,2.332,15.9,9.963,22.048l15.688,12.508c4.029,3.18,5.301,5.724,5.301,11.872v31.588c0,4.24-1.908,6.148-6.148,6.148h-2.332c-4.24,0-6.149-1.908-6.149-6.148v-39.856h-16.323v40.704c0,13.356,6.572,19.928,19.927,19.928h7.421c13.568,0,20.14-6.572,20.14-20.14v-34.344c0-10.6-2.12-15.9-10.389-22.26M490.817,400.575l7.208,80.348h-14.416l7.208-80.348ZM502.477,369.623h-22.048l-15.264,148.612h15.264l1.908-22.684h16.96l2.12,22.684h16.324l-15.264-148.612ZM441.931,389.551v108.968c0,4.24-2.12,6.148-6.36,6.148h-3.392c-4.24,0-6.148-1.908-6.148-6.148v-108.968c0-4.452,1.908-6.36,6.148-6.36h3.392c4.24,0,6.36,1.908,6.36,6.36M458.467,499.155v-110.452c0-13.356-6.572-20.14-20.14-20.14h-8.904c-13.356,0-20.14,6.784-20.14,20.14v110.452c0,13.568,6.784,20.352,20.14,20.352h8.904c13.568,0,20.14-6.784,20.14-20.352M341.66,369.835v148.4h37.1v-15.052h-20.564v-52.788h19.504v-14.84h-19.504v-50.668h20.352v-15.052h-36.888ZM300.131,435.343v-65.508h-16.536v148.4h16.536v-67.628h15.9v67.628h16.748v-148.4h-16.748v65.508h-15.9ZM262.077,518.235v-133.348h14.204v-15.052h-44.944v15.052h14.204v133.348h16.536Z"/>
    <path class="st1" d="M509.498,316.195l7.942,11.362h-15.922l7.98-11.362ZM485.71,338.235h8.36l3.61-5.168h23.636l3.61,5.168h8.74l-19.114-26.752h-9.728l-19.114,26.752ZM462.888,339.223c8.55,0,13.642-.912,16.416-3.686,1.254-1.254,1.71-3.078,1.71-4.598,0-1.786-.722-3.192-1.558-4.028-1.064-1.064-2.432-1.748-4.636-2.166,2.014-.418,3.382-1.254,4.332-2.204,1.14-1.14,1.482-2.66,1.482-4.408,0-1.672-.57-3.04-1.748-4.218-2.128-2.128-6.764-3.268-15.998-3.268-6.688,0-14.44.836-17.784,2.128v6.46c3.8-1.71,11.552-2.698,17.784-2.698,5.016,0,8.398.304,9.69,1.596.342.342.532.76.532,1.368,0,.646-.19,1.102-.608,1.52-.95.95-3.8.912-8.284.912h-14.744v5.662h15.086c4.104,0,7.182.076,8.36,1.254.342.342.57.76.57,1.52,0,.608-.19,1.064-.57,1.444-1.216,1.216-4.294,1.52-10.032,1.52-6.346,0-13.908-1.102-17.86-2.698v6.08c3.42,1.33,11.172,2.508,17.86,2.508M392.132,332.117v-20.482h-7.562v26.6h33.82v-6.118h-26.258ZM350.888,332.117v-20.482h-7.562v26.6h33.82v-6.118h-26.258ZM312.272,316.195l7.942,11.362h-15.922l7.98-11.362ZM288.484,338.235h8.36l3.61-5.168h23.636l3.61,5.168h8.74l-19.114-26.752h-9.728l-19.114,26.752ZM249.47,321.781v-10.146h-7.562v26.6h7.562v-10.412h24.586v10.412h7.562v-26.6h-7.562v10.146h-24.586Z"/>
  </g>
</svg>