<?xml version="1.0" encoding="UTF-8"?>
<svg id="Layer_1" xmlns="http://www.w3.org/2000/svg" width="1000" height="1000" xmlns:xlink="http://www.w3.org/1999/xlink" version="1.1" viewBox="0 0 1000 1000">
  <!-- Generator: Adobe Illustrator 29.5.0, SVG Export Plug-In . SVG Version: 2.1.0 Build 137)  -->
  <defs>
    <style>
      .st0 {
        fill: none;
      }

      .st1 {
        fill: #fff;
      }

      .st2 {
        clip-path: url(#clippath);
      }
    </style>
    <clipPath id="clippath">
      <rect class="st0" width="1000" height="1000"/>
    </clipPath>
  </defs>
  <g class="st2">
    <path class="st1" d="M612.369,549.835h-15.9l-9.964,67.628-9.328-67.628h-17.172l17.808,95.612v52.788h16.748v-54.06l17.808-94.34ZM538.318,634.847v43.672c0,4.24-1.908,6.148-6.148,6.148h-3.816c-4.24,0-6.148-1.908-6.148-6.148v-108.968c0-4.24,1.908-6.148,6.148-6.148h3.392c4.24,0,6.148,1.908,6.148,6.148v35.404h16.536v-36.252c0-13.356-6.572-19.928-19.928-19.928h-8.904c-13.356,0-20.14,6.572-20.14,20.14v110.24c0,13.568,6.784,20.14,20.14,20.14h8.904c13.568,0,20.14-6.572,20.14-20.14v-58.724h-24.804v14.416h8.48ZM480.169,570.823v43.248c0,4.664-2.12,6.784-6.784,6.784h-7.42v-56.18h7.844c4.452,0,6.36,1.908,6.36,6.148M487.377,627.639c5.936-2.332,9.328-7.208,9.328-16.748v-40.916c0-13.568-5.936-20.14-20.14-20.14h-27.136v148.4h16.536v-62.964h7.42c4.664,0,6.996,2.12,6.996,6.996v55.968h16.536v-56.392c0-8.056-2.968-12.296-9.54-14.204M404.254,549.835v148.4h37.1v-15.052h-20.564v-52.788h19.504v-14.84h-19.504v-50.668h20.352v-15.052h-36.888ZM377.353,698.235h18.02v-148.4h-14.84v67.204l.848,28.832-16.324-96.036h-19.292v148.4h14.84l-.212-69.748-.848-35.404,17.808,105.152ZM300.59,549.835v148.4h37.1v-15.052h-20.564v-52.788h19.504v-14.84h-19.504v-50.668h20.352v-15.052h-36.888ZM245.036,550.229v91.414h12.145v-40.483h13.712v-10.97h-13.712v-28.991h14.234v-10.97h-26.379ZM226.559,564.725v62.423c0,3.134-1.568,4.57-4.702,4.57h-2.481c-3.134,0-4.571-1.436-4.571-4.57v-62.423c0-3.135,1.437-4.571,4.571-4.571h2.481c3.134,0,4.702,1.436,4.702,4.571M238.573,627.67v-63.468c0-9.925-4.832-14.757-14.626-14.757h-6.53c-9.925,0-14.757,4.832-14.757,14.757v63.468c0,9.794,4.832,14.757,14.757,14.757h6.53c9.794,0,14.626-4.963,14.626-14.757"/>
    <path class="st1" d="M781.971,390.823v43.248c0,4.664-2.12,6.784-6.784,6.784h-7.42v-56.18h7.844c4.452,0,6.36,1.908,6.36,6.148M789.179,447.639c5.936-2.332,9.328-7.208,9.328-16.748v-40.916c0-13.568-5.936-20.14-20.14-20.14h-27.136v148.4h16.536v-62.964h7.42c4.664,0,6.996,2.12,6.996,6.996v55.968h16.536v-56.392c0-8.056-2.968-12.296-9.54-14.204M706.056,369.835v148.4h37.1v-15.052h-20.564v-52.788h19.504v-14.84h-19.504v-50.668h20.352v-15.052h-36.888ZM684.538,518.235v-133.348h14.204v-15.052h-44.944v15.052h14.204v133.348h16.536ZM628.572,518.235h18.02v-148.4h-14.84v67.204l.848,28.832-16.324-96.036h-19.292v148.4h14.84l-.212-69.748-.848-35.404,17.808,105.152ZM551.809,369.835v148.4h37.1v-15.052h-20.564v-52.788h19.504v-14.84h-19.504v-50.668h20.352v-15.052h-36.888ZM526.943,455.271v43.248c0,4.452-1.909,6.36-6.149,6.36h-3.179c-4.24,0-6.148-1.908-6.148-6.36v-108.968c0-4.452,1.908-6.36,6.148-6.36h2.756c4.452,0,6.36,1.908,6.36,6.36v40.068h16.111v-41.128c0-13.356-6.36-19.928-19.928-19.928h-8.055c-13.356,0-20.14,6.784-20.14,20.14v110.664c0,13.356,6.784,20.14,20.14,20.14h8.268c13.568,0,20.14-6.784,20.14-20.14v-44.096h-16.324ZM486.007,369.835h-16.536v148.4h16.536v-148.4ZM444.562,390.823v49.608c0,4.24-1.908,6.36-6.148,6.36h-6.996v-62.328h6.996c4.24,0,6.148,1.908,6.148,6.36M431.418,461.419h9.752c13.356,0,20.14-6.784,20.14-20.14v-51.304c0-13.992-6.148-20.14-20.14-20.14h-26.288v148.4h16.536v-56.816ZM369.707,369.835v148.4h37.1v-15.052h-20.564v-52.788h19.504v-14.84h-19.504v-50.668h20.352v-15.052h-36.888ZM301.66,369.835v148.4h37.1v-15.052h-20.564v-52.788h19.504v-14.84h-19.504v-50.668h20.352v-15.052h-36.888ZM260.131,435.343v-65.508h-16.536v148.4h16.536v-67.628h15.9v67.628h16.748v-148.4h-16.748v65.508h-15.9ZM222.077,518.235v-133.348h14.204v-15.052h-44.944v15.052h14.204v133.348h16.536Z"/>
  </g>
  <path class="st1" d="M403.128,322.997l11.742-5.168v20.406h7.562v-26.676h-8.702l-10.602,4.446v6.992ZM352.132,332.117v-20.482h-7.562v26.6h33.82v-6.118h-26.258ZM310.888,332.117v-20.482h-7.562v26.6h33.82v-6.118h-26.258ZM272.272,316.195l7.942,11.362h-15.922l7.98-11.362ZM248.484,338.235h8.36l3.61-5.168h23.636l3.61,5.168h8.74l-19.114-26.752h-9.728l-19.114,26.752ZM209.47,321.781v-10.146h-7.562v26.6h7.562v-10.412h24.586v10.412h7.562v-26.6h-7.562v10.146h-24.586Z"/>
</svg>