<?xml version="1.0" encoding="UTF-8"?>
<svg id="Layer_1" xmlns="http://www.w3.org/2000/svg" width="1000" height="1000" xmlns:xlink="http://www.w3.org/1999/xlink" version="1.1" viewBox="0 0 1000 1000">
  <!-- Generator: Adobe Illustrator 29.5.0, SVG Export Plug-In . SVG Version: 2.1.0 Build 137)  -->
  <defs>
    <style>
      .st0 {
        fill: none;
      }

      .st1 {
        fill: #fff;
      }

      .st2 {
        clip-path: url(#clippath);
      }
    </style>
    <clipPath id="clippath">
      <rect class="st0" width="1000" height="1000"/>
    </clipPath>
  </defs>
  <g class="st2">
    <path class="st1" d="M751.829,570.823v43.248c0,4.664-2.12,6.784-6.784,6.784h-7.42v-56.18h7.844c4.452,0,6.36,1.908,6.36,6.148M759.037,627.639c5.936-2.332,9.328-7.208,9.328-16.748v-40.916c0-13.568-5.936-20.14-20.14-20.14h-27.136v148.4h16.536v-62.964h7.42c4.664,0,6.996,2.12,6.996,6.996v55.968h16.536v-56.392c0-8.056-2.968-12.296-9.54-14.204M675.914,549.835v148.4h37.1v-15.052h-20.564v-52.788h19.504v-14.84h-19.504v-50.668h20.352v-15.052h-36.888ZM654.397,698.235v-133.348h14.204v-15.052h-44.944v15.052h14.204v133.348h16.536ZM598.431,698.235h18.02v-148.4h-14.84v67.204l.848,28.832-16.324-96.036h-19.292v148.4h14.84l-.212-69.748-.848-35.404,17.808,105.152ZM521.668,549.835v148.4h37.1v-15.052h-20.564v-52.788h19.504v-14.84h-19.504v-50.668h20.352v-15.052h-36.888ZM496.801,635.271v43.248c0,4.452-1.908,6.36-6.148,6.36h-3.18c-4.24,0-6.148-1.908-6.148-6.36v-108.968c0-4.452,1.908-6.36,6.148-6.36h2.756c4.452,0,6.36,1.908,6.36,6.36v40.068h16.112v-41.128c0-13.356-6.36-19.928-19.928-19.928h-8.056c-13.356,0-20.14,6.784-20.14,20.14v110.664c0,13.356,6.784,20.14,20.14,20.14h8.268c13.568,0,20.14-6.784,20.14-20.14v-44.096h-16.324ZM455.866,549.835h-16.536v148.4h16.536v-148.4ZM414.421,570.823v49.608c0,4.24-1.908,6.36-6.148,6.36h-6.996v-62.328h6.996c4.24,0,6.148,1.908,6.148,6.36M401.277,641.419h9.752c13.356,0,20.14-6.784,20.14-20.14v-51.304c0-13.992-6.148-20.14-20.14-20.14h-26.288v148.4h16.536v-56.816ZM339.566,549.835v148.4h37.1v-15.052h-20.564v-52.788h19.504v-14.84h-19.504v-50.668h20.352v-15.052h-36.888ZM297.071,564.724v62.423c0,3.135-1.567,4.571-4.701,4.571h-2.481c-3.135,0-4.571-1.436-4.571-4.571v-62.423c0-3.134,1.436-4.57,4.571-4.57h2.481c3.134,0,4.701,1.436,4.701,4.57M309.086,627.67v-63.468c0-9.925-4.832-14.757-14.627-14.757h-6.529c-9.925,0-14.757,4.832-14.757,14.757v63.468c0,9.794,4.832,14.757,14.757,14.757h6.529c9.795,0,14.627-4.963,14.627-14.757M257.398,641.643v-80.445h10.709v-10.969h-33.432v10.969h10.578v80.445h12.145Z"/>
    <path class="st1" d="M576.485,435.343v-65.508h-16.536v148.4h16.536v-67.628h15.9v67.628h16.748v-148.4h-16.748v65.508h-15.9ZM538.431,518.235v-133.348h14.204v-15.052h-44.944v15.052h14.204v133.348h16.536ZM482.232,400.575l7.208,80.348h-14.416l7.208-80.348ZM493.892,369.623h-22.048l-15.264,148.612h15.264l1.908-22.684h16.96l2.12,22.684h16.324l-15.264-148.612ZM437.034,390.823v49.608c0,4.24-1.908,6.36-6.148,6.36h-6.996v-62.328h6.996c4.24,0,6.148,1.908,6.148,6.36M423.89,461.419h9.752c13.356,0,20.14-6.784,20.14-20.14v-51.304c0-13.992-6.148-20.14-20.14-20.14h-26.288v148.4h16.536v-56.816ZM339.307,369.835v148.4h37.1v-15.052h-20.564v-52.788h19.504v-14.84h-19.504v-50.668h20.352v-15.052h-36.888ZM297.778,435.343v-65.508h-16.536v148.4h16.536v-67.628h15.9v67.628h16.748v-148.4h-16.748v65.508h-15.9ZM259.724,518.235v-133.348h14.204v-15.052h-44.944v15.052h14.204v133.348h16.536Z"/>
  </g>
  <path class="st1" d="M489.694,316.195l7.942,11.362h-15.922l7.98-11.362ZM465.906,338.235h8.36l3.61-5.168h23.636l3.61,5.168h8.74l-19.114-26.752h-9.728l-19.114,26.752ZM439.128,322.997l11.742-5.168v20.406h7.562v-26.676h-8.702l-10.602,4.446v6.992ZM388.132,332.117v-20.482h-7.562v26.6h33.82v-6.118h-26.258ZM346.888,332.117v-20.482h-7.562v26.6h33.82v-6.118h-26.258ZM308.272,316.195l7.942,11.362h-15.922l7.98-11.362ZM284.484,338.235h8.36l3.61-5.168h23.636l3.61,5.168h8.74l-19.114-26.752h-9.728l-19.114,26.752ZM245.47,321.781v-10.146h-7.562v26.6h7.562v-10.412h24.586v10.412h7.562v-26.6h-7.562v10.146h-24.586Z"/>
</svg>