<?xml version="1.0" encoding="UTF-8"?>
<svg id="Layer_1" xmlns="http://www.w3.org/2000/svg" width="1000" height="1000" xmlns:xlink="http://www.w3.org/1999/xlink" version="1.1" viewBox="0 0 1000 1000">
  <!-- Generator: Adobe Illustrator 29.5.0, SVG Export Plug-In . SVG Version: 2.1.0 Build 137)  -->
  <defs>
    <style>
      .st0 {
        fill: none;
      }

      .st1 {
        fill: #fff;
      }

      .st2 {
        clip-path: url(#clippath);
      }
    </style>
    <clipPath id="clippath">
      <rect class="st0" width="1000" height="1000"/>
    </clipPath>
  </defs>
  <g class="st2">
    <path class="st1" d="M790.115,549.835h-15.9l-9.964,67.628-9.328-67.628h-17.172l17.808,95.612v52.788h16.748v-54.06l17.808-94.34ZM686.28,698.235h16.112l12.72-119.78-.636,63.6v56.18h16.324v-148.4h-24.804l-10.6,108.12-10.388-108.12h-24.804v148.4h14.204v-55.968l-.636-63.388,12.508,119.356ZM634.829,569.551v108.968c0,4.24-2.12,6.148-6.36,6.148h-3.392c-4.24,0-6.148-1.908-6.148-6.148v-108.968c0-4.452,1.908-6.36,6.148-6.36h3.392c4.24,0,6.36,1.908,6.36,6.36M651.365,679.155v-110.452c0-13.356-6.572-20.14-20.14-20.14h-8.904c-13.356,0-20.14,6.784-20.14,20.14v110.452c0,13.568,6.784,20.352,20.14,20.352h8.904c13.568,0,20.14-6.784,20.14-20.352M575.513,698.235h18.02v-148.4h-14.84v67.204l.848,28.832-16.324-96.036h-19.292v148.4h14.84l-.212-69.748-.848-35.404,17.808,105.152ZM518.55,569.551v108.968c0,4.24-2.12,6.148-6.36,6.148h-3.392c-4.24,0-6.148-1.908-6.148-6.148v-108.968c0-4.452,1.908-6.36,6.148-6.36h3.392c4.24,0,6.36,1.908,6.36,6.36M535.086,679.155v-110.452c0-13.356-6.572-20.14-20.14-20.14h-8.904c-13.356,0-20.14,6.784-20.14,20.14v110.452c0,13.568,6.784,20.352,20.14,20.352h8.904c13.568,0,20.14-6.784,20.14-20.352M460.613,570.823v43.248c0,4.664-2.12,6.784-6.784,6.784h-7.42v-56.18h7.844c4.452,0,6.36,1.908,6.36,6.148M467.821,627.639c5.936-2.332,9.328-7.208,9.328-16.748v-40.916c0-13.568-5.936-20.14-20.14-20.14h-27.136v148.4h16.536v-62.964h7.42c4.664,0,6.996,2.12,6.996,6.996v55.968h16.536v-56.392c0-8.056-2.968-12.296-9.54-14.204M408.355,698.235v-133.348h14.204v-15.052h-44.944v15.052h14.204v133.348h16.536ZM360.509,622.551l-15.264-12.084c-4.028-3.18-5.3-5.724-5.3-11.872v-29.044c0-4.24,1.908-6.36,6.148-6.36h2.12c4.24,0,5.936,2.12,5.936,6.36v37.312h16.536v-38.16c0-13.356-6.572-19.928-20.14-19.928h-6.996c-13.568,0-20.14,6.572-20.14,20.14v31.588c0,10.6,2.332,15.9,9.964,22.048l15.688,12.508c4.028,3.18,5.3,5.724,5.3,11.872v31.588c0,4.24-1.908,6.148-6.148,6.148h-2.332c-4.24,0-6.148-1.908-6.148-6.148v-39.856h-16.324v40.704c0,13.356,6.572,19.928,19.928,19.928h7.42c13.568,0,20.14-6.572,20.14-20.14v-34.344c0-10.6-2.12-15.9-10.388-22.26M289.978,580.575l7.208,80.348h-14.416l7.208-80.348ZM301.638,549.623h-22.048l-15.264,148.612h15.264l1.908-22.684h16.96l2.12,22.684h16.324l-15.264-148.612ZM241.495,634.847v43.672c0,4.24-1.908,6.148-6.148,6.148h-3.816c-4.24,0-6.148-1.908-6.148-6.148v-108.968c0-4.24,1.908-6.148,6.148-6.148h3.392c4.24,0,6.148,1.908,6.148,6.148v35.404h16.536v-36.252c0-13.356-6.572-19.928-19.928-19.928h-8.904c-13.356,0-20.14,6.572-20.14,20.14v110.24c0,13.568,6.784,20.14,20.14,20.14h8.904c13.568,0,20.14-6.572,20.14-20.14v-58.724h-24.804v14.416h8.48Z"/>
    <path class="st1" d="M654.391,370.229v91.414h12.145v-40.484h13.712v-10.969h-13.712v-28.992h14.234v-10.969h-26.379ZM635.914,384.724v62.423c0,3.135-1.567,4.571-4.702,4.571h-2.481c-3.134,0-4.571-1.436-4.571-4.571v-62.423c0-3.134,1.437-4.57,4.571-4.57h2.481c3.135,0,4.702,1.436,4.702,4.57M647.928,447.67v-63.468c0-9.925-4.832-14.757-14.626-14.757h-6.53c-9.925,0-14.757,4.832-14.757,14.757v63.468c0,9.794,4.832,14.757,14.757,14.757h6.53c9.794,0,14.626-4.963,14.626-14.757M545.66,369.835v148.4h37.1v-15.052h-20.564v-52.788h19.504v-14.84h-19.504v-50.668h20.352v-15.052h-36.888ZM518.759,518.235h18.02v-148.4h-14.839v67.204l.848,28.832-16.325-96.036h-19.291v148.4h14.839l-.212-69.748-.847-35.404,17.807,105.152ZM461.797,389.551v108.968c0,4.24-2.12,6.148-6.36,6.148h-3.392c-4.24,0-6.148-1.908-6.148-6.148v-108.968c0-4.452,1.908-6.36,6.148-6.36h3.392c4.24,0,6.36,1.908,6.36,6.36M478.333,499.155v-110.452c0-13.356-6.572-20.14-20.14-20.14h-8.904c-13.356,0-20.14,6.784-20.14,20.14v110.452c0,13.568,6.784,20.352,20.14,20.352h8.904c13.568,0,20.14-6.784,20.14-20.352M404.813,384.887l-23.108,117.024v16.324h39.856v-15.052h-23.744l23.32-117.024v-16.324h-39.008v15.052h22.684ZM315.778,369.835v148.4h37.1v-15.052h-20.564v-52.788h19.504v-14.84h-19.504v-50.668h20.352v-15.052h-36.888ZM274.249,435.343v-65.508h-16.536v148.4h16.536v-67.628h15.9v67.628h16.748v-148.4h-16.748v65.508h-15.9ZM236.195,518.235v-133.348h14.204v-15.052h-44.944v15.052h14.204v133.348h16.536Z"/>
    <path class="st1" d="M491.34,317.297c2.318,0,4.028.19,4.826.988.418.418.532.912.532,1.444,0,.722-.228,1.178-.532,1.482-.798.798-2.508.912-4.788.912h-17.252v-4.826h17.214ZM474.126,332.649v-5.206h17.138c2.508,0,4.37.114,5.244.988.304.304.57.798.57,1.596,0,.57-.114,1.102-.57,1.558-.874.874-2.736,1.064-5.244,1.064h-17.138ZM466.982,338.235h23.636c7.714,0,10.564-1.254,12.312-3.002,1.292-1.292,1.672-2.888,1.672-4.484,0-3.534-2.166-5.282-6.422-6.042,4.408-.912,6.042-3.002,6.042-6.08,0-1.672-.418-3.116-1.634-4.332-1.786-1.786-4.37-2.66-11.704-2.66h-23.902v26.6ZM426.972,327.367l15.922-11.058v11.058h-15.922ZM450.418,338.235v-5.662h9.044v-5.282h-9.044v-15.656h-11.21l-25.916,18.316v2.622h29.564v5.662h7.562ZM363.132,332.117v-20.482h-7.562v26.6h33.82v-6.118h-26.258ZM321.888,332.117v-20.482h-7.562v26.6h33.82v-6.118h-26.258ZM283.272,316.195l7.942,11.362h-15.922l7.98-11.362ZM259.484,338.235h8.36l3.61-5.168h23.636l3.61,5.168h8.74l-19.114-26.752h-9.728l-19.114,26.752ZM220.47,321.781v-10.146h-7.562v26.6h7.562v-10.412h24.586v10.412h7.562v-26.6h-7.562v10.146h-24.586Z"/>
  </g>
</svg>