<?xml version="1.0" encoding="UTF-8"?>
<svg id="Layer_1" xmlns="http://www.w3.org/2000/svg" width="1000" height="1000" xmlns:xlink="http://www.w3.org/1999/xlink" version="1.1" viewBox="0 0 1000 1000">
  <!-- Generator: Adobe Illustrator 29.5.0, SVG Export Plug-In . SVG Version: 2.1.0 Build 137)  -->
  <defs>
    <style>
      .st0 {
        fill: none;
      }

      .st1 {
        fill: #fff;
      }

      .st2 {
        clip-path: url(#clippath);
      }
    </style>
    <clipPath id="clippath">
      <rect class="st0" width="1000" height="1000"/>
    </clipPath>
  </defs>
  <g class="st2">
    <path class="st1" d="M718.092,549.835v148.4h37.1v-15.052h-20.564v-52.788h19.504v-14.84h-19.504v-50.668h20.352v-15.052h-36.888ZM693.12,634.847v43.672c0,4.24-1.908,6.148-6.148,6.148h-3.816c-4.24,0-6.148-1.908-6.148-6.148v-108.968c0-4.24,1.908-6.148,6.148-6.148h3.392c4.24,0,6.148,1.908,6.148,6.148v35.404h16.536v-36.252c0-13.356-6.572-19.928-19.928-19.928h-8.904c-13.356,0-20.14,6.572-20.14,20.14v110.24c0,13.568,6.784,20.14,20.14,20.14h8.904c13.568,0,20.14-6.572,20.14-20.14v-58.724h-24.804v14.416h8.48ZM619.601,564.463h6.148c6.36,0,9.328,3.18,9.328,9.54v100.064c0,6.36-2.968,9.54-9.328,9.54h-6.148v-119.144ZM603.065,698.235h25.016c15.9,0,23.532-7.632,23.532-23.744v-100.912c0-16.324-7.208-23.744-23.532-23.744h-25.016v148.4ZM557.89,549.835v148.4h37.1v-15.052h-20.564v-52.788h19.504v-14.84h-19.504v-50.668h20.352v-15.052h-36.888ZM516.063,549.835v148.4h34.132v-15.052h-17.596v-133.348h-16.536ZM476.696,549.835h-16.112l-8.48,108.12-7.42-108.12h-16.748l13.144,148.4h19.716l6.996-87.768,7.42,87.768h19.716l13.144-148.4h-15.264l-7.844,108.544-8.268-108.544ZM404.088,569.551v108.968c0,4.24-2.12,6.148-6.36,6.148h-3.392c-4.24,0-6.148-1.908-6.148-6.148v-108.968c0-4.452,1.908-6.36,6.148-6.36h3.392c4.24,0,6.36,1.908,6.36,6.36M420.624,679.155v-110.452c0-13.356-6.572-20.14-20.14-20.14h-8.904c-13.356,0-20.14,6.784-20.14,20.14v110.452c0,13.568,6.784,20.352,20.14,20.352h8.904c13.568,0,20.14-6.784,20.14-20.352M344.772,698.235h18.02v-148.4h-14.84v67.204l.848,28.832-16.324-96.036h-19.292v148.4h14.84l-.212-69.748-.848-35.404,17.808,105.152ZM305.725,698.235l-17.384-75.048,18.02-73.352h-17.172l-16.536,71.02v-71.02h-16.536v148.4h16.536v-71.868l15.476,71.868h17.596Z"/>
    <path class="st1" d="M656.826,370.229v91.414h12.145v-40.484h13.712v-10.969h-13.712v-28.992h14.235v-10.969h-26.38ZM638.349,384.724v62.423c0,3.135-1.567,4.571-4.701,4.571h-2.482c-3.134,0-4.57-1.436-4.57-4.571v-62.423c0-3.134,1.436-4.57,4.57-4.57h2.482c3.134,0,4.701,1.436,4.701,4.57M650.363,447.67v-63.468c0-9.925-4.832-14.757-14.626-14.757h-6.529c-9.926,0-14.757,4.832-14.757,14.757v63.468c0,9.794,4.831,14.757,14.757,14.757h6.529c9.794,0,14.626-4.963,14.626-14.757M552.971,450.183h7.632c4.664,0,6.784,2.12,6.784,6.784v40.492c0,4.24-1.908,6.36-6.36,6.36h-8.056v-53.636ZM567.175,390.611v38.584c0,4.452-2.332,6.784-6.784,6.784h-7.42v-51.728h7.844c4.24,0,6.36,2.12,6.36,6.36M574.383,442.551c5.936-2.332,9.328-7.208,9.328-16.536v-36.04c0-13.568-6.36-20.14-20.352-20.14h-26.712v148.4h27.136c13.356,0,20.14-6.784,20.14-20.14v-39.856c0-8.904-3.18-13.568-9.54-15.688M527.767,369.835h-16.536v128.472c0,4.24-1.908,6.36-6.36,6.36h-2.544c-4.452,0-6.36-2.12-6.36-6.36v-128.472h-16.536v129.108c0,13.568,6.572,20.352,20.14,20.352h8.056c13.568,0,20.14-6.784,20.14-20.352v-129.108ZM438.008,435.343v-65.508h-16.536v148.4h16.536v-67.628h15.9v67.628h16.748v-148.4h-16.748v65.508h-15.9ZM353.425,369.835v148.4h37.1v-15.052h-20.564v-52.788h19.504v-14.84h-19.504v-50.668h20.352v-15.052h-36.888ZM311.896,435.343v-65.508h-16.536v148.4h16.536v-67.628h15.9v67.628h16.748v-148.4h-16.748v65.508h-15.9ZM273.842,518.235v-133.348h14.204v-15.052h-44.944v15.052h14.204v133.348h16.536Z"/>
    <path class="st1" d="M649.314,315.359c-2.318,2.318-3.496,5.548-3.496,9.576s1.178,7.258,3.496,9.576c2.546,2.508,7.714,4.712,17.214,4.712,7.98,0,13.642-1.216,16.91-2.698v-6.384c-3.876,1.786-9.994,3.154-16.986,3.154-5.814,0-9.31-1.216-10.868-2.774-1.254-1.254-2.052-2.812-2.052-5.586,0-2.736.76-4.294,2.052-5.586,1.558-1.558,5.054-2.774,10.868-2.774,6.992,0,13.11,1.52,16.986,3.42v-6.65c-3.268-1.444-8.93-2.698-16.91-2.698-9.5,0-14.668,2.204-17.214,4.712M603.528,320.451c5.282-2.242,11.248-3.762,18.354-3.762,3.8,0,7.828.38,8.892,1.444.266.266.418.57.418,1.064,0,.418-.152.76-.38.988-.456.456-.874.722-7.334,1.444-16.796,1.824-21.774,6.118-22.458,16.606h36.974v-6.118l-27.93.114c.608-1.482,2.166-3.496,11.818-4.674,10.716-1.292,13.034-1.862,14.82-3.648.988-.988,1.672-2.546,1.672-4.788,0-2.128-.608-3.724-2.014-5.13-1.824-1.824-6.422-3.344-14.516-3.344-7.676,0-13.566,1.254-18.278,3.192l-.038,6.612ZM556.625,335.271c-2.736,0-4.902-.456-5.966-1.52-.76-.76-1.14-1.824-1.14-3.078,0-1.406.38-2.394,1.14-3.154,1.102-1.102,3.306-1.634,6.422-1.634,4.978,0,7.942.684,12.084,2.85l2.964,1.52c-4.864,2.85-9.538,5.016-15.504,5.016M545.149,330.939c0,2.014.608,3.914,1.976,5.282,1.672,1.672,4.522,2.584,9.082,2.584,6.498,0,12.046-2.128,19.304-6.384l.418-.266,12.008,6.08h6.764v-.114l-15.618-7.904c3.23-2.052,6.65-4.37,9.006-6.08v-4.294c-2.736,2.09-8.17,5.624-12.768,8.474l-12.35-6.308c-2.926-1.482-3.762-2.622-3.762-4.028,0-.722.19-1.482.722-1.976,1.178-1.178,3.838-1.596,8.056-1.596,3.914,0,7.22.456,10.602,1.178v-3.534c-3.192-.684-6.764-1.064-10.64-1.064-6.156,0-9.5.836-11.324,2.66-1.026,1.026-1.558,2.47-1.558,4.104,0,2.014.874,3.952,4.066,5.662-1.064-.152-2.166-.266-3.382-.266-3.61,0-6.764.646-8.626,2.508-1.33,1.33-1.976,3.04-1.976,5.282M515.962,316.195l7.942,11.362h-15.922l7.98-11.362ZM492.174,338.235h8.36l3.61-5.168h23.636l3.61,5.168h8.74l-19.114-26.752h-9.728l-19.114,26.752ZM451.206,320.451c5.282-2.242,11.248-3.762,18.354-3.762,3.8,0,7.828.38,8.892,1.444.266.266.418.57.418,1.064,0,.418-.152.76-.38.988-.456.456-.874.722-7.334,1.444-16.796,1.824-21.774,6.118-22.458,16.606h36.974v-6.118l-27.93.114c.608-1.482,2.166-3.496,11.818-4.674,10.716-1.292,13.034-1.862,14.82-3.648.988-.988,1.672-2.546,1.672-4.788,0-2.128-.608-3.724-2.014-5.13-1.824-1.824-6.422-3.344-14.516-3.344-7.676,0-13.566,1.254-18.278,3.192l-.038,6.612ZM397.132,332.117v-20.482h-7.562v26.6h33.82v-6.118h-26.258ZM355.888,332.117v-20.482h-7.562v26.6h33.82v-6.118h-26.258ZM317.272,316.195l7.942,11.362h-15.922l7.98-11.362ZM293.484,338.235h8.36l3.61-5.168h23.636l3.61,5.168h8.74l-19.114-26.752h-9.728l-19.114,26.752ZM254.47,321.781v-10.146h-7.562v26.6h7.562v-10.412h24.586v10.412h7.562v-26.6h-7.562v10.146h-24.586Z"/>
  </g>
</svg>