<?xml version="1.0" encoding="UTF-8"?>
<svg id="Layer_1" xmlns="http://www.w3.org/2000/svg" width="489" height="13" xmlns:xlink="http://www.w3.org/1999/xlink" version="1.1" viewBox="0 0 489 13">
  <!-- Generator: Adobe Illustrator 29.5.0, SVG Export Plug-In . SVG Version: 2.1.0 Build 137)  -->
  <defs>
    <style>
      .st0 {
        fill: none;
      }

      .st1 {
        fill: #85828e;
      }

      .st2 {
        clip-path: url(#clippath);
      }
    </style>
    <clipPath id="clippath">
      <rect class="st0" width="489" height="13"/>
    </clipPath>
  </defs>
  <g class="st2">
    <path class="st1" d="M486.55,7.394h-6.994v1.3h6.994v-1.3ZM478.598,11.57l4.284-9.913h.341l4.284,9.913h1.493l-4.966-11.375h-1.963l-4.965,11.375h1.492ZM474.266.195h-1.379v11.375h1.379V.195ZM461.187,5.265V1.495h4.219c.4,0,.755.081,1.063.244.309.162.546.384.714.666s.252.607.252.975-.084.696-.252.983-.405.509-.714.666c-.308.158-.663.236-1.063.236h-4.219ZM461.187,10.27v-3.77h4.414c.606,0,1.093.176,1.46.528.368.352.552.804.552,1.357,0,.368-.084.693-.251.975-.168.282-.403.504-.706.666-.303.163-.655.244-1.055.244h-4.414ZM465.617,11.57c.66,0,1.244-.138,1.753-.414.508-.277.906-.656,1.192-1.138.287-.482.43-1.021.43-1.617,0-.617-.173-1.151-.519-1.6-.346-.45-.736-.756-1.168-.918v-.082c.238-.108.473-.276.706-.504.232-.227.424-.506.576-.836.151-.331.227-.696.227-1.097,0-.596-.144-1.135-.43-1.617-.287-.482-.687-.861-1.201-1.138-.514-.276-1.095-.414-1.744-.414h-5.631v11.375h5.809ZM448.06,5.915V1.495h4.317c.432,0,.816.089,1.152.268.335.179.594.436.779.772.183.336.275.726.275,1.17s-.092.834-.275,1.17c-.185.336-.444.593-.779.772-.336.179-.72.268-1.152.268h-4.317ZM448.06,11.57v-4.355h1.234l5.062,4.355h1.883l-5.453-4.68v.325h1.591c.681,0,1.295-.149,1.841-.447s.974-.712,1.282-1.243c.309-.531.463-1.138.463-1.82s-.154-1.289-.463-1.82c-.308-.531-.736-.945-1.282-1.243-.546-.298-1.16-.447-1.841-.447h-5.696v11.375h1.379ZM442.949,11.57v-1.3h-6.945v-3.786h6.572v-1.3h-6.572V1.495h6.945V.195h-8.324v11.375h8.324ZM428.872,11.326c.698-.27,1.223-.65,1.574-1.137.352-.488.528-1.046.528-1.674,0-.574-.127-1.064-.381-1.471-.255-.406-.652-.744-1.193-1.015-.541-.271-1.244-.488-2.11-.65l-2.012-.374c-.789-.152-1.366-.366-1.728-.642s-.543-.647-.543-1.113c0-.596.256-1.064.77-1.406.514-.341,1.279-.512,2.296-.512.747,0,1.377.101,1.891.301.513.201.898.466,1.152.796.254.331.381.697.381,1.097h1.379c0-.671-.186-1.27-.559-1.795-.374-.526-.923-.94-1.647-1.244-.725-.303-1.591-.455-2.597-.455-.93,0-1.731.144-2.401.431-.671.287-1.179.674-1.525,1.162-.347.487-.52,1.029-.52,1.625,0,.552.125,1.024.374,1.414.248.39.611.712,1.087.967.476.254,1.065.452,1.768.593l2.369.455c.833.152,1.437.368,1.81.65.373.282.56.677.56,1.186,0,.585-.263,1.051-.787,1.397-.525.347-1.35.521-2.475.521-.801,0-1.471-.098-2.012-.293-.541-.195-.941-.46-1.201-.796-.259-.336-.389-.704-.389-1.105h-1.38c0,.672.19,1.27.568,1.795.379.526.944.94,1.696,1.243.752.304,1.658.455,2.718.455.995,0,1.842-.135,2.539-.406M411.518,12.919l.974-3.299h-1.964l-.405,3.299h1.395ZM399.17,5.752V1.869h4.008c.389,0,.735.078,1.038.235.303.158.536.382.698.675.162.292.243.639.243,1.04,0,.39-.081.731-.243,1.023-.162.293-.395.518-.698.675-.303.157-.649.235-1.038.235h-4.008ZM399.17,11.57v-4.128h1.055l4.64,4.128h2.402l-5.274-4.631-.097.455h1.46c.671,0,1.282-.149,1.834-.447.552-.298.987-.718,1.306-1.26.319-.541.479-1.159.479-1.852,0-.715-.162-1.346-.487-1.893-.324-.547-.771-.975-1.339-1.284s-1.209-.463-1.923-.463h-5.857v11.375h1.801ZM393.345.195h-1.801v11.375h1.801V.195ZM386.221,7.28h-6.945v1.641h6.945v-1.641ZM378.579,11.57l3.991-9.49h.357l3.976,9.49h1.947l-4.852-11.375h-2.515l-4.868,11.375h1.964ZM368.68,11.57v-4.875h6.102v-1.625h-6.102V1.853h6.524V.195h-8.325v11.375h1.801ZM357.63,11.57v-1.625h-6.734v-3.283h6.361v-1.625h-6.361V1.82h6.734V.195h-8.535v11.375h8.535ZM336.731,9.896V1.869h2.612c.833,0,1.59.17,2.272.512.681.341,1.217.815,1.606,1.421.39.607.584,1.301.584,2.081s-.194,1.473-.584,2.08c-.389.606-.925,1.08-1.606,1.421-.682.342-1.439.512-2.272.512h-2.612ZM339.327,11.57c1.19,0,2.263-.244,3.221-.731.957-.488,1.706-1.162,2.247-2.023.541-.862.811-1.839.811-2.933s-.27-2.072-.811-2.934c-.541-.861-1.29-1.535-2.247-2.023-.958-.487-2.031-.731-3.221-.731h-4.398v11.375h4.398ZM329.607,7.28h-6.945v1.641h6.945v-1.641ZM321.965,11.57l3.991-9.49h.357l3.976,9.49h1.947l-4.852-11.375h-2.515l-4.868,11.375h1.964ZM310.103,5.752V1.869h4.008c.389,0,.735.078,1.038.235.303.158.536.382.698.675.162.292.244.639.244,1.04,0,.39-.082.731-.244,1.023-.162.293-.395.518-.698.675s-.649.235-1.038.235h-4.008ZM310.103,11.57v-4.128h1.055l4.64,4.128h2.402l-5.274-4.631-.097.455h1.46c.671,0,1.282-.149,1.834-.447.552-.298.987-.718,1.306-1.26.319-.541.479-1.159.479-1.852,0-.715-.162-1.346-.487-1.893-.324-.547-.771-.975-1.339-1.284-.568-.309-1.208-.463-1.922-.463h-5.858v11.375h1.801ZM300.497,11.513c.552-.157,1.025-.366,1.42-.626.394-.26.732-.541,1.014-.845h.097l.162,1.528h1.396v-5.915h-5.501v1.397h4.316l-.665-.585v.423c0,.563-.176,1.089-.527,1.576-.352.488-.836.878-1.453,1.17-.616.293-1.303.439-2.06.439-.779,0-1.501-.176-2.167-.528-.665-.352-1.192-.845-1.582-1.479-.389-.634-.584-1.362-.584-2.185s.195-1.552.584-2.186c.39-.634.92-1.127,1.591-1.479.67-.352,1.406-.528,2.206-.528.822,0,1.566.182,2.232.544.665.363,1.198.87,1.598,1.52h1.931c-.238-.715-.639-1.357-1.201-1.926-.563-.569-1.236-1.013-2.02-1.332-.785-.32-1.631-.48-2.54-.48-1.125,0-2.161.244-3.107.731-.947.488-1.698,1.181-2.256,2.08-.557.9-.835,1.918-.835,3.056s.278,2.153.835,3.046c.558.894,1.304,1.588,2.24,2.08.935.493,1.96.74,3.075.74.649,0,1.249-.079,1.801-.236M290.875,11.57v-1.723h-6.442V.195h-1.801v11.375h8.243ZM279.046,11.57v-1.625h-6.734v-3.283h6.36v-1.625h-6.36V1.82h6.734V.195h-8.536v11.375h8.536ZM259.087,5.103V1.82h3.943c.346,0,.657.071.933.211.276.141.487.336.633.585.146.25.219.536.219.862,0,.314-.073.595-.219.845-.146.249-.357.441-.633.576-.276.136-.587.204-.933.204h-3.943ZM259.087,9.945v-3.283h4.154c.541,0,.971.152,1.29.456.319.303.479.693.479,1.169,0,.325-.073.613-.219.862s-.355.444-.625.585c-.27.141-.579.211-.925.211h-4.154ZM263.387,11.57c.671,0,1.266-.138,1.785-.414.519-.277.925-.656,1.217-1.138s.438-1.026.438-1.633c0-.596-.17-1.121-.511-1.576s-.722-.764-1.144-.926v-.082c.227-.108.454-.276.682-.504.227-.227.413-.503.559-.828s.219-.688.219-1.089c0-.607-.146-1.151-.438-1.633-.292-.482-.697-.861-1.217-1.138-.519-.276-1.114-.414-1.785-.414h-5.906v11.375h6.101ZM245.782,7.646c.324-.201.586-.461.786-.78.201-.32.301-.675.301-1.065s-.1-.744-.301-1.064c-.2-.32-.462-.58-.786-.78-.325-.2-.682-.301-1.071-.301s-.752.101-1.088.301c-.335.2-.595.46-.779.78-.184.32-.275.674-.275,1.064s.091.745.275,1.065c.184.319.444.579.779.78.336.2.698.3,1.088.3s.746-.1,1.071-.3M230.496,11.253c.703-.341,1.244-.807,1.623-1.397.378-.591.568-1.27.568-2.04,0-.725-.184-1.378-.552-1.958-.368-.579-.879-1.032-1.533-1.357-.655-.325-1.404-.487-2.248-.487-.443,0-.844.043-1.201.13s-.665.217-.924.39h-.082l.276-2.357h5.517V.195h-7.431l-.747,6.451h2.272c.238-.249.53-.439.876-.569.346-.129.752-.194,1.217-.194.487,0,.903.081,1.25.243.346.163.613.39.803.683.189.292.284.633.284,1.023,0,.369-.095.702-.284,1-.19.298-.466.531-.828.699-.362.168-.792.251-1.29.251-.389,0-.741-.059-1.055-.178-.313-.119-.576-.285-.787-.496-.21-.211-.354-.463-.43-.755h-2.239c.098.682.346,1.281.747,1.795.4.515.925.913,1.574,1.194.649.282,1.379.423,2.19.423.919,0,1.731-.171,2.434-.512M220.744,11.57v-2.031h-5.063v-.082l3.311-2.843c.367-.293.668-.577.9-.853.233-.277.408-.585.528-.927.119-.341.178-.733.178-1.178,0-.704-.184-1.332-.552-1.885-.367-.552-.879-.985-1.533-1.3-.655-.314-1.393-.471-2.215-.471-.844,0-1.593.168-2.247.504-.655.336-1.166.802-1.534,1.397-.368.596-.551,1.279-.551,2.048h2.239c0-.379.089-.712.268-1,.178-.287.427-.509.746-.666.319-.157.679-.236,1.079-.236s.757.071,1.071.212c.314.141.554.333.722.577.168.243.252.533.252.869,0,.325-.065.604-.195.837-.13.233-.346.479-.649.739l-5.404,4.42v1.869h8.649ZM200.778,9.238c-.612-.319-1.096-.769-1.453-1.349-.357-.579-.535-1.248-.535-2.006s.178-1.428.535-2.007c.357-.58.841-1.029,1.453-1.349.611-.32,1.295-.48,2.052-.48.747,0,1.425.16,2.037.48.611.32,1.095.769,1.452,1.349.357.579.535,1.248.535,2.007s-.178,1.427-.535,2.006c-.357.58-.841,1.03-1.452,1.349-.612.32-1.29.479-2.037.479-.757,0-1.441-.159-2.052-.479M205.986,11.026c.958-.493,1.715-1.187,2.272-2.08.557-.894.836-1.915.836-3.063s-.279-2.17-.836-3.064c-.557-.893-1.314-1.587-2.272-2.08-.957-.492-2.009-.739-3.156-.739s-2.199.247-3.156.739c-.957.493-1.717,1.187-2.28,2.08-.562.894-.844,1.915-.844,3.064s.282,2.169.844,3.063c.563.893,1.323,1.587,2.28,2.08s2.009.739,3.156.739,2.199-.246,3.156-.739M193.792,11.57v-2.031h-5.063v-.082l3.311-2.843c.367-.293.668-.577.9-.853.233-.277.408-.585.528-.927.119-.341.178-.733.178-1.178,0-.704-.184-1.332-.552-1.885-.367-.552-.879-.985-1.533-1.3-.655-.314-1.393-.471-2.215-.471-.844,0-1.593.168-2.247.504-.655.336-1.166.802-1.534,1.397-.368.596-.551,1.279-.551,2.048h2.239c0-.379.089-.712.268-1,.178-.287.427-.509.746-.666.319-.157.679-.236,1.079-.236s.757.071,1.071.212c.314.141.554.333.722.577.168.243.252.533.252.869,0,.325-.065.604-.195.837s-.346.479-.649.739l-5.404,4.42v1.869h8.649ZM175.099,13l1.071-3.786h-2.336l-.439,3.786h1.704ZM168.3,11.253c.703-.341,1.244-.807,1.623-1.397.379-.591.568-1.27.568-2.04,0-.725-.184-1.378-.552-1.958-.368-.579-.879-1.032-1.533-1.357-.655-.325-1.404-.487-2.247-.487-.444,0-.844.043-1.201.13-.357.087-.666.217-.925.39h-.081l.276-2.357h5.517V.195h-7.432l-.747,6.451h2.272c.238-.249.53-.439.876-.569.346-.129.752-.194,1.217-.194.487,0,.903.081,1.25.243.346.163.614.39.803.683.189.292.284.633.284,1.023,0,.369-.095.702-.284,1-.189.298-.465.531-.828.699-.362.168-.792.251-1.29.251-.389,0-.741-.059-1.054-.178-.314-.119-.576-.285-.787-.496-.211-.211-.355-.463-.43-.755h-2.24c.098.682.347,1.281.747,1.795.4.515.925.913,1.574,1.194.649.282,1.379.423,2.19.423.92,0,1.731-.171,2.434-.512M158.548,11.57v-2.031h-5.062v-.082l3.31-2.843c.368-.293.668-.577.901-.853.232-.277.408-.585.527-.927.119-.341.178-.733.178-1.178,0-.704-.184-1.332-.551-1.885-.368-.552-.879-.985-1.534-1.3-.654-.314-1.393-.471-2.215-.471-.843,0-1.593.168-2.247.504-.655.336-1.166.802-1.533,1.397-.368.596-.552,1.279-.552,2.048h2.239c0-.379.089-.712.268-1,.178-.287.427-.509.746-.666.319-.157.679-.236,1.079-.236s.757.071,1.071.212c.314.141.555.333.722.577.168.243.252.533.252.869,0,.325-.065.604-.195.837s-.346.479-.649.739l-5.403,4.42v1.869h8.648ZM147.303,4.859h-6.231v1.885h6.231v-1.885ZM138.363,11.57v-2.031h-5.063v-.082l3.31-2.843c.368-.293.668-.577.901-.853.232-.277.408-.585.527-.927.119-.341.179-.733.179-1.178,0-.704-.184-1.332-.552-1.885-.368-.552-.879-.985-1.533-1.3-.655-.314-1.393-.471-2.215-.471-.844,0-1.593.168-2.248.504-.654.336-1.165.802-1.533,1.397-.368.596-.552,1.279-.552,2.048h2.24c0-.379.089-.712.267-1,.179-.287.427-.509.747-.666.319-.157.678-.236,1.079-.236s.757.071,1.071.212c.313.141.554.333.722.577.167.243.251.533.251.869,0,.325-.065.604-.194.837-.13.233-.347.479-.649.739l-5.404,4.42v1.869h8.649ZM126.745,11.57v-2.031h-5.063v-.082l3.31-2.843c.368-.293.668-.577.901-.853.232-.277.408-.585.527-.927.119-.341.179-.733.179-1.178,0-.704-.184-1.332-.552-1.885-.368-.552-.879-.985-1.533-1.3-.655-.314-1.393-.471-2.215-.471-.844,0-1.593.168-2.248.504-.654.336-1.165.802-1.533,1.397-.368.596-.552,1.279-.552,2.048h2.239c0-.379.09-.712.268-1,.179-.287.427-.509.747-.666.319-.157.678-.236,1.079-.236s.757.071,1.071.212c.313.141.554.333.722.577.167.243.251.533.251.869,0,.325-.065.604-.194.837-.13.233-.347.479-.65.739l-5.403,4.42v1.869h8.649ZM101.366,5.606v-3.363h3.684c.357,0,.665.064.925.194.259.13.465.325.616.585.152.26.228.559.228.894,0,.347-.076.648-.228.902-.151.255-.357.45-.616.585-.26.136-.568.203-.925.203h-3.684ZM101.366,11.57v-3.933h.828l4.235,3.933h2.937l-5.095-4.583-.195.602h1.347c.66,0,1.266-.152,1.817-.455.552-.303.993-.732,1.323-1.284.33-.553.495-1.186.495-1.901,0-.726-.168-1.376-.503-1.95-.336-.574-.801-1.018-1.396-1.333-.595-.314-1.265-.471-2.012-.471h-6.02v11.375h2.239ZM95.687,11.57v-1.966h-6.507v-2.795h6.118v-1.918h-6.118v-2.73h6.507V.195h-8.746v11.375h8.746ZM75.794,4.956v-2.795h3.634c.325,0,.606.06.844.179.238.119.419.282.544.487.124.206.186.445.186.715,0,.293-.062.545-.186.756-.125.211-.306.374-.544.488-.238.113-.519.17-.844.17h-3.634ZM75.794,9.604v-2.795h3.861c.465,0,.839.13,1.12.39.281.26.422.601.422,1.023,0,.271-.062.51-.187.715-.124.206-.303.369-.535.488-.233.119-.506.179-.82.179h-3.861ZM79.931,11.57c.693,0,1.304-.135,1.834-.406.53-.271.941-.65,1.233-1.138.292-.487.438-1.04.438-1.657,0-.585-.17-1.102-.511-1.552-.341-.45-.717-.761-1.128-.934v-.082c.228-.108.452-.273.674-.495.221-.222.403-.499.543-.829.141-.33.211-.691.211-1.081,0-.617-.143-1.17-.43-1.657-.286-.488-.697-.867-1.233-1.138-.535-.27-1.144-.406-1.825-.406h-6.183v11.375h6.377ZM57.782,11.57V3.575h.39l3.423,7.995h2.061l3.456-7.995h.374v7.995h2.239V.195h-3.424l-3.489,8.109h-.373L58.967.195h-3.424v11.375h2.239ZM52.103,11.57v-1.966h-6.507v-2.795h6.117v-1.918h-6.117v-2.73h6.507V.195h-8.746v11.375h8.746ZM36.055,11.57L40.647.195h-2.466l-3.505,8.824h-.39L30.798.195h-2.499l4.608,11.375h3.148ZM18.198,9.238c-.612-.319-1.096-.769-1.453-1.349-.357-.579-.535-1.248-.535-2.006s.178-1.428.535-2.007c.357-.58.841-1.029,1.453-1.349.611-.32,1.295-.48,2.052-.48.747,0,1.425.16,2.037.48.611.32,1.095.769,1.452,1.349.357.579.536,1.248.536,2.007s-.179,1.427-.536,2.006c-.357.58-.841,1.03-1.452,1.349-.612.32-1.29.479-2.037.479-.757,0-1.441-.159-2.052-.479M23.406,11.026c.958-.493,1.715-1.187,2.272-2.08.557-.894.836-1.915.836-3.063s-.279-2.17-.836-3.064c-.557-.893-1.314-1.587-2.272-2.08-.957-.492-2.009-.739-3.156-.739s-2.198.247-3.156.739c-.957.493-1.717,1.187-2.28,2.08-.562.894-.843,1.915-.843,3.064s.281,2.169.843,3.063c.563.893,1.323,1.587,2.28,2.08.958.493,2.01.739,3.156.739s2.199-.246,3.156-.739M2.239,11.57V3.331h.389l5.096,8.239h2.937V.195h-2.223v8.239h-.39L2.937.195H0v11.375h2.239Z"/>
  </g>
</svg>