<?xml version="1.0" encoding="UTF-8"?>
<svg id="Layer_1" xmlns="http://www.w3.org/2000/svg" width="293" height="41" xmlns:xlink="http://www.w3.org/1999/xlink" version="1.1" viewBox="0 0 293 41">
  <!-- Generator: Adobe Illustrator 29.5.0, SVG Export Plug-In . SVG Version: 2.1.0 Build 137)  -->
  <defs>
    <style>
      .st0 {
        fill: none;
      }

      .st1 {
        fill: #85828e;
      }

      .st2 {
        clip-path: url(#clippath);
      }
    </style>
    <clipPath id="clippath">
      <rect class="st0" width="293" height="41"/>
    </clipPath>
  </defs>
  <g class="st2">
    <path class="st1" d="M280.595,28.48h-1.095v11.802h2.191v-.978h-1.096v-10.824ZM273.449,29.424c.287,0,.405.135.405.405v3.591c0,.287-.135.439-.438.439h-.472v-4.435h.505ZM272.944,34.786h.489c.32,0,.438.135.438.438v3.709c0,.27-.118.405-.405.405h-.522v-4.552ZM273.618,28.48h-1.753v11.802h1.787c.876,0,1.314-.438,1.314-1.315v-3.659c0-.59-.219-.876-.623-1.028.387-.152.606-.455.606-1.079v-3.406c0-.91-.387-1.315-1.331-1.315M34.63,36.673h-11.231c-1.172-5.181-2.137-12.225-2.137-15.112,0-1.416,1.17-2.513,2.896-3.717,3.963,3.468,10.324,9.153,10.472,18.829M24.242,15.543c-.737-.574-1.578-1.247-2.434-2.024,2.914-2.377,5.878-5.41,6.593-11.144h4.196c-.42,6.773-4.781,10.316-8.355,13.168M24.699,2.375c.011,4.116-2.022,7.331-4.313,9.755-2.29-2.424-4.324-5.639-4.312-9.755h8.625ZM12.371,2.375c.715,5.734,3.679,8.767,6.594,11.144-.856.777-1.698,1.45-2.435,2.024-3.574-2.852-7.934-6.395-8.354-13.168h4.195ZM17.935,16.676c.048-.043.096-.087.142-.129.696-.641,1.485-1.258,2.309-1.902.825.644,1.613,1.261,2.309,1.902.046.042.094.086.142.129-.993.823-1.854,1.613-2.451,2.443-.597-.83-1.458-1.62-2.451-2.443M16.614,17.844c1.727,1.204,2.897,2.301,2.897,3.717,0,2.887-.966,9.931-2.137,15.112H6.142c.148-9.676,6.51-15.361,10.472-18.829M25.814,16.742C30.257,13.85,36.55,9.819,37.986,0H2.787c1.436,9.819,7.729,13.85,12.171,16.742C9.794,20.598,1.712,26.298,0,40.282h40.772c-1.711-13.984-9.794-19.684-14.958-23.54M78.843,24.8c.703-2.872,1.379-7.102,3.131-11.331h-4.468c.039.159.037.399.034.678-.029,3.312-2.07,13.207-3.262,17.237h-.119c-1.796-4.509-3.963-12.13-5.083-16.359h-3.829c-1.721,5.187-4.586,13.566-5.807,16.359h-.12c-.81-3.152-1.691-7.342-2.535-11.132-.5-2.155-.724-3.871-.898-6.783h-6.303c2.468,9.735,4.387,18.354,6.228,26.813h3.47c1.552-4.11,4.616-12.369,6.612-17.197h.08c1.092,2.833,4.698,14.803,5.474,17.197h3.87c1.288-5.945,2.326-10.614,3.525-15.482M90.927,40.282c-.639-4.389-.687-8.02-.656-11.611.042-4.788.203-9.616.412-15.202h-6.542c.762,4.07.853,7.341.825,10.573l-.142,16.24h6.103ZM116.315,23.643c.032-3.71.218-6.743.647-10.174h-4.388c.878,4.588.695,11.85.652,16.758-.004.479-.008.838-.009.998h-.12c-3.351-4.469-8.552-11.851-12.689-17.756h-5.983c1.116,4.628.835,9.416.764,17.596-.025,2.833-.09,5.746-.719,9.217h3.75c-.106-1.596-.102-2.035-.096-2.713.049-5.666.058-11.252.107-16.918h.12c2.17,2.793,7.214,9.776,9.895,13.446,1.064,1.477,3.389,4.749,4.294,6.185h3.669c-.071-.998-.063-1.875-.056-2.673.01-1.197.059-2.195.068-3.192l.094-10.774ZM126.303,37.289c-.177-2.593-.218-7.022-.196-9.576h1.077c1.954,0,3.39.04,6.018.519l1.348-3.591h-8.416c.058-2.075.172-6.025.27-8.14,1.038-.04,1.676-.08,3.192-.08,1.955,0,4.266.28,6.934.759.41-1.237.899-2.474,1.309-3.711h-17.87c.762,4.07.853,7.341.825,10.573l-.142,16.24h16.474c.491-1.436,1.022-2.873,1.553-4.309-3.118.838-6.155,1.436-8.109,1.436-1.596,0-2.632-.08-4.267-.12M162.276,40.282c3.762-10.614,5.415-17.157,10.046-26.813h-4.388c-.511,3.79-5.497,17.436-7.13,21.746h-.12c-2.221-5.946-4.859-14.484-7.07-21.746h-6.501c4.187,9.217,7.178,18.434,10.137,26.813h5.026ZM181.317,40.282c-.64-4.389-.688-8.02-.657-11.611.042-4.788.204-9.616.412-15.202h-6.541c.762,4.07.853,7.341.825,10.573l-.142,16.24h6.103ZM189.705,19.135c.017-1.995,2.143-3.312,4.337-3.312,2.792,0,4.46.838,6.522,2.234.291-1.356.582-2.673.873-4.03-2.625-.878-4.975-1.277-7.568-1.277-4.747,0-8.882,3.113-8.924,7.941-.047,5.346,4.685,6.982,8.222,8.499,2.066.917,4.849,2.074,4.823,5.027-.024,2.673-2.307,3.751-4.899,3.751-3.55,0-5.254-1.277-7.313-3.033-.292,1.437-.584,2.873-.875,4.27,2.821,1.197,5.329,1.795,8.281,1.795,4.946,0,9.682-3.391,9.729-8.698.032-3.751-2.622-5.826-5.522-7.222-2.661-1.277-7.713-2.873-7.686-5.945M212.333,40.282c-.64-4.389-.688-8.02-.656-11.611.041-4.788.203-9.616.412-15.202h-6.542c.762,4.07.853,7.341.825,10.573l-.142,16.24h6.103ZM234.756,26.875c-.065,7.502-2.091,11.093-6.798,11.093-4.747,0-6.71-3.591-6.644-11.093.065-7.501,2.091-11.052,6.837-11.052,4.707,0,6.671,3.551,6.605,11.052M240.979,26.875c.078-8.977-3.786-14.125-12.801-14.125s-13.008,5.148-13.087,14.125c-.078,9.018,3.786,14.125,12.841,14.125s12.968-5.107,13.047-14.125M265.08,23.643c.032-3.71.218-6.743.647-10.174h-4.387c.877,4.588.694,11.85.651,16.758-.004.479-.007.838-.009.998h-.119c-3.352-4.469-8.553-11.851-12.689-17.756h-5.984c1.117,4.628.836,9.416.764,17.596-.024,2.833-.09,5.746-.718,9.217h3.749c-.106-1.596-.102-2.035-.096-2.713.05-5.666.058-11.252.108-16.918h.119c2.17,2.793,7.215,9.776,9.895,13.446,1.064,1.477,3.389,4.749,4.294,6.185h3.67c-.071-.998-.064-1.875-.057-2.673.011-1.197.059-2.195.068-3.192l.094-10.774ZM273.233,20.519c0,.115-.046.173-.172.173h-.242v-2.834h.242c.126,0,.172.058.172.173v2.488ZM273.222,16.879c0,.115-.058.173-.173.173h-.23v-2.765h.23c.115,0,.173.057.173.172v2.42ZM274.201,20.623v-2.592c0-.357-.127-.542-.415-.622.254-.104.403-.311.403-.726v-2.327c0-.599-.299-.899-.898-.899h-1.428v8.064h1.44c.598,0,.898-.299.898-.898M276.308,18.803l.818-5.346h-.921l-.346,3.675-.322-3.675h-1.014l.818,5.415v2.649h.967v-2.718ZM277.629,37.551h-.944l.472-6.609.472,6.609ZM277.831,40.282h1.062l-.977-11.818h-1.433l-.994,11.818h1.011l.118-1.787h1.079l.134,1.787ZM281.051,23.976c0,.287-.135.405-.405.405h-.236c-.269,0-.387-.118-.387-.405v-9.255c0-.287.118-.405.387-.405h.236c.27,0,.405.118.405.405v9.255ZM282.146,24.027v-9.357c0-.877-.438-1.315-1.314-1.315h-.59c-.877,0-1.315.438-1.315,1.315v9.357c0,.877.438,1.332,1.315,1.332h.59c.876,0,1.314-.455,1.314-1.332M283.41,28.48h-1.096v11.802h1.096v-5.682l.961,5.682h1.129l-1.079-5.968,1.146-5.834h-1.129l-1.028,5.631v-5.631ZM284.893,19.256c0,.27-.134.404-.404.404h-.455v-5.243h.455c.27,0,.404.118.404.405v4.434ZM285.989,19.306v-4.535c0-.927-.371-1.315-1.315-1.315h-1.736v11.802h1.096v-4.637h.64c.877,0,1.315-.438,1.315-1.315M286.68,25.258h2.427v-.978h-1.332v-4.502h1.264v-.977h-1.264v-4.367h1.315v-.978h-2.41v11.802ZM287.893,37.551h-.943l.471-6.609.472,6.609ZM288.096,40.282h1.061l-.977-11.818h-1.433l-.994,11.818h1.011l.118-1.787h1.079l.135,1.787ZM291.837,25.258h1.163v-11.802h-.961l.017,5.345.101,2.832-1.129-8.177h-1.264v11.802h.978l-.017-5.395-.101-3.322,1.213,8.717ZM293,40.282v-11.802h-.961l.017,5.345.101,2.832-1.129-8.177h-1.264v11.802h.978l-.017-5.395-.101-3.321,1.213,8.716h1.163Z"/>
  </g>
</svg>