<?xml version="1.0" encoding="UTF-8"?>
<svg id="medium_same_width" xmlns="http://www.w3.org/2000/svg" width="3in" height="3in" version="1.1" viewBox="0 0 216 216">
  <!-- Generator: Adobe Illustrator 29.5.0, SVG Export Plug-In . SVG Version: 2.1.0 Build 137)  -->
  <defs>
    <style>
      .st0 {
        fill: #fff;
      }

      .st1 {
        fill: #1434cb;
      }
    </style>
  </defs>
  <rect class="st0" x="9.013" y="9.028" width="198.002" height="198.002"/>
  <rect class="st1" x="9.013" y="108.029" width="198.002" height="99.001"/>
  <path class="st1" d="M87.891,36.71l-18.637,44.462h-12.158l-9.172-35.484c-.556-2.182-1.04-2.984-2.731-3.906-2.766-1.503-7.333-2.908-11.347-3.782l.271-1.29h19.573c2.493,0,4.736,1.659,5.306,4.531l4.845,25.73,11.966-30.261h12.084ZM135.53,66.656c.051-11.734-16.22-12.384-16.112-17.627.036-1.593,1.554-3.29,4.877-3.724,1.647-.213,6.192-.384,11.345,1.99l2.015-9.432c-2.768-1.001-6.329-1.965-10.759-1.965-11.371,0-19.371,6.04-19.435,14.696-.073,6.401,5.714,9.97,10.065,12.102,4.486,2.179,5.99,3.577,5.968,5.524-.031,2.983-3.578,4.304-6.879,4.353-5.787.09-9.14-1.564-11.814-2.81l-2.088,9.747c2.692,1.232,7.652,2.305,12.787,2.359,12.089,0,19.994-5.969,20.029-15.213M165.559,81.172h10.636l-9.292-44.462h-9.811c-2.212,0-4.075,1.282-4.9,3.259l-17.26,41.202h12.08l2.398-6.64h14.755l1.394,6.64ZM152.719,65.42l6.055-16.697,3.483,16.697h-9.539ZM104.327,36.71l-9.51,44.462h-11.503l9.511-44.462h11.502Z"/>
  <g>
    <path class="st0" d="M50.374,151.75c0-1.416.344-2.615,1.033-3.599.688-.983,1.627-1.726,2.817-2.228,1.189-.501,2.532-.752,4.026-.752,1.671,0,3.004.162,3.998.486.993.325,1.755.654,2.286.988l.266,3.718h-.088c-.492-.413-1.097-.777-1.814-1.092-.718-.314-1.48-.565-2.286-.752-.807-.188-1.604-.28-2.39-.28-1.239,0-2.242.201-3.009.605-.767.403-1.151,1.106-1.151,2.109,0,.767.182,1.367.546,1.799.364.434.91.787,1.637,1.063.728.275,1.632.561,2.714.855,1.022.275,1.981.556,2.877.841.895.285,1.676.659,2.345,1.121.668.462,1.195,1.072,1.578,1.829.384.757.575,1.726.575,2.905,0,2.282-.742,4.027-2.227,5.236-1.485,1.21-3.565,1.814-6.239,1.814-1.337,0-2.685-.183-4.042-.546s-2.459-.851-3.304-1.46l-.236-3.747h.088c.983.826,2.164,1.476,3.54,1.947,1.376.472,2.763.708,4.16.708,2.969,0,4.455-1.022,4.455-3.068,0-.727-.167-1.317-.501-1.77-.335-.452-.876-.831-1.623-1.136-.748-.305-1.721-.614-2.92-.93-.944-.255-1.839-.53-2.685-.825-.846-.296-1.603-.679-2.272-1.151-.669-.472-1.195-1.081-1.579-1.828-.383-.748-.575-1.701-.575-2.862Z"/>
    <path class="st0" d="M69.284,168.005v-22.42h14.455v3.245h-10.502v5.988h8.29v3.127h-8.29v6.815h10.502v3.245h-14.455Z"/>
    <path class="st0" d="M89.727,156.795c0,1.691.31,3.167.929,4.425.619,1.259,1.509,2.232,2.669,2.921,1.16.688,2.557,1.032,4.189,1.032,1.671,0,3.058-.251,4.16-.752,1.101-.502,2.065-1.155,2.891-1.962h.088l-.413,3.924c-.866.59-1.888,1.076-3.068,1.46s-2.557.575-4.13.575c-1.77,0-3.358-.3-4.764-.899-1.407-.601-2.606-1.426-3.599-2.479-.993-1.052-1.751-2.286-2.272-3.702-.521-1.416-.782-2.931-.782-4.543,0-1.632.26-3.151.782-4.558.521-1.406,1.278-2.636,2.272-3.688.993-1.052,2.188-1.878,3.584-2.479,1.397-.6,2.97-.899,4.72-.899,1.573,0,2.93.162,4.071.486,1.141.325,2.114.792,2.921,1.401l.413,4.013h-.088c-.826-.807-1.799-1.45-2.92-1.933-1.121-.481-2.429-.723-3.923-.723-1.633,0-3.024.344-4.174,1.032-1.15.688-2.031,1.662-2.64,2.921-.61,1.259-.915,2.733-.915,4.425Z"/>
    <path class="st0" d="M117.133,165.055c2.025,0,3.5-.438,4.425-1.313.924-.875,1.387-2.364,1.387-4.47v-13.688h3.304v13.895c0,3.147-.792,5.423-2.375,6.829-1.583,1.406-3.89,2.109-6.917,2.109-3.01,0-5.35-.698-7.022-2.095-1.672-1.397-2.507-3.677-2.507-6.844v-13.895h3.953v13.6c0,2.105.447,3.609,1.343,4.514.895.904,2.364,1.356,4.41,1.356Z"/>
    <path class="st0" d="M130.113,168.005v-22.42h9.47c1.475,0,2.748.295,3.82.885,1.071.59,1.893,1.401,2.463,2.434.57,1.033.855,2.198.855,3.496,0,1.534-.423,2.872-1.269,4.012-.846,1.141-1.996,1.898-3.451,2.272l5.753,9.322h-4.543l-5.192-8.791h-3.953v8.791h-3.953ZM138.521,148.712h-4.455v7.552h4.455c1.435,0,2.473-.31,3.111-.929.64-.62.959-1.568.959-2.847s-.319-2.228-.959-2.847c-.639-.62-1.677-.93-3.111-.93Z"/>
    <path class="st0" d="M150.704,168.005v-22.42h14.455v3.245h-10.502v5.988h8.29v3.127h-8.29v6.815h10.502v3.245h-14.455Z"/>
  </g>
</svg>