<?xml version="1.0" encoding="UTF-8"?>
<svg id="Layer_1" xmlns="http://www.w3.org/2000/svg" width="504.163" height="144" version="1.1" viewBox="0 0 504.163 144">
  <!-- Generator: Adobe Illustrator 29.5.0, SVG Export Plug-In . SVG Version: 2.1.0 Build 137)  -->
  <defs>
    <style>
      .st0 {
        fill: #f79e1b;
      }

      .st1 {
        fill: #eb001b;
      }

      .st2 {
        fill: #ff5f00;
      }
    </style>
  </defs>
  <g>
    <rect class="st2" x="78.495" y="43.697" width="31.5" height="56.606"/>
    <path class="st1" d="M80.495,72c0-11.484,5.377-21.712,13.75-28.303-6.123-4.821-13.85-7.697-22.248-7.697-19.881,0-35.997,16.118-35.997,36s16.117,36,35.997,36c8.398,0,16.124-2.876,22.248-7.697-8.373-6.592-13.75-16.819-13.75-28.303Z"/>
    <path class="st0" d="M152.49,72c0,19.882-16.117,36-35.997,36-8.398,0-16.124-2.876-22.248-7.697,8.373-6.592,13.75-16.819,13.75-28.303s-5.377-21.712-13.75-28.303c6.123-4.821,13.85-7.697,22.248-7.697,19.881,0,35.997,16.118,35.997,36Z"/>
    <path class="st0" d="M149.056,94.308v-1.159h.467v-.236h-1.19v.236h.467v1.159h.255ZM151.366,94.308v-1.397h-.365l-.42.961-.42-.961h-.365v1.397h.258v-1.054l.393.909h.267l.393-.911v1.056h.257Z"/>
  </g>
  <polygon points="189.157 108.202 187.824 108.202 187.824 96.055 187.824 71.759 187.824 47.463 187.824 35.316 189.157 35.316 189.157 59.611 189.157 83.907 189.157 108.202"/>
  <path d="M226.053,94.309h-3.741v-42.933h3.741v42.933ZM253.345,51.376c3.577,0,6.798.501,9.66,1.502,2.862,1.002,5.295,2.433,7.299,4.293,2.003,1.86,3.547,4.114,4.63,6.762,1.084,2.648,1.626,5.617,1.626,8.909s-.542,6.261-1.626,8.909c-1.083,2.648-2.627,4.902-4.63,6.762-2.004,1.86-4.437,3.292-7.299,4.293-2.862,1.002-6.083,1.502-9.66,1.502h-15.671v-42.933h15.671ZM241.416,54.933v35.819h11.93c3.128,0,5.888-.424,8.28-1.273,2.392-.848,4.405-2.049,6.041-3.603s2.872-3.435,3.711-5.643c.838-2.208,1.257-4.671,1.257-7.391s-.419-5.183-1.257-7.391c-.839-2.208-2.075-4.094-3.711-5.658s-3.649-2.765-6.041-3.604c-2.393-.838-5.152-1.257-8.28-1.257h-11.93ZM320.045,50.885c1.841,0,3.619.205,5.337.613,1.717.409,3.327.997,4.829,1.763,1.503.767,2.862,1.692,4.079,2.775,1.216,1.084,2.254,2.311,3.112,3.68l-3.128,2.085c-.735-1.124-1.609-2.136-2.622-3.036-1.012-.899-2.126-1.666-3.343-2.3-1.216-.633-2.524-1.119-3.925-1.457s-2.848-.506-4.34-.506c-2.556,0-4.932.44-7.13,1.318-2.197.879-4.109,2.126-5.734,3.742s-2.903,3.547-3.833,5.796c-.931,2.249-1.396,4.743-1.396,7.482s.465,5.234,1.396,7.483c.93,2.249,2.208,4.181,3.833,5.796,1.625,1.615,3.537,2.862,5.734,3.741,2.198.879,4.574,1.319,7.13,1.319,1.492,0,2.934-.164,4.324-.491,1.391-.327,2.693-.808,3.91-1.441,1.216-.633,2.331-1.4,3.343-2.3,1.012-.899,1.886-1.921,2.622-3.067l3.066,2.239c-.899,1.349-1.958,2.556-3.174,3.619-1.217,1.063-2.566,1.973-4.048,2.729-1.482.756-3.072,1.334-4.769,1.732-1.697.399-3.455.598-5.275.598-3.128,0-6.036-.542-8.725-1.625-2.688-1.083-5.014-2.591-6.977-4.523-1.962-1.932-3.501-4.242-4.615-6.931-1.114-2.688-1.671-5.647-1.671-8.878,0-3.209.557-6.164,1.671-8.862,1.114-2.699,2.653-5.014,4.615-6.946,1.963-1.932,4.288-3.439,6.977-4.523,2.688-1.083,5.597-1.625,8.725-1.625ZM348.902,70.45c.572-.94,1.242-1.758,2.009-2.453.767-.695,1.6-1.262,2.499-1.702.899-.439,1.841-.767,2.821-.981.981-.215,1.963-.322,2.944-.322,1.799,0,3.444.271,4.938.812,1.492.542,2.775,1.314,3.849,2.315,1.073,1.002,1.901,2.224,2.484,3.665.582,1.441.874,3.052.874,4.83v17.695h-3.496v-16.621c0-1.452-.205-2.76-.613-3.926-.409-1.165-1.013-2.151-1.81-2.959-.798-.808-1.769-1.426-2.913-1.855-1.146-.429-2.454-.644-3.926-.644-1.35,0-2.612.23-3.787.69-1.176.46-2.198,1.115-3.066,1.963-.87.849-1.555,1.86-2.055,3.036-.502,1.176-.752,2.469-.752,3.879v16.438h-3.496v-44.16h3.496v20.301ZM392.112,64.991c1.921,0,3.705.363,5.351,1.089s3.067,1.738,4.263,3.036c1.196,1.299,2.142,2.852,2.837,4.662.695,1.809,1.053,3.787,1.073,5.934,0,.266-.005.517-.015.751-.011.235-.026.465-.046.69h-24.196c.122,1.676.495,3.169,1.119,4.477.623,1.309,1.437,2.418,2.438,3.327,1.001.91,2.151,1.6,3.449,2.07,1.299.47,2.684.705,4.155.705,2.024,0,3.834-.368,5.429-1.104,1.595-.736,3.036-1.737,4.323-3.005l1.871,2.392c-.92.92-1.855,1.687-2.806,2.3-.951.613-1.922,1.104-2.914,1.472-.991.368-1.998.624-3.021.767s-2.055.215-3.097.215c-2.106,0-4.049-.363-5.827-1.089-1.778-.725-3.312-1.743-4.6-3.051-1.288-1.308-2.29-2.872-3.006-4.692-.716-1.819-1.073-3.833-1.073-6.042,0-2.167.363-4.165,1.089-5.995.726-1.83,1.728-3.404,3.005-4.723s2.791-2.346,4.539-3.082,3.634-1.104,5.658-1.104ZM392.051,68.088c-1.472,0-2.816.251-4.033.751-1.216.501-2.284,1.196-3.204,2.085s-1.672,1.947-2.254,3.174c-.583,1.227-.956,2.576-1.119,4.048h20.639c-.123-1.492-.46-2.857-1.013-4.094-.552-1.237-1.272-2.295-2.162-3.174-.889-.879-1.916-1.564-3.082-2.055-1.165-.491-2.422-.736-3.771-.736ZM425.752,64.991c2.146,0,4.135.383,5.965,1.15,1.829.767,3.389,1.876,4.677,3.328l-2.27,2.361c-1.124-1.125-2.387-1.998-3.787-2.622-1.4-.624-2.959-.936-4.677-.936-1.574,0-3.041.292-4.4.874-1.36.583-2.541,1.391-3.542,2.423-1.002,1.033-1.784,2.259-2.347,3.68-.562,1.421-.843,2.97-.843,4.646s.28,3.226.843,4.646c.562,1.421,1.345,2.643,2.347,3.665,1.001,1.022,2.182,1.825,3.542,2.407,1.359.583,2.826.874,4.4.874,1.718,0,3.297-.327,4.738-.981,1.441-.654,2.714-1.523,3.817-2.606l2.178,2.392c-1.309,1.452-2.873,2.561-4.692,3.327s-3.803,1.15-5.949,1.15c-2.167,0-4.155-.378-5.965-1.135-1.809-.756-3.368-1.799-4.677-3.128-1.309-1.329-2.325-2.898-3.051-4.707-.726-1.81-1.089-3.777-1.089-5.904s.363-4.099,1.089-5.918c.726-1.819,1.742-3.394,3.051-4.723,1.309-1.329,2.868-2.372,4.677-3.128,1.81-.756,3.798-1.135,5.965-1.135ZM446.911,77.626h4.692l12.144-12.175h4.416l-13.738,13.616,13.983,15.241h-4.446l-12.358-13.524h-4.692v13.524h-3.496v-44.16h3.496v27.478Z"/>
</svg>