<?xml version="1.0" encoding="UTF-8"?>
<svg id="Layer_1" xmlns="http://www.w3.org/2000/svg" width="340" height="169" version="1.1" viewBox="0 0 340 169">
  <!-- Generator: Adobe Illustrator 29.5.0, SVG Export Plug-In . SVG Version: 2.1.0 Build 137)  -->
  <defs>
    <style>
      .st0 {
        fill: #064b76;
      }

      .st0, .st1 {
        fill-rule: evenodd;
      }

      .st1 {
        fill: #c52f33;
      }
    </style>
  </defs>
  <path class="st1" d="M257.34,53.777c-9.503-20.148-29.571-32.296-52.341-32.296-28.848,0-55.653,19.376-65.119,46.133,11.238-32.716,41.644-54.695,74.367-54.695,25.83,0,48.593,13.78,59.986,36.427l-4.266,6.699-12.626-2.268h0ZM249.26,104.804c1.518-1.384,2.579-3.025,3.182-4.923.603-1.898,1.083-3.695,1.44-5.392l3.014-13.262c.357-1.429.58-2.534.669-3.315.09-.782.134-1.373.134-1.775s-.1-.905-.301-1.507c-.201-.603-.704-1.284-1.507-2.043h9.712c.938,0,1.831-.111,2.679-.334.848-.224,1.719-.558,2.612-1.005l-1.541,6.832c.447-.759,1.005-1.529,1.675-2.311.67-.781,1.429-1.484,2.277-2.11.848-.625,1.786-1.127,2.813-1.507,1.027-.38,2.144-.547,3.349-.503l1.54.067-2.21,10.047c-.759-.625-1.473-1.027-2.143-1.206-.67-.179-1.183-.268-1.54-.268-1.295,0-2.445.312-3.449.938-1.005.625-1.82,1.407-2.445,2.344-.357.491-.67,1.061-.938,1.708-.268.647-.513,1.306-.737,1.976-.223.67-.413,1.283-.569,1.842-.156.558-.257.994-.301,1.306l-.87,4.086c-.09.402-.19.882-.302,1.44-.111.558-.223,1.161-.334,1.808-.112.648-.212,1.273-.302,1.875-.09.603-.134,1.128-.134,1.574,0,.982.134,1.764.401,2.344.268.581.514,1.005.737,1.273h-16.611ZM29.03,97.839c.625.223,1.284.39,1.976.502.692.112,1.351.167,1.976.167,1.608,0,3.304-.446,5.09-1.339s3.438-2.311,4.957-4.253c1.518-1.942,2.78-4.421,3.784-7.435,1.005-3.014,1.507-6.642,1.507-10.884,0-2.724-.368-4.834-1.105-6.329-.737-1.496-1.607-2.59-2.612-3.282-1.005-.692-2.032-1.105-3.081-1.239-1.049-.134-1.864-.201-2.445-.201-.491,0-.859.011-1.105.033-.246.023-.703.123-1.373.302l-7.569,33.959h0ZM11.414,104.804c.982-.714,1.786-1.451,2.411-2.21.625-.759,1.139-1.574,1.541-2.445.402-.871.725-1.775.971-2.713.246-.938.48-1.92.703-2.947l5.827-26.256c.446-1.964.703-3.371.77-4.22s.101-1.406.101-1.674c0-.625-.123-1.295-.368-2.009-.246-.715-.77-1.518-1.574-2.412h20.496c2.724,0,5.146.212,7.267.636,2.121.424,4.052,1.217,5.794,2.378,2.366,1.608,4.063,3.728,5.09,6.363,1.027,2.635,1.541,5.604,1.541,8.909,0,2.322-.257,4.633-.77,6.933-.513,2.299-1.25,4.488-2.21,6.564s-2.166,4.019-3.617,5.827c-1.451,1.809-3.115,3.382-4.99,4.722-2.322,1.652-4.89,2.824-7.703,3.516-2.813.692-6.274,1.038-10.381,1.038H11.414ZM78.126,56.177c1.875,0,3.371.547,4.488,1.641,1.116,1.094,1.674,2.579,1.674,4.454,0,2.188-.669,3.974-2.009,5.358-1.34,1.384-3.037,2.076-5.09,2.076-2.009,0-3.595-.591-4.756-1.775-1.161-1.183-1.741-2.713-1.741-4.588,0-2.143.67-3.873,2.009-5.191,1.34-1.317,3.148-1.976,5.425-1.976h0ZM75.782,72.587c1.741,0,3.115-.167,4.119-.502,1.005-.335,1.753-.614,2.244-.837l-5.023,22.773c-.089.313-.19.759-.301,1.34-.112.58-.167,1.094-.167,1.54,0,.491.089.86.268,1.105.179.245.391.435.636.569.245.134.491.212.736.234.246.022.458.034.636.034.715,0,1.273-.067,1.675-.201.402-.134.714-.246.938-.335l-4.756,6.095c-1.294.625-2.433,1.005-3.416,1.139-.982.134-1.853.201-2.612.201-.625,0-1.306-.067-2.043-.201-.737-.134-1.418-.424-2.043-.871-.625-.446-1.15-1.083-1.574-1.909-.424-.826-.636-1.931-.636-3.315,0-1.027.089-1.942.268-2.746.179-.804.38-1.697.603-2.68l2.813-12.793c.045-.268.112-.603.201-1.005.089-.402.179-.849.268-1.34.089-.491.167-.971.234-1.44.067-.469.1-.904.1-1.306,0-.893-.223-1.641-.67-2.244-.446-.603-.804-1.038-1.072-1.306h8.573ZM81.877,104.804h16.611c-.224-.268-.469-.692-.737-1.273-.268-.58-.401-1.362-.401-2.344,0-.446.044-.971.134-1.574.089-.603.19-1.228.302-1.875.111-.647.223-1.25.334-1.808.112-.558.212-1.038.302-1.44l1.54-7.434c.491-2.278,1.15-4.097,1.976-5.459.826-1.362,2.132-2.043,3.918-2.043.179,0,.436.022.77.067.335.044.659.167.971.368.312.201.591.502.837.904.245.402.368.982.368,1.742,0,.268-.022.558-.067.871-.044.312-.111.58-.201.804l-2.344,10.315c-.223.937-.424,1.752-.603,2.445-.179.692-.268,1.418-.268,2.176,0,.67.101,1.396.301,2.177.201.782.569,1.484,1.105,2.11.536.625,1.273,1.15,2.21,1.574.938.424,2.143.636,3.617.636,1.295,0,2.411-.134,3.349-.402.938-.268,1.764-.581,2.478-.938l4.755-6.162c-.357.134-.837.268-1.44.402-.602.134-1.172.201-1.708.201-.938,0-1.529-.246-1.775-.737-.246-.491-.369-.96-.369-1.406,0-.134.012-.413.034-.838.022-.424.145-1.06.368-1.909l2.009-9.176c.357-1.518.569-2.668.636-3.449.067-.781.1-1.351.1-1.708,0-1.206-.234-2.288-.703-3.249-.469-.96-1.116-1.797-1.942-2.512-.826-.714-1.786-1.262-2.88-1.641-1.094-.38-2.267-.57-3.517-.57-.357,0-.859.034-1.507.101s-1.407.256-2.277.569c-.871.312-1.808.793-2.813,1.44-1.005.647-2.02,1.551-3.048,2.713l1.206-5.224c-.893.446-1.764.781-2.612,1.005-.848.223-1.741.334-2.679.334h-9.712c.804.759,1.306,1.44,1.507,2.043.201.602.302,1.105.302,1.507s-.044.993-.134,1.775c-.089.781-.312,1.886-.669,3.315l-3.014,13.262c-.357,1.697-.837,3.494-1.44,5.392-.603,1.898-1.664,3.539-3.182,4.923h0ZM142.159,105.139c-.491.134-1.061.268-1.708.402-.648.134-1.418.201-2.311.201-1.474,0-2.903-.223-4.287-.669-1.385-.447-2.624-1.139-3.718-2.077-1.094-.937-1.965-2.166-2.612-3.684-.648-1.518-.971-3.349-.971-5.492,0-1.339.134-2.746.402-4.22.268-1.473.692-2.947,1.273-4.42.58-1.473,1.351-2.914,2.31-4.32.96-1.407,2.11-2.712,3.45-3.918.804-.714,1.685-1.395,2.646-2.043.96-.648,2.054-1.206,3.282-1.675,1.228-.468,2.59-.848,4.086-1.139,1.496-.29,3.181-.435,5.057-.435.938,0,1.82.045,2.646.134.826.089,1.619.179,2.378.268.937.089,1.763.178,2.478.268.715.089,1.429.134,2.144.134.893,0,1.853-.078,2.88-.234,1.027-.156,2.121-.547,3.282-1.172l-5.023,22.907c-.089.402-.19.848-.301,1.34-.111.491-.167.982-.167,1.474,0,.58.156,1.072.469,1.473.313.402.915.603,1.808.603.491,0,1.005-.056,1.541-.168.536-.111,1.049-.257,1.541-.435l-4.756,6.162c-1.027.536-2.02.893-2.981,1.072-.96.179-1.886.268-2.779.268-.491,0-1.15-.044-1.976-.134-.826-.089-1.63-.357-2.411-.804-.781-.446-1.451-1.128-2.009-2.043-.558-.915-.837-2.199-.837-3.851,0-.313.023-.603.067-.871.044-.268.101-.581.168-.938.067-.357.156-.782.267-1.272.112-.491.257-1.116.436-1.875l3.416-15.204c-.357-.224-.826-.458-1.407-.703-.58-.246-1.206-.368-1.875-.368-1.205,0-2.367.48-3.483,1.44-1.117.96-2.088,2.188-2.914,3.683-.826,1.496-1.484,3.171-1.976,5.024-.491,1.853-.736,3.673-.736,5.459,0,2.099.558,3.606,1.674,4.521,1.116.916,2.434,1.373,3.952,1.373.223,0,.413-.011.569-.033.156-.022.301-.056.435-.1l-3.416,6.095Z"/>
  <path class="st0" d="M159.775,115.72c9.503,20.148,29.571,32.296,52.342,32.296,28.848,0,55.653-19.376,65.119-46.133-11.239,32.716-41.645,54.694-74.368,54.694-25.83,0-48.593-13.78-59.986-36.427l4.262-6.699,12.63,2.268h0ZM315.637,57.918c.759,0,1.664-.111,2.712-.335,1.049-.223,1.887-.536,2.512-.937l-8.239,37.308c-.223.893-.357,1.552-.402,1.976-.044.424-.067.704-.067.838,0,.491.089.87.268,1.138.178.268.379.469.603.603.223.134.468.223.737.268.268.044.513.067.736.067.357,0,.793-.034,1.306-.101.514-.067,1.172-.235,1.976-.503l-4.823,6.162c-1.206.625-2.299,1.005-3.282,1.139-.982.134-1.786.201-2.411.201-1.563,0-2.813-.201-3.75-.602-.938-.402-1.664-.916-2.177-1.541-.514-.625-.849-1.306-1.005-2.043-.156-.737-.234-1.44-.234-2.11,0-.804.078-1.596.234-2.378.156-.782.368-1.82.636-3.115l3.282-15.071c-.67-.536-1.273-.87-1.808-1.005-.536-.134-.982-.2-1.34-.2-1.206,0-2.344.48-3.416,1.44-1.071.96-2.009,2.188-2.813,3.683-.804,1.496-1.429,3.182-1.875,5.057-.447,1.875-.67,3.706-.67,5.492,0,.491.045,1.06.134,1.708.089.648.313,1.284.67,1.909.357.625.871,1.15,1.541,1.574.67.424,1.607.636,2.813.636.268,0,.491-.011.67-.033.179-.022.357-.056.536-.1l-3.549,6.229c-1.295.313-2.657.468-4.086.468-.58,0-1.507-.089-2.779-.268-1.273-.178-2.545-.658-3.818-1.44-1.273-.782-2.389-1.987-3.349-3.617-.96-1.63-1.44-3.896-1.44-6.799,0-3.171.647-6.252,1.942-9.243,1.295-2.992,3.126-5.559,5.492-7.703,2.322-2.098,4.633-3.46,6.932-4.086,2.3-.625,4.611-.938,6.932-.938.893,0,1.63.022,2.21.067.581.045,1.451.179,2.612.402l1.272-5.56c.357-1.429.569-2.478.636-3.148.067-.67.101-1.117.101-1.34,0-.581-.089-1.228-.268-1.942-.179-.715-.692-1.451-1.541-2.211h9.645ZM226.822,105.139l3.416-6.095c-.134.045-.279.078-.435.1-.156.022-.346.033-.569.033-1.518,0-2.836-.458-3.952-1.373-1.116-.915-1.674-2.422-1.674-4.521,0-1.786.245-3.606.737-5.459.491-1.853,1.15-3.527,1.976-5.024.826-1.496,1.797-2.724,2.914-3.683,1.116-.96,2.277-1.44,3.483-1.44.67,0,1.295.122,1.876.368.58.245,1.049.48,1.406.703l-3.416,15.204c-.179.759-.324,1.384-.436,1.875-.111.491-.201.915-.268,1.272-.067.357-.123.67-.167.938-.045.268-.067.558-.067.871,0,1.652.279,2.936.837,3.851.558.915,1.228,1.596,2.009,2.043.781.446,1.585.715,2.411.804.826.089,1.484.134,1.976.134.893,0,1.82-.089,2.78-.268.96-.178,1.954-.536,2.981-1.072l4.756-6.162c-.491.179-1.005.324-1.541.435-.536.112-1.05.168-1.541.168-.893,0-1.496-.201-1.808-.603-.312-.401-.469-.893-.469-1.473,0-.492.056-.982.167-1.474.112-.491.212-.938.301-1.34l5.024-22.907c-1.161.625-2.255,1.016-3.282,1.172-1.027.156-1.987.234-2.881.234-.714,0-1.429-.045-2.143-.134-.714-.09-1.54-.179-2.478-.268-.759-.089-1.552-.179-2.378-.268-.826-.089-1.708-.134-2.646-.134-1.875,0-3.561.145-5.057.435-1.496.29-2.858.67-4.085,1.139-1.228.469-2.322,1.027-3.282,1.675-.96.647-1.842,1.328-2.645,2.043-1.34,1.206-2.49,2.512-3.45,3.918-.96,1.407-1.73,2.847-2.31,4.32-.581,1.474-1.005,2.947-1.273,4.42-.268,1.474-.402,2.88-.402,4.22,0,2.143.323,3.974.971,5.492s1.518,2.746,2.612,3.684c1.094.938,2.333,1.63,3.717,2.077,1.384.446,2.813.669,4.287.669.893,0,1.663-.067,2.31-.201.648-.134,1.217-.268,1.708-.402h0ZM202.575,103.197l5.024-9.043c-1.831,1.161-3.494,2.054-4.99,2.679-1.496.625-2.813,1.094-3.952,1.407-1.139.313-2.088.491-2.847.536-.759.044-1.317.067-1.675.067-1.786,0-3.304-.268-4.554-.804-1.251-.535-2.299-1.239-3.148-2.11-.848-.871-1.507-1.831-1.976-2.88-.469-1.05-.815-2.076-1.038-3.082-.223-1.005-.368-1.931-.435-2.779-.067-.848-.1-1.496-.1-1.943,0-3.349.446-6.341,1.34-8.975.893-2.635,2.077-4.867,3.55-6.698,1.474-1.831,3.17-3.238,5.091-4.22,1.92-.982,3.885-1.473,5.894-1.473.312,0,.837.033,1.574.1.736.067,1.574.257,2.512.569.937.312,1.92.793,2.947,1.44,1.027.648,1.987,1.574,2.88,2.78l1.139-9.913c-2.233-.759-4.287-1.261-6.162-1.507-1.875-.246-3.639-.369-5.291-.369-3.349,0-6.709.458-10.08,1.373-3.371.915-6.553,2.69-9.544,5.325-1.563,1.384-2.936,2.947-4.12,4.688-1.183,1.742-2.166,3.583-2.947,5.526-.781,1.942-1.362,3.929-1.742,5.961-.379,2.032-.569,4.03-.569,5.995,0,2.501.379,4.945,1.138,7.334.759,2.389,1.965,4.51,3.617,6.363,1.652,1.853,3.807,3.349,6.464,4.488,2.657,1.139,5.905,1.708,9.745,1.708,1.875,0,3.84-.167,5.894-.502,2.054-.335,4.175-1.016,6.363-2.043Z"/>
</svg>