<?xml version="1.0" encoding="UTF-8"?>
<svg id="Layer_1" xmlns="http://www.w3.org/2000/svg" width="181.561" height="59.09" xmlns:xlink="http://www.w3.org/1999/xlink" version="1.1" viewBox="0 0 181.561 59.09">
  <!-- Generator: Adobe Illustrator 29.5.0, SVG Export Plug-In . SVG Version: 2.1.0 Build 137)  -->
  <defs>
    <style>
      .st0 {
        fill: none;
      }

      .st1 {
        fill: #85828e;
      }

      .st2 {
        clip-path: url(#clippath);
      }
    </style>
    <clipPath id="clippath">
      <rect class="st0" y="0" width="181.561" height="59.09"/>
    </clipPath>
  </defs>
  <g class="st2">
    <path class="st1" d="M160.344,33.737c1.028,4.262.769,8.671.703,16.204-.023,2.608-.083,5.291-.662,8.487h3.454c-.097-1.469-.094-1.874-.088-2.498.045-5.218.053-10.362.099-15.579h.11c1.998,2.572,6.645,9.002,9.114,12.382.981,1.36,3.122,4.373,3.956,5.695h3.38c-.065-.918-.058-1.727-.052-2.461.01-1.103.054-2.021.062-2.94l.087-9.92c.03-3.418.201-6.21.596-9.37h-4.041c.808,4.226.639,10.913.6,15.432-.004.441-.007.772-.008.919h-.111c-3.087-4.116-7.878-10.913-11.688-16.351h-5.511ZM167.765,15.452v12.056h2.239v-.999h-1.119v-11.057h-1.12ZM161.582,16.416c.293,0,.414.138.414.414v3.668c0,.293-.138.448-.448.448h-.482v-4.53h.516ZM161.066,21.893h.499c.327,0,.448.138.448.448v3.789c0,.276-.121.413-.413.413h-.534v-4.65ZM161.755,15.452h-1.792v12.056h1.826c.896,0,1.344-.448,1.344-1.343v-3.738c0-.603-.224-.895-.638-1.05.396-.155.62-.465.62-1.103v-3.479c0-.93-.396-1.343-1.36-1.343M124.658,33.737c.702,3.748.786,6.761.76,9.737l-.131,14.954h5.622c-.589-4.041-.634-7.385-.605-10.692.039-4.409.188-8.855.38-13.999h-6.026ZM105.882,53.505c-.269,1.323-.538,2.645-.806,3.931,2.599,1.103,4.909,1.654,7.628,1.654,4.556,0,8.919-3.123,8.961-8.01.03-3.454-2.415-5.365-5.086-6.651-2.451-1.175-7.105-2.645-7.08-5.474.016-1.838,1.974-3.05,3.995-3.05,2.572,0,4.108.772,6.008,2.058.268-1.25.536-2.462.804-3.711-2.418-.809-4.583-1.176-6.971-1.176-4.373,0-8.182,2.866-8.221,7.312-.043,4.923,4.316,6.43,7.574,7.826,1.904.845,4.466,1.91,4.443,4.629-.022,2.462-2.125,3.454-4.513,3.454-3.27,0-4.84-1.176-6.736-2.792M95.214,33.737c.702,3.748.786,6.761.76,9.737l-.13,14.954h5.621c-.589-4.041-.634-7.385-.605-10.692.039-4.409.188-8.855.38-13.999h-6.026ZM75.698,33.737h-5.989c3.857,8.488,6.612,16.975,9.338,24.691h4.629c3.466-9.773,4.988-15.799,9.254-24.691h-4.041c-.472,3.491-5.064,16.057-6.568,20.025h-.111c-2.046-5.475-4.476-13.338-6.512-20.025M50.147,53.205h-16.265c-1.695-7.501-3.094-17.698-3.094-21.877,0-2.05,1.695-3.639,4.195-5.38,5.737,5.019,14.949,13.249,15.164,27.257M35.104,22.616c-1.067-.831-2.285-1.805-3.525-2.93,4.22-3.441,8.512-7.831,9.548-16.132h6.075c-.608,9.804-6.923,14.934-12.098,19.062M35.765,3.554c.017,5.959-2.928,10.612-6.245,14.121-3.316-3.509-6.261-8.162-6.244-14.121h12.489ZM17.914,3.554c1.036,8.301,5.327,12.691,9.548,16.132-1.24,1.125-2.458,2.099-3.525,2.93-5.175-4.128-11.49-9.258-12.098-19.062h6.075ZM25.972,24.257c.069-.063.138-.126.205-.188,1.008-.927,2.15-1.82,3.343-2.753,1.194.933,2.336,1.826,3.344,2.753.067.062.136.125.205.188-1.437,1.19-2.684,2.334-3.549,3.535-.864-1.201-2.111-2.345-3.548-3.535M24.058,25.948c2.5,1.741,4.194,3.33,4.194,5.38,0,4.179-1.398,14.376-3.094,21.877H8.894c.214-14.008,9.427-22.238,15.164-27.257M37.381,24.352c6.432-4.186,15.545-10.023,17.625-24.236H4.035c2.08,14.213,11.192,20.05,17.625,24.236C14.182,29.933,2.479,38.185,0,58.428h59.041c-2.479-20.243-14.182-28.495-21.66-34.076M95.241,11.693c.719-2.935,1.408-7.256,3.199-11.577h-4.565c.039.163.037.408.034.693-.029,3.383-2.115,13.492-3.333,17.609h-.122c-1.835-4.606-4.05-12.391-5.194-16.712h-3.913c-1.758,5.299-4.686,13.859-5.934,16.712h-.122c-.828-3.22-1.728-7.5-2.591-11.372-.511-2.201-.74-3.954-.918-6.93h-6.44c2.522,9.946,4.483,18.751,6.364,27.392h3.546c1.586-4.198,4.716-12.636,6.757-17.568h.081c1.116,2.894,4.801,15.122,5.594,17.568h3.954c1.317-6.073,2.378-10.843,3.603-15.815M107.59,27.508c-.654-4.484-.703-8.193-.671-11.862.042-4.891.208-9.823.421-15.53h-6.685c.779,4.158.872,7.5.843,10.802l-.145,16.59h6.237ZM133.533,10.51c.033-3.79.223-6.888.661-10.394h-4.484c.897,4.688.71,12.106.666,17.12-.004.489-.007.856-.009,1.019h-.122c-3.425-4.565-8.74-12.106-12.967-18.139h-6.114c1.141,4.729.853,9.62.78,17.976-.025,2.894-.091,5.87-.734,9.416h3.832c-.108-1.63-.104-2.079-.098-2.772.05-5.788.059-11.495.11-17.283h.122c2.217,2.854,7.372,9.987,10.111,13.737,1.088,1.508,3.463,4.851,4.388,6.318h3.75c-.072-1.019-.065-1.916-.058-2.731.011-1.223.061-2.242.07-3.261l.096-11.006ZM143.739,24.451c-.18-2.65-.222-7.174-.2-9.783h1.101c1.997,0,3.464.041,6.15.53l1.377-3.669h-8.6c.059-2.119.176-6.155.276-8.315,1.06-.041,1.713-.081,3.262-.081,1.997,0,4.359.285,7.085.774.419-1.264.919-2.527,1.338-3.791h-18.261c.779,4.158.872,7.5.843,10.802l-.145,16.59h16.835c.502-1.467,1.044-2.935,1.587-4.402-3.187.856-6.29,1.467-8.287,1.467-1.631,0-2.69-.081-4.361-.122M152.071,46.083c-.06,6.907-1.926,10.214-6.262,10.214-4.372,0-6.181-3.307-6.12-10.214.06-6.908,1.926-10.178,6.298-10.178,4.336,0,6.144,3.27,6.084,10.178M157.803,46.083c.072-8.267-3.487-13.007-11.791-13.007s-11.983,4.74-12.055,13.007c-.073,8.304,3.487,13.007,11.828,13.007s11.945-4.703,12.018-13.007M161.362,7.319c0,.117-.047.176-.177.176h-.247v-2.895h.247c.13,0,.177.059.177.177v2.542ZM161.35,3.6c0,.117-.059.176-.177.176h-.235V.952h.235c.118,0,.177.059.177.176v2.472ZM162.35,7.425v-2.648c0-.365-.129-.553-.423-.636.259-.106.412-.318.412-.741V1.022c0-.612-.306-.918-.918-.918h-1.46v8.239h1.471c.612,0,.918-.306.918-.918M164.504,5.565l.836-5.461h-.942l-.353,3.755-.329-3.755h-1.036l.835,5.532v2.707h.989v-2.778ZM165.854,24.718h-.965l.482-6.752.483,6.752ZM166.06,27.508h1.085l-.998-12.073h-1.464l-1.017,12.073h1.034l.12-1.826h1.103l.137,1.826ZM169.35,10.851c0,.292-.137.413-.413.413h-.241c-.276,0-.396-.121-.396-.413V1.395c0-.293.12-.413.396-.413h.241c.276,0,.413.12.413.413v9.456ZM170.47,10.902V1.343C170.47.448,170.022,0,169.126,0h-.602c-.896,0-1.344.448-1.344,1.343v9.559c0,.896.448,1.361,1.344,1.361h.602c.896,0,1.344-.465,1.344-1.361M171.761,15.452h-1.119v12.056h1.119v-5.804l.982,5.804h1.154l-1.103-6.097,1.172-5.959h-1.154l-1.051,5.752v-5.752ZM173.277,6.028c0,.276-.138.414-.413.414h-.465V1.085h.465c.275,0,.413.121.413.413v4.53ZM174.397,6.08V1.447c0-.948-.379-1.344-1.344-1.344h-1.774v12.057h1.12v-4.737h.654c.896,0,1.344-.448,1.344-1.343M175.103,12.16h2.48v-.999h-1.361v-4.599h1.292v-.999h-1.292V1.102h1.343V.103h-2.462v12.057ZM176.343,24.718h-.965l.482-6.752.483,6.752ZM176.549,27.508h1.085l-.999-12.073h-1.464l-1.016,12.073h1.034l.12-1.826h1.102l.138,1.826ZM180.373,12.16h1.188V.103h-.982l.018,5.46.103,2.894-1.154-8.354h-1.292v12.057h.999l-.017-5.512-.103-3.393,1.24,8.905ZM181.561,27.508v-12.056h-.982l.018,5.46.103,2.893-1.154-8.353h-1.292v12.056h.999l-.017-5.511-.103-3.393,1.24,8.904h1.188Z"/>
  </g>
</svg>