<?xml version="1.0" encoding="UTF-8"?>
<svg id="Layer_1" xmlns="http://www.w3.org/2000/svg" width="98" height="59" xmlns:xlink="http://www.w3.org/1999/xlink" version="1.1" viewBox="0 0 98 59">
  <!-- Generator: Adobe Illustrator 29.5.0, SVG Export Plug-In . SVG Version: 2.1.0 Build 137)  -->
  <defs>
    <style>
      .st0 {
        fill: none;
      }

      .st1 {
        fill: #85828e;
      }

      .st2 {
        clip-path: url(#clippath);
      }
    </style>
    <clipPath id="clippath">
      <rect class="st0" width="98" height="59"/>
    </clipPath>
  </defs>
  <g class="st2">
    <path class="st1" d="M96.105,54.279h-5.265v1.048h5.265v-1.048ZM90.067,57.84l3.23-8.591h.281l3.229,8.591h1.193l-3.72-9.778h-1.685l-3.721,9.778h1.193ZM86.347,48.062h-1.123v9.778h1.123v-9.778ZM75.957,52.463v-3.353h3.089c.281,0,.538.072.772.217.234.144.421.344.562.6.14.257.21.543.21.86s-.07.603-.21.859c-.141.256-.328.456-.562.6-.234.145-.491.217-.772.217h-3.089ZM75.957,56.793v-3.352h3.229c.431,0,.796.158,1.096.475.299.316.449.717.449,1.201,0,.317-.07.603-.211.859-.14.256-.327.457-.561.601-.234.144-.492.216-.773.216h-3.229ZM79.186,57.84c.487,0,.934-.121,1.341-.363.407-.242.73-.571.969-.985.239-.414.358-.873.358-1.376,0-.54-.122-1.001-.365-1.383-.243-.382-.519-.643-.828-.782v-.07c.168-.093.332-.24.491-.44.159-.2.292-.442.4-.727.108-.283.162-.593.162-.928,0-.503-.12-.962-.358-1.376-.239-.415-.562-.743-.969-.985-.407-.242-.854-.363-1.341-.363h-4.212v9.778h4.352ZM65.567,53.022v-3.912h3.159c.309,0,.592.082.85.245.257.163.461.393.611.691.149.298.224.638.224,1.02s-.075.722-.224,1.02c-.15.298-.354.528-.611.691-.258.163-.541.245-.85.245h-3.159ZM65.567,57.84v-3.772h.843l3.931,3.772h1.404l-4.226-4.037v.265h1.207c.515,0,.985-.13,1.411-.391.426-.26.766-.619,1.018-1.075.253-.457.38-.969.38-1.537s-.127-1.08-.38-1.537c-.252-.456-.592-.814-1.018-1.075-.426-.261-.896-.391-1.411-.391h-4.282v9.778h1.123ZM61.145,57.84v-1.048h-5.195v-3.352h4.914v-1.048h-4.914v-3.283h5.195v-1.047h-6.318v9.778h6.318ZM49.955,57.623c.543-.237.952-.567,1.228-.991.276-.424.415-.906.415-1.446,0-.494-.099-.915-.295-1.264-.197-.35-.501-.641-.913-.873-.412-.233-.945-.406-1.6-.517l-1.545-.28c-.543-.093-.948-.274-1.214-.544-.267-.27-.4-.601-.4-.992,0-.512.196-.931.589-1.258.393-.325.946-.488,1.657-.488.524,0,.976.088,1.355.265.379.177.669.414.87.712.201.299.302.624.302.978h1.123c0-.559-.149-1.066-.449-1.522-.3-.457-.725-.818-1.278-1.083-.552-.265-1.193-.398-1.923-.398-.683,0-1.28.121-1.79.363-.51.242-.901.573-1.173.992-.271.419-.407.899-.407,1.439,0,.465.092.868.274,1.208.183.34.449.617.8.831.351.215.789.373,1.313.475l1.896.349c.561.103.982.292,1.263.566.281.275.421.622.421,1.041,0,.522-.201.943-.603,1.264-.403.321-1.021.482-1.854.482-.543,0-1.011-.088-1.404-.265-.393-.177-.69-.415-.891-.713-.202-.298-.302-.624-.302-.978h-1.123c0,.541.152,1.039.456,1.495.304.456.737.822,1.299,1.097.561.274,1.216.412,1.965.412s1.395-.119,1.938-.357M37.403,59l.842-2.835h-1.698l-.351,2.835h1.207ZM27.14,52.839v-3.339h3.468c.337,0,.636.068.898.203.262.135.464.328.604.58.14.251.211.549.211.894,0,.335-.071.628-.211.88-.14.251-.342.445-.604.579-.262.136-.561.203-.898.203h-3.468ZM27.14,57.84v-3.548h.912l4.016,3.548h2.078l-4.563-3.981-.085.391h1.264c.58,0,1.109-.128,1.587-.384.477-.256.854-.617,1.13-1.083.276-.465.414-.996.414-1.592,0-.615-.14-1.157-.421-1.628-.281-.47-.667-.838-1.158-1.103-.492-.266-1.046-.398-1.664-.398h-5.069v9.778h1.559ZM22.521,48.062h-1.558v9.778h1.558v-9.778ZM16.778,54.153h-6.009v1.411h6.009v-1.411ZM10.165,57.84l3.454-8.158h.309l3.44,8.158h1.685l-4.198-9.778h-2.176l-4.213,9.778h1.699ZM2.022,57.84v-4.191h5.279v-1.397H2.022v-2.766h5.644v-1.424H.464v9.778h1.558Z"/>
    <path class="st1" d="M96.942,41.876v-1.397h-5.826v-2.822h5.504v-1.397h-5.504v-2.766h5.826v-1.396h-7.385v9.778h7.385ZM77.479,40.437v-6.901h2.261c.72,0,1.376.147,1.965.44.59.294,1.053.701,1.39,1.223.337.521.506,1.117.506,1.788s-.169,1.266-.506,1.788c-.337.521-.8.929-1.39,1.222-.589.293-1.245.44-1.965.44h-2.261ZM79.727,41.876c1.029,0,1.958-.21,2.787-.629.828-.419,1.476-.998,1.944-1.739.468-.74.702-1.58.702-2.521s-.234-1.781-.702-2.522c-.468-.74-1.116-1.32-1.944-1.739-.829-.419-1.758-.628-2.787-.628h-3.805v9.778h3.805ZM69.937,38.188h-6.009v1.411h6.009v-1.411ZM63.324,41.876l3.454-8.158h.309l3.44,8.158h1.685l-4.198-9.778h-2.176l-4.212,9.778h1.698ZM51.681,36.875v-3.339h3.468c.337,0,.636.068.898.203.262.135.464.328.604.58.14.251.211.549.211.894,0,.335-.071.628-.211.88-.14.251-.342.445-.604.579-.262.136-.561.203-.898.203h-3.468ZM51.681,41.876v-3.548h.912l4.016,3.548h2.078l-4.563-3.981-.085.391h1.264c.58,0,1.109-.128,1.587-.384.477-.256.854-.617,1.13-1.083.276-.465.414-.996.414-1.592,0-.615-.14-1.157-.421-1.628-.281-.47-.667-.838-1.158-1.103-.492-.266-1.046-.398-1.664-.398h-5.069v9.778h1.559ZM41.991,41.827c.477-.135.886-.314,1.228-.538.342-.223.634-.465.878-.726h.084l.14,1.313h1.208v-5.085h-4.76v1.202h3.735l-.576-.503v.363c0,.484-.152.936-.456,1.355-.304.419-.723.754-1.257,1.006-.533.251-1.128.377-1.783.377-.674,0-1.299-.151-1.874-.454-.576-.303-1.032-.727-1.369-1.271-.337-.545-.506-1.171-.506-1.879s.169-1.334.506-1.879.795-.969,1.376-1.271c.58-.303,1.216-.454,1.909-.454.711,0,1.355.156,1.931.468.575.312,1.036.747,1.383,1.306h1.671c-.206-.615-.553-1.167-1.039-1.656-.487-.488-1.07-.87-1.748-1.145-.679-.275-1.411-.412-2.198-.412-.973,0-1.87.209-2.688.628-.82.42-1.47,1.016-1.952,1.789-.482.773-.723,1.648-.723,2.626s.241,1.851.723,2.619c.482.768,1.128,1.364,1.938,1.788.809.424,1.696.636,2.66.636.562,0,1.081-.068,1.559-.203M32.285,41.876v-1.481h-5.574v-8.297h-1.559v9.778h7.133ZM20.67,41.876v-1.397h-5.827v-2.822h5.504v-1.397h-5.504v-2.766h5.827v-1.396h-7.385v9.778h7.385ZM2.021,36.316v-2.822h3.412c.3,0,.569.061.807.182.239.121.422.289.548.503.126.214.19.461.19.74,0,.271-.064.513-.19.727-.126.214-.309.379-.548.496-.238.116-.507.174-.807.174h-3.412ZM2.021,40.479v-2.822h3.595c.468,0,.84.131,1.116.391.276.261.414.597.414,1.006,0,.28-.063.526-.19.741-.126.214-.306.382-.54.502-.234.122-.501.182-.8.182h-3.595ZM5.742,41.876c.58,0,1.095-.119,1.544-.356.45-.238.801-.564,1.053-.978.253-.414.38-.882.38-1.404,0-.512-.148-.964-.443-1.355-.295-.391-.625-.657-.99-.796v-.07c.197-.093.394-.238.59-.433.197-.196.358-.433.484-.713.127-.279.19-.591.19-.935,0-.522-.126-.99-.379-1.404-.253-.415-.604-.741-1.053-.978-.449-.238-.964-.356-1.544-.356H.464v9.778h5.279Z"/>
    <path class="st1" d="M95.132,25.639c.608-.294,1.076-.694,1.404-1.202.328-.507.491-1.092.491-1.753,0-.624-.159-1.185-.477-1.683s-.761-.887-1.327-1.167c-.566-.279-1.214-.419-1.944-.419-.384,0-.73.038-1.039.112-.309.075-.576.186-.801.335h-.07l.239-2.025h4.774v-1.704h-6.431l-.646,5.545h1.966c.206-.214.458-.377.758-.489.299-.111.651-.167,1.053-.167.421,0,.781.07,1.081.209.3.14.531.336.695.587s.246.545.246.88c0,.317-.082.603-.246.859s-.402.457-.716.601c-.314.144-.686.216-1.116.216-.337,0-.641-.051-.913-.153-.271-.103-.498-.245-.681-.426-.182-.182-.306-.398-.372-.65h-1.937c.084.587.299,1.101.646,1.544.346.442.8.784,1.361,1.026.562.242,1.194.364,1.896.364.795,0,1.497-.147,2.106-.44M86.764,25.911v-1.746h-4.38v-.07l2.864-2.445c.318-.251.578-.496.779-.733.201-.237.353-.503.456-.796.103-.294.155-.631.155-1.013,0-.605-.159-1.145-.478-1.62-.318-.475-.76-.848-1.326-1.118-.567-.27-1.206-.405-1.917-.405-.73,0-1.378.144-1.944.433-.567.289-1.009.689-1.327,1.201-.319.513-.478,1.099-.478,1.76h1.938c0-.325.077-.612.232-.859.154-.246.369-.437.645-.572.276-.135.588-.203.934-.203s.655.061.927.182c.271.121.479.286.625.496.145.209.217.458.217.747,0,.279-.056.519-.168.719-.113.201-.3.412-.562.636l-4.675,3.8v1.606h7.483ZM69.558,23.906c-.529-.274-.948-.661-1.257-1.159-.309-.498-.463-1.073-.463-1.725s.154-1.227.463-1.725c.309-.499.728-.885,1.257-1.16.529-.274,1.121-.412,1.776-.412.646,0,1.233.138,1.762.412.529.275.948.661,1.257,1.16.309.498.463,1.073.463,1.725s-.154,1.227-.463,1.725c-.309.498-.728.885-1.257,1.159-.529.275-1.116.413-1.762.413-.655,0-1.247-.138-1.776-.413M74.065,25.443c.828-.424,1.483-1.02,1.966-1.788.482-.768.723-1.646.723-2.633s-.241-1.865-.723-2.633c-.483-.769-1.138-1.365-1.966-1.788-.828-.424-1.739-.636-2.731-.636s-1.902.212-2.731.636c-.828.423-1.486,1.019-1.972,1.788-.487.768-.731,1.646-.731,2.633s.244,1.865.731,2.633c.486.768,1.144,1.364,1.972,1.788.829.424,1.739.636,2.731.636s1.903-.212,2.731-.636M63.584,25.911v-1.746h-4.381v-.07l2.865-2.445c.318-.251.578-.496.779-.733s.353-.503.456-.796c.103-.294.155-.631.155-1.013,0-.605-.16-1.145-.478-1.62-.318-.475-.76-.848-1.327-1.118-.566-.27-1.205-.405-1.916-.405-.73,0-1.378.144-1.945.433-.566.289-1.008.689-1.326,1.201-.319.513-.478,1.099-.478,1.76h1.938c0-.325.077-.612.231-.859.155-.246.37-.437.646-.572.276-.135.588-.203.934-.203s.655.061.927.182c.271.121.479.286.624.496.145.209.218.458.218.747,0,.279-.056.519-.168.719-.113.201-.3.412-.562.636l-4.675,3.8v1.606h7.483ZM49.084,27.14l.927-3.255h-2.022l-.379,3.255h1.474ZM43.272,25.639c.608-.294,1.076-.694,1.404-1.202.327-.507.491-1.092.491-1.753,0-.624-.159-1.185-.477-1.683-.319-.498-.761-.887-1.327-1.167-.567-.279-1.215-.419-1.945-.419-.384,0-.73.038-1.039.112-.309.075-.575.186-.8.335h-.07l.239-2.025h4.773v-1.704h-6.43l-.646,5.545h1.966c.205-.214.458-.377.758-.489.299-.111.65-.167,1.053-.167.421,0,.781.07,1.081.209.299.14.531.336.695.587s.246.545.246.88c0,.317-.082.603-.246.859s-.403.457-.716.601c-.314.144-.686.216-1.116.216-.337,0-.642-.051-.913-.153-.272-.103-.498-.245-.681-.426-.182-.182-.307-.398-.372-.65h-1.938c.085.587.3,1.101.646,1.544.346.442.801.784,1.362,1.026.562.242,1.194.364,1.896.364.795,0,1.497-.147,2.106-.44M34.904,25.911v-1.746h-4.381v-.07l2.865-2.445c.318-.251.577-.496.779-.733.201-.237.353-.503.456-.796.103-.294.155-.631.155-1.013,0-.605-.16-1.145-.478-1.62-.318-.475-.76-.848-1.327-1.118-.566-.27-1.205-.405-1.916-.405-.73,0-1.379.144-1.945.433-.566.289-1.008.689-1.327,1.201-.318.513-.477,1.099-.477,1.76h1.938c0-.325.077-.612.231-.859.155-.246.37-.437.646-.572.276-.135.587-.203.934-.203s.655.061.926.182c.272.121.48.286.625.496.145.209.218.458.218.747,0,.279-.056.519-.169.719-.112.201-.299.412-.561.636l-4.676,3.8v1.606h7.484ZM25.244,20.142h-5.391v1.62h5.391v-1.62ZM17.578,25.911v-1.746h-4.38v-.07l2.864-2.445c.318-.251.578-.496.779-.733s.354-.503.457-.796c.103-.294.154-.631.154-1.013,0-.605-.159-1.145-.477-1.62-.319-.475-.761-.848-1.327-1.118-.567-.27-1.205-.405-1.917-.405-.73,0-1.378.144-1.944.433-.567.289-1.009.689-1.327,1.201-.318.513-.477,1.099-.477,1.76h1.937c0-.325.077-.612.232-.859.154-.246.37-.437.646-.572.276-.135.587-.203.933-.203s.655.061.927.182c.271.121.48.286.625.496.145.209.217.458.217.747,0,.279-.056.519-.168.719-.112.201-.3.412-.562.636l-4.675,3.8v1.606h7.483ZM7.596,25.911v-1.746H3.215v-.07l2.865-2.445c.318-.251.578-.496.779-.733s.353-.503.456-.796c.103-.294.155-.631.155-1.013,0-.605-.16-1.145-.478-1.62-.318-.475-.76-.848-1.327-1.118-.566-.27-1.205-.405-1.916-.405-.73,0-1.378.144-1.945.433-.566.289-1.008.689-1.326,1.201C.159,18.112,0,18.698,0,19.359h1.938c0-.325.077-.612.231-.859.155-.246.37-.437.646-.572.276-.135.588-.203.934-.203s.655.061.927.182c.271.121.479.286.624.496.145.209.218.458.218.747,0,.279-.056.519-.168.719-.113.201-.3.412-.562.636L.113,24.305v1.606h7.483Z"/>
    <path class="st1" d="M90.054,4.819V1.928h3.187c.309,0,.576.056.8.167.225.112.403.28.534.503.131.224.196.48.196.769,0,.298-.065.556-.196.775-.131.219-.309.386-.534.503-.224.116-.491.174-.8.174h-3.187ZM90.054,9.946v-3.381h.716l3.664,3.381h2.542l-4.409-3.939-.168.517h1.165c.571,0,1.095-.131,1.572-.392.478-.26.859-.628,1.145-1.103.285-.475.428-1.02.428-1.635,0-.623-.145-1.182-.435-1.676-.291-.493-.693-.875-1.208-1.145-.515-.27-1.095-.405-1.741-.405h-5.209v9.778h1.938ZM84.859,9.946v-1.69h-5.63v-2.403h5.293v-1.648h-5.293V1.858h5.63V.168h-7.568v9.778h7.568ZM67.365,4.261V1.858h3.145c.281,0,.524.051.73.153.206.103.363.243.47.42.108.177.162.382.162.614,0,.252-.054.468-.162.65-.107.181-.264.321-.47.419-.206.098-.449.147-.73.147h-3.145ZM67.365,8.256v-2.403h3.342c.402,0,.725.112.968.335.244.224.365.517.365.88,0,.233-.054.438-.161.615-.108.177-.262.317-.463.419-.202.103-.438.154-.709.154h-3.342ZM70.945,9.946c.599,0,1.128-.116,1.587-.349.458-.233.814-.559,1.067-.978.253-.419.379-.894.379-1.425,0-.503-.147-.947-.442-1.334-.295-.386-.621-.654-.976-.803v-.07c.196-.093.391-.235.583-.426.191-.191.348-.428.47-.713.121-.284.182-.593.182-.929,0-.53-.124-1.005-.372-1.424-.248-.419-.603-.745-1.067-.978-.463-.233-.99-.349-1.579-.349h-5.35v9.778h5.518ZM51.5,9.946V3.073h.336l2.963,6.873h1.783l2.991-6.873h.323v6.873h1.937V.168h-2.962l-3.019,6.97h-.323L52.524.168h-2.962v9.778h1.938ZM46.305,9.946v-1.69h-5.63v-2.403h5.293v-1.648h-5.293V1.858h5.63V.168h-7.568v9.778h7.568ZM32.138,9.946L36.112.168h-2.134l-3.033,7.585h-.337L27.589.168h-2.162l3.987,9.778h2.724ZM16.406,7.941c-.529-.274-.947-.661-1.256-1.159-.309-.498-.464-1.073-.464-1.725s.155-1.227.464-1.725c.309-.499.727-.885,1.256-1.16.529-.274,1.121-.412,1.776-.412.646,0,1.233.138,1.762.412.529.275.948.661,1.257,1.16.309.498.463,1.073.463,1.725s-.154,1.227-.463,1.725c-.309.498-.728.885-1.257,1.159-.529.275-1.116.413-1.762.413-.655,0-1.247-.138-1.776-.413M20.913,9.478c.829-.424,1.484-1.02,1.966-1.788.482-.768.723-1.646.723-2.633s-.241-1.865-.723-2.633c-.482-.769-1.137-1.365-1.966-1.788C20.085.212,19.174,0,18.182,0s-1.902.212-2.731.636c-.828.423-1.486,1.019-1.972,1.788-.487.768-.73,1.646-.73,2.633s.243,1.865.73,2.633c.486.768,1.144,1.364,1.972,1.788.829.424,1.739.636,2.731.636s1.903-.212,2.731-.636M2.317,9.946V2.864h.337l4.409,7.082h2.541V.168h-1.924v7.082h-.337L2.921.168H.379v9.778h1.938Z"/>
  </g>
</svg>